<svg xmlns="http://www.w3.org/2000/svg" xmlns:xlink="http://www.w3.org/1999/xlink" version="1.1" style="background: #ffffff" viewBox="0 0 5000 2214"><style id="v-3" type="text/css">        .joint-element .scalable * {            vector-effect: non-scaling-stroke;        }    </style><defs joint-selector="defs"><marker id="v-21252848929" orient="auto" overflow="visible" markerUnits="userSpaceOnUse"><path id="v-128" stroke="#444444" fill="#444444" transform="rotate(180)" d="M 20 -10 0 0 20 10 Z"></path></marker></defs><g joint-selector="layers"  transform="matrix(1,0,0,1,0,0)"><g  style="pointer-events: none;"></g><g ></g><g  style="user-select: none;"><!--z-index:0--><!--z-index:1--><!--z-index:2--><!--z-index:3--><!--z-index:4--><!--z-index:5--><!--z-index:6--><!--z-index:7--><!--z-index:8--><!--z-index:9--><!--z-index:10--><!--z-index:11--><!--z-index:12--><!--z-index:13--><!--z-index:14--><!--z-index:15--><!--z-index:16--><!--z-index:17--><!--z-index:18--><!--z-index:19--><!--z-index:20--><!--z-index:21--><!--z-index:22--><!--z-index:23--><!--z-index:24--><!--z-index:25--><!--z-index:26--><!--z-index:27--><g   id="j_207"  transform="translate(20,2170)"><g id="v-2200"><text  id="v-2201" font-size="24px" xml:space="preserve" y="0.8em" font-weight="normal" text-anchor="start" fill="#444444" pointer-events="none" display="block" font-family="Tahoma, Verdana, Helvetica, Arial"><tspan dy="0" >jueves, 9 de julio de 2026, 5:28 p. m. hora estándar de Perú</tspan></text></g></g><!--z-index:28--><g   id="j_206"  transform="translate(20,2136)"><g id="v-2198"><text  id="v-2199" font-size="24px" xml:space="preserve" y="0.8em" font-weight="normal" text-anchor="start" fill="#444444" pointer-events="none" display="block" font-family="Tahoma, Verdana, Helvetica, Arial"><tspan dy="0" >Component View: Audit &amp; Compliance Context</tspan></text></g></g><!--z-index:29--><g   id="j_205"  transform="translate(20,2090)"><g id="v-2196"><text  id="v-2197" font-size="36px" xml:space="preserve" y="0.8em" font-weight="normal" text-anchor="start" fill="#444444" pointer-events="none" display="block" font-family="Tahoma, Verdana, Helvetica, Arial"><tspan dy="0" >Component View: CortiSense - Audit and Compliance</tspan></text></g></g><!--z-index:30--><g   id="j_209"  transform="translate(200,143)" style="; opacity: 1;"><g id="v-2220"><rect  id="v-2221" width="4600" height="1813" rx="0" ry="0" stroke-width="2" pointer-events="none" stroke="#444444" fill="#ffffff" opacity="1" stroke-dasharray=""></rect><text  id="v-2222" font-size="33.599999999999994px" xml:space="preserve" y="1774" font-weight="bold" text-anchor="start" pointer-events="visible" font-family="Tahoma, Verdana, Helvetica, Arial" fill="#444444" transform="matrix(1,0,0,1,15,0)"><tspan dy="0" >CortiSense</tspan></text><text  id="v-2223" font-size="16.799999999999997px" xml:space="preserve" y="1798" font-weight="normal" text-anchor="start" pointer-events="visible" font-family="Tahoma, Verdana, Helvetica, Arial" fill="#444444" transform="matrix(1,0,0,1,15,0)"><tspan dy="0" >[Software System]</tspan></text><image  id="v-2224" pointer-events="visible"></image></g></g><!--z-index:31--><g   id="j_208"  transform="translate(250,789)" style=""><g  id="v-2208" style="opacity: 1;"><rect  id="v-2209" rx="10" ry="10" stroke-width="2" pointer-events="visiblePainted" fill="#2672c0" stroke="#2672c0" stroke-dasharray="" width="450" height="302" style="fill: rgb(38, 114, 192); stroke: rgb(38, 114, 192);"></rect><rect  id="v-2210" rx="10" ry="10" stroke-width="0" pointer-events="visiblePainted" fill="#2a7fd5" stroke="#2672c0" width="446" height="260" x="2" y="40" style="fill: rgb(42, 127, 213);"></rect><ellipse  id="v-2217" fill="#2a7fd5" cx="20" cy="20" rx="10" ry="10" style="fill: rgb(42, 127, 213);"></ellipse><ellipse  id="v-2218" fill="#2a7fd5" cx="50" cy="20" rx="10" ry="10" style="fill: rgb(42, 127, 213);"></ellipse><ellipse  id="v-2219" fill="#2a7fd5" cx="80" cy="20" rx="10" ry="10" style="fill: rgb(42, 127, 213);"></ellipse><rect  id="v-2211" rx="10" ry="10" stroke-width="0" pointer-events="visiblePainted" fill="#2a7fd5" width="340" height="20" x="100" y="10" style="fill: rgb(42, 127, 213);"></rect><text  id="v-2212" font-size="33.599999999999994px" xml:space="preserve" y="106.9" font-weight="bold" text-anchor="middle" pointer-events="visible" font-family="Tahoma, Verdana, Helvetica, Arial" fill="#ffffff" dominant-baseline="hanging" transform="matrix(1,0,0,1,225,0)" style="fill: rgb(255, 255, 255);"><tspan dy="0" >Single Page Application</tspan></text><text  id="v-2213" font-size="16.799999999999997px" xml:space="preserve" y="148.5" text-anchor="middle" font-family="Tahoma, Verdana, Helvetica, Arial" fill="#ffffff" dominant-baseline="hanging" transform="matrix(1,0,0,1,225,0)" style="display: block; fill: rgb(255, 255, 255);"><tspan dy="0" >[Container: Vue 3]</tspan></text><text  id="v-2214" font-size="24px" xml:space="preserve" y="180.3" text-anchor="middle" font-family="Tahoma, Verdana, Helvetica, Arial" fill="#ffffff" dominant-baseline="hanging" transform="matrix(1,0,0,1,225,0)" style="display: block; fill: rgb(255, 255, 255);"><tspan dy="0" >Main interface for administrators,</tspan><tspan dy="1.2em" x="0" >doctors, and staff.</tspan></text><g  id="v-2215" font-weight="normal" text-anchor="middle" color="#ffffff" transform="matrix(1,0,0,1,222.5,268)" display="none" style="fill: rgb(255, 255, 255);"><g ></g><g ></g><g ></g><g ></g></g><image  id="v-2216"></image></g></g><!--z-index:32--><g   id="j_210"  transform="translate(3460,393)" style=""><g  id="v-2228" style="opacity: 1;"><path  d="M 0,30 a 225,30 0,0,0 450 0 a 225,30 0,0,0 -450 0 l 0,240 a 225,30 0,0,0 450 0 l 0,-240" id="v-2229" stroke-width="2" pointer-events="visiblePainted" fill="#e51c23" stroke="#ce1920" stroke-dasharray="" style="fill: rgb(229, 28, 35); stroke: rgb(206, 25, 32);"></path><rect  id="v-2230" stroke-width="0" pointer-events="visiblePainted" fill="none" stroke="none" width="450" height="270" x="0" y="30"></rect><text  id="v-2231" font-size="33.599999999999994px" xml:space="preserve" y="101.9" font-weight="bold" text-anchor="middle" pointer-events="visible" font-family="Tahoma, Verdana, Helvetica, Arial" fill="#ffffff" dominant-baseline="hanging" transform="matrix(1,0,0,1,225,0)" style="fill: rgb(255, 255, 255);"><tspan dy="0" >Database</tspan></text><text  id="v-2232" font-size="16.799999999999997px" xml:space="preserve" y="143.5" text-anchor="middle" font-family="Tahoma, Verdana, Helvetica, Arial" fill="#ffffff" dominant-baseline="hanging" transform="matrix(1,0,0,1,225,0)" style="display: block; fill: rgb(255, 255, 255);"><tspan dy="0" >[Container: MySQL]</tspan></text><text  id="v-2233" font-size="24px" xml:space="preserve" y="175.3" text-anchor="middle" font-family="Tahoma, Verdana, Helvetica, Arial" fill="#ffffff" dominant-baseline="hanging" transform="matrix(1,0,0,1,225,0)" style="display: block; fill: rgb(255, 255, 255);"><tspan dy="0" >Stores users, shifts, subscriptions,</tspan><tspan dy="1.2em" x="0" >telemetry, and logs.</tspan></text><g  id="v-2234" font-weight="normal" text-anchor="middle" color="#ffffff" transform="matrix(1,0,0,1,222.5,268)" display="none" style="fill: rgb(255, 255, 255);"><g ></g><g ></g><g ></g><g ></g></g><image  id="v-2235"></image></g></g><!--z-index:33--><g   id="j_211"  transform="translate(4300,1125)" style=""><g  id="v-2239" style="opacity: 1;"><rect  id="v-2240" rx="20" ry="20" stroke-width="2" pointer-events="visiblePainted" fill="#2ba356" stroke="#27934d" stroke-dasharray="" width="450" height="300" style="fill: rgb(43, 163, 86); stroke: rgb(39, 147, 77);"></rect><text  id="v-2241" font-size="33.599999999999994px" xml:space="preserve" y="86.9" font-weight="bold" text-anchor="middle" pointer-events="visible" font-family="Tahoma, Verdana, Helvetica, Arial" fill="#ffffff" dominant-baseline="hanging" transform="matrix(1,0,0,1,225,0)" style="fill: rgb(255, 255, 255);"><tspan dy="0" >Shared Kernel</tspan></text><text  id="v-2242" font-size="16.799999999999997px" xml:space="preserve" y="128.5" text-anchor="middle" font-family="Tahoma, Verdana, Helvetica, Arial" fill="#ffffff" dominant-baseline="hanging" transform="matrix(1,0,0,1,225,0)" style="display: block; fill: rgb(255, 255, 255);"><tspan dy="0" >[Container: C# Class Library]</tspan></text><text  id="v-2243" font-size="24px" xml:space="preserve" y="160.3" text-anchor="middle" font-family="Tahoma, Verdana, Helvetica, Arial" fill="#ffffff" dominant-baseline="hanging" transform="matrix(1,0,0,1,225,0)" style="display: block; fill: rgb(255, 255, 255);"><tspan dy="0" >Centralizes base classes, exceptions,</tspan><tspan dy="1.2em" x="0" >and cross-cutting abstractions.</tspan></text><g  id="v-2244" color="#ffffff" transform="matrix(1,0,0,1,210,268)" display="none" style="fill: rgb(255, 255, 255);"><g  transform="translate(5 0)"><svg xmlns="http://www.w3.org/2000/svg" width="20" height="20" fill="currentColor" viewBox="0 0 16 16"><path fill-rule="evenodd" d="M6.5 12a5.5 5.5 0 1 0 0-11 5.5 5.5 0 0 0 0 11zM13 6.5a6.5 6.5 0 1 1-13 0 6.5 6.5 0 0 1 13 0z"></path><path d="M10.344 11.742c.03.04.062.078.098.115l3.85 3.85a1 1 0 0 0 1.415-1.414l-3.85-3.85a1.007 1.007 0 0 0-.115-.1 6.538 6.538 0 0 1-1.398 1.4z"></path><path fill-rule="evenodd" d="M6.5 3a.5.5 0 0 1 .5.5V6h2.5a.5.5 0 0 1 0 1H7v2.5a.5.5 0 0 1-1 0V7H3.5a.5.5 0 0 1 0-1H6V3.5a.5.5 0 0 1 .5-.5z"></path></svg></g><g ></g><g ></g><g ></g></g><image  id="v-2245"></image></g></g><!--z-index:34--><g   id="j_213"  transform="translate(1040,743)" style="; opacity: 1;"><g id="v-2256"><rect  id="v-2257" width="2920" height="1084" rx="20" ry="20" stroke-width="2" pointer-events="none" stroke="#27934d" fill="#ffffff" opacity="1" stroke-dasharray=""></rect><text  id="v-2258" font-size="33.599999999999994px" xml:space="preserve" y="1045" font-weight="bold" text-anchor="start" pointer-events="visible" font-family="Tahoma, Verdana, Helvetica, Arial" fill="#27934d" transform="matrix(1,0,0,1,15,0)"><tspan dy="0" >Audit and Compliance</tspan></text><text  id="v-2259" font-size="16.799999999999997px" xml:space="preserve" y="1069" font-weight="normal" text-anchor="start" pointer-events="visible" font-family="Tahoma, Verdana, Helvetica, Arial" fill="#27934d" transform="matrix(1,0,0,1,15,0)"><tspan dy="0" >[Container]</tspan></text><image  id="v-2260" pointer-events="visible"></image></g></g><!--z-index:35--><g   id="j_217"  transform="translate(1090,193)" style=""><g  id="v-2297" style="opacity: 1;"><rect  id="v-2298" rx="20" ry="20" stroke-width="2" pointer-events="visiblePainted" fill="#2ba356" stroke="#27934d" stroke-dasharray="" width="450" height="300" style="fill: rgb(43, 163, 86); stroke: rgb(39, 147, 77);"></rect><text  id="v-2299" font-size="33.599999999999994px" xml:space="preserve" y="86.9" font-weight="bold" text-anchor="middle" pointer-events="visible" font-family="Tahoma, Verdana, Helvetica, Arial" fill="#ffffff" dominant-baseline="hanging" transform="matrix(1,0,0,1,225,0)" style="fill: rgb(255, 255, 255);"><tspan dy="0" >Clinical Risk Assessment</tspan></text><text  id="v-2300" font-size="16.799999999999997px" xml:space="preserve" y="128.5" text-anchor="middle" font-family="Tahoma, Verdana, Helvetica, Arial" fill="#ffffff" dominant-baseline="hanging" transform="matrix(1,0,0,1,225,0)" style="display: block; fill: rgb(255, 255, 255);"><tspan dy="0" >[Container: C# Class Library]</tspan></text><text  id="v-2301" font-size="24px" xml:space="preserve" y="160.3" text-anchor="middle" font-family="Tahoma, Verdana, Helvetica, Arial" fill="#ffffff" dominant-baseline="hanging" transform="matrix(1,0,0,1,225,0)" style="display: block; fill: rgb(255, 255, 255);"><tspan dy="0" >Operational core for fatigue tracking</tspan><tspan dy="1.2em" x="0" >and biometric alerts.</tspan></text><g  id="v-2302" color="#ffffff" transform="matrix(1,0,0,1,210,268)" display="none" style="fill: rgb(255, 255, 255);"><g  transform="translate(5 0)"><svg xmlns="http://www.w3.org/2000/svg" width="20" height="20" fill="currentColor" viewBox="0 0 16 16"><path fill-rule="evenodd" d="M6.5 12a5.5 5.5 0 1 0 0-11 5.5 5.5 0 0 0 0 11zM13 6.5a6.5 6.5 0 1 1-13 0 6.5 6.5 0 0 1 13 0z"></path><path d="M10.344 11.742c.03.04.062.078.098.115l3.85 3.85a1 1 0 0 0 1.415-1.414l-3.85-3.85a1.007 1.007 0 0 0-.115-.1 6.538 6.538 0 0 1-1.398 1.4z"></path><path fill-rule="evenodd" d="M6.5 3a.5.5 0 0 1 .5.5V6h2.5a.5.5 0 0 1 0 1H7v2.5a.5.5 0 0 1-1 0V7H3.5a.5.5 0 0 1 0-1H6V3.5a.5.5 0 0 1 .5-.5z"></path></svg></g><g ></g><g ></g><g ></g></g><image  id="v-2303"></image></g></g><!--z-index:36--><g   id="j_212"  transform="translate(1090,1398)" style=""><g  id="v-2249" style="opacity: 1;"><rect  id="v-2250" rx="20" ry="20" stroke-width="2" pointer-events="visiblePainted" fill="#7b7b7b" stroke="#6f6f6f" stroke-dasharray="" width="450" height="300" style="fill: rgb(123, 123, 123); stroke: rgb(111, 111, 111);"></rect><text  id="v-2251" font-size="33.599999999999994px" xml:space="preserve" y="86.9" font-weight="bold" text-anchor="middle" pointer-events="visible" font-family="Tahoma, Verdana, Helvetica, Arial" fill="#ffffff" dominant-baseline="hanging" transform="matrix(1,0,0,1,225,0)" style="fill: rgb(255, 255, 255);"><tspan dy="0" >Interfaces</tspan></text><text  id="v-2252" font-size="16.799999999999997px" xml:space="preserve" y="128.5" text-anchor="middle" font-family="Tahoma, Verdana, Helvetica, Arial" fill="#ffffff" dominant-baseline="hanging" transform="matrix(1,0,0,1,225,0)" style="display: block; fill: rgb(255, 255, 255);"><tspan dy="0" >[Component: ASP.NET Core REST]</tspan></text><text  id="v-2253" font-size="24px" xml:space="preserve" y="160.3" text-anchor="middle" font-family="Tahoma, Verdana, Helvetica, Arial" fill="#ffffff" dominant-baseline="hanging" transform="matrix(1,0,0,1,225,0)" style="display: block; fill: rgb(255, 255, 255);"><tspan dy="0" >1: interfaces - REST endpoints for</tspan><tspan dy="1.2em" x="0" >log ingestion.</tspan></text><g  id="v-2254" color="#ffffff" transform="matrix(1,0,0,1,222.5,268)" display="none" style="fill: rgb(255, 255, 255);"><g ></g><g ></g><g ></g><g ></g></g><image  id="v-2255"></image></g></g><!--z-index:37--><g   id="j_214"  transform="translate(1880,1109)" style=""><g  id="v-2264" style="opacity: 1;"><rect  id="v-2265" rx="20" ry="20" stroke-width="2" pointer-events="visiblePainted" fill="#7b7b7b" stroke="#6f6f6f" stroke-dasharray="" width="450" height="300" style="fill: rgb(123, 123, 123); stroke: rgb(111, 111, 111);"></rect><text  id="v-2266" font-size="33.599999999999994px" xml:space="preserve" y="86.9" font-weight="bold" text-anchor="middle" pointer-events="visible" font-family="Tahoma, Verdana, Helvetica, Arial" fill="#ffffff" dominant-baseline="hanging" transform="matrix(1,0,0,1,225,0)" style="fill: rgb(255, 255, 255);"><tspan dy="0" >Application</tspan></text><text  id="v-2267" font-size="16.799999999999997px" xml:space="preserve" y="128.5" text-anchor="middle" font-family="Tahoma, Verdana, Helvetica, Arial" fill="#ffffff" dominant-baseline="hanging" transform="matrix(1,0,0,1,225,0)" style="display: block; fill: rgb(255, 255, 255);"><tspan dy="0" >[Component: C# Service]</tspan></text><text  id="v-2268" font-size="24px" xml:space="preserve" y="160.3" text-anchor="middle" font-family="Tahoma, Verdana, Helvetica, Arial" fill="#ffffff" dominant-baseline="hanging" transform="matrix(1,0,0,1,225,0)" style="display: block; fill: rgb(255, 255, 255);"><tspan dy="0" >2: application - Log registration use</tspan><tspan dy="1.2em" x="0" >cases.</tspan></text><g  id="v-2269" color="#ffffff" transform="matrix(1,0,0,1,222.5,268)" display="none" style="fill: rgb(255, 255, 255);"><g ></g><g ></g><g ></g><g ></g></g><image  id="v-2270"></image></g></g><!--z-index:38--><g   id="j_215"  transform="translate(2670,793)" style=""><g  id="v-2274" style="opacity: 1;"><rect  id="v-2275" rx="20" ry="20" stroke-width="2" pointer-events="visiblePainted" fill="#7b7b7b" stroke="#6f6f6f" stroke-dasharray="" width="450" height="300" style="fill: rgb(123, 123, 123); stroke: rgb(111, 111, 111);"></rect><text  id="v-2276" font-size="33.599999999999994px" xml:space="preserve" y="86.9" font-weight="bold" text-anchor="middle" pointer-events="visible" font-family="Tahoma, Verdana, Helvetica, Arial" fill="#ffffff" dominant-baseline="hanging" transform="matrix(1,0,0,1,225,0)" style="fill: rgb(255, 255, 255);"><tspan dy="0" >Infrastructure</tspan></text><text  id="v-2277" font-size="16.799999999999997px" xml:space="preserve" y="128.5" text-anchor="middle" font-family="Tahoma, Verdana, Helvetica, Arial" fill="#ffffff" dominant-baseline="hanging" transform="matrix(1,0,0,1,225,0)" style="display: block; fill: rgb(255, 255, 255);"><tspan dy="0" >[Component: EF Core]</tspan></text><text  id="v-2278" font-size="24px" xml:space="preserve" y="160.3" text-anchor="middle" font-family="Tahoma, Verdana, Helvetica, Arial" fill="#ffffff" dominant-baseline="hanging" transform="matrix(1,0,0,1,225,0)" style="display: block; fill: rgb(255, 255, 255);"><tspan dy="0" >4: infrastructure - Persists</tspan><tspan dy="1.2em" x="0" >immutable audit trails.</tspan></text><g  id="v-2279" color="#ffffff" transform="matrix(1,0,0,1,222.5,268)" display="none" style="fill: rgb(255, 255, 255);"><g ></g><g ></g><g ></g><g ></g></g><image  id="v-2280"></image></g></g><!--z-index:39--><g   id="j_216"  transform="translate(3460,1109)" style=""><g  id="v-2284" style="opacity: 1;"><rect  id="v-2285" rx="20" ry="20" stroke-width="2" pointer-events="visiblePainted" fill="#7b7b7b" stroke="#6f6f6f" stroke-dasharray="" width="450" height="300" style="fill: rgb(123, 123, 123); stroke: rgb(111, 111, 111);"></rect><text  id="v-2286" font-size="33.599999999999994px" xml:space="preserve" y="86.9" font-weight="bold" text-anchor="middle" pointer-events="visible" font-family="Tahoma, Verdana, Helvetica, Arial" fill="#ffffff" dominant-baseline="hanging" transform="matrix(1,0,0,1,225,0)" style="fill: rgb(255, 255, 255);"><tspan dy="0" >Domain</tspan></text><text  id="v-2287" font-size="16.799999999999997px" xml:space="preserve" y="128.5" text-anchor="middle" font-family="Tahoma, Verdana, Helvetica, Arial" fill="#ffffff" dominant-baseline="hanging" transform="matrix(1,0,0,1,225,0)" style="display: block; fill: rgb(255, 255, 255);"><tspan dy="0" >[Component: C# Domain]</tspan></text><text  id="v-2288" font-size="24px" xml:space="preserve" y="160.3" text-anchor="middle" font-family="Tahoma, Verdana, Helvetica, Arial" fill="#ffffff" dominant-baseline="hanging" transform="matrix(1,0,0,1,225,0)" style="display: block; fill: rgb(255, 255, 255);"><tspan dy="0" >3: domain - AuditLog and Event</tspan><tspan dy="1.2em" x="0" >aggregates.</tspan></text><g  id="v-2289" color="#ffffff" transform="matrix(1,0,0,1,222.5,268)" display="none" style="fill: rgb(255, 255, 255);"><g ></g><g ></g><g ></g><g ></g></g><image  id="v-2290"></image></g></g><!--z-index:40--><g   id="j_218"  style="opacity: 1;"><path fill="none" cursor="pointer" stroke="transparent" stroke-linecap="round" joint-selector="wrapper" id="v-2318" stroke-width="10" stroke-linejoin="round" d="M 574.91 789 L 864 351 C 868 345.66666666666663 873.3333333333333 343 880 343 L 1090 343"></path><path fill="none" pointer-events="none" joint-selector="line" id="v-2317" stroke="#444444" stroke-width="2" stroke-linejoin="round" stroke-dasharray="8 8" d="M 574.91 789 L 864 351 C 868 345.66666666666663 873.3333333333333 343 880 343 L 1090 343" marker-end="url(#v-21252848929)"></path><g id="v-2307" ><g id="v-2308"  label-idx="0" cursor="move" transform="matrix(1,0,0,1,870.875244140625,331.6629943847656)" style="cursor: default;"><rect joint-selector="rect" id="v-2312" fill="#ffffff" rx="3" ry="3" x="-67.04214477539062" y="-30.455810546875" width="131.42066955566406" height="56.706974029541016" pointer-events="none"  style="display: block;"></rect><text joint-selector="text" id="v-2311" font-size="24px" xml:space="preserve" fill="#444444" text-anchor="middle" pointer-events="none" font-family="Tahoma, Verdana, Helvetica, Arial" font-weight="normal"  style="display: block;"><tspan dy="-0.3em" >Queries risk</tspan><tspan dy="1.2em" x="0" >metrics</tspan></text></g><g id="v-2309"  label-idx="1" cursor="move" transform="matrix(1,0,0,1,870.875244140625,376.4629821777344)" style="cursor: default;"><rect joint-selector="rect" id="v-2314" fill="#ffffff" rx="3" ry="3" x="-53.74272537231445" y="-13.564648628234863" width="110.32485961914062" height="23.255809783935547"  pointer-events="none" style="display: block;"></rect><text joint-selector="text" id="v-2313" font-size="16.799999999999997px" xml:space="preserve" fill="#444444" text-anchor="middle" pointer-events="none" font-family="Tahoma, Verdana, Helvetica, Arial" font-weight="normal"  style="display: block;"><tspan dy="0.3em" >[JSON/HTTPS]</tspan></text></g><g id="v-2310"  label-idx="2" cursor="move" transform="matrix(1,0,0,1,772.4193115234375,514.40283203125)" style="cursor: default;"><rect joint-selector="rect" id="v-2316" fill="#ffffff" rx="3" ry="3" x="0" y="-1.1368683772161603e-13" width="0" height="0"  display="none"></rect><text joint-selector="text" id="v-2315" fill="#000000" font-size="14" text-anchor="middle" text-vertical-anchor="middle" pointer-events="none"></text></g></g></g><!--z-index:41--><g   id="j_219"  style="opacity: 1;"><path fill="none" cursor="pointer" stroke="transparent" stroke-linecap="round" joint-selector="wrapper" id="v-2333" stroke-width="10" stroke-linejoin="round" d="M 1540 286.04 L 1700 245 C 1706.6666666666665 243.66666666666663 1713.3333333333333 242.99999999999997 1720 243 L 3280 243 C 3286.666666666666 242.99999999999997 3292.666666666666 244.99999999999997 3298 249 L 3487.5 393"></path><path fill="none" pointer-events="none" joint-selector="line" id="v-2332" stroke="#444444" stroke-width="2" stroke-linejoin="round" stroke-dasharray="8 8" d="M 1540 286.04 L 1700 245 C 1706.6666666666665 243.66666666666663 1713.3333333333333 242.99999999999997 1720 243 L 3280 243 C 3286.666666666666 242.99999999999997 3292.666666666666 244.99999999999997 3298 249 L 3487.5 393" marker-end="url(#v-21252848929)"></path><g id="v-2322" ><g id="v-2323"  label-idx="0" cursor="move" transform="matrix(1,0,0,1,2499.697265625,229.60000610351562)" style="cursor: default;"><rect joint-selector="rect" id="v-2327" fill="#ffffff" rx="3" ry="3" x="-81.75871276855469" y="-30.455810546875" width="160.19021606445312" height="56.706974029541016" pointer-events="none"  style="display: block;"></rect><text joint-selector="text" id="v-2326" font-size="24px" xml:space="preserve" fill="#444444" text-anchor="middle" pointer-events="none" font-family="Tahoma, Verdana, Helvetica, Arial" font-weight="normal"  style="display: block;"><tspan dy="-0.3em" >Reads/Writes</tspan><tspan dy="1.2em" x="0" >telemetry data</tspan></text></g><g id="v-2324"  label-idx="1" cursor="move" transform="matrix(1,0,0,1,2499.697265625,274.3999938964844)" style="cursor: default;"><rect joint-selector="rect" id="v-2329" fill="#ffffff" rx="3" ry="3" x="-38.88080978393555" y="-13.564648628234863" width="80.56412506103516" height="23.255809783935547"  pointer-events="none" style="display: block;"></rect><text joint-selector="text" id="v-2328" font-size="16.799999999999997px" xml:space="preserve" fill="#444444" text-anchor="middle" pointer-events="none" font-family="Tahoma, Verdana, Helvetica, Arial" font-weight="normal"  style="display: block;"><tspan dy="0.3em" >[SQL/TCP]</tspan></text></g><g id="v-2325"  label-idx="2" cursor="move" transform="matrix(1,0,0,1,2526.00439453125,282.79998779296875)" style="cursor: default;"><rect joint-selector="rect" id="v-2331" fill="#ffffff" rx="3" ry="3" x="0" y="0" width="0" height="0"  display="none"></rect><text joint-selector="text" id="v-2330" fill="#000000" font-size="14" text-anchor="middle" text-vertical-anchor="middle" pointer-events="none"></text></g></g></g><!--z-index:42--><g   id="j_220"  style="opacity: 1;"><path fill="none" cursor="pointer" stroke="transparent" stroke-linecap="round" joint-selector="wrapper" id="v-2345" stroke-width="10" stroke-linejoin="round" d="M 1540 343 L 4120 343 C 4126.666666666666 343 4131.333333333333 346 4134 352 L 4461.43 1125"></path><path fill="none" pointer-events="none" joint-selector="line" id="v-2344" stroke="#444444" stroke-width="2" stroke-linejoin="round" stroke-dasharray="8 8" d="M 1540 343 L 4120 343 C 4126.666666666666 343 4131.333333333333 346 4134 352 L 4461.43 1125" marker-end="url(#v-21252848929)"></path><g id="v-2337" ><g id="v-2338"  label-idx="0" cursor="move" transform="matrix(1,0,0,1,2894.0234375,343)" style="cursor: default;"><rect joint-selector="rect" id="v-2341" fill="#ffffff" rx="3" ry="3" x="-86.2645263671875" y="-30.455810546875" width="172.8369903564453" height="56.706974029541016" pointer-events="none"  style="display: block;"></rect><text joint-selector="text" id="v-2340" font-size="24px" xml:space="preserve" fill="#444444" text-anchor="middle" pointer-events="none" font-family="Tahoma, Verdana, Helvetica, Arial" font-weight="normal"  style="display: block;"><tspan dy="-0.3em" >Uses shared API</tspan><tspan dy="1.2em" x="0" >responses</tspan></text></g><g id="v-2339"  label-idx="1" cursor="move" transform="matrix(1,0,0,1,2884.0234375,369.3999938964844)" style="cursor: default;"><rect joint-selector="rect" id="v-2343" fill="#ffffff" rx="3" ry="3" x="0" y="0" width="0" height="0"  display="none"></rect><text joint-selector="text" id="v-2342" fill="#000000" font-size="14" text-anchor="middle" text-vertical-anchor="middle" pointer-events="none"></text></g></g></g><!--z-index:43--><g   id="j_221"  style="opacity: 1;"><path fill="none" cursor="pointer" stroke="transparent" stroke-linecap="round" joint-selector="wrapper" id="v-2357" stroke-width="10" stroke-linejoin="round" d="M 1416.61 493 L 1704 918 C 1708 923.4 1712.6666666666665 928.4 1718 933 L 1927.02 1109"></path><path fill="none" pointer-events="none" joint-selector="line" id="v-2356" stroke="#444444" stroke-width="2" stroke-linejoin="round" stroke-dasharray="8 8" d="M 1416.61 493 L 1704 918 C 1708 923.4 1712.6666666666665 928.4 1718 933 L 1927.02 1109" marker-end="url(#v-21252848929)"></path><g id="v-2349" ><g id="v-2350"  label-idx="0" cursor="move" transform="matrix(1,0,0,1,1710.3089599609375,925.5947265625)" style="cursor: default;"><rect joint-selector="rect" id="v-2353" fill="#ffffff" rx="3" ry="3" x="-71.98400115966797" y="-30.455810546875" width="140.23329162597656" height="56.706974029541016" pointer-events="none"  style="display: block;"></rect><text joint-selector="text" id="v-2352" font-size="24px" xml:space="preserve" fill="#444444" text-anchor="middle" pointer-events="none" font-family="Tahoma, Verdana, Helvetica, Arial" font-weight="normal"  style="display: block;"><tspan dy="-0.3em" >Logs clinical</tspan><tspan dy="1.2em" x="0" >anomalies to</tspan></text></g><g id="v-2351"  label-idx="1" cursor="move" transform="matrix(1,0,0,1,1700.3089599609375,951.9946899414062)" style="cursor: default;"><rect joint-selector="rect" id="v-2355" fill="#ffffff" rx="3" ry="3" x="0" y="0" width="0" height="0"  display="none"></rect><text joint-selector="text" id="v-2354" fill="#000000" font-size="14" text-anchor="middle" text-vertical-anchor="middle" pointer-events="none"></text></g></g></g><!--z-index:44--><g   id="j_222"  style="opacity: 1;"><path fill="none" cursor="pointer" stroke="transparent" stroke-linecap="round" joint-selector="wrapper" id="v-2372" stroke-width="10" stroke-linejoin="round" d="M 572.97 1091 L 865 1540 C 868.3333333333333 1545.8666666666666 873.3333333333333 1548.8666666666666 880 1549 L 1090 1548.4"></path><path fill="none" pointer-events="none" joint-selector="line" id="v-2371" stroke="#444444" stroke-width="2" stroke-linejoin="round" stroke-dasharray="8 8" d="M 572.97 1091 L 865 1540 C 868.3333333333333 1545.8666666666666 873.3333333333333 1548.8666666666666 880 1549 L 1090 1548.4" marker-end="url(#v-21252848929)"></path><g id="v-2361" ><g id="v-2362"  label-idx="0" cursor="move" transform="matrix(1,0,0,1,871.39697265625,1533.3370361328125)" style="cursor: default;"><rect joint-selector="rect" id="v-2366" fill="#ffffff" rx="3" ry="3" x="-100.03632354736328" y="-16.055810928344727" width="198.66265869140625" height="27.906972885131836" pointer-events="none"  style="display: block;"></rect><text joint-selector="text" id="v-2365" font-size="24px" xml:space="preserve" fill="#444444" text-anchor="middle" pointer-events="none" font-family="Tahoma, Verdana, Helvetica, Arial" font-weight="normal"  style="display: block;"><tspan dy="0.3em" >Queries audit logs</tspan></text></g><g id="v-2363"  label-idx="1" cursor="move" transform="matrix(1,0,0,1,871.39697265625,1563.737060546875)" style="cursor: default;"><rect joint-selector="rect" id="v-2368" fill="#ffffff" rx="3" ry="3" x="-53.74272537231445" y="-13.564648628234863" width="110.32485961914062" height="23.255809783935547"  pointer-events="none" style="display: block;"></rect><text joint-selector="text" id="v-2367" font-size="16.799999999999997px" xml:space="preserve" fill="#444444" text-anchor="middle" pointer-events="none" font-family="Tahoma, Verdana, Helvetica, Arial" font-weight="normal"  style="display: block;"><tspan dy="0.3em" >[JSON/HTTPS]</tspan></text></g><g id="v-2364"  label-idx="2" cursor="move" transform="matrix(1,0,0,1,771.2474975585938,1436.62939453125)" style="cursor: default;"><rect joint-selector="rect" id="v-2370" fill="#ffffff" rx="3" ry="3" x="0" y="-2.2737367544323206e-13" width="0" height="0"  display="none"></rect><text joint-selector="text" id="v-2369" fill="#000000" font-size="14" text-anchor="middle" text-vertical-anchor="middle" pointer-events="none"></text></g></g></g><!--z-index:45--><g   id="j_223"  style="opacity: 1;"><path fill="none" cursor="pointer" stroke="transparent" stroke-linecap="round" joint-selector="wrapper" id="v-2384" stroke-width="10" stroke-linejoin="round" d="M 1540 1452.08 L 1701 1384 C 1707 1381.0666666666666 1713.3333333333333 1378.7333333333331 1720 1377 L 1880 1327.7"></path><path fill="none" pointer-events="none" joint-selector="line" id="v-2383" stroke="#444444" stroke-width="2" stroke-linejoin="round" stroke-dasharray="8 8" d="M 1540 1452.08 L 1701 1384 C 1707 1381.0666666666666 1713.3333333333333 1378.7333333333331 1720 1377 L 1880 1327.7" marker-end="url(#v-21252848929)"></path><g id="v-2376" ><g id="v-2377"  label-idx="0" cursor="move" transform="matrix(1,0,0,1,1710.25,1380.050048828125)" style="cursor: default;"><rect joint-selector="rect" id="v-2380" fill="#ffffff" rx="3" ry="3" x="-66.42440795898438" y="-16.055810928344727" width="133.74220275878906" height="27.906972885131836" pointer-events="none"  style="display: block;"></rect><text joint-selector="text" id="v-2379" font-size="24px" xml:space="preserve" fill="#444444" text-anchor="middle" pointer-events="none" font-family="Tahoma, Verdana, Helvetica, Arial" font-weight="normal"  style="display: block;"><tspan dy="0.3em" >Delegates to</tspan></text></g><g id="v-2378"  label-idx="1" cursor="move" transform="matrix(1,0,0,1,1700.25,1392.050048828125)" style="cursor: default;"><rect joint-selector="rect" id="v-2382" fill="#ffffff" rx="3" ry="3" x="-2.2737367544323206e-13" y="0" width="0" height="0"  display="none"></rect><text joint-selector="text" id="v-2381" fill="#000000" font-size="14" text-anchor="middle" text-vertical-anchor="middle" pointer-events="none"></text></g></g></g><!--z-index:46--><g   id="j_224"  style="opacity: 1;"><path fill="none" cursor="pointer" stroke="transparent" stroke-linecap="round" joint-selector="wrapper" id="v-2396" stroke-width="10" stroke-linejoin="round" d="M 2292.5 1109 L 2492 949 C 2497.333333333333 945 2503.333333333333 943 2510 943 L 2670 943"></path><path fill="none" pointer-events="none" joint-selector="line" id="v-2395" stroke="#444444" stroke-width="2" stroke-linejoin="round" stroke-dasharray="8 8" d="M 2292.5 1109 L 2492 949 C 2497.333333333333 945 2503.333333333333 943 2510 943 L 2670 943" marker-end="url(#v-21252848929)"></path><g id="v-2388" ><g id="v-2389"  label-idx="0" cursor="move" transform="matrix(1,0,0,1,2500.5,944.5)" style="cursor: default;"><rect joint-selector="rect" id="v-2392" fill="#ffffff" rx="3" ry="3" x="-58.5755729675293" y="-16.055810928344727" width="118.49604797363281" height="27.906972885131836" pointer-events="none"  style="display: block;"></rect><text joint-selector="text" id="v-2391" font-size="24px" xml:space="preserve" fill="#444444" text-anchor="middle" pointer-events="none" font-family="Tahoma, Verdana, Helvetica, Arial" font-weight="normal"  style="display: block;"><tspan dy="0.3em" >Persists via</tspan></text></g><g id="v-2390"  label-idx="1" cursor="move" transform="matrix(1,0,0,1,2490.5,956.5)" style="cursor: default;"><rect joint-selector="rect" id="v-2394" fill="#ffffff" rx="3" ry="3" x="-4.547473508864641e-13" y="-1.1368683772161603e-13" width="0" height="0"  display="none"></rect><text joint-selector="text" id="v-2393" fill="#000000" font-size="14" text-anchor="middle" text-vertical-anchor="middle" pointer-events="none"></text></g></g></g><!--z-index:47--><g   id="j_225"  style="opacity: 1;"><path fill="none" cursor="pointer" stroke="transparent" stroke-linecap="round" joint-selector="wrapper" id="v-2408" stroke-width="10" stroke-linejoin="round" d="M 3120 874.7 L 3280 826 C 3286.666666666666 824.0666666666666 3292.333333333333 825.7333333333333 3297 831 L 3549.07 1109"></path><path fill="none" pointer-events="none" joint-selector="line" id="v-2407" stroke="#444444" stroke-width="2" stroke-linejoin="round" stroke-dasharray="8 8" d="M 3120 874.7 L 3280 826 C 3286.666666666666 824.0666666666666 3292.333333333333 825.7333333333333 3297 831 L 3549.07 1109" marker-end="url(#v-21252848929)"></path><g id="v-2400" ><g id="v-2401"  label-idx="0" cursor="move" transform="matrix(1,0,0,1,3289.5478515625,825.8912353515625)" style="cursor: default;"><rect joint-selector="rect" id="v-2404" fill="#ffffff" rx="3" ry="3" x="-94.76742553710938" y="-30.455810546875" width="192.74588012695312" height="56.706974029541016" pointer-events="none"  style="display: block;"></rect><text joint-selector="text" id="v-2403" font-size="24px" xml:space="preserve" fill="#444444" text-anchor="middle" pointer-events="none" font-family="Tahoma, Verdana, Helvetica, Arial" font-weight="normal"  style="display: block;"><tspan dy="-0.3em" >Maps and persists</tspan><tspan dy="1.2em" x="0" >domain entities</tspan></text></g><g id="v-2402"  label-idx="1" cursor="move" transform="matrix(1,0,0,1,3279.5478515625,852.2911987304688)" style="cursor: default;"><rect joint-selector="rect" id="v-2406" fill="#ffffff" rx="3" ry="3" x="0" y="-1.1368683772161603e-13" width="0" height="0"  display="none"></rect><text joint-selector="text" id="v-2405" fill="#000000" font-size="14" text-anchor="middle" text-vertical-anchor="middle" pointer-events="none"></text></g></g></g><!--z-index:48--><g   id="j_226"  style="opacity: 1;"><path fill="none" cursor="pointer" stroke="transparent" stroke-linecap="round" joint-selector="wrapper" id="v-2420" stroke-width="10" stroke-linejoin="round" d="M 1540 1540.94 L 1700 1536 C 1706.6666666666665 1535.7333333333331 1713.3333333333333 1535.7333333333331 1720 1536 L 3280 1536 C 3286.666666666666 1535.7333333333331 3292.666666666666 1533.7333333333331 3298 1530 L 3470.79 1409"></path><path fill="none" pointer-events="none" joint-selector="line" id="v-2419" stroke="#444444" stroke-width="2" stroke-linejoin="round" stroke-dasharray="8 8" d="M 1540 1540.94 L 1700 1536 C 1706.6666666666665 1535.7333333333331 1713.3333333333333 1535.7333333333331 1720 1536 L 3280 1536 C 3286.666666666666 1535.7333333333331 3292.666666666666 1533.7333333333331 3298 1530 L 3470.79 1409" marker-end="url(#v-21252848929)"></path><g id="v-2412" ><g id="v-2413"  label-idx="0" cursor="move" transform="matrix(1,0,0,1,2499.867431640625,1536)" style="cursor: default;"><rect joint-selector="rect" id="v-2416" fill="#ffffff" rx="3" ry="3" x="-67.62353515625" y="-30.455810546875" width="135.78128051757812" height="56.706974029541016" pointer-events="none"  style="display: block;"></rect><text joint-selector="text" id="v-2415" font-size="24px" xml:space="preserve" fill="#444444" text-anchor="middle" pointer-events="none" font-family="Tahoma, Verdana, Helvetica, Arial" font-weight="normal"  style="display: block;"><tspan dy="-0.3em" >Uses domain</tspan><tspan dy="1.2em" x="0" >resources</tspan></text></g><g id="v-2414"  label-idx="1" cursor="move" transform="matrix(1,0,0,1,2489.867431640625,1562.4000244140625)" style="cursor: default;"><rect joint-selector="rect" id="v-2418" fill="#ffffff" rx="3" ry="3" x="-4.547473508864641e-13" y="0" width="0" height="0"  display="none"></rect><text joint-selector="text" id="v-2417" fill="#000000" font-size="14" text-anchor="middle" text-vertical-anchor="middle" pointer-events="none"></text></g></g></g><!--z-index:49--><g   id="j_227"  style="opacity: 1;"><path fill="none" cursor="pointer" stroke="transparent" stroke-linecap="round" joint-selector="wrapper" id="v-2432" stroke-width="10" stroke-linejoin="round" d="M 2330 1259 L 3460 1259"></path><path fill="none" pointer-events="none" joint-selector="line" id="v-2431" stroke="#444444" stroke-width="2" stroke-linejoin="round" stroke-dasharray="8 8" d="M 2330 1259 L 3460 1259" marker-end="url(#v-21252848929)"></path><g id="v-2424" ><g id="v-2425"  label-idx="0" cursor="move" transform="matrix(1,0,0,1,2895,1259)" style="cursor: default;"><rect joint-selector="rect" id="v-2428" fill="#ffffff" rx="3" ry="3" x="-96.64399719238281" y="-16.10525894165039" width="196.5205535888672" height="27.966310501098633" pointer-events="none"  style="display: block;"></rect><text joint-selector="text" id="v-2427" font-size="24px" xml:space="preserve" fill="#444444" text-anchor="middle" pointer-events="none" font-family="Tahoma, Verdana, Helvetica, Arial" font-weight="normal"  style="display: block;"><tspan dy="0.3em" >Uses domain rules</tspan></text></g><g id="v-2426"  label-idx="1" cursor="move" transform="matrix(1,0,0,1,2885,1271)" style="cursor: default;"><rect joint-selector="rect" id="v-2430" fill="#ffffff" rx="3" ry="3" x="8.881784197001252e-16" y="0" width="0" height="0"  display="none"></rect><text joint-selector="text" id="v-2429" fill="#000000" font-size="14" text-anchor="middle" text-vertical-anchor="middle" pointer-events="none"></text></g></g></g><!--z-index:50--><g   id="j_228"  style="opacity: 1;"><path fill="none" cursor="pointer" stroke="transparent" stroke-linecap="round" joint-selector="wrapper" id="v-2447" stroke-width="10" stroke-linejoin="round" d="M 3120 943 L 3280 943 C 3286.666666666666 943 3292.333333333333 940.6666666666666 3297 936 L 3536.88 693"></path><path fill="none" pointer-events="none" joint-selector="line" id="v-2446" stroke="#444444" stroke-width="2" stroke-linejoin="round" stroke-dasharray="8 8" d="M 3120 943 L 3280 943 C 3286.666666666666 943 3292.333333333333 940.6666666666666 3297 936 L 3536.88 693" marker-end="url(#v-21252848929)"></path><g id="v-2436" ><g id="v-2437"  label-idx="0" cursor="move" transform="matrix(1,0,0,1,3289.44873046875,927.7670288085938)" style="cursor: default;"><rect joint-selector="rect" id="v-2441" fill="#ffffff" rx="3" ry="3" x="-99.9636459350586" y="-30.455810546875" width="201.18455505371094" height="56.706974029541016" pointer-events="none"  style="display: block;"></rect><text joint-selector="text" id="v-2440" font-size="24px" xml:space="preserve" fill="#444444" text-anchor="middle" pointer-events="none" font-family="Tahoma, Verdana, Helvetica, Arial" font-weight="normal"  style="display: block;"><tspan dy="-0.3em" >Reads/Writes audit</tspan><tspan dy="1.2em" x="0" >data</tspan></text></g><g id="v-2438"  label-idx="1" cursor="move" transform="matrix(1,0,0,1,3289.44873046875,972.5670166015625)" style="cursor: default;"><rect joint-selector="rect" id="v-2443" fill="#ffffff" rx="3" ry="3" x="-38.88080978393555" y="-13.564648628234863" width="80.56412506103516" height="23.255809783935547"  pointer-events="none" style="display: block;"></rect><text joint-selector="text" id="v-2442" font-size="16.799999999999997px" xml:space="preserve" fill="#444444" text-anchor="middle" pointer-events="none" font-family="Tahoma, Verdana, Helvetica, Arial" font-weight="normal"  style="display: block;"><tspan dy="0.3em" >[SQL/TCP]</tspan></text></g><g id="v-2439"  label-idx="2" cursor="move" transform="matrix(1,0,0,1,3344.100830078125,917.95654296875)" style="cursor: default;"><rect joint-selector="rect" id="v-2445" fill="#ffffff" rx="3" ry="3" x="0" y="-1.1368683772161603e-13" width="0" height="0"  display="none"></rect><text joint-selector="text" id="v-2444" fill="#000000" font-size="14" text-anchor="middle" text-vertical-anchor="middle" pointer-events="none"></text></g></g></g><!--z-index:51--><g   id="j_229"  style="opacity: 1;"><path fill="none" cursor="pointer" stroke="transparent" stroke-linecap="round" joint-selector="wrapper" id="v-2459" stroke-width="10" stroke-linejoin="round" d="M 1540 1597.9 L 1700 1633 C 1706.6666666666665 1634.7333333333331 1713.3333333333333 1635.7333333333331 1720 1636 L 4120 1636 C 4126.666666666666 1635.7333333333331 4132.333333333333 1633.3999999999999 4137 1629 L 4360.69 1425"></path><path fill="none" pointer-events="none" joint-selector="line" id="v-2458" stroke="#444444" stroke-width="2" stroke-linejoin="round" stroke-dasharray="8 8" d="M 1540 1597.9 L 1700 1633 C 1706.6666666666665 1634.7333333333331 1713.3333333333333 1635.7333333333331 1720 1636 L 4120 1636 C 4126.666666666666 1635.7333333333331 4132.333333333333 1633.3999999999999 4137 1629 L 4360.69 1425" marker-end="url(#v-21252848929)"></path><g id="v-2451" ><g id="v-2452"  label-idx="0" cursor="move" transform="matrix(1,0,0,1,2894.802490234375,1636)" style="cursor: default;"><rect joint-selector="rect" id="v-2455" fill="#ffffff" rx="3" ry="3" x="-86.2645263671875" y="-30.455810546875" width="172.8369903564453" height="56.706974029541016" pointer-events="none"  style="display: block;"></rect><text joint-selector="text" id="v-2454" font-size="24px" xml:space="preserve" fill="#444444" text-anchor="middle" pointer-events="none" font-family="Tahoma, Verdana, Helvetica, Arial" font-weight="normal"  style="display: block;"><tspan dy="-0.3em" >Uses shared API</tspan><tspan dy="1.2em" x="0" >responses</tspan></text></g><g id="v-2453"  label-idx="1" cursor="move" transform="matrix(1,0,0,1,2884.802490234375,1662.4000244140625)" style="cursor: default;"><rect joint-selector="rect" id="v-2457" fill="#ffffff" rx="3" ry="3" x="-4.547473508864641e-13" y="0" width="0" height="0"  display="none"></rect><text joint-selector="text" id="v-2456" fill="#000000" font-size="14" text-anchor="middle" text-vertical-anchor="middle" pointer-events="none"></text></g></g></g><!--z-index:52--><g   id="j_230"  style="opacity: 1;"><path fill="none" cursor="pointer" stroke="transparent" stroke-linecap="round" joint-selector="wrapper" id="v-2471" stroke-width="10" stroke-linejoin="round" d="M 2330 1373.04 L 2491 1455 C 2497 1457.7999999999997 2503.333333333333 1459.1333333333332 2510 1459 L 4120 1459 C 4126.666666666666 1459.1333333333332 4133 1457.7999999999997 4139 1455 L 4300 1379.92"></path><path fill="none" pointer-events="none" joint-selector="line" id="v-2470" stroke="#444444" stroke-width="2" stroke-linejoin="round" stroke-dasharray="8 8" d="M 2330 1373.04 L 2491 1455 C 2497 1457.7999999999997 2503.333333333333 1459.1333333333332 2510 1459 L 4120 1459 C 4126.666666666666 1459.1333333333332 4133 1457.7999999999997 4139 1455 L 4300 1379.92" marker-end="url(#v-21252848929)"></path><g id="v-2463" ><g id="v-2464"  label-idx="0" cursor="move" transform="matrix(1,0,0,1,3290.022216796875,1459)" style="cursor: default;"><rect joint-selector="rect" id="v-2467" fill="#ffffff" rx="3" ry="3" x="-64.20783996582031" y="-30.455810546875" width="129.1016082763672" height="56.706974029541016" pointer-events="none"  style="display: block;"></rect><text joint-selector="text" id="v-2466" font-size="24px" xml:space="preserve" fill="#444444" text-anchor="middle" pointer-events="none" font-family="Tahoma, Verdana, Helvetica, Arial" font-weight="normal"  style="display: block;"><tspan dy="-0.3em" >Uses shared</tspan><tspan dy="1.2em" x="0" >behaviors</tspan></text></g><g id="v-2465"  label-idx="1" cursor="move" transform="matrix(1,0,0,1,3280.022216796875,1485.4000244140625)" style="cursor: default;"><rect joint-selector="rect" id="v-2469" fill="#ffffff" rx="3" ry="3" x="0" y="-2.2737367544323206e-13" width="0" height="0"  display="none"></rect><text joint-selector="text" id="v-2468" fill="#000000" font-size="14" text-anchor="middle" text-vertical-anchor="middle" pointer-events="none"></text></g></g></g><!--z-index:53--><g   id="j_231"  style="opacity: 1;"><path fill="none" cursor="pointer" stroke="transparent" stroke-linecap="round" joint-selector="wrapper" id="v-2483" stroke-width="10" stroke-linejoin="round" d="M 3120 994.15 L 3280 1031 C 3286.666666666666 1032.1999999999998 3293.333333333333 1032.8666666666663 3300 1033 L 4120 1033 C 4126.666666666666 1032.8666666666663 4133 1034.533333333333 4139 1038 L 4300 1137.04"></path><path fill="none" pointer-events="none" joint-selector="line" id="v-2482" stroke="#444444" stroke-width="2" stroke-linejoin="round" stroke-dasharray="8 8" d="M 3120 994.15 L 3280 1031 C 3286.666666666666 1032.1999999999998 3293.333333333333 1032.8666666666663 3300 1033 L 4120 1033 C 4126.666666666666 1032.8666666666663 4133 1034.533333333333 4139 1038 L 4300 1137.04" marker-end="url(#v-21252848929)"></path><g id="v-2475" ><g id="v-2476"  label-idx="0" cursor="move" transform="matrix(1,0,0,1,3684.741455078125,1033)" style="cursor: default;"><rect joint-selector="rect" id="v-2479" fill="#ffffff" rx="3" ry="3" x="-91.20638275146484" y="-30.455810546875" width="183.75767517089844" height="56.706974029541016" pointer-events="none"  style="display: block;"></rect><text joint-selector="text" id="v-2478" font-size="24px" xml:space="preserve" fill="#444444" text-anchor="middle" pointer-events="none" font-family="Tahoma, Verdana, Helvetica, Arial" font-weight="normal"  style="display: block;"><tspan dy="-0.3em" >Uses shared data</tspan><tspan dy="1.2em" x="0" >access</tspan></text></g><g id="v-2477"  label-idx="1" cursor="move" transform="matrix(1,0,0,1,3674.741455078125,1059.4000244140625)" style="cursor: default;"><rect joint-selector="rect" id="v-2481" fill="#ffffff" rx="3" ry="3" x="0" y="0" width="0" height="0"  display="none"></rect><text joint-selector="text" id="v-2480" fill="#000000" font-size="14" text-anchor="middle" text-vertical-anchor="middle" pointer-events="none"></text></g></g></g><!--z-index:54--><g   id="j_232"  style="opacity: 1;"><path fill="none" cursor="pointer" stroke="transparent" stroke-linecap="round" joint-selector="wrapper" id="v-2495" stroke-width="10" stroke-linejoin="round" d="M 3910 1259.1 L 4120 1259 C 4126.666666666666 1259.1333333333332 4133.333333333333 1259.4666666666665 4140 1260 L 4300 1266"></path><path fill="none" pointer-events="none" joint-selector="line" id="v-2494" stroke="#444444" stroke-width="2" stroke-linejoin="round" stroke-dasharray="8 8" d="M 3910 1259.1 L 4120 1259 C 4126.666666666666 1259.1333333333332 4133.333333333333 1259.4666666666665 4140 1260 L 4300 1266" marker-end="url(#v-21252848929)"></path><g id="v-2487" ><g id="v-2488"  label-idx="0" cursor="move" transform="matrix(1,0,0,1,4130,1259.3499755859375)" style="cursor: default;"><rect joint-selector="rect" id="v-2491" fill="#ffffff" rx="3" ry="3" x="-75.5450439453125" y="-30.455810546875" width="149.66683959960938" height="56.706974029541016" pointer-events="none"  style="display: block;"></rect><text joint-selector="text" id="v-2490" font-size="24px" xml:space="preserve" fill="#444444" text-anchor="middle" pointer-events="none" font-family="Tahoma, Verdana, Helvetica, Arial" font-weight="normal"  style="display: block;"><tspan dy="-0.3em" >Uses shared</tspan><tspan dy="1.2em" x="0" >domain types</tspan></text></g><g id="v-2489"  label-idx="1" cursor="move" transform="matrix(1,0,0,1,4120,1285.75)" style="cursor: default;"><rect joint-selector="rect" id="v-2493" fill="#ffffff" rx="3" ry="3" x="0" y="0" width="0" height="0"  display="none"></rect><text joint-selector="text" id="v-2492" fill="#000000" font-size="14" text-anchor="middle" text-vertical-anchor="middle" pointer-events="none"></text></g></g></g><!--z-index:55--><!--z-index:56--><!--z-index:57--><!--z-index:58--><!--z-index:59--><!--z-index:60--><!--z-index:61--><!--z-index:62--><!--z-index:63--><!--z-index:64--><!--z-index:65--><!--z-index:66--><!--z-index:67--><!--z-index:68--><!--z-index:69--><!--z-index:70--><!--z-index:71--><!--z-index:72--><!--z-index:73--><!--z-index:74--><!--z-index:75--><!--z-index:76--><!--z-index:77--><!--z-index:78--><!--z-index:79--><!--z-index:80--><!--z-index:81--><!--z-index:82--><!--z-index:83--><!--z-index:84--><!--z-index:85--><!--z-index:86--><!--z-index:87--><!--z-index:88--><!--z-index:89--><!--z-index:90--><!--z-index:91--></g><g  style="user-select: none;"></g><g ></g><g  display="none"></g></g></svg>