<svg xmlns="http://www.w3.org/2000/svg" xmlns:xlink="http://www.w3.org/1999/xlink" version="1.1" style="background: #ffffff" viewBox="0 0 3420 2808"><style id="v-3" type="text/css">        .joint-element .scalable * {            vector-effect: non-scaling-stroke;        }    </style><defs joint-selector="defs"><marker id="v-21252848929" orient="auto" overflow="visible" markerUnits="userSpaceOnUse"><path id="v-173" stroke="#444444" fill="#444444" transform="rotate(180)" d="M 20 -10 0 0 20 10 Z"></path></marker></defs><g joint-selector="layers"  transform="matrix(1,0,0,1,0,0)"><g  style="pointer-events: none;"></g><g ></g><g  style="user-select: none;"><!--z-index:0--><!--z-index:1--><!--z-index:2--><!--z-index:3--><!--z-index:4--><!--z-index:5--><!--z-index:6--><!--z-index:7--><!--z-index:8--><!--z-index:9--><!--z-index:10--><!--z-index:11--><!--z-index:12--><!--z-index:13--><!--z-index:14--><!--z-index:15--><!--z-index:16--><!--z-index:17--><!--z-index:18--><!--z-index:19--><!--z-index:20--><!--z-index:21--><!--z-index:22--><!--z-index:23--><!--z-index:24--><!--z-index:25--><!--z-index:26--><g   id="j_188"  transform="translate(20,2764)"><g id="v-2207"><text  id="v-2208" font-size="24px" xml:space="preserve" y="0.8em" font-weight="normal" text-anchor="start" fill="#444444" pointer-events="none" display="block" font-family="Tahoma, Verdana, Helvetica, Arial"><tspan dy="0" >jueves, 9 de julio de 2026, 3:00 p. m. hora estándar de Perú</tspan></text></g></g><!--z-index:27--><g   id="j_187"  transform="translate(20,2730)"><g id="v-2205"><text  id="v-2206" font-size="24px" xml:space="preserve" y="0.8em" font-weight="normal" text-anchor="start" fill="#444444" pointer-events="none" display="block" font-family="Tahoma, Verdana, Helvetica, Arial"><tspan dy="0" >Software Architecture Component Diagram - REST API Platform</tspan></text></g></g><!--z-index:28--><g   id="j_186"  transform="translate(20,2684)"><g id="v-2203"><text  id="v-2204" font-size="36px" xml:space="preserve" y="0.8em" font-weight="normal" text-anchor="start" fill="#444444" pointer-events="none" display="block" font-family="Tahoma, Verdana, Helvetica, Arial"><tspan dy="0" >Component View: CortiSense System - REST API Application</tspan></text></g></g><!--z-index:29--><g   id="j_190"  transform="translate(200,142)" style="; opacity: 1;"><g id="v-2227"><rect  id="v-2228" width="3020" height="2408" rx="0" ry="0" stroke-width="2" pointer-events="none" stroke="#cc671f" fill="#ffffff" opacity="1" stroke-dasharray=""></rect><text  id="v-2229" font-size="33.599999999999994px" xml:space="preserve" y="2369" font-weight="bold" text-anchor="start" pointer-events="visible" font-family="Tahoma, Verdana, Helvetica, Arial" fill="#cc671f" transform="matrix(1,0,0,1,15,0)"><tspan dy="0" >CortiSense System</tspan></text><text  id="v-2230" font-size="16.799999999999997px" xml:space="preserve" y="2393" font-weight="normal" text-anchor="start" pointer-events="visible" font-family="Tahoma, Verdana, Helvetica, Arial" fill="#cc671f" transform="matrix(1,0,0,1,15,0)"><tspan dy="0" >[Software System]</tspan></text><image  id="v-2231" pointer-events="visible"></image></g></g><!--z-index:30--><g   id="j_189"  transform="translate(250,1117)" style=""><g  id="v-2215" style="opacity: 1;"><rect  id="v-2216" rx="10" ry="10" stroke-width="2" pointer-events="visiblePainted" fill="#0f5eaa" stroke="#0f5eaa" stroke-dasharray="" width="450" height="302" style="fill: rgb(15, 94, 170); stroke: rgb(15, 94, 170);"></rect><rect  id="v-2217" rx="10" ry="10" stroke-width="0" pointer-events="visiblePainted" fill="#1168bd" stroke="#0f5eaa" width="446" height="260" x="2" y="40" style="fill: rgb(17, 104, 189);"></rect><ellipse  id="v-2224" fill="#1168bd" cx="20" cy="20" rx="10" ry="10" style="fill: rgb(17, 104, 189);"></ellipse><ellipse  id="v-2225" fill="#1168bd" cx="50" cy="20" rx="10" ry="10" style="fill: rgb(17, 104, 189);"></ellipse><ellipse  id="v-2226" fill="#1168bd" cx="80" cy="20" rx="10" ry="10" style="fill: rgb(17, 104, 189);"></ellipse><rect  id="v-2218" rx="10" ry="10" stroke-width="0" pointer-events="visiblePainted" fill="#1168bd" width="340" height="20" x="100" y="10" style="fill: rgb(17, 104, 189);"></rect><text  id="v-2219" font-size="33.599999999999994px" xml:space="preserve" y="72.34" font-weight="bold" text-anchor="middle" pointer-events="visible" font-family="Tahoma, Verdana, Helvetica, Arial" fill="#ffffff" dominant-baseline="hanging" transform="matrix(1,0,0,1,225,0)" style="fill: rgb(255, 255, 255);"><tspan dy="0" >Single Page Application</tspan><tspan dy="1.2em" x="0" >(SPA)</tspan></text><text  id="v-2220" font-size="16.799999999999997px" xml:space="preserve" y="154.26" text-anchor="middle" font-family="Tahoma, Verdana, Helvetica, Arial" fill="#ffffff" dominant-baseline="hanging" transform="matrix(1,0,0,1,225,0)" style="display: block; fill: rgb(255, 255, 255);"><tspan dy="0" >[Container: Vue 3 / Vite]</tspan></text><text  id="v-2221" font-size="24px" xml:space="preserve" y="186.06" text-anchor="middle" font-family="Tahoma, Verdana, Helvetica, Arial" fill="#ffffff" dominant-baseline="hanging" transform="matrix(1,0,0,1,225,0)" style="display: block; fill: rgb(255, 255, 255);"><tspan dy="0" >Interfaz gráfica principal para</tspan><tspan dy="1.2em" x="0" >Médicos, Supervisores y</tspan><tspan dy="1.2em" x="0" >Administradores.</tspan></text><g  id="v-2222" font-weight="normal" text-anchor="middle" color="#ffffff" transform="matrix(1,0,0,1,210,268)" display="none" style="fill: rgb(255, 255, 255);"><g  transform="translate(5 0)"><svg xmlns="http://www.w3.org/2000/svg" width="20" height="20" fill="currentColor" viewBox="0 0 16 16"><path fill-rule="evenodd" d="M6.5 12a5.5 5.5 0 1 0 0-11 5.5 5.5 0 0 0 0 11zM13 6.5a6.5 6.5 0 1 1-13 0 6.5 6.5 0 0 1 13 0z"></path><path d="M10.344 11.742c.03.04.062.078.098.115l3.85 3.85a1 1 0 0 0 1.415-1.414l-3.85-3.85a1.007 1.007 0 0 0-.115-.1 6.538 6.538 0 0 1-1.398 1.4z"></path><path fill-rule="evenodd" d="M6.5 3a.5.5 0 0 1 .5.5V6h2.5a.5.5 0 0 1 0 1H7v2.5a.5.5 0 0 1-1 0V7H3.5a.5.5 0 0 1 0-1H6V3.5a.5.5 0 0 1 .5-.5z"></path></svg></g><g ></g><g ></g><g ></g></g><image  id="v-2223"></image></g></g><!--z-index:31--><g   id="j_192"  transform="translate(1040,192)" style="; opacity: 1;"><g id="v-2245"><rect  id="v-2246" width="1340" height="2229" rx="20" ry="20" stroke-width="2" pointer-events="none" stroke="#27934d" fill="#ffffff" opacity="1" stroke-dasharray=""></rect><text  id="v-2247" font-size="33.599999999999994px" xml:space="preserve" y="2190" font-weight="bold" text-anchor="start" pointer-events="visible" font-family="Tahoma, Verdana, Helvetica, Arial" fill="#27934d" transform="matrix(1,0,0,1,15,0)"><tspan dy="0" >REST API Application</tspan></text><text  id="v-2248" font-size="16.799999999999997px" xml:space="preserve" y="2214" font-weight="normal" text-anchor="start" pointer-events="visible" font-family="Tahoma, Verdana, Helvetica, Arial" fill="#27934d" transform="matrix(1,0,0,1,15,0)"><tspan dy="0" >[Container]</tspan></text><image  id="v-2249" pointer-events="visible"></image></g></g><!--z-index:32--><g   id="j_199"  transform="translate(2720,1117)" style=""><g  id="v-2328" style="opacity: 1;"><path  d="M 0,30 a 225,30 0,0,0 450 0 a 225,30 0,0,0 -450 0 l 0,240 a 225,30 0,0,0 450 0 l 0,-240" id="v-2329" stroke-width="2" pointer-events="visiblePainted" fill="#e62b2b" stroke="#cf2727" stroke-dasharray="" style="fill: rgb(230, 43, 43); stroke: rgb(207, 39, 39);"></path><rect  id="v-2330" stroke-width="0" pointer-events="visiblePainted" fill="none" stroke="none" width="450" height="270" x="0" y="30"></rect><text  id="v-2331" font-size="33.599999999999994px" xml:space="preserve" y="101.9" font-weight="bold" text-anchor="middle" pointer-events="visible" font-family="Tahoma, Verdana, Helvetica, Arial" fill="#ffffff" dominant-baseline="hanging" transform="matrix(1,0,0,1,225,0)" style="fill: rgb(255, 255, 255);"><tspan dy="0" >Database</tspan></text><text  id="v-2332" font-size="16.799999999999997px" xml:space="preserve" y="143.5" text-anchor="middle" font-family="Tahoma, Verdana, Helvetica, Arial" fill="#ffffff" dominant-baseline="hanging" transform="matrix(1,0,0,1,225,0)" style="display: block; fill: rgb(255, 255, 255);"><tspan dy="0" >[Container: MySQL]</tspan></text><text  id="v-2333" font-size="24px" xml:space="preserve" y="175.3" text-anchor="middle" font-family="Tahoma, Verdana, Helvetica, Arial" fill="#ffffff" dominant-baseline="hanging" transform="matrix(1,0,0,1,225,0)" style="display: block; fill: rgb(255, 255, 255);"><tspan dy="0" >Almacena perfiles, métricas, turnos</tspan><tspan dy="1.2em" x="0" >y logs de auditoría.</tspan></text><g  id="v-2334" font-weight="normal" text-anchor="middle" color="#ffffff" transform="matrix(1,0,0,1,222.5,268)" display="none" style="fill: rgb(255, 255, 255);"><g ></g><g ></g><g ></g><g ></g></g><image  id="v-2335"></image></g></g><!--z-index:33--><g   id="j_191"  transform="translate(1090,242)" style=""><g  id="v-2238" style="opacity: 1;"><rect  id="v-2239" rx="1" ry="1" stroke-width="2" pointer-events="visiblePainted" fill="#85bbf0" stroke="#78a8d8" stroke-dasharray="" width="450" height="300" style="fill: rgb(133, 187, 240); stroke: rgb(120, 168, 216);"></rect><text  id="v-2240" font-size="33.599999999999994px" xml:space="preserve" y="101.30000000000001" font-weight="bold" text-anchor="middle" pointer-events="visible" font-family="Tahoma, Verdana, Helvetica, Arial" fill="#000000" dominant-baseline="hanging" transform="matrix(1,0,0,1,225,0)" style="fill: rgb(0, 0, 0);"><tspan dy="0" >Iam Bounded Context</tspan></text><text  id="v-2241" font-size="16.799999999999997px" xml:space="preserve" y="142.9" text-anchor="middle" font-family="Tahoma, Verdana, Helvetica, Arial" fill="#000000" dominant-baseline="hanging" transform="matrix(1,0,0,1,225,0)" style="display: block; fill: rgb(0, 0, 0);"><tspan dy="0" >[Component: .NET]</tspan></text><text  id="v-2242" font-size="24px" xml:space="preserve" y="174.7" text-anchor="middle" font-family="Tahoma, Verdana, Helvetica, Arial" fill="#000000" dominant-baseline="hanging" transform="matrix(1,0,0,1,225,0)" style="display: block; fill: rgb(0, 0, 0);"><tspan dy="0" >Gestión de identidad, JWT y perfiles.</tspan></text><g  id="v-2243" color="#000000" transform="matrix(1,0,0,1,222.5,268)" display="none" style="fill: rgb(0, 0, 0);"><g ></g><g ></g><g ></g><g ></g></g><image  id="v-2244"></image></g></g><!--z-index:34--><g   id="j_193"  transform="translate(1090,592)" style=""><g  id="v-2256" style="opacity: 1;"><rect  id="v-2257" rx="1" ry="1" stroke-width="2" pointer-events="visiblePainted" fill="#85bbf0" stroke="#78a8d8" stroke-dasharray="" width="450" height="300" style="fill: rgb(133, 187, 240); stroke: rgb(120, 168, 216);"></rect><text  id="v-2258" font-size="33.599999999999994px" xml:space="preserve" y="81.14000000000001" font-weight="bold" text-anchor="middle" pointer-events="visible" font-family="Tahoma, Verdana, Helvetica, Arial" fill="#000000" dominant-baseline="hanging" transform="matrix(1,0,0,1,225,0)" style="fill: rgb(0, 0, 0);"><tspan dy="0" >Subscription Bounded</tspan><tspan dy="1.2em" x="0" >Context</tspan></text><text  id="v-2259" font-size="16.799999999999997px" xml:space="preserve" y="163.06" text-anchor="middle" font-family="Tahoma, Verdana, Helvetica, Arial" fill="#000000" dominant-baseline="hanging" transform="matrix(1,0,0,1,225,0)" style="display: block; fill: rgb(0, 0, 0);"><tspan dy="0" >[Component: .NET]</tspan></text><text  id="v-2260" font-size="24px" xml:space="preserve" y="194.86" text-anchor="middle" font-family="Tahoma, Verdana, Helvetica, Arial" fill="#000000" dominant-baseline="hanging" transform="matrix(1,0,0,1,225,0)" style="display: block; fill: rgb(0, 0, 0);"><tspan dy="0" >Valida estado de pago y límites.</tspan></text><g  id="v-2261" color="#000000" transform="matrix(1,0,0,1,222.5,268)" display="none" style="fill: rgb(0, 0, 0);"><g ></g><g ></g><g ></g><g ></g></g><image  id="v-2262"></image></g></g><!--z-index:35--><g   id="j_194"  transform="translate(1090,942)" style=""><g  id="v-2269" style="opacity: 1;"><rect  id="v-2270" rx="1" ry="1" stroke-width="2" pointer-events="visiblePainted" fill="#85bbf0" stroke="#78a8d8" stroke-dasharray="" width="450" height="300" style="fill: rgb(133, 187, 240); stroke: rgb(120, 168, 216);"></rect><text  id="v-2271" font-size="33.599999999999994px" xml:space="preserve" y="101.30000000000001" font-weight="bold" text-anchor="middle" pointer-events="visible" font-family="Tahoma, Verdana, Helvetica, Arial" fill="#000000" dominant-baseline="hanging" transform="matrix(1,0,0,1,225,0)" style="fill: rgb(0, 0, 0);"><tspan dy="0" >Clinical Risk Context</tspan></text><text  id="v-2272" font-size="16.799999999999997px" xml:space="preserve" y="142.9" text-anchor="middle" font-family="Tahoma, Verdana, Helvetica, Arial" fill="#000000" dominant-baseline="hanging" transform="matrix(1,0,0,1,225,0)" style="display: block; fill: rgb(0, 0, 0);"><tspan dy="0" >[Component: .NET]</tspan></text><text  id="v-2273" font-size="24px" xml:space="preserve" y="174.7" text-anchor="middle" font-family="Tahoma, Verdana, Helvetica, Arial" fill="#000000" dominant-baseline="hanging" transform="matrix(1,0,0,1,225,0)" style="display: block; fill: rgb(0, 0, 0);"><tspan dy="0" >Procesa telemetría y dispara Alertas.</tspan></text><g  id="v-2274" color="#000000" transform="matrix(1,0,0,1,222.5,268)" display="none" style="fill: rgb(0, 0, 0);"><g ></g><g ></g><g ></g><g ></g></g><image  id="v-2275"></image></g></g><!--z-index:36--><g   id="j_195"  transform="translate(1090,1292)" style=""><g  id="v-2282" style="opacity: 1;"><rect  id="v-2283" rx="1" ry="1" stroke-width="2" pointer-events="visiblePainted" fill="#85bbf0" stroke="#78a8d8" stroke-dasharray="" width="450" height="300" style="fill: rgb(133, 187, 240); stroke: rgb(120, 168, 216);"></rect><text  id="v-2284" font-size="33.599999999999994px" xml:space="preserve" y="101.30000000000001" font-weight="bold" text-anchor="middle" pointer-events="visible" font-family="Tahoma, Verdana, Helvetica, Arial" fill="#000000" dominant-baseline="hanging" transform="matrix(1,0,0,1,225,0)" style="fill: rgb(0, 0, 0);"><tspan dy="0" >Shift Coordination Context</tspan></text><text  id="v-2285" font-size="16.799999999999997px" xml:space="preserve" y="142.9" text-anchor="middle" font-family="Tahoma, Verdana, Helvetica, Arial" fill="#000000" dominant-baseline="hanging" transform="matrix(1,0,0,1,225,0)" style="display: block; fill: rgb(0, 0, 0);"><tspan dy="0" >[Component: .NET]</tspan></text><text  id="v-2286" font-size="24px" xml:space="preserve" y="174.7" text-anchor="middle" font-family="Tahoma, Verdana, Helvetica, Arial" fill="#000000" dominant-baseline="hanging" transform="matrix(1,0,0,1,225,0)" style="display: block; fill: rgb(0, 0, 0);"><tspan dy="0" >Evalúa riesgos en turnos.</tspan></text><g  id="v-2287" color="#000000" transform="matrix(1,0,0,1,222.5,268)" display="none" style="fill: rgb(0, 0, 0);"><g ></g><g ></g><g ></g><g ></g></g><image  id="v-2288"></image></g></g><!--z-index:37--><g   id="j_196"  transform="translate(1090,1642)" style=""><g  id="v-2295" style="opacity: 1;"><rect  id="v-2296" rx="1" ry="1" stroke-width="2" pointer-events="visiblePainted" fill="#85bbf0" stroke="#78a8d8" stroke-dasharray="" width="450" height="300" style="fill: rgb(133, 187, 240); stroke: rgb(120, 168, 216);"></rect><text  id="v-2297" font-size="33.599999999999994px" xml:space="preserve" y="101.30000000000001" font-weight="bold" text-anchor="middle" pointer-events="visible" font-family="Tahoma, Verdana, Helvetica, Arial" fill="#000000" dominant-baseline="hanging" transform="matrix(1,0,0,1,225,0)" style="fill: rgb(0, 0, 0);"><tspan dy="0" >Staff Recovery Context</tspan></text><text  id="v-2298" font-size="16.799999999999997px" xml:space="preserve" y="142.9" text-anchor="middle" font-family="Tahoma, Verdana, Helvetica, Arial" fill="#000000" dominant-baseline="hanging" transform="matrix(1,0,0,1,225,0)" style="display: block; fill: rgb(0, 0, 0);"><tspan dy="0" >[Component: .NET]</tspan></text><text  id="v-2299" font-size="24px" xml:space="preserve" y="174.7" text-anchor="middle" font-family="Tahoma, Verdana, Helvetica, Arial" fill="#000000" dominant-baseline="hanging" transform="matrix(1,0,0,1,225,0)" style="display: block; fill: rgb(0, 0, 0);"><tspan dy="0" >Ciclo de vida del plan de descanso.</tspan></text><g  id="v-2300" color="#000000" transform="matrix(1,0,0,1,222.5,268)" display="none" style="fill: rgb(0, 0, 0);"><g ></g><g ></g><g ></g><g ></g></g><image  id="v-2301"></image></g></g><!--z-index:38--><g   id="j_197"  transform="translate(1090,1992)" style=""><g  id="v-2308" style="opacity: 1;"><rect  id="v-2309" rx="1" ry="1" stroke-width="2" pointer-events="visiblePainted" fill="#85bbf0" stroke="#78a8d8" stroke-dasharray="" width="450" height="300" style="fill: rgb(133, 187, 240); stroke: rgb(120, 168, 216);"></rect><text  id="v-2310" font-size="33.599999999999994px" xml:space="preserve" y="101.30000000000001" font-weight="bold" text-anchor="middle" pointer-events="visible" font-family="Tahoma, Verdana, Helvetica, Arial" fill="#000000" dominant-baseline="hanging" transform="matrix(1,0,0,1,225,0)" style="fill: rgb(0, 0, 0);"><tspan dy="0" >Audit Compliance Context</tspan></text><text  id="v-2311" font-size="16.799999999999997px" xml:space="preserve" y="142.9" text-anchor="middle" font-family="Tahoma, Verdana, Helvetica, Arial" fill="#000000" dominant-baseline="hanging" transform="matrix(1,0,0,1,225,0)" style="display: block; fill: rgb(0, 0, 0);"><tspan dy="0" >[Component: .NET]</tspan></text><text  id="v-2312" font-size="24px" xml:space="preserve" y="174.7" text-anchor="middle" font-family="Tahoma, Verdana, Helvetica, Arial" fill="#000000" dominant-baseline="hanging" transform="matrix(1,0,0,1,225,0)" style="display: block; fill: rgb(0, 0, 0);"><tspan dy="0" >Traza decisiones críticas.</tspan></text><g  id="v-2313" color="#000000" transform="matrix(1,0,0,1,222.5,268)" display="none" style="fill: rgb(0, 0, 0);"><g ></g><g ></g><g ></g><g ></g></g><image  id="v-2314"></image></g></g><!--z-index:39--><g   id="j_198"  transform="translate(1880,1117)" style=""><g  id="v-2318" style="opacity: 1;"><rect  id="v-2319" rx="1" ry="1" stroke-width="2" pointer-events="visiblePainted" fill="#85bbf0" stroke="#78a8d8" stroke-dasharray="" width="450" height="300" style="fill: rgb(133, 187, 240); stroke: rgb(120, 168, 216);"></rect><text  id="v-2320" font-size="33.599999999999994px" xml:space="preserve" y="101.30000000000001" font-weight="bold" text-anchor="middle" pointer-events="visible" font-family="Tahoma, Verdana, Helvetica, Arial" fill="#000000" dominant-baseline="hanging" transform="matrix(1,0,0,1,225,0)" style="fill: rgb(0, 0, 0);"><tspan dy="0" >AppDbContext (Shared)</tspan></text><text  id="v-2321" font-size="16.799999999999997px" xml:space="preserve" y="142.9" text-anchor="middle" font-family="Tahoma, Verdana, Helvetica, Arial" fill="#000000" dominant-baseline="hanging" transform="matrix(1,0,0,1,225,0)" style="display: block; fill: rgb(0, 0, 0);"><tspan dy="0" >[Component: .NET]</tspan></text><text  id="v-2322" font-size="24px" xml:space="preserve" y="174.7" text-anchor="middle" font-family="Tahoma, Verdana, Helvetica, Arial" fill="#000000" dominant-baseline="hanging" transform="matrix(1,0,0,1,225,0)" style="display: block; fill: rgb(0, 0, 0);"><tspan dy="0" >Capa de mapeo ORM.</tspan></text><g  id="v-2323" color="#000000" transform="matrix(1,0,0,1,222.5,268)" display="none" style="fill: rgb(0, 0, 0);"><g ></g><g ></g><g ></g><g ></g></g><image  id="v-2324"></image></g></g><!--z-index:40--><g   id="j_200"  style="opacity: 1;"><path fill="none" cursor="pointer" stroke="transparent" stroke-linecap="round" joint-selector="wrapper" id="v-2347" stroke-width="10" stroke-linejoin="round" d="M 1540 392 L 1700 392 C 1706.6666666666665 392 1711.3333333333333 395 1714 401 L 2037.29 1117"></path><path fill="none" pointer-events="none" joint-selector="line" id="v-2346" stroke="#444444" stroke-width="2" stroke-linejoin="round" stroke-dasharray="8 8" d="M 1540 392 L 1700 392 C 1706.6666666666665 392 1711.3333333333333 395 1714 401 L 2037.29 1117" marker-end="url(#v-21252848929)"></path><g id="v-2339" ><g id="v-2340"  label-idx="0" cursor="move" transform="matrix(1,0,0,1,1709.0904541015625,394.6533203125)" style="cursor: default;"><rect joint-selector="rect" id="v-2343" fill="#ffffff" rx="3" ry="3" x="-82.63323211669922" y="-15.331764221191406" width="165.26646423339844" height="28.969409942626953" pointer-events="none"  style="display: block;"></rect><text joint-selector="text" id="v-2342" font-size="24px" xml:space="preserve" fill="#444444" text-anchor="middle" pointer-events="none" font-family="Tahoma, Verdana, Helvetica, Arial" font-weight="normal"  style="display: block;"><tspan dy="0.3em" >Persiste usando</tspan></text></g><g id="v-2341"  label-idx="1" cursor="move" transform="matrix(1,0,0,1,1699.0904541015625,406.6533203125)" style="cursor: default;"><rect joint-selector="rect" id="v-2345" fill="#ffffff" rx="3" ry="3" x="2.2737367544323206e-13" y="0" width="0" height="0"  display="none"></rect><text joint-selector="text" id="v-2344" fill="#000000" font-size="14" text-anchor="middle" text-vertical-anchor="middle" pointer-events="none"></text></g></g></g><!--z-index:41--><g   id="j_201"  style="opacity: 1;"><path fill="none" cursor="pointer" stroke="transparent" stroke-linecap="round" joint-selector="wrapper" id="v-2359" stroke-width="10" stroke-linejoin="round" d="M 1540 742 L 1700 742 C 1706.6666666666665 742 1712 744.6666666666666 1716 750 L 1992.14 1117"></path><path fill="none" pointer-events="none" joint-selector="line" id="v-2358" stroke="#444444" stroke-width="2" stroke-linejoin="round" stroke-dasharray="8 8" d="M 1540 742 L 1700 742 C 1706.6666666666665 742 1712 744.6666666666666 1716 750 L 1992.14 1117" marker-end="url(#v-21252848929)"></path><g id="v-2351" ><g id="v-2352"  label-idx="0" cursor="move" transform="matrix(1,0,0,1,1709.280029296875,744.14306640625)" style="cursor: default;"><rect joint-selector="rect" id="v-2355" fill="#ffffff" rx="3" ry="3" x="-82.63323211669922" y="-15.331764221191406" width="165.26646423339844" height="28.969409942626953" pointer-events="none"  style="display: block;"></rect><text joint-selector="text" id="v-2354" font-size="24px" xml:space="preserve" fill="#444444" text-anchor="middle" pointer-events="none" font-family="Tahoma, Verdana, Helvetica, Arial" font-weight="normal"  style="display: block;"><tspan dy="0.3em" >Persiste usando</tspan></text></g><g id="v-2353"  label-idx="1" cursor="move" transform="matrix(1,0,0,1,1699.280029296875,756.14306640625)" style="cursor: default;"><rect joint-selector="rect" id="v-2357" fill="#ffffff" rx="3" ry="3" x="2.2737367544323206e-13" y="0" width="0" height="0"  display="none"></rect><text joint-selector="text" id="v-2356" fill="#000000" font-size="14" text-anchor="middle" text-vertical-anchor="middle" pointer-events="none"></text></g></g></g><!--z-index:42--><g   id="j_202"  style="opacity: 1;"><path fill="none" cursor="pointer" stroke="transparent" stroke-linecap="round" joint-selector="wrapper" id="v-2371" stroke-width="10" stroke-linejoin="round" d="M 1540 1092 L 1700 1092 C 1706.6666666666665 1092 1713 1093.3333333333333 1719 1096 L 1880 1167.32"></path><path fill="none" pointer-events="none" joint-selector="line" id="v-2370" stroke="#444444" stroke-width="2" stroke-linejoin="round" stroke-dasharray="8 8" d="M 1540 1092 L 1700 1092 C 1706.6666666666665 1092 1713 1093.3333333333333 1719 1096 L 1880 1167.32" marker-end="url(#v-21252848929)"></path><g id="v-2363" ><g id="v-2364"  label-idx="0" cursor="move" transform="matrix(1,0,0,1,1709.787109375,1093.0078125)" style="cursor: default;"><rect joint-selector="rect" id="v-2367" fill="#ffffff" rx="3" ry="3" x="-82.63323211669922" y="-15.331764221191406" width="165.26646423339844" height="28.969409942626953" pointer-events="none"  style="display: block;"></rect><text joint-selector="text" id="v-2366" font-size="24px" xml:space="preserve" fill="#444444" text-anchor="middle" pointer-events="none" font-family="Tahoma, Verdana, Helvetica, Arial" font-weight="normal"  style="display: block;"><tspan dy="0.3em" >Persiste usando</tspan></text></g><g id="v-2365"  label-idx="1" cursor="move" transform="matrix(1,0,0,1,1699.787109375,1105.0078125)" style="cursor: default;"><rect joint-selector="rect" id="v-2369" fill="#ffffff" rx="3" ry="3" x="0" y="2.2737367544323206e-13" width="0" height="0"  display="none"></rect><text joint-selector="text" id="v-2368" fill="#000000" font-size="14" text-anchor="middle" text-vertical-anchor="middle" pointer-events="none"></text></g></g></g><!--z-index:43--><g   id="j_203"  style="opacity: 1;"><path fill="none" cursor="pointer" stroke="transparent" stroke-linecap="round" joint-selector="wrapper" id="v-2383" stroke-width="10" stroke-linejoin="round" d="M 1542.04 1442 L 1700 1442 C 1706.6666666666665 1442 1713 1440.6666666666665 1719 1438 L 1880 1366.68"></path><path fill="none" pointer-events="none" joint-selector="line" id="v-2382" stroke="#444444" stroke-width="2" stroke-linejoin="round" stroke-dasharray="8 8" d="M 1542.04 1442 L 1700 1442 C 1706.6666666666665 1442 1713 1440.6666666666665 1719 1438 L 1880 1366.68" marker-end="url(#v-21252848929)"></path><g id="v-2375" ><g id="v-2376"  label-idx="0" cursor="move" transform="matrix(1,0,0,1,1710.822998046875,1440.7606201171875)" style="cursor: default;"><rect joint-selector="rect" id="v-2379" fill="#ffffff" rx="3" ry="3" x="-82.63323211669922" y="-15.331764221191406" width="165.26646423339844" height="28.969409942626953" pointer-events="none"  style="display: block;"></rect><text joint-selector="text" id="v-2378" font-size="24px" xml:space="preserve" fill="#444444" text-anchor="middle" pointer-events="none" font-family="Tahoma, Verdana, Helvetica, Arial" font-weight="normal"  style="display: block;"><tspan dy="0.3em" >Persiste usando</tspan></text></g><g id="v-2377"  label-idx="1" cursor="move" transform="matrix(1,0,0,1,1700.822998046875,1452.7606201171875)" style="cursor: default;"><rect joint-selector="rect" id="v-2381" fill="#ffffff" rx="3" ry="3" x="0" y="2.2737367544323206e-13" width="0" height="0"  display="none"></rect><text joint-selector="text" id="v-2380" fill="#000000" font-size="14" text-anchor="middle" text-vertical-anchor="middle" pointer-events="none"></text></g></g></g><!--z-index:44--><g   id="j_204"  style="opacity: 1;"><path fill="none" cursor="pointer" stroke="transparent" stroke-linecap="round" joint-selector="wrapper" id="v-2395" stroke-width="10" stroke-linejoin="round" d="M 1540 1792 L 1700 1792 C 1706.6666666666665 1791.9999999999998 1712 1789.333333333333 1716 1784 L 1992.14 1417"></path><path fill="none" pointer-events="none" joint-selector="line" id="v-2394" stroke="#444444" stroke-width="2" stroke-linejoin="round" stroke-dasharray="8 8" d="M 1540 1792 L 1700 1792 C 1706.6666666666665 1791.9999999999998 1712 1789.333333333333 1716 1784 L 1992.14 1417" marker-end="url(#v-21252848929)"></path><g id="v-2387" ><g id="v-2388"  label-idx="0" cursor="move" transform="matrix(1,0,0,1,1709.280029296875,1789.85693359375)" style="cursor: default;"><rect joint-selector="rect" id="v-2391" fill="#ffffff" rx="3" ry="3" x="-82.63323211669922" y="-15.331764221191406" width="165.26646423339844" height="28.969409942626953" pointer-events="none"  style="display: block;"></rect><text joint-selector="text" id="v-2390" font-size="24px" xml:space="preserve" fill="#444444" text-anchor="middle" pointer-events="none" font-family="Tahoma, Verdana, Helvetica, Arial" font-weight="normal"  style="display: block;"><tspan dy="0.3em" >Persiste usando</tspan></text></g><g id="v-2389"  label-idx="1" cursor="move" transform="matrix(1,0,0,1,1699.280029296875,1801.85693359375)" style="cursor: default;"><rect joint-selector="rect" id="v-2393" fill="#ffffff" rx="3" ry="3" x="2.2737367544323206e-13" y="2.2737367544323206e-13" width="0" height="0"  display="none"></rect><text joint-selector="text" id="v-2392" fill="#000000" font-size="14" text-anchor="middle" text-vertical-anchor="middle" pointer-events="none"></text></g></g></g><!--z-index:45--><g   id="j_205"  style="opacity: 1;"><path fill="none" cursor="pointer" stroke="transparent" stroke-linecap="round" joint-selector="wrapper" id="v-2407" stroke-width="10" stroke-linejoin="round" d="M 1540 2142 L 1700 2142 C 1706.6666666666665 2142 1711.3333333333333 2139 1714 2133 L 2037.29 1417"></path><path fill="none" pointer-events="none" joint-selector="line" id="v-2406" stroke="#444444" stroke-width="2" stroke-linejoin="round" stroke-dasharray="8 8" d="M 1540 2142 L 1700 2142 C 1706.6666666666665 2142 1711.3333333333333 2139 1714 2133 L 2037.29 1417" marker-end="url(#v-21252848929)"></path><g id="v-2399" ><g id="v-2400"  label-idx="0" cursor="move" transform="matrix(1,0,0,1,1709.0904541015625,2139.3466796875)" style="cursor: default;"><rect joint-selector="rect" id="v-2403" fill="#ffffff" rx="3" ry="3" x="-82.63323211669922" y="-15.331764221191406" width="165.26646423339844" height="28.969409942626953" pointer-events="none"  style="display: block;"></rect><text joint-selector="text" id="v-2402" font-size="24px" xml:space="preserve" fill="#444444" text-anchor="middle" pointer-events="none" font-family="Tahoma, Verdana, Helvetica, Arial" font-weight="normal"  style="display: block;"><tspan dy="0.3em" >Persiste usando</tspan></text></g><g id="v-2401"  label-idx="1" cursor="move" transform="matrix(1,0,0,1,1699.0904541015625,2151.3466796875)" style="cursor: default;"><rect joint-selector="rect" id="v-2405" fill="#ffffff" rx="3" ry="3" x="2.2737367544323206e-13" y="2.2737367544323206e-13" width="0" height="0"  display="none"></rect><text joint-selector="text" id="v-2404" fill="#000000" font-size="14" text-anchor="middle" text-vertical-anchor="middle" pointer-events="none"></text></g></g></g><!--z-index:46--><g   id="j_206"  style="opacity: 1;"><path fill="none" cursor="pointer" stroke="transparent" stroke-linecap="round" joint-selector="wrapper" id="v-2422" stroke-width="10" stroke-linejoin="round" d="M 2330 1267 L 2720 1267"></path><path fill="none" pointer-events="none" joint-selector="line" id="v-2421" stroke="#444444" stroke-width="2" stroke-linejoin="round" stroke-dasharray="8 8" d="M 2330 1267 L 2720 1267" marker-end="url(#v-21252848929)"></path><g id="v-2411" ><g id="v-2412"  label-idx="0" cursor="move" transform="matrix(1,0,0,1,2550,1253.5999755859375)" style="cursor: default;"><rect joint-selector="rect" id="v-2416" fill="#ffffff" rx="3" ry="3" x="-86.00293731689453" y="-15.331764221191406" width="172.00587463378906" height="28.969409942626953" pointer-events="none"  style="display: block;"></rect><text joint-selector="text" id="v-2415" font-size="24px" xml:space="preserve" fill="#444444" text-anchor="middle" pointer-events="none" font-family="Tahoma, Verdana, Helvetica, Arial" font-weight="normal"  style="display: block;"><tspan dy="0.3em" >Lee y escribe en</tspan></text></g><g id="v-2413"  label-idx="1" cursor="move" transform="matrix(1,0,0,1,2550,1284)" style="cursor: default;"><rect joint-selector="rect" id="v-2418" fill="#ffffff" rx="3" ry="3" x="-31.8613224029541" y="-11.054117202758789" width="63.724266052246094" height="19.31294059753418"  pointer-events="none" style="display: block;"></rect><text joint-selector="text" id="v-2417" font-size="16.799999999999997px" xml:space="preserve" fill="#444444" text-anchor="middle" pointer-events="none" font-family="Tahoma, Verdana, Helvetica, Arial" font-weight="normal"  style="display: block;"><tspan dy="0.3em" >[TCP/IP]</tspan></text></g><g id="v-2414"  label-idx="2" cursor="move" transform="matrix(1,0,0,1,2515,1292.4000244140625)" style="cursor: default;"><rect joint-selector="rect" id="v-2420" fill="#ffffff" rx="3" ry="3" x="4.547473508864641e-13" y="0" width="0" height="0"  display="none"></rect><text joint-selector="text" id="v-2419" fill="#000000" font-size="14" text-anchor="middle" text-vertical-anchor="middle" pointer-events="none"></text></g></g></g><!--z-index:47--><g   id="j_207"  style="opacity: 1;"><path fill="none" cursor="pointer" stroke="transparent" stroke-linecap="round" joint-selector="wrapper" id="v-2437" stroke-width="10" stroke-linejoin="round" d="M 543.09 1117 L 866 401 C 868.6666666666666 395 873.3333333333333 392 880 392 L 1090 392"></path><path fill="none" pointer-events="none" joint-selector="line" id="v-2436" stroke="#444444" stroke-width="2" stroke-linejoin="round" stroke-dasharray="8 8" d="M 543.09 1117 L 866 401 C 868.6666666666666 395 873.3333333333333 392 880 392 L 1090 392" marker-end="url(#v-21252848929)"></path><g id="v-2426" ><g id="v-2427"  label-idx="0" cursor="move" transform="matrix(1,0,0,1,871.0152587890625,381.1775207519531)" style="cursor: default;"><rect joint-selector="rect" id="v-2431" fill="#ffffff" rx="3" ry="3" x="-86.6819076538086" y="-29.73176383972168" width="175.49099731445312" height="57.7694091796875" pointer-events="none"  style="display: block;"></rect><text joint-selector="text" id="v-2430" font-size="24px" xml:space="preserve" fill="#444444" text-anchor="middle" pointer-events="none" font-family="Tahoma, Verdana, Helvetica, Arial" font-weight="normal"  style="display: block;"><tspan dy="-0.3em" >Llama endpoints</tspan><tspan dy="1.2em" x="0" >de IAM</tspan></text></g><g id="v-2428"  label-idx="1" cursor="move" transform="matrix(1,0,0,1,871.0152587890625,425.9775390625)" style="cursor: default;"><rect joint-selector="rect" id="v-2433" fill="#ffffff" rx="3" ry="3" x="-53.663822174072266" y="-11.054117202758789" width="107.33624267578125" height="19.31294059753418"  pointer-events="none" style="display: block;"></rect><text joint-selector="text" id="v-2432" font-size="16.799999999999997px" xml:space="preserve" fill="#444444" text-anchor="middle" pointer-events="none" font-family="Tahoma, Verdana, Helvetica, Arial" font-weight="normal"  style="display: block;"><tspan dy="0.3em" >[JSON/HTTPS]</tspan></text></g><g id="v-2429"  label-idx="2" cursor="move" transform="matrix(1,0,0,1,741.3600463867188,694.9953002929688)" style="cursor: default;"><rect joint-selector="rect" id="v-2435" fill="#ffffff" rx="3" ry="3" x="1.1368683772161603e-13" y="0" width="0" height="0"  display="none"></rect><text joint-selector="text" id="v-2434" fill="#000000" font-size="14" text-anchor="middle" text-vertical-anchor="middle" pointer-events="none"></text></g></g></g><!--z-index:48--><g   id="j_208"  style="opacity: 1;"><path fill="none" cursor="pointer" stroke="transparent" stroke-linecap="round" joint-selector="wrapper" id="v-2452" stroke-width="10" stroke-linejoin="round" d="M 588.39 1117 L 864 750 C 868 744.6666666666666 873.3333333333333 742 880 742 L 1090 742"></path><path fill="none" pointer-events="none" joint-selector="line" id="v-2451" stroke="#444444" stroke-width="2" stroke-linejoin="round" stroke-dasharray="8 8" d="M 588.39 1117 L 864 750 C 868 744.6666666666666 873.3333333333333 742 880 742 L 1090 742" marker-end="url(#v-21252848929)"></path><g id="v-2441" ><g id="v-2442"  label-idx="0" cursor="move" transform="matrix(1,0,0,1,870.875244140625,730.6629638671875)" style="cursor: default;"><rect joint-selector="rect" id="v-2446" fill="#ffffff" rx="3" ry="3" x="-86.6819076538086" y="-29.73176383972168" width="175.49099731445312" height="57.7694091796875" pointer-events="none"  style="display: block;"></rect><text joint-selector="text" id="v-2445" font-size="24px" xml:space="preserve" fill="#444444" text-anchor="middle" pointer-events="none" font-family="Tahoma, Verdana, Helvetica, Arial" font-weight="normal"  style="display: block;"><tspan dy="-0.3em" >Llama endpoints</tspan><tspan dy="1.2em" x="0" >de Subscription</tspan></text></g><g id="v-2443"  label-idx="1" cursor="move" transform="matrix(1,0,0,1,870.875244140625,775.4630126953125)" style="cursor: default;"><rect joint-selector="rect" id="v-2448" fill="#ffffff" rx="3" ry="3" x="-53.663822174072266" y="-11.054117202758789" width="107.33624267578125" height="19.31294059753418"  pointer-events="none" style="display: block;"></rect><text joint-selector="text" id="v-2447" font-size="16.799999999999997px" xml:space="preserve" fill="#444444" text-anchor="middle" pointer-events="none" font-family="Tahoma, Verdana, Helvetica, Arial" font-weight="normal"  style="display: block;"><tspan dy="0.3em" >[JSON/HTTPS]</tspan></text></g><g id="v-2444"  label-idx="2" cursor="move" transform="matrix(1,0,0,1,784.8340454101562,881.9008178710938)" style="cursor: default;"><rect joint-selector="rect" id="v-2450" fill="#ffffff" rx="3" ry="3" x="0" y="0" width="0" height="0"  display="none"></rect><text joint-selector="text" id="v-2449" fill="#000000" font-size="14" text-anchor="middle" text-vertical-anchor="middle" pointer-events="none"></text></g></g></g><!--z-index:49--><g   id="j_209"  style="opacity: 1;"><path fill="none" cursor="pointer" stroke="transparent" stroke-linecap="round" joint-selector="wrapper" id="v-2467" stroke-width="10" stroke-linejoin="round" d="M 700 1167.75 L 861 1096 C 867 1093.3333333333333 873.3333333333333 1092 880 1092 L 1090 1092"></path><path fill="none" pointer-events="none" joint-selector="line" id="v-2466" stroke="#444444" stroke-width="2" stroke-linejoin="round" stroke-dasharray="8 8" d="M 700 1167.75 L 861 1096 C 867 1093.3333333333333 873.3333333333333 1092 880 1092 L 1090 1092" marker-end="url(#v-21252848929)"></path><g id="v-2456" ><g id="v-2457"  label-idx="0" cursor="move" transform="matrix(1,0,0,1,870.1387329101562,1079.62353515625)" style="cursor: default;"><rect joint-selector="rect" id="v-2461" fill="#ffffff" rx="3" ry="3" x="-86.6819076538086" y="-29.73176383972168" width="175.49099731445312" height="57.7694091796875" pointer-events="none"  style="display: block;"></rect><text joint-selector="text" id="v-2460" font-size="24px" xml:space="preserve" fill="#444444" text-anchor="middle" pointer-events="none" font-family="Tahoma, Verdana, Helvetica, Arial" font-weight="normal"  style="display: block;"><tspan dy="-0.3em" >Llama endpoints</tspan><tspan dy="1.2em" x="0" >de Risk</tspan></text></g><g id="v-2458"  label-idx="1" cursor="move" transform="matrix(1,0,0,1,870.1387329101562,1124.423583984375)" style="cursor: default;"><rect joint-selector="rect" id="v-2463" fill="#ffffff" rx="3" ry="3" x="-53.663822174072266" y="-11.054117202758789" width="107.33624267578125" height="19.31294059753418"  pointer-events="none" style="display: block;"></rect><text joint-selector="text" id="v-2462" font-size="16.799999999999997px" xml:space="preserve" fill="#444444" text-anchor="middle" pointer-events="none" font-family="Tahoma, Verdana, Helvetica, Arial" font-weight="normal"  style="display: block;"><tspan dy="0.3em" >[JSON/HTTPS]</tspan></text></g><g id="v-2459"  label-idx="2" cursor="move" transform="matrix(1,0,0,1,877.08837890625,1131.800048828125)" style="cursor: default;"><rect joint-selector="rect" id="v-2465" fill="#ffffff" rx="3" ry="3" x="0" y="0" width="0" height="0"  display="none"></rect><text joint-selector="text" id="v-2464" fill="#000000" font-size="14" text-anchor="middle" text-vertical-anchor="middle" pointer-events="none"></text></g></g></g><!--z-index:50--><g   id="j_210"  style="opacity: 1;"><path fill="none" cursor="pointer" stroke="transparent" stroke-linecap="round" joint-selector="wrapper" id="v-2482" stroke-width="10" stroke-linejoin="round" d="M 700 1367.11 L 861 1438 C 867 1440.6666666666665 873.3333333333333 1442 880 1442 L 1090 1442"></path><path fill="none" pointer-events="none" joint-selector="line" id="v-2481" stroke="#444444" stroke-width="2" stroke-linejoin="round" stroke-dasharray="8 8" d="M 700 1367.11 L 861 1438 C 867 1440.6666666666665 873.3333333333333 1442 880 1442 L 1090 1442" marker-end="url(#v-21252848929)"></path><g id="v-2471" ><g id="v-2472"  label-idx="0" cursor="move" transform="matrix(1,0,0,1,870.32421875,1427.6156005859375)" style="cursor: default;"><rect joint-selector="rect" id="v-2476" fill="#ffffff" rx="3" ry="3" x="-86.6819076538086" y="-29.73176383972168" width="175.49099731445312" height="57.7694091796875" pointer-events="none"  style="display: block;"></rect><text joint-selector="text" id="v-2475" font-size="24px" xml:space="preserve" fill="#444444" text-anchor="middle" pointer-events="none" font-family="Tahoma, Verdana, Helvetica, Arial" font-weight="normal"  style="display: block;"><tspan dy="-0.3em" >Llama endpoints</tspan><tspan dy="1.2em" x="0" >de Shifts</tspan></text></g><g id="v-2473"  label-idx="1" cursor="move" transform="matrix(1,0,0,1,870.32421875,1472.41552734375)" style="cursor: default;"><rect joint-selector="rect" id="v-2478" fill="#ffffff" rx="3" ry="3" x="-53.663822174072266" y="-11.054117202758789" width="107.33624267578125" height="19.31294059753418"  pointer-events="none" style="display: block;"></rect><text joint-selector="text" id="v-2477" font-size="16.799999999999997px" xml:space="preserve" fill="#444444" text-anchor="middle" pointer-events="none" font-family="Tahoma, Verdana, Helvetica, Arial" font-weight="normal"  style="display: block;"><tspan dy="0.3em" >[JSON/HTTPS]</tspan></text></g><g id="v-2474"  label-idx="2" cursor="move" transform="matrix(1,0,0,1,877.2625732421875,1481.800048828125)" style="cursor: default;"><rect joint-selector="rect" id="v-2480" fill="#ffffff" rx="3" ry="3" x="0" y="-2.2737367544323206e-13" width="0" height="0"  display="none"></rect><text joint-selector="text" id="v-2479" fill="#000000" font-size="14" text-anchor="middle" text-vertical-anchor="middle" pointer-events="none"></text></g></g></g><!--z-index:51--><g   id="j_211"  style="opacity: 1;"><path fill="none" cursor="pointer" stroke="transparent" stroke-linecap="round" joint-selector="wrapper" id="v-2497" stroke-width="10" stroke-linejoin="round" d="M 588.83 1419 L 864 1784 C 868 1789.333333333333 873.3333333333333 1791.9999999999998 880 1792 L 1090 1792"></path><path fill="none" pointer-events="none" joint-selector="line" id="v-2496" stroke="#444444" stroke-width="2" stroke-linejoin="round" stroke-dasharray="8 8" d="M 588.83 1419 L 864 1784 C 868 1789.333333333333 873.3333333333333 1791.9999999999998 880 1792 L 1090 1792" marker-end="url(#v-21252848929)"></path><g id="v-2486" ><g id="v-2487"  label-idx="0" cursor="move" transform="matrix(1,0,0,1,871.4088134765625,1776.7979736328125)" style="cursor: default;"><rect joint-selector="rect" id="v-2491" fill="#ffffff" rx="3" ry="3" x="-86.6819076538086" y="-29.73176383972168" width="175.49099731445312" height="57.7694091796875" pointer-events="none"  style="display: block;"></rect><text joint-selector="text" id="v-2490" font-size="24px" xml:space="preserve" fill="#444444" text-anchor="middle" pointer-events="none" font-family="Tahoma, Verdana, Helvetica, Arial" font-weight="normal"  style="display: block;"><tspan dy="-0.3em" >Llama endpoints</tspan><tspan dy="1.2em" x="0" >de Recovery</tspan></text></g><g id="v-2488"  label-idx="1" cursor="move" transform="matrix(1,0,0,1,871.4088134765625,1821.5980224609375)" style="cursor: default;"><rect joint-selector="rect" id="v-2493" fill="#ffffff" rx="3" ry="3" x="-53.663822174072266" y="-11.054117202758789" width="107.33624267578125" height="19.31294059753418"  pointer-events="none" style="display: block;"></rect><text joint-selector="text" id="v-2492" font-size="16.799999999999997px" xml:space="preserve" fill="#444444" text-anchor="middle" pointer-events="none" font-family="Tahoma, Verdana, Helvetica, Arial" font-weight="normal"  style="display: block;"><tspan dy="0.3em" >[JSON/HTTPS]</tspan></text></g><g id="v-2489"  label-idx="2" cursor="move" transform="matrix(1,0,0,1,785.2236938476562,1732.571533203125)" style="cursor: default;"><rect joint-selector="rect" id="v-2495" fill="#ffffff" rx="3" ry="3" x="0" y="2.2737367544323206e-13" width="0" height="0"  display="none"></rect><text joint-selector="text" id="v-2494" fill="#000000" font-size="14" text-anchor="middle" text-vertical-anchor="middle" pointer-events="none"></text></g></g></g><!--z-index:52--><g   id="j_212"  style="opacity: 1;"><path fill="none" cursor="pointer" stroke="transparent" stroke-linecap="round" joint-selector="wrapper" id="v-2512" stroke-width="10" stroke-linejoin="round" d="M 543.24 1419 L 866 2133 C 868.6666666666666 2139 873.3333333333333 2142 880 2142 L 1090 2142"></path><path fill="none" pointer-events="none" joint-selector="line" id="v-2511" stroke="#444444" stroke-width="2" stroke-linejoin="round" stroke-dasharray="8 8" d="M 543.24 1419 L 866 2133 C 868.6666666666666 2139 873.3333333333333 2142 880 2142 L 1090 2142" marker-end="url(#v-21252848929)"></path><g id="v-2501" ><g id="v-2502"  label-idx="0" cursor="move" transform="matrix(1,0,0,1,871.3367919921875,2126.243408203125)" style="cursor: default;"><rect joint-selector="rect" id="v-2506" fill="#ffffff" rx="3" ry="3" x="-86.6819076538086" y="-29.73176383972168" width="175.49099731445312" height="57.7694091796875" pointer-events="none"  style="display: block;"></rect><text joint-selector="text" id="v-2505" font-size="24px" xml:space="preserve" fill="#444444" text-anchor="middle" pointer-events="none" font-family="Tahoma, Verdana, Helvetica, Arial" font-weight="normal"  style="display: block;"><tspan dy="-0.3em" >Llama endpoints</tspan><tspan dy="1.2em" x="0" >de Audit</tspan></text></g><g id="v-2503"  label-idx="1" cursor="move" transform="matrix(1,0,0,1,871.3367919921875,2171.043212890625)" style="cursor: default;"><rect joint-selector="rect" id="v-2508" fill="#ffffff" rx="3" ry="3" x="-53.663822174072266" y="-11.054117202758789" width="107.33624267578125" height="19.31294059753418"  pointer-events="none" style="display: block;"></rect><text joint-selector="text" id="v-2507" font-size="16.799999999999997px" xml:space="preserve" fill="#444444" text-anchor="middle" pointer-events="none" font-family="Tahoma, Verdana, Helvetica, Arial" font-weight="normal"  style="display: block;"><tspan dy="0.3em" >[JSON/HTTPS]</tspan></text></g><g id="v-2504"  label-idx="2" cursor="move" transform="matrix(1,0,0,1,741.5258178710938,1919.563720703125)" style="cursor: default;"><rect joint-selector="rect" id="v-2510" fill="#ffffff" rx="3" ry="3" x="1.1368683772161603e-13" y="0" width="0" height="0"  display="none"></rect><text joint-selector="text" id="v-2509" fill="#000000" font-size="14" text-anchor="middle" text-vertical-anchor="middle" pointer-events="none"></text></g></g></g><!--z-index:53--><!--z-index:54--><!--z-index:55--><!--z-index:56--><!--z-index:57--><!--z-index:58--><!--z-index:59--><!--z-index:60--><!--z-index:61--><!--z-index:62--><!--z-index:63--><!--z-index:64--><!--z-index:65--></g><g  style="user-select: none;"></g><g ></g><g  display="none"></g></g></svg>