<svg xmlns="http://www.w3.org/2000/svg" xmlns:xlink="http://www.w3.org/1999/xlink" version="1.1" style="background: #ffffff" viewBox="0 0 3420 2808"><style id="v-3" type="text/css">        .joint-element .scalable * {            vector-effect: non-scaling-stroke;        }    </style><defs joint-selector="defs"><marker id="v-21252848929" orient="auto" overflow="visible" markerUnits="userSpaceOnUse"><path id="v-114" stroke="#444444" fill="#444444" transform="rotate(180)" d="M 20 -10 0 0 20 10 Z"></path></marker></defs><g joint-selector="layers"  transform="matrix(1,0,0,1,0,0)"><g  style="pointer-events: none;"></g><g ></g><g  style="user-select: none;"><!--z-index:0--><!--z-index:1--><!--z-index:2--><!--z-index:3--><!--z-index:4--><!--z-index:5--><!--z-index:6--><!--z-index:7--><!--z-index:8--><!--z-index:9--><!--z-index:10--><!--z-index:11--><!--z-index:12--><!--z-index:13--><!--z-index:14--><!--z-index:15--><!--z-index:16--><!--z-index:17--><!--z-index:18--><!--z-index:19--><!--z-index:20--><!--z-index:21--><!--z-index:22--><!--z-index:23--><!--z-index:24--><!--z-index:25--><!--z-index:26--><g   id="j_170"  transform="translate(20,2764)"><g id="v-1981"><text  id="v-1982" font-size="24px" xml:space="preserve" y="0.8em" font-weight="normal" text-anchor="start" fill="#444444" pointer-events="none" display="block" font-family="Tahoma, Verdana, Helvetica, Arial"><tspan dy="0" >martes, 7 de julio de 2026, 4:07 p. m. hora estándar de Perú</tspan></text></g></g><!--z-index:27--><g   id="j_169"  transform="translate(20,2730)"><g id="v-1979"><text  id="v-1980" font-size="24px" xml:space="preserve" y="0.8em" font-weight="normal" text-anchor="start" fill="#444444" pointer-events="none" display="block" font-family="Tahoma, Verdana, Helvetica, Arial"><tspan dy="0" >Software Architecture Component Diagram - REST API Platform</tspan></text></g></g><!--z-index:28--><g   id="j_168"  transform="translate(20,2684)"><g id="v-1977"><text  id="v-1978" font-size="36px" xml:space="preserve" y="0.8em" font-weight="normal" text-anchor="start" fill="#444444" pointer-events="none" display="block" font-family="Tahoma, Verdana, Helvetica, Arial"><tspan dy="0" >Component View: CortiSense System - REST API Application</tspan></text></g></g><!--z-index:29--><g   id="j_172"  transform="translate(200,143)" style="; opacity: 1;"><g id="v-2001"><rect  id="v-2002" width="3020" height="2408" rx="0" ry="0" stroke-width="2" pointer-events="none" stroke="#cc671f" fill="#ffffff" opacity="1" stroke-dasharray=""></rect><text  id="v-2003" font-size="33.599999999999994px" xml:space="preserve" y="2369" font-weight="bold" text-anchor="start" pointer-events="visible" font-family="Tahoma, Verdana, Helvetica, Arial" fill="#cc671f" transform="matrix(1,0,0,1,15,0)"><tspan dy="0" >CortiSense System</tspan></text><text  id="v-2004" font-size="16.799999999999997px" xml:space="preserve" y="2393" font-weight="normal" text-anchor="start" pointer-events="visible" font-family="Tahoma, Verdana, Helvetica, Arial" fill="#cc671f" transform="matrix(1,0,0,1,15,0)"><tspan dy="0" >[Software System]</tspan></text><image  id="v-2005" pointer-events="visible"></image></g></g><!--z-index:30--><g   id="j_171"  transform="translate(250,1118)" style=""><g  id="v-1989" style="opacity: 1;"><rect  id="v-1990" rx="10" ry="10" stroke-width="2" pointer-events="visiblePainted" fill="#0f5eaa" stroke="#0f5eaa" stroke-dasharray="" width="450" height="302" style="fill: rgb(15, 94, 170); stroke: rgb(15, 94, 170);"></rect><rect  id="v-1991" rx="10" ry="10" stroke-width="0" pointer-events="visiblePainted" fill="#1168bd" stroke="#0f5eaa" width="446" height="260" x="2" y="40" style="fill: rgb(17, 104, 189);"></rect><ellipse  id="v-1998" fill="#1168bd" cx="20" cy="20" rx="10" ry="10" style="fill: rgb(17, 104, 189);"></ellipse><ellipse  id="v-1999" fill="#1168bd" cx="50" cy="20" rx="10" ry="10" style="fill: rgb(17, 104, 189);"></ellipse><ellipse  id="v-2000" fill="#1168bd" cx="80" cy="20" rx="10" ry="10" style="fill: rgb(17, 104, 189);"></ellipse><rect  id="v-1992" rx="10" ry="10" stroke-width="0" pointer-events="visiblePainted" fill="#1168bd" width="340" height="20" x="100" y="10" style="fill: rgb(17, 104, 189);"></rect><text  id="v-1993" font-size="33.599999999999994px" xml:space="preserve" y="92.5" font-weight="bold" text-anchor="middle" pointer-events="visible" font-family="Tahoma, Verdana, Helvetica, Arial" fill="#ffffff" dominant-baseline="hanging" transform="matrix(1,0,0,1,225,0)" style="fill: rgb(255, 255, 255);"><tspan dy="0" >Web Application (SPA)</tspan></text><text  id="v-1994" font-size="16.799999999999997px" xml:space="preserve" y="134.1" text-anchor="middle" font-family="Tahoma, Verdana, Helvetica, Arial" fill="#ffffff" dominant-baseline="hanging" transform="matrix(1,0,0,1,225,0)" style="display: block; fill: rgb(255, 255, 255);"><tspan dy="0" >[Container: Vue 3 / Vite]</tspan></text><text  id="v-1995" font-size="24px" xml:space="preserve" y="165.89999999999998" text-anchor="middle" font-family="Tahoma, Verdana, Helvetica, Arial" fill="#ffffff" dominant-baseline="hanging" transform="matrix(1,0,0,1,225,0)" style="display: block; fill: rgb(255, 255, 255);"><tspan dy="0" >Interfaz gráfica principal para</tspan><tspan dy="1.2em" x="0" >Médicos, Supervisores y</tspan><tspan dy="1.2em" x="0" >Administradores.</tspan></text><g  id="v-1996" font-weight="normal" text-anchor="middle" color="#ffffff" transform="matrix(1,0,0,1,210,268)" display="none" style="fill: rgb(255, 255, 255);"><g  transform="translate(5 0)"><svg xmlns="http://www.w3.org/2000/svg" width="20" height="20" fill="currentColor" viewBox="0 0 16 16"><path fill-rule="evenodd" d="M6.5 12a5.5 5.5 0 1 0 0-11 5.5 5.5 0 0 0 0 11zM13 6.5a6.5 6.5 0 1 1-13 0 6.5 6.5 0 0 1 13 0z"></path><path d="M10.344 11.742c.03.04.062.078.098.115l3.85 3.85a1 1 0 0 0 1.415-1.414l-3.85-3.85a1.007 1.007 0 0 0-.115-.1 6.538 6.538 0 0 1-1.398 1.4z"></path><path fill-rule="evenodd" d="M6.5 3a.5.5 0 0 1 .5.5V6h2.5a.5.5 0 0 1 0 1H7v2.5a.5.5 0 0 1-1 0V7H3.5a.5.5 0 0 1 0-1H6V3.5a.5.5 0 0 1 .5-.5z"></path></svg></g><g ></g><g ></g><g ></g></g><image  id="v-1997"></image></g></g><!--z-index:31--><g   id="j_174"  transform="translate(1040,193)" style="; opacity: 1;"><g id="v-2019"><rect  id="v-2020" width="1340" height="2229" rx="20" ry="20" stroke-width="2" pointer-events="none" stroke="#27934d" fill="#ffffff" opacity="1" stroke-dasharray=""></rect><text  id="v-2021" font-size="33.599999999999994px" xml:space="preserve" y="2190" font-weight="bold" text-anchor="start" pointer-events="visible" font-family="Tahoma, Verdana, Helvetica, Arial" fill="#27934d" transform="matrix(1,0,0,1,15,0)"><tspan dy="0" >REST API Application</tspan></text><text  id="v-2022" font-size="16.799999999999997px" xml:space="preserve" y="2214" font-weight="normal" text-anchor="start" pointer-events="visible" font-family="Tahoma, Verdana, Helvetica, Arial" fill="#27934d" transform="matrix(1,0,0,1,15,0)"><tspan dy="0" >[Container]</tspan></text><image  id="v-2023" pointer-events="visible"></image></g></g><!--z-index:32--><g   id="j_181"  transform="translate(2720,1118)" style=""><g  id="v-2102" style="opacity: 1;"><path  d="M 0,30 a 225,30 0,0,0 450 0 a 225,30 0,0,0 -450 0 l 0,240 a 225,30 0,0,0 450 0 l 0,-240" id="v-2103" stroke-width="2" pointer-events="visiblePainted" fill="#e62b2b" stroke="#cf2727" stroke-dasharray="" style="fill: rgb(230, 43, 43); stroke: rgb(207, 39, 39);"></path><rect  id="v-2104" stroke-width="0" pointer-events="visiblePainted" fill="none" stroke="none" width="450" height="270" x="0" y="30"></rect><text  id="v-2105" font-size="33.599999999999994px" xml:space="preserve" y="101.9" font-weight="bold" text-anchor="middle" pointer-events="visible" font-family="Tahoma, Verdana, Helvetica, Arial" fill="#ffffff" dominant-baseline="hanging" transform="matrix(1,0,0,1,225,0)" style="fill: rgb(255, 255, 255);"><tspan dy="0" >Database</tspan></text><text  id="v-2106" font-size="16.799999999999997px" xml:space="preserve" y="143.5" text-anchor="middle" font-family="Tahoma, Verdana, Helvetica, Arial" fill="#ffffff" dominant-baseline="hanging" transform="matrix(1,0,0,1,225,0)" style="display: block; fill: rgb(255, 255, 255);"><tspan dy="0" >[Container: MySQL]</tspan></text><text  id="v-2107" font-size="24px" xml:space="preserve" y="175.3" text-anchor="middle" font-family="Tahoma, Verdana, Helvetica, Arial" fill="#ffffff" dominant-baseline="hanging" transform="matrix(1,0,0,1,225,0)" style="display: block; fill: rgb(255, 255, 255);"><tspan dy="0" >Almacena perfiles, métricas, turnos</tspan><tspan dy="1.2em" x="0" >y logs de auditoría.</tspan></text><g  id="v-2108" font-weight="normal" text-anchor="middle" color="#ffffff" transform="matrix(1,0,0,1,222.5,268)" display="none" style="fill: rgb(255, 255, 255);"><g ></g><g ></g><g ></g><g ></g></g><image  id="v-2109"></image></g></g><!--z-index:33--><g   id="j_173"  transform="translate(1090,243)" style=""><g  id="v-2012" style="opacity: 1;"><rect  id="v-2013" rx="1" ry="1" stroke-width="2" pointer-events="visiblePainted" fill="#85bbf0" stroke="#78a8d8" stroke-dasharray="" width="450" height="300" style="fill: rgb(133, 187, 240); stroke: rgb(120, 168, 216);"></rect><text  id="v-2014" font-size="33.599999999999994px" xml:space="preserve" y="101.30000000000001" font-weight="bold" text-anchor="middle" pointer-events="visible" font-family="Tahoma, Verdana, Helvetica, Arial" fill="#000000" dominant-baseline="hanging" transform="matrix(1,0,0,1,225,0)" style="fill: rgb(0, 0, 0);"><tspan dy="0" >Iam Bounded Context</tspan></text><text  id="v-2015" font-size="16.799999999999997px" xml:space="preserve" y="142.9" text-anchor="middle" font-family="Tahoma, Verdana, Helvetica, Arial" fill="#000000" dominant-baseline="hanging" transform="matrix(1,0,0,1,225,0)" style="display: block; fill: rgb(0, 0, 0);"><tspan dy="0" >[Component: .NET]</tspan></text><text  id="v-2016" font-size="24px" xml:space="preserve" y="174.7" text-anchor="middle" font-family="Tahoma, Verdana, Helvetica, Arial" fill="#000000" dominant-baseline="hanging" transform="matrix(1,0,0,1,225,0)" style="display: block; fill: rgb(0, 0, 0);"><tspan dy="0" >Gestión de identidad, JWT y perfiles.</tspan></text><g  id="v-2017" color="#000000" transform="matrix(1,0,0,1,222.5,268)" display="none" style="fill: rgb(0, 0, 0);"><g ></g><g ></g><g ></g><g ></g></g><image  id="v-2018"></image></g></g><!--z-index:34--><g   id="j_175"  transform="translate(1090,593)" style=""><g  id="v-2030" style="opacity: 1;"><rect  id="v-2031" rx="1" ry="1" stroke-width="2" pointer-events="visiblePainted" fill="#85bbf0" stroke="#78a8d8" stroke-dasharray="" width="450" height="300" style="fill: rgb(133, 187, 240); stroke: rgb(120, 168, 216);"></rect><text  id="v-2032" font-size="33.599999999999994px" xml:space="preserve" y="81.14000000000001" font-weight="bold" text-anchor="middle" pointer-events="visible" font-family="Tahoma, Verdana, Helvetica, Arial" fill="#000000" dominant-baseline="hanging" transform="matrix(1,0,0,1,225,0)" style="fill: rgb(0, 0, 0);"><tspan dy="0" >Subscription Bounded</tspan><tspan dy="1.2em" x="0" >Context</tspan></text><text  id="v-2033" font-size="16.799999999999997px" xml:space="preserve" y="163.06" text-anchor="middle" font-family="Tahoma, Verdana, Helvetica, Arial" fill="#000000" dominant-baseline="hanging" transform="matrix(1,0,0,1,225,0)" style="display: block; fill: rgb(0, 0, 0);"><tspan dy="0" >[Component: .NET]</tspan></text><text  id="v-2034" font-size="24px" xml:space="preserve" y="194.86" text-anchor="middle" font-family="Tahoma, Verdana, Helvetica, Arial" fill="#000000" dominant-baseline="hanging" transform="matrix(1,0,0,1,225,0)" style="display: block; fill: rgb(0, 0, 0);"><tspan dy="0" >Valida estado de pago y límites.</tspan></text><g  id="v-2035" color="#000000" transform="matrix(1,0,0,1,222.5,268)" display="none" style="fill: rgb(0, 0, 0);"><g ></g><g ></g><g ></g><g ></g></g><image  id="v-2036"></image></g></g><!--z-index:35--><g   id="j_176"  transform="translate(1090,943)" style=""><g  id="v-2043" style="opacity: 1;"><rect  id="v-2044" rx="1" ry="1" stroke-width="2" pointer-events="visiblePainted" fill="#85bbf0" stroke="#78a8d8" stroke-dasharray="" width="450" height="300" style="fill: rgb(133, 187, 240); stroke: rgb(120, 168, 216);"></rect><text  id="v-2045" font-size="33.599999999999994px" xml:space="preserve" y="101.30000000000001" font-weight="bold" text-anchor="middle" pointer-events="visible" font-family="Tahoma, Verdana, Helvetica, Arial" fill="#000000" dominant-baseline="hanging" transform="matrix(1,0,0,1,225,0)" style="fill: rgb(0, 0, 0);"><tspan dy="0" >Clinical Risk Context</tspan></text><text  id="v-2046" font-size="16.799999999999997px" xml:space="preserve" y="142.9" text-anchor="middle" font-family="Tahoma, Verdana, Helvetica, Arial" fill="#000000" dominant-baseline="hanging" transform="matrix(1,0,0,1,225,0)" style="display: block; fill: rgb(0, 0, 0);"><tspan dy="0" >[Component: .NET]</tspan></text><text  id="v-2047" font-size="24px" xml:space="preserve" y="174.7" text-anchor="middle" font-family="Tahoma, Verdana, Helvetica, Arial" fill="#000000" dominant-baseline="hanging" transform="matrix(1,0,0,1,225,0)" style="display: block; fill: rgb(0, 0, 0);"><tspan dy="0" >Procesa telemetría y dispara Alertas.</tspan></text><g  id="v-2048" color="#000000" transform="matrix(1,0,0,1,222.5,268)" display="none" style="fill: rgb(0, 0, 0);"><g ></g><g ></g><g ></g><g ></g></g><image  id="v-2049"></image></g></g><!--z-index:36--><g   id="j_177"  transform="translate(1090,1293)" style=""><g  id="v-2056" style="opacity: 1;"><rect  id="v-2057" rx="1" ry="1" stroke-width="2" pointer-events="visiblePainted" fill="#85bbf0" stroke="#78a8d8" stroke-dasharray="" width="450" height="300" style="fill: rgb(133, 187, 240); stroke: rgb(120, 168, 216);"></rect><text  id="v-2058" font-size="33.599999999999994px" xml:space="preserve" y="101.30000000000001" font-weight="bold" text-anchor="middle" pointer-events="visible" font-family="Tahoma, Verdana, Helvetica, Arial" fill="#000000" dominant-baseline="hanging" transform="matrix(1,0,0,1,225,0)" style="fill: rgb(0, 0, 0);"><tspan dy="0" >Shift Coordination Context</tspan></text><text  id="v-2059" font-size="16.799999999999997px" xml:space="preserve" y="142.9" text-anchor="middle" font-family="Tahoma, Verdana, Helvetica, Arial" fill="#000000" dominant-baseline="hanging" transform="matrix(1,0,0,1,225,0)" style="display: block; fill: rgb(0, 0, 0);"><tspan dy="0" >[Component: .NET]</tspan></text><text  id="v-2060" font-size="24px" xml:space="preserve" y="174.7" text-anchor="middle" font-family="Tahoma, Verdana, Helvetica, Arial" fill="#000000" dominant-baseline="hanging" transform="matrix(1,0,0,1,225,0)" style="display: block; fill: rgb(0, 0, 0);"><tspan dy="0" >Evalúa riesgos en turnos.</tspan></text><g  id="v-2061" color="#000000" transform="matrix(1,0,0,1,222.5,268)" display="none" style="fill: rgb(0, 0, 0);"><g ></g><g ></g><g ></g><g ></g></g><image  id="v-2062"></image></g></g><!--z-index:37--><g   id="j_178"  transform="translate(1090,1643)" style=""><g  id="v-2069" style="opacity: 1;"><rect  id="v-2070" rx="1" ry="1" stroke-width="2" pointer-events="visiblePainted" fill="#85bbf0" stroke="#78a8d8" stroke-dasharray="" width="450" height="300" style="fill: rgb(133, 187, 240); stroke: rgb(120, 168, 216);"></rect><text  id="v-2071" font-size="33.599999999999994px" xml:space="preserve" y="101.30000000000001" font-weight="bold" text-anchor="middle" pointer-events="visible" font-family="Tahoma, Verdana, Helvetica, Arial" fill="#000000" dominant-baseline="hanging" transform="matrix(1,0,0,1,225,0)" style="fill: rgb(0, 0, 0);"><tspan dy="0" >Staff Recovery Context</tspan></text><text  id="v-2072" font-size="16.799999999999997px" xml:space="preserve" y="142.9" text-anchor="middle" font-family="Tahoma, Verdana, Helvetica, Arial" fill="#000000" dominant-baseline="hanging" transform="matrix(1,0,0,1,225,0)" style="display: block; fill: rgb(0, 0, 0);"><tspan dy="0" >[Component: .NET]</tspan></text><text  id="v-2073" font-size="24px" xml:space="preserve" y="174.7" text-anchor="middle" font-family="Tahoma, Verdana, Helvetica, Arial" fill="#000000" dominant-baseline="hanging" transform="matrix(1,0,0,1,225,0)" style="display: block; fill: rgb(0, 0, 0);"><tspan dy="0" >Ciclo de vida del plan de descanso.</tspan></text><g  id="v-2074" color="#000000" transform="matrix(1,0,0,1,222.5,268)" display="none" style="fill: rgb(0, 0, 0);"><g ></g><g ></g><g ></g><g ></g></g><image  id="v-2075"></image></g></g><!--z-index:38--><g   id="j_179"  transform="translate(1090,1993)" style=""><g  id="v-2082" style="opacity: 1;"><rect  id="v-2083" rx="1" ry="1" stroke-width="2" pointer-events="visiblePainted" fill="#85bbf0" stroke="#78a8d8" stroke-dasharray="" width="450" height="300" style="fill: rgb(133, 187, 240); stroke: rgb(120, 168, 216);"></rect><text  id="v-2084" font-size="33.599999999999994px" xml:space="preserve" y="101.30000000000001" font-weight="bold" text-anchor="middle" pointer-events="visible" font-family="Tahoma, Verdana, Helvetica, Arial" fill="#000000" dominant-baseline="hanging" transform="matrix(1,0,0,1,225,0)" style="fill: rgb(0, 0, 0);"><tspan dy="0" >Audit Compliance Context</tspan></text><text  id="v-2085" font-size="16.799999999999997px" xml:space="preserve" y="142.9" text-anchor="middle" font-family="Tahoma, Verdana, Helvetica, Arial" fill="#000000" dominant-baseline="hanging" transform="matrix(1,0,0,1,225,0)" style="display: block; fill: rgb(0, 0, 0);"><tspan dy="0" >[Component: .NET]</tspan></text><text  id="v-2086" font-size="24px" xml:space="preserve" y="174.7" text-anchor="middle" font-family="Tahoma, Verdana, Helvetica, Arial" fill="#000000" dominant-baseline="hanging" transform="matrix(1,0,0,1,225,0)" style="display: block; fill: rgb(0, 0, 0);"><tspan dy="0" >Traza decisiones críticas.</tspan></text><g  id="v-2087" color="#000000" transform="matrix(1,0,0,1,222.5,268)" display="none" style="fill: rgb(0, 0, 0);"><g ></g><g ></g><g ></g><g ></g></g><image  id="v-2088"></image></g></g><!--z-index:39--><g   id="j_180"  transform="translate(1880,1118)" style=""><g  id="v-2092" style="opacity: 1;"><rect  id="v-2093" rx="1" ry="1" stroke-width="2" pointer-events="visiblePainted" fill="#85bbf0" stroke="#78a8d8" stroke-dasharray="" width="450" height="300" style="fill: rgb(133, 187, 240); stroke: rgb(120, 168, 216);"></rect><text  id="v-2094" font-size="33.599999999999994px" xml:space="preserve" y="101.30000000000001" font-weight="bold" text-anchor="middle" pointer-events="visible" font-family="Tahoma, Verdana, Helvetica, Arial" fill="#000000" dominant-baseline="hanging" transform="matrix(1,0,0,1,225,0)" style="fill: rgb(0, 0, 0);"><tspan dy="0" >AppDbContext (Shared)</tspan></text><text  id="v-2095" font-size="16.799999999999997px" xml:space="preserve" y="142.9" text-anchor="middle" font-family="Tahoma, Verdana, Helvetica, Arial" fill="#000000" dominant-baseline="hanging" transform="matrix(1,0,0,1,225,0)" style="display: block; fill: rgb(0, 0, 0);"><tspan dy="0" >[Component: .NET]</tspan></text><text  id="v-2096" font-size="24px" xml:space="preserve" y="174.7" text-anchor="middle" font-family="Tahoma, Verdana, Helvetica, Arial" fill="#000000" dominant-baseline="hanging" transform="matrix(1,0,0,1,225,0)" style="display: block; fill: rgb(0, 0, 0);"><tspan dy="0" >Capa de mapeo ORM.</tspan></text><g  id="v-2097" color="#000000" transform="matrix(1,0,0,1,222.5,268)" display="none" style="fill: rgb(0, 0, 0);"><g ></g><g ></g><g ></g><g ></g></g><image  id="v-2098"></image></g></g><!--z-index:40--><g   id="j_182"  style="opacity: 1;"><path fill="none" cursor="pointer" stroke="transparent" stroke-linecap="round" joint-selector="wrapper" id="v-2121" stroke-width="10" stroke-linejoin="round" d="M 1540 393 L 1700 393 C 1706.6666666666665 393 1711.3333333333333 396 1714 402 L 2037.29 1118"></path><path fill="none" pointer-events="none" joint-selector="line" id="v-2120" stroke="#444444" stroke-width="2" stroke-linejoin="round" stroke-dasharray="8 8" d="M 1540 393 L 1700 393 C 1706.6666666666665 393 1711.3333333333333 396 1714 402 L 2037.29 1118" marker-end="url(#v-21252848929)"></path><g id="v-2113" ><g id="v-2114"  label-idx="0" cursor="move" transform="matrix(1,0,0,1,1709.0904541015625,395.6533203125)" style="cursor: default;"><rect joint-selector="rect" id="v-2117" fill="#ffffff" rx="3" ry="3" x="-82.59565734863281" y="-15.627175331115723" width="165.21121215820312" height="29.349225997924805" pointer-events="none"  style="display: block;"></rect><text joint-selector="text" id="v-2116" font-size="24px" xml:space="preserve" fill="#444444" text-anchor="middle" pointer-events="none" font-family="Tahoma, Verdana, Helvetica, Arial" font-weight="normal"  style="display: block;"><tspan dy="0.3em" >Persiste usando</tspan></text></g><g id="v-2115"  label-idx="1" cursor="move" transform="matrix(1,0,0,1,1699.0904541015625,407.6533203125)" style="cursor: default;"><rect joint-selector="rect" id="v-2119" fill="#ffffff" rx="3" ry="3" x="0" y="0" width="0" height="0"  display="none"></rect><text joint-selector="text" id="v-2118" fill="#000000" font-size="14" text-anchor="middle" text-vertical-anchor="middle" pointer-events="none"></text></g></g></g><!--z-index:41--><g   id="j_183"  style="opacity: 1;"><path fill="none" cursor="pointer" stroke="transparent" stroke-linecap="round" joint-selector="wrapper" id="v-2133" stroke-width="10" stroke-linejoin="round" d="M 1540 743 L 1700 743 C 1706.6666666666665 743 1712 745.6666666666666 1716 751 L 1992.14 1118"></path><path fill="none" pointer-events="none" joint-selector="line" id="v-2132" stroke="#444444" stroke-width="2" stroke-linejoin="round" stroke-dasharray="8 8" d="M 1540 743 L 1700 743 C 1706.6666666666665 743 1712 745.6666666666666 1716 751 L 1992.14 1118" marker-end="url(#v-21252848929)"></path><g id="v-2125" ><g id="v-2126"  label-idx="0" cursor="move" transform="matrix(1,0,0,1,1709.280029296875,745.14306640625)" style="cursor: default;"><rect joint-selector="rect" id="v-2129" fill="#ffffff" rx="3" ry="3" x="-82.59565734863281" y="-15.627175331115723" width="165.21121215820312" height="29.349225997924805" pointer-events="none"  style="display: block;"></rect><text joint-selector="text" id="v-2128" font-size="24px" xml:space="preserve" fill="#444444" text-anchor="middle" pointer-events="none" font-family="Tahoma, Verdana, Helvetica, Arial" font-weight="normal"  style="display: block;"><tspan dy="0.3em" >Persiste usando</tspan></text></g><g id="v-2127"  label-idx="1" cursor="move" transform="matrix(1,0,0,1,1699.280029296875,757.14306640625)" style="cursor: default;"><rect joint-selector="rect" id="v-2131" fill="#ffffff" rx="3" ry="3" x="0" y="1.1368683772161603e-13" width="0" height="0"  display="none"></rect><text joint-selector="text" id="v-2130" fill="#000000" font-size="14" text-anchor="middle" text-vertical-anchor="middle" pointer-events="none"></text></g></g></g><!--z-index:42--><g   id="j_184"  style="opacity: 1;"><path fill="none" cursor="pointer" stroke="transparent" stroke-linecap="round" joint-selector="wrapper" id="v-2145" stroke-width="10" stroke-linejoin="round" d="M 1540 1093 L 1700 1093 C 1706.6666666666665 1093 1713 1094.3333333333333 1719 1097 L 1880 1168.32"></path><path fill="none" pointer-events="none" joint-selector="line" id="v-2144" stroke="#444444" stroke-width="2" stroke-linejoin="round" stroke-dasharray="8 8" d="M 1540 1093 L 1700 1093 C 1706.6666666666665 1093 1713 1094.3333333333333 1719 1097 L 1880 1168.32" marker-end="url(#v-21252848929)"></path><g id="v-2137" ><g id="v-2138"  label-idx="0" cursor="move" transform="matrix(1,0,0,1,1709.787109375,1094.0078125)" style="cursor: default;"><rect joint-selector="rect" id="v-2141" fill="#ffffff" rx="3" ry="3" x="-82.59565734863281" y="-15.627175331115723" width="165.21121215820312" height="29.349225997924805" pointer-events="none"  style="display: block;"></rect><text joint-selector="text" id="v-2140" font-size="24px" xml:space="preserve" fill="#444444" text-anchor="middle" pointer-events="none" font-family="Tahoma, Verdana, Helvetica, Arial" font-weight="normal"  style="display: block;"><tspan dy="0.3em" >Persiste usando</tspan></text></g><g id="v-2139"  label-idx="1" cursor="move" transform="matrix(1,0,0,1,1699.787109375,1106.0078125)" style="cursor: default;"><rect joint-selector="rect" id="v-2143" fill="#ffffff" rx="3" ry="3" x="0" y="-2.2737367544323206e-13" width="0" height="0"  display="none"></rect><text joint-selector="text" id="v-2142" fill="#000000" font-size="14" text-anchor="middle" text-vertical-anchor="middle" pointer-events="none"></text></g></g></g><!--z-index:43--><g   id="j_185"  style="opacity: 1;"><path fill="none" cursor="pointer" stroke="transparent" stroke-linecap="round" joint-selector="wrapper" id="v-2157" stroke-width="10" stroke-linejoin="round" d="M 1542.33 1443 L 1700 1443 C 1706.6666666666665 1443 1713 1441.6666666666665 1719 1439 L 1880 1367.68"></path><path fill="none" pointer-events="none" joint-selector="line" id="v-2156" stroke="#444444" stroke-width="2" stroke-linejoin="round" stroke-dasharray="8 8" d="M 1542.33 1443 L 1700 1443 C 1706.6666666666665 1443 1713 1441.6666666666665 1719 1439 L 1880 1367.68" marker-end="url(#v-21252848929)"></path><g id="v-2149" ><g id="v-2150"  label-idx="0" cursor="move" transform="matrix(1,0,0,1,1710.970458984375,1441.7255859375)" style="cursor: default;"><rect joint-selector="rect" id="v-2153" fill="#ffffff" rx="3" ry="3" x="-82.59565734863281" y="-15.627175331115723" width="165.21121215820312" height="29.349225997924805" pointer-events="none"  style="display: block;"></rect><text joint-selector="text" id="v-2152" font-size="24px" xml:space="preserve" fill="#444444" text-anchor="middle" pointer-events="none" font-family="Tahoma, Verdana, Helvetica, Arial" font-weight="normal"  style="display: block;"><tspan dy="0.3em" >Persiste usando</tspan></text></g><g id="v-2151"  label-idx="1" cursor="move" transform="matrix(1,0,0,1,1700.970458984375,1453.7255859375)" style="cursor: default;"><rect joint-selector="rect" id="v-2155" fill="#ffffff" rx="3" ry="3" x="0" y="0" width="0" height="0"  display="none"></rect><text joint-selector="text" id="v-2154" fill="#000000" font-size="14" text-anchor="middle" text-vertical-anchor="middle" pointer-events="none"></text></g></g></g><!--z-index:44--><g   id="j_186"  style="opacity: 1;"><path fill="none" cursor="pointer" stroke="transparent" stroke-linecap="round" joint-selector="wrapper" id="v-2169" stroke-width="10" stroke-linejoin="round" d="M 1540 1793 L 1700 1793 C 1706.6666666666665 1793 1712 1790.3333333333333 1716 1785 L 1992.14 1418"></path><path fill="none" pointer-events="none" joint-selector="line" id="v-2168" stroke="#444444" stroke-width="2" stroke-linejoin="round" stroke-dasharray="8 8" d="M 1540 1793 L 1700 1793 C 1706.6666666666665 1793 1712 1790.3333333333333 1716 1785 L 1992.14 1418" marker-end="url(#v-21252848929)"></path><g id="v-2161" ><g id="v-2162"  label-idx="0" cursor="move" transform="matrix(1,0,0,1,1709.280029296875,1790.85693359375)" style="cursor: default;"><rect joint-selector="rect" id="v-2165" fill="#ffffff" rx="3" ry="3" x="-82.59565734863281" y="-15.627175331115723" width="165.21121215820312" height="29.349225997924805" pointer-events="none"  style="display: block;"></rect><text joint-selector="text" id="v-2164" font-size="24px" xml:space="preserve" fill="#444444" text-anchor="middle" pointer-events="none" font-family="Tahoma, Verdana, Helvetica, Arial" font-weight="normal"  style="display: block;"><tspan dy="0.3em" >Persiste usando</tspan></text></g><g id="v-2163"  label-idx="1" cursor="move" transform="matrix(1,0,0,1,1699.280029296875,1802.85693359375)" style="cursor: default;"><rect joint-selector="rect" id="v-2167" fill="#ffffff" rx="3" ry="3" x="0" y="0" width="0" height="0"  display="none"></rect><text joint-selector="text" id="v-2166" fill="#000000" font-size="14" text-anchor="middle" text-vertical-anchor="middle" pointer-events="none"></text></g></g></g><!--z-index:45--><g   id="j_187"  style="opacity: 1;"><path fill="none" cursor="pointer" stroke="transparent" stroke-linecap="round" joint-selector="wrapper" id="v-2181" stroke-width="10" stroke-linejoin="round" d="M 1540 2143 L 1700 2143 C 1706.6666666666665 2143 1711.3333333333333 2140 1714 2134 L 2037.29 1418"></path><path fill="none" pointer-events="none" joint-selector="line" id="v-2180" stroke="#444444" stroke-width="2" stroke-linejoin="round" stroke-dasharray="8 8" d="M 1540 2143 L 1700 2143 C 1706.6666666666665 2143 1711.3333333333333 2140 1714 2134 L 2037.29 1418" marker-end="url(#v-21252848929)"></path><g id="v-2173" ><g id="v-2174"  label-idx="0" cursor="move" transform="matrix(1,0,0,1,1709.0904541015625,2140.3466796875)" style="cursor: default;"><rect joint-selector="rect" id="v-2177" fill="#ffffff" rx="3" ry="3" x="-82.59565734863281" y="-15.627175331115723" width="165.21121215820312" height="29.349225997924805" pointer-events="none"  style="display: block;"></rect><text joint-selector="text" id="v-2176" font-size="24px" xml:space="preserve" fill="#444444" text-anchor="middle" pointer-events="none" font-family="Tahoma, Verdana, Helvetica, Arial" font-weight="normal"  style="display: block;"><tspan dy="0.3em" >Persiste usando</tspan></text></g><g id="v-2175"  label-idx="1" cursor="move" transform="matrix(1,0,0,1,1699.0904541015625,2152.3466796875)" style="cursor: default;"><rect joint-selector="rect" id="v-2179" fill="#ffffff" rx="3" ry="3" x="0" y="2.2737367544323206e-13" width="0" height="0"  display="none"></rect><text joint-selector="text" id="v-2178" fill="#000000" font-size="14" text-anchor="middle" text-vertical-anchor="middle" pointer-events="none"></text></g></g></g><!--z-index:46--><g   id="j_188"  style="opacity: 1;"><path fill="none" cursor="pointer" stroke="transparent" stroke-linecap="round" joint-selector="wrapper" id="v-2196" stroke-width="10" stroke-linejoin="round" d="M 2330 1268 L 2720 1268"></path><path fill="none" pointer-events="none" joint-selector="line" id="v-2195" stroke="#444444" stroke-width="2" stroke-linejoin="round" stroke-dasharray="8 8" d="M 2330 1268 L 2720 1268" marker-end="url(#v-21252848929)"></path><g id="v-2185" ><g id="v-2186"  label-idx="0" cursor="move" transform="matrix(1,0,0,1,2550,1254.5999755859375)" style="cursor: default;"><rect joint-selector="rect" id="v-2190" fill="#ffffff" rx="3" ry="3" x="-85.95858764648438" y="-15.627175331115723" width="171.91717529296875" height="29.349225997924805" pointer-events="none"  style="display: block;"></rect><text joint-selector="text" id="v-2189" font-size="24px" xml:space="preserve" fill="#444444" text-anchor="middle" pointer-events="none" font-family="Tahoma, Verdana, Helvetica, Arial" font-weight="normal"  style="display: block;"><tspan dy="0.3em" >Lee y escribe en</tspan></text></g><g id="v-2187"  label-idx="1" cursor="move" transform="matrix(1,0,0,1,2550,1285)" style="cursor: default;"><rect joint-selector="rect" id="v-2192" fill="#ffffff" rx="3" ry="3" x="-31.922378540039062" y="-11.26512622833252" width="63.891483306884766" height="19.566150665283203"  pointer-events="none" style="display: block;"></rect><text joint-selector="text" id="v-2191" font-size="16.799999999999997px" xml:space="preserve" fill="#444444" text-anchor="middle" pointer-events="none" font-family="Tahoma, Verdana, Helvetica, Arial" font-weight="normal"  style="display: block;"><tspan dy="0.3em" >[TCP/IP]</tspan></text></g><g id="v-2188"  label-idx="2" cursor="move" transform="matrix(1,0,0,1,2515,1293.4000244140625)" style="cursor: default;"><rect joint-selector="rect" id="v-2194" fill="#ffffff" rx="3" ry="3" x="0" y="0" width="0" height="0"  display="none"></rect><text joint-selector="text" id="v-2193" fill="#000000" font-size="14" text-anchor="middle" text-vertical-anchor="middle" pointer-events="none"></text></g></g></g><!--z-index:47--><g   id="j_189"  style="opacity: 1;"><path fill="none" cursor="pointer" stroke="transparent" stroke-linecap="round" joint-selector="wrapper" id="v-2211" stroke-width="10" stroke-linejoin="round" d="M 543.09 1118 L 866 402 C 868.6666666666666 396 873.3333333333333 393 880 393 L 1090 393"></path><path fill="none" pointer-events="none" joint-selector="line" id="v-2210" stroke="#444444" stroke-width="2" stroke-linejoin="round" stroke-dasharray="8 8" d="M 543.09 1118 L 866 402 C 868.6666666666666 396 873.3333333333333 393 880 393 L 1090 393" marker-end="url(#v-21252848929)"></path><g id="v-2200" ><g id="v-2201"  label-idx="0" cursor="move" transform="matrix(1,0,0,1,871.0152587890625,382.1775207519531)" style="cursor: default;"><rect joint-selector="rect" id="v-2205" fill="#ffffff" rx="3" ry="3" x="-86.62097930908203" y="-30.027177810668945" width="175.58050537109375" height="58.149227142333984" pointer-events="none"  style="display: block;"></rect><text joint-selector="text" id="v-2204" font-size="24px" xml:space="preserve" fill="#444444" text-anchor="middle" pointer-events="none" font-family="Tahoma, Verdana, Helvetica, Arial" font-weight="normal"  style="display: block;"><tspan dy="-0.3em" >Llama endpoints</tspan><tspan dy="1.2em" x="0" >de IAM</tspan></text></g><g id="v-2202"  label-idx="1" cursor="move" transform="matrix(1,0,0,1,871.0152587890625,426.9775390625)" style="cursor: default;"><rect joint-selector="rect" id="v-2207" fill="#ffffff" rx="3" ry="3" x="-53.75596237182617" y="-11.26512622833252" width="107.5662612915039" height="19.566150665283203"  pointer-events="none" style="display: block;"></rect><text joint-selector="text" id="v-2206" font-size="16.799999999999997px" xml:space="preserve" fill="#444444" text-anchor="middle" pointer-events="none" font-family="Tahoma, Verdana, Helvetica, Arial" font-weight="normal"  style="display: block;"><tspan dy="0.3em" >[JSON/HTTPS]</tspan></text></g><g id="v-2203"  label-idx="2" cursor="move" transform="matrix(1,0,0,1,741.3600463867188,695.9953002929688)" style="cursor: default;"><rect joint-selector="rect" id="v-2209" fill="#ffffff" rx="3" ry="3" x="0" y="0" width="0" height="0"  display="none"></rect><text joint-selector="text" id="v-2208" fill="#000000" font-size="14" text-anchor="middle" text-vertical-anchor="middle" pointer-events="none"></text></g></g></g><!--z-index:48--><g   id="j_190"  style="opacity: 1;"><path fill="none" cursor="pointer" stroke="transparent" stroke-linecap="round" joint-selector="wrapper" id="v-2226" stroke-width="10" stroke-linejoin="round" d="M 588.39 1118 L 864 751 C 868 745.6666666666666 873.3333333333333 743 880 743 L 1090 743"></path><path fill="none" pointer-events="none" joint-selector="line" id="v-2225" stroke="#444444" stroke-width="2" stroke-linejoin="round" stroke-dasharray="8 8" d="M 588.39 1118 L 864 751 C 868 745.6666666666666 873.3333333333333 743 880 743 L 1090 743" marker-end="url(#v-21252848929)"></path><g id="v-2215" ><g id="v-2216"  label-idx="0" cursor="move" transform="matrix(1,0,0,1,870.875244140625,731.6629638671875)" style="cursor: default;"><rect joint-selector="rect" id="v-2220" fill="#ffffff" rx="3" ry="3" x="-86.62097930908203" y="-30.027177810668945" width="175.58050537109375" height="58.149227142333984" pointer-events="none"  style="display: block;"></rect><text joint-selector="text" id="v-2219" font-size="24px" xml:space="preserve" fill="#444444" text-anchor="middle" pointer-events="none" font-family="Tahoma, Verdana, Helvetica, Arial" font-weight="normal"  style="display: block;"><tspan dy="-0.3em" >Llama endpoints</tspan><tspan dy="1.2em" x="0" >de Subscription</tspan></text></g><g id="v-2217"  label-idx="1" cursor="move" transform="matrix(1,0,0,1,870.875244140625,776.4630126953125)" style="cursor: default;"><rect joint-selector="rect" id="v-2222" fill="#ffffff" rx="3" ry="3" x="-53.75596237182617" y="-11.26512622833252" width="107.5662612915039" height="19.566150665283203"  pointer-events="none" style="display: block;"></rect><text joint-selector="text" id="v-2221" font-size="16.799999999999997px" xml:space="preserve" fill="#444444" text-anchor="middle" pointer-events="none" font-family="Tahoma, Verdana, Helvetica, Arial" font-weight="normal"  style="display: block;"><tspan dy="0.3em" >[JSON/HTTPS]</tspan></text></g><g id="v-2218"  label-idx="2" cursor="move" transform="matrix(1,0,0,1,784.8340454101562,882.9008178710938)" style="cursor: default;"><rect joint-selector="rect" id="v-2224" fill="#ffffff" rx="3" ry="3" x="0" y="0" width="0" height="0"  display="none"></rect><text joint-selector="text" id="v-2223" fill="#000000" font-size="14" text-anchor="middle" text-vertical-anchor="middle" pointer-events="none"></text></g></g></g><!--z-index:49--><g   id="j_191"  style="opacity: 1;"><path fill="none" cursor="pointer" stroke="transparent" stroke-linecap="round" joint-selector="wrapper" id="v-2241" stroke-width="10" stroke-linejoin="round" d="M 700 1168.75 L 861 1097 C 867 1094.3333333333333 873.3333333333333 1093 880 1093 L 1090 1093"></path><path fill="none" pointer-events="none" joint-selector="line" id="v-2240" stroke="#444444" stroke-width="2" stroke-linejoin="round" stroke-dasharray="8 8" d="M 700 1168.75 L 861 1097 C 867 1094.3333333333333 873.3333333333333 1093 880 1093 L 1090 1093" marker-end="url(#v-21252848929)"></path><g id="v-2230" ><g id="v-2231"  label-idx="0" cursor="move" transform="matrix(1,0,0,1,870.1387329101562,1080.62353515625)" style="cursor: default;"><rect joint-selector="rect" id="v-2235" fill="#ffffff" rx="3" ry="3" x="-86.62097930908203" y="-30.027177810668945" width="175.58050537109375" height="58.149227142333984" pointer-events="none"  style="display: block;"></rect><text joint-selector="text" id="v-2234" font-size="24px" xml:space="preserve" fill="#444444" text-anchor="middle" pointer-events="none" font-family="Tahoma, Verdana, Helvetica, Arial" font-weight="normal"  style="display: block;"><tspan dy="-0.3em" >Llama endpoints</tspan><tspan dy="1.2em" x="0" >de Risk</tspan></text></g><g id="v-2232"  label-idx="1" cursor="move" transform="matrix(1,0,0,1,870.1387329101562,1125.423583984375)" style="cursor: default;"><rect joint-selector="rect" id="v-2237" fill="#ffffff" rx="3" ry="3" x="-53.75596237182617" y="-11.26512622833252" width="107.5662612915039" height="19.566150665283203"  pointer-events="none" style="display: block;"></rect><text joint-selector="text" id="v-2236" font-size="16.799999999999997px" xml:space="preserve" fill="#444444" text-anchor="middle" pointer-events="none" font-family="Tahoma, Verdana, Helvetica, Arial" font-weight="normal"  style="display: block;"><tspan dy="0.3em" >[JSON/HTTPS]</tspan></text></g><g id="v-2233"  label-idx="2" cursor="move" transform="matrix(1,0,0,1,877.08837890625,1132.800048828125)" style="cursor: default;"><rect joint-selector="rect" id="v-2239" fill="#ffffff" rx="3" ry="3" x="1.1368683772161603e-13" y="0" width="0" height="0"  display="none"></rect><text joint-selector="text" id="v-2238" fill="#000000" font-size="14" text-anchor="middle" text-vertical-anchor="middle" pointer-events="none"></text></g></g></g><!--z-index:50--><g   id="j_192"  style="opacity: 1;"><path fill="none" cursor="pointer" stroke="transparent" stroke-linecap="round" joint-selector="wrapper" id="v-2256" stroke-width="10" stroke-linejoin="round" d="M 700 1368.11 L 861 1439 C 867 1441.6666666666665 873.3333333333333 1443 880 1443 L 1089.99 1443"></path><path fill="none" pointer-events="none" joint-selector="line" id="v-2255" stroke="#444444" stroke-width="2" stroke-linejoin="round" stroke-dasharray="8 8" d="M 700 1368.11 L 861 1439 C 867 1441.6666666666665 873.3333333333333 1443 880 1443 L 1089.99 1443" marker-end="url(#v-21252848929)"></path><g id="v-2245" ><g id="v-2246"  label-idx="0" cursor="move" transform="matrix(1,0,0,1,870.32421875,1428.6156005859375)" style="cursor: default;"><rect joint-selector="rect" id="v-2250" fill="#ffffff" rx="3" ry="3" x="-86.62097930908203" y="-30.027177810668945" width="175.58050537109375" height="58.149227142333984" pointer-events="none"  style="display: block;"></rect><text joint-selector="text" id="v-2249" font-size="24px" xml:space="preserve" fill="#444444" text-anchor="middle" pointer-events="none" font-family="Tahoma, Verdana, Helvetica, Arial" font-weight="normal"  style="display: block;"><tspan dy="-0.3em" >Llama endpoints</tspan><tspan dy="1.2em" x="0" >de Shifts</tspan></text></g><g id="v-2247"  label-idx="1" cursor="move" transform="matrix(1,0,0,1,870.32421875,1473.41552734375)" style="cursor: default;"><rect joint-selector="rect" id="v-2252" fill="#ffffff" rx="3" ry="3" x="-53.75596237182617" y="-11.26512622833252" width="107.5662612915039" height="19.566150665283203"  pointer-events="none" style="display: block;"></rect><text joint-selector="text" id="v-2251" font-size="16.799999999999997px" xml:space="preserve" fill="#444444" text-anchor="middle" pointer-events="none" font-family="Tahoma, Verdana, Helvetica, Arial" font-weight="normal"  style="display: block;"><tspan dy="0.3em" >[JSON/HTTPS]</tspan></text></g><g id="v-2248"  label-idx="2" cursor="move" transform="matrix(1,0,0,1,877.257568359375,1482.800048828125)" style="cursor: default;"><rect joint-selector="rect" id="v-2254" fill="#ffffff" rx="3" ry="3" x="1.1368683772161603e-13" y="-2.2737367544323206e-13" width="0" height="0"  display="none"></rect><text joint-selector="text" id="v-2253" fill="#000000" font-size="14" text-anchor="middle" text-vertical-anchor="middle" pointer-events="none"></text></g></g></g><!--z-index:51--><g   id="j_193"  style="opacity: 1;"><path fill="none" cursor="pointer" stroke="transparent" stroke-linecap="round" joint-selector="wrapper" id="v-2271" stroke-width="10" stroke-linejoin="round" d="M 588.83 1420 L 864 1785 C 868 1790.3333333333333 873.3333333333333 1793 880 1793 L 1090 1793"></path><path fill="none" pointer-events="none" joint-selector="line" id="v-2270" stroke="#444444" stroke-width="2" stroke-linejoin="round" stroke-dasharray="8 8" d="M 588.83 1420 L 864 1785 C 868 1790.3333333333333 873.3333333333333 1793 880 1793 L 1090 1793" marker-end="url(#v-21252848929)"></path><g id="v-2260" ><g id="v-2261"  label-idx="0" cursor="move" transform="matrix(1,0,0,1,871.4088134765625,1777.7979736328125)" style="cursor: default;"><rect joint-selector="rect" id="v-2265" fill="#ffffff" rx="3" ry="3" x="-86.62097930908203" y="-30.027177810668945" width="175.58050537109375" height="58.149227142333984" pointer-events="none"  style="display: block;"></rect><text joint-selector="text" id="v-2264" font-size="24px" xml:space="preserve" fill="#444444" text-anchor="middle" pointer-events="none" font-family="Tahoma, Verdana, Helvetica, Arial" font-weight="normal"  style="display: block;"><tspan dy="-0.3em" >Llama endpoints</tspan><tspan dy="1.2em" x="0" >de Recovery</tspan></text></g><g id="v-2262"  label-idx="1" cursor="move" transform="matrix(1,0,0,1,871.4088134765625,1822.5980224609375)" style="cursor: default;"><rect joint-selector="rect" id="v-2267" fill="#ffffff" rx="3" ry="3" x="-53.75596237182617" y="-11.26512622833252" width="107.5662612915039" height="19.566150665283203"  pointer-events="none" style="display: block;"></rect><text joint-selector="text" id="v-2266" font-size="16.799999999999997px" xml:space="preserve" fill="#444444" text-anchor="middle" pointer-events="none" font-family="Tahoma, Verdana, Helvetica, Arial" font-weight="normal"  style="display: block;"><tspan dy="0.3em" >[JSON/HTTPS]</tspan></text></g><g id="v-2263"  label-idx="2" cursor="move" transform="matrix(1,0,0,1,785.2236938476562,1733.571533203125)" style="cursor: default;"><rect joint-selector="rect" id="v-2269" fill="#ffffff" rx="3" ry="3" x="0" y="2.2737367544323206e-13" width="0" height="0"  display="none"></rect><text joint-selector="text" id="v-2268" fill="#000000" font-size="14" text-anchor="middle" text-vertical-anchor="middle" pointer-events="none"></text></g></g></g><!--z-index:52--><g   id="j_194"  style="opacity: 1;"><path fill="none" cursor="pointer" stroke="transparent" stroke-linecap="round" joint-selector="wrapper" id="v-2286" stroke-width="10" stroke-linejoin="round" d="M 543.24 1420 L 866 2134 C 868.6666666666666 2140 873.3333333333333 2143 880 2143 L 1090 2143"></path><path fill="none" pointer-events="none" joint-selector="line" id="v-2285" stroke="#444444" stroke-width="2" stroke-linejoin="round" stroke-dasharray="8 8" d="M 543.24 1420 L 866 2134 C 868.6666666666666 2140 873.3333333333333 2143 880 2143 L 1090 2143" marker-end="url(#v-21252848929)"></path><g id="v-2275" ><g id="v-2276"  label-idx="0" cursor="move" transform="matrix(1,0,0,1,871.3367919921875,2127.243408203125)" style="cursor: default;"><rect joint-selector="rect" id="v-2280" fill="#ffffff" rx="3" ry="3" x="-86.62097930908203" y="-30.027177810668945" width="175.58050537109375" height="58.149227142333984" pointer-events="none"  style="display: block;"></rect><text joint-selector="text" id="v-2279" font-size="24px" xml:space="preserve" fill="#444444" text-anchor="middle" pointer-events="none" font-family="Tahoma, Verdana, Helvetica, Arial" font-weight="normal"  style="display: block;"><tspan dy="-0.3em" >Llama endpoints</tspan><tspan dy="1.2em" x="0" >de Audit</tspan></text></g><g id="v-2277"  label-idx="1" cursor="move" transform="matrix(1,0,0,1,871.3367919921875,2172.043212890625)" style="cursor: default;"><rect joint-selector="rect" id="v-2282" fill="#ffffff" rx="3" ry="3" x="-53.75596237182617" y="-11.26512622833252" width="107.5662612915039" height="19.566150665283203"  pointer-events="none" style="display: block;"></rect><text joint-selector="text" id="v-2281" font-size="16.799999999999997px" xml:space="preserve" fill="#444444" text-anchor="middle" pointer-events="none" font-family="Tahoma, Verdana, Helvetica, Arial" font-weight="normal"  style="display: block;"><tspan dy="0.3em" >[JSON/HTTPS]</tspan></text></g><g id="v-2278"  label-idx="2" cursor="move" transform="matrix(1,0,0,1,741.5258178710938,1920.563720703125)" style="cursor: default;"><rect joint-selector="rect" id="v-2284" fill="#ffffff" rx="3" ry="3" x="0" y="0" width="0" height="0"  display="none"></rect><text joint-selector="text" id="v-2283" fill="#000000" font-size="14" text-anchor="middle" text-vertical-anchor="middle" pointer-events="none"></text></g></g></g><!--z-index:53--><!--z-index:54--><!--z-index:55--><!--z-index:56--><!--z-index:57--><!--z-index:58--><!--z-index:59--><!--z-index:60--><!--z-index:61--><!--z-index:62--><!--z-index:63--><!--z-index:64--><!--z-index:65--></g><g  style="user-select: none;"></g><g ></g><g  display="none"></g></g></svg>