<svg xmlns="http://www.w3.org/2000/svg" xmlns:xlink="http://www.w3.org/1999/xlink" version="1.1" style="background: #ffffff" viewBox="0 0 3420 2808"><style id="v-3" type="text/css">        .joint-element .scalable * {            vector-effect: non-scaling-stroke;        }    </style><defs joint-selector="defs"><marker id="v-21252848929" orient="auto" overflow="visible" markerUnits="userSpaceOnUse"><path id="v-173" stroke="#444444" fill="#444444" transform="rotate(180)" d="M 20 -10 0 0 20 10 Z"></path></marker></defs><g joint-selector="layers"  transform="matrix(1,0,0,1,0,0)"><g  style="pointer-events: none;"></g><g ></g><g  style="user-select: none;"><!--z-index:0--><!--z-index:1--><!--z-index:2--><!--z-index:3--><!--z-index:4--><!--z-index:5--><!--z-index:6--><!--z-index:7--><!--z-index:8--><!--z-index:9--><!--z-index:10--><!--z-index:11--><!--z-index:12--><!--z-index:13--><!--z-index:14--><!--z-index:15--><!--z-index:16--><!--z-index:17--><!--z-index:18--><!--z-index:19--><!--z-index:20--><!--z-index:21--><!--z-index:22--><!--z-index:23--><!--z-index:24--><!--z-index:25--><!--z-index:26--><g   id="j_232"  transform="translate(20,2764)"><g id="v-2687"><text  id="v-2688" font-size="24px" xml:space="preserve" y="0.8em" font-weight="normal" text-anchor="start" fill="#444444" pointer-events="none" display="block" font-family="Tahoma, Verdana, Helvetica, Arial"><tspan dy="0" >jueves, 9 de julio de 2026, 4:58 p. m. hora estándar de Perú</tspan></text></g></g><!--z-index:27--><g   id="j_231"  transform="translate(20,2730)"><g id="v-2685"><text  id="v-2686" font-size="24px" xml:space="preserve" y="0.8em" font-weight="normal" text-anchor="start" fill="#444444" pointer-events="none" display="block" font-family="Tahoma, Verdana, Helvetica, Arial"><tspan dy="0" >Software Architecture Component Diagram - REST API Platform</tspan></text></g></g><!--z-index:28--><g   id="j_230"  transform="translate(20,2684)"><g id="v-2683"><text  id="v-2684" font-size="36px" xml:space="preserve" y="0.8em" font-weight="normal" text-anchor="start" fill="#444444" pointer-events="none" display="block" font-family="Tahoma, Verdana, Helvetica, Arial"><tspan dy="0" >Component View: CortiSense System - REST API Application</tspan></text></g></g><!--z-index:29--><g   id="j_234"  transform="translate(200,142)" style="; opacity: 1;"><g id="v-2707"><rect  id="v-2708" width="3020" height="2408" rx="0" ry="0" stroke-width="2" pointer-events="none" stroke="#cc671f" fill="#ffffff" opacity="1" stroke-dasharray=""></rect><text  id="v-2709" font-size="33.599999999999994px" xml:space="preserve" y="2369" font-weight="bold" text-anchor="start" pointer-events="visible" font-family="Tahoma, Verdana, Helvetica, Arial" fill="#cc671f" transform="matrix(1,0,0,1,15,0)"><tspan dy="0" >CortiSense System</tspan></text><text  id="v-2710" font-size="16.799999999999997px" xml:space="preserve" y="2393" font-weight="normal" text-anchor="start" pointer-events="visible" font-family="Tahoma, Verdana, Helvetica, Arial" fill="#cc671f" transform="matrix(1,0,0,1,15,0)"><tspan dy="0" >[Software System]</tspan></text><image  id="v-2711" pointer-events="visible"></image></g></g><!--z-index:30--><g   id="j_233"  transform="translate(250,1117)" style=""><g  id="v-2695" style="opacity: 1;"><rect  id="v-2696" rx="10" ry="10" stroke-width="2" pointer-events="visiblePainted" fill="#0f5eaa" stroke="#0f5eaa" stroke-dasharray="" width="450" height="302" style="fill: rgb(15, 94, 170); stroke: rgb(15, 94, 170);"></rect><rect  id="v-2697" rx="10" ry="10" stroke-width="0" pointer-events="visiblePainted" fill="#1168bd" stroke="#0f5eaa" width="446" height="260" x="2" y="40" style="fill: rgb(17, 104, 189);"></rect><ellipse  id="v-2704" fill="#1168bd" cx="20" cy="20" rx="10" ry="10" style="fill: rgb(17, 104, 189);"></ellipse><ellipse  id="v-2705" fill="#1168bd" cx="50" cy="20" rx="10" ry="10" style="fill: rgb(17, 104, 189);"></ellipse><ellipse  id="v-2706" fill="#1168bd" cx="80" cy="20" rx="10" ry="10" style="fill: rgb(17, 104, 189);"></ellipse><rect  id="v-2698" rx="10" ry="10" stroke-width="0" pointer-events="visiblePainted" fill="#1168bd" width="340" height="20" x="100" y="10" style="fill: rgb(17, 104, 189);"></rect><text  id="v-2699" font-size="33.599999999999994px" xml:space="preserve" y="72.34" font-weight="bold" text-anchor="middle" pointer-events="visible" font-family="Tahoma, Verdana, Helvetica, Arial" fill="#ffffff" dominant-baseline="hanging" transform="matrix(1,0,0,1,225,0)" style="fill: rgb(255, 255, 255);"><tspan dy="0" >Single Page Application</tspan><tspan dy="1.2em" x="0" >(SPA)</tspan></text><text  id="v-2700" font-size="16.799999999999997px" xml:space="preserve" y="154.26" text-anchor="middle" font-family="Tahoma, Verdana, Helvetica, Arial" fill="#ffffff" dominant-baseline="hanging" transform="matrix(1,0,0,1,225,0)" style="display: block; fill: rgb(255, 255, 255);"><tspan dy="0" >[Container: Vue 3 / Vite]</tspan></text><text  id="v-2701" font-size="24px" xml:space="preserve" y="186.06" text-anchor="middle" font-family="Tahoma, Verdana, Helvetica, Arial" fill="#ffffff" dominant-baseline="hanging" transform="matrix(1,0,0,1,225,0)" style="display: block; fill: rgb(255, 255, 255);"><tspan dy="0" >Interfaz gráfica principal para</tspan><tspan dy="1.2em" x="0" >Médicos, Supervisores y</tspan><tspan dy="1.2em" x="0" >Administradores.</tspan></text><g  id="v-2702" font-weight="normal" text-anchor="middle" color="#ffffff" transform="matrix(1,0,0,1,210,268)" display="none" style="fill: rgb(255, 255, 255);"><g  transform="translate(5 0)"><svg xmlns="http://www.w3.org/2000/svg" width="20" height="20" fill="currentColor" viewBox="0 0 16 16"><path fill-rule="evenodd" d="M6.5 12a5.5 5.5 0 1 0 0-11 5.5 5.5 0 0 0 0 11zM13 6.5a6.5 6.5 0 1 1-13 0 6.5 6.5 0 0 1 13 0z"></path><path d="M10.344 11.742c.03.04.062.078.098.115l3.85 3.85a1 1 0 0 0 1.415-1.414l-3.85-3.85a1.007 1.007 0 0 0-.115-.1 6.538 6.538 0 0 1-1.398 1.4z"></path><path fill-rule="evenodd" d="M6.5 3a.5.5 0 0 1 .5.5V6h2.5a.5.5 0 0 1 0 1H7v2.5a.5.5 0 0 1-1 0V7H3.5a.5.5 0 0 1 0-1H6V3.5a.5.5 0 0 1 .5-.5z"></path></svg></g><g ></g><g ></g><g ></g></g><image  id="v-2703"></image></g></g><!--z-index:31--><g   id="j_236"  transform="translate(1040,192)" style="; opacity: 1;"><g id="v-2722"><rect  id="v-2723" width="1340" height="2229" rx="20" ry="20" stroke-width="2" pointer-events="none" stroke="#27934d" fill="#ffffff" opacity="1" stroke-dasharray=""></rect><text  id="v-2724" font-size="33.599999999999994px" xml:space="preserve" y="2190" font-weight="bold" text-anchor="start" pointer-events="visible" font-family="Tahoma, Verdana, Helvetica, Arial" fill="#27934d" transform="matrix(1,0,0,1,15,0)"><tspan dy="0" >REST API Application</tspan></text><text  id="v-2725" font-size="16.799999999999997px" xml:space="preserve" y="2214" font-weight="normal" text-anchor="start" pointer-events="visible" font-family="Tahoma, Verdana, Helvetica, Arial" fill="#27934d" transform="matrix(1,0,0,1,15,0)"><tspan dy="0" >[Container]</tspan></text><image  id="v-2726" pointer-events="visible"></image></g></g><!--z-index:32--><g   id="j_243"  transform="translate(2720,1117)" style=""><g  id="v-2799" style="opacity: 1;"><path  d="M 0,30 a 225,30 0,0,0 450 0 a 225,30 0,0,0 -450 0 l 0,240 a 225,30 0,0,0 450 0 l 0,-240" id="v-2800" stroke-width="2" pointer-events="visiblePainted" fill="#e62b2b" stroke="#cf2727" stroke-dasharray="" style="fill: rgb(230, 43, 43); stroke: rgb(207, 39, 39);"></path><rect  id="v-2801" stroke-width="0" pointer-events="visiblePainted" fill="none" stroke="none" width="450" height="270" x="0" y="30"></rect><text  id="v-2802" font-size="33.599999999999994px" xml:space="preserve" y="101.9" font-weight="bold" text-anchor="middle" pointer-events="visible" font-family="Tahoma, Verdana, Helvetica, Arial" fill="#ffffff" dominant-baseline="hanging" transform="matrix(1,0,0,1,225,0)" style="fill: rgb(255, 255, 255);"><tspan dy="0" >Database</tspan></text><text  id="v-2803" font-size="16.799999999999997px" xml:space="preserve" y="143.5" text-anchor="middle" font-family="Tahoma, Verdana, Helvetica, Arial" fill="#ffffff" dominant-baseline="hanging" transform="matrix(1,0,0,1,225,0)" style="display: block; fill: rgb(255, 255, 255);"><tspan dy="0" >[Container: MySQL]</tspan></text><text  id="v-2804" font-size="24px" xml:space="preserve" y="175.3" text-anchor="middle" font-family="Tahoma, Verdana, Helvetica, Arial" fill="#ffffff" dominant-baseline="hanging" transform="matrix(1,0,0,1,225,0)" style="display: block; fill: rgb(255, 255, 255);"><tspan dy="0" >Almacena perfiles, métricas, turnos</tspan><tspan dy="1.2em" x="0" >y logs de auditoría.</tspan></text><g  id="v-2805" font-weight="normal" text-anchor="middle" color="#ffffff" transform="matrix(1,0,0,1,222.5,268)" display="none" style="fill: rgb(255, 255, 255);"><g ></g><g ></g><g ></g><g ></g></g><image  id="v-2806"></image></g></g><!--z-index:33--><g   id="j_235"  transform="translate(1090,242)" style=""><g  id="v-2715" style="opacity: 1;"><rect  id="v-2716" rx="1" ry="1" stroke-width="2" pointer-events="visiblePainted" fill="#85bbf0" stroke="#78a8d8" stroke-dasharray="" width="450" height="300" style="fill: rgb(133, 187, 240); stroke: rgb(120, 168, 216);"></rect><text  id="v-2717" font-size="33.599999999999994px" xml:space="preserve" y="101.30000000000001" font-weight="bold" text-anchor="middle" pointer-events="visible" font-family="Tahoma, Verdana, Helvetica, Arial" fill="#000000" dominant-baseline="hanging" transform="matrix(1,0,0,1,225,0)" style="fill: rgb(0, 0, 0);"><tspan dy="0" >IAM</tspan></text><text  id="v-2718" font-size="16.799999999999997px" xml:space="preserve" y="142.9" text-anchor="middle" font-family="Tahoma, Verdana, Helvetica, Arial" fill="#000000" dominant-baseline="hanging" transform="matrix(1,0,0,1,225,0)" style="display: block; fill: rgb(0, 0, 0);"><tspan dy="0" >[Component: .NET]</tspan></text><text  id="v-2719" font-size="24px" xml:space="preserve" y="174.7" text-anchor="middle" font-family="Tahoma, Verdana, Helvetica, Arial" fill="#000000" dominant-baseline="hanging" transform="matrix(1,0,0,1,225,0)" style="display: block; fill: rgb(0, 0, 0);"><tspan dy="0" >Gestión de identidad, JWT y perfiles.</tspan></text><g  id="v-2720" color="#000000" transform="matrix(1,0,0,1,222.5,268)" display="none" style="fill: rgb(0, 0, 0);"><g ></g><g ></g><g ></g><g ></g></g><image  id="v-2721"></image></g></g><!--z-index:34--><g   id="j_237"  transform="translate(1090,592)" style=""><g  id="v-2733" style="opacity: 1;"><rect  id="v-2734" rx="1" ry="1" stroke-width="2" pointer-events="visiblePainted" fill="#85bbf0" stroke="#78a8d8" stroke-dasharray="" width="450" height="300" style="fill: rgb(133, 187, 240); stroke: rgb(120, 168, 216);"></rect><text  id="v-2735" font-size="33.599999999999994px" xml:space="preserve" y="81.14000000000001" font-weight="bold" text-anchor="middle" pointer-events="visible" font-family="Tahoma, Verdana, Helvetica, Arial" fill="#000000" dominant-baseline="hanging" transform="matrix(1,0,0,1,225,0)" style="fill: rgb(0, 0, 0);"><tspan dy="0" >Subscription &amp; Plan</tspan><tspan dy="1.2em" x="0" >Management</tspan></text><text  id="v-2736" font-size="16.799999999999997px" xml:space="preserve" y="163.06" text-anchor="middle" font-family="Tahoma, Verdana, Helvetica, Arial" fill="#000000" dominant-baseline="hanging" transform="matrix(1,0,0,1,225,0)" style="display: block; fill: rgb(0, 0, 0);"><tspan dy="0" >[Component: .NET]</tspan></text><text  id="v-2737" font-size="24px" xml:space="preserve" y="194.86" text-anchor="middle" font-family="Tahoma, Verdana, Helvetica, Arial" fill="#000000" dominant-baseline="hanging" transform="matrix(1,0,0,1,225,0)" style="display: block; fill: rgb(0, 0, 0);"><tspan dy="0" >Valida estado de pago y límites.</tspan></text><g  id="v-2738" color="#000000" transform="matrix(1,0,0,1,222.5,268)" display="none" style="fill: rgb(0, 0, 0);"><g ></g><g ></g><g ></g><g ></g></g><image  id="v-2739"></image></g></g><!--z-index:35--><g   id="j_238"  transform="translate(1090,942)" style=""><g  id="v-2746" style="opacity: 1;"><rect  id="v-2747" rx="1" ry="1" stroke-width="2" pointer-events="visiblePainted" fill="#85bbf0" stroke="#78a8d8" stroke-dasharray="" width="450" height="300" style="fill: rgb(133, 187, 240); stroke: rgb(120, 168, 216);"></rect><text  id="v-2748" font-size="33.599999999999994px" xml:space="preserve" y="101.30000000000001" font-weight="bold" text-anchor="middle" pointer-events="visible" font-family="Tahoma, Verdana, Helvetica, Arial" fill="#000000" dominant-baseline="hanging" transform="matrix(1,0,0,1,225,0)" style="fill: rgb(0, 0, 0);"><tspan dy="0" >Clinical Risk Assessment</tspan></text><text  id="v-2749" font-size="16.799999999999997px" xml:space="preserve" y="142.9" text-anchor="middle" font-family="Tahoma, Verdana, Helvetica, Arial" fill="#000000" dominant-baseline="hanging" transform="matrix(1,0,0,1,225,0)" style="display: block; fill: rgb(0, 0, 0);"><tspan dy="0" >[Component: .NET]</tspan></text><text  id="v-2750" font-size="24px" xml:space="preserve" y="174.7" text-anchor="middle" font-family="Tahoma, Verdana, Helvetica, Arial" fill="#000000" dominant-baseline="hanging" transform="matrix(1,0,0,1,225,0)" style="display: block; fill: rgb(0, 0, 0);"><tspan dy="0" >Procesa telemetría y dispara Alertas.</tspan></text><g  id="v-2751" color="#000000" transform="matrix(1,0,0,1,222.5,268)" display="none" style="fill: rgb(0, 0, 0);"><g ></g><g ></g><g ></g><g ></g></g><image  id="v-2752"></image></g></g><!--z-index:36--><g   id="j_239"  transform="translate(1090,1292)" style=""><g  id="v-2759" style="opacity: 1;"><rect  id="v-2760" rx="1" ry="1" stroke-width="2" pointer-events="visiblePainted" fill="#85bbf0" stroke="#78a8d8" stroke-dasharray="" width="450" height="300" style="fill: rgb(133, 187, 240); stroke: rgb(120, 168, 216);"></rect><text  id="v-2761" font-size="33.599999999999994px" xml:space="preserve" y="101.30000000000001" font-weight="bold" text-anchor="middle" pointer-events="visible" font-family="Tahoma, Verdana, Helvetica, Arial" fill="#000000" dominant-baseline="hanging" transform="matrix(1,0,0,1,225,0)" style="fill: rgb(0, 0, 0);"><tspan dy="0" >Shift Coordination</tspan></text><text  id="v-2762" font-size="16.799999999999997px" xml:space="preserve" y="142.9" text-anchor="middle" font-family="Tahoma, Verdana, Helvetica, Arial" fill="#000000" dominant-baseline="hanging" transform="matrix(1,0,0,1,225,0)" style="display: block; fill: rgb(0, 0, 0);"><tspan dy="0" >[Component: .NET]</tspan></text><text  id="v-2763" font-size="24px" xml:space="preserve" y="174.7" text-anchor="middle" font-family="Tahoma, Verdana, Helvetica, Arial" fill="#000000" dominant-baseline="hanging" transform="matrix(1,0,0,1,225,0)" style="display: block; fill: rgb(0, 0, 0);"><tspan dy="0" >Evalúa riesgos en turnos.</tspan></text><g  id="v-2764" color="#000000" transform="matrix(1,0,0,1,222.5,268)" display="none" style="fill: rgb(0, 0, 0);"><g ></g><g ></g><g ></g><g ></g></g><image  id="v-2765"></image></g></g><!--z-index:37--><g   id="j_240"  transform="translate(1090,1642)" style=""><g  id="v-2769" style="opacity: 1;"><rect  id="v-2770" rx="1" ry="1" stroke-width="2" pointer-events="visiblePainted" fill="#85bbf0" stroke="#78a8d8" stroke-dasharray="" width="450" height="300" style="fill: rgb(133, 187, 240); stroke: rgb(120, 168, 216);"></rect><text  id="v-2771" font-size="33.599999999999994px" xml:space="preserve" y="101.30000000000001" font-weight="bold" text-anchor="middle" pointer-events="visible" font-family="Tahoma, Verdana, Helvetica, Arial" fill="#000000" dominant-baseline="hanging" transform="matrix(1,0,0,1,225,0)" style="fill: rgb(0, 0, 0);"><tspan dy="0" >Staff Recovery</tspan></text><text  id="v-2772" font-size="16.799999999999997px" xml:space="preserve" y="142.9" text-anchor="middle" font-family="Tahoma, Verdana, Helvetica, Arial" fill="#000000" dominant-baseline="hanging" transform="matrix(1,0,0,1,225,0)" style="display: block; fill: rgb(0, 0, 0);"><tspan dy="0" >[Component: .NET]</tspan></text><text  id="v-2773" font-size="24px" xml:space="preserve" y="174.7" text-anchor="middle" font-family="Tahoma, Verdana, Helvetica, Arial" fill="#000000" dominant-baseline="hanging" transform="matrix(1,0,0,1,225,0)" style="display: block; fill: rgb(0, 0, 0);"><tspan dy="0" >Ciclo de vida del plan de descanso.</tspan></text><g  id="v-2774" color="#000000" transform="matrix(1,0,0,1,222.5,268)" display="none" style="fill: rgb(0, 0, 0);"><g ></g><g ></g><g ></g><g ></g></g><image  id="v-2775"></image></g></g><!--z-index:38--><g   id="j_241"  transform="translate(1090,1992)" style=""><g  id="v-2782" style="opacity: 1;"><rect  id="v-2783" rx="1" ry="1" stroke-width="2" pointer-events="visiblePainted" fill="#85bbf0" stroke="#78a8d8" stroke-dasharray="" width="450" height="300" style="fill: rgb(133, 187, 240); stroke: rgb(120, 168, 216);"></rect><text  id="v-2784" font-size="33.599999999999994px" xml:space="preserve" y="101.30000000000001" font-weight="bold" text-anchor="middle" pointer-events="visible" font-family="Tahoma, Verdana, Helvetica, Arial" fill="#000000" dominant-baseline="hanging" transform="matrix(1,0,0,1,225,0)" style="fill: rgb(0, 0, 0);"><tspan dy="0" >Audit &amp; Compliance</tspan></text><text  id="v-2785" font-size="16.799999999999997px" xml:space="preserve" y="142.9" text-anchor="middle" font-family="Tahoma, Verdana, Helvetica, Arial" fill="#000000" dominant-baseline="hanging" transform="matrix(1,0,0,1,225,0)" style="display: block; fill: rgb(0, 0, 0);"><tspan dy="0" >[Component: .NET]</tspan></text><text  id="v-2786" font-size="24px" xml:space="preserve" y="174.7" text-anchor="middle" font-family="Tahoma, Verdana, Helvetica, Arial" fill="#000000" dominant-baseline="hanging" transform="matrix(1,0,0,1,225,0)" style="display: block; fill: rgb(0, 0, 0);"><tspan dy="0" >Traza decisiones críticas.</tspan></text><g  id="v-2787" color="#000000" transform="matrix(1,0,0,1,222.5,268)" display="none" style="fill: rgb(0, 0, 0);"><g ></g><g ></g><g ></g><g ></g></g><image  id="v-2788"></image></g></g><!--z-index:39--><g   id="j_242"  transform="translate(1880,1117)" style=""><g  id="v-2789" style="opacity: 1;"><rect  id="v-2790" rx="1" ry="1" stroke-width="2" pointer-events="visiblePainted" fill="#85bbf0" stroke="#78a8d8" stroke-dasharray="" width="450" height="300" style="fill: rgb(133, 187, 240); stroke: rgb(120, 168, 216);"></rect><text  id="v-2791" font-size="33.599999999999994px" xml:space="preserve" y="101.30000000000001" font-weight="bold" text-anchor="middle" pointer-events="visible" font-family="Tahoma, Verdana, Helvetica, Arial" fill="#000000" dominant-baseline="hanging" transform="matrix(1,0,0,1,225,0)" style="fill: rgb(0, 0, 0);"><tspan dy="0" >Shared</tspan></text><text  id="v-2792" font-size="16.799999999999997px" xml:space="preserve" y="142.9" text-anchor="middle" font-family="Tahoma, Verdana, Helvetica, Arial" fill="#000000" dominant-baseline="hanging" transform="matrix(1,0,0,1,225,0)" style="display: block; fill: rgb(0, 0, 0);"><tspan dy="0" >[Component: .NET]</tspan></text><text  id="v-2793" font-size="24px" xml:space="preserve" y="174.7" text-anchor="middle" font-family="Tahoma, Verdana, Helvetica, Arial" fill="#000000" dominant-baseline="hanging" transform="matrix(1,0,0,1,225,0)" style="display: block; fill: rgb(0, 0, 0);"><tspan dy="0" >Capa de mapeo ORM.</tspan></text><g  id="v-2794" color="#000000" transform="matrix(1,0,0,1,222.5,268)" display="none" style="fill: rgb(0, 0, 0);"><g ></g><g ></g><g ></g><g ></g></g><image  id="v-2795"></image></g></g><!--z-index:40--><g   id="j_244"  style="opacity: 1;"><path fill="none" cursor="pointer" stroke="transparent" stroke-linecap="round" joint-selector="wrapper" id="v-2818" stroke-width="10" stroke-linejoin="round" d="M 1540 392 L 1700 392 C 1706.6666666666665 392 1711.3333333333333 395 1714 401 L 2037.29 1117"></path><path fill="none" pointer-events="none" joint-selector="line" id="v-2817" stroke="#444444" stroke-width="2" stroke-linejoin="round" stroke-dasharray="8 8" d="M 1540 392 L 1700 392 C 1706.6666666666665 392 1711.3333333333333 395 1714 401 L 2037.29 1117" marker-end="url(#v-21252848929)"></path><g id="v-2810" ><g id="v-2811"  label-idx="0" cursor="move" transform="matrix(1,0,0,1,1709.0904541015625,394.6533203125)" style="cursor: default;"><rect joint-selector="rect" id="v-2814" fill="#ffffff" rx="3" ry="3" x="-82.66657257080078" y="-18.251163482666016" width="168.19580078125" height="31.813955307006836" pointer-events="none"  style="display: block;"></rect><text joint-selector="text" id="v-2813" font-size="24px" xml:space="preserve" fill="#444444" text-anchor="middle" pointer-events="none" font-family="Tahoma, Verdana, Helvetica, Arial" font-weight="normal"  style="display: block;"><tspan dy="0.3em" >Persiste usando</tspan></text></g><g id="v-2812"  label-idx="1" cursor="move" transform="matrix(1,0,0,1,1699.0904541015625,406.6533203125)" style="cursor: default;"><rect joint-selector="rect" id="v-2816" fill="#ffffff" rx="3" ry="3" x="0" y="0" width="0" height="0"  display="none"></rect><text joint-selector="text" id="v-2815" fill="#000000" font-size="14" text-anchor="middle" text-vertical-anchor="middle" pointer-events="none"></text></g></g></g><!--z-index:41--><g   id="j_245"  style="opacity: 1;"><path fill="none" cursor="pointer" stroke="transparent" stroke-linecap="round" joint-selector="wrapper" id="v-2830" stroke-width="10" stroke-linejoin="round" d="M 1540 742 L 1700 742 C 1706.6666666666665 742 1712 744.6666666666666 1716 750 L 1992.14 1117"></path><path fill="none" pointer-events="none" joint-selector="line" id="v-2829" stroke="#444444" stroke-width="2" stroke-linejoin="round" stroke-dasharray="8 8" d="M 1540 742 L 1700 742 C 1706.6666666666665 742 1712 744.6666666666666 1716 750 L 1992.14 1117" marker-end="url(#v-21252848929)"></path><g id="v-2822" ><g id="v-2823"  label-idx="0" cursor="move" transform="matrix(1,0,0,1,1709.280029296875,744.14306640625)" style="cursor: default;"><rect joint-selector="rect" id="v-2826" fill="#ffffff" rx="3" ry="3" x="-82.66657257080078" y="-18.251163482666016" width="168.19580078125" height="31.813955307006836" pointer-events="none"  style="display: block;"></rect><text joint-selector="text" id="v-2825" font-size="24px" xml:space="preserve" fill="#444444" text-anchor="middle" pointer-events="none" font-family="Tahoma, Verdana, Helvetica, Arial" font-weight="normal"  style="display: block;"><tspan dy="0.3em" >Persiste usando</tspan></text></g><g id="v-2824"  label-idx="1" cursor="move" transform="matrix(1,0,0,1,1699.280029296875,756.14306640625)" style="cursor: default;"><rect joint-selector="rect" id="v-2828" fill="#ffffff" rx="3" ry="3" x="0" y="-1.1368683772161603e-13" width="0" height="0"  display="none"></rect><text joint-selector="text" id="v-2827" fill="#000000" font-size="14" text-anchor="middle" text-vertical-anchor="middle" pointer-events="none"></text></g></g></g><!--z-index:42--><g   id="j_246"  style="opacity: 1;"><path fill="none" cursor="pointer" stroke="transparent" stroke-linecap="round" joint-selector="wrapper" id="v-2842" stroke-width="10" stroke-linejoin="round" d="M 1540 1092 L 1700 1092 C 1706.6666666666665 1092 1713 1093.3333333333333 1719 1096 L 1880 1167.32"></path><path fill="none" pointer-events="none" joint-selector="line" id="v-2841" stroke="#444444" stroke-width="2" stroke-linejoin="round" stroke-dasharray="8 8" d="M 1540 1092 L 1700 1092 C 1706.6666666666665 1092 1713 1093.3333333333333 1719 1096 L 1880 1167.32" marker-end="url(#v-21252848929)"></path><g id="v-2834" ><g id="v-2835"  label-idx="0" cursor="move" transform="matrix(1,0,0,1,1709.787109375,1093.0078125)" style="cursor: default;"><rect joint-selector="rect" id="v-2838" fill="#ffffff" rx="3" ry="3" x="-82.66657257080078" y="-18.251163482666016" width="168.19580078125" height="31.813955307006836" pointer-events="none"  style="display: block;"></rect><text joint-selector="text" id="v-2837" font-size="24px" xml:space="preserve" fill="#444444" text-anchor="middle" pointer-events="none" font-family="Tahoma, Verdana, Helvetica, Arial" font-weight="normal"  style="display: block;"><tspan dy="0.3em" >Persiste usando</tspan></text></g><g id="v-2836"  label-idx="1" cursor="move" transform="matrix(1,0,0,1,1699.787109375,1105.0078125)" style="cursor: default;"><rect joint-selector="rect" id="v-2840" fill="#ffffff" rx="3" ry="3" x="2.2737367544323206e-13" y="0" width="0" height="0"  display="none"></rect><text joint-selector="text" id="v-2839" fill="#000000" font-size="14" text-anchor="middle" text-vertical-anchor="middle" pointer-events="none"></text></g></g></g><!--z-index:43--><g   id="j_247"  style="opacity: 1;"><path fill="none" cursor="pointer" stroke="transparent" stroke-linecap="round" joint-selector="wrapper" id="v-2854" stroke-width="10" stroke-linejoin="round" d="M 1540 1442 L 1700 1442 C 1706.6666666666665 1442 1713 1440.6666666666665 1719 1438 L 1880 1366.68"></path><path fill="none" pointer-events="none" joint-selector="line" id="v-2853" stroke="#444444" stroke-width="2" stroke-linejoin="round" stroke-dasharray="8 8" d="M 1540 1442 L 1700 1442 C 1706.6666666666665 1442 1713 1440.6666666666665 1719 1438 L 1880 1366.68" marker-end="url(#v-21252848929)"></path><g id="v-2846" ><g id="v-2847"  label-idx="0" cursor="move" transform="matrix(1,0,0,1,1709.787109375,1440.9921875)" style="cursor: default;"><rect joint-selector="rect" id="v-2850" fill="#ffffff" rx="3" ry="3" x="-82.66657257080078" y="-18.251163482666016" width="168.19580078125" height="31.813955307006836" pointer-events="none"  style="display: block;"></rect><text joint-selector="text" id="v-2849" font-size="24px" xml:space="preserve" fill="#444444" text-anchor="middle" pointer-events="none" font-family="Tahoma, Verdana, Helvetica, Arial" font-weight="normal"  style="display: block;"><tspan dy="0.3em" >Persiste usando</tspan></text></g><g id="v-2848"  label-idx="1" cursor="move" transform="matrix(1,0,0,1,1699.787109375,1452.9921875)" style="cursor: default;"><rect joint-selector="rect" id="v-2852" fill="#ffffff" rx="3" ry="3" x="2.2737367544323206e-13" y="2.2737367544323206e-13" width="0" height="0"  display="none"></rect><text joint-selector="text" id="v-2851" fill="#000000" font-size="14" text-anchor="middle" text-vertical-anchor="middle" pointer-events="none"></text></g></g></g><!--z-index:44--><g   id="j_248"  style="opacity: 1;"><path fill="none" cursor="pointer" stroke="transparent" stroke-linecap="round" joint-selector="wrapper" id="v-2866" stroke-width="10" stroke-linejoin="round" d="M 1540 1792 L 1700 1792 C 1706.6666666666665 1791.9999999999998 1712 1789.333333333333 1716 1784 L 1992.14 1417"></path><path fill="none" pointer-events="none" joint-selector="line" id="v-2865" stroke="#444444" stroke-width="2" stroke-linejoin="round" stroke-dasharray="8 8" d="M 1540 1792 L 1700 1792 C 1706.6666666666665 1791.9999999999998 1712 1789.333333333333 1716 1784 L 1992.14 1417" marker-end="url(#v-21252848929)"></path><g id="v-2858" ><g id="v-2859"  label-idx="0" cursor="move" transform="matrix(1,0,0,1,1709.280029296875,1789.85693359375)" style="cursor: default;"><rect joint-selector="rect" id="v-2862" fill="#ffffff" rx="3" ry="3" x="-82.66657257080078" y="-18.251163482666016" width="168.19580078125" height="31.813955307006836" pointer-events="none"  style="display: block;"></rect><text joint-selector="text" id="v-2861" font-size="24px" xml:space="preserve" fill="#444444" text-anchor="middle" pointer-events="none" font-family="Tahoma, Verdana, Helvetica, Arial" font-weight="normal"  style="display: block;"><tspan dy="0.3em" >Persiste usando</tspan></text></g><g id="v-2860"  label-idx="1" cursor="move" transform="matrix(1,0,0,1,1699.280029296875,1801.85693359375)" style="cursor: default;"><rect joint-selector="rect" id="v-2864" fill="#ffffff" rx="3" ry="3" x="0" y="0" width="0" height="0"  display="none"></rect><text joint-selector="text" id="v-2863" fill="#000000" font-size="14" text-anchor="middle" text-vertical-anchor="middle" pointer-events="none"></text></g></g></g><!--z-index:45--><g   id="j_249"  style="opacity: 1;"><path fill="none" cursor="pointer" stroke="transparent" stroke-linecap="round" joint-selector="wrapper" id="v-2878" stroke-width="10" stroke-linejoin="round" d="M 1540 2142 L 1700 2142 C 1706.6666666666665 2142 1711.3333333333333 2139 1714 2133 L 2037.29 1417"></path><path fill="none" pointer-events="none" joint-selector="line" id="v-2877" stroke="#444444" stroke-width="2" stroke-linejoin="round" stroke-dasharray="8 8" d="M 1540 2142 L 1700 2142 C 1706.6666666666665 2142 1711.3333333333333 2139 1714 2133 L 2037.29 1417" marker-end="url(#v-21252848929)"></path><g id="v-2870" ><g id="v-2871"  label-idx="0" cursor="move" transform="matrix(1,0,0,1,1709.0904541015625,2139.3466796875)" style="cursor: default;"><rect joint-selector="rect" id="v-2874" fill="#ffffff" rx="3" ry="3" x="-82.66657257080078" y="-18.251163482666016" width="168.19580078125" height="31.813955307006836" pointer-events="none"  style="display: block;"></rect><text joint-selector="text" id="v-2873" font-size="24px" xml:space="preserve" fill="#444444" text-anchor="middle" pointer-events="none" font-family="Tahoma, Verdana, Helvetica, Arial" font-weight="normal"  style="display: block;"><tspan dy="0.3em" >Persiste usando</tspan></text></g><g id="v-2872"  label-idx="1" cursor="move" transform="matrix(1,0,0,1,1699.0904541015625,2151.3466796875)" style="cursor: default;"><rect joint-selector="rect" id="v-2876" fill="#ffffff" rx="3" ry="3" x="0" y="0" width="0" height="0"  display="none"></rect><text joint-selector="text" id="v-2875" fill="#000000" font-size="14" text-anchor="middle" text-vertical-anchor="middle" pointer-events="none"></text></g></g></g><!--z-index:46--><g   id="j_250"  style="opacity: 1;"><path fill="none" cursor="pointer" stroke="transparent" stroke-linecap="round" joint-selector="wrapper" id="v-2893" stroke-width="10" stroke-linejoin="round" d="M 2330 1267 L 2720 1267"></path><path fill="none" pointer-events="none" joint-selector="line" id="v-2892" stroke="#444444" stroke-width="2" stroke-linejoin="round" stroke-dasharray="8 8" d="M 2330 1267 L 2720 1267" marker-end="url(#v-21252848929)"></path><g id="v-2882" ><g id="v-2883"  label-idx="0" cursor="move" transform="matrix(1,0,0,1,2550,1253.5999755859375)" style="cursor: default;"><rect joint-selector="rect" id="v-2887" fill="#ffffff" rx="3" ry="3" x="-86.0219497680664" y="-18.251163482666016" width="174.56752014160156" height="31.813955307006836" pointer-events="none"  style="display: block;"></rect><text joint-selector="text" id="v-2886" font-size="24px" xml:space="preserve" fill="#444444" text-anchor="middle" pointer-events="none" font-family="Tahoma, Verdana, Helvetica, Arial" font-weight="normal"  style="display: block;"><tspan dy="0.3em" >Lee y escribe en</tspan></text></g><g id="v-2884"  label-idx="1" cursor="move" transform="matrix(1,0,0,1,2550,1284)" style="cursor: default;"><rect joint-selector="rect" id="v-2889" fill="#ffffff" rx="3" ry="3" x="-31.913373947143555" y="-10.86697769165039" width="63.82674789428711" height="19.0883731842041"  pointer-events="none" style="display: block;"></rect><text joint-selector="text" id="v-2888" font-size="16.799999999999997px" xml:space="preserve" fill="#444444" text-anchor="middle" pointer-events="none" font-family="Tahoma, Verdana, Helvetica, Arial" font-weight="normal"  style="display: block;"><tspan dy="0.3em" >[TCP/IP]</tspan></text></g><g id="v-2885"  label-idx="2" cursor="move" transform="matrix(1,0,0,1,2515,1292.4000244140625)" style="cursor: default;"><rect joint-selector="rect" id="v-2891" fill="#ffffff" rx="3" ry="3" x="4.547473508864641e-13" y="0" width="0" height="0"  display="none"></rect><text joint-selector="text" id="v-2890" fill="#000000" font-size="14" text-anchor="middle" text-vertical-anchor="middle" pointer-events="none"></text></g></g></g><!--z-index:47--><g   id="j_251"  style="opacity: 1;"><path fill="none" cursor="pointer" stroke="transparent" stroke-linecap="round" joint-selector="wrapper" id="v-2908" stroke-width="10" stroke-linejoin="round" d="M 543.09 1117 L 866 401 C 868.6666666666666 395 873.3333333333333 392 880 392 L 1090 392"></path><path fill="none" pointer-events="none" joint-selector="line" id="v-2907" stroke="#444444" stroke-width="2" stroke-linejoin="round" stroke-dasharray="8 8" d="M 543.09 1117 L 866 401 C 868.6666666666666 395 873.3333333333333 392 880 392 L 1090 392" marker-end="url(#v-21252848929)"></path><g id="v-2897" ><g id="v-2898"  label-idx="0" cursor="move" transform="matrix(1,0,0,1,871.0152587890625,381.1775207519531)" style="cursor: default;"><rect joint-selector="rect" id="v-2902" fill="#ffffff" rx="3" ry="3" x="-86.69303131103516" y="-32.65116500854492" width="175.39199829101562" height="60.613956451416016" pointer-events="none"  style="display: block;"></rect><text joint-selector="text" id="v-2901" font-size="24px" xml:space="preserve" fill="#444444" text-anchor="middle" pointer-events="none" font-family="Tahoma, Verdana, Helvetica, Arial" font-weight="normal"  style="display: block;"><tspan dy="-0.3em" >Llama endpoints</tspan><tspan dy="1.2em" x="0" >de IAM</tspan></text></g><g id="v-2899"  label-idx="1" cursor="move" transform="matrix(1,0,0,1,871.0152587890625,425.9775390625)" style="cursor: default;"><rect joint-selector="rect" id="v-2904" fill="#ffffff" rx="3" ry="3" x="-53.76061248779297" y="-10.86697769165039" width="107.52122497558594" height="19.0883731842041"  pointer-events="none" style="display: block;"></rect><text joint-selector="text" id="v-2903" font-size="16.799999999999997px" xml:space="preserve" fill="#444444" text-anchor="middle" pointer-events="none" font-family="Tahoma, Verdana, Helvetica, Arial" font-weight="normal"  style="display: block;"><tspan dy="0.3em" >[JSON/HTTPS]</tspan></text></g><g id="v-2900"  label-idx="2" cursor="move" transform="matrix(1,0,0,1,741.3600463867188,694.9953002929688)" style="cursor: default;"><rect joint-selector="rect" id="v-2906" fill="#ffffff" rx="3" ry="3" x="0" y="0" width="0" height="0"  display="none"></rect><text joint-selector="text" id="v-2905" fill="#000000" font-size="14" text-anchor="middle" text-vertical-anchor="middle" pointer-events="none"></text></g></g></g><!--z-index:48--><g   id="j_252"  style="opacity: 1;"><path fill="none" cursor="pointer" stroke="transparent" stroke-linecap="round" joint-selector="wrapper" id="v-2923" stroke-width="10" stroke-linejoin="round" d="M 588.39 1117 L 864 750 C 868 744.6666666666666 873.3333333333333 742 880 742 L 1090 742"></path><path fill="none" pointer-events="none" joint-selector="line" id="v-2922" stroke="#444444" stroke-width="2" stroke-linejoin="round" stroke-dasharray="8 8" d="M 588.39 1117 L 864 750 C 868 744.6666666666666 873.3333333333333 742 880 742 L 1090 742" marker-end="url(#v-21252848929)"></path><g id="v-2912" ><g id="v-2913"  label-idx="0" cursor="move" transform="matrix(1,0,0,1,870.875244140625,730.6629638671875)" style="cursor: default;"><rect joint-selector="rect" id="v-2917" fill="#ffffff" rx="3" ry="3" x="-86.69303131103516" y="-32.65116500854492" width="175.39199829101562" height="60.613956451416016" pointer-events="none"  style="display: block;"></rect><text joint-selector="text" id="v-2916" font-size="24px" xml:space="preserve" fill="#444444" text-anchor="middle" pointer-events="none" font-family="Tahoma, Verdana, Helvetica, Arial" font-weight="normal"  style="display: block;"><tspan dy="-0.3em" >Llama endpoints</tspan><tspan dy="1.2em" x="0" >de Subscription</tspan></text></g><g id="v-2914"  label-idx="1" cursor="move" transform="matrix(1,0,0,1,870.875244140625,775.4630126953125)" style="cursor: default;"><rect joint-selector="rect" id="v-2919" fill="#ffffff" rx="3" ry="3" x="-53.76061248779297" y="-10.86697769165039" width="107.52122497558594" height="19.0883731842041"  pointer-events="none" style="display: block;"></rect><text joint-selector="text" id="v-2918" font-size="16.799999999999997px" xml:space="preserve" fill="#444444" text-anchor="middle" pointer-events="none" font-family="Tahoma, Verdana, Helvetica, Arial" font-weight="normal"  style="display: block;"><tspan dy="0.3em" >[JSON/HTTPS]</tspan></text></g><g id="v-2915"  label-idx="2" cursor="move" transform="matrix(1,0,0,1,784.8340454101562,881.9008178710938)" style="cursor: default;"><rect joint-selector="rect" id="v-2921" fill="#ffffff" rx="3" ry="3" x="0" y="0" width="0" height="0"  display="none"></rect><text joint-selector="text" id="v-2920" fill="#000000" font-size="14" text-anchor="middle" text-vertical-anchor="middle" pointer-events="none"></text></g></g></g><!--z-index:49--><g   id="j_253"  style="opacity: 1;"><path fill="none" cursor="pointer" stroke="transparent" stroke-linecap="round" joint-selector="wrapper" id="v-2938" stroke-width="10" stroke-linejoin="round" d="M 700 1167.75 L 861 1096 C 867 1093.3333333333333 873.3333333333333 1092 880 1092 L 1090 1092"></path><path fill="none" pointer-events="none" joint-selector="line" id="v-2937" stroke="#444444" stroke-width="2" stroke-linejoin="round" stroke-dasharray="8 8" d="M 700 1167.75 L 861 1096 C 867 1093.3333333333333 873.3333333333333 1092 880 1092 L 1090 1092" marker-end="url(#v-21252848929)"></path><g id="v-2927" ><g id="v-2928"  label-idx="0" cursor="move" transform="matrix(1,0,0,1,870.1387329101562,1079.62353515625)" style="cursor: default;"><rect joint-selector="rect" id="v-2932" fill="#ffffff" rx="3" ry="3" x="-86.69303131103516" y="-32.65116500854492" width="175.39199829101562" height="60.613956451416016" pointer-events="none"  style="display: block;"></rect><text joint-selector="text" id="v-2931" font-size="24px" xml:space="preserve" fill="#444444" text-anchor="middle" pointer-events="none" font-family="Tahoma, Verdana, Helvetica, Arial" font-weight="normal"  style="display: block;"><tspan dy="-0.3em" >Llama endpoints</tspan><tspan dy="1.2em" x="0" >de Risk</tspan></text></g><g id="v-2929"  label-idx="1" cursor="move" transform="matrix(1,0,0,1,870.1387329101562,1124.423583984375)" style="cursor: default;"><rect joint-selector="rect" id="v-2934" fill="#ffffff" rx="3" ry="3" x="-53.76061248779297" y="-10.86697769165039" width="107.52122497558594" height="19.0883731842041"  pointer-events="none" style="display: block;"></rect><text joint-selector="text" id="v-2933" font-size="16.799999999999997px" xml:space="preserve" fill="#444444" text-anchor="middle" pointer-events="none" font-family="Tahoma, Verdana, Helvetica, Arial" font-weight="normal"  style="display: block;"><tspan dy="0.3em" >[JSON/HTTPS]</tspan></text></g><g id="v-2930"  label-idx="2" cursor="move" transform="matrix(1,0,0,1,877.08837890625,1131.800048828125)" style="cursor: default;"><rect joint-selector="rect" id="v-2936" fill="#ffffff" rx="3" ry="3" x="0" y="2.2737367544323206e-13" width="0" height="0"  display="none"></rect><text joint-selector="text" id="v-2935" fill="#000000" font-size="14" text-anchor="middle" text-vertical-anchor="middle" pointer-events="none"></text></g></g></g><!--z-index:50--><g   id="j_254"  style="opacity: 1;"><path fill="none" cursor="pointer" stroke="transparent" stroke-linecap="round" joint-selector="wrapper" id="v-2953" stroke-width="10" stroke-linejoin="round" d="M 700 1367.11 L 861 1438 C 867 1440.6666666666665 873.3333333333333 1442 880 1442 L 1090 1442"></path><path fill="none" pointer-events="none" joint-selector="line" id="v-2952" stroke="#444444" stroke-width="2" stroke-linejoin="round" stroke-dasharray="8 8" d="M 700 1367.11 L 861 1438 C 867 1440.6666666666665 873.3333333333333 1442 880 1442 L 1090 1442" marker-end="url(#v-21252848929)"></path><g id="v-2942" ><g id="v-2943"  label-idx="0" cursor="move" transform="matrix(1,0,0,1,870.32421875,1427.6156005859375)" style="cursor: default;"><rect joint-selector="rect" id="v-2947" fill="#ffffff" rx="3" ry="3" x="-86.69303131103516" y="-32.65116500854492" width="175.39199829101562" height="60.613956451416016" pointer-events="none"  style="display: block;"></rect><text joint-selector="text" id="v-2946" font-size="24px" xml:space="preserve" fill="#444444" text-anchor="middle" pointer-events="none" font-family="Tahoma, Verdana, Helvetica, Arial" font-weight="normal"  style="display: block;"><tspan dy="-0.3em" >Llama endpoints</tspan><tspan dy="1.2em" x="0" >de Shifts</tspan></text></g><g id="v-2944"  label-idx="1" cursor="move" transform="matrix(1,0,0,1,870.32421875,1472.41552734375)" style="cursor: default;"><rect joint-selector="rect" id="v-2949" fill="#ffffff" rx="3" ry="3" x="-53.76061248779297" y="-10.86697769165039" width="107.52122497558594" height="19.0883731842041"  pointer-events="none" style="display: block;"></rect><text joint-selector="text" id="v-2948" font-size="16.799999999999997px" xml:space="preserve" fill="#444444" text-anchor="middle" pointer-events="none" font-family="Tahoma, Verdana, Helvetica, Arial" font-weight="normal"  style="display: block;"><tspan dy="0.3em" >[JSON/HTTPS]</tspan></text></g><g id="v-2945"  label-idx="2" cursor="move" transform="matrix(1,0,0,1,877.2625732421875,1481.800048828125)" style="cursor: default;"><rect joint-selector="rect" id="v-2951" fill="#ffffff" rx="3" ry="3" x="0" y="0" width="0" height="0"  display="none"></rect><text joint-selector="text" id="v-2950" fill="#000000" font-size="14" text-anchor="middle" text-vertical-anchor="middle" pointer-events="none"></text></g></g></g><!--z-index:51--><g   id="j_255"  style="opacity: 1;"><path fill="none" cursor="pointer" stroke="transparent" stroke-linecap="round" joint-selector="wrapper" id="v-2968" stroke-width="10" stroke-linejoin="round" d="M 588.83 1419 L 864 1784 C 868 1789.333333333333 873.3333333333333 1791.9999999999998 880 1792 L 1090 1792"></path><path fill="none" pointer-events="none" joint-selector="line" id="v-2967" stroke="#444444" stroke-width="2" stroke-linejoin="round" stroke-dasharray="8 8" d="M 588.83 1419 L 864 1784 C 868 1789.333333333333 873.3333333333333 1791.9999999999998 880 1792 L 1090 1792" marker-end="url(#v-21252848929)"></path><g id="v-2957" ><g id="v-2958"  label-idx="0" cursor="move" transform="matrix(1,0,0,1,871.4088134765625,1776.7979736328125)" style="cursor: default;"><rect joint-selector="rect" id="v-2962" fill="#ffffff" rx="3" ry="3" x="-86.69303131103516" y="-32.65116500854492" width="175.39199829101562" height="60.613956451416016" pointer-events="none"  style="display: block;"></rect><text joint-selector="text" id="v-2961" font-size="24px" xml:space="preserve" fill="#444444" text-anchor="middle" pointer-events="none" font-family="Tahoma, Verdana, Helvetica, Arial" font-weight="normal"  style="display: block;"><tspan dy="-0.3em" >Llama endpoints</tspan><tspan dy="1.2em" x="0" >de Recovery</tspan></text></g><g id="v-2959"  label-idx="1" cursor="move" transform="matrix(1,0,0,1,871.4088134765625,1821.5980224609375)" style="cursor: default;"><rect joint-selector="rect" id="v-2964" fill="#ffffff" rx="3" ry="3" x="-53.76061248779297" y="-10.86697769165039" width="107.52122497558594" height="19.0883731842041"  pointer-events="none" style="display: block;"></rect><text joint-selector="text" id="v-2963" font-size="16.799999999999997px" xml:space="preserve" fill="#444444" text-anchor="middle" pointer-events="none" font-family="Tahoma, Verdana, Helvetica, Arial" font-weight="normal"  style="display: block;"><tspan dy="0.3em" >[JSON/HTTPS]</tspan></text></g><g id="v-2960"  label-idx="2" cursor="move" transform="matrix(1,0,0,1,785.2236938476562,1732.571533203125)" style="cursor: default;"><rect joint-selector="rect" id="v-2966" fill="#ffffff" rx="3" ry="3" x="0" y="0" width="0" height="0"  display="none"></rect><text joint-selector="text" id="v-2965" fill="#000000" font-size="14" text-anchor="middle" text-vertical-anchor="middle" pointer-events="none"></text></g></g></g><!--z-index:52--><g   id="j_256"  style="opacity: 1;"><path fill="none" cursor="pointer" stroke="transparent" stroke-linecap="round" joint-selector="wrapper" id="v-2983" stroke-width="10" stroke-linejoin="round" d="M 543.24 1419 L 866 2133 C 868.6666666666666 2139 873.3333333333333 2142 880 2142 L 1090 2142"></path><path fill="none" pointer-events="none" joint-selector="line" id="v-2982" stroke="#444444" stroke-width="2" stroke-linejoin="round" stroke-dasharray="8 8" d="M 543.24 1419 L 866 2133 C 868.6666666666666 2139 873.3333333333333 2142 880 2142 L 1090 2142" marker-end="url(#v-21252848929)"></path><g id="v-2972" ><g id="v-2973"  label-idx="0" cursor="move" transform="matrix(1,0,0,1,871.3367919921875,2126.243408203125)" style="cursor: default;"><rect joint-selector="rect" id="v-2977" fill="#ffffff" rx="3" ry="3" x="-86.69303131103516" y="-32.65116500854492" width="175.39199829101562" height="60.613956451416016" pointer-events="none"  style="display: block;"></rect><text joint-selector="text" id="v-2976" font-size="24px" xml:space="preserve" fill="#444444" text-anchor="middle" pointer-events="none" font-family="Tahoma, Verdana, Helvetica, Arial" font-weight="normal"  style="display: block;"><tspan dy="-0.3em" >Llama endpoints</tspan><tspan dy="1.2em" x="0" >de Audit</tspan></text></g><g id="v-2974"  label-idx="1" cursor="move" transform="matrix(1,0,0,1,871.3367919921875,2171.043212890625)" style="cursor: default;"><rect joint-selector="rect" id="v-2979" fill="#ffffff" rx="3" ry="3" x="-53.76061248779297" y="-10.86697769165039" width="107.52122497558594" height="19.0883731842041"  pointer-events="none" style="display: block;"></rect><text joint-selector="text" id="v-2978" font-size="16.799999999999997px" xml:space="preserve" fill="#444444" text-anchor="middle" pointer-events="none" font-family="Tahoma, Verdana, Helvetica, Arial" font-weight="normal"  style="display: block;"><tspan dy="0.3em" >[JSON/HTTPS]</tspan></text></g><g id="v-2975"  label-idx="2" cursor="move" transform="matrix(1,0,0,1,741.5258178710938,1919.563720703125)" style="cursor: default;"><rect joint-selector="rect" id="v-2981" fill="#ffffff" rx="3" ry="3" x="0" y="0" width="0" height="0"  display="none"></rect><text joint-selector="text" id="v-2980" fill="#000000" font-size="14" text-anchor="middle" text-vertical-anchor="middle" pointer-events="none"></text></g></g></g><!--z-index:53--><!--z-index:54--><!--z-index:55--><!--z-index:56--><!--z-index:57--><!--z-index:58--><!--z-index:59--><!--z-index:60--><!--z-index:61--><!--z-index:62--><!--z-index:63--><!--z-index:64--><!--z-index:65--></g><g  style="user-select: none;"></g><g ></g><g  display="none"></g></g></svg>