<svg xmlns="http://www.w3.org/2000/svg" xmlns:xlink="http://www.w3.org/1999/xlink" version="1.1" style="background: #ffffff" viewBox="0 0 5000 1911"><style id="v-3" type="text/css">        .joint-element .scalable * {            vector-effect: non-scaling-stroke;        }    </style><defs joint-selector="defs"><marker id="v-21252848929" orient="auto" overflow="visible" markerUnits="userSpaceOnUse"><path id="v-128" stroke="#444444" fill="#444444" transform="rotate(180)" d="M 20 -10 0 0 20 10 Z"></path></marker></defs><g joint-selector="layers"  transform="matrix(1,0,0,1,0,0)"><g  style="pointer-events: none;"></g><g ></g><g  style="user-select: none;"><!--z-index:0--><!--z-index:1--><!--z-index:2--><!--z-index:3--><!--z-index:4--><!--z-index:5--><!--z-index:6--><!--z-index:7--><!--z-index:8--><!--z-index:9--><!--z-index:10--><!--z-index:11--><!--z-index:12--><!--z-index:13--><!--z-index:14--><!--z-index:15--><!--z-index:16--><!--z-index:17--><!--z-index:18--><!--z-index:19--><!--z-index:20--><!--z-index:21--><!--z-index:22--><!--z-index:23--><!--z-index:24--><!--z-index:25--><!--z-index:26--><!--z-index:27--><g   id="j_235"  transform="translate(20,1867)"><g id="v-2503"><text  id="v-2504" font-size="24px" xml:space="preserve" y="0.8em" font-weight="normal" text-anchor="start" fill="#444444" pointer-events="none" display="block" font-family="Tahoma, Verdana, Helvetica, Arial"><tspan dy="0" >jueves, 9 de julio de 2026, 5:28 p. m. hora estándar de Perú</tspan></text></g></g><!--z-index:28--><g   id="j_234"  transform="translate(20,1833)"><g id="v-2501"><text  id="v-2502" font-size="24px" xml:space="preserve" y="0.8em" font-weight="normal" text-anchor="start" fill="#444444" pointer-events="none" display="block" font-family="Tahoma, Verdana, Helvetica, Arial"><tspan dy="0" >Component View: IAM Context</tspan></text></g></g><!--z-index:29--><g   id="j_233"  transform="translate(20,1787)"><g id="v-2499"><text  id="v-2500" font-size="36px" xml:space="preserve" y="0.8em" font-weight="normal" text-anchor="start" fill="#444444" pointer-events="none" display="block" font-family="Tahoma, Verdana, Helvetica, Arial"><tspan dy="0" >Component View: CortiSense - Identity and Access Management</tspan></text></g></g><!--z-index:30--><g   id="j_237"  transform="translate(200,142)" style="; opacity: 1;"><g id="v-2523"><rect  id="v-2524" width="4600" height="1511" rx="0" ry="0" stroke-width="2" pointer-events="none" stroke="#444444" fill="#ffffff" opacity="1" stroke-dasharray=""></rect><text  id="v-2525" font-size="33.599999999999994px" xml:space="preserve" y="1472" font-weight="bold" text-anchor="start" pointer-events="visible" font-family="Tahoma, Verdana, Helvetica, Arial" fill="#444444" transform="matrix(1,0,0,1,15,0)"><tspan dy="0" >CortiSense</tspan></text><text  id="v-2526" font-size="16.799999999999997px" xml:space="preserve" y="1496" font-weight="normal" text-anchor="start" pointer-events="visible" font-family="Tahoma, Verdana, Helvetica, Arial" fill="#444444" transform="matrix(1,0,0,1,15,0)"><tspan dy="0" >[Software System]</tspan></text><image  id="v-2527" pointer-events="visible"></image></g></g><!--z-index:31--><g   id="j_236"  transform="translate(250,719)" style=""><g  id="v-2511" style="opacity: 1;"><rect  id="v-2512" rx="10" ry="10" stroke-width="2" pointer-events="visiblePainted" fill="#2672c0" stroke="#2672c0" stroke-dasharray="" width="450" height="302" style="fill: rgb(38, 114, 192); stroke: rgb(38, 114, 192);"></rect><rect  id="v-2513" rx="10" ry="10" stroke-width="0" pointer-events="visiblePainted" fill="#2a7fd5" stroke="#2672c0" width="446" height="260" x="2" y="40" style="fill: rgb(42, 127, 213);"></rect><ellipse  id="v-2520" fill="#2a7fd5" cx="20" cy="20" rx="10" ry="10" style="fill: rgb(42, 127, 213);"></ellipse><ellipse  id="v-2521" fill="#2a7fd5" cx="50" cy="20" rx="10" ry="10" style="fill: rgb(42, 127, 213);"></ellipse><ellipse  id="v-2522" fill="#2a7fd5" cx="80" cy="20" rx="10" ry="10" style="fill: rgb(42, 127, 213);"></ellipse><rect  id="v-2514" rx="10" ry="10" stroke-width="0" pointer-events="visiblePainted" fill="#2a7fd5" width="340" height="20" x="100" y="10" style="fill: rgb(42, 127, 213);"></rect><text  id="v-2515" font-size="33.599999999999994px" xml:space="preserve" y="106.9" font-weight="bold" text-anchor="middle" pointer-events="visible" font-family="Tahoma, Verdana, Helvetica, Arial" fill="#ffffff" dominant-baseline="hanging" transform="matrix(1,0,0,1,225,0)" style="fill: rgb(255, 255, 255);"><tspan dy="0" >Single Page Application</tspan></text><text  id="v-2516" font-size="16.799999999999997px" xml:space="preserve" y="148.5" text-anchor="middle" font-family="Tahoma, Verdana, Helvetica, Arial" fill="#ffffff" dominant-baseline="hanging" transform="matrix(1,0,0,1,225,0)" style="display: block; fill: rgb(255, 255, 255);"><tspan dy="0" >[Container: Vue 3]</tspan></text><text  id="v-2517" font-size="24px" xml:space="preserve" y="180.3" text-anchor="middle" font-family="Tahoma, Verdana, Helvetica, Arial" fill="#ffffff" dominant-baseline="hanging" transform="matrix(1,0,0,1,225,0)" style="display: block; fill: rgb(255, 255, 255);"><tspan dy="0" >Main interface for administrators,</tspan><tspan dy="1.2em" x="0" >doctors, and staff.</tspan></text><g  id="v-2518" font-weight="normal" text-anchor="middle" color="#ffffff" transform="matrix(1,0,0,1,222.5,268)" display="none" style="fill: rgb(255, 255, 255);"><g ></g><g ></g><g ></g><g ></g></g><image  id="v-2519"></image></g></g><!--z-index:32--><g   id="j_238"  transform="translate(3460,192)" style=""><g  id="v-2531" style="opacity: 1;"><path  d="M 0,30 a 225,30 0,0,0 450 0 a 225,30 0,0,0 -450 0 l 0,240 a 225,30 0,0,0 450 0 l 0,-240" id="v-2532" stroke-width="2" pointer-events="visiblePainted" fill="#e51c23" stroke="#ce1920" stroke-dasharray="" style="fill: rgb(229, 28, 35); stroke: rgb(206, 25, 32);"></path><rect  id="v-2533" stroke-width="0" pointer-events="visiblePainted" fill="none" stroke="none" width="450" height="270" x="0" y="30"></rect><text  id="v-2534" font-size="33.599999999999994px" xml:space="preserve" y="101.9" font-weight="bold" text-anchor="middle" pointer-events="visible" font-family="Tahoma, Verdana, Helvetica, Arial" fill="#ffffff" dominant-baseline="hanging" transform="matrix(1,0,0,1,225,0)" style="fill: rgb(255, 255, 255);"><tspan dy="0" >Database</tspan></text><text  id="v-2535" font-size="16.799999999999997px" xml:space="preserve" y="143.5" text-anchor="middle" font-family="Tahoma, Verdana, Helvetica, Arial" fill="#ffffff" dominant-baseline="hanging" transform="matrix(1,0,0,1,225,0)" style="display: block; fill: rgb(255, 255, 255);"><tspan dy="0" >[Container: MySQL]</tspan></text><text  id="v-2536" font-size="24px" xml:space="preserve" y="175.3" text-anchor="middle" font-family="Tahoma, Verdana, Helvetica, Arial" fill="#ffffff" dominant-baseline="hanging" transform="matrix(1,0,0,1,225,0)" style="display: block; fill: rgb(255, 255, 255);"><tspan dy="0" >Stores users, shifts, subscriptions,</tspan><tspan dy="1.2em" x="0" >telemetry, and logs.</tspan></text><g  id="v-2537" font-weight="normal" text-anchor="middle" color="#ffffff" transform="matrix(1,0,0,1,222.5,268)" display="none" style="fill: rgb(255, 255, 255);"><g ></g><g ></g><g ></g><g ></g></g><image  id="v-2538"></image></g></g><!--z-index:33--><g   id="j_239"  transform="translate(4300,1018)" style=""><g  id="v-2542" style="opacity: 1;"><rect  id="v-2543" rx="20" ry="20" stroke-width="2" pointer-events="visiblePainted" fill="#2ba356" stroke="#27934d" stroke-dasharray="" width="450" height="300" style="fill: rgb(43, 163, 86); stroke: rgb(39, 147, 77);"></rect><text  id="v-2544" font-size="33.599999999999994px" xml:space="preserve" y="86.9" font-weight="bold" text-anchor="middle" pointer-events="visible" font-family="Tahoma, Verdana, Helvetica, Arial" fill="#ffffff" dominant-baseline="hanging" transform="matrix(1,0,0,1,225,0)" style="fill: rgb(255, 255, 255);"><tspan dy="0" >Shared Kernel</tspan></text><text  id="v-2545" font-size="16.799999999999997px" xml:space="preserve" y="128.5" text-anchor="middle" font-family="Tahoma, Verdana, Helvetica, Arial" fill="#ffffff" dominant-baseline="hanging" transform="matrix(1,0,0,1,225,0)" style="display: block; fill: rgb(255, 255, 255);"><tspan dy="0" >[Container: C# Class Library]</tspan></text><text  id="v-2546" font-size="24px" xml:space="preserve" y="160.3" text-anchor="middle" font-family="Tahoma, Verdana, Helvetica, Arial" fill="#ffffff" dominant-baseline="hanging" transform="matrix(1,0,0,1,225,0)" style="display: block; fill: rgb(255, 255, 255);"><tspan dy="0" >Centralizes base classes, exceptions,</tspan><tspan dy="1.2em" x="0" >and cross-cutting abstractions.</tspan></text><g  id="v-2547" color="#ffffff" transform="matrix(1,0,0,1,210,268)" display="none" style="fill: rgb(255, 255, 255);"><g  transform="translate(5 0)"><svg xmlns="http://www.w3.org/2000/svg" width="20" height="20" fill="currentColor" viewBox="0 0 16 16"><path fill-rule="evenodd" d="M6.5 12a5.5 5.5 0 1 0 0-11 5.5 5.5 0 0 0 0 11zM13 6.5a6.5 6.5 0 1 1-13 0 6.5 6.5 0 0 1 13 0z"></path><path d="M10.344 11.742c.03.04.062.078.098.115l3.85 3.85a1 1 0 0 0 1.415-1.414l-3.85-3.85a1.007 1.007 0 0 0-.115-.1 6.538 6.538 0 0 1-1.398 1.4z"></path><path fill-rule="evenodd" d="M6.5 3a.5.5 0 0 1 .5.5V6h2.5a.5.5 0 0 1 0 1H7v2.5a.5.5 0 0 1-1 0V7H3.5a.5.5 0 0 1 0-1H6V3.5a.5.5 0 0 1 .5-.5z"></path></svg></g><g ></g><g ></g><g ></g></g><image  id="v-2548"></image></g></g><!--z-index:34--><g   id="j_241"  transform="translate(1040,836)" style="; opacity: 1;"><g id="v-2559"><rect  id="v-2560" width="2920" height="688" rx="20" ry="20" stroke-width="2" pointer-events="none" stroke="#27934d" fill="#ffffff" opacity="1" stroke-dasharray=""></rect><text  id="v-2561" font-size="33.599999999999994px" xml:space="preserve" y="649" font-weight="bold" text-anchor="start" pointer-events="visible" font-family="Tahoma, Verdana, Helvetica, Arial" fill="#27934d" transform="matrix(1,0,0,1,15,0)"><tspan dy="0" >Identity and Access Management</tspan></text><text  id="v-2562" font-size="16.799999999999997px" xml:space="preserve" y="673" font-weight="normal" text-anchor="start" pointer-events="visible" font-family="Tahoma, Verdana, Helvetica, Arial" fill="#27934d" transform="matrix(1,0,0,1,15,0)"><tspan dy="0" >[Container]</tspan></text><image  id="v-2563" pointer-events="visible"></image></g></g><!--z-index:35--><g   id="j_245"  transform="translate(1880,292)" style=""><g  id="v-2600" style="opacity: 1;"><rect  id="v-2601" rx="20" ry="20" stroke-width="2" pointer-events="visiblePainted" fill="#2ba356" stroke="#27934d" stroke-dasharray="" width="450" height="300" style="fill: rgb(43, 163, 86); stroke: rgb(39, 147, 77);"></rect><text  id="v-2602" font-size="33.599999999999994px" xml:space="preserve" y="66.74000000000001" font-weight="bold" text-anchor="middle" pointer-events="visible" font-family="Tahoma, Verdana, Helvetica, Arial" fill="#ffffff" dominant-baseline="hanging" transform="matrix(1,0,0,1,225,0)" style="fill: rgb(255, 255, 255);"><tspan dy="0" >Subscription and Plan</tspan><tspan dy="1.2em" x="0" >Management</tspan></text><text  id="v-2603" font-size="16.799999999999997px" xml:space="preserve" y="148.66" text-anchor="middle" font-family="Tahoma, Verdana, Helvetica, Arial" fill="#ffffff" dominant-baseline="hanging" transform="matrix(1,0,0,1,225,0)" style="display: block; fill: rgb(255, 255, 255);"><tspan dy="0" >[Container: C# Class Library]</tspan></text><text  id="v-2604" font-size="24px" xml:space="preserve" y="180.45999999999998" text-anchor="middle" font-family="Tahoma, Verdana, Helvetica, Arial" fill="#ffffff" dominant-baseline="hanging" transform="matrix(1,0,0,1,225,0)" style="display: block; fill: rgb(255, 255, 255);"><tspan dy="0" >Handles plans, billing, and</tspan><tspan dy="1.2em" x="0" >organizational access.</tspan></text><g  id="v-2605" color="#ffffff" transform="matrix(1,0,0,1,210,268)" display="none" style="fill: rgb(255, 255, 255);"><g  transform="translate(5 0)"><svg xmlns="http://www.w3.org/2000/svg" width="20" height="20" fill="currentColor" viewBox="0 0 16 16"><path fill-rule="evenodd" d="M6.5 12a5.5 5.5 0 1 0 0-11 5.5 5.5 0 0 0 0 11zM13 6.5a6.5 6.5 0 1 1-13 0 6.5 6.5 0 0 1 13 0z"></path><path d="M10.344 11.742c.03.04.062.078.098.115l3.85 3.85a1 1 0 0 0 1.415-1.414l-3.85-3.85a1.007 1.007 0 0 0-.115-.1 6.538 6.538 0 0 1-1.398 1.4z"></path><path fill-rule="evenodd" d="M6.5 3a.5.5 0 0 1 .5.5V6h2.5a.5.5 0 0 1 0 1H7v2.5a.5.5 0 0 1-1 0V7H3.5a.5.5 0 0 1 0-1H6V3.5a.5.5 0 0 1 .5-.5z"></path></svg></g><g ></g><g ></g><g ></g></g><image  id="v-2606"></image></g></g><!--z-index:36--><g   id="j_240"  transform="translate(1090,1068)" style=""><g  id="v-2552" style="opacity: 1;"><rect  id="v-2553" rx="20" ry="20" stroke-width="2" pointer-events="visiblePainted" fill="#7b7b7b" stroke="#6f6f6f" stroke-dasharray="" width="450" height="300" style="fill: rgb(123, 123, 123); stroke: rgb(111, 111, 111);"></rect><text  id="v-2554" font-size="33.599999999999994px" xml:space="preserve" y="86.9" font-weight="bold" text-anchor="middle" pointer-events="visible" font-family="Tahoma, Verdana, Helvetica, Arial" fill="#ffffff" dominant-baseline="hanging" transform="matrix(1,0,0,1,225,0)" style="fill: rgb(255, 255, 255);"><tspan dy="0" >Interfaces</tspan></text><text  id="v-2555" font-size="16.799999999999997px" xml:space="preserve" y="128.5" text-anchor="middle" font-family="Tahoma, Verdana, Helvetica, Arial" fill="#ffffff" dominant-baseline="hanging" transform="matrix(1,0,0,1,225,0)" style="display: block; fill: rgb(255, 255, 255);"><tspan dy="0" >[Component: ASP.NET Core REST]</tspan></text><text  id="v-2556" font-size="24px" xml:space="preserve" y="160.3" text-anchor="middle" font-family="Tahoma, Verdana, Helvetica, Arial" fill="#ffffff" dominant-baseline="hanging" transform="matrix(1,0,0,1,225,0)" style="display: block; fill: rgb(255, 255, 255);"><tspan dy="0" >1: interfaces - REST endpoints for</tspan><tspan dy="1.2em" x="0" >auth and user management.</tspan></text><g  id="v-2557" color="#ffffff" transform="matrix(1,0,0,1,222.5,268)" display="none" style="fill: rgb(255, 255, 255);"><g ></g><g ></g><g ></g><g ></g></g><image  id="v-2558"></image></g></g><!--z-index:37--><g   id="j_242"  transform="translate(1880,1095)" style=""><g  id="v-2567" style="opacity: 1;"><rect  id="v-2568" rx="20" ry="20" stroke-width="2" pointer-events="visiblePainted" fill="#7b7b7b" stroke="#6f6f6f" stroke-dasharray="" width="450" height="300" style="fill: rgb(123, 123, 123); stroke: rgb(111, 111, 111);"></rect><text  id="v-2569" font-size="33.599999999999994px" xml:space="preserve" y="86.9" font-weight="bold" text-anchor="middle" pointer-events="visible" font-family="Tahoma, Verdana, Helvetica, Arial" fill="#ffffff" dominant-baseline="hanging" transform="matrix(1,0,0,1,225,0)" style="fill: rgb(255, 255, 255);"><tspan dy="0" >Application</tspan></text><text  id="v-2570" font-size="16.799999999999997px" xml:space="preserve" y="128.5" text-anchor="middle" font-family="Tahoma, Verdana, Helvetica, Arial" fill="#ffffff" dominant-baseline="hanging" transform="matrix(1,0,0,1,225,0)" style="display: block; fill: rgb(255, 255, 255);"><tspan dy="0" >[Component: C# Service]</tspan></text><text  id="v-2571" font-size="24px" xml:space="preserve" y="160.3" text-anchor="middle" font-family="Tahoma, Verdana, Helvetica, Arial" fill="#ffffff" dominant-baseline="hanging" transform="matrix(1,0,0,1,225,0)" style="display: block; fill: rgb(255, 255, 255);"><tspan dy="0" >2: application - Auth, registration,</tspan><tspan dy="1.2em" x="0" >and invitation use cases.</tspan></text><g  id="v-2572" color="#ffffff" transform="matrix(1,0,0,1,222.5,268)" display="none" style="fill: rgb(255, 255, 255);"><g ></g><g ></g><g ></g><g ></g></g><image  id="v-2573"></image></g></g><!--z-index:38--><g   id="j_243"  transform="translate(2670,986)" style=""><g  id="v-2577" style="opacity: 1;"><rect  id="v-2578" rx="20" ry="20" stroke-width="2" pointer-events="visiblePainted" fill="#7b7b7b" stroke="#6f6f6f" stroke-dasharray="" width="450" height="300" style="fill: rgb(123, 123, 123); stroke: rgb(111, 111, 111);"></rect><text  id="v-2579" font-size="33.599999999999994px" xml:space="preserve" y="86.9" font-weight="bold" text-anchor="middle" pointer-events="visible" font-family="Tahoma, Verdana, Helvetica, Arial" fill="#ffffff" dominant-baseline="hanging" transform="matrix(1,0,0,1,225,0)" style="fill: rgb(255, 255, 255);"><tspan dy="0" >Infrastructure</tspan></text><text  id="v-2580" font-size="16.799999999999997px" xml:space="preserve" y="128.5" text-anchor="middle" font-family="Tahoma, Verdana, Helvetica, Arial" fill="#ffffff" dominant-baseline="hanging" transform="matrix(1,0,0,1,225,0)" style="display: block; fill: rgb(255, 255, 255);"><tspan dy="0" >[Component: EF Core]</tspan></text><text  id="v-2581" font-size="24px" xml:space="preserve" y="160.3" text-anchor="middle" font-family="Tahoma, Verdana, Helvetica, Arial" fill="#ffffff" dominant-baseline="hanging" transform="matrix(1,0,0,1,225,0)" style="display: block; fill: rgb(255, 255, 255);"><tspan dy="0" >4: infrastructure - Persists users,</tspan><tspan dy="1.2em" x="0" >roles, and tokens.</tspan></text><g  id="v-2582" color="#ffffff" transform="matrix(1,0,0,1,222.5,268)" display="none" style="fill: rgb(255, 255, 255);"><g ></g><g ></g><g ></g><g ></g></g><image  id="v-2583"></image></g></g><!--z-index:39--><g   id="j_244"  transform="translate(3460,886)" style=""><g  id="v-2587" style="opacity: 1;"><rect  id="v-2588" rx="20" ry="20" stroke-width="2" pointer-events="visiblePainted" fill="#7b7b7b" stroke="#6f6f6f" stroke-dasharray="" width="450" height="300" style="fill: rgb(123, 123, 123); stroke: rgb(111, 111, 111);"></rect><text  id="v-2589" font-size="33.599999999999994px" xml:space="preserve" y="86.9" font-weight="bold" text-anchor="middle" pointer-events="visible" font-family="Tahoma, Verdana, Helvetica, Arial" fill="#ffffff" dominant-baseline="hanging" transform="matrix(1,0,0,1,225,0)" style="fill: rgb(255, 255, 255);"><tspan dy="0" >Domain</tspan></text><text  id="v-2590" font-size="16.799999999999997px" xml:space="preserve" y="128.5" text-anchor="middle" font-family="Tahoma, Verdana, Helvetica, Arial" fill="#ffffff" dominant-baseline="hanging" transform="matrix(1,0,0,1,225,0)" style="display: block; fill: rgb(255, 255, 255);"><tspan dy="0" >[Component: C# Domain]</tspan></text><text  id="v-2591" font-size="24px" xml:space="preserve" y="160.3" text-anchor="middle" font-family="Tahoma, Verdana, Helvetica, Arial" fill="#ffffff" dominant-baseline="hanging" transform="matrix(1,0,0,1,225,0)" style="display: block; fill: rgb(255, 255, 255);"><tspan dy="0" >3: domain - User, Role, and Auth</tspan><tspan dy="1.2em" x="0" >aggregates.</tspan></text><g  id="v-2592" color="#ffffff" transform="matrix(1,0,0,1,222.5,268)" display="none" style="fill: rgb(255, 255, 255);"><g ></g><g ></g><g ></g><g ></g></g><image  id="v-2593"></image></g></g><!--z-index:40--><g   id="j_246"  style="opacity: 1;"><path fill="none" cursor="pointer" stroke="transparent" stroke-linecap="round" joint-selector="wrapper" id="v-2621" stroke-width="10" stroke-linejoin="round" d="M 646.1 1021 L 863 1212 C 867.6666666666666 1216.3999999999999 873.3333333333333 1218.7333333333331 880 1219 L 1090 1218.3"></path><path fill="none" pointer-events="none" joint-selector="line" id="v-2620" stroke="#444444" stroke-width="2" stroke-linejoin="round" stroke-dasharray="8 8" d="M 646.1 1021 L 863 1212 C 867.6666666666666 1216.3999999999999 873.3333333333333 1218.7333333333331 880 1219 L 1090 1218.3" marker-end="url(#v-21252848929)"></path><g id="v-2610" ><g id="v-2611"  label-idx="0" cursor="move" transform="matrix(1,0,0,1,871.2171020507812,1203.8367919921875)" style="cursor: default;"><rect joint-selector="rect" id="v-2615" fill="#ffffff" rx="3" ry="3" x="-76.48981475830078" y="-30.455810546875" width="151.53025817871094" height="56.706974029541016" pointer-events="none"  style="display: block;"></rect><text joint-selector="text" id="v-2614" font-size="24px" xml:space="preserve" fill="#444444" text-anchor="middle" pointer-events="none" font-family="Tahoma, Verdana, Helvetica, Arial" font-weight="normal"  style="display: block;"><tspan dy="-0.3em" >Authenticates</tspan><tspan dy="1.2em" x="0" >users</tspan></text></g><g id="v-2612"  label-idx="1" cursor="move" transform="matrix(1,0,0,1,871.2171020507812,1248.63671875)" style="cursor: default;"><rect joint-selector="rect" id="v-2617" fill="#ffffff" rx="3" ry="3" x="-53.74272537231445" y="-13.564648628234863" width="110.32485961914062" height="23.255809783935547"  pointer-events="none" style="display: block;"></rect><text joint-selector="text" id="v-2616" font-size="16.799999999999997px" xml:space="preserve" fill="#444444" text-anchor="middle" pointer-events="none" font-family="Tahoma, Verdana, Helvetica, Arial" font-weight="normal"  style="display: block;"><tspan dy="0.3em" >[JSON/HTTPS]</tspan></text></g><g id="v-2613"  label-idx="2" cursor="move" transform="matrix(1,0,0,1,830.4081420898438,1231.9058837890625)" style="cursor: default;"><rect joint-selector="rect" id="v-2619" fill="#ffffff" rx="3" ry="3" x="0" y="0" width="0" height="0"  display="none"></rect><text joint-selector="text" id="v-2618" fill="#000000" font-size="14" text-anchor="middle" text-vertical-anchor="middle" pointer-events="none"></text></g></g></g><!--z-index:41--><g   id="j_247"  style="opacity: 1;"><path fill="none" cursor="pointer" stroke="transparent" stroke-linecap="round" joint-selector="wrapper" id="v-2633" stroke-width="10" stroke-linejoin="round" d="M 1540 1233.38 L 1700 1244 C 1706.6666666666665 1244.6666666666665 1713.3333333333333 1245 1720 1245 L 1880 1245"></path><path fill="none" pointer-events="none" joint-selector="line" id="v-2632" stroke="#444444" stroke-width="2" stroke-linejoin="round" stroke-dasharray="8 8" d="M 1540 1233.38 L 1700 1244 C 1706.6666666666665 1244.6666666666665 1713.3333333333333 1245 1720 1245 L 1880 1245" marker-end="url(#v-21252848929)"></path><g id="v-2625" ><g id="v-2626"  label-idx="0" cursor="move" transform="matrix(1,0,0,1,1710,1244.75)" style="cursor: default;"><rect joint-selector="rect" id="v-2629" fill="#ffffff" rx="3" ry="3" x="-66.42440795898438" y="-16.055810928344727" width="133.74220275878906" height="27.906972885131836" pointer-events="none"  style="display: block;"></rect><text joint-selector="text" id="v-2628" font-size="24px" xml:space="preserve" fill="#444444" text-anchor="middle" pointer-events="none" font-family="Tahoma, Verdana, Helvetica, Arial" font-weight="normal"  style="display: block;"><tspan dy="0.3em" >Delegates to</tspan></text></g><g id="v-2627"  label-idx="1" cursor="move" transform="matrix(1,0,0,1,1700,1256.75)" style="cursor: default;"><rect joint-selector="rect" id="v-2631" fill="#ffffff" rx="3" ry="3" x="0" y="-2.2737367544323206e-13" width="0" height="0"  display="none"></rect><text joint-selector="text" id="v-2630" fill="#000000" font-size="14" text-anchor="middle" text-vertical-anchor="middle" pointer-events="none"></text></g></g></g><!--z-index:42--><g   id="j_248"  style="opacity: 1;"><path fill="none" cursor="pointer" stroke="transparent" stroke-linecap="round" joint-selector="wrapper" id="v-2645" stroke-width="10" stroke-linejoin="round" d="M 2330 1208.2 L 2490 1182 C 2496.6666666666665 1180.9333333333334 2503.333333333333 1179.9333333333334 2510 1179 L 2670 1161.29"></path><path fill="none" pointer-events="none" joint-selector="line" id="v-2644" stroke="#444444" stroke-width="2" stroke-linejoin="round" stroke-dasharray="8 8" d="M 2330 1208.2 L 2490 1182 C 2496.6666666666665 1180.9333333333334 2503.333333333333 1179.9333333333334 2510 1179 L 2670 1161.29" marker-end="url(#v-21252848929)"></path><g id="v-2637" ><g id="v-2638"  label-idx="0" cursor="move" transform="matrix(1,0,0,1,2500,1180.449951171875)" style="cursor: default;"><rect joint-selector="rect" id="v-2641" fill="#ffffff" rx="3" ry="3" x="-58.5755729675293" y="-16.055810928344727" width="118.49604797363281" height="27.906972885131836" pointer-events="none"  style="display: block;"></rect><text joint-selector="text" id="v-2640" font-size="24px" xml:space="preserve" fill="#444444" text-anchor="middle" pointer-events="none" font-family="Tahoma, Verdana, Helvetica, Arial" font-weight="normal"  style="display: block;"><tspan dy="0.3em" >Persists via</tspan></text></g><g id="v-2639"  label-idx="1" cursor="move" transform="matrix(1,0,0,1,2490,1192.449951171875)" style="cursor: default;"><rect joint-selector="rect" id="v-2643" fill="#ffffff" rx="3" ry="3" x="-4.547473508864641e-13" y="0" width="0" height="0"  display="none"></rect><text joint-selector="text" id="v-2642" fill="#000000" font-size="14" text-anchor="middle" text-vertical-anchor="middle" pointer-events="none"></text></g></g></g><!--z-index:43--><g   id="j_249"  style="opacity: 1;"><path fill="none" cursor="pointer" stroke="transparent" stroke-linecap="round" joint-selector="wrapper" id="v-2657" stroke-width="10" stroke-linejoin="round" d="M 3120 1136.11 L 3280 1136 C 3286.666666666666 1136.1333333333332 3293.333333333333 1135.4666666666665 3300 1134 L 3460 1093.08"></path><path fill="none" pointer-events="none" joint-selector="line" id="v-2656" stroke="#444444" stroke-width="2" stroke-linejoin="round" stroke-dasharray="8 8" d="M 3120 1136.11 L 3280 1136 C 3286.666666666666 1136.1333333333332 3293.333333333333 1135.4666666666665 3300 1134 L 3460 1093.08" marker-end="url(#v-21252848929)"></path><g id="v-2649" ><g id="v-2650"  label-idx="0" cursor="move" transform="matrix(1,0,0,1,3289.9609375,1135.6038818359375)" style="cursor: default;"><rect joint-selector="rect" id="v-2653" fill="#ffffff" rx="3" ry="3" x="-94.76742553710938" y="-30.455810546875" width="192.74588012695312" height="56.706974029541016" pointer-events="none"  style="display: block;"></rect><text joint-selector="text" id="v-2652" font-size="24px" xml:space="preserve" fill="#444444" text-anchor="middle" pointer-events="none" font-family="Tahoma, Verdana, Helvetica, Arial" font-weight="normal"  style="display: block;"><tspan dy="-0.3em" >Maps and persists</tspan><tspan dy="1.2em" x="0" >domain entities</tspan></text></g><g id="v-2651"  label-idx="1" cursor="move" transform="matrix(1,0,0,1,3279.9609375,1162.00390625)" style="cursor: default;"><rect joint-selector="rect" id="v-2655" fill="#ffffff" rx="3" ry="3" x="0" y="0" width="0" height="0"  display="none"></rect><text joint-selector="text" id="v-2654" fill="#000000" font-size="14" text-anchor="middle" text-vertical-anchor="middle" pointer-events="none"></text></g></g></g><!--z-index:44--><g   id="j_250"  style="opacity: 1;"><path fill="none" cursor="pointer" stroke="transparent" stroke-linecap="round" joint-selector="wrapper" id="v-2669" stroke-width="10" stroke-linejoin="round" d="M 1525.26 1068 L 1702 942 C 1707.3333333333333 938.1333333333332 1713.3333333333333 936.1333333333332 1720 936 L 3280 936 C 3286.666666666666 936.1333333333332 3293.333333333333 937.1333333333332 3300 939 L 3460 979.15"></path><path fill="none" pointer-events="none" joint-selector="line" id="v-2668" stroke="#444444" stroke-width="2" stroke-linejoin="round" stroke-dasharray="8 8" d="M 1525.26 1068 L 1702 942 C 1707.3333333333333 938.1333333333332 1713.3333333333333 936.1333333333332 1720 936 L 3280 936 C 3286.666666666666 936.1333333333332 3293.333333333333 937.1333333333332 3300 939 L 3460 979.15" marker-end="url(#v-21252848929)"></path><g id="v-2661" ><g id="v-2662"  label-idx="0" cursor="move" transform="matrix(1,0,0,1,2500.577880859375,936)" style="cursor: default;"><rect joint-selector="rect" id="v-2665" fill="#ffffff" rx="3" ry="3" x="-67.62353515625" y="-30.455810546875" width="135.78128051757812" height="56.706974029541016" pointer-events="none"  style="display: block;"></rect><text joint-selector="text" id="v-2664" font-size="24px" xml:space="preserve" fill="#444444" text-anchor="middle" pointer-events="none" font-family="Tahoma, Verdana, Helvetica, Arial" font-weight="normal"  style="display: block;"><tspan dy="-0.3em" >Uses domain</tspan><tspan dy="1.2em" x="0" >resources</tspan></text></g><g id="v-2663"  label-idx="1" cursor="move" transform="matrix(1,0,0,1,2490.577880859375,962.4000244140625)" style="cursor: default;"><rect joint-selector="rect" id="v-2667" fill="#ffffff" rx="3" ry="3" x="0" y="0" width="0" height="0"  display="none"></rect><text joint-selector="text" id="v-2666" fill="#000000" font-size="14" text-anchor="middle" text-vertical-anchor="middle" pointer-events="none"></text></g></g></g><!--z-index:45--><g   id="j_251"  style="opacity: 1;"><path fill="none" cursor="pointer" stroke="transparent" stroke-linecap="round" joint-selector="wrapper" id="v-2681" stroke-width="10" stroke-linejoin="round" d="M 2258.82 1095 L 2493 867 C 2497.6666666666665 862.1999999999998 2503.333333333333 859.8666666666664 2510 860 L 3280 860 C 3286.666666666666 859.8666666666664 3292.9999999999995 861.1999999999998 3299 864 L 3460 935.63"></path><path fill="none" pointer-events="none" joint-selector="line" id="v-2680" stroke="#444444" stroke-width="2" stroke-linejoin="round" stroke-dasharray="8 8" d="M 2258.82 1095 L 2493 867 C 2497.6666666666665 862.1999999999998 2503.333333333333 859.8666666666664 2510 860 L 3280 860 C 3286.666666666666 859.8666666666664 3292.9999999999995 861.1999999999998 3299 864 L 3460 935.63" marker-end="url(#v-21252848929)"></path><g id="v-2673" ><g id="v-2674"  label-idx="0" cursor="move" transform="matrix(1,0,0,1,2895.2734375,860)" style="cursor: default;"><rect joint-selector="rect" id="v-2677" fill="#ffffff" rx="3" ry="3" x="-96.80231475830078" y="-16.055810928344727" width="196.8123779296875" height="27.906972885131836" pointer-events="none"  style="display: block;"></rect><text joint-selector="text" id="v-2676" font-size="24px" xml:space="preserve" fill="#444444" text-anchor="middle" pointer-events="none" font-family="Tahoma, Verdana, Helvetica, Arial" font-weight="normal"  style="display: block;"><tspan dy="0.3em" >Uses domain rules</tspan></text></g><g id="v-2675"  label-idx="1" cursor="move" transform="matrix(1,0,0,1,2885.2734375,872)" style="cursor: default;"><rect joint-selector="rect" id="v-2679" fill="#ffffff" rx="3" ry="3" x="-4.547473508864641e-13" y="0" width="0" height="0"  display="none"></rect><text joint-selector="text" id="v-2678" fill="#000000" font-size="14" text-anchor="middle" text-vertical-anchor="middle" pointer-events="none"></text></g></g></g><!--z-index:46--><g   id="j_252"  style="opacity: 1;"><path fill="none" cursor="pointer" stroke="transparent" stroke-linecap="round" joint-selector="wrapper" id="v-2696" stroke-width="10" stroke-linejoin="round" d="M 3056.89 986 L 3283 777 C 3287.666666666666 772.3333333333333 3292.333333333333 767.6666666666665 3297 763 L 3546.57 492"></path><path fill="none" pointer-events="none" joint-selector="line" id="v-2695" stroke="#444444" stroke-width="2" stroke-linejoin="round" stroke-dasharray="8 8" d="M 3056.89 986 L 3283 777 C 3287.666666666666 772.3333333333333 3292.333333333333 767.6666666666665 3297 763 L 3546.57 492" marker-end="url(#v-21252848929)"></path><g id="v-2685" ><g id="v-2686"  label-idx="0" cursor="move" transform="matrix(1,0,0,1,3290.08203125,756.5179443359375)" style="cursor: default;"><rect joint-selector="rect" id="v-2690" fill="#ffffff" rx="3" ry="3" x="-96.25725555419922" y="-30.455810546875" width="197.7849578857422" height="56.706974029541016" pointer-events="none"  style="display: block;"></rect><text joint-selector="text" id="v-2689" font-size="24px" xml:space="preserve" fill="#444444" text-anchor="middle" pointer-events="none" font-family="Tahoma, Verdana, Helvetica, Arial" font-weight="normal"  style="display: block;"><tspan dy="-0.3em" >Reads/Writes user</tspan><tspan dy="1.2em" x="0" >data</tspan></text></g><g id="v-2687"  label-idx="1" cursor="move" transform="matrix(1,0,0,1,3290.08203125,801.3179931640625)" style="cursor: default;"><rect joint-selector="rect" id="v-2692" fill="#ffffff" rx="3" ry="3" x="-38.88080978393555" y="-13.564648628234863" width="80.56412506103516" height="23.255809783935547"  pointer-events="none" style="display: block;"></rect><text joint-selector="text" id="v-2691" font-size="16.799999999999997px" xml:space="preserve" fill="#444444" text-anchor="middle" pointer-events="none" font-family="Tahoma, Verdana, Helvetica, Arial" font-weight="normal"  style="display: block;"><tspan dy="0.3em" >[SQL/TCP]</tspan></text></g><g id="v-2688"  label-idx="2" cursor="move" transform="matrix(1,0,0,1,3300.787109375,787.8291015625)" style="cursor: default;"><rect joint-selector="rect" id="v-2694" fill="#ffffff" rx="3" ry="3" x="-4.547473508864641e-13" y="0" width="0" height="0"  display="none"></rect><text joint-selector="text" id="v-2693" fill="#000000" font-size="14" text-anchor="middle" text-vertical-anchor="middle" pointer-events="none"></text></g></g></g><!--z-index:47--><g   id="j_253"  style="opacity: 1;"><path fill="none" cursor="pointer" stroke="transparent" stroke-linecap="round" joint-selector="wrapper" id="v-2708" stroke-width="10" stroke-linejoin="round" d="M 1540 1361.54 L 1702 1465 C 1707.3333333333333 1468.3333333333333 1713.3333333333333 1470 1720 1470 L 4120 1470 C 4126.666666666666 1470 4132.666666666666 1468 4138 1464 L 4328.81 1318"></path><path fill="none" pointer-events="none" joint-selector="line" id="v-2707" stroke="#444444" stroke-width="2" stroke-linejoin="round" stroke-dasharray="8 8" d="M 1540 1361.54 L 1702 1465 C 1707.3333333333333 1468.3333333333333 1713.3333333333333 1470 1720 1470 L 4120 1470 C 4126.666666666666 1470 4132.666666666666 1468 4138 1464 L 4328.81 1318" marker-end="url(#v-21252848929)"></path><g id="v-2700" ><g id="v-2701"  label-idx="0" cursor="move" transform="matrix(1,0,0,1,2895.182861328125,1470)" style="cursor: default;"><rect joint-selector="rect" id="v-2704" fill="#ffffff" rx="3" ry="3" x="-86.2645263671875" y="-30.455810546875" width="172.8369903564453" height="56.706974029541016" pointer-events="none"  style="display: block;"></rect><text joint-selector="text" id="v-2703" font-size="24px" xml:space="preserve" fill="#444444" text-anchor="middle" pointer-events="none" font-family="Tahoma, Verdana, Helvetica, Arial" font-weight="normal"  style="display: block;"><tspan dy="-0.3em" >Uses shared API</tspan><tspan dy="1.2em" x="0" >responses</tspan></text></g><g id="v-2702"  label-idx="1" cursor="move" transform="matrix(1,0,0,1,2885.182861328125,1496.4000244140625)" style="cursor: default;"><rect joint-selector="rect" id="v-2706" fill="#ffffff" rx="3" ry="3" x="-4.547473508864641e-13" y="0" width="0" height="0"  display="none"></rect><text joint-selector="text" id="v-2705" fill="#000000" font-size="14" text-anchor="middle" text-vertical-anchor="middle" pointer-events="none"></text></g></g></g><!--z-index:48--><g   id="j_254"  style="opacity: 1;"><path fill="none" cursor="pointer" stroke="transparent" stroke-linecap="round" joint-selector="wrapper" id="v-2720" stroke-width="10" stroke-linejoin="round" d="M 2330 1329.65 L 2491 1390 C 2497 1392.3999999999999 2503.333333333333 1393.7333333333331 2510 1394 L 4120 1394 C 4126.666666666666 1393.7333333333331 4133 1392.0666666666666 4139 1389 L 4300 1296.51"></path><path fill="none" pointer-events="none" joint-selector="line" id="v-2719" stroke="#444444" stroke-width="2" stroke-linejoin="round" stroke-dasharray="8 8" d="M 2330 1329.65 L 2491 1390 C 2497 1392.3999999999999 2503.333333333333 1393.7333333333331 2510 1394 L 4120 1394 C 4126.666666666666 1393.7333333333331 4133 1392.0666666666666 4139 1389 L 4300 1296.51" marker-end="url(#v-21252848929)"></path><g id="v-2712" ><g id="v-2713"  label-idx="0" cursor="move" transform="matrix(1,0,0,1,3290.014892578125,1394)" style="cursor: default;"><rect joint-selector="rect" id="v-2716" fill="#ffffff" rx="3" ry="3" x="-64.20783996582031" y="-30.455810546875" width="129.1016082763672" height="56.706974029541016" pointer-events="none"  style="display: block;"></rect><text joint-selector="text" id="v-2715" font-size="24px" xml:space="preserve" fill="#444444" text-anchor="middle" pointer-events="none" font-family="Tahoma, Verdana, Helvetica, Arial" font-weight="normal"  style="display: block;"><tspan dy="-0.3em" >Uses shared</tspan><tspan dy="1.2em" x="0" >behaviors</tspan></text></g><g id="v-2714"  label-idx="1" cursor="move" transform="matrix(1,0,0,1,3280.014892578125,1420.4000244140625)" style="cursor: default;"><rect joint-selector="rect" id="v-2718" fill="#ffffff" rx="3" ry="3" x="0" y="0" width="0" height="0"  display="none"></rect><text joint-selector="text" id="v-2717" fill="#000000" font-size="14" text-anchor="middle" text-vertical-anchor="middle" pointer-events="none"></text></g></g></g><!--z-index:49--><g   id="j_255"  style="opacity: 1;"><path fill="none" cursor="pointer" stroke="transparent" stroke-linecap="round" joint-selector="wrapper" id="v-2732" stroke-width="10" stroke-linejoin="round" d="M 3120 1239.22 L 3281 1313 C 3286.9999999999995 1315.7999999999997 3293.333333333333 1317.1333333333332 3300 1317 L 4120 1317 C 4126.666666666666 1317.1333333333332 4133 1316.1333333333332 4139 1314 L 4300 1252.99"></path><path fill="none" pointer-events="none" joint-selector="line" id="v-2731" stroke="#444444" stroke-width="2" stroke-linejoin="round" stroke-dasharray="8 8" d="M 3120 1239.22 L 3281 1313 C 3286.9999999999995 1315.7999999999997 3293.333333333333 1317.1333333333332 3300 1317 L 4120 1317 C 4126.666666666666 1317.1333333333332 4133 1316.1333333333332 4139 1314 L 4300 1252.99" marker-end="url(#v-21252848929)"></path><g id="v-2724" ><g id="v-2725"  label-idx="0" cursor="move" transform="matrix(1,0,0,1,3685.103271484375,1317)" style="cursor: default;"><rect joint-selector="rect" id="v-2728" fill="#ffffff" rx="3" ry="3" x="-91.20638275146484" y="-30.455810546875" width="183.75767517089844" height="56.706974029541016" pointer-events="none"  style="display: block;"></rect><text joint-selector="text" id="v-2727" font-size="24px" xml:space="preserve" fill="#444444" text-anchor="middle" pointer-events="none" font-family="Tahoma, Verdana, Helvetica, Arial" font-weight="normal"  style="display: block;"><tspan dy="-0.3em" >Uses shared data</tspan><tspan dy="1.2em" x="0" >access</tspan></text></g><g id="v-2726"  label-idx="1" cursor="move" transform="matrix(1,0,0,1,3675.103271484375,1343.4000244140625)" style="cursor: default;"><rect joint-selector="rect" id="v-2730" fill="#ffffff" rx="3" ry="3" x="0" y="0" width="0" height="0"  display="none"></rect><text joint-selector="text" id="v-2729" fill="#000000" font-size="14" text-anchor="middle" text-vertical-anchor="middle" pointer-events="none"></text></g></g></g><!--z-index:50--><g   id="j_256"  style="opacity: 1;"><path fill="none" cursor="pointer" stroke="transparent" stroke-linecap="round" joint-selector="wrapper" id="v-2744" stroke-width="10" stroke-linejoin="round" d="M 3910 1036.1 L 4120 1036 C 4126.666666666666 1036.1333333333332 4133 1037.1333333333332 4139 1039 L 4300 1092.92"></path><path fill="none" pointer-events="none" joint-selector="line" id="v-2743" stroke="#444444" stroke-width="2" stroke-linejoin="round" stroke-dasharray="8 8" d="M 3910 1036.1 L 4120 1036 C 4126.666666666666 1036.1333333333332 4133 1037.1333333333332 4139 1039 L 4300 1092.92" marker-end="url(#v-21252848929)"></path><g id="v-2736" ><g id="v-2737"  label-idx="0" cursor="move" transform="matrix(1,0,0,1,4129.82421875,1036.86181640625)" style="cursor: default;"><rect joint-selector="rect" id="v-2740" fill="#ffffff" rx="3" ry="3" x="-75.5450439453125" y="-30.455810546875" width="149.66683959960938" height="56.706974029541016" pointer-events="none"  style="display: block;"></rect><text joint-selector="text" id="v-2739" font-size="24px" xml:space="preserve" fill="#444444" text-anchor="middle" pointer-events="none" font-family="Tahoma, Verdana, Helvetica, Arial" font-weight="normal"  style="display: block;"><tspan dy="-0.3em" >Uses shared</tspan><tspan dy="1.2em" x="0" >domain types</tspan></text></g><g id="v-2738"  label-idx="1" cursor="move" transform="matrix(1,0,0,1,4119.82421875,1063.26171875)" style="cursor: default;"><rect joint-selector="rect" id="v-2742" fill="#ffffff" rx="3" ry="3" x="0" y="0" width="0" height="0"  display="none"></rect><text joint-selector="text" id="v-2741" fill="#000000" font-size="14" text-anchor="middle" text-vertical-anchor="middle" pointer-events="none"></text></g></g></g><!--z-index:51--><g   id="j_257"  style="opacity: 1;"><path fill="none" cursor="pointer" stroke="transparent" stroke-linecap="round" joint-selector="wrapper" id="v-2759" stroke-width="10" stroke-linejoin="round" d="M 614.36 719 L 863 449 C 867.6666666666666 444.33333333333326 873.3333333333333 441.99999999999994 880 442 L 1880 442"></path><path fill="none" pointer-events="none" joint-selector="line" id="v-2758" stroke="#444444" stroke-width="2" stroke-linejoin="round" stroke-dasharray="8 8" d="M 614.36 719 L 863 449 C 867.6666666666666 444.33333333333326 873.3333333333333 441.99999999999994 880 442 L 1880 442" marker-end="url(#v-21252848929)"></path><g id="v-2748" ><g id="v-2749"  label-idx="0" cursor="move" transform="matrix(1,0,0,1,1315.9595947265625,428.6000061035156)" style="cursor: default;"><rect joint-selector="rect" id="v-2753" fill="#ffffff" rx="3" ry="3" x="-73.25580596923828" y="-30.455810546875" width="145.07302856445312" height="56.706974029541016" pointer-events="none"  style="display: block;"></rect><text joint-selector="text" id="v-2752" font-size="24px" xml:space="preserve" fill="#444444" text-anchor="middle" pointer-events="none" font-family="Tahoma, Verdana, Helvetica, Arial" font-weight="normal"  style="display: block;"><tspan dy="-0.3em" >Configures</tspan><tspan dy="1.2em" x="0" >subscriptions</tspan></text></g><g id="v-2750"  label-idx="1" cursor="move" transform="matrix(1,0,0,1,1315.9595947265625,473.3999938964844)" style="cursor: default;"><rect joint-selector="rect" id="v-2755" fill="#ffffff" rx="3" ry="3" x="-53.74272537231445" y="-13.564648628234863" width="110.32485961914062" height="23.255809783935547"  pointer-events="none" style="display: block;"></rect><text joint-selector="text" id="v-2754" font-size="16.799999999999997px" xml:space="preserve" fill="#444444" text-anchor="middle" pointer-events="none" font-family="Tahoma, Verdana, Helvetica, Arial" font-weight="normal"  style="display: block;"><tspan dy="0.3em" >[JSON/HTTPS]</tspan></text></g><g id="v-2751"  label-idx="2" cursor="move" transform="matrix(1,0,0,1,1177.0296630859375,481.79998779296875)" style="cursor: default;"><rect joint-selector="rect" id="v-2757" fill="#ffffff" rx="3" ry="3" x="-1.1368683772161603e-13" y="0" width="0" height="0"  display="none"></rect><text joint-selector="text" id="v-2756" fill="#000000" font-size="14" text-anchor="middle" text-vertical-anchor="middle" pointer-events="none"></text></g></g></g><!--z-index:52--><g   id="j_258"  style="opacity: 1;"><path fill="none" cursor="pointer" stroke="transparent" stroke-linecap="round" joint-selector="wrapper" id="v-2774" stroke-width="10" stroke-linejoin="round" d="M 2330 385.04 L 2490 344 C 2496.6666666666665 342.66666666666663 2503.333333333333 342 2510 342 L 3460 342"></path><path fill="none" pointer-events="none" joint-selector="line" id="v-2773" stroke="#444444" stroke-width="2" stroke-linejoin="round" stroke-dasharray="8 8" d="M 2330 385.04 L 2490 344 C 2496.6666666666665 342.66666666666663 2503.333333333333 342 2510 342 L 3460 342" marker-end="url(#v-21252848929)"></path><g id="v-2763" ><g id="v-2764"  label-idx="0" cursor="move" transform="matrix(1,0,0,1,2895.0263671875,328.6000061035156)" style="cursor: default;"><rect joint-selector="rect" id="v-2768" fill="#ffffff" rx="3" ry="3" x="-94.91278076171875" y="-30.455810546875" width="186.46351623535156" height="56.706974029541016" pointer-events="none"  style="display: block;"></rect><text joint-selector="text" id="v-2767" font-size="24px" xml:space="preserve" fill="#444444" text-anchor="middle" pointer-events="none" font-family="Tahoma, Verdana, Helvetica, Arial" font-weight="normal"  style="display: block;"><tspan dy="-0.3em" >Reads/Writes</tspan><tspan dy="1.2em" x="0" >subscription data</tspan></text></g><g id="v-2765"  label-idx="1" cursor="move" transform="matrix(1,0,0,1,2895.0263671875,373.3999938964844)" style="cursor: default;"><rect joint-selector="rect" id="v-2770" fill="#ffffff" rx="3" ry="3" x="-38.88080978393555" y="-13.564648628234863" width="80.56412506103516" height="23.255809783935547"  pointer-events="none" style="display: block;"></rect><text joint-selector="text" id="v-2769" font-size="16.799999999999997px" xml:space="preserve" fill="#444444" text-anchor="middle" pointer-events="none" font-family="Tahoma, Verdana, Helvetica, Arial" font-weight="normal"  style="display: block;"><tspan dy="0.3em" >[SQL/TCP]</tspan></text></g><g id="v-2766"  label-idx="2" cursor="move" transform="matrix(1,0,0,1,2882.344970703125,381.79998779296875)" style="cursor: default;"><rect joint-selector="rect" id="v-2772" fill="#ffffff" rx="3" ry="3" x="-4.547473508864641e-13" y="0" width="0" height="0"  display="none"></rect><text joint-selector="text" id="v-2771" fill="#000000" font-size="14" text-anchor="middle" text-vertical-anchor="middle" pointer-events="none"></text></g></g></g><!--z-index:53--><g   id="j_259"  style="opacity: 1;"><path fill="none" cursor="pointer" stroke="transparent" stroke-linecap="round" joint-selector="wrapper" id="v-2786" stroke-width="10" stroke-linejoin="round" d="M 2330 498.96 L 2490 540 C 2496.6666666666665 541.3333333333333 2503.333333333333 542 2510 542 L 4120 542 C 4126.666666666666 542 4131.666666666666 544.6666666666666 4135 550 L 4430.35 1018"></path><path fill="none" pointer-events="none" joint-selector="line" id="v-2785" stroke="#444444" stroke-width="2" stroke-linejoin="round" stroke-dasharray="8 8" d="M 2330 498.96 L 2490 540 C 2496.6666666666665 541.3333333333333 2503.333333333333 542 2510 542 L 4120 542 C 4126.666666666666 542 4131.666666666666 544.6666666666666 4135 550 L 4430.35 1018" marker-end="url(#v-21252848929)"></path><g id="v-2778" ><g id="v-2779"  label-idx="0" cursor="move" transform="matrix(1,0,0,1,3289.15087890625,542)" style="cursor: default;"><rect joint-selector="rect" id="v-2782" fill="#ffffff" rx="3" ry="3" x="-86.2645263671875" y="-30.455810546875" width="172.8369903564453" height="56.706974029541016" pointer-events="none"  style="display: block;"></rect><text joint-selector="text" id="v-2781" font-size="24px" xml:space="preserve" fill="#444444" text-anchor="middle" pointer-events="none" font-family="Tahoma, Verdana, Helvetica, Arial" font-weight="normal"  style="display: block;"><tspan dy="-0.3em" >Uses shared API</tspan><tspan dy="1.2em" x="0" >responses</tspan></text></g><g id="v-2780"  label-idx="1" cursor="move" transform="matrix(1,0,0,1,3279.15087890625,568.4000244140625)" style="cursor: default;"><rect joint-selector="rect" id="v-2784" fill="#ffffff" rx="3" ry="3" x="-4.547473508864641e-13" y="0" width="0" height="0"  display="none"></rect><text joint-selector="text" id="v-2783" fill="#000000" font-size="14" text-anchor="middle" text-vertical-anchor="middle" pointer-events="none"></text></g></g></g><!--z-index:54--><g   id="j_260"  style="opacity: 1;"><path fill="none" cursor="pointer" stroke="transparent" stroke-linecap="round" joint-selector="wrapper" id="v-2798" stroke-width="10" stroke-linejoin="round" d="M 2196.78 592 L 2495 1079 C 2498.333333333333 1084.7333333333331 2503.333333333333 1088.0666666666666 2510 1089 L 2670 1108.43"></path><path fill="none" pointer-events="none" joint-selector="line" id="v-2797" stroke="#444444" stroke-width="2" stroke-linejoin="round" stroke-dasharray="8 8" d="M 2196.78 592 L 2495 1079 C 2498.333333333333 1084.7333333333331 2503.333333333333 1088.0666666666666 2510 1089 L 2670 1108.43" marker-end="url(#v-21252848929)"></path><g id="v-2790" ><g id="v-2791"  label-idx="0" cursor="move" transform="matrix(1,0,0,1,2500.901123046875,1085.5616455078125)" style="cursor: default;"><rect joint-selector="rect" id="v-2794" fill="#ffffff" rx="3" ry="3" x="-97.529052734375" y="-30.455810546875" width="195.60543823242188" height="56.706974029541016" pointer-events="none"  style="display: block;"></rect><text joint-selector="text" id="v-2793" font-size="24px" xml:space="preserve" fill="#444444" text-anchor="middle" pointer-events="none" font-family="Tahoma, Verdana, Helvetica, Arial" font-weight="normal"  style="display: block;"><tspan dy="-0.3em" >Uses authorization</tspan><tspan dy="1.2em" x="0" >middleware from</tspan></text></g><g id="v-2792"  label-idx="1" cursor="move" transform="matrix(1,0,0,1,2490.901123046875,1111.961669921875)" style="cursor: default;"><rect joint-selector="rect" id="v-2796" fill="#ffffff" rx="3" ry="3" x="-4.547473508864641e-13" y="-1.1368683772161603e-13" width="0" height="0"  display="none"></rect><text joint-selector="text" id="v-2795" fill="#000000" font-size="14" text-anchor="middle" text-vertical-anchor="middle" pointer-events="none"></text></g></g></g><!--z-index:55--><!--z-index:56--><!--z-index:57--><!--z-index:58--><!--z-index:59--><!--z-index:60--><!--z-index:61--><!--z-index:62--><!--z-index:63--><!--z-index:64--><!--z-index:65--><!--z-index:66--><!--z-index:67--><!--z-index:68--><!--z-index:69--><!--z-index:70--><!--z-index:71--><!--z-index:72--><!--z-index:73--><!--z-index:74--><!--z-index:75--><!--z-index:76--><!--z-index:77--><!--z-index:78--><!--z-index:79--><!--z-index:80--><!--z-index:81--><!--z-index:82--><!--z-index:83--><!--z-index:84--><!--z-index:85--><!--z-index:86--><!--z-index:87--><!--z-index:88--><!--z-index:89--><!--z-index:90--><!--z-index:91--></g><g  style="user-select: none;"></g><g ></g><g  display="none"></g></g></svg>