<svg xmlns="http://www.w3.org/2000/svg" xmlns:xlink="http://www.w3.org/1999/xlink" version="1.1" style="background: #ffffff" viewBox="0 0 5000 1911"><style id="v-3" type="text/css">        .joint-element .scalable * {            vector-effect: non-scaling-stroke;        }    </style><defs joint-selector="defs"><marker id="v-2-527367903" orient="auto" overflow="visible" markerUnits="userSpaceOnUse"><path id="v-128" stroke="#cccccc" fill="#cccccc" transform="rotate(180)" d="M 20 -10 0 0 20 10 Z"></path></marker><marker id="v-21252848929" orient="auto" overflow="visible" markerUnits="userSpaceOnUse"><path id="v-736" stroke="#444444" fill="#444444" transform="rotate(180)" d="M 20 -10 0 0 20 10 Z"></path></marker></defs><g joint-selector="layers"  transform="matrix(1,0,0,1,0,0)"><g  style="pointer-events: none;"></g><g ></g><g  style="user-select: none;"><!--z-index:0--><!--z-index:1--><!--z-index:2--><!--z-index:3--><!--z-index:4--><!--z-index:5--><!--z-index:6--><!--z-index:7--><!--z-index:8--><!--z-index:9--><!--z-index:10--><!--z-index:11--><!--z-index:12--><!--z-index:13--><!--z-index:14--><!--z-index:15--><!--z-index:16--><!--z-index:17--><!--z-index:18--><!--z-index:19--><!--z-index:20--><!--z-index:21--><!--z-index:22--><!--z-index:23--><!--z-index:24--><!--z-index:25--><!--z-index:26--><!--z-index:27--><g   id="j_87"  transform="translate(20,1867)"><g id="v-921"><text  id="v-922" font-size="24px" xml:space="preserve" y="0.8em" font-weight="normal" text-anchor="start" fill="#444444" pointer-events="none" display="block" font-family="Tahoma, Verdana, Helvetica, Arial"><tspan dy="0" >jueves, 9 de julio de 2026, 2:47 p. m. hora estándar de Perú</tspan></text></g></g><!--z-index:28--><g   id="j_86"  transform="translate(20,1833)"><g id="v-919"><text  id="v-920" font-size="24px" xml:space="preserve" y="0.8em" font-weight="normal" text-anchor="start" fill="#444444" pointer-events="none" display="block" font-family="Tahoma, Verdana, Helvetica, Arial"><tspan dy="0" >Component View: IAM Context</tspan></text></g></g><!--z-index:29--><g   id="j_85"  transform="translate(20,1787)"><g id="v-917"><text  id="v-918" font-size="36px" xml:space="preserve" y="0.8em" font-weight="normal" text-anchor="start" fill="#444444" pointer-events="none" display="block" font-family="Tahoma, Verdana, Helvetica, Arial"><tspan dy="0" >Component View: CortiSense - Identity and Access Management Context</tspan></text></g></g><!--z-index:30--><g   id="j_89"  transform="translate(200,142)" style="; opacity: 1;"><g id="v-941"><rect  id="v-942" width="4600" height="1511" rx="0" ry="0" stroke-width="2" pointer-events="none" stroke="#444444" fill="#ffffff" opacity="1" stroke-dasharray=""></rect><text  id="v-943" font-size="33.599999999999994px" xml:space="preserve" y="1472" font-weight="bold" text-anchor="start" pointer-events="visible" font-family="Tahoma, Verdana, Helvetica, Arial" fill="#444444" transform="matrix(1,0,0,1,15,0)"><tspan dy="0" >CortiSense</tspan></text><text  id="v-944" font-size="16.799999999999997px" xml:space="preserve" y="1496" font-weight="normal" text-anchor="start" pointer-events="visible" font-family="Tahoma, Verdana, Helvetica, Arial" fill="#444444" transform="matrix(1,0,0,1,15,0)"><tspan dy="0" >[Software System]</tspan></text><image  id="v-945" pointer-events="visible"></image></g></g><!--z-index:31--><g   id="j_88"  transform="translate(250,719)" style=""><g  id="v-929" style="opacity: 1;"><rect  id="v-930" rx="10" ry="10" stroke-width="2" pointer-events="visiblePainted" fill="#2672c0" stroke="#2672c0" stroke-dasharray="" width="450" height="302" style="fill: rgb(38, 114, 192); stroke: rgb(38, 114, 192);"></rect><rect  id="v-931" rx="10" ry="10" stroke-width="0" pointer-events="visiblePainted" fill="#2a7fd5" stroke="#2672c0" width="446" height="260" x="2" y="40" style="fill: rgb(42, 127, 213);"></rect><ellipse  id="v-938" fill="#2a7fd5" cx="20" cy="20" rx="10" ry="10" style="fill: rgb(42, 127, 213);"></ellipse><ellipse  id="v-939" fill="#2a7fd5" cx="50" cy="20" rx="10" ry="10" style="fill: rgb(42, 127, 213);"></ellipse><ellipse  id="v-940" fill="#2a7fd5" cx="80" cy="20" rx="10" ry="10" style="fill: rgb(42, 127, 213);"></ellipse><rect  id="v-932" rx="10" ry="10" stroke-width="0" pointer-events="visiblePainted" fill="#2a7fd5" width="340" height="20" x="100" y="10" style="fill: rgb(42, 127, 213);"></rect><text  id="v-933" font-size="33.599999999999994px" xml:space="preserve" y="106.9" font-weight="bold" text-anchor="middle" pointer-events="visible" font-family="Tahoma, Verdana, Helvetica, Arial" fill="#ffffff" dominant-baseline="hanging" transform="matrix(1,0,0,1,225,0)" style="fill: rgb(255, 255, 255);"><tspan dy="0" >Single Page Application</tspan></text><text  id="v-934" font-size="16.799999999999997px" xml:space="preserve" y="148.5" text-anchor="middle" font-family="Tahoma, Verdana, Helvetica, Arial" fill="#ffffff" dominant-baseline="hanging" transform="matrix(1,0,0,1,225,0)" style="display: block; fill: rgb(255, 255, 255);"><tspan dy="0" >[Container: Vue 3]</tspan></text><text  id="v-935" font-size="24px" xml:space="preserve" y="180.3" text-anchor="middle" font-family="Tahoma, Verdana, Helvetica, Arial" fill="#ffffff" dominant-baseline="hanging" transform="matrix(1,0,0,1,225,0)" style="display: block; fill: rgb(255, 255, 255);"><tspan dy="0" >Main interface for administrators,</tspan><tspan dy="1.2em" x="0" >doctors, and staff.</tspan></text><g  id="v-936" font-weight="normal" text-anchor="middle" color="#ffffff" transform="matrix(1,0,0,1,222.5,268)" display="none" style="fill: rgb(255, 255, 255);"><g ></g><g ></g><g ></g><g ></g></g><image  id="v-937"></image></g></g><!--z-index:32--><g   id="j_90"  transform="translate(3460,192)" style=""><g  id="v-949" style="opacity: 1;"><path  d="M 0,30 a 225,30 0,0,0 450 0 a 225,30 0,0,0 -450 0 l 0,240 a 225,30 0,0,0 450 0 l 0,-240" id="v-950" stroke-width="2" pointer-events="visiblePainted" fill="#e51c23" stroke="#ce1920" stroke-dasharray="" style="fill: rgb(229, 28, 35); stroke: rgb(206, 25, 32);"></path><rect  id="v-951" stroke-width="0" pointer-events="visiblePainted" fill="none" stroke="none" width="450" height="270" x="0" y="30"></rect><text  id="v-952" font-size="33.599999999999994px" xml:space="preserve" y="101.9" font-weight="bold" text-anchor="middle" pointer-events="visible" font-family="Tahoma, Verdana, Helvetica, Arial" fill="#ffffff" dominant-baseline="hanging" transform="matrix(1,0,0,1,225,0)" style="fill: rgb(255, 255, 255);"><tspan dy="0" >Database</tspan></text><text  id="v-953" font-size="16.799999999999997px" xml:space="preserve" y="143.5" text-anchor="middle" font-family="Tahoma, Verdana, Helvetica, Arial" fill="#ffffff" dominant-baseline="hanging" transform="matrix(1,0,0,1,225,0)" style="display: block; fill: rgb(255, 255, 255);"><tspan dy="0" >[Container: MySQL]</tspan></text><text  id="v-954" font-size="24px" xml:space="preserve" y="175.3" text-anchor="middle" font-family="Tahoma, Verdana, Helvetica, Arial" fill="#ffffff" dominant-baseline="hanging" transform="matrix(1,0,0,1,225,0)" style="display: block; fill: rgb(255, 255, 255);"><tspan dy="0" >Stores users, shifts, subscriptions,</tspan><tspan dy="1.2em" x="0" >telemetry, and logs.</tspan></text><g  id="v-955" font-weight="normal" text-anchor="middle" color="#ffffff" transform="matrix(1,0,0,1,222.5,268)" display="none" style="fill: rgb(255, 255, 255);"><g ></g><g ></g><g ></g><g ></g></g><image  id="v-956"></image></g></g><!--z-index:33--><g   id="j_91"  transform="translate(4300,1018)" style=""><g  id="v-960" style="opacity: 1;"><rect  id="v-961" rx="20" ry="20" stroke-width="2" pointer-events="visiblePainted" fill="#2ba356" stroke="#27934d" stroke-dasharray="" width="450" height="300" style="fill: rgb(43, 163, 86); stroke: rgb(39, 147, 77);"></rect><text  id="v-962" font-size="33.599999999999994px" xml:space="preserve" y="86.9" font-weight="bold" text-anchor="middle" pointer-events="visible" font-family="Tahoma, Verdana, Helvetica, Arial" fill="#ffffff" dominant-baseline="hanging" transform="matrix(1,0,0,1,225,0)" style="fill: rgb(255, 255, 255);"><tspan dy="0" >Shared Kernel</tspan></text><text  id="v-963" font-size="16.799999999999997px" xml:space="preserve" y="128.5" text-anchor="middle" font-family="Tahoma, Verdana, Helvetica, Arial" fill="#ffffff" dominant-baseline="hanging" transform="matrix(1,0,0,1,225,0)" style="display: block; fill: rgb(255, 255, 255);"><tspan dy="0" >[Container: C# Class Library]</tspan></text><text  id="v-964" font-size="24px" xml:space="preserve" y="160.3" text-anchor="middle" font-family="Tahoma, Verdana, Helvetica, Arial" fill="#ffffff" dominant-baseline="hanging" transform="matrix(1,0,0,1,225,0)" style="display: block; fill: rgb(255, 255, 255);"><tspan dy="0" >Centralizes base classes, exceptions,</tspan><tspan dy="1.2em" x="0" >and cross-cutting abstractions.</tspan></text><g  id="v-965" color="#ffffff" transform="matrix(1,0,0,1,210,268)" display="none" style="fill: rgb(255, 255, 255);"><g  transform="translate(5 0)"><svg xmlns="http://www.w3.org/2000/svg" width="20" height="20" fill="currentColor" viewBox="0 0 16 16"><path fill-rule="evenodd" d="M6.5 12a5.5 5.5 0 1 0 0-11 5.5 5.5 0 0 0 0 11zM13 6.5a6.5 6.5 0 1 1-13 0 6.5 6.5 0 0 1 13 0z"></path><path d="M10.344 11.742c.03.04.062.078.098.115l3.85 3.85a1 1 0 0 0 1.415-1.414l-3.85-3.85a1.007 1.007 0 0 0-.115-.1 6.538 6.538 0 0 1-1.398 1.4z"></path><path fill-rule="evenodd" d="M6.5 3a.5.5 0 0 1 .5.5V6h2.5a.5.5 0 0 1 0 1H7v2.5a.5.5 0 0 1-1 0V7H3.5a.5.5 0 0 1 0-1H6V3.5a.5.5 0 0 1 .5-.5z"></path></svg></g><g ></g><g ></g><g ></g></g><image  id="v-966"></image></g></g><!--z-index:34--><g   id="j_93"  transform="translate(1040,836)" style="; opacity: 1;"><g id="v-977"><rect  id="v-978" width="2920" height="688" rx="20" ry="20" stroke-width="2" pointer-events="none" stroke="#27934d" fill="#ffffff" opacity="1" stroke-dasharray=""></rect><text  id="v-979" font-size="33.599999999999994px" xml:space="preserve" y="649" font-weight="bold" text-anchor="start" pointer-events="visible" font-family="Tahoma, Verdana, Helvetica, Arial" fill="#27934d" transform="matrix(1,0,0,1,15,0)"><tspan dy="0" >Identity and Access Management Context</tspan></text><text  id="v-980" font-size="16.799999999999997px" xml:space="preserve" y="673" font-weight="normal" text-anchor="start" pointer-events="visible" font-family="Tahoma, Verdana, Helvetica, Arial" fill="#27934d" transform="matrix(1,0,0,1,15,0)"><tspan dy="0" >[Container]</tspan></text><image  id="v-981" pointer-events="visible"></image></g></g><!--z-index:35--><g   id="j_97"  transform="translate(1880,292)" style=""><g  id="v-1018" style="opacity: 1;"><rect  id="v-1019" rx="20" ry="20" stroke-width="2" pointer-events="visiblePainted" fill="#2ba356" stroke="#27934d" stroke-dasharray="" width="450" height="300" style="fill: rgb(43, 163, 86); stroke: rgb(39, 147, 77);"></rect><text  id="v-1020" font-size="33.599999999999994px" xml:space="preserve" y="66.74000000000001" font-weight="bold" text-anchor="middle" pointer-events="visible" font-family="Tahoma, Verdana, Helvetica, Arial" fill="#ffffff" dominant-baseline="hanging" transform="matrix(1,0,0,1,225,0)" style="fill: rgb(255, 255, 255);"><tspan dy="0" >Subscription Management</tspan><tspan dy="1.2em" x="0" >Context</tspan></text><text  id="v-1021" font-size="16.799999999999997px" xml:space="preserve" y="148.66" text-anchor="middle" font-family="Tahoma, Verdana, Helvetica, Arial" fill="#ffffff" dominant-baseline="hanging" transform="matrix(1,0,0,1,225,0)" style="display: block; fill: rgb(255, 255, 255);"><tspan dy="0" >[Container: C# Class Library]</tspan></text><text  id="v-1022" font-size="24px" xml:space="preserve" y="180.45999999999998" text-anchor="middle" font-family="Tahoma, Verdana, Helvetica, Arial" fill="#ffffff" dominant-baseline="hanging" transform="matrix(1,0,0,1,225,0)" style="display: block; fill: rgb(255, 255, 255);"><tspan dy="0" >Handles plans, billing, and</tspan><tspan dy="1.2em" x="0" >organizational access.</tspan></text><g  id="v-1023" color="#ffffff" transform="matrix(1,0,0,1,210,268)" display="none" style="fill: rgb(255, 255, 255);"><g  transform="translate(5 0)"><svg xmlns="http://www.w3.org/2000/svg" width="20" height="20" fill="currentColor" viewBox="0 0 16 16"><path fill-rule="evenodd" d="M6.5 12a5.5 5.5 0 1 0 0-11 5.5 5.5 0 0 0 0 11zM13 6.5a6.5 6.5 0 1 1-13 0 6.5 6.5 0 0 1 13 0z"></path><path d="M10.344 11.742c.03.04.062.078.098.115l3.85 3.85a1 1 0 0 0 1.415-1.414l-3.85-3.85a1.007 1.007 0 0 0-.115-.1 6.538 6.538 0 0 1-1.398 1.4z"></path><path fill-rule="evenodd" d="M6.5 3a.5.5 0 0 1 .5.5V6h2.5a.5.5 0 0 1 0 1H7v2.5a.5.5 0 0 1-1 0V7H3.5a.5.5 0 0 1 0-1H6V3.5a.5.5 0 0 1 .5-.5z"></path></svg></g><g ></g><g ></g><g ></g></g><image  id="v-1024"></image></g></g><!--z-index:36--><g   id="j_92"  transform="translate(1090,1068)" style=""><g  id="v-970" style="opacity: 1;"><rect  id="v-971" rx="20" ry="20" stroke-width="2" pointer-events="visiblePainted" fill="#7b7b7b" stroke="#6f6f6f" stroke-dasharray="" width="450" height="300" style="fill: rgb(123, 123, 123); stroke: rgb(111, 111, 111);"></rect><text  id="v-972" font-size="33.599999999999994px" xml:space="preserve" y="86.9" font-weight="bold" text-anchor="middle" pointer-events="visible" font-family="Tahoma, Verdana, Helvetica, Arial" fill="#ffffff" dominant-baseline="hanging" transform="matrix(1,0,0,1,225,0)" style="fill: rgb(255, 255, 255);"><tspan dy="0" >Interfaces</tspan></text><text  id="v-973" font-size="16.799999999999997px" xml:space="preserve" y="128.5" text-anchor="middle" font-family="Tahoma, Verdana, Helvetica, Arial" fill="#ffffff" dominant-baseline="hanging" transform="matrix(1,0,0,1,225,0)" style="display: block; fill: rgb(255, 255, 255);"><tspan dy="0" >[Component: ASP.NET Core REST]</tspan></text><text  id="v-974" font-size="24px" xml:space="preserve" y="160.3" text-anchor="middle" font-family="Tahoma, Verdana, Helvetica, Arial" fill="#ffffff" dominant-baseline="hanging" transform="matrix(1,0,0,1,225,0)" style="display: block; fill: rgb(255, 255, 255);"><tspan dy="0" >1: interfaces - REST endpoints for</tspan><tspan dy="1.2em" x="0" >auth and user management.</tspan></text><g  id="v-975" color="#ffffff" transform="matrix(1,0,0,1,222.5,268)" display="none" style="fill: rgb(255, 255, 255);"><g ></g><g ></g><g ></g><g ></g></g><image  id="v-976"></image></g></g><!--z-index:37--><g   id="j_94"  transform="translate(1880,1095)" style=""><g  id="v-985" style="opacity: 1;"><rect  id="v-986" rx="20" ry="20" stroke-width="2" pointer-events="visiblePainted" fill="#7b7b7b" stroke="#6f6f6f" stroke-dasharray="" width="450" height="300" style="fill: rgb(123, 123, 123); stroke: rgb(111, 111, 111);"></rect><text  id="v-987" font-size="33.599999999999994px" xml:space="preserve" y="86.9" font-weight="bold" text-anchor="middle" pointer-events="visible" font-family="Tahoma, Verdana, Helvetica, Arial" fill="#ffffff" dominant-baseline="hanging" transform="matrix(1,0,0,1,225,0)" style="fill: rgb(255, 255, 255);"><tspan dy="0" >Application</tspan></text><text  id="v-988" font-size="16.799999999999997px" xml:space="preserve" y="128.5" text-anchor="middle" font-family="Tahoma, Verdana, Helvetica, Arial" fill="#ffffff" dominant-baseline="hanging" transform="matrix(1,0,0,1,225,0)" style="display: block; fill: rgb(255, 255, 255);"><tspan dy="0" >[Component: C# Service]</tspan></text><text  id="v-989" font-size="24px" xml:space="preserve" y="160.3" text-anchor="middle" font-family="Tahoma, Verdana, Helvetica, Arial" fill="#ffffff" dominant-baseline="hanging" transform="matrix(1,0,0,1,225,0)" style="display: block; fill: rgb(255, 255, 255);"><tspan dy="0" >2: application - Auth, registration,</tspan><tspan dy="1.2em" x="0" >and invitation use cases.</tspan></text><g  id="v-990" color="#ffffff" transform="matrix(1,0,0,1,222.5,268)" display="none" style="fill: rgb(255, 255, 255);"><g ></g><g ></g><g ></g><g ></g></g><image  id="v-991"></image></g></g><!--z-index:38--><g   id="j_95"  transform="translate(2670,986)" style=""><g  id="v-995" style="opacity: 1;"><rect  id="v-996" rx="20" ry="20" stroke-width="2" pointer-events="visiblePainted" fill="#7b7b7b" stroke="#6f6f6f" stroke-dasharray="" width="450" height="300" style="fill: rgb(123, 123, 123); stroke: rgb(111, 111, 111);"></rect><text  id="v-997" font-size="33.599999999999994px" xml:space="preserve" y="86.9" font-weight="bold" text-anchor="middle" pointer-events="visible" font-family="Tahoma, Verdana, Helvetica, Arial" fill="#ffffff" dominant-baseline="hanging" transform="matrix(1,0,0,1,225,0)" style="fill: rgb(255, 255, 255);"><tspan dy="0" >Infrastructure</tspan></text><text  id="v-998" font-size="16.799999999999997px" xml:space="preserve" y="128.5" text-anchor="middle" font-family="Tahoma, Verdana, Helvetica, Arial" fill="#ffffff" dominant-baseline="hanging" transform="matrix(1,0,0,1,225,0)" style="display: block; fill: rgb(255, 255, 255);"><tspan dy="0" >[Component: EF Core]</tspan></text><text  id="v-999" font-size="24px" xml:space="preserve" y="160.3" text-anchor="middle" font-family="Tahoma, Verdana, Helvetica, Arial" fill="#ffffff" dominant-baseline="hanging" transform="matrix(1,0,0,1,225,0)" style="display: block; fill: rgb(255, 255, 255);"><tspan dy="0" >4: infrastructure - Persists users,</tspan><tspan dy="1.2em" x="0" >roles, and tokens.</tspan></text><g  id="v-1000" color="#ffffff" transform="matrix(1,0,0,1,222.5,268)" display="none" style="fill: rgb(255, 255, 255);"><g ></g><g ></g><g ></g><g ></g></g><image  id="v-1001"></image></g></g><!--z-index:39--><g   id="j_96"  transform="translate(3460,886)" style=""><g  id="v-1005" style="opacity: 1;"><rect  id="v-1006" rx="20" ry="20" stroke-width="2" pointer-events="visiblePainted" fill="#7b7b7b" stroke="#6f6f6f" stroke-dasharray="" width="450" height="300" style="fill: rgb(123, 123, 123); stroke: rgb(111, 111, 111);"></rect><text  id="v-1007" font-size="33.599999999999994px" xml:space="preserve" y="86.9" font-weight="bold" text-anchor="middle" pointer-events="visible" font-family="Tahoma, Verdana, Helvetica, Arial" fill="#ffffff" dominant-baseline="hanging" transform="matrix(1,0,0,1,225,0)" style="fill: rgb(255, 255, 255);"><tspan dy="0" >Domain</tspan></text><text  id="v-1008" font-size="16.799999999999997px" xml:space="preserve" y="128.5" text-anchor="middle" font-family="Tahoma, Verdana, Helvetica, Arial" fill="#ffffff" dominant-baseline="hanging" transform="matrix(1,0,0,1,225,0)" style="display: block; fill: rgb(255, 255, 255);"><tspan dy="0" >[Component: C# Domain]</tspan></text><text  id="v-1009" font-size="24px" xml:space="preserve" y="160.3" text-anchor="middle" font-family="Tahoma, Verdana, Helvetica, Arial" fill="#ffffff" dominant-baseline="hanging" transform="matrix(1,0,0,1,225,0)" style="display: block; fill: rgb(255, 255, 255);"><tspan dy="0" >3: domain - User, Role, and Auth</tspan><tspan dy="1.2em" x="0" >aggregates.</tspan></text><g  id="v-1010" color="#ffffff" transform="matrix(1,0,0,1,222.5,268)" display="none" style="fill: rgb(255, 255, 255);"><g ></g><g ></g><g ></g><g ></g></g><image  id="v-1011"></image></g></g><!--z-index:40--><g   id="j_98"  style="opacity: 1;"><path fill="none" cursor="pointer" stroke="transparent" stroke-linecap="round" joint-selector="wrapper" id="v-1039" stroke-width="10" stroke-linejoin="round" d="M 646.1 1021 L 863 1212 C 867.6666666666666 1216.3999999999999 873.3333333333333 1218.7333333333331 880 1219 L 1090 1218.3"></path><path fill="none" pointer-events="none" joint-selector="line" id="v-1038" stroke="#444444" stroke-width="2" stroke-linejoin="round" stroke-dasharray="8 8" d="M 646.1 1021 L 863 1212 C 867.6666666666666 1216.3999999999999 873.3333333333333 1218.7333333333331 880 1219 L 1090 1218.3" marker-end="url(#v-21252848929)"></path><g id="v-1028" ><g id="v-1029"  label-idx="0" cursor="move" transform="matrix(1,0,0,1,871.2171020507812,1203.8367919921875)" style="cursor: default;"><rect joint-selector="rect" id="v-1033" fill="#ffffff" rx="3" ry="3" x="-73.69185638427734" y="-31.38604736328125" width="145.9489288330078" height="58.56744384765625" pointer-events="none"  style="display: block;"></rect><text joint-selector="text" id="v-1032" font-size="24px" xml:space="preserve" fill="#444444" text-anchor="middle" pointer-events="none" font-family="Tahoma, Verdana, Helvetica, Arial" font-weight="normal"  style="display: block;"><tspan dy="-0.3em" >Authenticates</tspan><tspan dy="1.2em" x="0" >users</tspan></text></g><g id="v-1030"  label-idx="1" cursor="move" transform="matrix(1,0,0,1,871.2171020507812,1248.63671875)" style="cursor: default;"><rect joint-selector="rect" id="v-1035" fill="#ffffff" rx="3" ry="3" x="-53.76453399658203" y="-11.704185485839844" width="108.52061462402344" height="20.46511459350586"  pointer-events="none" style="display: block;"></rect><text joint-selector="text" id="v-1034" font-size="16.799999999999997px" xml:space="preserve" fill="#444444" text-anchor="middle" pointer-events="none" font-family="Tahoma, Verdana, Helvetica, Arial" font-weight="normal"  style="display: block;"><tspan dy="0.3em" >[JSON/HTTPS]</tspan></text></g><g id="v-1031"  label-idx="2" cursor="move" transform="matrix(1,0,0,1,830.4081420898438,1231.9058837890625)" style="cursor: default;"><rect joint-selector="rect" id="v-1037" fill="#ffffff" rx="3" ry="3" x="0" y="0" width="0" height="0"  display="none"></rect><text joint-selector="text" id="v-1036" fill="#000000" font-size="14" text-anchor="middle" text-vertical-anchor="middle" pointer-events="none"></text></g></g></g><!--z-index:41--><g   id="j_99"  style="opacity: 1;"><path fill="none" cursor="pointer" stroke="transparent" stroke-linecap="round" joint-selector="wrapper" id="v-1051" stroke-width="10" stroke-linejoin="round" d="M 1540 1233.38 L 1700 1244 C 1706.6666666666665 1244.6666666666665 1713.3333333333333 1245 1720 1245 L 1880 1245"></path><path fill="none" pointer-events="none" joint-selector="line" id="v-1050" stroke="#444444" stroke-width="2" stroke-linejoin="round" stroke-dasharray="8 8" d="M 1540 1233.38 L 1700 1244 C 1706.6666666666665 1244.6666666666665 1713.3333333333333 1245 1720 1245 L 1880 1245" marker-end="url(#v-21252848929)"></path><g id="v-1043" ><g id="v-1044"  label-idx="0" cursor="move" transform="matrix(1,0,0,1,1710,1244.75)" style="cursor: default;"><rect joint-selector="rect" id="v-1047" fill="#ffffff" rx="3" ry="3" x="-66.4244155883789" y="-16.98604393005371" width="132.8488311767578" height="29.767440795898438" pointer-events="none"  style="display: block;"></rect><text joint-selector="text" id="v-1046" font-size="24px" xml:space="preserve" fill="#444444" text-anchor="middle" pointer-events="none" font-family="Tahoma, Verdana, Helvetica, Arial" font-weight="normal"  style="display: block;"><tspan dy="0.3em" >Delegates to</tspan></text></g><g id="v-1045"  label-idx="1" cursor="move" transform="matrix(1,0,0,1,1700,1256.75)" style="cursor: default;"><rect joint-selector="rect" id="v-1049" fill="#ffffff" rx="3" ry="3" x="0" y="0" width="0" height="0"  display="none"></rect><text joint-selector="text" id="v-1048" fill="#000000" font-size="14" text-anchor="middle" text-vertical-anchor="middle" pointer-events="none"></text></g></g></g><!--z-index:42--><g   id="j_100"  style="opacity: 1;"><path fill="none" cursor="pointer" stroke="transparent" stroke-linecap="round" joint-selector="wrapper" id="v-1063" stroke-width="10" stroke-linejoin="round" d="M 2330 1208.2 L 2490 1182 C 2496.6666666666665 1180.9333333333334 2503.333333333333 1179.9333333333334 2510 1179 L 2670 1161.29"></path><path fill="none" pointer-events="none" joint-selector="line" id="v-1062" stroke="#444444" stroke-width="2" stroke-linejoin="round" stroke-dasharray="8 8" d="M 2330 1208.2 L 2490 1182 C 2496.6666666666665 1180.9333333333334 2503.333333333333 1179.9333333333334 2510 1179 L 2670 1161.29" marker-end="url(#v-21252848929)"></path><g id="v-1055" ><g id="v-1056"  label-idx="0" cursor="move" transform="matrix(1,0,0,1,2500,1180.449951171875)" style="cursor: default;"><rect joint-selector="rect" id="v-1059" fill="#ffffff" rx="3" ry="3" x="-58.57558059692383" y="-16.98604393005371" width="117.5661392211914" height="29.767440795898438" pointer-events="none"  style="display: block;"></rect><text joint-selector="text" id="v-1058" font-size="24px" xml:space="preserve" fill="#444444" text-anchor="middle" pointer-events="none" font-family="Tahoma, Verdana, Helvetica, Arial" font-weight="normal"  style="display: block;"><tspan dy="0.3em" >Persists via</tspan></text></g><g id="v-1057"  label-idx="1" cursor="move" transform="matrix(1,0,0,1,2490,1192.449951171875)" style="cursor: default;"><rect joint-selector="rect" id="v-1061" fill="#ffffff" rx="3" ry="3" x="0" y="0" width="0" height="0"  display="none"></rect><text joint-selector="text" id="v-1060" fill="#000000" font-size="14" text-anchor="middle" text-vertical-anchor="middle" pointer-events="none"></text></g></g></g><!--z-index:43--><g   id="j_101"  style="opacity: 1;"><path fill="none" cursor="pointer" stroke="transparent" stroke-linecap="round" joint-selector="wrapper" id="v-1075" stroke-width="10" stroke-linejoin="round" d="M 3120 1136.11 L 3280 1136 C 3286.666666666666 1136.1333333333332 3293.333333333333 1135.4666666666665 3300 1134 L 3460 1093.08"></path><path fill="none" pointer-events="none" joint-selector="line" id="v-1074" stroke="#444444" stroke-width="2" stroke-linejoin="round" stroke-dasharray="8 8" d="M 3120 1136.11 L 3280 1136 C 3286.666666666666 1136.1333333333332 3293.333333333333 1135.4666666666665 3300 1134 L 3460 1093.08" marker-end="url(#v-21252848929)"></path><g id="v-1067" ><g id="v-1068"  label-idx="0" cursor="move" transform="matrix(1,0,0,1,3289.9609375,1135.6038818359375)" style="cursor: default;"><rect joint-selector="rect" id="v-1071" fill="#ffffff" rx="3" ry="3" x="-94.7529067993164" y="-31.38604736328125" width="189.95562744140625" height="58.56744384765625" pointer-events="none"  style="display: block;"></rect><text joint-selector="text" id="v-1070" font-size="24px" xml:space="preserve" fill="#444444" text-anchor="middle" pointer-events="none" font-family="Tahoma, Verdana, Helvetica, Arial" font-weight="normal"  style="display: block;"><tspan dy="-0.3em" >Maps and persists</tspan><tspan dy="1.2em" x="0" >domain entities</tspan></text></g><g id="v-1069"  label-idx="1" cursor="move" transform="matrix(1,0,0,1,3279.9609375,1162.00390625)" style="cursor: default;"><rect joint-selector="rect" id="v-1073" fill="#ffffff" rx="3" ry="3" x="0" y="-2.2737367544323206e-13" width="0" height="0"  display="none"></rect><text joint-selector="text" id="v-1072" fill="#000000" font-size="14" text-anchor="middle" text-vertical-anchor="middle" pointer-events="none"></text></g></g></g><!--z-index:44--><g   id="j_102"  style="opacity: 1;"><path fill="none" cursor="pointer" stroke="transparent" stroke-linecap="round" joint-selector="wrapper" id="v-1087" stroke-width="10" stroke-linejoin="round" d="M 1525.26 1068 L 1702 942 C 1707.3333333333333 938.1333333333332 1713.3333333333333 936.1333333333332 1720 936 L 3280 936 C 3286.666666666666 936.1333333333332 3293.333333333333 937.1333333333332 3300 939 L 3460 979.15"></path><path fill="none" pointer-events="none" joint-selector="line" id="v-1086" stroke="#444444" stroke-width="2" stroke-linejoin="round" stroke-dasharray="8 8" d="M 1525.26 1068 L 1702 942 C 1707.3333333333333 938.1333333333332 1713.3333333333333 936.1333333333332 1720 936 L 3280 936 C 3286.666666666666 936.1333333333332 3293.333333333333 937.1333333333332 3300 939 L 3460 979.15" marker-end="url(#v-21252848929)"></path><g id="v-1079" ><g id="v-1080"  label-idx="0" cursor="move" transform="matrix(1,0,0,1,2500.577880859375,936)" style="cursor: default;"><rect joint-selector="rect" id="v-1083" fill="#ffffff" rx="3" ry="3" x="-67.61627960205078" y="-31.38604736328125" width="135.23255920410156" height="58.56744384765625" pointer-events="none"  style="display: block;"></rect><text joint-selector="text" id="v-1082" font-size="24px" xml:space="preserve" fill="#444444" text-anchor="middle" pointer-events="none" font-family="Tahoma, Verdana, Helvetica, Arial" font-weight="normal"  style="display: block;"><tspan dy="-0.3em" >Uses domain</tspan><tspan dy="1.2em" x="0" >resources</tspan></text></g><g id="v-1081"  label-idx="1" cursor="move" transform="matrix(1,0,0,1,2490.577880859375,962.4000244140625)" style="cursor: default;"><rect joint-selector="rect" id="v-1085" fill="#ffffff" rx="3" ry="3" x="0" y="0" width="0" height="0"  display="none"></rect><text joint-selector="text" id="v-1084" fill="#000000" font-size="14" text-anchor="middle" text-vertical-anchor="middle" pointer-events="none"></text></g></g></g><!--z-index:45--><g   id="j_103"  style="opacity: 1;"><path fill="none" cursor="pointer" stroke="transparent" stroke-linecap="round" joint-selector="wrapper" id="v-1099" stroke-width="10" stroke-linejoin="round" d="M 2258.82 1095 L 2493 867 C 2497.6666666666665 862.1999999999998 2503.333333333333 859.8666666666664 2510 860 L 3280 860 C 3286.666666666666 859.8666666666664 3292.9999999999995 861.1999999999998 3299 864 L 3460 935.63"></path><path fill="none" pointer-events="none" joint-selector="line" id="v-1098" stroke="#444444" stroke-width="2" stroke-linejoin="round" stroke-dasharray="8 8" d="M 2258.82 1095 L 2493 867 C 2497.6666666666665 862.1999999999998 2503.333333333333 859.8666666666664 2510 860 L 3280 860 C 3286.666666666666 859.8666666666664 3292.9999999999995 861.1999999999998 3299 864 L 3460 935.63" marker-end="url(#v-21252848929)"></path><g id="v-1091" ><g id="v-1092"  label-idx="0" cursor="move" transform="matrix(1,0,0,1,2895.2734375,860)" style="cursor: default;"><rect joint-selector="rect" id="v-1095" fill="#ffffff" rx="3" ry="3" x="-96.78778839111328" y="-16.98604393005371" width="194.0220184326172" height="29.767440795898438" pointer-events="none"  style="display: block;"></rect><text joint-selector="text" id="v-1094" font-size="24px" xml:space="preserve" fill="#444444" text-anchor="middle" pointer-events="none" font-family="Tahoma, Verdana, Helvetica, Arial" font-weight="normal"  style="display: block;"><tspan dy="0.3em" >Uses domain rules</tspan></text></g><g id="v-1093"  label-idx="1" cursor="move" transform="matrix(1,0,0,1,2885.2734375,872)" style="cursor: default;"><rect joint-selector="rect" id="v-1097" fill="#ffffff" rx="3" ry="3" x="-4.547473508864641e-13" y="-1.1368683772161603e-13" width="0" height="0"  display="none"></rect><text joint-selector="text" id="v-1096" fill="#000000" font-size="14" text-anchor="middle" text-vertical-anchor="middle" pointer-events="none"></text></g></g></g><!--z-index:46--><g   id="j_104"  style="opacity: 1;"><path fill="none" cursor="pointer" stroke="transparent" stroke-linecap="round" joint-selector="wrapper" id="v-1114" stroke-width="10" stroke-linejoin="round" d="M 3056.89 986 L 3283 777 C 3287.666666666666 772.3333333333333 3292.333333333333 767.6666666666665 3297 763 L 3546.57 492"></path><path fill="none" pointer-events="none" joint-selector="line" id="v-1113" stroke="#444444" stroke-width="2" stroke-linejoin="round" stroke-dasharray="8 8" d="M 3056.89 986 L 3283 777 C 3287.666666666666 772.3333333333333 3292.333333333333 767.6666666666665 3297 763 L 3546.57 492" marker-end="url(#v-21252848929)"></path><g id="v-1103" ><g id="v-1104"  label-idx="0" cursor="move" transform="matrix(1,0,0,1,3290.08203125,756.5179443359375)" style="cursor: default;"><rect joint-selector="rect" id="v-1108" fill="#ffffff" rx="3" ry="3" x="-96.25" y="-31.38604736328125" width="193.1341552734375" height="58.56744384765625" pointer-events="none"  style="display: block;"></rect><text joint-selector="text" id="v-1107" font-size="24px" xml:space="preserve" fill="#444444" text-anchor="middle" pointer-events="none" font-family="Tahoma, Verdana, Helvetica, Arial" font-weight="normal"  style="display: block;"><tspan dy="-0.3em" >Reads/Writes user</tspan><tspan dy="1.2em" x="0" >data</tspan></text></g><g id="v-1105"  label-idx="1" cursor="move" transform="matrix(1,0,0,1,3290.08203125,801.3179931640625)" style="cursor: default;"><rect joint-selector="rect" id="v-1110" fill="#ffffff" rx="3" ry="3" x="-38.88081359863281" y="-11.704185485839844" width="78.74332427978516" height="20.46511459350586"  pointer-events="none" style="display: block;"></rect><text joint-selector="text" id="v-1109" font-size="16.799999999999997px" xml:space="preserve" fill="#444444" text-anchor="middle" pointer-events="none" font-family="Tahoma, Verdana, Helvetica, Arial" font-weight="normal"  style="display: block;"><tspan dy="0.3em" >[SQL/TCP]</tspan></text></g><g id="v-1106"  label-idx="2" cursor="move" transform="matrix(1,0,0,1,3300.787109375,787.8291015625)" style="cursor: default;"><rect joint-selector="rect" id="v-1112" fill="#ffffff" rx="3" ry="3" x="0" y="-1.1368683772161603e-13" width="0" height="0"  display="none"></rect><text joint-selector="text" id="v-1111" fill="#000000" font-size="14" text-anchor="middle" text-vertical-anchor="middle" pointer-events="none"></text></g></g></g><!--z-index:47--><g   id="j_105"  style="opacity: 1;"><path fill="none" cursor="pointer" stroke="transparent" stroke-linecap="round" joint-selector="wrapper" id="v-1126" stroke-width="10" stroke-linejoin="round" d="M 1540 1361.54 L 1702 1465 C 1707.3333333333333 1468.3333333333333 1713.3333333333333 1470 1720 1470 L 4120 1470 C 4126.666666666666 1470 4132.666666666666 1468 4138 1464 L 4328.81 1318"></path><path fill="none" pointer-events="none" joint-selector="line" id="v-1125" stroke="#444444" stroke-width="2" stroke-linejoin="round" stroke-dasharray="8 8" d="M 1540 1361.54 L 1702 1465 C 1707.3333333333333 1468.3333333333333 1713.3333333333333 1470 1720 1470 L 4120 1470 C 4126.666666666666 1470 4132.666666666666 1468 4138 1464 L 4328.81 1318" marker-end="url(#v-21252848929)"></path><g id="v-1118" ><g id="v-1119"  label-idx="0" cursor="move" transform="matrix(1,0,0,1,2895.182861328125,1470)" style="cursor: default;"><rect joint-selector="rect" id="v-1122" fill="#ffffff" rx="3" ry="3" x="-86.25" y="-31.38604736328125" width="172.8373565673828" height="58.56744384765625" pointer-events="none"  style="display: block;"></rect><text joint-selector="text" id="v-1121" font-size="24px" xml:space="preserve" fill="#444444" text-anchor="middle" pointer-events="none" font-family="Tahoma, Verdana, Helvetica, Arial" font-weight="normal"  style="display: block;"><tspan dy="-0.3em" >Uses shared API</tspan><tspan dy="1.2em" x="0" >responses</tspan></text></g><g id="v-1120"  label-idx="1" cursor="move" transform="matrix(1,0,0,1,2885.182861328125,1496.4000244140625)" style="cursor: default;"><rect joint-selector="rect" id="v-1124" fill="#ffffff" rx="3" ry="3" x="0" y="-2.2737367544323206e-13" width="0" height="0"  display="none"></rect><text joint-selector="text" id="v-1123" fill="#000000" font-size="14" text-anchor="middle" text-vertical-anchor="middle" pointer-events="none"></text></g></g></g><!--z-index:48--><g   id="j_106"  style="opacity: 1;"><path fill="none" cursor="pointer" stroke="transparent" stroke-linecap="round" joint-selector="wrapper" id="v-1138" stroke-width="10" stroke-linejoin="round" d="M 2330 1329.65 L 2491 1390 C 2497 1392.3999999999999 2503.333333333333 1393.7333333333331 2510 1394 L 4120 1394 C 4126.666666666666 1393.7333333333331 4133 1392.0666666666666 4139 1389 L 4300 1296.51"></path><path fill="none" pointer-events="none" joint-selector="line" id="v-1137" stroke="#444444" stroke-width="2" stroke-linejoin="round" stroke-dasharray="8 8" d="M 2330 1329.65 L 2491 1390 C 2497 1392.3999999999999 2503.333333333333 1393.7333333333331 2510 1394 L 4120 1394 C 4126.666666666666 1393.7333333333331 4133 1392.0666666666666 4139 1389 L 4300 1296.51" marker-end="url(#v-21252848929)"></path><g id="v-1130" ><g id="v-1131"  label-idx="0" cursor="move" transform="matrix(1,0,0,1,3290.014892578125,1394)" style="cursor: default;"><rect joint-selector="rect" id="v-1134" fill="#ffffff" rx="3" ry="3" x="-64.2151107788086" y="-31.38604736328125" width="128.4302215576172" height="58.56744384765625" pointer-events="none"  style="display: block;"></rect><text joint-selector="text" id="v-1133" font-size="24px" xml:space="preserve" fill="#444444" text-anchor="middle" pointer-events="none" font-family="Tahoma, Verdana, Helvetica, Arial" font-weight="normal"  style="display: block;"><tspan dy="-0.3em" >Uses shared</tspan><tspan dy="1.2em" x="0" >behaviors</tspan></text></g><g id="v-1132"  label-idx="1" cursor="move" transform="matrix(1,0,0,1,3280.014892578125,1420.4000244140625)" style="cursor: default;"><rect joint-selector="rect" id="v-1136" fill="#ffffff" rx="3" ry="3" x="0" y="0" width="0" height="0"  display="none"></rect><text joint-selector="text" id="v-1135" fill="#000000" font-size="14" text-anchor="middle" text-vertical-anchor="middle" pointer-events="none"></text></g></g></g><!--z-index:49--><g   id="j_107"  style="opacity: 1;"><path fill="none" cursor="pointer" stroke="transparent" stroke-linecap="round" joint-selector="wrapper" id="v-1150" stroke-width="10" stroke-linejoin="round" d="M 3120 1239.22 L 3281 1313 C 3286.9999999999995 1315.7999999999997 3293.333333333333 1317.1333333333332 3300 1317 L 4120 1317 C 4126.666666666666 1317.1333333333332 4133 1316.1333333333332 4139 1314 L 4300 1252.99" style="stroke-width: 10px;"></path><path fill="none" pointer-events="none" joint-selector="line" id="v-1149" stroke="#444444" stroke-width="2" stroke-linejoin="round" stroke-dasharray="8 8" d="M 3120 1239.22 L 3281 1313 C 3286.9999999999995 1315.7999999999997 3293.333333333333 1317.1333333333332 3300 1317 L 4120 1317 C 4126.666666666666 1317.1333333333332 4133 1316.1333333333332 4139 1314 L 4300 1252.99" marker-end="url(#v-21252848929)"></path><g id="v-1142" ><g id="v-1143"  label-idx="0" cursor="move" transform="matrix(1,0,0,1,3685.103271484375,1317)" style="cursor: default;"><rect joint-selector="rect" id="v-1146" fill="#ffffff" rx="3" ry="3" x="-91.20639038085938" y="-31.38604736328125" width="182.82781982421875" height="58.56744384765625" pointer-events="none"  style="display: block;"></rect><text joint-selector="text" id="v-1145" font-size="24px" xml:space="preserve" fill="#444444" text-anchor="middle" pointer-events="none" font-family="Tahoma, Verdana, Helvetica, Arial" font-weight="normal"  style="display: block;"><tspan dy="-0.3em" >Uses shared data</tspan><tspan dy="1.2em" x="0" >access</tspan></text></g><g id="v-1144"  label-idx="1" cursor="move" transform="matrix(1,0,0,1,3675.103271484375,1343.4000244140625)" style="cursor: default;"><rect joint-selector="rect" id="v-1148" fill="#ffffff" rx="3" ry="3" x="0" y="0" width="0" height="0"  display="none"></rect><text joint-selector="text" id="v-1147" fill="#000000" font-size="14" text-anchor="middle" text-vertical-anchor="middle" pointer-events="none"></text></g></g></g><!--z-index:50--><g   id="j_108"  style="opacity: 1;"><path fill="none" cursor="pointer" stroke="transparent" stroke-linecap="round" joint-selector="wrapper" id="v-1162" stroke-width="10" stroke-linejoin="round" d="M 3910 1036.1 L 4120 1036 C 4126.666666666666 1036.1333333333332 4133 1037.1333333333332 4139 1039 L 4300 1092.92"></path><path fill="none" pointer-events="none" joint-selector="line" id="v-1161" stroke="#444444" stroke-width="2" stroke-linejoin="round" stroke-dasharray="8 8" d="M 3910 1036.1 L 4120 1036 C 4126.666666666666 1036.1333333333332 4133 1037.1333333333332 4139 1039 L 4300 1092.92" marker-end="url(#v-21252848929)"></path><g id="v-1154" ><g id="v-1155"  label-idx="0" cursor="move" transform="matrix(1,0,0,1,4129.82421875,1036.86181640625)" style="cursor: default;"><rect joint-selector="rect" id="v-1158" fill="#ffffff" rx="3" ry="3" x="-70.90116119384766" y="-31.38604736328125" width="142.22518920898438" height="58.56744384765625" pointer-events="none"  style="display: block;"></rect><text joint-selector="text" id="v-1157" font-size="24px" xml:space="preserve" fill="#444444" text-anchor="middle" pointer-events="none" font-family="Tahoma, Verdana, Helvetica, Arial" font-weight="normal"  style="display: block;"><tspan dy="-0.3em" >Uses shared</tspan><tspan dy="1.2em" x="0" >domain types</tspan></text></g><g id="v-1156"  label-idx="1" cursor="move" transform="matrix(1,0,0,1,4119.82421875,1063.26171875)" style="cursor: default;"><rect joint-selector="rect" id="v-1160" fill="#ffffff" rx="3" ry="3" x="0" y="0" width="0" height="0"  display="none"></rect><text joint-selector="text" id="v-1159" fill="#000000" font-size="14" text-anchor="middle" text-vertical-anchor="middle" pointer-events="none"></text></g></g></g><!--z-index:51--><g   id="j_109"  style="opacity: 1;"><path fill="none" cursor="pointer" stroke="transparent" stroke-linecap="round" joint-selector="wrapper" id="v-1177" stroke-width="10" stroke-linejoin="round" d="M 614.36 719 L 863 449 C 867.6666666666666 444.33333333333326 873.3333333333333 441.99999999999994 880 442 L 1880 442"></path><path fill="none" pointer-events="none" joint-selector="line" id="v-1176" stroke="#444444" stroke-width="2" stroke-linejoin="round" stroke-dasharray="8 8" d="M 614.36 719 L 863 449 C 867.6666666666666 444.33333333333326 873.3333333333333 441.99999999999994 880 442 L 1880 442" marker-end="url(#v-21252848929)"></path><g id="v-1166" ><g id="v-1167"  label-idx="0" cursor="move" transform="matrix(1,0,0,1,1315.9595947265625,428.6000061035156)" style="cursor: default;"><rect joint-selector="rect" id="v-1171" fill="#ffffff" rx="3" ry="3" x="-68.5901107788086" y="-31.38604736328125" width="137.63140869140625" height="58.56744384765625" pointer-events="none"  style="display: block;"></rect><text joint-selector="text" id="v-1170" font-size="24px" xml:space="preserve" fill="#444444" text-anchor="middle" pointer-events="none" font-family="Tahoma, Verdana, Helvetica, Arial" font-weight="normal"  style="display: block;"><tspan dy="-0.3em" >Configures</tspan><tspan dy="1.2em" x="0" >subscriptions</tspan></text></g><g id="v-1168"  label-idx="1" cursor="move" transform="matrix(1,0,0,1,1315.9595947265625,473.3999938964844)" style="cursor: default;"><rect joint-selector="rect" id="v-1173" fill="#ffffff" rx="3" ry="3" x="-53.76453399658203" y="-11.704185485839844" width="108.52061462402344" height="20.46511459350586"  pointer-events="none" style="display: block;"></rect><text joint-selector="text" id="v-1172" font-size="16.799999999999997px" xml:space="preserve" fill="#444444" text-anchor="middle" pointer-events="none" font-family="Tahoma, Verdana, Helvetica, Arial" font-weight="normal"  style="display: block;"><tspan dy="0.3em" >[JSON/HTTPS]</tspan></text></g><g id="v-1169"  label-idx="2" cursor="move" transform="matrix(1,0,0,1,1177.0296630859375,481.79998779296875)" style="cursor: default;"><rect joint-selector="rect" id="v-1175" fill="#ffffff" rx="3" ry="3" x="0" y="-5.684341886080802e-14" width="0" height="0"  display="none"></rect><text joint-selector="text" id="v-1174" fill="#000000" font-size="14" text-anchor="middle" text-vertical-anchor="middle" pointer-events="none"></text></g></g></g><!--z-index:52--><g   id="j_110"  style="opacity: 1;"><path fill="none" cursor="pointer" stroke="transparent" stroke-linecap="round" joint-selector="wrapper" id="v-1192" stroke-width="10" stroke-linejoin="round" d="M 2330 385.04 L 2490 344 C 2496.6666666666665 342.66666666666663 2503.333333333333 342 2510 342 L 3460 342"></path><path fill="none" pointer-events="none" joint-selector="line" id="v-1191" stroke="#444444" stroke-width="2" stroke-linejoin="round" stroke-dasharray="8 8" d="M 2330 385.04 L 2490 344 C 2496.6666666666665 342.66666666666663 2503.333333333333 342 2510 342 L 3460 342" marker-end="url(#v-21252848929)"></path><g id="v-1181" ><g id="v-1182"  label-idx="0" cursor="move" transform="matrix(1,0,0,1,2895.0263671875,328.6000061035156)" style="cursor: default;"><rect joint-selector="rect" id="v-1186" fill="#ffffff" rx="3" ry="3" x="-90.23255157470703" y="-31.38604736328125" width="180.88247680664062" height="58.56744384765625" pointer-events="none"  style="display: block;"></rect><text joint-selector="text" id="v-1185" font-size="24px" xml:space="preserve" fill="#444444" text-anchor="middle" pointer-events="none" font-family="Tahoma, Verdana, Helvetica, Arial" font-weight="normal"  style="display: block;"><tspan dy="-0.3em" >Reads/Writes</tspan><tspan dy="1.2em" x="0" >subscription data</tspan></text></g><g id="v-1183"  label-idx="1" cursor="move" transform="matrix(1,0,0,1,2895.0263671875,373.3999938964844)" style="cursor: default;"><rect joint-selector="rect" id="v-1188" fill="#ffffff" rx="3" ry="3" x="-38.88081359863281" y="-11.704185485839844" width="78.74332427978516" height="20.46511459350586"  pointer-events="none" style="display: block;"></rect><text joint-selector="text" id="v-1187" font-size="16.799999999999997px" xml:space="preserve" fill="#444444" text-anchor="middle" pointer-events="none" font-family="Tahoma, Verdana, Helvetica, Arial" font-weight="normal"  style="display: block;"><tspan dy="0.3em" >[SQL/TCP]</tspan></text></g><g id="v-1184"  label-idx="2" cursor="move" transform="matrix(1,0,0,1,2882.344970703125,381.79998779296875)" style="cursor: default;"><rect joint-selector="rect" id="v-1190" fill="#ffffff" rx="3" ry="3" x="0" y="0" width="0" height="0"  display="none"></rect><text joint-selector="text" id="v-1189" fill="#000000" font-size="14" text-anchor="middle" text-vertical-anchor="middle" pointer-events="none"></text></g></g></g><!--z-index:53--><g   id="j_111"  style="opacity: 1;"><path fill="none" cursor="pointer" stroke="transparent" stroke-linecap="round" joint-selector="wrapper" id="v-1204" stroke-width="10" stroke-linejoin="round" d="M 2330 498.96 L 2490 540 C 2496.6666666666665 541.3333333333333 2503.333333333333 542 2510 542 L 4120 542 C 4126.666666666666 542 4131.666666666666 544.6666666666666 4135 550 L 4430.35 1018"></path><path fill="none" pointer-events="none" joint-selector="line" id="v-1203" stroke="#444444" stroke-width="2" stroke-linejoin="round" stroke-dasharray="8 8" d="M 2330 498.96 L 2490 540 C 2496.6666666666665 541.3333333333333 2503.333333333333 542 2510 542 L 4120 542 C 4126.666666666666 542 4131.666666666666 544.6666666666666 4135 550 L 4430.35 1018" marker-end="url(#v-21252848929)"></path><g id="v-1196" ><g id="v-1197"  label-idx="0" cursor="move" transform="matrix(1,0,0,1,3289.15087890625,542)" style="cursor: default;"><rect joint-selector="rect" id="v-1200" fill="#ffffff" rx="3" ry="3" x="-86.25" y="-31.38604736328125" width="172.8373565673828" height="58.56744384765625" pointer-events="none"  style="display: block;"></rect><text joint-selector="text" id="v-1199" font-size="24px" xml:space="preserve" fill="#444444" text-anchor="middle" pointer-events="none" font-family="Tahoma, Verdana, Helvetica, Arial" font-weight="normal"  style="display: block;"><tspan dy="-0.3em" >Uses shared API</tspan><tspan dy="1.2em" x="0" >responses</tspan></text></g><g id="v-1198"  label-idx="1" cursor="move" transform="matrix(1,0,0,1,3279.15087890625,568.4000244140625)" style="cursor: default;"><rect joint-selector="rect" id="v-1202" fill="#ffffff" rx="3" ry="3" x="-4.547473508864641e-13" y="0" width="0" height="0"  display="none"></rect><text joint-selector="text" id="v-1201" fill="#000000" font-size="14" text-anchor="middle" text-vertical-anchor="middle" pointer-events="none"></text></g></g></g><!--z-index:54--><g   id="j_112"  style="opacity: 1;"><path fill="none" cursor="pointer" stroke="transparent" stroke-linecap="round" joint-selector="wrapper" id="v-1216" stroke-width="10" stroke-linejoin="round" d="M 2196.78 592 L 2495 1079 C 2498.333333333333 1084.7333333333331 2503.333333333333 1088.0666666666666 2510 1089 L 2670 1108.43"></path><path fill="none" pointer-events="none" joint-selector="line" id="v-1215" stroke="#444444" stroke-width="2" stroke-linejoin="round" stroke-dasharray="8 8" d="M 2196.78 592 L 2495 1079 C 2498.333333333333 1084.7333333333331 2503.333333333333 1088.0666666666666 2510 1089 L 2670 1108.43" marker-end="url(#v-21252848929)"></path><g id="v-1208" ><g id="v-1209"  label-idx="0" cursor="move" transform="matrix(1,0,0,1,2500.901123046875,1085.5616455078125)" style="cursor: default;"><rect joint-selector="rect" id="v-1212" fill="#ffffff" rx="3" ry="3" x="-97.52906799316406" y="-31.38604736328125" width="195.05813598632812" height="58.56744384765625" pointer-events="none"  style="display: block;"></rect><text joint-selector="text" id="v-1211" font-size="24px" xml:space="preserve" fill="#444444" text-anchor="middle" pointer-events="none" font-family="Tahoma, Verdana, Helvetica, Arial" font-weight="normal"  style="display: block;"><tspan dy="-0.3em" >Uses authorization</tspan><tspan dy="1.2em" x="0" >middleware from</tspan></text></g><g id="v-1210"  label-idx="1" cursor="move" transform="matrix(1,0,0,1,2490.901123046875,1111.961669921875)" style="cursor: default;"><rect joint-selector="rect" id="v-1214" fill="#ffffff" rx="3" ry="3" x="0" y="-1.1368683772161603e-13" width="0" height="0"  display="none"></rect><text joint-selector="text" id="v-1213" fill="#000000" font-size="14" text-anchor="middle" text-vertical-anchor="middle" pointer-events="none"></text></g></g></g><!--z-index:55--></g><g  style="user-select: none;"></g><g ></g><g  display="none"></g></g></svg>