<svg xmlns="http://www.w3.org/2000/svg" xmlns:xlink="http://www.w3.org/1999/xlink" version="1.1" style="background: #ffffff" viewBox="0 0 5000 1877"><style id="v-3" type="text/css">        .joint-element .scalable * {            vector-effect: non-scaling-stroke;        }    </style><defs joint-selector="defs"><marker id="v-2-527367903" orient="auto" overflow="visible" markerUnits="userSpaceOnUse"><path id="v-128" stroke="#cccccc" fill="#cccccc" transform="rotate(180)" d="M 20 -10 0 0 20 10 Z"></path></marker><marker id="v-21252848929" orient="auto" overflow="visible" markerUnits="userSpaceOnUse"><path id="v-736" stroke="#444444" fill="#444444" transform="rotate(180)" d="M 20 -10 0 0 20 10 Z"></path></marker></defs><g joint-selector="layers"  transform="matrix(1,0,0,1,0,0)"><g  style="pointer-events: none;"></g><g ></g><g  style="user-select: none;"><!--z-index:0--><!--z-index:1--><!--z-index:2--><!--z-index:3--><!--z-index:4--><!--z-index:5--><!--z-index:6--><!--z-index:7--><!--z-index:8--><!--z-index:9--><!--z-index:10--><!--z-index:11--><!--z-index:12--><!--z-index:13--><!--z-index:14--><!--z-index:15--><!--z-index:16--><!--z-index:17--><!--z-index:18--><!--z-index:19--><!--z-index:20--><!--z-index:21--><!--z-index:22--><g   id="j_115"  transform="translate(20,1833)"><g id="v-1224"><text  id="v-1225" font-size="24px" xml:space="preserve" y="0.8em" font-weight="normal" text-anchor="start" fill="#444444" pointer-events="none" display="block" font-family="Tahoma, Verdana, Helvetica, Arial"><tspan dy="0" >jueves, 9 de julio de 2026, 2:48 p. m. hora estándar de Perú</tspan></text></g></g><!--z-index:23--><g   id="j_114"  transform="translate(20,1799)"><g id="v-1222"><text  id="v-1223" font-size="24px" xml:space="preserve" y="0.8em" font-weight="normal" text-anchor="start" fill="#444444" pointer-events="none" display="block" font-family="Tahoma, Verdana, Helvetica, Arial"><tspan dy="0" >Component View: Staff Recovery Context</tspan></text></g></g><!--z-index:24--><g   id="j_113"  transform="translate(20,1753)"><g id="v-1220"><text  id="v-1221" font-size="36px" xml:space="preserve" y="0.8em" font-weight="normal" text-anchor="start" fill="#444444" pointer-events="none" display="block" font-family="Tahoma, Verdana, Helvetica, Arial"><tspan dy="0" >Component View: CortiSense - Staff Recovery Context</tspan></text></g></g><!--z-index:25--><g   id="j_117"  transform="translate(200,142)" style="; opacity: 1;"><g id="v-1244"><rect  id="v-1245" width="4600" height="1477" rx="0" ry="0" stroke-width="2" pointer-events="none" stroke="#444444" fill="#ffffff" opacity="1" stroke-dasharray=""></rect><text  id="v-1246" font-size="33.599999999999994px" xml:space="preserve" y="1438" font-weight="bold" text-anchor="start" pointer-events="visible" font-family="Tahoma, Verdana, Helvetica, Arial" fill="#444444" transform="matrix(1,0,0,1,15,0)"><tspan dy="0" >CortiSense</tspan></text><text  id="v-1247" font-size="16.799999999999997px" xml:space="preserve" y="1462" font-weight="normal" text-anchor="start" pointer-events="visible" font-family="Tahoma, Verdana, Helvetica, Arial" fill="#444444" transform="matrix(1,0,0,1,15,0)"><tspan dy="0" >[Software System]</tspan></text><image  id="v-1248" pointer-events="visible"></image></g></g><!--z-index:26--><g   id="j_116"  transform="translate(250,809)" style=""><g  id="v-1232" style="opacity: 1;"><rect  id="v-1233" rx="10" ry="10" stroke-width="2" pointer-events="visiblePainted" fill="#2672c0" stroke="#2672c0" stroke-dasharray="" width="450" height="302" style="fill: rgb(38, 114, 192); stroke: rgb(38, 114, 192);"></rect><rect  id="v-1234" rx="10" ry="10" stroke-width="0" pointer-events="visiblePainted" fill="#2a7fd5" stroke="#2672c0" width="446" height="260" x="2" y="40" style="fill: rgb(42, 127, 213);"></rect><ellipse  id="v-1241" fill="#2a7fd5" cx="20" cy="20" rx="10" ry="10" style="fill: rgb(42, 127, 213);"></ellipse><ellipse  id="v-1242" fill="#2a7fd5" cx="50" cy="20" rx="10" ry="10" style="fill: rgb(42, 127, 213);"></ellipse><ellipse  id="v-1243" fill="#2a7fd5" cx="80" cy="20" rx="10" ry="10" style="fill: rgb(42, 127, 213);"></ellipse><rect  id="v-1235" rx="10" ry="10" stroke-width="0" pointer-events="visiblePainted" fill="#2a7fd5" width="340" height="20" x="100" y="10" style="fill: rgb(42, 127, 213);"></rect><text  id="v-1236" font-size="33.599999999999994px" xml:space="preserve" y="106.9" font-weight="bold" text-anchor="middle" pointer-events="visible" font-family="Tahoma, Verdana, Helvetica, Arial" fill="#ffffff" dominant-baseline="hanging" transform="matrix(1,0,0,1,225,0)" style="fill: rgb(255, 255, 255);"><tspan dy="0" >Single Page Application</tspan></text><text  id="v-1237" font-size="16.799999999999997px" xml:space="preserve" y="148.5" text-anchor="middle" font-family="Tahoma, Verdana, Helvetica, Arial" fill="#ffffff" dominant-baseline="hanging" transform="matrix(1,0,0,1,225,0)" style="display: block; fill: rgb(255, 255, 255);"><tspan dy="0" >[Container: Vue 3]</tspan></text><text  id="v-1238" font-size="24px" xml:space="preserve" y="180.3" text-anchor="middle" font-family="Tahoma, Verdana, Helvetica, Arial" fill="#ffffff" dominant-baseline="hanging" transform="matrix(1,0,0,1,225,0)" style="display: block; fill: rgb(255, 255, 255);"><tspan dy="0" >Main interface for administrators,</tspan><tspan dy="1.2em" x="0" >doctors, and staff.</tspan></text><g  id="v-1239" font-weight="normal" text-anchor="middle" color="#ffffff" transform="matrix(1,0,0,1,222.5,268)" display="none" style="fill: rgb(255, 255, 255);"><g ></g><g ></g><g ></g><g ></g></g><image  id="v-1240"></image></g></g><!--z-index:27--><g   id="j_118"  transform="translate(3460,192)" style=""><g  id="v-1252" style="opacity: 1;"><path  d="M 0,30 a 225,30 0,0,0 450 0 a 225,30 0,0,0 -450 0 l 0,240 a 225,30 0,0,0 450 0 l 0,-240" id="v-1253" stroke-width="2" pointer-events="visiblePainted" fill="#e51c23" stroke="#ce1920" stroke-dasharray="" style="fill: rgb(229, 28, 35); stroke: rgb(206, 25, 32);"></path><rect  id="v-1254" stroke-width="0" pointer-events="visiblePainted" fill="none" stroke="none" width="450" height="270" x="0" y="30"></rect><text  id="v-1255" font-size="33.599999999999994px" xml:space="preserve" y="101.9" font-weight="bold" text-anchor="middle" pointer-events="visible" font-family="Tahoma, Verdana, Helvetica, Arial" fill="#ffffff" dominant-baseline="hanging" transform="matrix(1,0,0,1,225,0)" style="fill: rgb(255, 255, 255);"><tspan dy="0" >Database</tspan></text><text  id="v-1256" font-size="16.799999999999997px" xml:space="preserve" y="143.5" text-anchor="middle" font-family="Tahoma, Verdana, Helvetica, Arial" fill="#ffffff" dominant-baseline="hanging" transform="matrix(1,0,0,1,225,0)" style="display: block; fill: rgb(255, 255, 255);"><tspan dy="0" >[Container: MySQL]</tspan></text><text  id="v-1257" font-size="24px" xml:space="preserve" y="175.3" text-anchor="middle" font-family="Tahoma, Verdana, Helvetica, Arial" fill="#ffffff" dominant-baseline="hanging" transform="matrix(1,0,0,1,225,0)" style="display: block; fill: rgb(255, 255, 255);"><tspan dy="0" >Stores users, shifts, subscriptions,</tspan><tspan dy="1.2em" x="0" >telemetry, and logs.</tspan></text><g  id="v-1258" font-weight="normal" text-anchor="middle" color="#ffffff" transform="matrix(1,0,0,1,222.5,268)" display="none" style="fill: rgb(255, 255, 255);"><g ></g><g ></g><g ></g><g ></g></g><image  id="v-1259"></image></g></g><!--z-index:28--><g   id="j_119"  transform="translate(4300,758)" style=""><g  id="v-1263" style="opacity: 1;"><rect  id="v-1264" rx="20" ry="20" stroke-width="2" pointer-events="visiblePainted" fill="#2ba356" stroke="#27934d" stroke-dasharray="" width="450" height="300" style="fill: rgb(43, 163, 86); stroke: rgb(39, 147, 77);"></rect><text  id="v-1265" font-size="33.599999999999994px" xml:space="preserve" y="86.9" font-weight="bold" text-anchor="middle" pointer-events="visible" font-family="Tahoma, Verdana, Helvetica, Arial" fill="#ffffff" dominant-baseline="hanging" transform="matrix(1,0,0,1,225,0)" style="fill: rgb(255, 255, 255);"><tspan dy="0" >Shared Kernel</tspan></text><text  id="v-1266" font-size="16.799999999999997px" xml:space="preserve" y="128.5" text-anchor="middle" font-family="Tahoma, Verdana, Helvetica, Arial" fill="#ffffff" dominant-baseline="hanging" transform="matrix(1,0,0,1,225,0)" style="display: block; fill: rgb(255, 255, 255);"><tspan dy="0" >[Container: C# Class Library]</tspan></text><text  id="v-1267" font-size="24px" xml:space="preserve" y="160.3" text-anchor="middle" font-family="Tahoma, Verdana, Helvetica, Arial" fill="#ffffff" dominant-baseline="hanging" transform="matrix(1,0,0,1,225,0)" style="display: block; fill: rgb(255, 255, 255);"><tspan dy="0" >Centralizes base classes, exceptions,</tspan><tspan dy="1.2em" x="0" >and cross-cutting abstractions.</tspan></text><g  id="v-1268" color="#ffffff" transform="matrix(1,0,0,1,210,268)" display="none" style="fill: rgb(255, 255, 255);"><g  transform="translate(5 0)"><svg xmlns="http://www.w3.org/2000/svg" width="20" height="20" fill="currentColor" viewBox="0 0 16 16"><path fill-rule="evenodd" d="M6.5 12a5.5 5.5 0 1 0 0-11 5.5 5.5 0 0 0 0 11zM13 6.5a6.5 6.5 0 1 1-13 0 6.5 6.5 0 0 1 13 0z"></path><path d="M10.344 11.742c.03.04.062.078.098.115l3.85 3.85a1 1 0 0 0 1.415-1.414l-3.85-3.85a1.007 1.007 0 0 0-.115-.1 6.538 6.538 0 0 1-1.398 1.4z"></path><path fill-rule="evenodd" d="M6.5 3a.5.5 0 0 1 .5.5V6h2.5a.5.5 0 0 1 0 1H7v2.5a.5.5 0 0 1-1 0V7H3.5a.5.5 0 0 1 0-1H6V3.5a.5.5 0 0 1 .5-.5z"></path></svg></g><g ></g><g ></g><g ></g></g><image  id="v-1269"></image></g></g><!--z-index:29--><g   id="j_121"  transform="translate(1040,759)" style="; opacity: 1;"><g id="v-1280"><rect  id="v-1281" width="2920" height="731" rx="20" ry="20" stroke-width="2" pointer-events="none" stroke="#27934d" fill="#ffffff" opacity="1" stroke-dasharray=""></rect><text  id="v-1282" font-size="33.599999999999994px" xml:space="preserve" y="692" font-weight="bold" text-anchor="start" pointer-events="visible" font-family="Tahoma, Verdana, Helvetica, Arial" fill="#27934d" transform="matrix(1,0,0,1,15,0)"><tspan dy="0" >Staff Recovery Context</tspan></text><text  id="v-1283" font-size="16.799999999999997px" xml:space="preserve" y="716" font-weight="normal" text-anchor="start" pointer-events="visible" font-family="Tahoma, Verdana, Helvetica, Arial" fill="#27934d" transform="matrix(1,0,0,1,15,0)"><tspan dy="0" >[Container]</tspan></text><image  id="v-1284" pointer-events="visible"></image></g></g><!--z-index:30--><g   id="j_120"  transform="translate(1090,809)" style=""><g  id="v-1273" style="opacity: 1;"><rect  id="v-1274" rx="20" ry="20" stroke-width="2" pointer-events="visiblePainted" fill="#7b7b7b" stroke="#6f6f6f" stroke-dasharray="" width="450" height="300" style="fill: rgb(123, 123, 123); stroke: rgb(111, 111, 111);"></rect><text  id="v-1275" font-size="33.599999999999994px" xml:space="preserve" y="86.9" font-weight="bold" text-anchor="middle" pointer-events="visible" font-family="Tahoma, Verdana, Helvetica, Arial" fill="#ffffff" dominant-baseline="hanging" transform="matrix(1,0,0,1,225,0)" style="fill: rgb(255, 255, 255);"><tspan dy="0" >Interfaces</tspan></text><text  id="v-1276" font-size="16.799999999999997px" xml:space="preserve" y="128.5" text-anchor="middle" font-family="Tahoma, Verdana, Helvetica, Arial" fill="#ffffff" dominant-baseline="hanging" transform="matrix(1,0,0,1,225,0)" style="display: block; fill: rgb(255, 255, 255);"><tspan dy="0" >[Component: ASP.NET Core REST]</tspan></text><text  id="v-1277" font-size="24px" xml:space="preserve" y="160.3" text-anchor="middle" font-family="Tahoma, Verdana, Helvetica, Arial" fill="#ffffff" dominant-baseline="hanging" transform="matrix(1,0,0,1,225,0)" style="display: block; fill: rgb(255, 255, 255);"><tspan dy="0" >1: interfaces - REST endpoints for</tspan><tspan dy="1.2em" x="0" >recovery plans.</tspan></text><g  id="v-1278" color="#ffffff" transform="matrix(1,0,0,1,222.5,268)" display="none" style="fill: rgb(255, 255, 255);"><g ></g><g ></g><g ></g><g ></g></g><image  id="v-1279"></image></g></g><!--z-index:31--><g   id="j_122"  transform="translate(1880,820)" style=""><g  id="v-1288" style="opacity: 1;"><rect  id="v-1289" rx="20" ry="20" stroke-width="2" pointer-events="visiblePainted" fill="#7b7b7b" stroke="#6f6f6f" stroke-dasharray="" width="450" height="300" style="fill: rgb(123, 123, 123); stroke: rgb(111, 111, 111);"></rect><text  id="v-1290" font-size="33.599999999999994px" xml:space="preserve" y="86.9" font-weight="bold" text-anchor="middle" pointer-events="visible" font-family="Tahoma, Verdana, Helvetica, Arial" fill="#ffffff" dominant-baseline="hanging" transform="matrix(1,0,0,1,225,0)" style="fill: rgb(255, 255, 255);"><tspan dy="0" >Application</tspan></text><text  id="v-1291" font-size="16.799999999999997px" xml:space="preserve" y="128.5" text-anchor="middle" font-family="Tahoma, Verdana, Helvetica, Arial" fill="#ffffff" dominant-baseline="hanging" transform="matrix(1,0,0,1,225,0)" style="display: block; fill: rgb(255, 255, 255);"><tspan dy="0" >[Component: C# Service]</tspan></text><text  id="v-1292" font-size="24px" xml:space="preserve" y="160.3" text-anchor="middle" font-family="Tahoma, Verdana, Helvetica, Arial" fill="#ffffff" dominant-baseline="hanging" transform="matrix(1,0,0,1,225,0)" style="display: block; fill: rgb(255, 255, 255);"><tspan dy="0" >2: application - Recovery plan</tspan><tspan dy="1.2em" x="0" >orchestration use cases.</tspan></text><g  id="v-1293" color="#ffffff" transform="matrix(1,0,0,1,222.5,268)" display="none" style="fill: rgb(255, 255, 255);"><g ></g><g ></g><g ></g><g ></g></g><image  id="v-1294"></image></g></g><!--z-index:32--><g   id="j_123"  transform="translate(2670,848)" style=""><g  id="v-1298" style="opacity: 1;"><rect  id="v-1299" rx="20" ry="20" stroke-width="2" pointer-events="visiblePainted" fill="#7b7b7b" stroke="#6f6f6f" stroke-dasharray="" width="450" height="300" style="fill: rgb(123, 123, 123); stroke: rgb(111, 111, 111);"></rect><text  id="v-1300" font-size="33.599999999999994px" xml:space="preserve" y="86.9" font-weight="bold" text-anchor="middle" pointer-events="visible" font-family="Tahoma, Verdana, Helvetica, Arial" fill="#ffffff" dominant-baseline="hanging" transform="matrix(1,0,0,1,225,0)" style="fill: rgb(255, 255, 255);"><tspan dy="0" >Infrastructure</tspan></text><text  id="v-1301" font-size="16.799999999999997px" xml:space="preserve" y="128.5" text-anchor="middle" font-family="Tahoma, Verdana, Helvetica, Arial" fill="#ffffff" dominant-baseline="hanging" transform="matrix(1,0,0,1,225,0)" style="display: block; fill: rgb(255, 255, 255);"><tspan dy="0" >[Component: EF Core]</tspan></text><text  id="v-1302" font-size="24px" xml:space="preserve" y="160.3" text-anchor="middle" font-family="Tahoma, Verdana, Helvetica, Arial" fill="#ffffff" dominant-baseline="hanging" transform="matrix(1,0,0,1,225,0)" style="display: block; fill: rgb(255, 255, 255);"><tspan dy="0" >4: infrastructure - Persists recovery</tspan><tspan dy="1.2em" x="0" >plans.</tspan></text><g  id="v-1303" color="#ffffff" transform="matrix(1,0,0,1,222.5,268)" display="none" style="fill: rgb(255, 255, 255);"><g ></g><g ></g><g ></g><g ></g></g><image  id="v-1304"></image></g></g><!--z-index:33--><g   id="j_124"  transform="translate(3460,1061)" style=""><g  id="v-1308" style="opacity: 1;"><rect  id="v-1309" rx="20" ry="20" stroke-width="2" pointer-events="visiblePainted" fill="#7b7b7b" stroke="#6f6f6f" stroke-dasharray="" width="450" height="300" style="fill: rgb(123, 123, 123); stroke: rgb(111, 111, 111);"></rect><text  id="v-1310" font-size="33.599999999999994px" xml:space="preserve" y="86.9" font-weight="bold" text-anchor="middle" pointer-events="visible" font-family="Tahoma, Verdana, Helvetica, Arial" fill="#ffffff" dominant-baseline="hanging" transform="matrix(1,0,0,1,225,0)" style="fill: rgb(255, 255, 255);"><tspan dy="0" >Domain</tspan></text><text  id="v-1311" font-size="16.799999999999997px" xml:space="preserve" y="128.5" text-anchor="middle" font-family="Tahoma, Verdana, Helvetica, Arial" fill="#ffffff" dominant-baseline="hanging" transform="matrix(1,0,0,1,225,0)" style="display: block; fill: rgb(255, 255, 255);"><tspan dy="0" >[Component: C# Domain]</tspan></text><text  id="v-1312" font-size="24px" xml:space="preserve" y="160.3" text-anchor="middle" font-family="Tahoma, Verdana, Helvetica, Arial" fill="#ffffff" dominant-baseline="hanging" transform="matrix(1,0,0,1,225,0)" style="display: block; fill: rgb(255, 255, 255);"><tspan dy="0" >3: domain - RecoveryPlan and</tspan><tspan dy="1.2em" x="0" >Status aggregates.</tspan></text><g  id="v-1313" color="#ffffff" transform="matrix(1,0,0,1,222.5,268)" display="none" style="fill: rgb(255, 255, 255);"><g ></g><g ></g><g ></g><g ></g></g><image  id="v-1314"></image></g></g><!--z-index:34--><g   id="j_125"  style="opacity: 1;"><path fill="none" cursor="pointer" stroke="transparent" stroke-linecap="round" joint-selector="wrapper" id="v-1329" stroke-width="10" stroke-linejoin="round" d="M 700 959.73 L 1090 959.27"></path><path fill="none" pointer-events="none" joint-selector="line" id="v-1328" stroke="#444444" stroke-width="2" stroke-linejoin="round" stroke-dasharray="8 8" d="M 700 959.73 L 1090 959.27" marker-end="url(#v-21252848929)"></path><g id="v-1318" ><g id="v-1319"  label-idx="0" cursor="move" transform="matrix(1,0,0,1,870,946.1295166015625)" style="cursor: default;"><rect joint-selector="rect" id="v-1323" fill="#ffffff" rx="3" ry="3" x="-95.6686019897461" y="-31.38604736328125" width="192.37857055664062" height="58.56744384765625" pointer-events="none"  style="display: block;"></rect><text joint-selector="text" id="v-1322" font-size="24px" xml:space="preserve" fill="#444444" text-anchor="middle" pointer-events="none" font-family="Tahoma, Verdana, Helvetica, Arial" font-weight="normal"  style="display: block;"><tspan dy="-0.3em" >Manages recovery</tspan><tspan dy="1.2em" x="0" >plans</tspan></text></g><g id="v-1320"  label-idx="1" cursor="move" transform="matrix(1,0,0,1,870,990.9295043945312)" style="cursor: default;"><rect joint-selector="rect" id="v-1325" fill="#ffffff" rx="3" ry="3" x="-53.76453399658203" y="-11.704185485839844" width="108.52061462402344" height="20.46511459350586"  pointer-events="none" style="display: block;"></rect><text joint-selector="text" id="v-1324" font-size="16.799999999999997px" xml:space="preserve" fill="#444444" text-anchor="middle" pointer-events="none" font-family="Tahoma, Verdana, Helvetica, Arial" font-weight="normal"  style="display: block;"><tspan dy="0.3em" >[JSON/HTTPS]</tspan></text></g><g id="v-1321"  label-idx="2" cursor="move" transform="matrix(1,0,0,1,885,999.2999877929688)" style="cursor: default;"><rect joint-selector="rect" id="v-1327" fill="#ffffff" rx="3" ry="3" x="0" y="-1.1368683772161603e-13" width="0" height="0"  display="none"></rect><text joint-selector="text" id="v-1326" fill="#000000" font-size="14" text-anchor="middle" text-vertical-anchor="middle" pointer-events="none"></text></g></g></g><!--z-index:35--><g   id="j_126"  style="opacity: 1;"><path fill="none" cursor="pointer" stroke="transparent" stroke-linecap="round" joint-selector="wrapper" id="v-1341" stroke-width="10" stroke-linejoin="round" d="M 1540 965.27 L 1700 970 C 1706.6666666666665 970 1713.3333333333333 970 1720 970 L 1880 970"></path><path fill="none" pointer-events="none" joint-selector="line" id="v-1340" stroke="#444444" stroke-width="2" stroke-linejoin="round" stroke-dasharray="8 8" d="M 1540 965.27 L 1700 970 C 1706.6666666666665 970 1713.3333333333333 970 1720 970 L 1880 970" marker-end="url(#v-21252848929)"></path><g id="v-1333" ><g id="v-1334"  label-idx="0" cursor="move" transform="matrix(1,0,0,1,1710,970)" style="cursor: default;"><rect joint-selector="rect" id="v-1337" fill="#ffffff" rx="3" ry="3" x="-66.4244155883789" y="-16.98604393005371" width="132.8488311767578" height="29.767440795898438" pointer-events="none"  style="display: block;"></rect><text joint-selector="text" id="v-1336" font-size="24px" xml:space="preserve" fill="#444444" text-anchor="middle" pointer-events="none" font-family="Tahoma, Verdana, Helvetica, Arial" font-weight="normal"  style="display: block;"><tspan dy="0.3em" >Delegates to</tspan></text></g><g id="v-1335"  label-idx="1" cursor="move" transform="matrix(1,0,0,1,1700,982)" style="cursor: default;"><rect joint-selector="rect" id="v-1339" fill="#ffffff" rx="3" ry="3" x="-2.2737367544323206e-13" y="1.1368683772161603e-13" width="0" height="0"  display="none"></rect><text joint-selector="text" id="v-1338" fill="#000000" font-size="14" text-anchor="middle" text-vertical-anchor="middle" pointer-events="none"></text></g></g></g><!--z-index:36--><g   id="j_127"  style="opacity: 1;"><path fill="none" cursor="pointer" stroke="transparent" stroke-linecap="round" joint-selector="wrapper" id="v-1353" stroke-width="10" stroke-linejoin="round" d="M 2330 985.95 L 2490 997 C 2496.6666666666665 997.6666666666665 2503.333333333333 997.9999999999999 2510 998 L 2670 998"></path><path fill="none" pointer-events="none" joint-selector="line" id="v-1352" stroke="#444444" stroke-width="2" stroke-linejoin="round" stroke-dasharray="8 8" d="M 2330 985.95 L 2490 997 C 2496.6666666666665 997.6666666666665 2503.333333333333 997.9999999999999 2510 998 L 2670 998" marker-end="url(#v-21252848929)"></path><g id="v-1345" ><g id="v-1346"  label-idx="0" cursor="move" transform="matrix(1,0,0,1,2500,997.75)" style="cursor: default;"><rect joint-selector="rect" id="v-1349" fill="#ffffff" rx="3" ry="3" x="-58.57558059692383" y="-16.98604393005371" width="117.5661392211914" height="29.767440795898438" pointer-events="none"  style="display: block;"></rect><text joint-selector="text" id="v-1348" font-size="24px" xml:space="preserve" fill="#444444" text-anchor="middle" pointer-events="none" font-family="Tahoma, Verdana, Helvetica, Arial" font-weight="normal"  style="display: block;"><tspan dy="0.3em" >Persists via</tspan></text></g><g id="v-1347"  label-idx="1" cursor="move" transform="matrix(1,0,0,1,2490,1009.75)" style="cursor: default;"><rect joint-selector="rect" id="v-1351" fill="#ffffff" rx="3" ry="3" x="0" y="-1.1368683772161603e-13" width="0" height="0"  display="none"></rect><text joint-selector="text" id="v-1350" fill="#000000" font-size="14" text-anchor="middle" text-vertical-anchor="middle" pointer-events="none"></text></g></g></g><!--z-index:37--><g   id="j_128"  style="opacity: 1;"><path fill="none" cursor="pointer" stroke="transparent" stroke-linecap="round" joint-selector="wrapper" id="v-1365" stroke-width="10" stroke-linejoin="round" d="M 3120 1062.48 L 3280 1108 C 3286.666666666666 1110.1333333333332 3293.333333333333 1112.1333333333332 3300 1114 L 3460 1154.15"></path><path fill="none" pointer-events="none" joint-selector="line" id="v-1364" stroke="#444444" stroke-width="2" stroke-linejoin="round" stroke-dasharray="8 8" d="M 3120 1062.48 L 3280 1108 C 3286.666666666666 1110.1333333333332 3293.333333333333 1112.1333333333332 3300 1114 L 3460 1154.15" marker-end="url(#v-21252848929)"></path><g id="v-1357" ><g id="v-1358"  label-idx="0" cursor="move" transform="matrix(1,0,0,1,3290,1111.0999755859375)" style="cursor: default;"><rect joint-selector="rect" id="v-1361" fill="#ffffff" rx="3" ry="3" x="-94.7529067993164" y="-31.38604736328125" width="189.95562744140625" height="58.56744384765625" pointer-events="none"  style="display: block;"></rect><text joint-selector="text" id="v-1360" font-size="24px" xml:space="preserve" fill="#444444" text-anchor="middle" pointer-events="none" font-family="Tahoma, Verdana, Helvetica, Arial" font-weight="normal"  style="display: block;"><tspan dy="-0.3em" >Maps and persists</tspan><tspan dy="1.2em" x="0" >domain entities</tspan></text></g><g id="v-1359"  label-idx="1" cursor="move" transform="matrix(1,0,0,1,3280,1137.5)" style="cursor: default;"><rect joint-selector="rect" id="v-1363" fill="#ffffff" rx="3" ry="3" x="-4.547473508864641e-13" y="0" width="0" height="0"  display="none"></rect><text joint-selector="text" id="v-1362" fill="#000000" font-size="14" text-anchor="middle" text-vertical-anchor="middle" pointer-events="none"></text></g></g></g><!--z-index:38--><g   id="j_129"  style="opacity: 1;"><path fill="none" cursor="pointer" stroke="transparent" stroke-linecap="round" joint-selector="wrapper" id="v-1377" stroke-width="10" stroke-linejoin="round" d="M 1519.03 1109 L 1702 1243 C 1707.3333333333333 1247.2666666666667 1713.3333333333333 1249.2666666666667 1720 1249 L 3280 1249 C 3286.666666666666 1249.2666666666667 3293.333333333333 1248.9333333333334 3300 1248 L 3460 1232.87"></path><path fill="none" pointer-events="none" joint-selector="line" id="v-1376" stroke="#444444" stroke-width="2" stroke-linejoin="round" stroke-dasharray="8 8" d="M 1519.03 1109 L 1702 1243 C 1707.3333333333333 1247.2666666666667 1713.3333333333333 1249.2666666666667 1720 1249 L 3280 1249 C 3286.666666666666 1249.2666666666667 3293.333333333333 1248.9333333333334 3300 1248 L 3460 1232.87" marker-end="url(#v-21252848929)"></path><g id="v-1369" ><g id="v-1370"  label-idx="0" cursor="move" transform="matrix(1,0,0,1,2499.93896484375,1249)" style="cursor: default;"><rect joint-selector="rect" id="v-1373" fill="#ffffff" rx="3" ry="3" x="-67.61627960205078" y="-31.38604736328125" width="135.23255920410156" height="58.56744384765625" pointer-events="none"  style="display: block;"></rect><text joint-selector="text" id="v-1372" font-size="24px" xml:space="preserve" fill="#444444" text-anchor="middle" pointer-events="none" font-family="Tahoma, Verdana, Helvetica, Arial" font-weight="normal"  style="display: block;"><tspan dy="-0.3em" >Uses domain</tspan><tspan dy="1.2em" x="0" >resources</tspan></text></g><g id="v-1371"  label-idx="1" cursor="move" transform="matrix(1,0,0,1,2489.93896484375,1275.4000244140625)" style="cursor: default;"><rect joint-selector="rect" id="v-1375" fill="#ffffff" rx="3" ry="3" x="0" y="-2.2737367544323206e-13" width="0" height="0"  display="none"></rect><text joint-selector="text" id="v-1374" fill="#000000" font-size="14" text-anchor="middle" text-vertical-anchor="middle" pointer-events="none"></text></g></g></g><!--z-index:39--><g   id="j_130"  style="opacity: 1;"><path fill="none" cursor="pointer" stroke="transparent" stroke-linecap="round" joint-selector="wrapper" id="v-1389" stroke-width="10" stroke-linejoin="round" d="M 2271.53 1120 L 2493 1319 C 2497.6666666666665 1323.5333333333333 2503.333333333333 1325.8666666666666 2510 1326 L 3280 1326 C 3286.666666666666 1325.8666666666666 3293.333333333333 1324.8666666666666 3300 1323 L 3460 1276.39"></path><path fill="none" pointer-events="none" joint-selector="line" id="v-1388" stroke="#444444" stroke-width="2" stroke-linejoin="round" stroke-dasharray="8 8" d="M 2271.53 1120 L 2493 1319 C 2497.6666666666665 1323.5333333333333 2503.333333333333 1325.8666666666666 2510 1326 L 3280 1326 C 3286.666666666666 1325.8666666666666 3293.333333333333 1324.8666666666666 3300 1323 L 3460 1276.39" marker-end="url(#v-21252848929)"></path><g id="v-1381" ><g id="v-1382"  label-idx="0" cursor="move" transform="matrix(1,0,0,1,2895.360107421875,1326)" style="cursor: default;"><rect joint-selector="rect" id="v-1385" fill="#ffffff" rx="3" ry="3" x="-96.78778839111328" y="-16.98604393005371" width="194.0220184326172" height="29.767440795898438" pointer-events="none"  style="display: block;"></rect><text joint-selector="text" id="v-1384" font-size="24px" xml:space="preserve" fill="#444444" text-anchor="middle" pointer-events="none" font-family="Tahoma, Verdana, Helvetica, Arial" font-weight="normal"  style="display: block;"><tspan dy="0.3em" >Uses domain rules</tspan></text></g><g id="v-1383"  label-idx="1" cursor="move" transform="matrix(1,0,0,1,2885.360107421875,1338)" style="cursor: default;"><rect joint-selector="rect" id="v-1387" fill="#ffffff" rx="3" ry="3" x="0" y="0" width="0" height="0"  display="none"></rect><text joint-selector="text" id="v-1386" fill="#000000" font-size="14" text-anchor="middle" text-vertical-anchor="middle" pointer-events="none"></text></g></g></g><!--z-index:40--><g   id="j_131"  style="opacity: 1;"><path fill="none" cursor="pointer" stroke="transparent" stroke-linecap="round" joint-selector="wrapper" id="v-1404" stroke-width="10" stroke-linejoin="round" d="M 3056.8 848 L 3283 639 C 3287.666666666666 634.1999999999999 3292.666666666666 629.8666666666666 3298 626 L 3480.55 492"></path><path fill="none" pointer-events="none" joint-selector="line" id="v-1403" stroke="#444444" stroke-width="2" stroke-linejoin="round" stroke-dasharray="8 8" d="M 3056.8 848 L 3283 639 C 3287.666666666666 634.1999999999999 3292.666666666666 629.8666666666666 3298 626 L 3480.55 492" marker-end="url(#v-21252848929)"></path><g id="v-1393" ><g id="v-1394"  label-idx="0" cursor="move" transform="matrix(1,0,0,1,3290.279296875,618.724609375)" style="cursor: default;"><rect joint-selector="rect" id="v-1398" fill="#ffffff" rx="3" ry="3" x="-72.06394958496094" y="-31.38604736328125" width="144.5426788330078" height="58.56744384765625" pointer-events="none"  style="display: block;"></rect><text joint-selector="text" id="v-1397" font-size="24px" xml:space="preserve" fill="#444444" text-anchor="middle" pointer-events="none" font-family="Tahoma, Verdana, Helvetica, Arial" font-weight="normal"  style="display: block;"><tspan dy="-0.3em" >Reads/Writes</tspan><tspan dy="1.2em" x="0" >recovery data</tspan></text></g><g id="v-1395"  label-idx="1" cursor="move" transform="matrix(1,0,0,1,3290.279296875,663.5245971679688)" style="cursor: default;"><rect joint-selector="rect" id="v-1400" fill="#ffffff" rx="3" ry="3" x="-38.88081359863281" y="-11.704185485839844" width="78.74332427978516" height="20.46511459350586"  pointer-events="none" style="display: block;"></rect><text joint-selector="text" id="v-1399" font-size="16.799999999999997px" xml:space="preserve" fill="#444444" text-anchor="middle" pointer-events="none" font-family="Tahoma, Verdana, Helvetica, Arial" font-weight="normal"  style="display: block;"><tspan dy="0.3em" >[SQL/TCP]</tspan></text></g><g id="v-1396"  label-idx="2" cursor="move" transform="matrix(1,0,0,1,3250.360107421875,699.7183227539062)" style="cursor: default;"><rect joint-selector="rect" id="v-1402" fill="#ffffff" rx="3" ry="3" x="0" y="-1.1368683772161603e-13" width="0" height="0"  display="none"></rect><text joint-selector="text" id="v-1401" fill="#000000" font-size="14" text-anchor="middle" text-vertical-anchor="middle" pointer-events="none"></text></g></g></g><!--z-index:41--><g   id="j_132"  style="opacity: 1;"><path fill="none" cursor="pointer" stroke="transparent" stroke-linecap="round" joint-selector="wrapper" id="v-1416" stroke-width="10" stroke-linejoin="round" d="M 1540 823.77 L 1701 727 C 1707 723.3999999999999 1713.3333333333333 721.7333333333332 1720 722 L 4120 722 C 4126.666666666666 721.7333333333332 4133 723.0666666666666 4139 726 L 4300 801.82"></path><path fill="none" pointer-events="none" joint-selector="line" id="v-1415" stroke="#444444" stroke-width="2" stroke-linejoin="round" stroke-dasharray="8 8" d="M 1540 823.77 L 1701 727 C 1707 723.3999999999999 1713.3333333333333 721.7333333333332 1720 722 L 4120 722 C 4126.666666666666 721.7333333333332 4133 723.0666666666666 4139 726 L 4300 801.82" marker-end="url(#v-21252848929)"></path><g id="v-1408" ><g id="v-1409"  label-idx="0" cursor="move" transform="matrix(1,0,0,1,2895.16162109375,722)" style="cursor: default;"><rect joint-selector="rect" id="v-1412" fill="#ffffff" rx="3" ry="3" x="-86.25" y="-31.38604736328125" width="172.8373565673828" height="58.56744384765625" pointer-events="none"  style="display: block;"></rect><text joint-selector="text" id="v-1411" font-size="24px" xml:space="preserve" fill="#444444" text-anchor="middle" pointer-events="none" font-family="Tahoma, Verdana, Helvetica, Arial" font-weight="normal"  style="display: block;"><tspan dy="-0.3em" >Uses shared API</tspan><tspan dy="1.2em" x="0" >responses</tspan></text></g><g id="v-1410"  label-idx="1" cursor="move" transform="matrix(1,0,0,1,2885.16162109375,748.4000244140625)" style="cursor: default;"><rect joint-selector="rect" id="v-1414" fill="#ffffff" rx="3" ry="3" x="0" y="-1.1368683772161603e-13" width="0" height="0"  display="none"></rect><text joint-selector="text" id="v-1413" fill="#000000" font-size="14" text-anchor="middle" text-vertical-anchor="middle" pointer-events="none"></text></g></g></g><!--z-index:42--><g   id="j_133"  style="opacity: 1;"><path fill="none" cursor="pointer" stroke="transparent" stroke-linecap="round" joint-selector="wrapper" id="v-1428" stroke-width="10" stroke-linejoin="round" d="M 2330 872.03 L 2491 802 C 2497 799.3333333333333 2503.333333333333 798 2510 798 L 4120 798 C 4126.666666666666 798 4133.333333333333 799 4140 801 L 4300 845.34"></path><path fill="none" pointer-events="none" joint-selector="line" id="v-1427" stroke="#444444" stroke-width="2" stroke-linejoin="round" stroke-dasharray="8 8" d="M 2330 872.03 L 2491 802 C 2497 799.3333333333333 2503.333333333333 798 2510 798 L 4120 798 C 4126.666666666666 798 4133.333333333333 799 4140 801 L 4300 845.34" marker-end="url(#v-21252848929)"></path><g id="v-1420" ><g id="v-1421"  label-idx="0" cursor="move" transform="matrix(1,0,0,1,3290.0634765625,798)" style="cursor: default;"><rect joint-selector="rect" id="v-1424" fill="#ffffff" rx="3" ry="3" x="-64.2151107788086" y="-31.38604736328125" width="128.4302215576172" height="58.56744384765625" pointer-events="none"  style="display: block;"></rect><text joint-selector="text" id="v-1423" font-size="24px" xml:space="preserve" fill="#444444" text-anchor="middle" pointer-events="none" font-family="Tahoma, Verdana, Helvetica, Arial" font-weight="normal"  style="display: block;"><tspan dy="-0.3em" >Uses shared</tspan><tspan dy="1.2em" x="0" >behaviors</tspan></text></g><g id="v-1422"  label-idx="1" cursor="move" transform="matrix(1,0,0,1,3280.0634765625,824.4000244140625)" style="cursor: default;"><rect joint-selector="rect" id="v-1426" fill="#ffffff" rx="3" ry="3" x="4.547473508864641e-13" y="-1.1368683772161603e-13" width="0" height="0"  display="none"></rect><text joint-selector="text" id="v-1425" fill="#000000" font-size="14" text-anchor="middle" text-vertical-anchor="middle" pointer-events="none"></text></g></g></g><!--z-index:43--><g   id="j_134"  style="opacity: 1;"><path fill="none" cursor="pointer" stroke="transparent" stroke-linecap="round" joint-selector="wrapper" id="v-1440" stroke-width="10" stroke-linejoin="round" d="M 3120 976.24 L 3280 961 C 3286.666666666666 960.1999999999998 3293.333333333333 959.8666666666666 3300 960 L 4120 960 C 4126.666666666666 959.8666666666666 4133.333333333333 959.1999999999998 4140 958 L 4300 937.51"></path><path fill="none" pointer-events="none" joint-selector="line" id="v-1439" stroke="#444444" stroke-width="2" stroke-linejoin="round" stroke-dasharray="8 8" d="M 3120 976.24 L 3280 961 C 3286.666666666666 960.1999999999998 3293.333333333333 959.8666666666666 3300 960 L 4120 960 C 4126.666666666666 959.8666666666666 4133.333333333333 959.1999999999998 4140 958 L 4300 937.51" marker-end="url(#v-21252848929)"></path><g id="v-1432" ><g id="v-1433"  label-idx="0" cursor="move" transform="matrix(1,0,0,1,3685.00634765625,960)" style="cursor: default;"><rect joint-selector="rect" id="v-1436" fill="#ffffff" rx="3" ry="3" x="-91.20639038085938" y="-31.38604736328125" width="182.82781982421875" height="58.56744384765625" pointer-events="none"  style="display: block;"></rect><text joint-selector="text" id="v-1435" font-size="24px" xml:space="preserve" fill="#444444" text-anchor="middle" pointer-events="none" font-family="Tahoma, Verdana, Helvetica, Arial" font-weight="normal"  style="display: block;"><tspan dy="-0.3em" >Uses shared data</tspan><tspan dy="1.2em" x="0" >access</tspan></text></g><g id="v-1434"  label-idx="1" cursor="move" transform="matrix(1,0,0,1,3675.00634765625,986.4000244140625)" style="cursor: default;"><rect joint-selector="rect" id="v-1438" fill="#ffffff" rx="3" ry="3" x="0" y="0" width="0" height="0"  display="none"></rect><text joint-selector="text" id="v-1437" fill="#000000" font-size="14" text-anchor="middle" text-vertical-anchor="middle" pointer-events="none"></text></g></g></g><!--z-index:44--><g   id="j_135"  style="opacity: 1;"><path fill="none" cursor="pointer" stroke="transparent" stroke-linecap="round" joint-selector="wrapper" id="v-1452" stroke-width="10" stroke-linejoin="round" d="M 3910 1211.1 L 4120 1211 C 4126.666666666666 1211.1333333333332 4132.666666666666 1209.1333333333332 4138 1205 L 4329.58 1058"></path><path fill="none" pointer-events="none" joint-selector="line" id="v-1451" stroke="#444444" stroke-width="2" stroke-linejoin="round" stroke-dasharray="8 8" d="M 3910 1211.1 L 4120 1211 C 4126.666666666666 1211.1333333333332 4132.666666666666 1209.1333333333332 4138 1205 L 4329.58 1058" marker-end="url(#v-21252848929)"></path><g id="v-1444" ><g id="v-1445"  label-idx="0" cursor="move" transform="matrix(1,0,0,1,4129.60546875,1209.5645751953125)" style="cursor: default;"><rect joint-selector="rect" id="v-1448" fill="#ffffff" rx="3" ry="3" x="-70.90116119384766" y="-31.38604736328125" width="142.22518920898438" height="58.56744384765625" pointer-events="none"  style="display: block;"></rect><text joint-selector="text" id="v-1447" font-size="24px" xml:space="preserve" fill="#444444" text-anchor="middle" pointer-events="none" font-family="Tahoma, Verdana, Helvetica, Arial" font-weight="normal"  style="display: block;"><tspan dy="-0.3em" >Uses shared</tspan><tspan dy="1.2em" x="0" >domain types</tspan></text></g><g id="v-1446"  label-idx="1" cursor="move" transform="matrix(1,0,0,1,4119.60546875,1235.964599609375)" style="cursor: default;"><rect joint-selector="rect" id="v-1450" fill="#ffffff" rx="3" ry="3" x="0" y="0" width="0" height="0"  display="none"></rect><text joint-selector="text" id="v-1449" fill="#000000" font-size="14" text-anchor="middle" text-vertical-anchor="middle" pointer-events="none"></text></g></g></g><!--z-index:45--><!--z-index:46--><!--z-index:47--><!--z-index:48--><!--z-index:49--><!--z-index:50--><!--z-index:51--><!--z-index:52--><!--z-index:53--><!--z-index:54--><!--z-index:55--></g><g  style="user-select: none;"></g><g ></g><g  display="none"></g></g></svg>