<svg xmlns="http://www.w3.org/2000/svg" xmlns:xlink="http://www.w3.org/1999/xlink" version="1.1" style="background: #ffffff" viewBox="0 0 5000 1893"><style id="v-3" type="text/css">        .joint-element .scalable * {            vector-effect: non-scaling-stroke;        }    </style><defs joint-selector="defs"><marker id="v-2-527367903" orient="auto" overflow="visible" markerUnits="userSpaceOnUse"><path id="v-128" stroke="#cccccc" fill="#cccccc" transform="rotate(180)" d="M 20 -10 0 0 20 10 Z"></path></marker><marker id="v-21252848929" orient="auto" overflow="visible" markerUnits="userSpaceOnUse"><path id="v-736" stroke="#444444" fill="#444444" transform="rotate(180)" d="M 20 -10 0 0 20 10 Z"></path></marker></defs><g joint-selector="layers"  transform="matrix(1,0,0,1,0,0)"><g  style="pointer-events: none;"></g><g ></g><g  style="user-select: none;"><!--z-index:0--><!--z-index:1--><!--z-index:2--><!--z-index:3--><!--z-index:4--><!--z-index:5--><!--z-index:6--><!--z-index:7--><!--z-index:8--><!--z-index:9--><!--z-index:10--><!--z-index:11--><!--z-index:12--><!--z-index:13--><!--z-index:14--><!--z-index:15--><!--z-index:16--><!--z-index:17--><!--z-index:18--><!--z-index:19--><!--z-index:20--><!--z-index:21--><!--z-index:22--><!--z-index:23--><!--z-index:24--><!--z-index:25--><!--z-index:26--><!--z-index:27--><g   id="j_166"  transform="translate(20,1849)"><g id="v-1763"><text  id="v-1764" font-size="24px" xml:space="preserve" y="0.8em" font-weight="normal" text-anchor="start" fill="#444444" pointer-events="none" display="block" font-family="Tahoma, Verdana, Helvetica, Arial"><tspan dy="0" >jueves, 9 de julio de 2026, 2:48 p. m. hora estándar de Perú</tspan></text></g></g><!--z-index:28--><g   id="j_165"  transform="translate(20,1815)"><g id="v-1761"><text  id="v-1762" font-size="24px" xml:space="preserve" y="0.8em" font-weight="normal" text-anchor="start" fill="#444444" pointer-events="none" display="block" font-family="Tahoma, Verdana, Helvetica, Arial"><tspan dy="0" >Component View: Clinical Risk Assessment Context</tspan></text></g></g><!--z-index:29--><g   id="j_164"  transform="translate(20,1769)"><g id="v-1759"><text  id="v-1760" font-size="36px" xml:space="preserve" y="0.8em" font-weight="normal" text-anchor="start" fill="#444444" pointer-events="none" display="block" font-family="Tahoma, Verdana, Helvetica, Arial"><tspan dy="0" >Component View: CortiSense - Clinical Risk Assessment Context</tspan></text></g></g><!--z-index:30--><g   id="j_168"  transform="translate(200,142)" style="; opacity: 1;"><g id="v-1783"><rect  id="v-1784" width="4600" height="1493" rx="0" ry="0" stroke-width="2" pointer-events="none" stroke="#444444" fill="#ffffff" opacity="1" stroke-dasharray=""></rect><text  id="v-1785" font-size="33.599999999999994px" xml:space="preserve" y="1454" font-weight="bold" text-anchor="start" pointer-events="visible" font-family="Tahoma, Verdana, Helvetica, Arial" fill="#444444" transform="matrix(1,0,0,1,15,0)"><tspan dy="0" >CortiSense</tspan></text><text  id="v-1786" font-size="16.799999999999997px" xml:space="preserve" y="1478" font-weight="normal" text-anchor="start" pointer-events="visible" font-family="Tahoma, Verdana, Helvetica, Arial" fill="#444444" transform="matrix(1,0,0,1,15,0)"><tspan dy="0" >[Software System]</tspan></text><image  id="v-1787" pointer-events="visible"></image></g></g><!--z-index:31--><g   id="j_167"  transform="translate(250,633)" style=""><g  id="v-1771" style="opacity: 1;"><rect  id="v-1772" rx="10" ry="10" stroke-width="2" pointer-events="visiblePainted" fill="#2672c0" stroke="#2672c0" stroke-dasharray="" width="450" height="302" style="fill: rgb(38, 114, 192); stroke: rgb(38, 114, 192);"></rect><rect  id="v-1773" rx="10" ry="10" stroke-width="0" pointer-events="visiblePainted" fill="#2a7fd5" stroke="#2672c0" width="446" height="260" x="2" y="40" style="fill: rgb(42, 127, 213);"></rect><ellipse  id="v-1780" fill="#2a7fd5" cx="20" cy="20" rx="10" ry="10" style="fill: rgb(42, 127, 213);"></ellipse><ellipse  id="v-1781" fill="#2a7fd5" cx="50" cy="20" rx="10" ry="10" style="fill: rgb(42, 127, 213);"></ellipse><ellipse  id="v-1782" fill="#2a7fd5" cx="80" cy="20" rx="10" ry="10" style="fill: rgb(42, 127, 213);"></ellipse><rect  id="v-1774" rx="10" ry="10" stroke-width="0" pointer-events="visiblePainted" fill="#2a7fd5" width="340" height="20" x="100" y="10" style="fill: rgb(42, 127, 213);"></rect><text  id="v-1775" font-size="33.599999999999994px" xml:space="preserve" y="106.9" font-weight="bold" text-anchor="middle" pointer-events="visible" font-family="Tahoma, Verdana, Helvetica, Arial" fill="#ffffff" dominant-baseline="hanging" transform="matrix(1,0,0,1,225,0)" style="fill: rgb(255, 255, 255);"><tspan dy="0" >Single Page Application</tspan></text><text  id="v-1776" font-size="16.799999999999997px" xml:space="preserve" y="148.5" text-anchor="middle" font-family="Tahoma, Verdana, Helvetica, Arial" fill="#ffffff" dominant-baseline="hanging" transform="matrix(1,0,0,1,225,0)" style="display: block; fill: rgb(255, 255, 255);"><tspan dy="0" >[Container: Vue 3]</tspan></text><text  id="v-1777" font-size="24px" xml:space="preserve" y="180.3" text-anchor="middle" font-family="Tahoma, Verdana, Helvetica, Arial" fill="#ffffff" dominant-baseline="hanging" transform="matrix(1,0,0,1,225,0)" style="display: block; fill: rgb(255, 255, 255);"><tspan dy="0" >Main interface for administrators,</tspan><tspan dy="1.2em" x="0" >doctors, and staff.</tspan></text><g  id="v-1778" font-weight="normal" text-anchor="middle" color="#ffffff" transform="matrix(1,0,0,1,222.5,268)" display="none" style="fill: rgb(255, 255, 255);"><g ></g><g ></g><g ></g><g ></g></g><image  id="v-1779"></image></g></g><!--z-index:32--><g   id="j_169"  transform="translate(3460,192)" style=""><g  id="v-1791" style="opacity: 1;"><path  d="M 0,30 a 225,30 0,0,0 450 0 a 225,30 0,0,0 -450 0 l 0,240 a 225,30 0,0,0 450 0 l 0,-240" id="v-1792" stroke-width="2" pointer-events="visiblePainted" fill="#e51c23" stroke="#ce1920" stroke-dasharray="" style="fill: rgb(229, 28, 35); stroke: rgb(206, 25, 32);"></path><rect  id="v-1793" stroke-width="0" pointer-events="visiblePainted" fill="none" stroke="none" width="450" height="270" x="0" y="30"></rect><text  id="v-1794" font-size="33.599999999999994px" xml:space="preserve" y="101.9" font-weight="bold" text-anchor="middle" pointer-events="visible" font-family="Tahoma, Verdana, Helvetica, Arial" fill="#ffffff" dominant-baseline="hanging" transform="matrix(1,0,0,1,225,0)" style="fill: rgb(255, 255, 255);"><tspan dy="0" >Database</tspan></text><text  id="v-1795" font-size="16.799999999999997px" xml:space="preserve" y="143.5" text-anchor="middle" font-family="Tahoma, Verdana, Helvetica, Arial" fill="#ffffff" dominant-baseline="hanging" transform="matrix(1,0,0,1,225,0)" style="display: block; fill: rgb(255, 255, 255);"><tspan dy="0" >[Container: MySQL]</tspan></text><text  id="v-1796" font-size="24px" xml:space="preserve" y="175.3" text-anchor="middle" font-family="Tahoma, Verdana, Helvetica, Arial" fill="#ffffff" dominant-baseline="hanging" transform="matrix(1,0,0,1,225,0)" style="display: block; fill: rgb(255, 255, 255);"><tspan dy="0" >Stores users, shifts, subscriptions,</tspan><tspan dy="1.2em" x="0" >telemetry, and logs.</tspan></text><g  id="v-1797" font-weight="normal" text-anchor="middle" color="#ffffff" transform="matrix(1,0,0,1,222.5,268)" display="none" style="fill: rgb(255, 255, 255);"><g ></g><g ></g><g ></g><g ></g></g><image  id="v-1798"></image></g></g><!--z-index:33--><g   id="j_170"  transform="translate(4300,1038)" style=""><g  id="v-1802" style="opacity: 1;"><rect  id="v-1803" rx="20" ry="20" stroke-width="2" pointer-events="visiblePainted" fill="#2ba356" stroke="#27934d" stroke-dasharray="" width="450" height="300" style="fill: rgb(43, 163, 86); stroke: rgb(39, 147, 77);"></rect><text  id="v-1804" font-size="33.599999999999994px" xml:space="preserve" y="86.9" font-weight="bold" text-anchor="middle" pointer-events="visible" font-family="Tahoma, Verdana, Helvetica, Arial" fill="#ffffff" dominant-baseline="hanging" transform="matrix(1,0,0,1,225,0)" style="fill: rgb(255, 255, 255);"><tspan dy="0" >Shared Kernel</tspan></text><text  id="v-1805" font-size="16.799999999999997px" xml:space="preserve" y="128.5" text-anchor="middle" font-family="Tahoma, Verdana, Helvetica, Arial" fill="#ffffff" dominant-baseline="hanging" transform="matrix(1,0,0,1,225,0)" style="display: block; fill: rgb(255, 255, 255);"><tspan dy="0" >[Container: C# Class Library]</tspan></text><text  id="v-1806" font-size="24px" xml:space="preserve" y="160.3" text-anchor="middle" font-family="Tahoma, Verdana, Helvetica, Arial" fill="#ffffff" dominant-baseline="hanging" transform="matrix(1,0,0,1,225,0)" style="display: block; fill: rgb(255, 255, 255);"><tspan dy="0" >Centralizes base classes, exceptions,</tspan><tspan dy="1.2em" x="0" >and cross-cutting abstractions.</tspan></text><g  id="v-1807" color="#ffffff" transform="matrix(1,0,0,1,210,268)" display="none" style="fill: rgb(255, 255, 255);"><g  transform="translate(5 0)"><svg xmlns="http://www.w3.org/2000/svg" width="20" height="20" fill="currentColor" viewBox="0 0 16 16"><path fill-rule="evenodd" d="M6.5 12a5.5 5.5 0 1 0 0-11 5.5 5.5 0 0 0 0 11zM13 6.5a6.5 6.5 0 1 1-13 0 6.5 6.5 0 0 1 13 0z"></path><path d="M10.344 11.742c.03.04.062.078.098.115l3.85 3.85a1 1 0 0 0 1.415-1.414l-3.85-3.85a1.007 1.007 0 0 0-.115-.1 6.538 6.538 0 0 1-1.398 1.4z"></path><path fill-rule="evenodd" d="M6.5 3a.5.5 0 0 1 .5.5V6h2.5a.5.5 0 0 1 0 1H7v2.5a.5.5 0 0 1-1 0V7H3.5a.5.5 0 0 1 0-1H6V3.5a.5.5 0 0 1 .5-.5z"></path></svg></g><g ></g><g ></g><g ></g></g><image  id="v-1808"></image></g></g><!--z-index:34--><g   id="j_171"  transform="translate(2670,305)" style=""><g  id="v-1815" style="opacity: 1;"><rect  id="v-1816" rx="20" ry="20" stroke-width="2" pointer-events="visiblePainted" fill="#2ba356" stroke="#27934d" stroke-dasharray="" width="450" height="300" style="fill: rgb(43, 163, 86); stroke: rgb(39, 147, 77);"></rect><text  id="v-1817" font-size="33.599999999999994px" xml:space="preserve" y="66.74000000000001" font-weight="bold" text-anchor="middle" pointer-events="visible" font-family="Tahoma, Verdana, Helvetica, Arial" fill="#ffffff" dominant-baseline="hanging" transform="matrix(1,0,0,1,225,0)" style="fill: rgb(255, 255, 255);"><tspan dy="0" >Audit and Compliance</tspan><tspan dy="1.2em" x="0" >Context</tspan></text><text  id="v-1818" font-size="16.799999999999997px" xml:space="preserve" y="148.66" text-anchor="middle" font-family="Tahoma, Verdana, Helvetica, Arial" fill="#ffffff" dominant-baseline="hanging" transform="matrix(1,0,0,1,225,0)" style="display: block; fill: rgb(255, 255, 255);"><tspan dy="0" >[Container: C# Class Library]</tspan></text><text  id="v-1819" font-size="24px" xml:space="preserve" y="180.45999999999998" text-anchor="middle" font-family="Tahoma, Verdana, Helvetica, Arial" fill="#ffffff" dominant-baseline="hanging" transform="matrix(1,0,0,1,225,0)" style="display: block; fill: rgb(255, 255, 255);"><tspan dy="0" >Maintains immutable institutional</tspan><tspan dy="1.2em" x="0" >logs.</tspan></text><g  id="v-1820" color="#ffffff" transform="matrix(1,0,0,1,210,268)" display="none" style="fill: rgb(255, 255, 255);"><g  transform="translate(5 0)"><svg xmlns="http://www.w3.org/2000/svg" width="20" height="20" fill="currentColor" viewBox="0 0 16 16"><path fill-rule="evenodd" d="M6.5 12a5.5 5.5 0 1 0 0-11 5.5 5.5 0 0 0 0 11zM13 6.5a6.5 6.5 0 1 1-13 0 6.5 6.5 0 0 1 13 0z"></path><path d="M10.344 11.742c.03.04.062.078.098.115l3.85 3.85a1 1 0 0 0 1.415-1.414l-3.85-3.85a1.007 1.007 0 0 0-.115-.1 6.538 6.538 0 0 1-1.398 1.4z"></path><path fill-rule="evenodd" d="M6.5 3a.5.5 0 0 1 .5.5V6h2.5a.5.5 0 0 1 0 1H7v2.5a.5.5 0 0 1-1 0V7H3.5a.5.5 0 0 1 0-1H6V3.5a.5.5 0 0 1 .5-.5z"></path></svg></g><g ></g><g ></g><g ></g></g><image  id="v-1821"></image></g></g><!--z-index:35--><g   id="j_173"  transform="translate(1040,822)" style="; opacity: 1;"><g id="v-1832"><rect  id="v-1833" width="2920" height="684" rx="20" ry="20" stroke-width="2" pointer-events="none" stroke="#27934d" fill="#ffffff" opacity="1" stroke-dasharray=""></rect><text  id="v-1834" font-size="33.599999999999994px" xml:space="preserve" y="645" font-weight="bold" text-anchor="start" pointer-events="visible" font-family="Tahoma, Verdana, Helvetica, Arial" fill="#27934d" transform="matrix(1,0,0,1,15,0)"><tspan dy="0" >Clinical Risk Assessment Context</tspan></text><text  id="v-1835" font-size="16.799999999999997px" xml:space="preserve" y="669" font-weight="normal" text-anchor="start" pointer-events="visible" font-family="Tahoma, Verdana, Helvetica, Arial" fill="#27934d" transform="matrix(1,0,0,1,15,0)"><tspan dy="0" >[Container]</tspan></text><image  id="v-1836" pointer-events="visible"></image></g></g><!--z-index:36--><g   id="j_172"  transform="translate(1090,1022)" style=""><g  id="v-1825" style="opacity: 1;"><rect  id="v-1826" rx="20" ry="20" stroke-width="2" pointer-events="visiblePainted" fill="#7b7b7b" stroke="#6f6f6f" stroke-dasharray="" width="450" height="300" style="fill: rgb(123, 123, 123); stroke: rgb(111, 111, 111);"></rect><text  id="v-1827" font-size="33.599999999999994px" xml:space="preserve" y="86.9" font-weight="bold" text-anchor="middle" pointer-events="visible" font-family="Tahoma, Verdana, Helvetica, Arial" fill="#ffffff" dominant-baseline="hanging" transform="matrix(1,0,0,1,225,0)" style="fill: rgb(255, 255, 255);"><tspan dy="0" >Interfaces</tspan></text><text  id="v-1828" font-size="16.799999999999997px" xml:space="preserve" y="128.5" text-anchor="middle" font-family="Tahoma, Verdana, Helvetica, Arial" fill="#ffffff" dominant-baseline="hanging" transform="matrix(1,0,0,1,225,0)" style="display: block; fill: rgb(255, 255, 255);"><tspan dy="0" >[Component: ASP.NET Core REST]</tspan></text><text  id="v-1829" font-size="24px" xml:space="preserve" y="160.3" text-anchor="middle" font-family="Tahoma, Verdana, Helvetica, Arial" fill="#ffffff" dominant-baseline="hanging" transform="matrix(1,0,0,1,225,0)" style="display: block; fill: rgb(255, 255, 255);"><tspan dy="0" >1: interfaces - REST endpoints for</tspan><tspan dy="1.2em" x="0" >telemetry and risk monitoring.</tspan></text><g  id="v-1830" color="#ffffff" transform="matrix(1,0,0,1,222.5,268)" display="none" style="fill: rgb(255, 255, 255);"><g ></g><g ></g><g ></g><g ></g></g><image  id="v-1831"></image></g></g><!--z-index:37--><g   id="j_174"  transform="translate(1880,1077)" style=""><g  id="v-1840" style="opacity: 1;"><rect  id="v-1841" rx="20" ry="20" stroke-width="2" pointer-events="visiblePainted" fill="#7b7b7b" stroke="#6f6f6f" stroke-dasharray="" width="450" height="300" style="fill: rgb(123, 123, 123); stroke: rgb(111, 111, 111);"></rect><text  id="v-1842" font-size="33.599999999999994px" xml:space="preserve" y="86.9" font-weight="bold" text-anchor="middle" pointer-events="visible" font-family="Tahoma, Verdana, Helvetica, Arial" fill="#ffffff" dominant-baseline="hanging" transform="matrix(1,0,0,1,225,0)" style="fill: rgb(255, 255, 255);"><tspan dy="0" >Application</tspan></text><text  id="v-1843" font-size="16.799999999999997px" xml:space="preserve" y="128.5" text-anchor="middle" font-family="Tahoma, Verdana, Helvetica, Arial" fill="#ffffff" dominant-baseline="hanging" transform="matrix(1,0,0,1,225,0)" style="display: block; fill: rgb(255, 255, 255);"><tspan dy="0" >[Component: C# Service]</tspan></text><text  id="v-1844" font-size="24px" xml:space="preserve" y="160.3" text-anchor="middle" font-family="Tahoma, Verdana, Helvetica, Arial" fill="#ffffff" dominant-baseline="hanging" transform="matrix(1,0,0,1,225,0)" style="display: block; fill: rgb(255, 255, 255);"><tspan dy="0" >2: application - Fatigue analysis and</tspan><tspan dy="1.2em" x="0" >anomaly detection.</tspan></text><g  id="v-1845" color="#ffffff" transform="matrix(1,0,0,1,222.5,268)" display="none" style="fill: rgb(255, 255, 255);"><g ></g><g ></g><g ></g><g ></g></g><image  id="v-1846"></image></g></g><!--z-index:38--><g   id="j_175"  transform="translate(2670,1012)" style=""><g  id="v-1850" style="opacity: 1;"><rect  id="v-1851" rx="20" ry="20" stroke-width="2" pointer-events="visiblePainted" fill="#7b7b7b" stroke="#6f6f6f" stroke-dasharray="" width="450" height="300" style="fill: rgb(123, 123, 123); stroke: rgb(111, 111, 111);"></rect><text  id="v-1852" font-size="33.599999999999994px" xml:space="preserve" y="86.9" font-weight="bold" text-anchor="middle" pointer-events="visible" font-family="Tahoma, Verdana, Helvetica, Arial" fill="#ffffff" dominant-baseline="hanging" transform="matrix(1,0,0,1,225,0)" style="fill: rgb(255, 255, 255);"><tspan dy="0" >Infrastructure</tspan></text><text  id="v-1853" font-size="16.799999999999997px" xml:space="preserve" y="128.5" text-anchor="middle" font-family="Tahoma, Verdana, Helvetica, Arial" fill="#ffffff" dominant-baseline="hanging" transform="matrix(1,0,0,1,225,0)" style="display: block; fill: rgb(255, 255, 255);"><tspan dy="0" >[Component: EF Core]</tspan></text><text  id="v-1854" font-size="24px" xml:space="preserve" y="160.3" text-anchor="middle" font-family="Tahoma, Verdana, Helvetica, Arial" fill="#ffffff" dominant-baseline="hanging" transform="matrix(1,0,0,1,225,0)" style="display: block; fill: rgb(255, 255, 255);"><tspan dy="0" >4: infrastructure - Persists telemetry</tspan><tspan dy="1.2em" x="0" >and alerts.</tspan></text><g  id="v-1855" color="#ffffff" transform="matrix(1,0,0,1,222.5,268)" display="none" style="fill: rgb(255, 255, 255);"><g ></g><g ></g><g ></g><g ></g></g><image  id="v-1856"></image></g></g><!--z-index:39--><g   id="j_176"  transform="translate(3460,872)" style=""><g  id="v-1860" style="opacity: 1;"><rect  id="v-1861" rx="20" ry="20" stroke-width="2" pointer-events="visiblePainted" fill="#7b7b7b" stroke="#6f6f6f" stroke-dasharray="" width="450" height="300" style="fill: rgb(123, 123, 123); stroke: rgb(111, 111, 111);"></rect><text  id="v-1862" font-size="33.599999999999994px" xml:space="preserve" y="86.9" font-weight="bold" text-anchor="middle" pointer-events="visible" font-family="Tahoma, Verdana, Helvetica, Arial" fill="#ffffff" dominant-baseline="hanging" transform="matrix(1,0,0,1,225,0)" style="fill: rgb(255, 255, 255);"><tspan dy="0" >Domain</tspan></text><text  id="v-1863" font-size="16.799999999999997px" xml:space="preserve" y="128.5" text-anchor="middle" font-family="Tahoma, Verdana, Helvetica, Arial" fill="#ffffff" dominant-baseline="hanging" transform="matrix(1,0,0,1,225,0)" style="display: block; fill: rgb(255, 255, 255);"><tspan dy="0" >[Component: C# Domain]</tspan></text><text  id="v-1864" font-size="24px" xml:space="preserve" y="160.3" text-anchor="middle" font-family="Tahoma, Verdana, Helvetica, Arial" fill="#ffffff" dominant-baseline="hanging" transform="matrix(1,0,0,1,225,0)" style="display: block; fill: rgb(255, 255, 255);"><tspan dy="0" >3: domain - Telemetry, FatigueAlert,</tspan><tspan dy="1.2em" x="0" >and Anomaly aggregates.</tspan></text><g  id="v-1865" color="#ffffff" transform="matrix(1,0,0,1,222.5,268)" display="none" style="fill: rgb(255, 255, 255);"><g ></g><g ></g><g ></g><g ></g></g><image  id="v-1866"></image></g></g><!--z-index:40--><g   id="j_177"  style="opacity: 1;"><path fill="none" cursor="pointer" stroke="transparent" stroke-linecap="round" joint-selector="wrapper" id="v-1881" stroke-width="10" stroke-linejoin="round" d="M 628.41 935 L 863 1166 C 867.6666666666666 1170.5333333333333 873.3333333333333 1172.8666666666666 880 1173 L 1090 1172.4"></path><path fill="none" pointer-events="none" joint-selector="line" id="v-1880" stroke="#444444" stroke-width="2" stroke-linejoin="round" stroke-dasharray="8 8" d="M 628.41 935 L 863 1166 C 867.6666666666666 1170.5333333333333 873.3333333333333 1172.8666666666666 880 1173 L 1090 1172.4" marker-end="url(#v-21252848929)"></path><g id="v-1870" ><g id="v-1871"  label-idx="0" cursor="move" transform="matrix(1,0,0,1,871.4186401367188,1158.013427734375)" style="cursor: default;"><rect joint-selector="rect" id="v-1875" fill="#ffffff" rx="3" ry="3" x="-62.39825439453125" y="-31.38604736328125" width="127.70001983642578" height="58.56744384765625" pointer-events="none"  style="display: block;"></rect><text joint-selector="text" id="v-1874" font-size="24px" xml:space="preserve" fill="#444444" text-anchor="middle" pointer-events="none" font-family="Tahoma, Verdana, Helvetica, Arial" font-weight="normal"  style="display: block;"><tspan dy="-0.3em" >Queries risk</tspan><tspan dy="1.2em" x="0" >metrics</tspan></text></g><g id="v-1872"  label-idx="1" cursor="move" transform="matrix(1,0,0,1,871.4186401367188,1202.8133544921875)" style="cursor: default;"><rect joint-selector="rect" id="v-1877" fill="#ffffff" rx="3" ry="3" x="-53.76453399658203" y="-11.704185485839844" width="108.52061462402344" height="20.46511459350586"  pointer-events="none" style="display: block;"></rect><text joint-selector="text" id="v-1876" font-size="16.799999999999997px" xml:space="preserve" fill="#444444" text-anchor="middle" pointer-events="none" font-family="Tahoma, Verdana, Helvetica, Arial" font-weight="normal"  style="display: block;"><tspan dy="0.3em" >[JSON/HTTPS]</tspan></text></g><g id="v-1873"  label-idx="2" cursor="move" transform="matrix(1,0,0,1,817.2368774414062,1170.584228515625)" style="cursor: default;"><rect joint-selector="rect" id="v-1879" fill="#ffffff" rx="3" ry="3" x="0" y="0" width="0" height="0"  display="none"></rect><text joint-selector="text" id="v-1878" fill="#000000" font-size="14" text-anchor="middle" text-vertical-anchor="middle" pointer-events="none"></text></g></g></g><!--z-index:41--><g   id="j_178"  style="opacity: 1;"><path fill="none" cursor="pointer" stroke="transparent" stroke-linecap="round" joint-selector="wrapper" id="v-1893" stroke-width="10" stroke-linejoin="round" d="M 1540 1203.44 L 1700 1226 C 1706.6666666666665 1226.7999999999997 1713.3333333333333 1227.1333333333332 1720 1227 L 1880 1227.11"></path><path fill="none" pointer-events="none" joint-selector="line" id="v-1892" stroke="#444444" stroke-width="2" stroke-linejoin="round" stroke-dasharray="8 8" d="M 1540 1203.44 L 1700 1226 C 1706.6666666666665 1226.7999999999997 1713.3333333333333 1227.1333333333332 1720 1227 L 1880 1227.11" marker-end="url(#v-21252848929)"></path><g id="v-1885" ><g id="v-1886"  label-idx="0" cursor="move" transform="matrix(1,0,0,1,1710,1226.8499755859375)" style="cursor: default;"><rect joint-selector="rect" id="v-1889" fill="#ffffff" rx="3" ry="3" x="-66.4244155883789" y="-16.98604393005371" width="132.8488311767578" height="29.767440795898438" pointer-events="none"  style="display: block;"></rect><text joint-selector="text" id="v-1888" font-size="24px" xml:space="preserve" fill="#444444" text-anchor="middle" pointer-events="none" font-family="Tahoma, Verdana, Helvetica, Arial" font-weight="normal"  style="display: block;"><tspan dy="0.3em" >Delegates to</tspan></text></g><g id="v-1887"  label-idx="1" cursor="move" transform="matrix(1,0,0,1,1700,1238.8499755859375)" style="cursor: default;"><rect joint-selector="rect" id="v-1891" fill="#ffffff" rx="3" ry="3" x="0" y="0" width="0" height="0"  display="none"></rect><text joint-selector="text" id="v-1890" fill="#000000" font-size="14" text-anchor="middle" text-vertical-anchor="middle" pointer-events="none"></text></g></g></g><!--z-index:42--><g   id="j_179"  style="opacity: 1;"><path fill="none" cursor="pointer" stroke="transparent" stroke-linecap="round" joint-selector="wrapper" id="v-1905" stroke-width="10" stroke-linejoin="round" d="M 2330 1190.32 L 2490 1164 C 2496.6666666666665 1163.0666666666666 2503.333333333333 1162.7333333333331 2510 1163 L 2670 1162.34"></path><path fill="none" pointer-events="none" joint-selector="line" id="v-1904" stroke="#444444" stroke-width="2" stroke-linejoin="round" stroke-dasharray="8 8" d="M 2330 1190.32 L 2490 1164 C 2496.6666666666665 1163.0666666666666 2503.333333333333 1162.7333333333331 2510 1163 L 2670 1162.34" marker-end="url(#v-21252848929)"></path><g id="v-1897" ><g id="v-1898"  label-idx="0" cursor="move" transform="matrix(1,0,0,1,2500.0390625,1163.048095703125)" style="cursor: default;"><rect joint-selector="rect" id="v-1901" fill="#ffffff" rx="3" ry="3" x="-58.57558059692383" y="-16.98604393005371" width="117.5661392211914" height="29.767440795898438" pointer-events="none"  style="display: block;"></rect><text joint-selector="text" id="v-1900" font-size="24px" xml:space="preserve" fill="#444444" text-anchor="middle" pointer-events="none" font-family="Tahoma, Verdana, Helvetica, Arial" font-weight="normal"  style="display: block;"><tspan dy="0.3em" >Persists via</tspan></text></g><g id="v-1899"  label-idx="1" cursor="move" transform="matrix(1,0,0,1,2490.0390625,1175.048095703125)" style="cursor: default;"><rect joint-selector="rect" id="v-1903" fill="#ffffff" rx="3" ry="3" x="-4.547473508864641e-13" y="0" width="0" height="0"  display="none"></rect><text joint-selector="text" id="v-1902" fill="#000000" font-size="14" text-anchor="middle" text-vertical-anchor="middle" pointer-events="none"></text></g></g></g><!--z-index:43--><g   id="j_180"  style="opacity: 1;"><path fill="none" cursor="pointer" stroke="transparent" stroke-linecap="round" joint-selector="wrapper" id="v-1917" stroke-width="10" stroke-linejoin="round" d="M 3120 1162.34 L 3280 1163 C 3286.666666666666 1162.7333333333331 3292.9999999999995 1161.3999999999999 3299 1159 L 3460 1102.09"></path><path fill="none" pointer-events="none" joint-selector="line" id="v-1916" stroke="#444444" stroke-width="2" stroke-linejoin="round" stroke-dasharray="8 8" d="M 3120 1162.34 L 3280 1163 C 3286.666666666666 1162.7333333333331 3292.9999999999995 1161.3999999999999 3299 1159 L 3460 1102.09" marker-end="url(#v-21252848929)"></path><g id="v-1909" ><g id="v-1910"  label-idx="0" cursor="move" transform="matrix(1,0,0,1,3289.8984375,1161.7685546875)" style="cursor: default;"><rect joint-selector="rect" id="v-1913" fill="#ffffff" rx="3" ry="3" x="-94.7529067993164" y="-31.38604736328125" width="189.95562744140625" height="58.56744384765625" pointer-events="none"  style="display: block;"></rect><text joint-selector="text" id="v-1912" font-size="24px" xml:space="preserve" fill="#444444" text-anchor="middle" pointer-events="none" font-family="Tahoma, Verdana, Helvetica, Arial" font-weight="normal"  style="display: block;"><tspan dy="-0.3em" >Maps and persists</tspan><tspan dy="1.2em" x="0" >domain entities</tspan></text></g><g id="v-1911"  label-idx="1" cursor="move" transform="matrix(1,0,0,1,3279.8984375,1188.1685791015625)" style="cursor: default;"><rect joint-selector="rect" id="v-1915" fill="#ffffff" rx="3" ry="3" x="0" y="0" width="0" height="0"  display="none"></rect><text joint-selector="text" id="v-1914" fill="#000000" font-size="14" text-anchor="middle" text-vertical-anchor="middle" pointer-events="none"></text></g></g></g><!--z-index:44--><g   id="j_181"  style="opacity: 1;"><path fill="none" cursor="pointer" stroke="transparent" stroke-linecap="round" joint-selector="wrapper" id="v-1929" stroke-width="10" stroke-linejoin="round" d="M 1540 1052.72 L 1701 967 C 1707 964.0666666666666 1713.3333333333333 962.7333333333332 1720 963 L 3280 963 C 3286.666666666666 962.7333333333332 3293.333333333333 963.0666666666666 3300 964 L 3460 988.16"></path><path fill="none" pointer-events="none" joint-selector="line" id="v-1928" stroke="#444444" stroke-width="2" stroke-linejoin="round" stroke-dasharray="8 8" d="M 1540 1052.72 L 1701 967 C 1707 964.0666666666666 1713.3333333333333 962.7333333333332 1720 963 L 3280 963 C 3286.666666666666 962.7333333333332 3293.333333333333 963.0666666666666 3300 964 L 3460 988.16" marker-end="url(#v-21252848929)"></path><g id="v-1921" ><g id="v-1922"  label-idx="0" cursor="move" transform="matrix(1,0,0,1,2500.225341796875,963)" style="cursor: default;"><rect joint-selector="rect" id="v-1925" fill="#ffffff" rx="3" ry="3" x="-67.61627960205078" y="-31.38604736328125" width="135.23255920410156" height="58.56744384765625" pointer-events="none"  style="display: block;"></rect><text joint-selector="text" id="v-1924" font-size="24px" xml:space="preserve" fill="#444444" text-anchor="middle" pointer-events="none" font-family="Tahoma, Verdana, Helvetica, Arial" font-weight="normal"  style="display: block;"><tspan dy="-0.3em" >Uses domain</tspan><tspan dy="1.2em" x="0" >resources</tspan></text></g><g id="v-1923"  label-idx="1" cursor="move" transform="matrix(1,0,0,1,2490.225341796875,989.4000244140625)" style="cursor: default;"><rect joint-selector="rect" id="v-1927" fill="#ffffff" rx="3" ry="3" x="0" y="0" width="0" height="0"  display="none"></rect><text joint-selector="text" id="v-1926" fill="#000000" font-size="14" text-anchor="middle" text-vertical-anchor="middle" pointer-events="none"></text></g></g></g><!--z-index:45--><g   id="j_182"  style="opacity: 1;"><path fill="none" cursor="pointer" stroke="transparent" stroke-linecap="round" joint-selector="wrapper" id="v-1941" stroke-width="10" stroke-linejoin="round" d="M 2278.86 1077 L 2492 893 C 2497.333333333333 888.4666666666666 2503.333333333333 886.1333333333332 2510 886 L 3280 886 C 3286.666666666666 886.1333333333332 3292.9999999999995 887.1333333333332 3299 889 L 3460 944.65"></path><path fill="none" pointer-events="none" joint-selector="line" id="v-1940" stroke="#444444" stroke-width="2" stroke-linejoin="round" stroke-dasharray="8 8" d="M 2278.86 1077 L 2492 893 C 2497.333333333333 888.4666666666666 2503.333333333333 886.1333333333332 2510 886 L 3280 886 C 3286.666666666666 886.1333333333332 3292.9999999999995 887.1333333333332 3299 889 L 3460 944.65" marker-end="url(#v-21252848929)"></path><g id="v-1933" ><g id="v-1934"  label-idx="0" cursor="move" transform="matrix(1,0,0,1,2895.327880859375,886)" style="cursor: default;"><rect joint-selector="rect" id="v-1937" fill="#ffffff" rx="3" ry="3" x="-96.78778839111328" y="-16.98604393005371" width="194.0220184326172" height="29.767440795898438" pointer-events="none"  style="display: block;"></rect><text joint-selector="text" id="v-1936" font-size="24px" xml:space="preserve" fill="#444444" text-anchor="middle" pointer-events="none" font-family="Tahoma, Verdana, Helvetica, Arial" font-weight="normal"  style="display: block;"><tspan dy="0.3em" >Uses domain rules</tspan></text></g><g id="v-1935"  label-idx="1" cursor="move" transform="matrix(1,0,0,1,2885.327880859375,898)" style="cursor: default;"><rect joint-selector="rect" id="v-1939" fill="#ffffff" rx="3" ry="3" x="0" y="0" width="0" height="0"  display="none"></rect><text joint-selector="text" id="v-1938" fill="#000000" font-size="14" text-anchor="middle" text-vertical-anchor="middle" pointer-events="none"></text></g></g></g><!--z-index:46--><g   id="j_183"  style="opacity: 1;"><path fill="none" cursor="pointer" stroke="transparent" stroke-linecap="round" joint-selector="wrapper" id="v-1956" stroke-width="10" stroke-linejoin="round" d="M 3057.06 1012 L 3283 803 C 3287.666666666666 798.5999999999999 3292.333333333333 793.9333333333333 3297 789 L 3554.61 492"></path><path fill="none" pointer-events="none" joint-selector="line" id="v-1955" stroke="#444444" stroke-width="2" stroke-linejoin="round" stroke-dasharray="8 8" d="M 3057.06 1012 L 3283 803 C 3287.666666666666 798.5999999999999 3292.333333333333 793.9333333333333 3297 789 L 3554.61 492" marker-end="url(#v-21252848929)"></path><g id="v-1945" ><g id="v-1946"  label-idx="0" cursor="move" transform="matrix(1,0,0,1,3290.13671875,782.6632080078125)" style="cursor: default;"><rect joint-selector="rect" id="v-1950" fill="#ffffff" rx="3" ry="3" x="-78.95348358154297" y="-31.38604736328125" width="156.46957397460938" height="58.56744384765625" pointer-events="none"  style="display: block;"></rect><text joint-selector="text" id="v-1949" font-size="24px" xml:space="preserve" fill="#444444" text-anchor="middle" pointer-events="none" font-family="Tahoma, Verdana, Helvetica, Arial" font-weight="normal"  style="display: block;"><tspan dy="-0.3em" >Reads/Writes</tspan><tspan dy="1.2em" x="0" >telemetry data</tspan></text></g><g id="v-1947"  label-idx="1" cursor="move" transform="matrix(1,0,0,1,3290.13671875,827.4631958007812)" style="cursor: default;"><rect joint-selector="rect" id="v-1952" fill="#ffffff" rx="3" ry="3" x="-38.88081359863281" y="-11.704185485839844" width="78.74332427978516" height="20.46511459350586"  pointer-events="none" style="display: block;"></rect><text joint-selector="text" id="v-1951" font-size="16.799999999999997px" xml:space="preserve" fill="#444444" text-anchor="middle" pointer-events="none" font-family="Tahoma, Verdana, Helvetica, Arial" font-weight="normal"  style="display: block;"><tspan dy="0.3em" >[SQL/TCP]</tspan></text></g><g id="v-1948"  label-idx="2" cursor="move" transform="matrix(1,0,0,1,3308.482666015625,804.0324096679688)" style="cursor: default;"><rect joint-selector="rect" id="v-1954" fill="#ffffff" rx="3" ry="3" x="0" y="-1.1368683772161603e-13" width="0" height="0"  display="none"></rect><text joint-selector="text" id="v-1953" fill="#000000" font-size="14" text-anchor="middle" text-vertical-anchor="middle" pointer-events="none"></text></g></g></g><!--z-index:47--><g   id="j_184"  style="opacity: 1;"><path fill="none" cursor="pointer" stroke="transparent" stroke-linecap="round" joint-selector="wrapper" id="v-1968" stroke-width="10" stroke-linejoin="round" d="M 1501.09 1322 L 1702 1484 C 1707.3333333333333 1488.2666666666664 1713.3333333333333 1490.2666666666664 1720 1490 L 4120 1490 C 4126.666666666666 1490.2666666666664 4132.666666666666 1488.2666666666664 4138 1484 L 4329.07 1338"></path><path fill="none" pointer-events="none" joint-selector="line" id="v-1967" stroke="#444444" stroke-width="2" stroke-linejoin="round" stroke-dasharray="8 8" d="M 1501.09 1322 L 1702 1484 C 1707.3333333333333 1488.2666666666664 1713.3333333333333 1490.2666666666664 1720 1490 L 4120 1490 C 4126.666666666666 1490.2666666666664 4132.666666666666 1488.2666666666664 4138 1484 L 4329.07 1338" marker-end="url(#v-21252848929)"></path><g id="v-1960" ><g id="v-1961"  label-idx="0" cursor="move" transform="matrix(1,0,0,1,2895.13037109375,1490)" style="cursor: default;"><rect joint-selector="rect" id="v-1964" fill="#ffffff" rx="3" ry="3" x="-86.25" y="-31.38604736328125" width="172.8373565673828" height="58.56744384765625" pointer-events="none"  style="display: block;"></rect><text joint-selector="text" id="v-1963" font-size="24px" xml:space="preserve" fill="#444444" text-anchor="middle" pointer-events="none" font-family="Tahoma, Verdana, Helvetica, Arial" font-weight="normal"  style="display: block;"><tspan dy="-0.3em" >Uses shared API</tspan><tspan dy="1.2em" x="0" >responses</tspan></text></g><g id="v-1962"  label-idx="1" cursor="move" transform="matrix(1,0,0,1,2885.13037109375,1516.4000244140625)" style="cursor: default;"><rect joint-selector="rect" id="v-1966" fill="#ffffff" rx="3" ry="3" x="0" y="-2.2737367544323206e-13" width="0" height="0"  display="none"></rect><text joint-selector="text" id="v-1965" fill="#000000" font-size="14" text-anchor="middle" text-vertical-anchor="middle" pointer-events="none"></text></g></g></g><!--z-index:48--><g   id="j_185"  style="opacity: 1;"><path fill="none" cursor="pointer" stroke="transparent" stroke-linecap="round" joint-selector="wrapper" id="v-1980" stroke-width="10" stroke-linejoin="round" d="M 2330 1333.52 L 2491 1410 C 2497 1412.6666666666665 2503.333333333333 1413.9999999999998 2510 1414 L 4120 1414 C 4126.666666666666 1413.9999999999998 4133 1412.333333333333 4139 1409 L 4300 1316.73"></path><path fill="none" pointer-events="none" joint-selector="line" id="v-1979" stroke="#444444" stroke-width="2" stroke-linejoin="round" stroke-dasharray="8 8" d="M 2330 1333.52 L 2491 1410 C 2497 1412.6666666666665 2503.333333333333 1413.9999999999998 2510 1414 L 4120 1414 C 4126.666666666666 1413.9999999999998 4133 1412.333333333333 4139 1409 L 4300 1316.73" marker-end="url(#v-21252848929)"></path><g id="v-1972" ><g id="v-1973"  label-idx="0" cursor="move" transform="matrix(1,0,0,1,3290.02294921875,1414)" style="cursor: default;"><rect joint-selector="rect" id="v-1976" fill="#ffffff" rx="3" ry="3" x="-64.2151107788086" y="-31.38604736328125" width="128.4302215576172" height="58.56744384765625" pointer-events="none"  style="display: block;"></rect><text joint-selector="text" id="v-1975" font-size="24px" xml:space="preserve" fill="#444444" text-anchor="middle" pointer-events="none" font-family="Tahoma, Verdana, Helvetica, Arial" font-weight="normal"  style="display: block;"><tspan dy="-0.3em" >Uses shared</tspan><tspan dy="1.2em" x="0" >behaviors</tspan></text></g><g id="v-1974"  label-idx="1" cursor="move" transform="matrix(1,0,0,1,3280.02294921875,1440.4000244140625)" style="cursor: default;"><rect joint-selector="rect" id="v-1978" fill="#ffffff" rx="3" ry="3" x="4.547473508864641e-13" y="0" width="0" height="0"  display="none"></rect><text joint-selector="text" id="v-1977" fill="#000000" font-size="14" text-anchor="middle" text-vertical-anchor="middle" pointer-events="none"></text></g></g></g><!--z-index:49--><g   id="j_186"  style="opacity: 1;"><path fill="none" cursor="pointer" stroke="transparent" stroke-linecap="round" joint-selector="wrapper" id="v-1992" stroke-width="10" stroke-linejoin="round" d="M 3120 1262.03 L 3281 1334 C 3286.9999999999995 1336.3999999999999 3293.333333333333 1337.7333333333331 3300 1338 L 4120 1338 C 4126.666666666666 1337.7333333333331 4133 1336.3999999999999 4139 1334 L 4300 1273.22"></path><path fill="none" pointer-events="none" joint-selector="line" id="v-1991" stroke="#444444" stroke-width="2" stroke-linejoin="round" stroke-dasharray="8 8" d="M 3120 1262.03 L 3281 1334 C 3286.9999999999995 1336.3999999999999 3293.333333333333 1337.7333333333331 3300 1338 L 4120 1338 C 4126.666666666666 1337.7333333333331 4133 1336.3999999999999 4139 1334 L 4300 1273.22" marker-end="url(#v-21252848929)"></path><g id="v-1984" ><g id="v-1985"  label-idx="0" cursor="move" transform="matrix(1,0,0,1,3685.023193359375,1338)" style="cursor: default;"><rect joint-selector="rect" id="v-1988" fill="#ffffff" rx="3" ry="3" x="-91.20639038085938" y="-31.38604736328125" width="182.82781982421875" height="58.56744384765625" pointer-events="none"  style="display: block;"></rect><text joint-selector="text" id="v-1987" font-size="24px" xml:space="preserve" fill="#444444" text-anchor="middle" pointer-events="none" font-family="Tahoma, Verdana, Helvetica, Arial" font-weight="normal"  style="display: block;"><tspan dy="-0.3em" >Uses shared data</tspan><tspan dy="1.2em" x="0" >access</tspan></text></g><g id="v-1986"  label-idx="1" cursor="move" transform="matrix(1,0,0,1,3675.023193359375,1364.4000244140625)" style="cursor: default;"><rect joint-selector="rect" id="v-1990" fill="#ffffff" rx="3" ry="3" x="0" y="0" width="0" height="0"  display="none"></rect><text joint-selector="text" id="v-1989" fill="#000000" font-size="14" text-anchor="middle" text-vertical-anchor="middle" pointer-events="none"></text></g></g></g><!--z-index:50--><g   id="j_187"  style="opacity: 1;"><path fill="none" cursor="pointer" stroke="transparent" stroke-linecap="round" joint-selector="wrapper" id="v-2004" stroke-width="10" stroke-linejoin="round" d="M 3910 1022.4 L 4120 1023 C 4126.666666666666 1022.8666666666666 4133 1024.1999999999998 4139 1027 L 4300 1093.9"></path><path fill="none" pointer-events="none" joint-selector="line" id="v-2003" stroke="#444444" stroke-width="2" stroke-linejoin="round" stroke-dasharray="8 8" d="M 3910 1022.4 L 4120 1023 C 4126.666666666666 1022.8666666666666 4133 1024.1999999999998 4139 1027 L 4300 1093.9" marker-end="url(#v-21252848929)"></path><g id="v-1996" ><g id="v-1997"  label-idx="0" cursor="move" transform="matrix(1,0,0,1,4129.67578125,1023.8844604492188)" style="cursor: default;"><rect joint-selector="rect" id="v-2000" fill="#ffffff" rx="3" ry="3" x="-70.90116119384766" y="-31.38604736328125" width="142.22518920898438" height="58.56744384765625" pointer-events="none"  style="display: block;"></rect><text joint-selector="text" id="v-1999" font-size="24px" xml:space="preserve" fill="#444444" text-anchor="middle" pointer-events="none" font-family="Tahoma, Verdana, Helvetica, Arial" font-weight="normal"  style="display: block;"><tspan dy="-0.3em" >Uses shared</tspan><tspan dy="1.2em" x="0" >domain types</tspan></text></g><g id="v-1998"  label-idx="1" cursor="move" transform="matrix(1,0,0,1,4119.67578125,1050.284423828125)" style="cursor: default;"><rect joint-selector="rect" id="v-2002" fill="#ffffff" rx="3" ry="3" x="0" y="0" width="0" height="0"  display="none"></rect><text joint-selector="text" id="v-2001" fill="#000000" font-size="14" text-anchor="middle" text-vertical-anchor="middle" pointer-events="none"></text></g></g></g><!--z-index:51--><g   id="j_188"  style="opacity: 1;"><path fill="none" cursor="pointer" stroke="transparent" stroke-linecap="round" joint-selector="wrapper" id="v-2016" stroke-width="10" stroke-linejoin="round" d="M 2242.6 1077 L 2493 804 C 2497.6666666666665 798.9333333333333 2502.6666666666665 794.2666666666667 2508 790 L 2721.45 605"></path><path fill="none" pointer-events="none" joint-selector="line" id="v-2015" stroke="#444444" stroke-width="2" stroke-linejoin="round" stroke-dasharray="8 8" d="M 2242.6 1077 L 2493 804 C 2497.6666666666665 798.9333333333333 2502.6666666666665 794.2666666666667 2508 790 L 2721.45 605" marker-end="url(#v-21252848929)"></path><g id="v-2008" ><g id="v-2009"  label-idx="0" cursor="move" transform="matrix(1,0,0,1,2500.426025390625,796.5360717773438)" style="cursor: default;"><rect joint-selector="rect" id="v-2012" fill="#ffffff" rx="3" ry="3" x="-67.3401107788086" y="-31.38604736328125" width="134.6802215576172" height="58.56744384765625" pointer-events="none"  style="display: block;"></rect><text joint-selector="text" id="v-2011" font-size="24px" xml:space="preserve" fill="#444444" text-anchor="middle" pointer-events="none" font-family="Tahoma, Verdana, Helvetica, Arial" font-weight="normal"  style="display: block;"><tspan dy="-0.3em" >Logs clinical</tspan><tspan dy="1.2em" x="0" >anomalies to</tspan></text></g><g id="v-2010"  label-idx="1" cursor="move" transform="matrix(1,0,0,1,2490.426025390625,822.9360961914062)" style="cursor: default;"><rect joint-selector="rect" id="v-2014" fill="#ffffff" rx="3" ry="3" x="0" y="-1.1368683772161603e-13" width="0" height="0"  display="none"></rect><text joint-selector="text" id="v-2013" fill="#000000" font-size="14" text-anchor="middle" text-vertical-anchor="middle" pointer-events="none"></text></g></g></g><!--z-index:52--><g   id="j_189"  style="opacity: 1;"><path fill="none" cursor="pointer" stroke="transparent" stroke-linecap="round" joint-selector="wrapper" id="v-2031" stroke-width="10" stroke-linejoin="round" d="M 656.4 633 L 862 462 C 867.3333333333333 457.4666666666667 873.3333333333333 455.1333333333333 880 455 L 2670 455.02"></path><path fill="none" pointer-events="none" joint-selector="line" id="v-2030" stroke="#444444" stroke-width="2" stroke-linejoin="round" stroke-dasharray="8 8" d="M 656.4 633 L 862 462 C 867.3333333333333 457.4666666666667 873.3333333333333 455.1333333333333 880 455 L 2670 455.02" marker-end="url(#v-21252848929)"></path><g id="v-2020" ><g id="v-2021"  label-idx="0" cursor="move" transform="matrix(1,0,0,1,1710.6942138671875,441.6092834472656)" style="cursor: default;"><rect joint-selector="rect" id="v-2025" fill="#ffffff" rx="3" ry="3" x="-95.39244079589844" y="-16.98604393005371" width="191.22120666503906" height="29.767440795898438" pointer-events="none"  style="display: block;"></rect><text joint-selector="text" id="v-2024" font-size="24px" xml:space="preserve" fill="#444444" text-anchor="middle" pointer-events="none" font-family="Tahoma, Verdana, Helvetica, Arial" font-weight="normal"  style="display: block;"><tspan dy="0.3em" >Queries audit logs</tspan></text></g><g id="v-2022"  label-idx="1" cursor="move" transform="matrix(1,0,0,1,1710.6942138671875,472.00927734375)" style="cursor: default;"><rect joint-selector="rect" id="v-2027" fill="#ffffff" rx="3" ry="3" x="-53.76453399658203" y="-11.704185485839844" width="108.52061462402344" height="20.46511459350586"  pointer-events="none" style="display: block;"></rect><text joint-selector="text" id="v-2026" font-size="16.799999999999997px" xml:space="preserve" fill="#444444" text-anchor="middle" pointer-events="none" font-family="Tahoma, Verdana, Helvetica, Arial" font-weight="normal"  style="display: block;"><tspan dy="0.3em" >[JSON/HTTPS]</tspan></text></g><g id="v-2023"  label-idx="2" cursor="move" transform="matrix(1,0,0,1,1621.43701171875,480.40838623046875)" style="cursor: default;"><rect joint-selector="rect" id="v-2029" fill="#ffffff" rx="3" ry="3" x="-2.2737367544323206e-13" y="-5.684341886080802e-14" width="0" height="0"  display="none"></rect><text joint-selector="text" id="v-2028" fill="#000000" font-size="14" text-anchor="middle" text-vertical-anchor="middle" pointer-events="none"></text></g></g></g><!--z-index:53--><g   id="j_190"  style="opacity: 1;"><path fill="none" cursor="pointer" stroke="transparent" stroke-linecap="round" joint-selector="wrapper" id="v-2046" stroke-width="10" stroke-linejoin="round" d="M 3120 390.63 L 3280 345 C 3286.666666666666 343 3293.333333333333 342 3300 342 L 3460 342"></path><path fill="none" pointer-events="none" joint-selector="line" id="v-2045" stroke="#444444" stroke-width="2" stroke-linejoin="round" stroke-dasharray="8 8" d="M 3120 390.63 L 3280 345 C 3286.666666666666 343 3293.333333333333 342 3300 342 L 3460 342" marker-end="url(#v-21252848929)"></path><g id="v-2035" ><g id="v-2036"  label-idx="0" cursor="move" transform="matrix(1,0,0,1,3290.1171875,329.33251953125)" style="cursor: default;"><rect joint-selector="rect" id="v-2040" fill="#ffffff" rx="3" ry="3" x="-99.95639038085938" y="-31.38604736328125" width="201.18492126464844" height="58.56744384765625" pointer-events="none"  style="display: block;"></rect><text joint-selector="text" id="v-2039" font-size="24px" xml:space="preserve" fill="#444444" text-anchor="middle" pointer-events="none" font-family="Tahoma, Verdana, Helvetica, Arial" font-weight="normal"  style="display: block;"><tspan dy="-0.3em" >Reads/Writes audit</tspan><tspan dy="1.2em" x="0" >data</tspan></text></g><g id="v-2037"  label-idx="1" cursor="move" transform="matrix(1,0,0,1,3290.1171875,374.1325378417969)" style="cursor: default;"><rect joint-selector="rect" id="v-2042" fill="#ffffff" rx="3" ry="3" x="-38.88081359863281" y="-11.704185485839844" width="78.74332427978516" height="20.46511459350586"  pointer-events="none" style="display: block;"></rect><text joint-selector="text" id="v-2041" font-size="16.799999999999997px" xml:space="preserve" fill="#444444" text-anchor="middle" pointer-events="none" font-family="Tahoma, Verdana, Helvetica, Arial" font-weight="normal"  style="display: block;"><tspan dy="0.3em" >[SQL/TCP]</tspan></text></g><g id="v-2038"  label-idx="2" cursor="move" transform="matrix(1,0,0,1,3276.7578125,383.11517333984375)" style="cursor: default;"><rect joint-selector="rect" id="v-2044" fill="#ffffff" rx="3" ry="3" x="0" y="5.684341886080802e-14" width="0" height="0"  display="none"></rect><text joint-selector="text" id="v-2043" fill="#000000" font-size="14" text-anchor="middle" text-vertical-anchor="middle" pointer-events="none"></text></g></g></g><!--z-index:54--><g   id="j_191"  style="opacity: 1;"><path fill="none" cursor="pointer" stroke="transparent" stroke-linecap="round" joint-selector="wrapper" id="v-2058" stroke-width="10" stroke-linejoin="round" d="M 3120 519.59 L 3280 566 C 3286.666666666666 567.6 3293.333333333333 568.2666666666667 3300 568 L 4120 568 C 4126.666666666666 568.2666666666667 4131.666666666666 571.2666666666667 4135 577 L 4429.37 1038"></path><path fill="none" pointer-events="none" joint-selector="line" id="v-2057" stroke="#444444" stroke-width="2" stroke-linejoin="round" stroke-dasharray="8 8" d="M 3120 519.59 L 3280 566 C 3286.666666666666 567.6 3293.333333333333 568.2666666666667 3300 568 L 4120 568 C 4126.666666666666 568.2666666666667 4131.666666666666 571.2666666666667 4135 577 L 4429.37 1038" marker-end="url(#v-21252848929)"></path><g id="v-2050" ><g id="v-2051"  label-idx="0" cursor="move" transform="matrix(1,0,0,1,3684.1357421875,568)" style="cursor: default;"><rect joint-selector="rect" id="v-2054" fill="#ffffff" rx="3" ry="3" x="-86.25" y="-31.38604736328125" width="172.8373565673828" height="58.56744384765625" pointer-events="none"  style="display: block;"></rect><text joint-selector="text" id="v-2053" font-size="24px" xml:space="preserve" fill="#444444" text-anchor="middle" pointer-events="none" font-family="Tahoma, Verdana, Helvetica, Arial" font-weight="normal"  style="display: block;"><tspan dy="-0.3em" >Uses shared API</tspan><tspan dy="1.2em" x="0" >responses</tspan></text></g><g id="v-2052"  label-idx="1" cursor="move" transform="matrix(1,0,0,1,3674.1357421875,594.4000244140625)" style="cursor: default;"><rect joint-selector="rect" id="v-2056" fill="#ffffff" rx="3" ry="3" x="0" y="-1.1368683772161603e-13" width="0" height="0"  display="none"></rect><text joint-selector="text" id="v-2055" fill="#000000" font-size="14" text-anchor="middle" text-vertical-anchor="middle" pointer-events="none"></text></g></g></g><!--z-index:55--></g><g  style="user-select: none;"></g><g ></g><g  display="none"></g></g></svg>