<svg xmlns="http://www.w3.org/2000/svg" xmlns:xlink="http://www.w3.org/1999/xlink" version="1.1" style="background: #ffffff" viewBox="0 0 5000 1877"><style id="v-3" type="text/css">        .joint-element .scalable * {            vector-effect: non-scaling-stroke;        }    </style><defs joint-selector="defs"><marker id="v-21252848929" orient="auto" overflow="visible" markerUnits="userSpaceOnUse"><path id="v-128" stroke="#444444" fill="#444444" transform="rotate(180)" d="M 20 -10 0 0 20 10 Z"></path></marker></defs><g joint-selector="layers"  transform="matrix(1,0,0,1,0,0)"><g  style="pointer-events: none;"></g><g ></g><g  style="user-select: none;"><!--z-index:0--><!--z-index:1--><!--z-index:2--><!--z-index:3--><!--z-index:4--><!--z-index:5--><!--z-index:6--><!--z-index:7--><!--z-index:8--><!--z-index:9--><!--z-index:10--><!--z-index:11--><!--z-index:12--><!--z-index:13--><!--z-index:14--><!--z-index:15--><!--z-index:16--><!--z-index:17--><!--z-index:18--><!--z-index:19--><!--z-index:20--><!--z-index:21--><!--z-index:22--><g   id="j_360"  transform="translate(20,1833)"><g id="v-3857"><text  id="v-3858" font-size="24px" xml:space="preserve" y="0.8em" font-weight="normal" text-anchor="start" fill="#444444" pointer-events="none" display="block" font-family="Tahoma, Verdana, Helvetica, Arial"><tspan dy="0" >martes, 7 de julio de 2026, 4:53 p. m. hora estándar de Perú</tspan></text></g></g><!--z-index:23--><g   id="j_359"  transform="translate(20,1799)"><g id="v-3855"><text  id="v-3856" font-size="24px" xml:space="preserve" y="0.8em" font-weight="normal" text-anchor="start" fill="#444444" pointer-events="none" display="block" font-family="Tahoma, Verdana, Helvetica, Arial"><tspan dy="0" >Component View: Shift Coordination Context</tspan></text></g></g><!--z-index:24--><g   id="j_358"  transform="translate(20,1753)"><g id="v-3853"><text  id="v-3854" font-size="36px" xml:space="preserve" y="0.8em" font-weight="normal" text-anchor="start" fill="#444444" pointer-events="none" display="block" font-family="Tahoma, Verdana, Helvetica, Arial"><tspan dy="0" >Component View: CortiSense - Shift Coordination Context</tspan></text></g></g><!--z-index:25--><g   id="j_362"  transform="translate(200,142)" style="; opacity: 1;"><g id="v-3877"><rect  id="v-3878" width="4600" height="1477" rx="0" ry="0" stroke-width="2" pointer-events="none" stroke="#444444" fill="#ffffff" opacity="1" stroke-dasharray=""></rect><text  id="v-3879" font-size="33.599999999999994px" xml:space="preserve" y="1438" font-weight="bold" text-anchor="start" pointer-events="visible" font-family="Tahoma, Verdana, Helvetica, Arial" fill="#444444" transform="matrix(1,0,0,1,15,0)"><tspan dy="0" >CortiSense</tspan></text><text  id="v-3880" font-size="16.799999999999997px" xml:space="preserve" y="1462" font-weight="normal" text-anchor="start" pointer-events="visible" font-family="Tahoma, Verdana, Helvetica, Arial" fill="#444444" transform="matrix(1,0,0,1,15,0)"><tspan dy="0" >[Software System]</tspan></text><image  id="v-3881" pointer-events="visible"></image></g></g><!--z-index:26--><g   id="j_361"  transform="translate(250,809)" style=""><g  id="v-3865" style="opacity: 1;"><rect  id="v-3866" rx="10" ry="10" stroke-width="2" pointer-events="visiblePainted" fill="#2672c0" stroke="#2672c0" stroke-dasharray="" width="450" height="302" style="fill: rgb(38, 114, 192); stroke: rgb(38, 114, 192);"></rect><rect  id="v-3867" rx="10" ry="10" stroke-width="0" pointer-events="visiblePainted" fill="#2a7fd5" stroke="#2672c0" width="446" height="260" x="2" y="40" style="fill: rgb(42, 127, 213);"></rect><ellipse  id="v-3874" fill="#2a7fd5" cx="20" cy="20" rx="10" ry="10" style="fill: rgb(42, 127, 213);"></ellipse><ellipse  id="v-3875" fill="#2a7fd5" cx="50" cy="20" rx="10" ry="10" style="fill: rgb(42, 127, 213);"></ellipse><ellipse  id="v-3876" fill="#2a7fd5" cx="80" cy="20" rx="10" ry="10" style="fill: rgb(42, 127, 213);"></ellipse><rect  id="v-3868" rx="10" ry="10" stroke-width="0" pointer-events="visiblePainted" fill="#2a7fd5" width="340" height="20" x="100" y="10" style="fill: rgb(42, 127, 213);"></rect><text  id="v-3869" font-size="33.599999999999994px" xml:space="preserve" y="106.9" font-weight="bold" text-anchor="middle" pointer-events="visible" font-family="Tahoma, Verdana, Helvetica, Arial" fill="#ffffff" dominant-baseline="hanging" transform="matrix(1,0,0,1,225,0)" style="fill: rgb(255, 255, 255);"><tspan dy="0" >Single Page Application</tspan></text><text  id="v-3870" font-size="16.799999999999997px" xml:space="preserve" y="148.5" text-anchor="middle" font-family="Tahoma, Verdana, Helvetica, Arial" fill="#ffffff" dominant-baseline="hanging" transform="matrix(1,0,0,1,225,0)" style="display: block; fill: rgb(255, 255, 255);"><tspan dy="0" >[Container: Vue 3]</tspan></text><text  id="v-3871" font-size="24px" xml:space="preserve" y="180.3" text-anchor="middle" font-family="Tahoma, Verdana, Helvetica, Arial" fill="#ffffff" dominant-baseline="hanging" transform="matrix(1,0,0,1,225,0)" style="display: block; fill: rgb(255, 255, 255);"><tspan dy="0" >Main interface for administrators,</tspan><tspan dy="1.2em" x="0" >doctors, and staff.</tspan></text><g  id="v-3872" font-weight="normal" text-anchor="middle" color="#ffffff" transform="matrix(1,0,0,1,222.5,268)" display="none" style="fill: rgb(255, 255, 255);"><g ></g><g ></g><g ></g><g ></g></g><image  id="v-3873"></image></g></g><!--z-index:27--><g   id="j_363"  transform="translate(3460,192)" style=""><g  id="v-3885" style="opacity: 1;"><path  d="M 0,30 a 225,30 0,0,0 450 0 a 225,30 0,0,0 -450 0 l 0,240 a 225,30 0,0,0 450 0 l 0,-240" id="v-3886" stroke-width="2" pointer-events="visiblePainted" fill="#e51c23" stroke="#ce1920" stroke-dasharray="" style="fill: rgb(229, 28, 35); stroke: rgb(206, 25, 32);"></path><rect  id="v-3887" stroke-width="0" pointer-events="visiblePainted" fill="none" stroke="none" width="450" height="270" x="0" y="30"></rect><text  id="v-3888" font-size="33.599999999999994px" xml:space="preserve" y="101.9" font-weight="bold" text-anchor="middle" pointer-events="visible" font-family="Tahoma, Verdana, Helvetica, Arial" fill="#ffffff" dominant-baseline="hanging" transform="matrix(1,0,0,1,225,0)" style="fill: rgb(255, 255, 255);"><tspan dy="0" >Database</tspan></text><text  id="v-3889" font-size="16.799999999999997px" xml:space="preserve" y="143.5" text-anchor="middle" font-family="Tahoma, Verdana, Helvetica, Arial" fill="#ffffff" dominant-baseline="hanging" transform="matrix(1,0,0,1,225,0)" style="display: block; fill: rgb(255, 255, 255);"><tspan dy="0" >[Container: MySQL]</tspan></text><text  id="v-3890" font-size="24px" xml:space="preserve" y="175.3" text-anchor="middle" font-family="Tahoma, Verdana, Helvetica, Arial" fill="#ffffff" dominant-baseline="hanging" transform="matrix(1,0,0,1,225,0)" style="display: block; fill: rgb(255, 255, 255);"><tspan dy="0" >Stores users, shifts, subscriptions,</tspan><tspan dy="1.2em" x="0" >telemetry, and logs.</tspan></text><g  id="v-3891" font-weight="normal" text-anchor="middle" color="#ffffff" transform="matrix(1,0,0,1,222.5,268)" display="none" style="fill: rgb(255, 255, 255);"><g ></g><g ></g><g ></g><g ></g></g><image  id="v-3892"></image></g></g><!--z-index:28--><g   id="j_364"  transform="translate(4300,758)" style=""><g  id="v-3896" style="opacity: 1;"><rect  id="v-3897" rx="20" ry="20" stroke-width="2" pointer-events="visiblePainted" fill="#2ba356" stroke="#27934d" stroke-dasharray="" width="450" height="300" style="fill: rgb(43, 163, 86); stroke: rgb(39, 147, 77);"></rect><text  id="v-3898" font-size="33.599999999999994px" xml:space="preserve" y="86.9" font-weight="bold" text-anchor="middle" pointer-events="visible" font-family="Tahoma, Verdana, Helvetica, Arial" fill="#ffffff" dominant-baseline="hanging" transform="matrix(1,0,0,1,225,0)" style="fill: rgb(255, 255, 255);"><tspan dy="0" >Shared Kernel</tspan></text><text  id="v-3899" font-size="16.799999999999997px" xml:space="preserve" y="128.5" text-anchor="middle" font-family="Tahoma, Verdana, Helvetica, Arial" fill="#ffffff" dominant-baseline="hanging" transform="matrix(1,0,0,1,225,0)" style="display: block; fill: rgb(255, 255, 255);"><tspan dy="0" >[Container: C# Class Library]</tspan></text><text  id="v-3900" font-size="24px" xml:space="preserve" y="160.3" text-anchor="middle" font-family="Tahoma, Verdana, Helvetica, Arial" fill="#ffffff" dominant-baseline="hanging" transform="matrix(1,0,0,1,225,0)" style="display: block; fill: rgb(255, 255, 255);"><tspan dy="0" >Centralizes base classes, exceptions,</tspan><tspan dy="1.2em" x="0" >and cross-cutting abstractions.</tspan></text><g  id="v-3901" color="#ffffff" transform="matrix(1,0,0,1,210,268)" display="none" style="fill: rgb(255, 255, 255);"><g  transform="translate(5 0)"><svg xmlns="http://www.w3.org/2000/svg" width="20" height="20" fill="currentColor" viewBox="0 0 16 16"><path fill-rule="evenodd" d="M6.5 12a5.5 5.5 0 1 0 0-11 5.5 5.5 0 0 0 0 11zM13 6.5a6.5 6.5 0 1 1-13 0 6.5 6.5 0 0 1 13 0z"></path><path d="M10.344 11.742c.03.04.062.078.098.115l3.85 3.85a1 1 0 0 0 1.415-1.414l-3.85-3.85a1.007 1.007 0 0 0-.115-.1 6.538 6.538 0 0 1-1.398 1.4z"></path><path fill-rule="evenodd" d="M6.5 3a.5.5 0 0 1 .5.5V6h2.5a.5.5 0 0 1 0 1H7v2.5a.5.5 0 0 1-1 0V7H3.5a.5.5 0 0 1 0-1H6V3.5a.5.5 0 0 1 .5-.5z"></path></svg></g><g ></g><g ></g><g ></g></g><image  id="v-3902"></image></g></g><!--z-index:29--><g   id="j_366"  transform="translate(1040,759)" style="; opacity: 1;"><g id="v-3913"><rect  id="v-3914" width="2920" height="731" rx="20" ry="20" stroke-width="2" pointer-events="none" stroke="#27934d" fill="#ffffff" opacity="1" stroke-dasharray=""></rect><text  id="v-3915" font-size="33.599999999999994px" xml:space="preserve" y="692" font-weight="bold" text-anchor="start" pointer-events="visible" font-family="Tahoma, Verdana, Helvetica, Arial" fill="#27934d" transform="matrix(1,0,0,1,15,0)"><tspan dy="0" >Shift Coordination Context</tspan></text><text  id="v-3916" font-size="16.799999999999997px" xml:space="preserve" y="716" font-weight="normal" text-anchor="start" pointer-events="visible" font-family="Tahoma, Verdana, Helvetica, Arial" fill="#27934d" transform="matrix(1,0,0,1,15,0)"><tspan dy="0" >[Container]</tspan></text><image  id="v-3917" pointer-events="visible"></image></g></g><!--z-index:30--><g   id="j_365"  transform="translate(1090,809)" style=""><g  id="v-3906" style="opacity: 1;"><rect  id="v-3907" rx="20" ry="20" stroke-width="2" pointer-events="visiblePainted" fill="#7b7b7b" stroke="#6f6f6f" stroke-dasharray="" width="450" height="300" style="fill: rgb(123, 123, 123); stroke: rgb(111, 111, 111);"></rect><text  id="v-3908" font-size="33.599999999999994px" xml:space="preserve" y="86.9" font-weight="bold" text-anchor="middle" pointer-events="visible" font-family="Tahoma, Verdana, Helvetica, Arial" fill="#ffffff" dominant-baseline="hanging" transform="matrix(1,0,0,1,225,0)" style="fill: rgb(255, 255, 255);"><tspan dy="0" >Interface</tspan></text><text  id="v-3909" font-size="16.799999999999997px" xml:space="preserve" y="128.5" text-anchor="middle" font-family="Tahoma, Verdana, Helvetica, Arial" fill="#ffffff" dominant-baseline="hanging" transform="matrix(1,0,0,1,225,0)" style="display: block; fill: rgb(255, 255, 255);"><tspan dy="0" >[Component: ASP.NET Core REST]</tspan></text><text  id="v-3910" font-size="24px" xml:space="preserve" y="160.3" text-anchor="middle" font-family="Tahoma, Verdana, Helvetica, Arial" fill="#ffffff" dominant-baseline="hanging" transform="matrix(1,0,0,1,225,0)" style="display: block; fill: rgb(255, 255, 255);"><tspan dy="0" >1: interface - REST endpoints for</tspan><tspan dy="1.2em" x="0" >shift scheduling.</tspan></text><g  id="v-3911" color="#ffffff" transform="matrix(1,0,0,1,222.5,268)" display="none" style="fill: rgb(255, 255, 255);"><g ></g><g ></g><g ></g><g ></g></g><image  id="v-3912"></image></g></g><!--z-index:31--><g   id="j_367"  transform="translate(1880,820)" style=""><g  id="v-3921" style="opacity: 1;"><rect  id="v-3922" rx="20" ry="20" stroke-width="2" pointer-events="visiblePainted" fill="#7b7b7b" stroke="#6f6f6f" stroke-dasharray="" width="450" height="300" style="fill: rgb(123, 123, 123); stroke: rgb(111, 111, 111);"></rect><text  id="v-3923" font-size="33.599999999999994px" xml:space="preserve" y="86.9" font-weight="bold" text-anchor="middle" pointer-events="visible" font-family="Tahoma, Verdana, Helvetica, Arial" fill="#ffffff" dominant-baseline="hanging" transform="matrix(1,0,0,1,225,0)" style="fill: rgb(255, 255, 255);"><tspan dy="0" >Application</tspan></text><text  id="v-3924" font-size="16.799999999999997px" xml:space="preserve" y="128.5" text-anchor="middle" font-family="Tahoma, Verdana, Helvetica, Arial" fill="#ffffff" dominant-baseline="hanging" transform="matrix(1,0,0,1,225,0)" style="display: block; fill: rgb(255, 255, 255);"><tspan dy="0" >[Component: C# Service]</tspan></text><text  id="v-3925" font-size="24px" xml:space="preserve" y="160.3" text-anchor="middle" font-family="Tahoma, Verdana, Helvetica, Arial" fill="#ffffff" dominant-baseline="hanging" transform="matrix(1,0,0,1,225,0)" style="display: block; fill: rgb(255, 255, 255);"><tspan dy="0" >2: application - Shift assignment and</tspan><tspan dy="1.2em" x="0" >scheduling use cases.</tspan></text><g  id="v-3926" color="#ffffff" transform="matrix(1,0,0,1,222.5,268)" display="none" style="fill: rgb(255, 255, 255);"><g ></g><g ></g><g ></g><g ></g></g><image  id="v-3927"></image></g></g><!--z-index:32--><g   id="j_368"  transform="translate(2670,848)" style=""><g  id="v-3931" style="opacity: 1;"><rect  id="v-3932" rx="20" ry="20" stroke-width="2" pointer-events="visiblePainted" fill="#7b7b7b" stroke="#6f6f6f" stroke-dasharray="" width="450" height="300" style="fill: rgb(123, 123, 123); stroke: rgb(111, 111, 111);"></rect><text  id="v-3933" font-size="33.599999999999994px" xml:space="preserve" y="86.9" font-weight="bold" text-anchor="middle" pointer-events="visible" font-family="Tahoma, Verdana, Helvetica, Arial" fill="#ffffff" dominant-baseline="hanging" transform="matrix(1,0,0,1,225,0)" style="fill: rgb(255, 255, 255);"><tspan dy="0" >Infrastructure</tspan></text><text  id="v-3934" font-size="16.799999999999997px" xml:space="preserve" y="128.5" text-anchor="middle" font-family="Tahoma, Verdana, Helvetica, Arial" fill="#ffffff" dominant-baseline="hanging" transform="matrix(1,0,0,1,225,0)" style="display: block; fill: rgb(255, 255, 255);"><tspan dy="0" >[Component: EF Core]</tspan></text><text  id="v-3935" font-size="24px" xml:space="preserve" y="160.3" text-anchor="middle" font-family="Tahoma, Verdana, Helvetica, Arial" fill="#ffffff" dominant-baseline="hanging" transform="matrix(1,0,0,1,225,0)" style="display: block; fill: rgb(255, 255, 255);"><tspan dy="0" >4: infrastructure - Persists shifts and</tspan><tspan dy="1.2em" x="0" >rosters.</tspan></text><g  id="v-3936" color="#ffffff" transform="matrix(1,0,0,1,222.5,268)" display="none" style="fill: rgb(255, 255, 255);"><g ></g><g ></g><g ></g><g ></g></g><image  id="v-3937"></image></g></g><!--z-index:33--><g   id="j_369"  transform="translate(3460,1061)" style=""><g  id="v-3941" style="opacity: 1;"><rect  id="v-3942" rx="20" ry="20" stroke-width="2" pointer-events="visiblePainted" fill="#7b7b7b" stroke="#6f6f6f" stroke-dasharray="" width="450" height="300" style="fill: rgb(123, 123, 123); stroke: rgb(111, 111, 111);"></rect><text  id="v-3943" font-size="33.599999999999994px" xml:space="preserve" y="86.9" font-weight="bold" text-anchor="middle" pointer-events="visible" font-family="Tahoma, Verdana, Helvetica, Arial" fill="#ffffff" dominant-baseline="hanging" transform="matrix(1,0,0,1,225,0)" style="fill: rgb(255, 255, 255);"><tspan dy="0" >Domain</tspan></text><text  id="v-3944" font-size="16.799999999999997px" xml:space="preserve" y="128.5" text-anchor="middle" font-family="Tahoma, Verdana, Helvetica, Arial" fill="#ffffff" dominant-baseline="hanging" transform="matrix(1,0,0,1,225,0)" style="display: block; fill: rgb(255, 255, 255);"><tspan dy="0" >[Component: C# Domain]</tspan></text><text  id="v-3945" font-size="24px" xml:space="preserve" y="160.3" text-anchor="middle" font-family="Tahoma, Verdana, Helvetica, Arial" fill="#ffffff" dominant-baseline="hanging" transform="matrix(1,0,0,1,225,0)" style="display: block; fill: rgb(255, 255, 255);"><tspan dy="0" >3: domain - Shift, CareTeam, and</tspan><tspan dy="1.2em" x="0" >Roster aggregates.</tspan></text><g  id="v-3946" color="#ffffff" transform="matrix(1,0,0,1,222.5,268)" display="none" style="fill: rgb(255, 255, 255);"><g ></g><g ></g><g ></g><g ></g></g><image  id="v-3947"></image></g></g><!--z-index:34--><g   id="j_370"  style="opacity: 1;"><path fill="none" cursor="pointer" stroke="transparent" stroke-linecap="round" joint-selector="wrapper" id="v-3962" stroke-width="10" stroke-linejoin="round" d="M 700 959.73 L 1090 959.27"></path><path fill="none" pointer-events="none" joint-selector="line" id="v-3961" stroke="#444444" stroke-width="2" stroke-linejoin="round" stroke-dasharray="8 8" d="M 700 959.73 L 1090 959.27" marker-end="url(#v-21252848929)"></path><g id="v-3951" ><g id="v-3952"  label-idx="0" cursor="move" transform="matrix(1,0,0,1,870,946.1295166015625)" style="cursor: default;"><rect joint-selector="rect" id="v-3956" fill="#ffffff" rx="3" ry="3" x="-78.59737396240234" y="-16.055810928344727" width="160.42578125" height="27.906972885131836" pointer-events="none"  style="display: block;"></rect><text joint-selector="text" id="v-3955" font-size="24px" xml:space="preserve" fill="#444444" text-anchor="middle" pointer-events="none" font-family="Tahoma, Verdana, Helvetica, Arial" font-weight="normal"  style="display: block;"><tspan dy="0.3em" >Manages shifts</tspan></text></g><g id="v-3953"  label-idx="1" cursor="move" transform="matrix(1,0,0,1,870,976.5294799804688)" style="cursor: default;"><rect joint-selector="rect" id="v-3958" fill="#ffffff" rx="3" ry="3" x="-53.74272537231445" y="-13.564648628234863" width="110.32485961914062" height="23.255809783935547"  pointer-events="none" style="display: block;"></rect><text joint-selector="text" id="v-3957" font-size="16.799999999999997px" xml:space="preserve" fill="#444444" text-anchor="middle" pointer-events="none" font-family="Tahoma, Verdana, Helvetica, Arial" font-weight="normal"  style="display: block;"><tspan dy="0.3em" >[JSON/HTTPS]</tspan></text></g><g id="v-3954"  label-idx="2" cursor="move" transform="matrix(1,0,0,1,885,984.9000244140625)" style="cursor: default;"><rect joint-selector="rect" id="v-3960" fill="#ffffff" rx="3" ry="3" x="0" y="0" width="0" height="0"  display="none"></rect><text joint-selector="text" id="v-3959" fill="#000000" font-size="14" text-anchor="middle" text-vertical-anchor="middle" pointer-events="none"></text></g></g></g><!--z-index:35--><g   id="j_371"  style="opacity: 1;"><path fill="none" cursor="pointer" stroke="transparent" stroke-linecap="round" joint-selector="wrapper" id="v-3974" stroke-width="10" stroke-linejoin="round" d="M 1540 965.27 L 1700 970 C 1706.6666666666665 970 1713.3333333333333 970 1720 970 L 1880 970"></path><path fill="none" pointer-events="none" joint-selector="line" id="v-3973" stroke="#444444" stroke-width="2" stroke-linejoin="round" stroke-dasharray="8 8" d="M 1540 965.27 L 1700 970 C 1706.6666666666665 970 1713.3333333333333 970 1720 970 L 1880 970" marker-end="url(#v-21252848929)"></path><g id="v-3966" ><g id="v-3967"  label-idx="0" cursor="move" transform="matrix(1,0,0,1,1710,970)" style="cursor: default;"><rect joint-selector="rect" id="v-3970" fill="#ffffff" rx="3" ry="3" x="-66.42440795898438" y="-16.055810928344727" width="133.74220275878906" height="27.906972885131836" pointer-events="none"  style="display: block;"></rect><text joint-selector="text" id="v-3969" font-size="24px" xml:space="preserve" fill="#444444" text-anchor="middle" pointer-events="none" font-family="Tahoma, Verdana, Helvetica, Arial" font-weight="normal"  style="display: block;"><tspan dy="0.3em" >Delegates to</tspan></text></g><g id="v-3968"  label-idx="1" cursor="move" transform="matrix(1,0,0,1,1700,982)" style="cursor: default;"><rect joint-selector="rect" id="v-3972" fill="#ffffff" rx="3" ry="3" x="-2.2737367544323206e-13" y="-1.1368683772161603e-13" width="0" height="0"  display="none"></rect><text joint-selector="text" id="v-3971" fill="#000000" font-size="14" text-anchor="middle" text-vertical-anchor="middle" pointer-events="none"></text></g></g></g><!--z-index:36--><g   id="j_372"  style="opacity: 1;"><path fill="none" cursor="pointer" stroke="transparent" stroke-linecap="round" joint-selector="wrapper" id="v-3986" stroke-width="10" stroke-linejoin="round" d="M 2330 985.95 L 2490 997 C 2496.6666666666665 997.6666666666665 2503.333333333333 997.9999999999999 2510 998 L 2670 998"></path><path fill="none" pointer-events="none" joint-selector="line" id="v-3985" stroke="#444444" stroke-width="2" stroke-linejoin="round" stroke-dasharray="8 8" d="M 2330 985.95 L 2490 997 C 2496.6666666666665 997.6666666666665 2503.333333333333 997.9999999999999 2510 998 L 2670 998" marker-end="url(#v-21252848929)"></path><g id="v-3978" ><g id="v-3979"  label-idx="0" cursor="move" transform="matrix(1,0,0,1,2500,997.75)" style="cursor: default;"><rect joint-selector="rect" id="v-3982" fill="#ffffff" rx="3" ry="3" x="-58.5755729675293" y="-16.055810928344727" width="118.49604797363281" height="27.906972885131836" pointer-events="none"  style="display: block;"></rect><text joint-selector="text" id="v-3981" font-size="24px" xml:space="preserve" fill="#444444" text-anchor="middle" pointer-events="none" font-family="Tahoma, Verdana, Helvetica, Arial" font-weight="normal"  style="display: block;"><tspan dy="0.3em" >Persists via</tspan></text></g><g id="v-3980"  label-idx="1" cursor="move" transform="matrix(1,0,0,1,2490,1009.75)" style="cursor: default;"><rect joint-selector="rect" id="v-3984" fill="#ffffff" rx="3" ry="3" x="-4.547473508864641e-13" y="0" width="0" height="0"  display="none"></rect><text joint-selector="text" id="v-3983" fill="#000000" font-size="14" text-anchor="middle" text-vertical-anchor="middle" pointer-events="none"></text></g></g></g><!--z-index:37--><g   id="j_373"  style="opacity: 1;"><path fill="none" cursor="pointer" stroke="transparent" stroke-linecap="round" joint-selector="wrapper" id="v-3998" stroke-width="10" stroke-linejoin="round" d="M 3120 1062.48 L 3280 1108 C 3286.666666666666 1110.1333333333332 3293.333333333333 1112.1333333333332 3300 1114 L 3460 1154.15"></path><path fill="none" pointer-events="none" joint-selector="line" id="v-3997" stroke="#444444" stroke-width="2" stroke-linejoin="round" stroke-dasharray="8 8" d="M 3120 1062.48 L 3280 1108 C 3286.666666666666 1110.1333333333332 3293.333333333333 1112.1333333333332 3300 1114 L 3460 1154.15" marker-end="url(#v-21252848929)"></path><g id="v-3990" ><g id="v-3991"  label-idx="0" cursor="move" transform="matrix(1,0,0,1,3290,1111.0999755859375)" style="cursor: default;"><rect joint-selector="rect" id="v-3994" fill="#ffffff" rx="3" ry="3" x="-94.76742553710938" y="-30.455810546875" width="192.74588012695312" height="56.706974029541016" pointer-events="none"  style="display: block;"></rect><text joint-selector="text" id="v-3993" font-size="24px" xml:space="preserve" fill="#444444" text-anchor="middle" pointer-events="none" font-family="Tahoma, Verdana, Helvetica, Arial" font-weight="normal"  style="display: block;"><tspan dy="-0.3em" >Maps and persists</tspan><tspan dy="1.2em" x="0" >domain entities</tspan></text></g><g id="v-3992"  label-idx="1" cursor="move" transform="matrix(1,0,0,1,3280,1137.5)" style="cursor: default;"><rect joint-selector="rect" id="v-3996" fill="#ffffff" rx="3" ry="3" x="0" y="0" width="0" height="0"  display="none"></rect><text joint-selector="text" id="v-3995" fill="#000000" font-size="14" text-anchor="middle" text-vertical-anchor="middle" pointer-events="none"></text></g></g></g><!--z-index:38--><g   id="j_374"  style="opacity: 1;"><path fill="none" cursor="pointer" stroke="transparent" stroke-linecap="round" joint-selector="wrapper" id="v-4010" stroke-width="10" stroke-linejoin="round" d="M 1519.03 1109 L 1702 1243 C 1707.3333333333333 1247.2666666666667 1713.3333333333333 1249.2666666666667 1720 1249 L 3280 1249 C 3286.666666666666 1249.2666666666667 3293.333333333333 1248.9333333333334 3300 1248 L 3460 1232.87"></path><path fill="none" pointer-events="none" joint-selector="line" id="v-4009" stroke="#444444" stroke-width="2" stroke-linejoin="round" stroke-dasharray="8 8" d="M 1519.03 1109 L 1702 1243 C 1707.3333333333333 1247.2666666666667 1713.3333333333333 1249.2666666666667 1720 1249 L 3280 1249 C 3286.666666666666 1249.2666666666667 3293.333333333333 1248.9333333333334 3300 1248 L 3460 1232.87" marker-end="url(#v-21252848929)"></path><g id="v-4002" ><g id="v-4003"  label-idx="0" cursor="move" transform="matrix(1,0,0,1,2499.93896484375,1249)" style="cursor: default;"><rect joint-selector="rect" id="v-4006" fill="#ffffff" rx="3" ry="3" x="-67.62353515625" y="-30.455810546875" width="135.78128051757812" height="56.706974029541016" pointer-events="none"  style="display: block;"></rect><text joint-selector="text" id="v-4005" font-size="24px" xml:space="preserve" fill="#444444" text-anchor="middle" pointer-events="none" font-family="Tahoma, Verdana, Helvetica, Arial" font-weight="normal"  style="display: block;"><tspan dy="-0.3em" >Uses domain</tspan><tspan dy="1.2em" x="0" >resources</tspan></text></g><g id="v-4004"  label-idx="1" cursor="move" transform="matrix(1,0,0,1,2489.93896484375,1275.4000244140625)" style="cursor: default;"><rect joint-selector="rect" id="v-4008" fill="#ffffff" rx="3" ry="3" x="0" y="0" width="0" height="0"  display="none"></rect><text joint-selector="text" id="v-4007" fill="#000000" font-size="14" text-anchor="middle" text-vertical-anchor="middle" pointer-events="none"></text></g></g></g><!--z-index:39--><g   id="j_375"  style="opacity: 1;"><path fill="none" cursor="pointer" stroke="transparent" stroke-linecap="round" joint-selector="wrapper" id="v-4022" stroke-width="10" stroke-linejoin="round" d="M 2271.53 1120 L 2493 1319 C 2497.6666666666665 1323.5333333333333 2503.333333333333 1325.8666666666666 2510 1326 L 3280 1326 C 3286.666666666666 1325.8666666666666 3293.333333333333 1324.8666666666666 3300 1323 L 3460 1276.39"></path><path fill="none" pointer-events="none" joint-selector="line" id="v-4021" stroke="#444444" stroke-width="2" stroke-linejoin="round" stroke-dasharray="8 8" d="M 2271.53 1120 L 2493 1319 C 2497.6666666666665 1323.5333333333333 2503.333333333333 1325.8666666666666 2510 1326 L 3280 1326 C 3286.666666666666 1325.8666666666666 3293.333333333333 1324.8666666666666 3300 1323 L 3460 1276.39" marker-end="url(#v-21252848929)"></path><g id="v-4014" ><g id="v-4015"  label-idx="0" cursor="move" transform="matrix(1,0,0,1,2895.360107421875,1326)" style="cursor: default;"><rect joint-selector="rect" id="v-4018" fill="#ffffff" rx="3" ry="3" x="-96.80231475830078" y="-16.055810928344727" width="196.8123779296875" height="27.906972885131836" pointer-events="none"  style="display: block;"></rect><text joint-selector="text" id="v-4017" font-size="24px" xml:space="preserve" fill="#444444" text-anchor="middle" pointer-events="none" font-family="Tahoma, Verdana, Helvetica, Arial" font-weight="normal"  style="display: block;"><tspan dy="0.3em" >Uses domain rules</tspan></text></g><g id="v-4016"  label-idx="1" cursor="move" transform="matrix(1,0,0,1,2885.360107421875,1338)" style="cursor: default;"><rect joint-selector="rect" id="v-4020" fill="#ffffff" rx="3" ry="3" x="0" y="0" width="0" height="0"  display="none"></rect><text joint-selector="text" id="v-4019" fill="#000000" font-size="14" text-anchor="middle" text-vertical-anchor="middle" pointer-events="none"></text></g></g></g><!--z-index:40--><g   id="j_376"  style="opacity: 1;"><path fill="none" cursor="pointer" stroke="transparent" stroke-linecap="round" joint-selector="wrapper" id="v-4037" stroke-width="10" stroke-linejoin="round" d="M 3056.8 848 L 3283 639 C 3287.666666666666 634.1999999999999 3292.666666666666 629.8666666666666 3298 626 L 3480.55 492"></path><path fill="none" pointer-events="none" joint-selector="line" id="v-4036" stroke="#444444" stroke-width="2" stroke-linejoin="round" stroke-dasharray="8 8" d="M 3056.8 848 L 3283 639 C 3287.666666666666 634.1999999999999 3292.666666666666 629.8666666666666 3298 626 L 3480.55 492" marker-end="url(#v-21252848929)"></path><g id="v-4026" ><g id="v-4027"  label-idx="0" cursor="move" transform="matrix(1,0,0,1,3290.279296875,618.724609375)" style="cursor: default;"><rect joint-selector="rect" id="v-4031" fill="#ffffff" rx="3" ry="3" x="-96.22091674804688" y="-30.455810546875" width="193.67282104492188" height="56.706974029541016" pointer-events="none"  style="display: block;"></rect><text joint-selector="text" id="v-4030" font-size="24px" xml:space="preserve" fill="#444444" text-anchor="middle" pointer-events="none" font-family="Tahoma, Verdana, Helvetica, Arial" font-weight="normal"  style="display: block;"><tspan dy="-0.3em" >Reads/Writes shift</tspan><tspan dy="1.2em" x="0" >data</tspan></text></g><g id="v-4028"  label-idx="1" cursor="move" transform="matrix(1,0,0,1,3290.279296875,663.5245971679688)" style="cursor: default;"><rect joint-selector="rect" id="v-4033" fill="#ffffff" rx="3" ry="3" x="-38.88080978393555" y="-13.564648628234863" width="80.56412506103516" height="23.255809783935547"  pointer-events="none" style="display: block;"></rect><text joint-selector="text" id="v-4032" font-size="16.799999999999997px" xml:space="preserve" fill="#444444" text-anchor="middle" pointer-events="none" font-family="Tahoma, Verdana, Helvetica, Arial" font-weight="normal"  style="display: block;"><tspan dy="0.3em" >[SQL/TCP]</tspan></text></g><g id="v-4029"  label-idx="2" cursor="move" transform="matrix(1,0,0,1,3250.360107421875,699.7183227539062)" style="cursor: default;"><rect joint-selector="rect" id="v-4035" fill="#ffffff" rx="3" ry="3" x="0" y="-1.1368683772161603e-13" width="0" height="0"  display="none"></rect><text joint-selector="text" id="v-4034" fill="#000000" font-size="14" text-anchor="middle" text-vertical-anchor="middle" pointer-events="none"></text></g></g></g><!--z-index:41--><g   id="j_377"  style="opacity: 1;"><path fill="none" cursor="pointer" stroke="transparent" stroke-linecap="round" joint-selector="wrapper" id="v-4049" stroke-width="10" stroke-linejoin="round" d="M 1540 823.77 L 1701 727 C 1707 723.3999999999999 1713.3333333333333 721.7333333333332 1720 722 L 4120 722 C 4126.666666666666 721.7333333333332 4133 723.0666666666666 4139 726 L 4300 801.82"></path><path fill="none" pointer-events="none" joint-selector="line" id="v-4048" stroke="#444444" stroke-width="2" stroke-linejoin="round" stroke-dasharray="8 8" d="M 1540 823.77 L 1701 727 C 1707 723.3999999999999 1713.3333333333333 721.7333333333332 1720 722 L 4120 722 C 4126.666666666666 721.7333333333332 4133 723.0666666666666 4139 726 L 4300 801.82" marker-end="url(#v-21252848929)"></path><g id="v-4041" ><g id="v-4042"  label-idx="0" cursor="move" transform="matrix(1,0,0,1,2895.16162109375,722)" style="cursor: default;"><rect joint-selector="rect" id="v-4045" fill="#ffffff" rx="3" ry="3" x="-86.2645263671875" y="-30.455810546875" width="172.8369903564453" height="56.706974029541016" pointer-events="none"  style="display: block;"></rect><text joint-selector="text" id="v-4044" font-size="24px" xml:space="preserve" fill="#444444" text-anchor="middle" pointer-events="none" font-family="Tahoma, Verdana, Helvetica, Arial" font-weight="normal"  style="display: block;"><tspan dy="-0.3em" >Uses shared API</tspan><tspan dy="1.2em" x="0" >responses</tspan></text></g><g id="v-4043"  label-idx="1" cursor="move" transform="matrix(1,0,0,1,2885.16162109375,748.4000244140625)" style="cursor: default;"><rect joint-selector="rect" id="v-4047" fill="#ffffff" rx="3" ry="3" x="-4.547473508864641e-13" y="-1.1368683772161603e-13" width="0" height="0"  display="none"></rect><text joint-selector="text" id="v-4046" fill="#000000" font-size="14" text-anchor="middle" text-vertical-anchor="middle" pointer-events="none"></text></g></g></g><!--z-index:42--><g   id="j_378"  style="opacity: 1;"><path fill="none" cursor="pointer" stroke="transparent" stroke-linecap="round" joint-selector="wrapper" id="v-4061" stroke-width="10" stroke-linejoin="round" d="M 2330 872.03 L 2491 802 C 2497 799.3333333333333 2503.333333333333 798 2510 798 L 4120 798 C 4126.666666666666 798 4133.333333333333 799 4140 801 L 4300 845.34"></path><path fill="none" pointer-events="none" joint-selector="line" id="v-4060" stroke="#444444" stroke-width="2" stroke-linejoin="round" stroke-dasharray="8 8" d="M 2330 872.03 L 2491 802 C 2497 799.3333333333333 2503.333333333333 798 2510 798 L 4120 798 C 4126.666666666666 798 4133.333333333333 799 4140 801 L 4300 845.34" marker-end="url(#v-21252848929)"></path><g id="v-4053" ><g id="v-4054"  label-idx="0" cursor="move" transform="matrix(1,0,0,1,3290.0634765625,798)" style="cursor: default;"><rect joint-selector="rect" id="v-4057" fill="#ffffff" rx="3" ry="3" x="-64.20783996582031" y="-30.455810546875" width="129.1016082763672" height="56.706974029541016" pointer-events="none"  style="display: block;"></rect><text joint-selector="text" id="v-4056" font-size="24px" xml:space="preserve" fill="#444444" text-anchor="middle" pointer-events="none" font-family="Tahoma, Verdana, Helvetica, Arial" font-weight="normal"  style="display: block;"><tspan dy="-0.3em" >Uses shared</tspan><tspan dy="1.2em" x="0" >behaviors</tspan></text></g><g id="v-4055"  label-idx="1" cursor="move" transform="matrix(1,0,0,1,3280.0634765625,824.4000244140625)" style="cursor: default;"><rect joint-selector="rect" id="v-4059" fill="#ffffff" rx="3" ry="3" x="-4.547473508864641e-13" y="0" width="0" height="0"  display="none"></rect><text joint-selector="text" id="v-4058" fill="#000000" font-size="14" text-anchor="middle" text-vertical-anchor="middle" pointer-events="none"></text></g></g></g><!--z-index:43--><g   id="j_379"  style="opacity: 1;"><path fill="none" cursor="pointer" stroke="transparent" stroke-linecap="round" joint-selector="wrapper" id="v-4073" stroke-width="10" stroke-linejoin="round" d="M 3120 976.24 L 3280 961 C 3286.666666666666 960.1999999999998 3293.333333333333 959.8666666666666 3300 960 L 4120 960 C 4126.666666666666 959.8666666666666 4133.333333333333 959.1999999999998 4140 958 L 4300 937.51"></path><path fill="none" pointer-events="none" joint-selector="line" id="v-4072" stroke="#444444" stroke-width="2" stroke-linejoin="round" stroke-dasharray="8 8" d="M 3120 976.24 L 3280 961 C 3286.666666666666 960.1999999999998 3293.333333333333 959.8666666666666 3300 960 L 4120 960 C 4126.666666666666 959.8666666666666 4133.333333333333 959.1999999999998 4140 958 L 4300 937.51" marker-end="url(#v-21252848929)"></path><g id="v-4065" ><g id="v-4066"  label-idx="0" cursor="move" transform="matrix(1,0,0,1,3685.00634765625,960)" style="cursor: default;"><rect joint-selector="rect" id="v-4069" fill="#ffffff" rx="3" ry="3" x="-91.20638275146484" y="-30.455810546875" width="183.75767517089844" height="56.706974029541016" pointer-events="none"  style="display: block;"></rect><text joint-selector="text" id="v-4068" font-size="24px" xml:space="preserve" fill="#444444" text-anchor="middle" pointer-events="none" font-family="Tahoma, Verdana, Helvetica, Arial" font-weight="normal"  style="display: block;"><tspan dy="-0.3em" >Uses shared data</tspan><tspan dy="1.2em" x="0" >access</tspan></text></g><g id="v-4067"  label-idx="1" cursor="move" transform="matrix(1,0,0,1,3675.00634765625,986.4000244140625)" style="cursor: default;"><rect joint-selector="rect" id="v-4071" fill="#ffffff" rx="3" ry="3" x="-4.547473508864641e-13" y="-1.1368683772161603e-13" width="0" height="0"  display="none"></rect><text joint-selector="text" id="v-4070" fill="#000000" font-size="14" text-anchor="middle" text-vertical-anchor="middle" pointer-events="none"></text></g></g></g><!--z-index:44--><g   id="j_380"  style="opacity: 1;"><path fill="none" cursor="pointer" stroke="transparent" stroke-linecap="round" joint-selector="wrapper" id="v-4085" stroke-width="10" stroke-linejoin="round" d="M 3910 1211.1 L 4120 1211 C 4126.666666666666 1211.1333333333332 4132.666666666666 1209.1333333333332 4138 1205 L 4329.58 1058"></path><path fill="none" pointer-events="none" joint-selector="line" id="v-4084" stroke="#444444" stroke-width="2" stroke-linejoin="round" stroke-dasharray="8 8" d="M 3910 1211.1 L 4120 1211 C 4126.666666666666 1211.1333333333332 4132.666666666666 1209.1333333333332 4138 1205 L 4329.58 1058" marker-end="url(#v-21252848929)"></path><g id="v-4077" ><g id="v-4078"  label-idx="0" cursor="move" transform="matrix(1,0,0,1,4129.60546875,1209.5645751953125)" style="cursor: default;"><rect joint-selector="rect" id="v-4081" fill="#ffffff" rx="3" ry="3" x="-75.5450439453125" y="-30.455810546875" width="149.66683959960938" height="56.706974029541016" pointer-events="none"  style="display: block;"></rect><text joint-selector="text" id="v-4080" font-size="24px" xml:space="preserve" fill="#444444" text-anchor="middle" pointer-events="none" font-family="Tahoma, Verdana, Helvetica, Arial" font-weight="normal"  style="display: block;"><tspan dy="-0.3em" >Uses shared</tspan><tspan dy="1.2em" x="0" >domain types</tspan></text></g><g id="v-4079"  label-idx="1" cursor="move" transform="matrix(1,0,0,1,4119.60546875,1235.964599609375)" style="cursor: default;"><rect joint-selector="rect" id="v-4083" fill="#ffffff" rx="3" ry="3" x="-4.547473508864641e-13" y="0" width="0" height="0"  display="none"></rect><text joint-selector="text" id="v-4082" fill="#000000" font-size="14" text-anchor="middle" text-vertical-anchor="middle" pointer-events="none"></text></g></g></g><!--z-index:45--><!--z-index:46--><!--z-index:47--><!--z-index:48--><!--z-index:49--><!--z-index:50--><!--z-index:51--><!--z-index:52--><!--z-index:53--><!--z-index:54--><!--z-index:55--><!--z-index:56--><!--z-index:57--><!--z-index:58--><!--z-index:59--><!--z-index:60--><!--z-index:61--><!--z-index:62--><!--z-index:63--><!--z-index:64--><!--z-index:65--><!--z-index:66--><!--z-index:67--><!--z-index:68--><!--z-index:69--><!--z-index:70--><!--z-index:71--><!--z-index:72--><!--z-index:73--><!--z-index:74--><!--z-index:75--><!--z-index:76--><!--z-index:77--><!--z-index:78--><!--z-index:79--><!--z-index:80--><!--z-index:81--><!--z-index:82--><!--z-index:83--><!--z-index:84--><!--z-index:85--><!--z-index:86--><!--z-index:87--><!--z-index:88--><!--z-index:89--><!--z-index:90--><!--z-index:91--></g><g  style="user-select: none;"></g><g ></g><g  display="none"></g></g></svg>