<svg xmlns="http://www.w3.org/2000/svg" xmlns:xlink="http://www.w3.org/1999/xlink" version="1.1" style="background: #ffffff" viewBox="0 0 5000 1877"><style id="v-3" type="text/css">        .joint-element .scalable * {            vector-effect: non-scaling-stroke;        }    </style><defs joint-selector="defs"><marker id="v-2-527367903" orient="auto" overflow="visible" markerUnits="userSpaceOnUse"><path id="v-128" stroke="#cccccc" fill="#cccccc" transform="rotate(180)" d="M 20 -10 0 0 20 10 Z"></path></marker><marker id="v-21252848929" orient="auto" overflow="visible" markerUnits="userSpaceOnUse"><path id="v-736" stroke="#444444" fill="#444444" transform="rotate(180)" d="M 20 -10 0 0 20 10 Z"></path></marker></defs><g joint-selector="layers"  transform="matrix(1,0,0,1,0,0)"><g  style="pointer-events: none;"></g><g ></g><g  style="user-select: none;"><!--z-index:0--><!--z-index:1--><!--z-index:2--><!--z-index:3--><!--z-index:4--><!--z-index:5--><!--z-index:6--><!--z-index:7--><!--z-index:8--><!--z-index:9--><!--z-index:10--><!--z-index:11--><!--z-index:12--><!--z-index:13--><!--z-index:14--><!--z-index:15--><!--z-index:16--><!--z-index:17--><!--z-index:18--><!--z-index:19--><!--z-index:20--><!--z-index:21--><!--z-index:22--><g   id="j_296"  transform="translate(20,1833)"><g id="v-3181"><text  id="v-3182" font-size="24px" xml:space="preserve" y="0.8em" font-weight="normal" text-anchor="start" fill="#444444" pointer-events="none" display="block" font-family="Tahoma, Verdana, Helvetica, Arial"><tspan dy="0" >jueves, 9 de julio de 2026, 2:48 p. m. hora estándar de Perú</tspan></text></g></g><!--z-index:23--><g   id="j_295"  transform="translate(20,1799)"><g id="v-3179"><text  id="v-3180" font-size="24px" xml:space="preserve" y="0.8em" font-weight="normal" text-anchor="start" fill="#444444" pointer-events="none" display="block" font-family="Tahoma, Verdana, Helvetica, Arial"><tspan dy="0" >Component View: Shift Coordination Context</tspan></text></g></g><!--z-index:24--><g   id="j_294"  transform="translate(20,1753)"><g id="v-3177"><text  id="v-3178" font-size="36px" xml:space="preserve" y="0.8em" font-weight="normal" text-anchor="start" fill="#444444" pointer-events="none" display="block" font-family="Tahoma, Verdana, Helvetica, Arial"><tspan dy="0" >Component View: CortiSense - Shift Coordination Context</tspan></text></g></g><!--z-index:25--><g   id="j_298"  transform="translate(200,142)" style="; opacity: 1;"><g id="v-3201"><rect  id="v-3202" width="4600" height="1477" rx="0" ry="0" stroke-width="2" pointer-events="none" stroke="#444444" fill="#ffffff" opacity="1" stroke-dasharray=""></rect><text  id="v-3203" font-size="33.599999999999994px" xml:space="preserve" y="1438" font-weight="bold" text-anchor="start" pointer-events="visible" font-family="Tahoma, Verdana, Helvetica, Arial" fill="#444444" transform="matrix(1,0,0,1,15,0)"><tspan dy="0" >CortiSense</tspan></text><text  id="v-3204" font-size="16.799999999999997px" xml:space="preserve" y="1462" font-weight="normal" text-anchor="start" pointer-events="visible" font-family="Tahoma, Verdana, Helvetica, Arial" fill="#444444" transform="matrix(1,0,0,1,15,0)"><tspan dy="0" >[Software System]</tspan></text><image  id="v-3205" pointer-events="visible"></image></g></g><!--z-index:26--><g   id="j_297"  transform="translate(250,809)" style=""><g  id="v-3189" style="opacity: 1;"><rect  id="v-3190" rx="10" ry="10" stroke-width="2" pointer-events="visiblePainted" fill="#2672c0" stroke="#2672c0" stroke-dasharray="" width="450" height="302" style="fill: rgb(38, 114, 192); stroke: rgb(38, 114, 192);"></rect><rect  id="v-3191" rx="10" ry="10" stroke-width="0" pointer-events="visiblePainted" fill="#2a7fd5" stroke="#2672c0" width="446" height="260" x="2" y="40" style="fill: rgb(42, 127, 213);"></rect><ellipse  id="v-3198" fill="#2a7fd5" cx="20" cy="20" rx="10" ry="10" style="fill: rgb(42, 127, 213);"></ellipse><ellipse  id="v-3199" fill="#2a7fd5" cx="50" cy="20" rx="10" ry="10" style="fill: rgb(42, 127, 213);"></ellipse><ellipse  id="v-3200" fill="#2a7fd5" cx="80" cy="20" rx="10" ry="10" style="fill: rgb(42, 127, 213);"></ellipse><rect  id="v-3192" rx="10" ry="10" stroke-width="0" pointer-events="visiblePainted" fill="#2a7fd5" width="340" height="20" x="100" y="10" style="fill: rgb(42, 127, 213);"></rect><text  id="v-3193" font-size="33.599999999999994px" xml:space="preserve" y="106.9" font-weight="bold" text-anchor="middle" pointer-events="visible" font-family="Tahoma, Verdana, Helvetica, Arial" fill="#ffffff" dominant-baseline="hanging" transform="matrix(1,0,0,1,225,0)" style="fill: rgb(255, 255, 255);"><tspan dy="0" >Single Page Application</tspan></text><text  id="v-3194" font-size="16.799999999999997px" xml:space="preserve" y="148.5" text-anchor="middle" font-family="Tahoma, Verdana, Helvetica, Arial" fill="#ffffff" dominant-baseline="hanging" transform="matrix(1,0,0,1,225,0)" style="display: block; fill: rgb(255, 255, 255);"><tspan dy="0" >[Container: Vue 3]</tspan></text><text  id="v-3195" font-size="24px" xml:space="preserve" y="180.3" text-anchor="middle" font-family="Tahoma, Verdana, Helvetica, Arial" fill="#ffffff" dominant-baseline="hanging" transform="matrix(1,0,0,1,225,0)" style="display: block; fill: rgb(255, 255, 255);"><tspan dy="0" >Main interface for administrators,</tspan><tspan dy="1.2em" x="0" >doctors, and staff.</tspan></text><g  id="v-3196" font-weight="normal" text-anchor="middle" color="#ffffff" transform="matrix(1,0,0,1,222.5,268)" display="none" style="fill: rgb(255, 255, 255);"><g ></g><g ></g><g ></g><g ></g></g><image  id="v-3197"></image></g></g><!--z-index:27--><g   id="j_299"  transform="translate(3460,192)" style=""><g  id="v-3209" style="opacity: 1;"><path  d="M 0,30 a 225,30 0,0,0 450 0 a 225,30 0,0,0 -450 0 l 0,240 a 225,30 0,0,0 450 0 l 0,-240" id="v-3210" stroke-width="2" pointer-events="visiblePainted" fill="#e51c23" stroke="#ce1920" stroke-dasharray="" style="fill: rgb(229, 28, 35); stroke: rgb(206, 25, 32);"></path><rect  id="v-3211" stroke-width="0" pointer-events="visiblePainted" fill="none" stroke="none" width="450" height="270" x="0" y="30"></rect><text  id="v-3212" font-size="33.599999999999994px" xml:space="preserve" y="101.9" font-weight="bold" text-anchor="middle" pointer-events="visible" font-family="Tahoma, Verdana, Helvetica, Arial" fill="#ffffff" dominant-baseline="hanging" transform="matrix(1,0,0,1,225,0)" style="fill: rgb(255, 255, 255);"><tspan dy="0" >Database</tspan></text><text  id="v-3213" font-size="16.799999999999997px" xml:space="preserve" y="143.5" text-anchor="middle" font-family="Tahoma, Verdana, Helvetica, Arial" fill="#ffffff" dominant-baseline="hanging" transform="matrix(1,0,0,1,225,0)" style="display: block; fill: rgb(255, 255, 255);"><tspan dy="0" >[Container: MySQL]</tspan></text><text  id="v-3214" font-size="24px" xml:space="preserve" y="175.3" text-anchor="middle" font-family="Tahoma, Verdana, Helvetica, Arial" fill="#ffffff" dominant-baseline="hanging" transform="matrix(1,0,0,1,225,0)" style="display: block; fill: rgb(255, 255, 255);"><tspan dy="0" >Stores users, shifts, subscriptions,</tspan><tspan dy="1.2em" x="0" >telemetry, and logs.</tspan></text><g  id="v-3215" font-weight="normal" text-anchor="middle" color="#ffffff" transform="matrix(1,0,0,1,222.5,268)" display="none" style="fill: rgb(255, 255, 255);"><g ></g><g ></g><g ></g><g ></g></g><image  id="v-3216"></image></g></g><!--z-index:28--><g   id="j_300"  transform="translate(4300,758)" style=""><g  id="v-3220" style="opacity: 1;"><rect  id="v-3221" rx="20" ry="20" stroke-width="2" pointer-events="visiblePainted" fill="#2ba356" stroke="#27934d" stroke-dasharray="" width="450" height="300" style="fill: rgb(43, 163, 86); stroke: rgb(39, 147, 77);"></rect><text  id="v-3222" font-size="33.599999999999994px" xml:space="preserve" y="86.9" font-weight="bold" text-anchor="middle" pointer-events="visible" font-family="Tahoma, Verdana, Helvetica, Arial" fill="#ffffff" dominant-baseline="hanging" transform="matrix(1,0,0,1,225,0)" style="fill: rgb(255, 255, 255);"><tspan dy="0" >Shared Kernel</tspan></text><text  id="v-3223" font-size="16.799999999999997px" xml:space="preserve" y="128.5" text-anchor="middle" font-family="Tahoma, Verdana, Helvetica, Arial" fill="#ffffff" dominant-baseline="hanging" transform="matrix(1,0,0,1,225,0)" style="display: block; fill: rgb(255, 255, 255);"><tspan dy="0" >[Container: C# Class Library]</tspan></text><text  id="v-3224" font-size="24px" xml:space="preserve" y="160.3" text-anchor="middle" font-family="Tahoma, Verdana, Helvetica, Arial" fill="#ffffff" dominant-baseline="hanging" transform="matrix(1,0,0,1,225,0)" style="display: block; fill: rgb(255, 255, 255);"><tspan dy="0" >Centralizes base classes, exceptions,</tspan><tspan dy="1.2em" x="0" >and cross-cutting abstractions.</tspan></text><g  id="v-3225" color="#ffffff" transform="matrix(1,0,0,1,210,268)" display="none" style="fill: rgb(255, 255, 255);"><g  transform="translate(5 0)"><svg xmlns="http://www.w3.org/2000/svg" width="20" height="20" fill="currentColor" viewBox="0 0 16 16"><path fill-rule="evenodd" d="M6.5 12a5.5 5.5 0 1 0 0-11 5.5 5.5 0 0 0 0 11zM13 6.5a6.5 6.5 0 1 1-13 0 6.5 6.5 0 0 1 13 0z"></path><path d="M10.344 11.742c.03.04.062.078.098.115l3.85 3.85a1 1 0 0 0 1.415-1.414l-3.85-3.85a1.007 1.007 0 0 0-.115-.1 6.538 6.538 0 0 1-1.398 1.4z"></path><path fill-rule="evenodd" d="M6.5 3a.5.5 0 0 1 .5.5V6h2.5a.5.5 0 0 1 0 1H7v2.5a.5.5 0 0 1-1 0V7H3.5a.5.5 0 0 1 0-1H6V3.5a.5.5 0 0 1 .5-.5z"></path></svg></g><g ></g><g ></g><g ></g></g><image  id="v-3226"></image></g></g><!--z-index:29--><g   id="j_302"  transform="translate(1040,759)" style="; opacity: 1;"><g id="v-3237"><rect  id="v-3238" width="2920" height="731" rx="20" ry="20" stroke-width="2" pointer-events="none" stroke="#27934d" fill="#ffffff" opacity="1" stroke-dasharray=""></rect><text  id="v-3239" font-size="33.599999999999994px" xml:space="preserve" y="692" font-weight="bold" text-anchor="start" pointer-events="visible" font-family="Tahoma, Verdana, Helvetica, Arial" fill="#27934d" transform="matrix(1,0,0,1,15,0)"><tspan dy="0" >Shift Coordination Context</tspan></text><text  id="v-3240" font-size="16.799999999999997px" xml:space="preserve" y="716" font-weight="normal" text-anchor="start" pointer-events="visible" font-family="Tahoma, Verdana, Helvetica, Arial" fill="#27934d" transform="matrix(1,0,0,1,15,0)"><tspan dy="0" >[Container]</tspan></text><image  id="v-3241" pointer-events="visible"></image></g></g><!--z-index:30--><g   id="j_301"  transform="translate(1090,809)" style=""><g  id="v-3230" style="opacity: 1;"><rect  id="v-3231" rx="20" ry="20" stroke-width="2" pointer-events="visiblePainted" fill="#7b7b7b" stroke="#6f6f6f" stroke-dasharray="" width="450" height="300" style="fill: rgb(123, 123, 123); stroke: rgb(111, 111, 111);"></rect><text  id="v-3232" font-size="33.599999999999994px" xml:space="preserve" y="86.9" font-weight="bold" text-anchor="middle" pointer-events="visible" font-family="Tahoma, Verdana, Helvetica, Arial" fill="#ffffff" dominant-baseline="hanging" transform="matrix(1,0,0,1,225,0)" style="fill: rgb(255, 255, 255);"><tspan dy="0" >Interfaces</tspan></text><text  id="v-3233" font-size="16.799999999999997px" xml:space="preserve" y="128.5" text-anchor="middle" font-family="Tahoma, Verdana, Helvetica, Arial" fill="#ffffff" dominant-baseline="hanging" transform="matrix(1,0,0,1,225,0)" style="display: block; fill: rgb(255, 255, 255);"><tspan dy="0" >[Component: ASP.NET Core REST]</tspan></text><text  id="v-3234" font-size="24px" xml:space="preserve" y="160.3" text-anchor="middle" font-family="Tahoma, Verdana, Helvetica, Arial" fill="#ffffff" dominant-baseline="hanging" transform="matrix(1,0,0,1,225,0)" style="display: block; fill: rgb(255, 255, 255);"><tspan dy="0" >1: interfaces - REST endpoints for</tspan><tspan dy="1.2em" x="0" >shift scheduling.</tspan></text><g  id="v-3235" color="#ffffff" transform="matrix(1,0,0,1,222.5,268)" display="none" style="fill: rgb(255, 255, 255);"><g ></g><g ></g><g ></g><g ></g></g><image  id="v-3236"></image></g></g><!--z-index:31--><g   id="j_303"  transform="translate(1880,820)" style=""><g  id="v-3245" style="opacity: 1;"><rect  id="v-3246" rx="20" ry="20" stroke-width="2" pointer-events="visiblePainted" fill="#7b7b7b" stroke="#6f6f6f" stroke-dasharray="" width="450" height="300" style="fill: rgb(123, 123, 123); stroke: rgb(111, 111, 111);"></rect><text  id="v-3247" font-size="33.599999999999994px" xml:space="preserve" y="86.9" font-weight="bold" text-anchor="middle" pointer-events="visible" font-family="Tahoma, Verdana, Helvetica, Arial" fill="#ffffff" dominant-baseline="hanging" transform="matrix(1,0,0,1,225,0)" style="fill: rgb(255, 255, 255);"><tspan dy="0" >Application</tspan></text><text  id="v-3248" font-size="16.799999999999997px" xml:space="preserve" y="128.5" text-anchor="middle" font-family="Tahoma, Verdana, Helvetica, Arial" fill="#ffffff" dominant-baseline="hanging" transform="matrix(1,0,0,1,225,0)" style="display: block; fill: rgb(255, 255, 255);"><tspan dy="0" >[Component: C# Service]</tspan></text><text  id="v-3249" font-size="24px" xml:space="preserve" y="160.3" text-anchor="middle" font-family="Tahoma, Verdana, Helvetica, Arial" fill="#ffffff" dominant-baseline="hanging" transform="matrix(1,0,0,1,225,0)" style="display: block; fill: rgb(255, 255, 255);"><tspan dy="0" >2: application - Shift assignment and</tspan><tspan dy="1.2em" x="0" >scheduling use cases.</tspan></text><g  id="v-3250" color="#ffffff" transform="matrix(1,0,0,1,222.5,268)" display="none" style="fill: rgb(255, 255, 255);"><g ></g><g ></g><g ></g><g ></g></g><image  id="v-3251"></image></g></g><!--z-index:32--><g   id="j_304"  transform="translate(2670,848)" style=""><g  id="v-3255" style="opacity: 1;"><rect  id="v-3256" rx="20" ry="20" stroke-width="2" pointer-events="visiblePainted" fill="#7b7b7b" stroke="#6f6f6f" stroke-dasharray="" width="450" height="300" style="fill: rgb(123, 123, 123); stroke: rgb(111, 111, 111);"></rect><text  id="v-3257" font-size="33.599999999999994px" xml:space="preserve" y="86.9" font-weight="bold" text-anchor="middle" pointer-events="visible" font-family="Tahoma, Verdana, Helvetica, Arial" fill="#ffffff" dominant-baseline="hanging" transform="matrix(1,0,0,1,225,0)" style="fill: rgb(255, 255, 255);"><tspan dy="0" >Infrastructure</tspan></text><text  id="v-3258" font-size="16.799999999999997px" xml:space="preserve" y="128.5" text-anchor="middle" font-family="Tahoma, Verdana, Helvetica, Arial" fill="#ffffff" dominant-baseline="hanging" transform="matrix(1,0,0,1,225,0)" style="display: block; fill: rgb(255, 255, 255);"><tspan dy="0" >[Component: EF Core]</tspan></text><text  id="v-3259" font-size="24px" xml:space="preserve" y="160.3" text-anchor="middle" font-family="Tahoma, Verdana, Helvetica, Arial" fill="#ffffff" dominant-baseline="hanging" transform="matrix(1,0,0,1,225,0)" style="display: block; fill: rgb(255, 255, 255);"><tspan dy="0" >4: infrastructure - Persists shifts and</tspan><tspan dy="1.2em" x="0" >rosters.</tspan></text><g  id="v-3260" color="#ffffff" transform="matrix(1,0,0,1,222.5,268)" display="none" style="fill: rgb(255, 255, 255);"><g ></g><g ></g><g ></g><g ></g></g><image  id="v-3261"></image></g></g><!--z-index:33--><g   id="j_305"  transform="translate(3460,1061)" style=""><g  id="v-3265" style="opacity: 1;"><rect  id="v-3266" rx="20" ry="20" stroke-width="2" pointer-events="visiblePainted" fill="#7b7b7b" stroke="#6f6f6f" stroke-dasharray="" width="450" height="300" style="fill: rgb(123, 123, 123); stroke: rgb(111, 111, 111);"></rect><text  id="v-3267" font-size="33.599999999999994px" xml:space="preserve" y="86.9" font-weight="bold" text-anchor="middle" pointer-events="visible" font-family="Tahoma, Verdana, Helvetica, Arial" fill="#ffffff" dominant-baseline="hanging" transform="matrix(1,0,0,1,225,0)" style="fill: rgb(255, 255, 255);"><tspan dy="0" >Domain</tspan></text><text  id="v-3268" font-size="16.799999999999997px" xml:space="preserve" y="128.5" text-anchor="middle" font-family="Tahoma, Verdana, Helvetica, Arial" fill="#ffffff" dominant-baseline="hanging" transform="matrix(1,0,0,1,225,0)" style="display: block; fill: rgb(255, 255, 255);"><tspan dy="0" >[Component: C# Domain]</tspan></text><text  id="v-3269" font-size="24px" xml:space="preserve" y="160.3" text-anchor="middle" font-family="Tahoma, Verdana, Helvetica, Arial" fill="#ffffff" dominant-baseline="hanging" transform="matrix(1,0,0,1,225,0)" style="display: block; fill: rgb(255, 255, 255);"><tspan dy="0" >3: domain - Shift, CareTeam, and</tspan><tspan dy="1.2em" x="0" >Roster aggregates.</tspan></text><g  id="v-3270" color="#ffffff" transform="matrix(1,0,0,1,222.5,268)" display="none" style="fill: rgb(255, 255, 255);"><g ></g><g ></g><g ></g><g ></g></g><image  id="v-3271"></image></g></g><!--z-index:34--><g   id="j_306"  style="opacity: 1;"><path fill="none" cursor="pointer" stroke="transparent" stroke-linecap="round" joint-selector="wrapper" id="v-3286" stroke-width="10" stroke-linejoin="round" d="M 700 959.73 L 1090 959.27"></path><path fill="none" pointer-events="none" joint-selector="line" id="v-3285" stroke="#444444" stroke-width="2" stroke-linejoin="round" stroke-dasharray="8 8" d="M 700 959.73 L 1090 959.27" marker-end="url(#v-21252848929)"></path><g id="v-3275" ><g id="v-3276"  label-idx="0" cursor="move" transform="matrix(1,0,0,1,870,946.1295166015625)" style="cursor: default;"><rect joint-selector="rect" id="v-3280" fill="#ffffff" rx="3" ry="3" x="-78.60464477539062" y="-16.98604393005371" width="157.63531494140625" height="29.767440795898438" pointer-events="none"  style="display: block;"></rect><text joint-selector="text" id="v-3279" font-size="24px" xml:space="preserve" fill="#444444" text-anchor="middle" pointer-events="none" font-family="Tahoma, Verdana, Helvetica, Arial" font-weight="normal"  style="display: block;"><tspan dy="0.3em" >Manages shifts</tspan></text></g><g id="v-3277"  label-idx="1" cursor="move" transform="matrix(1,0,0,1,870,976.5294799804688)" style="cursor: default;"><rect joint-selector="rect" id="v-3282" fill="#ffffff" rx="3" ry="3" x="-53.76453399658203" y="-11.704185485839844" width="108.52061462402344" height="20.46511459350586"  pointer-events="none" style="display: block;"></rect><text joint-selector="text" id="v-3281" font-size="16.799999999999997px" xml:space="preserve" fill="#444444" text-anchor="middle" pointer-events="none" font-family="Tahoma, Verdana, Helvetica, Arial" font-weight="normal"  style="display: block;"><tspan dy="0.3em" >[JSON/HTTPS]</tspan></text></g><g id="v-3278"  label-idx="2" cursor="move" transform="matrix(1,0,0,1,885,984.9000244140625)" style="cursor: default;"><rect joint-selector="rect" id="v-3284" fill="#ffffff" rx="3" ry="3" x="0" y="0" width="0" height="0"  display="none"></rect><text joint-selector="text" id="v-3283" fill="#000000" font-size="14" text-anchor="middle" text-vertical-anchor="middle" pointer-events="none"></text></g></g></g><!--z-index:35--><g   id="j_307"  style="opacity: 1;"><path fill="none" cursor="pointer" stroke="transparent" stroke-linecap="round" joint-selector="wrapper" id="v-3298" stroke-width="10" stroke-linejoin="round" d="M 1540 965.27 L 1700 970 C 1706.6666666666665 970 1713.3333333333333 970 1720 970 L 1880 970"></path><path fill="none" pointer-events="none" joint-selector="line" id="v-3297" stroke="#444444" stroke-width="2" stroke-linejoin="round" stroke-dasharray="8 8" d="M 1540 965.27 L 1700 970 C 1706.6666666666665 970 1713.3333333333333 970 1720 970 L 1880 970" marker-end="url(#v-21252848929)"></path><g id="v-3290" ><g id="v-3291"  label-idx="0" cursor="move" transform="matrix(1,0,0,1,1710,970)" style="cursor: default;"><rect joint-selector="rect" id="v-3294" fill="#ffffff" rx="3" ry="3" x="-66.4244155883789" y="-16.98604393005371" width="132.8488311767578" height="29.767440795898438" pointer-events="none"  style="display: block;"></rect><text joint-selector="text" id="v-3293" font-size="24px" xml:space="preserve" fill="#444444" text-anchor="middle" pointer-events="none" font-family="Tahoma, Verdana, Helvetica, Arial" font-weight="normal"  style="display: block;"><tspan dy="0.3em" >Delegates to</tspan></text></g><g id="v-3292"  label-idx="1" cursor="move" transform="matrix(1,0,0,1,1700,982)" style="cursor: default;"><rect joint-selector="rect" id="v-3296" fill="#ffffff" rx="3" ry="3" x="-2.2737367544323206e-13" y="1.1368683772161603e-13" width="0" height="0"  display="none"></rect><text joint-selector="text" id="v-3295" fill="#000000" font-size="14" text-anchor="middle" text-vertical-anchor="middle" pointer-events="none"></text></g></g></g><!--z-index:36--><g   id="j_308"  style="opacity: 1;"><path fill="none" cursor="pointer" stroke="transparent" stroke-linecap="round" joint-selector="wrapper" id="v-3310" stroke-width="10" stroke-linejoin="round" d="M 2330 985.95 L 2490 997 C 2496.6666666666665 997.6666666666665 2503.333333333333 997.9999999999999 2510 998 L 2670 998"></path><path fill="none" pointer-events="none" joint-selector="line" id="v-3309" stroke="#444444" stroke-width="2" stroke-linejoin="round" stroke-dasharray="8 8" d="M 2330 985.95 L 2490 997 C 2496.6666666666665 997.6666666666665 2503.333333333333 997.9999999999999 2510 998 L 2670 998" marker-end="url(#v-21252848929)"></path><g id="v-3302" ><g id="v-3303"  label-idx="0" cursor="move" transform="matrix(1,0,0,1,2500,997.75)" style="cursor: default;"><rect joint-selector="rect" id="v-3306" fill="#ffffff" rx="3" ry="3" x="-58.57558059692383" y="-16.98604393005371" width="117.5661392211914" height="29.767440795898438" pointer-events="none"  style="display: block;"></rect><text joint-selector="text" id="v-3305" font-size="24px" xml:space="preserve" fill="#444444" text-anchor="middle" pointer-events="none" font-family="Tahoma, Verdana, Helvetica, Arial" font-weight="normal"  style="display: block;"><tspan dy="0.3em" >Persists via</tspan></text></g><g id="v-3304"  label-idx="1" cursor="move" transform="matrix(1,0,0,1,2490,1009.75)" style="cursor: default;"><rect joint-selector="rect" id="v-3308" fill="#ffffff" rx="3" ry="3" x="0" y="-1.1368683772161603e-13" width="0" height="0"  display="none"></rect><text joint-selector="text" id="v-3307" fill="#000000" font-size="14" text-anchor="middle" text-vertical-anchor="middle" pointer-events="none"></text></g></g></g><!--z-index:37--><g   id="j_309"  style="opacity: 1;"><path fill="none" cursor="pointer" stroke="transparent" stroke-linecap="round" joint-selector="wrapper" id="v-3322" stroke-width="10" stroke-linejoin="round" d="M 3120 1062.48 L 3280 1108 C 3286.666666666666 1110.1333333333332 3293.333333333333 1112.1333333333332 3300 1114 L 3460 1154.15"></path><path fill="none" pointer-events="none" joint-selector="line" id="v-3321" stroke="#444444" stroke-width="2" stroke-linejoin="round" stroke-dasharray="8 8" d="M 3120 1062.48 L 3280 1108 C 3286.666666666666 1110.1333333333332 3293.333333333333 1112.1333333333332 3300 1114 L 3460 1154.15" marker-end="url(#v-21252848929)"></path><g id="v-3314" ><g id="v-3315"  label-idx="0" cursor="move" transform="matrix(1,0,0,1,3290,1111.0999755859375)" style="cursor: default;"><rect joint-selector="rect" id="v-3318" fill="#ffffff" rx="3" ry="3" x="-94.7529067993164" y="-31.38604736328125" width="189.95562744140625" height="58.56744384765625" pointer-events="none"  style="display: block;"></rect><text joint-selector="text" id="v-3317" font-size="24px" xml:space="preserve" fill="#444444" text-anchor="middle" pointer-events="none" font-family="Tahoma, Verdana, Helvetica, Arial" font-weight="normal"  style="display: block;"><tspan dy="-0.3em" >Maps and persists</tspan><tspan dy="1.2em" x="0" >domain entities</tspan></text></g><g id="v-3316"  label-idx="1" cursor="move" transform="matrix(1,0,0,1,3280,1137.5)" style="cursor: default;"><rect joint-selector="rect" id="v-3320" fill="#ffffff" rx="3" ry="3" x="-4.547473508864641e-13" y="0" width="0" height="0"  display="none"></rect><text joint-selector="text" id="v-3319" fill="#000000" font-size="14" text-anchor="middle" text-vertical-anchor="middle" pointer-events="none"></text></g></g></g><!--z-index:38--><g   id="j_310"  style="opacity: 1;"><path fill="none" cursor="pointer" stroke="transparent" stroke-linecap="round" joint-selector="wrapper" id="v-3334" stroke-width="10" stroke-linejoin="round" d="M 1519.03 1109 L 1702 1243 C 1707.3333333333333 1247.2666666666667 1713.3333333333333 1249.2666666666667 1720 1249 L 3280 1249 C 3286.666666666666 1249.2666666666667 3293.333333333333 1248.9333333333334 3300 1248 L 3460 1232.87"></path><path fill="none" pointer-events="none" joint-selector="line" id="v-3333" stroke="#444444" stroke-width="2" stroke-linejoin="round" stroke-dasharray="8 8" d="M 1519.03 1109 L 1702 1243 C 1707.3333333333333 1247.2666666666667 1713.3333333333333 1249.2666666666667 1720 1249 L 3280 1249 C 3286.666666666666 1249.2666666666667 3293.333333333333 1248.9333333333334 3300 1248 L 3460 1232.87" marker-end="url(#v-21252848929)"></path><g id="v-3326" ><g id="v-3327"  label-idx="0" cursor="move" transform="matrix(1,0,0,1,2499.93896484375,1249)" style="cursor: default;"><rect joint-selector="rect" id="v-3330" fill="#ffffff" rx="3" ry="3" x="-67.61627960205078" y="-31.38604736328125" width="135.23255920410156" height="58.56744384765625" pointer-events="none"  style="display: block;"></rect><text joint-selector="text" id="v-3329" font-size="24px" xml:space="preserve" fill="#444444" text-anchor="middle" pointer-events="none" font-family="Tahoma, Verdana, Helvetica, Arial" font-weight="normal"  style="display: block;"><tspan dy="-0.3em" >Uses domain</tspan><tspan dy="1.2em" x="0" >resources</tspan></text></g><g id="v-3328"  label-idx="1" cursor="move" transform="matrix(1,0,0,1,2489.93896484375,1275.4000244140625)" style="cursor: default;"><rect joint-selector="rect" id="v-3332" fill="#ffffff" rx="3" ry="3" x="0" y="-2.2737367544323206e-13" width="0" height="0"  display="none"></rect><text joint-selector="text" id="v-3331" fill="#000000" font-size="14" text-anchor="middle" text-vertical-anchor="middle" pointer-events="none"></text></g></g></g><!--z-index:39--><g   id="j_311"  style="opacity: 1;"><path fill="none" cursor="pointer" stroke="transparent" stroke-linecap="round" joint-selector="wrapper" id="v-3346" stroke-width="10" stroke-linejoin="round" d="M 2271.53 1120 L 2493 1319 C 2497.6666666666665 1323.5333333333333 2503.333333333333 1325.8666666666666 2510 1326 L 3280 1326 C 3286.666666666666 1325.8666666666666 3293.333333333333 1324.8666666666666 3300 1323 L 3460 1276.39"></path><path fill="none" pointer-events="none" joint-selector="line" id="v-3345" stroke="#444444" stroke-width="2" stroke-linejoin="round" stroke-dasharray="8 8" d="M 2271.53 1120 L 2493 1319 C 2497.6666666666665 1323.5333333333333 2503.333333333333 1325.8666666666666 2510 1326 L 3280 1326 C 3286.666666666666 1325.8666666666666 3293.333333333333 1324.8666666666666 3300 1323 L 3460 1276.39" marker-end="url(#v-21252848929)"></path><g id="v-3338" ><g id="v-3339"  label-idx="0" cursor="move" transform="matrix(1,0,0,1,2895.360107421875,1326)" style="cursor: default;"><rect joint-selector="rect" id="v-3342" fill="#ffffff" rx="3" ry="3" x="-96.78778839111328" y="-16.98604393005371" width="194.0220184326172" height="29.767440795898438" pointer-events="none"  style="display: block;"></rect><text joint-selector="text" id="v-3341" font-size="24px" xml:space="preserve" fill="#444444" text-anchor="middle" pointer-events="none" font-family="Tahoma, Verdana, Helvetica, Arial" font-weight="normal"  style="display: block;"><tspan dy="0.3em" >Uses domain rules</tspan></text></g><g id="v-3340"  label-idx="1" cursor="move" transform="matrix(1,0,0,1,2885.360107421875,1338)" style="cursor: default;"><rect joint-selector="rect" id="v-3344" fill="#ffffff" rx="3" ry="3" x="0" y="0" width="0" height="0"  display="none"></rect><text joint-selector="text" id="v-3343" fill="#000000" font-size="14" text-anchor="middle" text-vertical-anchor="middle" pointer-events="none"></text></g></g></g><!--z-index:40--><g   id="j_312"  style="opacity: 1;"><path fill="none" cursor="pointer" stroke="transparent" stroke-linecap="round" joint-selector="wrapper" id="v-3361" stroke-width="10" stroke-linejoin="round" d="M 3056.8 848 L 3283 639 C 3287.666666666666 634.1999999999999 3292.666666666666 629.8666666666666 3298 626 L 3480.55 492"></path><path fill="none" pointer-events="none" joint-selector="line" id="v-3360" stroke="#444444" stroke-width="2" stroke-linejoin="round" stroke-dasharray="8 8" d="M 3056.8 848 L 3283 639 C 3287.666666666666 634.1999999999999 3292.666666666666 629.8666666666666 3298 626 L 3480.55 492" marker-end="url(#v-21252848929)"></path><g id="v-3350" ><g id="v-3351"  label-idx="0" cursor="move" transform="matrix(1,0,0,1,3290.279296875,618.724609375)" style="cursor: default;"><rect joint-selector="rect" id="v-3355" fill="#ffffff" rx="3" ry="3" x="-96.20639038085938" y="-31.38604736328125" width="193.67320251464844" height="58.56744384765625" pointer-events="none"  style="display: block;"></rect><text joint-selector="text" id="v-3354" font-size="24px" xml:space="preserve" fill="#444444" text-anchor="middle" pointer-events="none" font-family="Tahoma, Verdana, Helvetica, Arial" font-weight="normal"  style="display: block;"><tspan dy="-0.3em" >Reads/Writes shift</tspan><tspan dy="1.2em" x="0" >data</tspan></text></g><g id="v-3352"  label-idx="1" cursor="move" transform="matrix(1,0,0,1,3290.279296875,663.5245971679688)" style="cursor: default;"><rect joint-selector="rect" id="v-3357" fill="#ffffff" rx="3" ry="3" x="-38.88081359863281" y="-11.704185485839844" width="78.74332427978516" height="20.46511459350586"  pointer-events="none" style="display: block;"></rect><text joint-selector="text" id="v-3356" font-size="16.799999999999997px" xml:space="preserve" fill="#444444" text-anchor="middle" pointer-events="none" font-family="Tahoma, Verdana, Helvetica, Arial" font-weight="normal"  style="display: block;"><tspan dy="0.3em" >[SQL/TCP]</tspan></text></g><g id="v-3353"  label-idx="2" cursor="move" transform="matrix(1,0,0,1,3250.360107421875,699.7183227539062)" style="cursor: default;"><rect joint-selector="rect" id="v-3359" fill="#ffffff" rx="3" ry="3" x="0" y="-1.1368683772161603e-13" width="0" height="0"  display="none"></rect><text joint-selector="text" id="v-3358" fill="#000000" font-size="14" text-anchor="middle" text-vertical-anchor="middle" pointer-events="none"></text></g></g></g><!--z-index:41--><g   id="j_313"  style="opacity: 1;"><path fill="none" cursor="pointer" stroke="transparent" stroke-linecap="round" joint-selector="wrapper" id="v-3373" stroke-width="10" stroke-linejoin="round" d="M 1540 823.77 L 1701 727 C 1707 723.3999999999999 1713.3333333333333 721.7333333333332 1720 722 L 4120 722 C 4126.666666666666 721.7333333333332 4133 723.0666666666666 4139 726 L 4300 801.82"></path><path fill="none" pointer-events="none" joint-selector="line" id="v-3372" stroke="#444444" stroke-width="2" stroke-linejoin="round" stroke-dasharray="8 8" d="M 1540 823.77 L 1701 727 C 1707 723.3999999999999 1713.3333333333333 721.7333333333332 1720 722 L 4120 722 C 4126.666666666666 721.7333333333332 4133 723.0666666666666 4139 726 L 4300 801.82" marker-end="url(#v-21252848929)"></path><g id="v-3365" ><g id="v-3366"  label-idx="0" cursor="move" transform="matrix(1,0,0,1,2895.16162109375,722)" style="cursor: default;"><rect joint-selector="rect" id="v-3369" fill="#ffffff" rx="3" ry="3" x="-86.25" y="-31.38604736328125" width="172.8373565673828" height="58.56744384765625" pointer-events="none"  style="display: block;"></rect><text joint-selector="text" id="v-3368" font-size="24px" xml:space="preserve" fill="#444444" text-anchor="middle" pointer-events="none" font-family="Tahoma, Verdana, Helvetica, Arial" font-weight="normal"  style="display: block;"><tspan dy="-0.3em" >Uses shared API</tspan><tspan dy="1.2em" x="0" >responses</tspan></text></g><g id="v-3367"  label-idx="1" cursor="move" transform="matrix(1,0,0,1,2885.16162109375,748.4000244140625)" style="cursor: default;"><rect joint-selector="rect" id="v-3371" fill="#ffffff" rx="3" ry="3" x="0" y="-1.1368683772161603e-13" width="0" height="0"  display="none"></rect><text joint-selector="text" id="v-3370" fill="#000000" font-size="14" text-anchor="middle" text-vertical-anchor="middle" pointer-events="none"></text></g></g></g><!--z-index:42--><g   id="j_314"  style="opacity: 1;"><path fill="none" cursor="pointer" stroke="transparent" stroke-linecap="round" joint-selector="wrapper" id="v-3385" stroke-width="10" stroke-linejoin="round" d="M 2330 872.03 L 2491 802 C 2497 799.3333333333333 2503.333333333333 798 2510 798 L 4120 798 C 4126.666666666666 798 4133.333333333333 799 4140 801 L 4300 845.34"></path><path fill="none" pointer-events="none" joint-selector="line" id="v-3384" stroke="#444444" stroke-width="2" stroke-linejoin="round" stroke-dasharray="8 8" d="M 2330 872.03 L 2491 802 C 2497 799.3333333333333 2503.333333333333 798 2510 798 L 4120 798 C 4126.666666666666 798 4133.333333333333 799 4140 801 L 4300 845.34" marker-end="url(#v-21252848929)"></path><g id="v-3377" ><g id="v-3378"  label-idx="0" cursor="move" transform="matrix(1,0,0,1,3290.0634765625,798)" style="cursor: default;"><rect joint-selector="rect" id="v-3381" fill="#ffffff" rx="3" ry="3" x="-64.2151107788086" y="-31.38604736328125" width="128.4302215576172" height="58.56744384765625" pointer-events="none"  style="display: block;"></rect><text joint-selector="text" id="v-3380" font-size="24px" xml:space="preserve" fill="#444444" text-anchor="middle" pointer-events="none" font-family="Tahoma, Verdana, Helvetica, Arial" font-weight="normal"  style="display: block;"><tspan dy="-0.3em" >Uses shared</tspan><tspan dy="1.2em" x="0" >behaviors</tspan></text></g><g id="v-3379"  label-idx="1" cursor="move" transform="matrix(1,0,0,1,3280.0634765625,824.4000244140625)" style="cursor: default;"><rect joint-selector="rect" id="v-3383" fill="#ffffff" rx="3" ry="3" x="4.547473508864641e-13" y="-1.1368683772161603e-13" width="0" height="0"  display="none"></rect><text joint-selector="text" id="v-3382" fill="#000000" font-size="14" text-anchor="middle" text-vertical-anchor="middle" pointer-events="none"></text></g></g></g><!--z-index:43--><g   id="j_315"  style="opacity: 1;"><path fill="none" cursor="pointer" stroke="transparent" stroke-linecap="round" joint-selector="wrapper" id="v-3397" stroke-width="10" stroke-linejoin="round" d="M 3120 976.24 L 3280 961 C 3286.666666666666 960.1999999999998 3293.333333333333 959.8666666666666 3300 960 L 4120 960 C 4126.666666666666 959.8666666666666 4133.333333333333 959.1999999999998 4140 958 L 4300 937.51"></path><path fill="none" pointer-events="none" joint-selector="line" id="v-3396" stroke="#444444" stroke-width="2" stroke-linejoin="round" stroke-dasharray="8 8" d="M 3120 976.24 L 3280 961 C 3286.666666666666 960.1999999999998 3293.333333333333 959.8666666666666 3300 960 L 4120 960 C 4126.666666666666 959.8666666666666 4133.333333333333 959.1999999999998 4140 958 L 4300 937.51" marker-end="url(#v-21252848929)"></path><g id="v-3389" ><g id="v-3390"  label-idx="0" cursor="move" transform="matrix(1,0,0,1,3685.00634765625,960)" style="cursor: default;"><rect joint-selector="rect" id="v-3393" fill="#ffffff" rx="3" ry="3" x="-91.20639038085938" y="-31.38604736328125" width="182.82781982421875" height="58.56744384765625" pointer-events="none"  style="display: block;"></rect><text joint-selector="text" id="v-3392" font-size="24px" xml:space="preserve" fill="#444444" text-anchor="middle" pointer-events="none" font-family="Tahoma, Verdana, Helvetica, Arial" font-weight="normal"  style="display: block;"><tspan dy="-0.3em" >Uses shared data</tspan><tspan dy="1.2em" x="0" >access</tspan></text></g><g id="v-3391"  label-idx="1" cursor="move" transform="matrix(1,0,0,1,3675.00634765625,986.4000244140625)" style="cursor: default;"><rect joint-selector="rect" id="v-3395" fill="#ffffff" rx="3" ry="3" x="0" y="0" width="0" height="0"  display="none"></rect><text joint-selector="text" id="v-3394" fill="#000000" font-size="14" text-anchor="middle" text-vertical-anchor="middle" pointer-events="none"></text></g></g></g><!--z-index:44--><g   id="j_316"  style="opacity: 1;"><path fill="none" cursor="pointer" stroke="transparent" stroke-linecap="round" joint-selector="wrapper" id="v-3409" stroke-width="10" stroke-linejoin="round" d="M 3910 1211.1 L 4120 1211 C 4126.666666666666 1211.1333333333332 4132.666666666666 1209.1333333333332 4138 1205 L 4329.58 1058"></path><path fill="none" pointer-events="none" joint-selector="line" id="v-3408" stroke="#444444" stroke-width="2" stroke-linejoin="round" stroke-dasharray="8 8" d="M 3910 1211.1 L 4120 1211 C 4126.666666666666 1211.1333333333332 4132.666666666666 1209.1333333333332 4138 1205 L 4329.58 1058" marker-end="url(#v-21252848929)"></path><g id="v-3401" ><g id="v-3402"  label-idx="0" cursor="move" transform="matrix(1,0,0,1,4129.60546875,1209.5645751953125)" style="cursor: default;"><rect joint-selector="rect" id="v-3405" fill="#ffffff" rx="3" ry="3" x="-70.90116119384766" y="-31.38604736328125" width="142.22518920898438" height="58.56744384765625" pointer-events="none"  style="display: block;"></rect><text joint-selector="text" id="v-3404" font-size="24px" xml:space="preserve" fill="#444444" text-anchor="middle" pointer-events="none" font-family="Tahoma, Verdana, Helvetica, Arial" font-weight="normal"  style="display: block;"><tspan dy="-0.3em" >Uses shared</tspan><tspan dy="1.2em" x="0" >domain types</tspan></text></g><g id="v-3403"  label-idx="1" cursor="move" transform="matrix(1,0,0,1,4119.60546875,1235.964599609375)" style="cursor: default;"><rect joint-selector="rect" id="v-3407" fill="#ffffff" rx="3" ry="3" x="0" y="0" width="0" height="0"  display="none"></rect><text joint-selector="text" id="v-3406" fill="#000000" font-size="14" text-anchor="middle" text-vertical-anchor="middle" pointer-events="none"></text></g></g></g><!--z-index:45--><!--z-index:46--><!--z-index:47--><!--z-index:48--><!--z-index:49--><!--z-index:50--><!--z-index:51--><!--z-index:52--><!--z-index:53--><!--z-index:54--><!--z-index:55--><!--z-index:56--><!--z-index:57--><!--z-index:58--><!--z-index:59--><!--z-index:60--><!--z-index:61--><!--z-index:62--><!--z-index:63--><!--z-index:64--><!--z-index:65--><!--z-index:66--><!--z-index:67--><!--z-index:68--><!--z-index:69--><!--z-index:70--><!--z-index:71--><!--z-index:72--><!--z-index:73--><!--z-index:74--><!--z-index:75--><!--z-index:76--><!--z-index:77--><!--z-index:78--><!--z-index:79--><!--z-index:80--><!--z-index:81--><!--z-index:82--><!--z-index:83--><!--z-index:84--><!--z-index:85--><!--z-index:86--><!--z-index:87--><!--z-index:88--><!--z-index:89--><!--z-index:90--><!--z-index:91--></g><g  style="user-select: none;"></g><g ></g><g  display="none"></g></g></svg>