<?xml version="1.0" encoding="us-ascii" standalone="no"?><svg xmlns="http://www.w3.org/2000/svg" xmlns:xlink="http://www.w3.org/1999/xlink" contentStyleType="text/css" height="979px" preserveAspectRatio="none" style="width:1328px;height:979px;background:#FFFFFF;" version="1.1" viewBox="0 0 1328 979" width="1328px" zoomAndPan="magnify"><defs/><g><!--cluster shared--><g id="cluster_shared"><rect fill="none" height="631.5" rx="2.5" ry="2.5" style="stroke:#000000;stroke-width:1.5;" width="811" x="7" y="7"/><text fill="#000000" font-family="sans-serif" font-size="14" font-weight="bold" lengthAdjust="spacing" textLength="177" x="324" y="23.5332">Shared Bounded Context</text></g><!--cluster shared_infrastructure--><g id="cluster_shared_infrastructure"><rect fill="none" height="111" rx="2.5" ry="2.5" style="stroke:#000000;stroke-width:1.5;" width="332" x="462" y="95"/><text fill="#000000" font-family="sans-serif" font-size="14" font-weight="bold" lengthAdjust="spacing" textLength="97" x="579.5" y="111.5332">Infrastructure</text></g><!--cluster shared_presentation--><g id="cluster_shared_presentation"><rect fill="none" height="563.5" rx="2.5" ry="2.5" style="stroke:#000000;stroke-width:1.5;" width="407" x="31" y="51"/><text fill="#000000" font-family="sans-serif" font-size="14" font-weight="bold" lengthAdjust="spacing" textLength="90" x="189.5" y="67.5332">Presentation</text></g><!--cluster shared_components--><g id="cluster_shared_components"><rect fill="none" height="495.5" rx="2.5" ry="2.5" style="stroke:#000000;stroke-width:1.5;" width="359" x="55" y="95"/><text fill="#000000" font-family="sans-serif" font-size="14" font-weight="bold" lengthAdjust="spacing" textLength="89" x="190" y="111.5332">Components</text></g><!--cluster audit--><g id="cluster_audit"><rect fill="none" height="743.5" rx="2.5" ry="2.5" style="stroke:#000000;stroke-width:1.5;" width="480" x="842" y="230"/><text fill="#000000" font-family="sans-serif" font-size="14" font-weight="bold" lengthAdjust="spacing" textLength="249" x="957.5" y="246.5332">Audit Compliance Bounded Context</text></g><!--cluster audit_domain--><g id="cluster_audit_domain"><rect fill="none" height="287" rx="2.5" ry="2.5" style="stroke:#000000;stroke-width:1.5;" width="204" x="866" y="662.5"/><text fill="#000000" font-family="sans-serif" font-size="14" font-weight="bold" lengthAdjust="spacing" textLength="52" x="942" y="679.0332">Domain</text></g><!--cluster audit_infrastructure--><g id="cluster_audit_infrastructure"><rect fill="none" height="118" rx="2.5" ry="2.5" style="stroke:#000000;stroke-width:1.5;" width="200" x="1098" y="747"/><text fill="#000000" font-family="sans-serif" font-size="14" font-weight="bold" lengthAdjust="spacing" textLength="97" x="1149.5" y="763.5332">Infrastructure</text></g><!--cluster audit_application--><g id="cluster_audit_application"><rect fill="none" height="146" rx="2.5" ry="2.5" style="stroke:#000000;stroke-width:1.5;" width="174" x="964" y="462"/><text fill="#000000" font-family="sans-serif" font-size="14" font-weight="bold" lengthAdjust="spacing" textLength="78" x="1012" y="478.5332">Application</text></g><!--cluster audit_presentation--><g id="cluster_audit_presentation"><rect fill="none" height="164" rx="2.5" ry="2.5" style="stroke:#000000;stroke-width:1.5;" width="356" x="866" y="274"/><text fill="#000000" font-family="sans-serif" font-size="14" font-weight="bold" lengthAdjust="spacing" textLength="90" x="999" y="290.5332">Presentation</text></g><!--class BaseEndpoint--><g id="elem_BaseEndpoint"><rect codeLine="8" fill="#F1F1F1" height="48" id="BaseEndpoint" rx="2.5" ry="2.5" style="stroke:#181818;stroke-width:0.5;" width="120" x="658" y="136.5"/><ellipse cx="673" cy="152.5" fill="#ADD1B2" rx="11" ry="11" style="stroke:#181818;stroke-width:1.0;"/><path d="M675.7656,148.375 Q675.9219,148.1563 676.1094,148.0469 Q676.2969,147.9375 676.5156,147.9375 Q676.8906,147.9375 677.125,148.2031 Q677.3594,148.4531 677.3594,149.0625 L677.3594,150.5156 Q677.3594,151.125 677.125,151.3906 Q676.8906,151.6563 676.5156,151.6563 Q676.1719,151.6563 675.9688,151.4531 Q675.7656,151.2656 675.6563,150.75 Q675.6094,150.3906 675.4219,150.2031 Q675.0938,149.8281 674.4844,149.6094 Q673.875,149.3906 673.25,149.3906 Q672.4844,149.3906 671.8438,149.7188 Q671.2188,150.0469 670.7188,150.7969 Q670.2344,151.5469 670.2344,152.5781 L670.2344,153.6719 Q670.2344,154.9063 671.125,155.7344 Q672.0156,156.5469 673.6094,156.5469 Q674.5469,156.5469 675.2031,156.2969 Q675.5938,156.1406 676.0156,155.7031 Q676.2813,155.4375 676.4219,155.3594 Q676.5781,155.2813 676.7813,155.2813 Q677.1094,155.2813 677.3594,155.5469 Q677.625,155.7969 677.625,156.1406 Q677.625,156.4844 677.2813,156.8906 Q676.7813,157.4688 675.9844,157.7969 Q674.9063,158.25 673.6094,158.25 Q672.0938,158.25 670.8906,157.625 Q669.9063,157.125 669.2188,156.0625 Q668.5313,154.9844 668.5313,153.7031 L668.5313,152.5469 Q668.5313,151.2188 669.1406,150.0781 Q669.7656,148.9219 670.8594,148.3125 Q671.9531,147.6875 673.1875,147.6875 Q673.9219,147.6875 674.5625,147.8594 Q675.2188,148.0156 675.7656,148.375 Z " fill="#000000"/><text fill="#000000" font-family="sans-serif" font-size="14" lengthAdjust="spacing" textLength="88" x="687" y="158.2285">BaseEndpoint</text><line style="stroke:#181818;stroke-width:0.5;" x1="659" x2="777" y1="168.5" y2="168.5"/><line style="stroke:#181818;stroke-width:0.5;" x1="659" x2="777" y1="176.5" y2="176.5"/></g><!--class Http--><g id="elem_Http"><rect codeLine="10" fill="#F1F1F1" height="58.7031" id="Http" rx="2.5" ry="2.5" style="stroke:#181818;stroke-width:0.5;" width="119" x="478.5" y="131"/><ellipse cx="493.5" cy="152.3516" fill="#ADD1B2" rx="11" ry="11" style="stroke:#181818;stroke-width:1.0;"/><path d="M496.2656,148.2266 Q496.4219,148.0078 496.6094,147.8984 Q496.7969,147.7891 497.0156,147.7891 Q497.3906,147.7891 497.625,148.0547 Q497.8594,148.3047 497.8594,148.9141 L497.8594,150.3672 Q497.8594,150.9766 497.625,151.2422 Q497.3906,151.5078 497.0156,151.5078 Q496.6719,151.5078 496.4688,151.3047 Q496.2656,151.1172 496.1563,150.6016 Q496.1094,150.2422 495.9219,150.0547 Q495.5938,149.6797 494.9844,149.4609 Q494.375,149.2422 493.75,149.2422 Q492.9844,149.2422 492.3438,149.5703 Q491.7188,149.8984 491.2188,150.6484 Q490.7344,151.3984 490.7344,152.4297 L490.7344,153.5234 Q490.7344,154.7578 491.625,155.5859 Q492.5156,156.3984 494.1094,156.3984 Q495.0469,156.3984 495.7031,156.1484 Q496.0938,155.9922 496.5156,155.5547 Q496.7813,155.2891 496.9219,155.2109 Q497.0781,155.1328 497.2813,155.1328 Q497.6094,155.1328 497.8594,155.3984 Q498.125,155.6484 498.125,155.9922 Q498.125,156.3359 497.7813,156.7422 Q497.2813,157.3203 496.4844,157.6484 Q495.4063,158.1016 494.1094,158.1016 Q492.5938,158.1016 491.3906,157.4766 Q490.4063,156.9766 489.7188,155.9141 Q489.0313,154.8359 489.0313,153.5547 L489.0313,152.3984 Q489.0313,151.0703 489.6406,149.9297 Q490.2656,148.7734 491.3594,148.1641 Q492.4531,147.5391 493.6875,147.5391 Q494.4219,147.5391 495.0625,147.7109 Q495.7188,147.8672 496.2656,148.2266 Z " fill="#000000"/><text fill="#000000" font-family="sans-serif" font-size="12" font-style="italic" lengthAdjust="spacing" textLength="91" x="505.5" y="148.457">&#171;AxiosInstance&#187;</text><text fill="#000000" font-family="sans-serif" font-size="14" lengthAdjust="spacing" textLength="25" x="538.5" y="165.627">Http</text><line style="stroke:#181818;stroke-width:0.5;" x1="479.5" x2="596.5" y1="173.7031" y2="173.7031"/><line style="stroke:#181818;stroke-width:0.5;" x1="479.5" x2="596.5" y1="181.7031" y2="181.7031"/></g><!--class AppLayout--><g id="elem_AppLayout"><rect codeLine="16" fill="#F1F1F1" height="58.7031" id="AppLayout" rx="2.5" ry="2.5" style="stroke:#181818;stroke-width:0.5;" width="104" x="292" y="131"/><ellipse cx="307" cy="152.3516" fill="#ADD1B2" rx="11" ry="11" style="stroke:#181818;stroke-width:1.0;"/><path d="M309.7656,148.2266 Q309.9219,148.0078 310.1094,147.8984 Q310.2969,147.7891 310.5156,147.7891 Q310.8906,147.7891 311.125,148.0547 Q311.3594,148.3047 311.3594,148.9141 L311.3594,150.3672 Q311.3594,150.9766 311.125,151.2422 Q310.8906,151.5078 310.5156,151.5078 Q310.1719,151.5078 309.9688,151.3047 Q309.7656,151.1172 309.6563,150.6016 Q309.6094,150.2422 309.4219,150.0547 Q309.0938,149.6797 308.4844,149.4609 Q307.875,149.2422 307.25,149.2422 Q306.4844,149.2422 305.8438,149.5703 Q305.2188,149.8984 304.7188,150.6484 Q304.2344,151.3984 304.2344,152.4297 L304.2344,153.5234 Q304.2344,154.7578 305.125,155.5859 Q306.0156,156.3984 307.6094,156.3984 Q308.5469,156.3984 309.2031,156.1484 Q309.5938,155.9922 310.0156,155.5547 Q310.2813,155.2891 310.4219,155.2109 Q310.5781,155.1328 310.7813,155.1328 Q311.1094,155.1328 311.3594,155.3984 Q311.625,155.6484 311.625,155.9922 Q311.625,156.3359 311.2813,156.7422 Q310.7813,157.3203 309.9844,157.6484 Q308.9063,158.1016 307.6094,158.1016 Q306.0938,158.1016 304.8906,157.4766 Q303.9063,156.9766 303.2188,155.9141 Q302.5313,154.8359 302.5313,153.5547 L302.5313,152.3984 Q302.5313,151.0703 303.1406,149.9297 Q303.7656,148.7734 304.8594,148.1641 Q305.9531,147.5391 307.1875,147.5391 Q307.9219,147.5391 308.5625,147.7109 Q309.2188,147.8672 309.7656,148.2266 Z " fill="#000000"/><text fill="#000000" font-family="sans-serif" font-size="12" font-style="italic" lengthAdjust="spacing" textLength="76" x="319" y="148.457">&#171;component&#187;</text><text fill="#000000" font-family="sans-serif" font-size="14" lengthAdjust="spacing" textLength="68" x="323" y="165.627">AppLayout</text><line style="stroke:#181818;stroke-width:0.5;" x1="293" x2="395" y1="173.7031" y2="173.7031"/><line style="stroke:#181818;stroke-width:0.5;" x1="293" x2="395" y1="181.7031" y2="181.7031"/></g><!--class AuthLayout--><g id="elem_AuthLayout"><rect codeLine="17" fill="#F1F1F1" height="58.7031" id="AuthLayout" rx="2.5" ry="2.5" style="stroke:#181818;stroke-width:0.5;" width="104" x="102" y="131"/><ellipse cx="117" cy="152.3516" fill="#ADD1B2" rx="11" ry="11" style="stroke:#181818;stroke-width:1.0;"/><path d="M119.7656,148.2266 Q119.9219,148.0078 120.1094,147.8984 Q120.2969,147.7891 120.5156,147.7891 Q120.8906,147.7891 121.125,148.0547 Q121.3594,148.3047 121.3594,148.9141 L121.3594,150.3672 Q121.3594,150.9766 121.125,151.2422 Q120.8906,151.5078 120.5156,151.5078 Q120.1719,151.5078 119.9688,151.3047 Q119.7656,151.1172 119.6563,150.6016 Q119.6094,150.2422 119.4219,150.0547 Q119.0938,149.6797 118.4844,149.4609 Q117.875,149.2422 117.25,149.2422 Q116.4844,149.2422 115.8438,149.5703 Q115.2188,149.8984 114.7188,150.6484 Q114.2344,151.3984 114.2344,152.4297 L114.2344,153.5234 Q114.2344,154.7578 115.125,155.5859 Q116.0156,156.3984 117.6094,156.3984 Q118.5469,156.3984 119.2031,156.1484 Q119.5938,155.9922 120.0156,155.5547 Q120.2813,155.2891 120.4219,155.2109 Q120.5781,155.1328 120.7813,155.1328 Q121.1094,155.1328 121.3594,155.3984 Q121.625,155.6484 121.625,155.9922 Q121.625,156.3359 121.2813,156.7422 Q120.7813,157.3203 119.9844,157.6484 Q118.9063,158.1016 117.6094,158.1016 Q116.0938,158.1016 114.8906,157.4766 Q113.9063,156.9766 113.2188,155.9141 Q112.5313,154.8359 112.5313,153.5547 L112.5313,152.3984 Q112.5313,151.0703 113.1406,149.9297 Q113.7656,148.7734 114.8594,148.1641 Q115.9531,147.5391 117.1875,147.5391 Q117.9219,147.5391 118.5625,147.7109 Q119.2188,147.8672 119.7656,148.2266 Z " fill="#000000"/><text fill="#000000" font-family="sans-serif" font-size="12" font-style="italic" lengthAdjust="spacing" textLength="76" x="129" y="148.457">&#171;component&#187;</text><text fill="#000000" font-family="sans-serif" font-size="14" lengthAdjust="spacing" textLength="72" x="131" y="165.627">AuthLayout</text><line style="stroke:#181818;stroke-width:0.5;" x1="103" x2="205" y1="173.7031" y2="173.7031"/><line style="stroke:#181818;stroke-width:0.5;" x1="103" x2="205" y1="181.7031" y2="181.7031"/></g><!--class AppSidebar--><g id="elem_AppSidebar"><rect codeLine="18" fill="#F1F1F1" height="58.7031" id="AppSidebar" rx="2.5" ry="2.5" style="stroke:#181818;stroke-width:0.5;" width="106" x="124" y="336.5"/><ellipse cx="139" cy="357.8516" fill="#ADD1B2" rx="11" ry="11" style="stroke:#181818;stroke-width:1.0;"/><path d="M141.7656,353.7266 Q141.9219,353.5078 142.1094,353.3984 Q142.2969,353.2891 142.5156,353.2891 Q142.8906,353.2891 143.125,353.5547 Q143.3594,353.8047 143.3594,354.4141 L143.3594,355.8672 Q143.3594,356.4766 143.125,356.7422 Q142.8906,357.0078 142.5156,357.0078 Q142.1719,357.0078 141.9688,356.8047 Q141.7656,356.6172 141.6563,356.1016 Q141.6094,355.7422 141.4219,355.5547 Q141.0938,355.1797 140.4844,354.9609 Q139.875,354.7422 139.25,354.7422 Q138.4844,354.7422 137.8438,355.0703 Q137.2188,355.3984 136.7188,356.1484 Q136.2344,356.8984 136.2344,357.9297 L136.2344,359.0234 Q136.2344,360.2578 137.125,361.0859 Q138.0156,361.8984 139.6094,361.8984 Q140.5469,361.8984 141.2031,361.6484 Q141.5938,361.4922 142.0156,361.0547 Q142.2813,360.7891 142.4219,360.7109 Q142.5781,360.6328 142.7813,360.6328 Q143.1094,360.6328 143.3594,360.8984 Q143.625,361.1484 143.625,361.4922 Q143.625,361.8359 143.2813,362.2422 Q142.7813,362.8203 141.9844,363.1484 Q140.9063,363.6016 139.6094,363.6016 Q138.0938,363.6016 136.8906,362.9766 Q135.9063,362.4766 135.2188,361.4141 Q134.5313,360.3359 134.5313,359.0547 L134.5313,357.8984 Q134.5313,356.5703 135.1406,355.4297 Q135.7656,354.2734 136.8594,353.6641 Q137.9531,353.0391 139.1875,353.0391 Q139.9219,353.0391 140.5625,353.2109 Q141.2188,353.3672 141.7656,353.7266 Z " fill="#000000"/><text fill="#000000" font-family="sans-serif" font-size="12" font-style="italic" lengthAdjust="spacing" textLength="76" x="152" y="353.957">&#171;component&#187;</text><text fill="#000000" font-family="sans-serif" font-size="14" lengthAdjust="spacing" textLength="74" x="153" y="371.127">AppSidebar</text><line style="stroke:#181818;stroke-width:0.5;" x1="125" x2="229" y1="379.2031" y2="379.2031"/><line style="stroke:#181818;stroke-width:0.5;" x1="125" x2="229" y1="387.2031" y2="387.2031"/></g><!--class AppTopbar--><g id="elem_AppTopbar"><rect codeLine="19" fill="#F1F1F1" height="58.7031" id="AppTopbar" rx="2.5" ry="2.5" style="stroke:#181818;stroke-width:0.5;" width="104" x="290" y="336.5"/><ellipse cx="305" cy="357.8516" fill="#ADD1B2" rx="11" ry="11" style="stroke:#181818;stroke-width:1.0;"/><path d="M307.7656,353.7266 Q307.9219,353.5078 308.1094,353.3984 Q308.2969,353.2891 308.5156,353.2891 Q308.8906,353.2891 309.125,353.5547 Q309.3594,353.8047 309.3594,354.4141 L309.3594,355.8672 Q309.3594,356.4766 309.125,356.7422 Q308.8906,357.0078 308.5156,357.0078 Q308.1719,357.0078 307.9688,356.8047 Q307.7656,356.6172 307.6563,356.1016 Q307.6094,355.7422 307.4219,355.5547 Q307.0938,355.1797 306.4844,354.9609 Q305.875,354.7422 305.25,354.7422 Q304.4844,354.7422 303.8438,355.0703 Q303.2188,355.3984 302.7188,356.1484 Q302.2344,356.8984 302.2344,357.9297 L302.2344,359.0234 Q302.2344,360.2578 303.125,361.0859 Q304.0156,361.8984 305.6094,361.8984 Q306.5469,361.8984 307.2031,361.6484 Q307.5938,361.4922 308.0156,361.0547 Q308.2813,360.7891 308.4219,360.7109 Q308.5781,360.6328 308.7813,360.6328 Q309.1094,360.6328 309.3594,360.8984 Q309.625,361.1484 309.625,361.4922 Q309.625,361.8359 309.2813,362.2422 Q308.7813,362.8203 307.9844,363.1484 Q306.9063,363.6016 305.6094,363.6016 Q304.0938,363.6016 302.8906,362.9766 Q301.9063,362.4766 301.2188,361.4141 Q300.5313,360.3359 300.5313,359.0547 L300.5313,357.8984 Q300.5313,356.5703 301.1406,355.4297 Q301.7656,354.2734 302.8594,353.6641 Q303.9531,353.0391 305.1875,353.0391 Q305.9219,353.0391 306.5625,353.2109 Q307.2188,353.3672 307.7656,353.7266 Z " fill="#000000"/><text fill="#000000" font-family="sans-serif" font-size="12" font-style="italic" lengthAdjust="spacing" textLength="76" x="317" y="353.957">&#171;component&#187;</text><text fill="#000000" font-family="sans-serif" font-size="14" lengthAdjust="spacing" textLength="71" x="319.5" y="371.127">AppTopbar</text><line style="stroke:#181818;stroke-width:0.5;" x1="291" x2="393" y1="379.2031" y2="379.2031"/><line style="stroke:#181818;stroke-width:0.5;" x1="291" x2="393" y1="387.2031" y2="387.2031"/></g><!--class LanguageSwitcher--><g id="elem_LanguageSwitcher"><rect codeLine="20" fill="#F1F1F1" height="58.7031" id="LanguageSwitcher" rx="2.5" ry="2.5" style="stroke:#181818;stroke-width:0.5;" width="149" x="71.5" y="515.5"/><ellipse cx="86.5" cy="536.8516" fill="#ADD1B2" rx="11" ry="11" style="stroke:#181818;stroke-width:1.0;"/><path d="M89.2656,532.7266 Q89.4219,532.5078 89.6094,532.3984 Q89.7969,532.2891 90.0156,532.2891 Q90.3906,532.2891 90.625,532.5547 Q90.8594,532.8047 90.8594,533.4141 L90.8594,534.8672 Q90.8594,535.4766 90.625,535.7422 Q90.3906,536.0078 90.0156,536.0078 Q89.6719,536.0078 89.4688,535.8047 Q89.2656,535.6172 89.1563,535.1016 Q89.1094,534.7422 88.9219,534.5547 Q88.5938,534.1797 87.9844,533.9609 Q87.375,533.7422 86.75,533.7422 Q85.9844,533.7422 85.3438,534.0703 Q84.7188,534.3984 84.2188,535.1484 Q83.7344,535.8984 83.7344,536.9297 L83.7344,538.0234 Q83.7344,539.2578 84.625,540.0859 Q85.5156,540.8984 87.1094,540.8984 Q88.0469,540.8984 88.7031,540.6484 Q89.0938,540.4922 89.5156,540.0547 Q89.7813,539.7891 89.9219,539.7109 Q90.0781,539.6328 90.2813,539.6328 Q90.6094,539.6328 90.8594,539.8984 Q91.125,540.1484 91.125,540.4922 Q91.125,540.8359 90.7813,541.2422 Q90.2813,541.8203 89.4844,542.1484 Q88.4063,542.6016 87.1094,542.6016 Q85.5938,542.6016 84.3906,541.9766 Q83.4063,541.4766 82.7188,540.4141 Q82.0313,539.3359 82.0313,538.0547 L82.0313,536.8984 Q82.0313,535.5703 82.6406,534.4297 Q83.2656,533.2734 84.3594,532.6641 Q85.4531,532.0391 86.6875,532.0391 Q87.4219,532.0391 88.0625,532.2109 Q88.7188,532.3672 89.2656,532.7266 Z " fill="#000000"/><text fill="#000000" font-family="sans-serif" font-size="12" font-style="italic" lengthAdjust="spacing" textLength="76" x="121" y="532.957">&#171;component&#187;</text><text fill="#000000" font-family="sans-serif" font-size="14" lengthAdjust="spacing" textLength="117" x="100.5" y="550.127">LanguageSwitcher</text><line style="stroke:#181818;stroke-width:0.5;" x1="72.5" x2="219.5" y1="558.2031" y2="558.2031"/><line style="stroke:#181818;stroke-width:0.5;" x1="72.5" x2="219.5" y1="566.2031" y2="566.2031"/></g><!--class LogoutButton--><g id="elem_LogoutButton"><rect codeLine="21" fill="#F1F1F1" height="58.7031" id="LogoutButton" rx="2.5" ry="2.5" style="stroke:#181818;stroke-width:0.5;" width="117" x="280.5" y="515.5"/><ellipse cx="295.5" cy="536.8516" fill="#ADD1B2" rx="11" ry="11" style="stroke:#181818;stroke-width:1.0;"/><path d="M298.2656,532.7266 Q298.4219,532.5078 298.6094,532.3984 Q298.7969,532.2891 299.0156,532.2891 Q299.3906,532.2891 299.625,532.5547 Q299.8594,532.8047 299.8594,533.4141 L299.8594,534.8672 Q299.8594,535.4766 299.625,535.7422 Q299.3906,536.0078 299.0156,536.0078 Q298.6719,536.0078 298.4688,535.8047 Q298.2656,535.6172 298.1563,535.1016 Q298.1094,534.7422 297.9219,534.5547 Q297.5938,534.1797 296.9844,533.9609 Q296.375,533.7422 295.75,533.7422 Q294.9844,533.7422 294.3438,534.0703 Q293.7188,534.3984 293.2188,535.1484 Q292.7344,535.8984 292.7344,536.9297 L292.7344,538.0234 Q292.7344,539.2578 293.625,540.0859 Q294.5156,540.8984 296.1094,540.8984 Q297.0469,540.8984 297.7031,540.6484 Q298.0938,540.4922 298.5156,540.0547 Q298.7813,539.7891 298.9219,539.7109 Q299.0781,539.6328 299.2813,539.6328 Q299.6094,539.6328 299.8594,539.8984 Q300.125,540.1484 300.125,540.4922 Q300.125,540.8359 299.7813,541.2422 Q299.2813,541.8203 298.4844,542.1484 Q297.4063,542.6016 296.1094,542.6016 Q294.5938,542.6016 293.3906,541.9766 Q292.4063,541.4766 291.7188,540.4141 Q291.0313,539.3359 291.0313,538.0547 L291.0313,536.8984 Q291.0313,535.5703 291.6406,534.4297 Q292.2656,533.2734 293.3594,532.6641 Q294.4531,532.0391 295.6875,532.0391 Q296.4219,532.0391 297.0625,532.2109 Q297.7188,532.3672 298.2656,532.7266 Z " fill="#000000"/><text fill="#000000" font-family="sans-serif" font-size="12" font-style="italic" lengthAdjust="spacing" textLength="76" x="314" y="532.957">&#171;component&#187;</text><text fill="#000000" font-family="sans-serif" font-size="14" lengthAdjust="spacing" textLength="85" x="309.5" y="550.127">LogoutButton</text><line style="stroke:#181818;stroke-width:0.5;" x1="281.5" x2="396.5" y1="558.2031" y2="558.2031"/><line style="stroke:#181818;stroke-width:0.5;" x1="281.5" x2="396.5" y1="566.2031" y2="566.2031"/></g><!--class AuditLog--><g id="elem_AuditLog"><rect codeLine="34" fill="#F1F1F1" height="234.7969" id="AuditLog" rx="2.5" ry="2.5" style="stroke:#181818;stroke-width:0.5;" width="171" x="882.5" y="698.5"/><ellipse cx="935.75" cy="719.8516" fill="#ADD1B2" rx="11" ry="11" style="stroke:#181818;stroke-width:1.0;"/><path d="M938.5156,715.7266 Q938.6719,715.5078 938.8594,715.3984 Q939.0469,715.2891 939.2656,715.2891 Q939.6406,715.2891 939.875,715.5547 Q940.1094,715.8047 940.1094,716.4141 L940.1094,717.8672 Q940.1094,718.4766 939.875,718.7422 Q939.6406,719.0078 939.2656,719.0078 Q938.9219,719.0078 938.7188,718.8047 Q938.5156,718.6172 938.4063,718.1016 Q938.3594,717.7422 938.1719,717.5547 Q937.8438,717.1797 937.2344,716.9609 Q936.625,716.7422 936,716.7422 Q935.2344,716.7422 934.5938,717.0703 Q933.9688,717.3984 933.4688,718.1484 Q932.9844,718.8984 932.9844,719.9297 L932.9844,721.0234 Q932.9844,722.2578 933.875,723.0859 Q934.7656,723.8984 936.3594,723.8984 Q937.2969,723.8984 937.9531,723.6484 Q938.3438,723.4922 938.7656,723.0547 Q939.0313,722.7891 939.1719,722.7109 Q939.3281,722.6328 939.5313,722.6328 Q939.8594,722.6328 940.1094,722.8984 Q940.375,723.1484 940.375,723.4922 Q940.375,723.8359 940.0313,724.2422 Q939.5313,724.8203 938.7344,725.1484 Q937.6563,725.6016 936.3594,725.6016 Q934.8438,725.6016 933.6406,724.9766 Q932.6563,724.4766 931.9688,723.4141 Q931.2813,722.3359 931.2813,721.0547 L931.2813,719.8984 Q931.2813,718.5703 931.8906,717.4297 Q932.5156,716.2734 933.6094,715.6641 Q934.7031,715.0391 935.9375,715.0391 Q936.6719,715.0391 937.3125,715.2109 Q937.9688,715.3672 938.5156,715.7266 Z " fill="#000000"/><text fill="#000000" font-family="sans-serif" font-size="12" font-style="italic" lengthAdjust="spacing" textLength="43" x="962.75" y="715.957">&#171;entity&#187;</text><text fill="#000000" font-family="sans-serif" font-size="14" lengthAdjust="spacing" textLength="56" x="956.25" y="733.127">AuditLog</text><line style="stroke:#181818;stroke-width:0.5;" x1="883.5" x2="1052.5" y1="741.2031" y2="741.2031"/><rect fill="none" height="6" style="stroke:#C82930;stroke-width:1.0;" width="6" x="890.5" y="752.5078"/><text fill="#000000" font-family="sans-serif" font-size="14" lengthAdjust="spacing" textLength="68" x="902.5" y="759.7363">id: Number</text><rect fill="none" height="6" style="stroke:#C82930;stroke-width:1.0;" width="6" x="890.5" y="770.1172"/><text fill="#000000" font-family="sans-serif" font-size="14" lengthAdjust="spacing" textLength="145" x="902.5" y="777.3457">organizationId: Number</text><rect fill="none" height="6" style="stroke:#C82930;stroke-width:1.0;" width="6" x="890.5" y="787.7266"/><text fill="#000000" font-family="sans-serif" font-size="14" lengthAdjust="spacing" textLength="129" x="902.5" y="794.9551">actorUserId: Number</text><rect fill="none" height="6" style="stroke:#C82930;stroke-width:1.0;" width="6" x="890.5" y="805.3359"/><text fill="#000000" font-family="sans-serif" font-size="14" lengthAdjust="spacing" textLength="70" x="902.5" y="812.5645">type: string</text><rect fill="none" height="6" style="stroke:#C82930;stroke-width:1.0;" width="6" x="890.5" y="822.9453"/><text fill="#000000" font-family="sans-serif" font-size="14" lengthAdjust="spacing" textLength="92" x="902.5" y="830.1738">severity: string</text><rect fill="none" height="6" style="stroke:#C82930;stroke-width:1.0;" width="6" x="890.5" y="840.5547"/><text fill="#000000" font-family="sans-serif" font-size="14" lengthAdjust="spacing" textLength="131" x="902.5" y="847.7832">resourceType: string</text><rect fill="none" height="6" style="stroke:#C82930;stroke-width:1.0;" width="6" x="890.5" y="858.1641"/><text fill="#000000" font-family="sans-serif" font-size="14" lengthAdjust="spacing" textLength="124" x="902.5" y="865.3926">resourceId: Number</text><rect fill="none" height="6" style="stroke:#C82930;stroke-width:1.0;" width="6" x="890.5" y="875.7734"/><text fill="#000000" font-family="sans-serif" font-size="14" lengthAdjust="spacing" textLength="86" x="902.5" y="883.002">source: string</text><rect fill="none" height="6" style="stroke:#C82930;stroke-width:1.0;" width="6" x="890.5" y="893.3828"/><text fill="#000000" font-family="sans-serif" font-size="14" lengthAdjust="spacing" textLength="112" x="902.5" y="900.6113">description: string</text><line style="stroke:#181818;stroke-width:0.5;" x1="883.5" x2="1052.5" y1="907.6875" y2="907.6875"/><ellipse cx="893.5" cy="921.9922" fill="#84BE84" rx="3" ry="3" style="stroke:#038048;stroke-width:1.0;"/><text fill="#000000" font-family="sans-serif" font-size="14" lengthAdjust="spacing" textLength="109" x="902.5" y="926.2207">constructor(data)</text></g><!--class AuditApi--><g id="elem_AuditApi"><rect codeLine="49" fill="#F1F1F1" height="65.6094" id="AuditApi" rx="2.5" ry="2.5" style="stroke:#181818;stroke-width:0.5;" width="168" x="1114" y="783"/><ellipse cx="1167.75" cy="799" fill="#ADD1B2" rx="11" ry="11" style="stroke:#181818;stroke-width:1.0;"/><path d="M1170.5156,794.875 Q1170.6719,794.6563 1170.8594,794.5469 Q1171.0469,794.4375 1171.2656,794.4375 Q1171.6406,794.4375 1171.875,794.7031 Q1172.1094,794.9531 1172.1094,795.5625 L1172.1094,797.0156 Q1172.1094,797.625 1171.875,797.8906 Q1171.6406,798.1563 1171.2656,798.1563 Q1170.9219,798.1563 1170.7188,797.9531 Q1170.5156,797.7656 1170.4063,797.25 Q1170.3594,796.8906 1170.1719,796.7031 Q1169.8438,796.3281 1169.2344,796.1094 Q1168.625,795.8906 1168,795.8906 Q1167.2344,795.8906 1166.5938,796.2188 Q1165.9688,796.5469 1165.4688,797.2969 Q1164.9844,798.0469 1164.9844,799.0781 L1164.9844,800.1719 Q1164.9844,801.4063 1165.875,802.2344 Q1166.7656,803.0469 1168.3594,803.0469 Q1169.2969,803.0469 1169.9531,802.7969 Q1170.3438,802.6406 1170.7656,802.2031 Q1171.0313,801.9375 1171.1719,801.8594 Q1171.3281,801.7813 1171.5313,801.7813 Q1171.8594,801.7813 1172.1094,802.0469 Q1172.375,802.2969 1172.375,802.6406 Q1172.375,802.9844 1172.0313,803.3906 Q1171.5313,803.9688 1170.7344,804.2969 Q1169.6563,804.75 1168.3594,804.75 Q1166.8438,804.75 1165.6406,804.125 Q1164.6563,803.625 1163.9688,802.5625 Q1163.2813,801.4844 1163.2813,800.2031 L1163.2813,799.0469 Q1163.2813,797.7188 1163.8906,796.5781 Q1164.5156,795.4219 1165.6094,794.8125 Q1166.7031,794.1875 1167.9375,794.1875 Q1168.6719,794.1875 1169.3125,794.3594 Q1169.9688,794.5156 1170.5156,794.875 Z " fill="#000000"/><text fill="#000000" font-family="sans-serif" font-size="14" lengthAdjust="spacing" textLength="52" x="1188.25" y="804.7285">AuditApi</text><line style="stroke:#181818;stroke-width:0.5;" x1="1115" x2="1281" y1="815" y2="815"/><line style="stroke:#181818;stroke-width:0.5;" x1="1115" x2="1281" y1="823" y2="823"/><ellipse cx="1125" cy="837.3047" fill="#84BE84" rx="3" ry="3" style="stroke:#038048;stroke-width:1.0;"/><text fill="#000000" font-family="sans-serif" font-size="14" lengthAdjust="spacing" textLength="142" x="1134" y="841.5332">logs(params): Promise</text></g><!--class AuditStore--><g id="elem_AuditStore"><rect codeLine="57" fill="#F1F1F1" height="93.9219" id="AuditStore" rx="2.5" ry="2.5" style="stroke:#181818;stroke-width:0.5;" width="141" x="980.5" y="498"/><ellipse cx="1014.85" cy="519.3516" fill="#ADD1B2" rx="11" ry="11" style="stroke:#181818;stroke-width:1.0;"/><path d="M1017.6156,515.2266 Q1017.7719,515.0078 1017.9594,514.8984 Q1018.1469,514.7891 1018.3656,514.7891 Q1018.7406,514.7891 1018.975,515.0547 Q1019.2094,515.3047 1019.2094,515.9141 L1019.2094,517.3672 Q1019.2094,517.9766 1018.975,518.2422 Q1018.7406,518.5078 1018.3656,518.5078 Q1018.0219,518.5078 1017.8188,518.3047 Q1017.6156,518.1172 1017.5063,517.6016 Q1017.4594,517.2422 1017.2719,517.0547 Q1016.9438,516.6797 1016.3344,516.4609 Q1015.725,516.2422 1015.1,516.2422 Q1014.3344,516.2422 1013.6938,516.5703 Q1013.0688,516.8984 1012.5688,517.6484 Q1012.0844,518.3984 1012.0844,519.4297 L1012.0844,520.5234 Q1012.0844,521.7578 1012.975,522.5859 Q1013.8656,523.3984 1015.4594,523.3984 Q1016.3969,523.3984 1017.0531,523.1484 Q1017.4438,522.9922 1017.8656,522.5547 Q1018.1313,522.2891 1018.2719,522.2109 Q1018.4281,522.1328 1018.6313,522.1328 Q1018.9594,522.1328 1019.2094,522.3984 Q1019.475,522.6484 1019.475,522.9922 Q1019.475,523.3359 1019.1313,523.7422 Q1018.6313,524.3203 1017.8344,524.6484 Q1016.7563,525.1016 1015.4594,525.1016 Q1013.9438,525.1016 1012.7406,524.4766 Q1011.7563,523.9766 1011.0688,522.9141 Q1010.3813,521.8359 1010.3813,520.5547 L1010.3813,519.3984 Q1010.3813,518.0703 1010.9906,516.9297 Q1011.6156,515.7734 1012.7094,515.1641 Q1013.8031,514.5391 1015.0375,514.5391 Q1015.7719,514.5391 1016.4125,514.7109 Q1017.0688,514.8672 1017.6156,515.2266 Z " fill="#000000"/><text fill="#000000" font-family="sans-serif" font-size="12" font-style="italic" lengthAdjust="spacing" textLength="41" x="1045.65" y="515.457">&#171;store&#187;</text><text fill="#000000" font-family="sans-serif" font-size="14" lengthAdjust="spacing" textLength="66" x="1033.15" y="532.627">AuditStore</text><line style="stroke:#181818;stroke-width:0.5;" x1="981.5" x2="1120.5" y1="540.7031" y2="540.7031"/><rect fill="none" height="6" style="stroke:#C82930;stroke-width:1.0;" width="6" x="988.5" y="552.0078"/><text fill="#000000" font-family="sans-serif" font-size="14" lengthAdjust="spacing" textLength="98" x="1000.5" y="559.2363">logs: AuditLog[]</text><line style="stroke:#181818;stroke-width:0.5;" x1="981.5" x2="1120.5" y1="566.3125" y2="566.3125"/><ellipse cx="991.5" cy="580.6172" fill="#84BE84" rx="3" ry="3" style="stroke:#038048;stroke-width:1.0;"/><text fill="#000000" font-family="sans-serif" font-size="14" lengthAdjust="spacing" textLength="115" x="1000.5" y="584.8457">loadLogs(params)</text></g><!--class AdminAudit--><g id="elem_AdminAudit"><rect codeLine="66" fill="#F1F1F1" height="111.5313" id="AdminAudit" rx="2.5" ry="2.5" style="stroke:#181818;stroke-width:0.5;" width="132" x="1074" y="310"/><ellipse cx="1102.05" cy="331.3516" fill="#ADD1B2" rx="11" ry="11" style="stroke:#181818;stroke-width:1.0;"/><path d="M1104.8156,327.2266 Q1104.9719,327.0078 1105.1594,326.8984 Q1105.3469,326.7891 1105.5656,326.7891 Q1105.9406,326.7891 1106.175,327.0547 Q1106.4094,327.3047 1106.4094,327.9141 L1106.4094,329.3672 Q1106.4094,329.9766 1106.175,330.2422 Q1105.9406,330.5078 1105.5656,330.5078 Q1105.2219,330.5078 1105.0188,330.3047 Q1104.8156,330.1172 1104.7063,329.6016 Q1104.6594,329.2422 1104.4719,329.0547 Q1104.1438,328.6797 1103.5344,328.4609 Q1102.925,328.2422 1102.3,328.2422 Q1101.5344,328.2422 1100.8938,328.5703 Q1100.2688,328.8984 1099.7688,329.6484 Q1099.2844,330.3984 1099.2844,331.4297 L1099.2844,332.5234 Q1099.2844,333.7578 1100.175,334.5859 Q1101.0656,335.3984 1102.6594,335.3984 Q1103.5969,335.3984 1104.2531,335.1484 Q1104.6438,334.9922 1105.0656,334.5547 Q1105.3313,334.2891 1105.4719,334.2109 Q1105.6281,334.1328 1105.8313,334.1328 Q1106.1594,334.1328 1106.4094,334.3984 Q1106.675,334.6484 1106.675,334.9922 Q1106.675,335.3359 1106.3313,335.7422 Q1105.8313,336.3203 1105.0344,336.6484 Q1103.9563,337.1016 1102.6594,337.1016 Q1101.1438,337.1016 1099.9406,336.4766 Q1098.9563,335.9766 1098.2688,334.9141 Q1097.5813,333.8359 1097.5813,332.5547 L1097.5813,331.3984 Q1097.5813,330.0703 1098.1906,328.9297 Q1098.8156,327.7734 1099.9094,327.1641 Q1101.0031,326.5391 1102.2375,326.5391 Q1102.9719,326.5391 1103.6125,326.7109 Q1104.2688,326.8672 1104.8156,327.2266 Z " fill="#000000"/><text fill="#000000" font-family="sans-serif" font-size="12" font-style="italic" lengthAdjust="spacing" textLength="38" x="1135.45" y="327.457">&#171;view&#187;</text><text fill="#000000" font-family="sans-serif" font-size="14" lengthAdjust="spacing" textLength="71" x="1118.95" y="344.627">AdminAudit</text><line style="stroke:#181818;stroke-width:0.5;" x1="1075" x2="1205" y1="352.7031" y2="352.7031"/><rect fill="none" height="6" style="stroke:#C82930;stroke-width:1.0;" width="6" x="1082" y="364.0078"/><text fill="#000000" font-family="sans-serif" font-size="14" lengthAdjust="spacing" textLength="106" x="1094" y="371.2363">store: AuditStore</text><line style="stroke:#181818;stroke-width:0.5;" x1="1075" x2="1205" y1="378.3125" y2="378.3125"/><ellipse cx="1085" cy="392.6172" fill="#84BE84" rx="3" ry="3" style="stroke:#038048;stroke-width:1.0;"/><text fill="#000000" font-family="sans-serif" font-size="14" lengthAdjust="spacing" textLength="67" x="1094" y="396.8457">loadData()</text><ellipse cx="1085" cy="410.2266" fill="#84BE84" rx="3" ry="3" style="stroke:#038048;stroke-width:1.0;"/><text fill="#000000" font-family="sans-serif" font-size="14" lengthAdjust="spacing" textLength="80" x="1094" y="414.4551">clearFilters()</text></g><!--class AdminReports--><g id="elem_AdminReports"><rect codeLine="72" fill="#F1F1F1" height="76.3125" id="AdminReports" rx="2.5" ry="2.5" style="stroke:#181818;stroke-width:0.5;" width="132" x="882" y="328"/><ellipse cx="901.95" cy="349.3516" fill="#ADD1B2" rx="11" ry="11" style="stroke:#181818;stroke-width:1.0;"/><path d="M904.7156,345.2266 Q904.8719,345.0078 905.0594,344.8984 Q905.2469,344.7891 905.4656,344.7891 Q905.8406,344.7891 906.075,345.0547 Q906.3094,345.3047 906.3094,345.9141 L906.3094,347.3672 Q906.3094,347.9766 906.075,348.2422 Q905.8406,348.5078 905.4656,348.5078 Q905.1219,348.5078 904.9188,348.3047 Q904.7156,348.1172 904.6063,347.6016 Q904.5594,347.2422 904.3719,347.0547 Q904.0438,346.6797 903.4344,346.4609 Q902.825,346.2422 902.2,346.2422 Q901.4344,346.2422 900.7938,346.5703 Q900.1688,346.8984 899.6688,347.6484 Q899.1844,348.3984 899.1844,349.4297 L899.1844,350.5234 Q899.1844,351.7578 900.075,352.5859 Q900.9656,353.3984 902.5594,353.3984 Q903.4969,353.3984 904.1531,353.1484 Q904.5438,352.9922 904.9656,352.5547 Q905.2313,352.2891 905.3719,352.2109 Q905.5281,352.1328 905.7313,352.1328 Q906.0594,352.1328 906.3094,352.3984 Q906.575,352.6484 906.575,352.9922 Q906.575,353.3359 906.2313,353.7422 Q905.7313,354.3203 904.9344,354.6484 Q903.8563,355.1016 902.5594,355.1016 Q901.0438,355.1016 899.8406,354.4766 Q898.8563,353.9766 898.1688,352.9141 Q897.4813,351.8359 897.4813,350.5547 L897.4813,349.3984 Q897.4813,348.0703 898.0906,346.9297 Q898.7156,345.7734 899.8094,345.1641 Q900.9031,344.5391 902.1375,344.5391 Q902.8719,344.5391 903.5125,344.7109 Q904.1688,344.8672 904.7156,345.2266 Z " fill="#000000"/><text fill="#000000" font-family="sans-serif" font-size="12" font-style="italic" lengthAdjust="spacing" textLength="38" x="942.55" y="345.457">&#171;view&#187;</text><text fill="#000000" font-family="sans-serif" font-size="14" lengthAdjust="spacing" textLength="89" x="917.05" y="362.627">AdminReports</text><line style="stroke:#181818;stroke-width:0.5;" x1="883" x2="1013" y1="370.7031" y2="370.7031"/><rect fill="none" height="6" style="stroke:#C82930;stroke-width:1.0;" width="6" x="890" y="382.0078"/><text fill="#000000" font-family="sans-serif" font-size="14" lengthAdjust="spacing" textLength="106" x="902" y="389.2363">store: AuditStore</text><line style="stroke:#181818;stroke-width:0.5;" x1="883" x2="1013" y1="396.3125" y2="396.3125"/></g><!--reverse link AppLayout to AppSidebar--><g id="link_AppLayout_AppSidebar"><path codeLine="26" d="M279.66,160.5 C245.04,160.5 218,160.5 218,160.5 C218,160.5 218,279.12 218,336.12 " fill="none" id="AppLayout-backto-AppSidebar" style="stroke:#181818;stroke-width:1.0;"/><polygon fill="#181818" points="291.66,160.5,285.66,156.5,279.66,160.5,285.66,164.5,291.66,160.5" style="stroke:#181818;stroke-width:1.0;"/><polygon fill="#000000" points="157.3436,207.3735,163.113,199.8127,157.5671,197.8655,157.3436,207.3735" style="stroke:#000000;stroke-width:1.0;"/><text fill="#000000" font-family="sans-serif" font-size="13" lengthAdjust="spacing" textLength="49" x="168" y="207.9751">contains</text></g><!--reverse link AppLayout to AppTopbar--><g id="link_AppLayout_AppTopbar"><path codeLine="27" d="M317.5,202.38 C317.5,241.45 317.5,297.49 317.5,336.42 " fill="none" id="AppLayout-backto-AppTopbar" style="stroke:#181818;stroke-width:1.0;"/><polygon fill="#181818" points="317.5,190.38,313.5,196.38,317.5,202.38,321.5,196.38,317.5,190.38" style="stroke:#181818;stroke-width:1.0;"/><polygon fill="#000000" points="258.5,259.5758,261.4389,250.5307,255.5611,250.5307,258.5,259.5758" style="stroke:#000000;stroke-width:1.0;"/><text fill="#000000" font-family="sans-serif" font-size="13" lengthAdjust="spacing" textLength="49" x="267.5" y="259.8951">contains</text></g><!--reverse link AppTopbar to LanguageSwitcher--><g id="link_AppTopbar_LanguageSwitcher"><path codeLine="28" d="M277.54,366.5 C259.27,366.5 255.25,366.5 255.25,366.5 C255.25,366.5 255.25,545.5 255.25,545.5 C255.25,545.5 239.89,545.5 220.68,545.5 " fill="none" id="AppTopbar-backto-LanguageSwitcher" style="stroke:#181818;stroke-width:1.0;"/><polygon fill="#181818" points="289.54,366.5,283.54,362.5,277.54,366.5,283.54,370.5,289.54,366.5" style="stroke:#181818;stroke-width:1.0;"/><polygon fill="#000000" points="194.7363,452.0811,200.2756,444.3503,194.6736,442.5708,194.7363,452.0811" style="stroke:#000000;stroke-width:1.0;"/><text fill="#000000" font-family="sans-serif" font-size="13" lengthAdjust="spacing" textLength="49" x="205.25" y="452.6351">contains</text></g><!--reverse link AppTopbar to LogoutButton--><g id="link_AppTopbar_LogoutButton"><path codeLine="29" d="M342,407.56 C342,440.72 342,482.21 342,515.4 " fill="none" id="AppTopbar-backto-LogoutButton" style="stroke:#181818;stroke-width:1.0;"/><polygon fill="#181818" points="342,395.56,338,401.56,342,407.56,346,401.56,342,395.56" style="stroke:#181818;stroke-width:1.0;"/><polygon fill="#000000" points="283,451.6558,285.9389,442.6107,280.0611,442.6107,283,451.6558" style="stroke:#000000;stroke-width:1.0;"/><text fill="#000000" font-family="sans-serif" font-size="13" lengthAdjust="spacing" textLength="49" x="292" y="451.9751">contains</text></g><!--link AuditApi to BaseEndpoint--><g id="link_AuditApi_BaseEndpoint"><path codeLine="53" d="M1244,782.59 C1244,649.01 1244,160.5 1244,160.5 C1244,160.5 934.1,160.5 796.08,160.5 " fill="none" id="AuditApi-to-BaseEndpoint" style="stroke:#181818;stroke-width:1.0;stroke-dasharray:7.0,7.0;"/><polygon fill="none" points="778.08,160.5,796.08,166.5,796.08,154.5,778.08,160.5" style="stroke:#181818;stroke-width:1.0;"/></g><!--link AuditStore to AuditApi--><g id="link_AuditStore_AuditApi"><path codeLine="62" d="M1117.75,592.2 C1117.75,646.8 1117.75,729.26 1117.75,776.97 " fill="none" id="AuditStore-to-AuditApi" style="stroke:#181818;stroke-width:1.0;"/><polygon fill="#181818" points="1117.75,782.97,1121.75,773.97,1117.75,777.97,1113.75,773.97,1117.75,782.97" style="stroke:#181818;stroke-width:1.0;"/></g><!--link AdminAudit to AuditStore--><g id="link_AdminAudit_AuditStore"><path codeLine="76" d="M1097.75,422.15 C1097.75,446.44 1097.75,468.57 1097.75,491.78 " fill="none" id="AdminAudit-to-AuditStore" style="stroke:#181818;stroke-width:1.0;"/><polygon fill="#181818" points="1097.75,497.78,1101.75,488.78,1097.75,492.78,1093.75,488.78,1097.75,497.78" style="stroke:#181818;stroke-width:1.0;"/></g><!--link AdminReports to AuditStore--><g id="link_AdminReports_AuditStore"><path codeLine="77" d="M997.25,404.4 C997.25,431.73 997.25,462.61 997.25,491.74 " fill="none" id="AdminReports-to-AuditStore" style="stroke:#181818;stroke-width:1.0;"/><polygon fill="#181818" points="997.25,497.74,1001.25,488.74,997.25,492.74,993.25,488.74,997.25,497.74" style="stroke:#181818;stroke-width:1.0;"/></g><!--reverse link AuditStore to AuditLog--><g id="link_AuditStore_AuditLog"><path codeLine="81" d="M1017,604.2 C1017,633.62 1017,660.88 1017,698.29 " fill="none" id="AuditStore-backto-AuditLog" style="stroke:#181818;stroke-width:1.0;"/><polygon fill="none" points="1017,592.2,1013,598.2,1017,604.2,1021,598.2,1017,592.2" style="stroke:#181818;stroke-width:1.0;"/><polygon fill="#000000" points="954,641.4258,956.9389,632.3807,951.0611,632.3807,954,641.4258" style="stroke:#000000;stroke-width:1.0;"/><text fill="#000000" font-family="sans-serif" font-size="13" lengthAdjust="spacing" textLength="53" x="963" y="641.7451">manages</text></g><!--link AppLayout to AdminAudit--><g id="link_AppLayout_AdminAudit"><path codeLine="84" d="M368.5,190.03 C368.5,236.02 368.5,319.5 368.5,319.5 C368.5,319.5 881.03,319.5 1067.89,319.5 " fill="none" id="AppLayout-to-AdminAudit" style="stroke:#181818;stroke-width:1.0;stroke-dasharray:7.0,7.0;"/><polygon fill="#181818" points="1073.89,319.5,1064.89,315.5,1068.89,319.5,1064.89,323.5,1073.89,319.5" style="stroke:#181818;stroke-width:1.0;"/><polygon fill="#000000" points="608.3765,311.5859,600.0175,307.0496,598.9475,312.8293,608.3765,311.5859" style="stroke:#000000;stroke-width:1.0;"/><text fill="#000000" font-family="sans-serif" font-size="13" lengthAdjust="spacing" textLength="43" x="612.46" y="315.9951">renders</text></g><!--link AppLayout to AdminReports--><g id="link_AppLayout_AdminReports"><path codeLine="85" d="M343,190.07 C343,239.25 343,332.5 343,332.5 C343,332.5 718.83,332.5 875.81,332.5 " fill="none" id="AppLayout-to-AdminReports" style="stroke:#181818;stroke-width:1.0;stroke-dasharray:7.0,7.0;"/><polygon fill="#181818" points="881.81,332.5,872.81,328.5,876.81,332.5,872.81,336.5,881.81,332.5" style="stroke:#181818;stroke-width:1.0;"/><polygon fill="#000000" points="493.0204,324.967,485.0411,319.7919,483.5232,325.4704,493.0204,324.967" style="stroke:#000000;stroke-width:1.0;"/><text fill="#000000" font-family="sans-serif" font-size="13" lengthAdjust="spacing" textLength="43" x="497.19" y="328.9951">renders</text></g><!--SRC=[bLLHJzim47xdLrYyh0orsjCUeYfIWKrKGXEYR2zeGiOvsbCJsx8TeDluxpl7RU8qxc1vQ2hVT_RtdU- -s3LApGslM8aIt4O3KyQjr95j0vgBDL_2mcrAO0Q4ut9PGWIGgW0Bcdt-52qQBjVRnQFj3knuiU862dQcQbdG-rn91o_kc77BR0ZzFcACjVYvV3JSEbCBLnk8SFVOYuGq_uYIMylEk8Klij0AfUjYhttGfNEQJQUp5rHsBYt94f3dU_3cfyVfsf1OwRX39MD6EbhlDcdJpbMbbII0ZPD4kzgbT0ndMb_nZQeTqMoHUPu0rcxrJgJM2opWWPjt86-LVWVmYlgXzWtoZ4wiu6syMXBHizevAbGIsw_y1xPjcxQ4x1B1S2DM2DOZkZfz78zZYHaJr68SfMLv4hXLcC1j8nut4FW6FDRNWxv6ep2h2tIDf19zvoM7WZUW_anSg8gswyBtHREmFmBD_aI5AamLGxU9Mzi_OuP5nhxLrGEO_heoIoxnLzF9ymCOBfmotosOGm1l9HcZ2KMvx4SiF84XGkaeJP6gZO3RW_axnA6JGpITIqOb36glB0KuzRSLN4MPKS4TFzdhoRViALp9lzsfkPgPnlvzdB9IBUseSKzxah5heogqq9s_-zUcJoP_yfxL9IXIQvOeEhCA_7YtcYIt8Fb0dMFzUzWudcZMTjZTptqPlBYAf1nG4CuOZ_DMK8B-m6m3_xJNRWKK5SemNTFf4yBpa7yZAuje30LSqDsFJlPwemHklcBfmDXHGbPq_Wre-epQ_sSG5QdJqHQf1-qTD8H4_da3PLCgkq8T3BEx0EMDSESL6QkufC9ximgfFuX-C5wBJRL7ZzINEqSEPXgkkFFMoIIFsMSqiUHiPk31BMud8aQ-_WK0]--></g></svg>