<?xml version="1.0" encoding="us-ascii" standalone="no"?><svg xmlns="http://www.w3.org/2000/svg" xmlns:xlink="http://www.w3.org/1999/xlink" contentStyleType="text/css" height="1135px" preserveAspectRatio="none" style="width:4137px;height:1135px;background:#FFFFFF;" version="1.1" viewBox="0 0 4137 1135" width="4137px" zoomAndPan="magnify"><defs/><g><!--cluster Shared--><g id="cluster_Shared"><rect fill="#F0F4F8" height="608.5" rx="2.5" ry="2.5" style="stroke:#4A90E2;stroke-width:1.5;" width="2392" x="1739" y="435"/><text fill="#000000" font-family="Arial" font-size="14" font-weight="bold" lengthAdjust="spacing" textLength="177" x="2846.5" y="450.1318">Shared Bounded Context</text></g><!--cluster SharedDomain--><g id="cluster_SharedDomain"><rect fill="#F0F4F8" height="168" rx="2.5" ry="2.5" style="stroke:#4A90E2;stroke-width:1.5;" width="1018" x="1763" y="851.5"/><text fill="#000000" font-family="Arial" font-size="14" font-weight="bold" lengthAdjust="spacing" textLength="52" x="2246" y="866.6318">Domain</text></g><!--cluster SharedInfra--><g id="cluster_SharedInfra"><rect fill="#F0F4F8" height="521" rx="2.5" ry="2.5" style="stroke:#4A90E2;stroke-width:1.5;" width="1302" x="2805" y="478"/><text fill="#000000" font-family="Arial" font-size="14" font-weight="bold" lengthAdjust="spacing" textLength="97" x="3407.5" y="493.1318">Infrastructure</text></g><!--cluster AuditBC--><g id="cluster_AuditBC"><rect fill="#F0F4F8" height="1122" rx="2.5" ry="2.5" style="stroke:#4A90E2;stroke-width:1.5;" width="1193" x="249" y="7"/><text fill="#000000" font-family="Arial" font-size="14" font-weight="bold" lengthAdjust="spacing" textLength="263" x="714" y="22.1318">Audit &amp; Compliance Bounded Context</text></g><!--cluster AuditDomain--><g id="cluster_AuditDomain"><rect fill="#F0F4F8" height="846" rx="2.5" ry="2.5" style="stroke:#4A90E2;stroke-width:1.5;" width="1145" x="273" y="259"/><text fill="#000000" font-family="Arial" font-size="14" font-weight="bold" lengthAdjust="spacing" textLength="52" x="819.5" y="274.1318">Domain</text></g><!--cluster AuditInterfaces--><g id="cluster_AuditInterfaces"><rect fill="#F0F4F8" height="140" rx="2.5" ry="2.5" style="stroke:#4A90E2;stroke-width:1.5;" width="544" x="573" y="50"/><text fill="#000000" font-family="Arial" font-size="14" font-weight="bold" lengthAdjust="spacing" textLength="71" x="809.5" y="65.1318">Interfaces</text></g><!--class IBaseRepository--><g id="elem_IBaseRepository"><rect codeLine="19" fill="#FDFDFD" height="116.9941" id="IBaseRepository" rx="2.5" ry="2.5" style="stroke:#181818;stroke-width:0.5;" width="372" x="2393" y="886.5"/><ellipse cx="2508.75" cy="902.5" fill="#B4A7E5" rx="11" ry="11" style="stroke:#181818;stroke-width:1.0;"/><path d="M2509.7031,899.1406 L2509.7031,905.7969 L2511.4219,905.7969 Q2512.0313,905.7969 2512.2969,906.0313 Q2512.5625,906.2656 2512.5625,906.6563 Q2512.5625,907.0313 2512.2969,907.2656 Q2512.0313,907.5 2511.4219,907.5 L2506.2813,907.5 Q2505.6719,907.5 2505.4063,907.2656 Q2505.1406,907.0313 2505.1406,906.6406 Q2505.1406,906.2656 2505.4063,906.0313 Q2505.6719,905.7969 2506.2813,905.7969 L2508,905.7969 L2508,899.1406 L2506.2813,899.1406 Q2505.6719,899.1406 2505.4063,898.9063 Q2505.1406,898.6719 2505.1406,898.2813 Q2505.1406,897.9063 2505.4063,897.6719 Q2505.6719,897.4375 2506.2813,897.4375 L2511.4219,897.4375 Q2512.0313,897.4375 2512.2969,897.6719 Q2512.5625,897.9063 2512.5625,898.2813 Q2512.5625,898.6719 2512.2969,898.9063 Q2512.0313,899.1406 2511.4219,899.1406 L2509.7031,899.1406 Z " fill="#000000"/><text fill="#000000" font-family="Arial" font-size="12" font-style="italic" lengthAdjust="spacing" textLength="91" x="2529.25" y="906.8564">IBaseRepository</text><rect fill="#FFFFFF" height="15.7988" style="stroke:#181818;stroke-width:1.0;stroke-dasharray:2.0,2.0;" width="39" x="2729" y="883.5"/><text fill="#000000" font-family="Arial" font-size="12" font-style="italic" lengthAdjust="spacing" textLength="37" x="2730" y="895.7559">TEntity</text><line style="stroke:#181818;stroke-width:0.5;" x1="2394" x2="2764" y1="918.5" y2="918.5"/><line style="stroke:#181818;stroke-width:0.5;" x1="2394" x2="2764" y1="926.5" y2="926.5"/><ellipse cx="2404" cy="938.8994" fill="#84BE84" rx="3" ry="3" style="stroke:#038048;stroke-width:1.0;"/><text fill="#000000" font-family="Arial" font-size="12" lengthAdjust="spacing" textLength="288" x="2413" y="941.7559">AddAsync(entity: TEntity, ct: CancellationToken): Task</text><ellipse cx="2404" cy="952.6982" fill="#84BE84" rx="3" ry="3" style="stroke:#038048;stroke-width:1.0;"/><text fill="#000000" font-family="Arial" font-size="12" lengthAdjust="spacing" textLength="330" x="2413" y="955.5547">FindByIdAsync(id: int, ct: CancellationToken): Task&lt;TEntity?&gt;</text><ellipse cx="2404" cy="966.4971" fill="#84BE84" rx="3" ry="3" style="stroke:#038048;stroke-width:1.0;"/><text fill="#000000" font-family="Arial" font-size="12" lengthAdjust="spacing" textLength="146" x="2413" y="969.3535">Update(entity: TEntity): void</text><ellipse cx="2404" cy="980.2959" fill="#84BE84" rx="3" ry="3" style="stroke:#038048;stroke-width:1.0;"/><text fill="#000000" font-family="Arial" font-size="12" lengthAdjust="spacing" textLength="152" x="2413" y="983.1523">Remove(entity: TEntity): void</text><ellipse cx="2404" cy="994.0947" fill="#84BE84" rx="3" ry="3" style="stroke:#038048;stroke-width:1.0;"/><text fill="#000000" font-family="Arial" font-size="12" lengthAdjust="spacing" textLength="346" x="2413" y="996.9512">ListAsync(ct: CancellationToken): Task&lt;IEnumerable&lt;TEntity&gt;&gt;</text></g><!--class IUnitOfWork--><g id="elem_IUnitOfWork"><rect codeLine="27" fill="#FDFDFD" height="61.7988" id="IUnitOfWork" rx="2.5" ry="2.5" style="stroke:#181818;stroke-width:0.5;" width="271" x="2041.5" y="914"/><ellipse cx="2139.25" cy="930" fill="#B4A7E5" rx="11" ry="11" style="stroke:#181818;stroke-width:1.0;"/><path d="M2140.2031,926.6406 L2140.2031,933.2969 L2141.9219,933.2969 Q2142.5313,933.2969 2142.7969,933.5313 Q2143.0625,933.7656 2143.0625,934.1563 Q2143.0625,934.5313 2142.7969,934.7656 Q2142.5313,935 2141.9219,935 L2136.7813,935 Q2136.1719,935 2135.9063,934.7656 Q2135.6406,934.5313 2135.6406,934.1406 Q2135.6406,933.7656 2135.9063,933.5313 Q2136.1719,933.2969 2136.7813,933.2969 L2138.5,933.2969 L2138.5,926.6406 L2136.7813,926.6406 Q2136.1719,926.6406 2135.9063,926.4063 Q2135.6406,926.1719 2135.6406,925.7813 Q2135.6406,925.4063 2135.9063,925.1719 Q2136.1719,924.9375 2136.7813,924.9375 L2141.9219,924.9375 Q2142.5313,924.9375 2142.7969,925.1719 Q2143.0625,925.4063 2143.0625,925.7813 Q2143.0625,926.1719 2142.7969,926.4063 Q2142.5313,926.6406 2141.9219,926.6406 L2140.2031,926.6406 Z " fill="#000000"/><text fill="#000000" font-family="Arial" font-size="12" font-style="italic" lengthAdjust="spacing" textLength="67" x="2159.75" y="934.3564">IUnitOfWork</text><line style="stroke:#181818;stroke-width:0.5;" x1="2042.5" x2="2311.5" y1="946" y2="946"/><line style="stroke:#181818;stroke-width:0.5;" x1="2042.5" x2="2311.5" y1="954" y2="954"/><ellipse cx="2052.5" cy="966.3994" fill="#84BE84" rx="3" ry="3" style="stroke:#038048;stroke-width:1.0;"/><text fill="#000000" font-family="Arial" font-size="12" lengthAdjust="spacing" textLength="245" x="2061.5" y="969.2559">CompleteAsync(ct: CancellationToken): Task</text></g><!--class IAuditableEntity--><g id="elem_IAuditableEntity"><rect codeLine="31" fill="#FDFDFD" height="81.1953" id="IAuditableEntity" rx="2.5" ry="2.5" style="stroke:#181818;stroke-width:0.5;" width="182" x="1779" y="904.5"/><ellipse cx="1822.35" cy="923.2988" fill="#B4A7E5" rx="11" ry="11" style="stroke:#181818;stroke-width:1.0;"/><path d="M1823.3031,919.9395 L1823.3031,926.5957 L1825.0219,926.5957 Q1825.6313,926.5957 1825.8969,926.8301 Q1826.1625,927.0645 1826.1625,927.4551 Q1826.1625,927.8301 1825.8969,928.0645 Q1825.6313,928.2988 1825.0219,928.2988 L1819.8813,928.2988 Q1819.2719,928.2988 1819.0063,928.0645 Q1818.7406,927.8301 1818.7406,927.4395 Q1818.7406,927.0645 1819.0063,926.8301 Q1819.2719,926.5957 1819.8813,926.5957 L1821.6,926.5957 L1821.6,919.9395 L1819.8813,919.9395 Q1819.2719,919.9395 1819.0063,919.7051 Q1818.7406,919.4707 1818.7406,919.0801 Q1818.7406,918.7051 1819.0063,918.4707 Q1819.2719,918.2363 1819.8813,918.2363 L1825.0219,918.2363 Q1825.6313,918.2363 1825.8969,918.4707 Q1826.1625,918.7051 1826.1625,919.0801 Q1826.1625,919.4707 1825.8969,919.7051 Q1825.6313,919.9395 1825.0219,919.9395 L1823.3031,919.9395 Z " fill="#000000"/><text fill="#000000" font-family="Arial" font-size="12" font-style="italic" lengthAdjust="spacing" textLength="44" x="1864.15" y="920.7559">&#171;Entity&#187;</text><text fill="#000000" font-family="Arial" font-size="12" font-style="italic" lengthAdjust="spacing" textLength="87" x="1842.65" y="934.5547">IAuditableEntity</text><line style="stroke:#181818;stroke-width:0.5;" x1="1780" x2="1960" y1="942.0977" y2="942.0977"/><ellipse cx="1790" cy="954.4971" fill="none" rx="3" ry="3" style="stroke:#038048;stroke-width:1.0;"/><text fill="#000000" font-family="Arial" font-size="12" lengthAdjust="spacing" textLength="153" x="1799" y="957.3535">CreatedAt: DateTimeOffset?</text><ellipse cx="1790" cy="968.2959" fill="none" rx="3" ry="3" style="stroke:#038048;stroke-width:1.0;"/><text fill="#000000" font-family="Arial" font-size="12" lengthAdjust="spacing" textLength="156" x="1799" y="971.1523">UpdatedAt: DateTimeOffset?</text><line style="stroke:#181818;stroke-width:0.5;" x1="1780" x2="1960" y1="977.6953" y2="977.6953"/></g><!--class AppDbContext--><g id="elem_AppDbContext"><rect codeLine="38" fill="#FDFDFD" height="75.5977" id="AppDbContext" rx="2.5" ry="2.5" style="stroke:#181818;stroke-width:0.5;" width="351" x="3528.5" y="907"/><ellipse cx="3660.75" cy="923" fill="#ADD1B2" rx="11" ry="11" style="stroke:#181818;stroke-width:1.0;"/><path d="M3663.5156,918.875 Q3663.6719,918.6563 3663.8594,918.5469 Q3664.0469,918.4375 3664.2656,918.4375 Q3664.6406,918.4375 3664.875,918.7031 Q3665.1094,918.9531 3665.1094,919.5625 L3665.1094,921.0156 Q3665.1094,921.625 3664.875,921.8906 Q3664.6406,922.1563 3664.2656,922.1563 Q3663.9219,922.1563 3663.7188,921.9531 Q3663.5156,921.7656 3663.4063,921.25 Q3663.3594,920.8906 3663.1719,920.7031 Q3662.8438,920.3281 3662.2344,920.1094 Q3661.625,919.8906 3661,919.8906 Q3660.2344,919.8906 3659.5938,920.2188 Q3658.9688,920.5469 3658.4688,921.2969 Q3657.9844,922.0469 3657.9844,923.0781 L3657.9844,924.1719 Q3657.9844,925.4063 3658.875,926.2344 Q3659.7656,927.0469 3661.3594,927.0469 Q3662.2969,927.0469 3662.9531,926.7969 Q3663.3438,926.6406 3663.7656,926.2031 Q3664.0313,925.9375 3664.1719,925.8594 Q3664.3281,925.7813 3664.5313,925.7813 Q3664.8594,925.7813 3665.1094,926.0469 Q3665.375,926.2969 3665.375,926.6406 Q3665.375,926.9844 3665.0313,927.3906 Q3664.5313,927.9688 3663.7344,928.2969 Q3662.6563,928.75 3661.3594,928.75 Q3659.8438,928.75 3658.6406,928.125 Q3657.6563,927.625 3656.9688,926.5625 Q3656.2813,925.4844 3656.2813,924.2031 L3656.2813,923.0469 Q3656.2813,921.7188 3656.8906,920.5781 Q3657.5156,919.4219 3658.6094,918.8125 Q3659.7031,918.1875 3660.9375,918.1875 Q3661.6719,918.1875 3662.3125,918.3594 Q3662.9688,918.5156 3663.5156,918.875 Z " fill="#000000"/><text fill="#000000" font-family="Arial" font-size="12" lengthAdjust="spacing" textLength="78" x="3681.25" y="927.3564">AppDbContext</text><line style="stroke:#181818;stroke-width:0.5;" x1="3529.5" x2="3878.5" y1="939" y2="939"/><line style="stroke:#181818;stroke-width:0.5;" x1="3529.5" x2="3878.5" y1="947" y2="947"/><ellipse cx="3539.5" cy="959.3994" fill="#84BE84" rx="3" ry="3" style="stroke:#038048;stroke-width:1.0;"/><text fill="#000000" font-family="Arial" font-size="12" lengthAdjust="spacing" textLength="325" x="3548.5" y="962.2559">AppDbContext(options: DbContextOptions&lt;AppDbContext&gt;)</text><ellipse cx="3539.5" cy="973.1982" fill="#84BE84" rx="3" ry="3" style="stroke:#038048;stroke-width:1.0;"/><text fill="#000000" font-family="Arial" font-size="12" lengthAdjust="spacing" textLength="296" x="3548.5" y="976.0547">SaveChangesAsync(ct: CancellationToken): Task&lt;int&gt;</text></g><!--class BaseRepository--><g id="elem_BaseRepository"><rect codeLine="43" fill="#FDFDFD" height="130.793" id="BaseRepository" rx="2.5" ry="2.5" style="stroke:#181818;stroke-width:0.5;" width="372" x="3719" y="513"/><ellipse cx="3836.25" cy="529" fill="#ADD1B2" rx="11" ry="11" style="stroke:#181818;stroke-width:1.0;"/><path d="M3839.0156,524.875 Q3839.1719,524.6563 3839.3594,524.5469 Q3839.5469,524.4375 3839.7656,524.4375 Q3840.1406,524.4375 3840.375,524.7031 Q3840.6094,524.9531 3840.6094,525.5625 L3840.6094,527.0156 Q3840.6094,527.625 3840.375,527.8906 Q3840.1406,528.1563 3839.7656,528.1563 Q3839.4219,528.1563 3839.2188,527.9531 Q3839.0156,527.7656 3838.9063,527.25 Q3838.8594,526.8906 3838.6719,526.7031 Q3838.3438,526.3281 3837.7344,526.1094 Q3837.125,525.8906 3836.5,525.8906 Q3835.7344,525.8906 3835.0938,526.2188 Q3834.4688,526.5469 3833.9688,527.2969 Q3833.4844,528.0469 3833.4844,529.0781 L3833.4844,530.1719 Q3833.4844,531.4063 3834.375,532.2344 Q3835.2656,533.0469 3836.8594,533.0469 Q3837.7969,533.0469 3838.4531,532.7969 Q3838.8438,532.6406 3839.2656,532.2031 Q3839.5313,531.9375 3839.6719,531.8594 Q3839.8281,531.7813 3840.0313,531.7813 Q3840.3594,531.7813 3840.6094,532.0469 Q3840.875,532.2969 3840.875,532.6406 Q3840.875,532.9844 3840.5313,533.3906 Q3840.0313,533.9688 3839.2344,534.2969 Q3838.1563,534.75 3836.8594,534.75 Q3835.3438,534.75 3834.1406,534.125 Q3833.1563,533.625 3832.4688,532.5625 Q3831.7813,531.4844 3831.7813,530.2031 L3831.7813,529.0469 Q3831.7813,527.7188 3832.3906,526.5781 Q3833.0156,525.4219 3834.1094,524.8125 Q3835.2031,524.1875 3836.4375,524.1875 Q3837.1719,524.1875 3837.8125,524.3594 Q3838.4688,524.5156 3839.0156,524.875 Z " fill="#000000"/><text fill="#000000" font-family="Arial" font-size="12" lengthAdjust="spacing" textLength="88" x="3856.75" y="533.3564">BaseRepository</text><rect fill="#FFFFFF" height="15.7988" style="stroke:#181818;stroke-width:1.0;stroke-dasharray:2.0,2.0;" width="39" x="4055" y="510"/><text fill="#000000" font-family="Arial" font-size="12" font-style="italic" lengthAdjust="spacing" textLength="37" x="4056" y="522.2559">TEntity</text><line style="stroke:#181818;stroke-width:0.5;" x1="3720" x2="4090" y1="545" y2="545"/><line style="stroke:#181818;stroke-width:0.5;" x1="3720" x2="4090" y1="553" y2="553"/><ellipse cx="3730" cy="565.3994" fill="#84BE84" rx="3" ry="3" style="stroke:#038048;stroke-width:1.0;"/><text fill="#000000" font-family="Arial" font-size="12" lengthAdjust="spacing" textLength="218" x="3739" y="568.2559">BaseRepository(context: AppDbContext)</text><ellipse cx="3730" cy="579.1982" fill="#84BE84" rx="3" ry="3" style="stroke:#038048;stroke-width:1.0;"/><text fill="#000000" font-family="Arial" font-size="12" lengthAdjust="spacing" textLength="288" x="3739" y="582.0547">AddAsync(entity: TEntity, ct: CancellationToken): Task</text><ellipse cx="3730" cy="592.9971" fill="#84BE84" rx="3" ry="3" style="stroke:#038048;stroke-width:1.0;"/><text fill="#000000" font-family="Arial" font-size="12" lengthAdjust="spacing" textLength="330" x="3739" y="595.8535">FindByIdAsync(id: int, ct: CancellationToken): Task&lt;TEntity?&gt;</text><ellipse cx="3730" cy="606.7959" fill="#84BE84" rx="3" ry="3" style="stroke:#038048;stroke-width:1.0;"/><text fill="#000000" font-family="Arial" font-size="12" lengthAdjust="spacing" textLength="146" x="3739" y="609.6523">Update(entity: TEntity): void</text><ellipse cx="3730" cy="620.5947" fill="#84BE84" rx="3" ry="3" style="stroke:#038048;stroke-width:1.0;"/><text fill="#000000" font-family="Arial" font-size="12" lengthAdjust="spacing" textLength="152" x="3739" y="623.4512">Remove(entity: TEntity): void</text><ellipse cx="3730" cy="634.3936" fill="#84BE84" rx="3" ry="3" style="stroke:#038048;stroke-width:1.0;"/><text fill="#000000" font-family="Arial" font-size="12" lengthAdjust="spacing" textLength="346" x="3739" y="637.25">ListAsync(ct: CancellationToken): Task&lt;IEnumerable&lt;TEntity&gt;&gt;</text></g><!--class UnitOfWork--><g id="elem_UnitOfWork"><rect codeLine="52" fill="#FDFDFD" height="75.5977" id="UnitOfWork" rx="2.5" ry="2.5" style="stroke:#181818;stroke-width:0.5;" width="271" x="3367.5" y="540.5"/><ellipse cx="3467.75" cy="556.5" fill="#ADD1B2" rx="11" ry="11" style="stroke:#181818;stroke-width:1.0;"/><path d="M3470.5156,552.375 Q3470.6719,552.1563 3470.8594,552.0469 Q3471.0469,551.9375 3471.2656,551.9375 Q3471.6406,551.9375 3471.875,552.2031 Q3472.1094,552.4531 3472.1094,553.0625 L3472.1094,554.5156 Q3472.1094,555.125 3471.875,555.3906 Q3471.6406,555.6563 3471.2656,555.6563 Q3470.9219,555.6563 3470.7188,555.4531 Q3470.5156,555.2656 3470.4063,554.75 Q3470.3594,554.3906 3470.1719,554.2031 Q3469.8438,553.8281 3469.2344,553.6094 Q3468.625,553.3906 3468,553.3906 Q3467.2344,553.3906 3466.5938,553.7188 Q3465.9688,554.0469 3465.4688,554.7969 Q3464.9844,555.5469 3464.9844,556.5781 L3464.9844,557.6719 Q3464.9844,558.9063 3465.875,559.7344 Q3466.7656,560.5469 3468.3594,560.5469 Q3469.2969,560.5469 3469.9531,560.2969 Q3470.3438,560.1406 3470.7656,559.7031 Q3471.0313,559.4375 3471.1719,559.3594 Q3471.3281,559.2813 3471.5313,559.2813 Q3471.8594,559.2813 3472.1094,559.5469 Q3472.375,559.7969 3472.375,560.1406 Q3472.375,560.4844 3472.0313,560.8906 Q3471.5313,561.4688 3470.7344,561.7969 Q3469.6563,562.25 3468.3594,562.25 Q3466.8438,562.25 3465.6406,561.625 Q3464.6563,561.125 3463.9688,560.0625 Q3463.2813,558.9844 3463.2813,557.7031 L3463.2813,556.5469 Q3463.2813,555.2188 3463.8906,554.0781 Q3464.5156,552.9219 3465.6094,552.3125 Q3466.7031,551.6875 3467.9375,551.6875 Q3468.6719,551.6875 3469.3125,551.8594 Q3469.9688,552.0156 3470.5156,552.375 Z " fill="#000000"/><text fill="#000000" font-family="Arial" font-size="12" lengthAdjust="spacing" textLength="62" x="3488.25" y="560.8564">UnitOfWork</text><line style="stroke:#181818;stroke-width:0.5;" x1="3368.5" x2="3637.5" y1="572.5" y2="572.5"/><line style="stroke:#181818;stroke-width:0.5;" x1="3368.5" x2="3637.5" y1="580.5" y2="580.5"/><ellipse cx="3378.5" cy="592.8994" fill="#84BE84" rx="3" ry="3" style="stroke:#038048;stroke-width:1.0;"/><text fill="#000000" font-family="Arial" font-size="12" lengthAdjust="spacing" textLength="192" x="3387.5" y="595.7559">UnitOfWork(context: AppDbContext)</text><ellipse cx="3378.5" cy="606.6982" fill="#84BE84" rx="3" ry="3" style="stroke:#038048;stroke-width:1.0;"/><text fill="#000000" font-family="Arial" font-size="12" lengthAdjust="spacing" textLength="245" x="3387.5" y="609.5547">CompleteAsync(ct: CancellationToken): Task</text></g><!--class AuditableEntityInterceptor--><g id="elem_AuditableEntityInterceptor"><rect codeLine="57" fill="#FDFDFD" height="61.7988" id="AuditableEntityInterceptor" rx="2.5" ry="2.5" style="stroke:#181818;stroke-width:0.5;" width="466" x="2821" y="547.5"/><ellipse cx="2980.75" cy="563.5" fill="#ADD1B2" rx="11" ry="11" style="stroke:#181818;stroke-width:1.0;"/><path d="M2983.5156,559.375 Q2983.6719,559.1563 2983.8594,559.0469 Q2984.0469,558.9375 2984.2656,558.9375 Q2984.6406,558.9375 2984.875,559.2031 Q2985.1094,559.4531 2985.1094,560.0625 L2985.1094,561.5156 Q2985.1094,562.125 2984.875,562.3906 Q2984.6406,562.6563 2984.2656,562.6563 Q2983.9219,562.6563 2983.7188,562.4531 Q2983.5156,562.2656 2983.4063,561.75 Q2983.3594,561.3906 2983.1719,561.2031 Q2982.8438,560.8281 2982.2344,560.6094 Q2981.625,560.3906 2981,560.3906 Q2980.2344,560.3906 2979.5938,560.7188 Q2978.9688,561.0469 2978.4688,561.7969 Q2977.9844,562.5469 2977.9844,563.5781 L2977.9844,564.6719 Q2977.9844,565.9063 2978.875,566.7344 Q2979.7656,567.5469 2981.3594,567.5469 Q2982.2969,567.5469 2982.9531,567.2969 Q2983.3438,567.1406 2983.7656,566.7031 Q2984.0313,566.4375 2984.1719,566.3594 Q2984.3281,566.2813 2984.5313,566.2813 Q2984.8594,566.2813 2985.1094,566.5469 Q2985.375,566.7969 2985.375,567.1406 Q2985.375,567.4844 2985.0313,567.8906 Q2984.5313,568.4688 2983.7344,568.7969 Q2982.6563,569.25 2981.3594,569.25 Q2979.8438,569.25 2978.6406,568.625 Q2977.6563,568.125 2976.9688,567.0625 Q2976.2813,565.9844 2976.2813,564.7031 L2976.2813,563.5469 Q2976.2813,562.2188 2976.8906,561.0781 Q2977.5156,559.9219 2978.6094,559.3125 Q2979.7031,558.6875 2980.9375,558.6875 Q2981.6719,558.6875 2982.3125,558.8594 Q2982.9688,559.0156 2983.5156,559.375 Z " fill="#000000"/><text fill="#000000" font-family="Arial" font-size="12" lengthAdjust="spacing" textLength="138" x="3001.25" y="567.8564">AuditableEntityInterceptor</text><line style="stroke:#181818;stroke-width:0.5;" x1="2822" x2="3286" y1="579.5" y2="579.5"/><line style="stroke:#181818;stroke-width:0.5;" x1="2822" x2="3286" y1="587.5" y2="587.5"/><ellipse cx="2832" cy="599.8994" fill="#84BE84" rx="3" ry="3" style="stroke:#038048;stroke-width:1.0;"/><text fill="#000000" font-family="Arial" font-size="12" lengthAdjust="spacing" textLength="440" x="2841" y="602.7559">SavingChangesAsync(eventData, result, ct): ValueTask&lt;InterceptionResult&lt;int&gt;&gt;</text></g><!--class AuditLog--><g id="elem_AuditLog"><rect codeLine="69" fill="#FDFDFD" height="205.3848" id="AuditLog" rx="2.5" ry="2.5" style="stroke:#181818;stroke-width:0.5;" width="288" x="1008" y="476"/><ellipse cx="1114.25" cy="494.7988" fill="#ADD1B2" rx="11" ry="11" style="stroke:#181818;stroke-width:1.0;"/><path d="M1117.0156,490.6738 Q1117.1719,490.4551 1117.3594,490.3457 Q1117.5469,490.2363 1117.7656,490.2363 Q1118.1406,490.2363 1118.375,490.502 Q1118.6094,490.752 1118.6094,491.3613 L1118.6094,492.8145 Q1118.6094,493.4238 1118.375,493.6895 Q1118.1406,493.9551 1117.7656,493.9551 Q1117.4219,493.9551 1117.2188,493.752 Q1117.0156,493.5645 1116.9063,493.0488 Q1116.8594,492.6895 1116.6719,492.502 Q1116.3438,492.127 1115.7344,491.9082 Q1115.125,491.6895 1114.5,491.6895 Q1113.7344,491.6895 1113.0938,492.0176 Q1112.4688,492.3457 1111.9688,493.0957 Q1111.4844,493.8457 1111.4844,494.877 L1111.4844,495.9707 Q1111.4844,497.2051 1112.375,498.0332 Q1113.2656,498.8457 1114.8594,498.8457 Q1115.7969,498.8457 1116.4531,498.5957 Q1116.8438,498.4395 1117.2656,498.002 Q1117.5313,497.7363 1117.6719,497.6582 Q1117.8281,497.5801 1118.0313,497.5801 Q1118.3594,497.5801 1118.6094,497.8457 Q1118.875,498.0957 1118.875,498.4395 Q1118.875,498.7832 1118.5313,499.1895 Q1118.0313,499.7676 1117.2344,500.0957 Q1116.1563,500.5488 1114.8594,500.5488 Q1113.3438,500.5488 1112.1406,499.9238 Q1111.1563,499.4238 1110.4688,498.3613 Q1109.7813,497.2832 1109.7813,496.002 L1109.7813,494.8457 Q1109.7813,493.5176 1110.3906,492.377 Q1111.0156,491.2207 1112.1094,490.6113 Q1113.2031,489.9863 1114.4375,489.9863 Q1115.1719,489.9863 1115.8125,490.1582 Q1116.4688,490.3145 1117.0156,490.6738 Z " fill="#000000"/><text fill="#000000" font-family="Arial" font-size="12" font-style="italic" lengthAdjust="spacing" textLength="71" x="1132.75" y="492.2559">&#171;Aggregate&#187;</text><text fill="#000000" font-family="Arial" font-size="12" lengthAdjust="spacing" textLength="48" x="1144.25" y="506.0547">AuditLog</text><line style="stroke:#181818;stroke-width:0.5;" x1="1009" x2="1295" y1="513.5977" y2="513.5977"/><ellipse cx="1019" cy="525.9971" fill="none" rx="3" ry="3" style="stroke:#038048;stroke-width:1.0;"/><text fill="#000000" font-family="Arial" font-size="12" lengthAdjust="spacing" textLength="29" x="1028" y="528.8535">Id: int</text><ellipse cx="1019" cy="539.7959" fill="none" rx="3" ry="3" style="stroke:#038048;stroke-width:1.0;"/><text fill="#000000" font-family="Arial" font-size="12" lengthAdjust="spacing" textLength="98" x="1028" y="542.6523">OrganizationId: int</text><ellipse cx="1019" cy="553.5947" fill="none" rx="3" ry="3" style="stroke:#038048;stroke-width:1.0;"/><text fill="#000000" font-family="Arial" font-size="12" lengthAdjust="spacing" textLength="83" x="1028" y="556.4512">ActorUserId: int</text><ellipse cx="1019" cy="567.3936" fill="none" rx="3" ry="3" style="stroke:#038048;stroke-width:1.0;"/><text fill="#000000" font-family="Arial" font-size="12" lengthAdjust="spacing" textLength="114" x="1028" y="570.25">Type: EAuditLogType</text><ellipse cx="1019" cy="581.1924" fill="none" rx="3" ry="3" style="stroke:#038048;stroke-width:1.0;"/><text fill="#000000" font-family="Arial" font-size="12" lengthAdjust="spacing" textLength="125" x="1028" y="584.0488">Severity: EAuditSeverity</text><ellipse cx="1019" cy="594.9912" fill="none" rx="3" ry="3" style="stroke:#038048;stroke-width:1.0;"/><text fill="#000000" font-family="Arial" font-size="12" lengthAdjust="spacing" textLength="201" x="1028" y="597.8477">ResourceType: EAuditResourceType</text><ellipse cx="1019" cy="608.79" fill="none" rx="3" ry="3" style="stroke:#038048;stroke-width:1.0;"/><text fill="#000000" font-family="Arial" font-size="12" lengthAdjust="spacing" textLength="83" x="1028" y="611.6465">ResourceId: int</text><ellipse cx="1019" cy="622.5889" fill="none" rx="3" ry="3" style="stroke:#038048;stroke-width:1.0;"/><text fill="#000000" font-family="Arial" font-size="12" lengthAdjust="spacing" textLength="152" x="1028" y="625.4453">Source: EAuditActionSource</text><ellipse cx="1019" cy="636.3877" fill="none" rx="3" ry="3" style="stroke:#038048;stroke-width:1.0;"/><text fill="#000000" font-family="Arial" font-size="12" lengthAdjust="spacing" textLength="100" x="1028" y="639.2441">Description: string</text><line style="stroke:#181818;stroke-width:0.5;" x1="1009" x2="1295" y1="645.7871" y2="645.7871"/><ellipse cx="1019" cy="658.1865" fill="#84BE84" rx="3" ry="3" style="stroke:#038048;stroke-width:1.0;"/><text fill="#000000" font-family="Arial" font-size="12" lengthAdjust="spacing" textLength="56" x="1028" y="661.043">AuditLog()</text><ellipse cx="1019" cy="671.9854" fill="#84BE84" rx="3" ry="3" style="stroke:#038048;stroke-width:1.0;"/><text fill="#000000" font-family="Arial" font-size="12" lengthAdjust="spacing" textLength="262" x="1028" y="674.8418">AuditLog(command: CreateAuditLogCommand)</text></g><!--class EAuditLogType--><g id="elem_EAuditLogType"><rect codeLine="83" fill="#FDFDFD" height="288.1777" id="EAuditLogType" rx="2.5" ry="2.5" style="stroke:#181818;stroke-width:0.5;" width="162" x="570" y="801"/><ellipse cx="606.6" cy="819.7988" fill="#EB937F" rx="11" ry="11" style="stroke:#181818;stroke-width:1.0;"/><path d="M605.4594,820.5957 L605.4594,823.0957 L609.7875,823.0957 L609.7875,822.1738 Q609.7875,821.5645 610.0219,821.2988 Q610.2719,821.0332 610.6469,821.0332 Q611.0219,821.0332 611.2563,821.2988 Q611.4906,821.5645 611.4906,822.1738 L611.4906,824.7988 L603.4906,824.7988 Q602.8656,824.7988 602.6,824.5645 Q602.35,824.3301 602.35,823.9395 Q602.35,823.5645 602.6156,823.3301 Q602.8813,823.0957 603.4906,823.0957 L603.7563,823.0957 L603.7563,816.4395 L603.4906,816.4395 Q602.8656,816.4395 602.6,816.2051 Q602.35,815.9707 602.35,815.5801 Q602.35,815.2051 602.6,814.9707 Q602.8656,814.7363 603.4906,814.7363 L611.1156,814.7363 L611.1156,817.3301 Q611.1156,817.9395 610.8813,818.2051 Q610.6625,818.4551 610.2719,818.4551 Q609.8969,818.4551 609.6625,818.2051 Q609.4281,817.9395 609.4281,817.3301 L609.4281,816.4395 L605.4594,816.4395 L605.4594,818.8926 L606.9438,818.8926 Q606.9438,818.2363 607.0688,818.0488 Q607.3344,817.6426 607.8031,817.6426 Q608.1781,817.6426 608.4125,817.9082 Q608.6469,818.1582 608.6469,818.7676 L608.6469,820.7363 Q608.6469,821.2832 608.5219,821.4707 Q608.2563,821.8613 607.8031,821.8613 Q607.3344,821.8613 607.0688,821.4551 Q606.9438,821.2676 606.9438,820.5957 L605.4594,820.5957 Z " fill="#000000"/><text fill="#000000" font-family="Arial" font-size="12" font-style="italic" lengthAdjust="spacing" textLength="82" x="625.4" y="817.2559">&#171;ValueObject&#187;</text><text fill="#000000" font-family="Arial" font-size="12" lengthAdjust="spacing" textLength="82" x="625.4" y="831.0547">EAuditLogType</text><line style="stroke:#181818;stroke-width:0.5;" x1="571" x2="731" y1="838.5977" y2="838.5977"/><text fill="#000000" font-family="Arial" font-size="12" lengthAdjust="spacing" textLength="62" x="576" y="853.8535">UserInvited</text><text fill="#000000" font-family="Arial" font-size="12" lengthAdjust="spacing" textLength="104" x="576" y="867.6523">UserRoleChanged</text><text fill="#000000" font-family="Arial" font-size="12" lengthAdjust="spacing" textLength="76" x="576" y="881.4512">TeamCreated</text><text fill="#000000" font-family="Arial" font-size="12" lengthAdjust="spacing" textLength="79" x="576" y="895.25">TeamUpdated</text><text fill="#000000" font-family="Arial" font-size="12" lengthAdjust="spacing" textLength="75" x="576" y="909.0488">TeamDeleted</text><text fill="#000000" font-family="Arial" font-size="12" lengthAdjust="spacing" textLength="68" x="576" y="922.8477">AlertCreated</text><text fill="#000000" font-family="Arial" font-size="12" lengthAdjust="spacing" textLength="76" x="576" y="936.6465">AlertResolved</text><text fill="#000000" font-family="Arial" font-size="12" lengthAdjust="spacing" textLength="101" x="576" y="950.4453">AnomalyReviewed</text><text fill="#000000" font-family="Arial" font-size="12" lengthAdjust="spacing" textLength="91" x="576" y="964.2441">AnomalyCreated</text><text fill="#000000" font-family="Arial" font-size="12" lengthAdjust="spacing" textLength="133" x="576" y="978.043">PreventiveActionCreated</text><text fill="#000000" font-family="Arial" font-size="12" lengthAdjust="spacing" textLength="139" x="576" y="991.8418">PreventiveActionAccepted</text><text fill="#000000" font-family="Arial" font-size="12" lengthAdjust="spacing" textLength="150" x="576" y="1005.6406">PreventiveActionCompleted</text><text fill="#000000" font-family="Arial" font-size="12" lengthAdjust="spacing" textLength="69" x="576" y="1019.4395">ShiftCheckIn</text><text fill="#000000" font-family="Arial" font-size="12" lengthAdjust="spacing" textLength="117" x="576" y="1033.2383">SubscriptionActivated</text><text fill="#000000" font-family="Arial" font-size="12" lengthAdjust="spacing" textLength="95" x="576" y="1047.0371">ReportGenerated</text><text fill="#000000" font-family="Arial" font-size="12" lengthAdjust="spacing" textLength="95" x="576" y="1060.8359">SystemAccessed</text><text fill="#000000" font-family="Arial" font-size="12" lengthAdjust="spacing" textLength="149" x="576" y="1074.6348">RiskAssessmentEvaluated</text><line style="stroke:#181818;stroke-width:0.5;" x1="571" x2="731" y1="1081.1777" y2="1081.1777"/></g><!--class EAuditSeverity--><g id="elem_EAuditSeverity"><rect codeLine="103" fill="#FDFDFD" height="108.793" id="EAuditSeverity" rx="2.5" ry="2.5" style="stroke:#181818;stroke-width:0.5;" width="110" x="812" y="890.5"/><ellipse cx="827" cy="909.2988" fill="#EB937F" rx="11" ry="11" style="stroke:#181818;stroke-width:1.0;"/><path d="M825.8594,910.0957 L825.8594,912.5957 L830.1875,912.5957 L830.1875,911.6738 Q830.1875,911.0645 830.4219,910.7988 Q830.6719,910.5332 831.0469,910.5332 Q831.4219,910.5332 831.6563,910.7988 Q831.8906,911.0645 831.8906,911.6738 L831.8906,914.2988 L823.8906,914.2988 Q823.2656,914.2988 823,914.0645 Q822.75,913.8301 822.75,913.4395 Q822.75,913.0645 823.0156,912.8301 Q823.2813,912.5957 823.8906,912.5957 L824.1563,912.5957 L824.1563,905.9395 L823.8906,905.9395 Q823.2656,905.9395 823,905.7051 Q822.75,905.4707 822.75,905.0801 Q822.75,904.7051 823,904.4707 Q823.2656,904.2363 823.8906,904.2363 L831.5156,904.2363 L831.5156,906.8301 Q831.5156,907.4395 831.2813,907.7051 Q831.0625,907.9551 830.6719,907.9551 Q830.2969,907.9551 830.0625,907.7051 Q829.8281,907.4395 829.8281,906.8301 L829.8281,905.9395 L825.8594,905.9395 L825.8594,908.3926 L827.3438,908.3926 Q827.3438,907.7363 827.4688,907.5488 Q827.7344,907.1426 828.2031,907.1426 Q828.5781,907.1426 828.8125,907.4082 Q829.0469,907.6582 829.0469,908.2676 L829.0469,910.2363 Q829.0469,910.7832 828.9219,910.9707 Q828.6563,911.3613 828.2031,911.3613 Q827.7344,911.3613 827.4688,910.9551 Q827.3438,910.7676 827.3438,910.0957 L825.8594,910.0957 Z " fill="#000000"/><text fill="#000000" font-family="Arial" font-size="12" font-style="italic" lengthAdjust="spacing" textLength="82" x="839" y="906.7559">&#171;ValueObject&#187;</text><text fill="#000000" font-family="Arial" font-size="12" lengthAdjust="spacing" textLength="77" x="841.5" y="920.5547">EAuditSeverity</text><line style="stroke:#181818;stroke-width:0.5;" x1="813" x2="921" y1="928.0977" y2="928.0977"/><text fill="#000000" font-family="Arial" font-size="12" lengthAdjust="spacing" textLength="23" x="818" y="943.3535">Low</text><text fill="#000000" font-family="Arial" font-size="12" lengthAdjust="spacing" textLength="44" x="818" y="957.1523">Medium</text><text fill="#000000" font-family="Arial" font-size="12" lengthAdjust="spacing" textLength="26" x="818" y="970.9512">High</text><text fill="#000000" font-family="Arial" font-size="12" lengthAdjust="spacing" textLength="38" x="818" y="984.75">Critical</text><line style="stroke:#181818;stroke-width:0.5;" x1="813" x2="921" y1="991.293" y2="991.293"/></g><!--class EAuditResourceType--><g id="elem_EAuditResourceType"><rect codeLine="110" fill="#FDFDFD" height="177.7871" id="EAuditResourceType" rx="2.5" ry="2.5" style="stroke:#181818;stroke-width:0.5;" width="147" x="1002.5" y="856"/><ellipse cx="1017.5" cy="874.7988" fill="#EB937F" rx="11" ry="11" style="stroke:#181818;stroke-width:1.0;"/><path d="M1016.3594,875.5957 L1016.3594,878.0957 L1020.6875,878.0957 L1020.6875,877.1738 Q1020.6875,876.5645 1020.9219,876.2988 Q1021.1719,876.0332 1021.5469,876.0332 Q1021.9219,876.0332 1022.1563,876.2988 Q1022.3906,876.5645 1022.3906,877.1738 L1022.3906,879.7988 L1014.3906,879.7988 Q1013.7656,879.7988 1013.5,879.5645 Q1013.25,879.3301 1013.25,878.9395 Q1013.25,878.5645 1013.5156,878.3301 Q1013.7813,878.0957 1014.3906,878.0957 L1014.6563,878.0957 L1014.6563,871.4395 L1014.3906,871.4395 Q1013.7656,871.4395 1013.5,871.2051 Q1013.25,870.9707 1013.25,870.5801 Q1013.25,870.2051 1013.5,869.9707 Q1013.7656,869.7363 1014.3906,869.7363 L1022.0156,869.7363 L1022.0156,872.3301 Q1022.0156,872.9395 1021.7813,873.2051 Q1021.5625,873.4551 1021.1719,873.4551 Q1020.7969,873.4551 1020.5625,873.2051 Q1020.3281,872.9395 1020.3281,872.3301 L1020.3281,871.4395 L1016.3594,871.4395 L1016.3594,873.8926 L1017.8438,873.8926 Q1017.8438,873.2363 1017.9688,873.0488 Q1018.2344,872.6426 1018.7031,872.6426 Q1019.0781,872.6426 1019.3125,872.9082 Q1019.5469,873.1582 1019.5469,873.7676 L1019.5469,875.7363 Q1019.5469,876.2832 1019.4219,876.4707 Q1019.1563,876.8613 1018.7031,876.8613 Q1018.2344,876.8613 1017.9688,876.4551 Q1017.8438,876.2676 1017.8438,875.5957 L1016.3594,875.5957 Z " fill="#000000"/><text fill="#000000" font-family="Arial" font-size="12" font-style="italic" lengthAdjust="spacing" textLength="82" x="1048" y="872.2559">&#171;ValueObject&#187;</text><text fill="#000000" font-family="Arial" font-size="12" lengthAdjust="spacing" textLength="115" x="1031.5" y="886.0547">EAuditResourceType</text><line style="stroke:#181818;stroke-width:0.5;" x1="1003.5" x2="1148.5" y1="893.5977" y2="893.5977"/><text fill="#000000" font-family="Arial" font-size="12" lengthAdjust="spacing" textLength="27" x="1008.5" y="908.8535">User</text><text fill="#000000" font-family="Arial" font-size="12" lengthAdjust="spacing" textLength="69" x="1008.5" y="922.6523">Organization</text><text fill="#000000" font-family="Arial" font-size="12" lengthAdjust="spacing" textLength="59" x="1008.5" y="936.4512">CareTeam</text><text fill="#000000" font-family="Arial" font-size="12" lengthAdjust="spacing" textLength="64" x="1008.5" y="950.25">ShiftRecord</text><text fill="#000000" font-family="Arial" font-size="12" lengthAdjust="spacing" textLength="75" x="1008.5" y="964.0488">RecoveryPlan</text><text fill="#000000" font-family="Arial" font-size="12" lengthAdjust="spacing" textLength="89" x="1008.5" y="977.8477">PreventiveAction</text><text fill="#000000" font-family="Arial" font-size="12" lengthAdjust="spacing" textLength="65" x="1008.5" y="991.6465">ClinicalAlert</text><text fill="#000000" font-family="Arial" font-size="12" lengthAdjust="spacing" textLength="95" x="1008.5" y="1005.4453">VitalSignAnomaly</text><text fill="#000000" font-family="Arial" font-size="12" lengthAdjust="spacing" textLength="69" x="1008.5" y="1019.2441">Subscription</text><line style="stroke:#181818;stroke-width:0.5;" x1="1003.5" x2="1148.5" y1="1025.7871" y2="1025.7871"/></g><!--class EAuditActionSource--><g id="elem_EAuditActionSource"><rect codeLine="122" fill="#FDFDFD" height="136.3906" id="EAuditActionSource" rx="2.5" ry="2.5" style="stroke:#181818;stroke-width:0.5;" width="148" x="1230" y="877"/><ellipse cx="1249.05" cy="895.7988" fill="#EB937F" rx="11" ry="11" style="stroke:#181818;stroke-width:1.0;"/><path d="M1247.9094,896.5957 L1247.9094,899.0957 L1252.2375,899.0957 L1252.2375,898.1738 Q1252.2375,897.5645 1252.4719,897.2988 Q1252.7219,897.0332 1253.0969,897.0332 Q1253.4719,897.0332 1253.7063,897.2988 Q1253.9406,897.5645 1253.9406,898.1738 L1253.9406,900.7988 L1245.9406,900.7988 Q1245.3156,900.7988 1245.05,900.5645 Q1244.8,900.3301 1244.8,899.9395 Q1244.8,899.5645 1245.0656,899.3301 Q1245.3313,899.0957 1245.9406,899.0957 L1246.2063,899.0957 L1246.2063,892.4395 L1245.9406,892.4395 Q1245.3156,892.4395 1245.05,892.2051 Q1244.8,891.9707 1244.8,891.5801 Q1244.8,891.2051 1245.05,890.9707 Q1245.3156,890.7363 1245.9406,890.7363 L1253.5656,890.7363 L1253.5656,893.3301 Q1253.5656,893.9395 1253.3313,894.2051 Q1253.1125,894.4551 1252.7219,894.4551 Q1252.3469,894.4551 1252.1125,894.2051 Q1251.8781,893.9395 1251.8781,893.3301 L1251.8781,892.4395 L1247.9094,892.4395 L1247.9094,894.8926 L1249.3938,894.8926 Q1249.3938,894.2363 1249.5188,894.0488 Q1249.7844,893.6426 1250.2531,893.6426 Q1250.6281,893.6426 1250.8625,893.9082 Q1251.0969,894.1582 1251.0969,894.7676 L1251.0969,896.7363 Q1251.0969,897.2832 1250.9719,897.4707 Q1250.7063,897.8613 1250.2531,897.8613 Q1249.7844,897.8613 1249.5188,897.4551 Q1249.3938,897.2676 1249.3938,896.5957 L1247.9094,896.5957 Z " fill="#000000"/><text fill="#000000" font-family="Arial" font-size="12" font-style="italic" lengthAdjust="spacing" textLength="82" x="1276.45" y="893.2559">&#171;ValueObject&#187;</text><text fill="#000000" font-family="Arial" font-size="12" lengthAdjust="spacing" textLength="107" x="1263.95" y="907.0547">EAuditActionSource</text><line style="stroke:#181818;stroke-width:0.5;" x1="1231" x2="1377" y1="914.5977" y2="914.5977"/><text fill="#000000" font-family="Arial" font-size="12" lengthAdjust="spacing" textLength="21" x="1236" y="929.8535">Iam</text><text fill="#000000" font-family="Arial" font-size="12" lengthAdjust="spacing" textLength="136" x="1236" y="943.6523">ClinicalRiskAssessment</text><text fill="#000000" font-family="Arial" font-size="12" lengthAdjust="spacing" textLength="95" x="1236" y="957.4512">ShiftCoordination</text><text fill="#000000" font-family="Arial" font-size="12" lengthAdjust="spacing" textLength="74" x="1236" y="971.25">StaffRecovery</text><text fill="#000000" font-family="Arial" font-size="12" lengthAdjust="spacing" textLength="69" x="1236" y="985.0488">Subscription</text><text fill="#000000" font-family="Arial" font-size="12" lengthAdjust="spacing" textLength="41" x="1236" y="998.8477">System</text><line style="stroke:#181818;stroke-width:0.5;" x1="1231" x2="1377" y1="1005.3906" y2="1005.3906"/></g><!--class IAuditLogCommandService--><g id="elem_IAuditLogCommandService"><rect codeLine="131" fill="#FDFDFD" height="61.7988" id="IAuditLogCommandService" rx="2.5" ry="2.5" style="stroke:#181818;stroke-width:0.5;" width="499" x="902.5" y="294"/><ellipse cx="1071.25" cy="310" fill="#B4A7E5" rx="11" ry="11" style="stroke:#181818;stroke-width:1.0;"/><path d="M1072.2031,306.6406 L1072.2031,313.2969 L1073.9219,313.2969 Q1074.5313,313.2969 1074.7969,313.5313 Q1075.0625,313.7656 1075.0625,314.1563 Q1075.0625,314.5313 1074.7969,314.7656 Q1074.5313,315 1073.9219,315 L1068.7813,315 Q1068.1719,315 1067.9063,314.7656 Q1067.6406,314.5313 1067.6406,314.1406 Q1067.6406,313.7656 1067.9063,313.5313 Q1068.1719,313.2969 1068.7813,313.2969 L1070.5,313.2969 L1070.5,306.6406 L1068.7813,306.6406 Q1068.1719,306.6406 1067.9063,306.4063 Q1067.6406,306.1719 1067.6406,305.7813 Q1067.6406,305.4063 1067.9063,305.1719 Q1068.1719,304.9375 1068.7813,304.9375 L1073.9219,304.9375 Q1074.5313,304.9375 1074.7969,305.1719 Q1075.0625,305.4063 1075.0625,305.7813 Q1075.0625,306.1719 1074.7969,306.4063 Q1074.5313,306.6406 1073.9219,306.6406 L1072.2031,306.6406 Z " fill="#000000"/><text fill="#000000" font-family="Arial" font-size="12" font-style="italic" lengthAdjust="spacing" textLength="153" x="1091.75" y="314.3564">IAuditLogCommandService</text><line style="stroke:#181818;stroke-width:0.5;" x1="903.5" x2="1400.5" y1="326" y2="326"/><line style="stroke:#181818;stroke-width:0.5;" x1="903.5" x2="1400.5" y1="334" y2="334"/><ellipse cx="913.5" cy="346.3994" fill="#84BE84" rx="3" ry="3" style="stroke:#038048;stroke-width:1.0;"/><text fill="#000000" font-family="Arial" font-size="12" lengthAdjust="spacing" textLength="473" x="922.5" y="349.2559">Handle(command: CreateAuditLogCommand, ct: CancellationToken): Task&lt;AuditLog&gt;</text></g><!--class IAuditLogQueryService--><g id="elem_IAuditLogQueryService"><rect codeLine="134" fill="#FDFDFD" height="61.7988" id="IAuditLogQueryService" rx="2.5" ry="2.5" style="stroke:#181818;stroke-width:0.5;" width="533" x="289.5" y="294"/><ellipse cx="488.25" cy="310" fill="#B4A7E5" rx="11" ry="11" style="stroke:#181818;stroke-width:1.0;"/><path d="M489.2031,306.6406 L489.2031,313.2969 L490.9219,313.2969 Q491.5313,313.2969 491.7969,313.5313 Q492.0625,313.7656 492.0625,314.1563 Q492.0625,314.5313 491.7969,314.7656 Q491.5313,315 490.9219,315 L485.7813,315 Q485.1719,315 484.9063,314.7656 Q484.6406,314.5313 484.6406,314.1406 Q484.6406,313.7656 484.9063,313.5313 Q485.1719,313.2969 485.7813,313.2969 L487.5,313.2969 L487.5,306.6406 L485.7813,306.6406 Q485.1719,306.6406 484.9063,306.4063 Q484.6406,306.1719 484.6406,305.7813 Q484.6406,305.4063 484.9063,305.1719 Q485.1719,304.9375 485.7813,304.9375 L490.9219,304.9375 Q491.5313,304.9375 491.7969,305.1719 Q492.0625,305.4063 492.0625,305.7813 Q492.0625,306.1719 491.7969,306.4063 Q491.5313,306.6406 490.9219,306.6406 L489.2031,306.6406 Z " fill="#000000"/><text fill="#000000" font-family="Arial" font-size="12" font-style="italic" lengthAdjust="spacing" textLength="127" x="508.75" y="314.3564">IAuditLogQueryService</text><line style="stroke:#181818;stroke-width:0.5;" x1="290.5" x2="821.5" y1="326" y2="326"/><line style="stroke:#181818;stroke-width:0.5;" x1="290.5" x2="821.5" y1="334" y2="334"/><ellipse cx="300.5" cy="346.3994" fill="#84BE84" rx="3" ry="3" style="stroke:#038048;stroke-width:1.0;"/><text fill="#000000" font-family="Arial" font-size="12" lengthAdjust="spacing" textLength="507" x="309.5" y="349.2559">Handle(query: GetAllAuditLogsQuery, ct: CancellationToken): Task&lt;IEnumerable&lt;AuditLog&gt;&gt;</text></g><!--class AuditLogsController--><g id="elem_AuditLogsController"><rect codeLine="140" fill="#FDFDFD" height="89.3965" id="AuditLogsController" rx="2.5" ry="2.5" style="stroke:#181818;stroke-width:0.5;" width="512" x="589" y="85"/><ellipse cx="786.25" cy="101" fill="#ADD1B2" rx="11" ry="11" style="stroke:#181818;stroke-width:1.0;"/><path d="M789.0156,96.875 Q789.1719,96.6563 789.3594,96.5469 Q789.5469,96.4375 789.7656,96.4375 Q790.1406,96.4375 790.375,96.7031 Q790.6094,96.9531 790.6094,97.5625 L790.6094,99.0156 Q790.6094,99.625 790.375,99.8906 Q790.1406,100.1563 789.7656,100.1563 Q789.4219,100.1563 789.2188,99.9531 Q789.0156,99.7656 788.9063,99.25 Q788.8594,98.8906 788.6719,98.7031 Q788.3438,98.3281 787.7344,98.1094 Q787.125,97.8906 786.5,97.8906 Q785.7344,97.8906 785.0938,98.2188 Q784.4688,98.5469 783.9688,99.2969 Q783.4844,100.0469 783.4844,101.0781 L783.4844,102.1719 Q783.4844,103.4063 784.375,104.2344 Q785.2656,105.0469 786.8594,105.0469 Q787.7969,105.0469 788.4531,104.7969 Q788.8438,104.6406 789.2656,104.2031 Q789.5313,103.9375 789.6719,103.8594 Q789.8281,103.7813 790.0313,103.7813 Q790.3594,103.7813 790.6094,104.0469 Q790.875,104.2969 790.875,104.6406 Q790.875,104.9844 790.5313,105.3906 Q790.0313,105.9688 789.2344,106.2969 Q788.1563,106.75 786.8594,106.75 Q785.3438,106.75 784.1406,106.125 Q783.1563,105.625 782.4688,104.5625 Q781.7813,103.4844 781.7813,102.2031 L781.7813,101.0469 Q781.7813,99.7188 782.3906,98.5781 Q783.0156,97.4219 784.1094,96.8125 Q785.2031,96.1875 786.4375,96.1875 Q787.1719,96.1875 787.8125,96.3594 Q788.4688,96.5156 789.0156,96.875 Z " fill="#000000"/><text fill="#000000" font-family="Arial" font-size="12" lengthAdjust="spacing" textLength="109" x="806.75" y="105.3564">AuditLogsController</text><line style="stroke:#181818;stroke-width:0.5;" x1="590" x2="1100" y1="117" y2="117"/><line style="stroke:#181818;stroke-width:0.5;" x1="590" x2="1100" y1="125" y2="125"/><ellipse cx="600" cy="137.3994" fill="#84BE84" rx="3" ry="3" style="stroke:#038048;stroke-width:1.0;"/><text fill="#000000" font-family="Arial" font-size="12" lengthAdjust="spacing" textLength="486" x="609" y="140.2559">AuditLogsController(cmdSvc: IAuditLogCommandService, qrySvc: IAuditLogQueryService)</text><ellipse cx="600" cy="151.1982" fill="#84BE84" rx="3" ry="3" style="stroke:#038048;stroke-width:1.0;"/><text fill="#000000" font-family="Arial" font-size="12" lengthAdjust="spacing" textLength="228" x="609" y="154.0547">Create(resource, ct): Task&lt;IActionResult&gt;</text><ellipse cx="600" cy="164.9971" fill="#84BE84" rx="3" ry="3" style="stroke:#038048;stroke-width:1.0;"/><text fill="#000000" font-family="Arial" font-size="12" lengthAdjust="spacing" textLength="168" x="609" y="167.8535">GetAll(ct): Task&lt;IActionResult&gt;</text></g><!--class VitalSignReadingCommandService--><g id="elem_VitalSignReadingCommandService"><rect fill="#FDFDFD" height="48" id="VitalSignReadingCommandService" rx="2.5" ry="2.5" style="stroke:#181818;stroke-width:0.5;" width="226" x="7" y="105.5"/><ellipse cx="22" cy="121.5" fill="#ADD1B2" rx="11" ry="11" style="stroke:#181818;stroke-width:1.0;"/><path d="M24.7656,117.375 Q24.9219,117.1563 25.1094,117.0469 Q25.2969,116.9375 25.5156,116.9375 Q25.8906,116.9375 26.125,117.2031 Q26.3594,117.4531 26.3594,118.0625 L26.3594,119.5156 Q26.3594,120.125 26.125,120.3906 Q25.8906,120.6563 25.5156,120.6563 Q25.1719,120.6563 24.9688,120.4531 Q24.7656,120.2656 24.6563,119.75 Q24.6094,119.3906 24.4219,119.2031 Q24.0938,118.8281 23.4844,118.6094 Q22.875,118.3906 22.25,118.3906 Q21.4844,118.3906 20.8438,118.7188 Q20.2188,119.0469 19.7188,119.7969 Q19.2344,120.5469 19.2344,121.5781 L19.2344,122.6719 Q19.2344,123.9063 20.125,124.7344 Q21.0156,125.5469 22.6094,125.5469 Q23.5469,125.5469 24.2031,125.2969 Q24.5938,125.1406 25.0156,124.7031 Q25.2813,124.4375 25.4219,124.3594 Q25.5781,124.2813 25.7813,124.2813 Q26.1094,124.2813 26.3594,124.5469 Q26.625,124.7969 26.625,125.1406 Q26.625,125.4844 26.2813,125.8906 Q25.7813,126.4688 24.9844,126.7969 Q23.9063,127.25 22.6094,127.25 Q21.0938,127.25 19.8906,126.625 Q18.9063,126.125 18.2188,125.0625 Q17.5313,123.9844 17.5313,122.7031 L17.5313,121.5469 Q17.5313,120.2188 18.1406,119.0781 Q18.7656,117.9219 19.8594,117.3125 Q20.9531,116.6875 22.1875,116.6875 Q22.9219,116.6875 23.5625,116.8594 Q24.2188,117.0156 24.7656,117.375 Z " fill="#000000"/><text fill="#000000" font-family="Arial" font-size="12" lengthAdjust="spacing" textLength="194" x="36" y="125.8564">VitalSignReadingCommandService</text><line style="stroke:#181818;stroke-width:0.5;" x1="8" x2="232" y1="137.5" y2="137.5"/><line style="stroke:#181818;stroke-width:0.5;" x1="8" x2="232" y1="145.5" y2="145.5"/></g><!--class RiskAssessmentCommandService--><g id="elem_RiskAssessmentCommandService"><rect fill="#FDFDFD" height="48" id="RiskAssessmentCommandService" rx="2.5" ry="2.5" style="stroke:#181818;stroke-width:0.5;" width="226" x="1458" y="105.5"/><ellipse cx="1473" cy="121.5" fill="#ADD1B2" rx="11" ry="11" style="stroke:#181818;stroke-width:1.0;"/><path d="M1475.7656,117.375 Q1475.9219,117.1563 1476.1094,117.0469 Q1476.2969,116.9375 1476.5156,116.9375 Q1476.8906,116.9375 1477.125,117.2031 Q1477.3594,117.4531 1477.3594,118.0625 L1477.3594,119.5156 Q1477.3594,120.125 1477.125,120.3906 Q1476.8906,120.6563 1476.5156,120.6563 Q1476.1719,120.6563 1475.9688,120.4531 Q1475.7656,120.2656 1475.6563,119.75 Q1475.6094,119.3906 1475.4219,119.2031 Q1475.0938,118.8281 1474.4844,118.6094 Q1473.875,118.3906 1473.25,118.3906 Q1472.4844,118.3906 1471.8438,118.7188 Q1471.2188,119.0469 1470.7188,119.7969 Q1470.2344,120.5469 1470.2344,121.5781 L1470.2344,122.6719 Q1470.2344,123.9063 1471.125,124.7344 Q1472.0156,125.5469 1473.6094,125.5469 Q1474.5469,125.5469 1475.2031,125.2969 Q1475.5938,125.1406 1476.0156,124.7031 Q1476.2813,124.4375 1476.4219,124.3594 Q1476.5781,124.2813 1476.7813,124.2813 Q1477.1094,124.2813 1477.3594,124.5469 Q1477.625,124.7969 1477.625,125.1406 Q1477.625,125.4844 1477.2813,125.8906 Q1476.7813,126.4688 1475.9844,126.7969 Q1474.9063,127.25 1473.6094,127.25 Q1472.0938,127.25 1470.8906,126.625 Q1469.9063,126.125 1469.2188,125.0625 Q1468.5313,123.9844 1468.5313,122.7031 L1468.5313,121.5469 Q1468.5313,120.2188 1469.1406,119.0781 Q1469.7656,117.9219 1470.8594,117.3125 Q1471.9531,116.6875 1473.1875,116.6875 Q1473.9219,116.6875 1474.5625,116.8594 Q1475.2188,117.0156 1475.7656,117.375 Z " fill="#000000"/><text fill="#000000" font-family="Arial" font-size="12" lengthAdjust="spacing" textLength="194" x="1487" y="125.8564">RiskAssessmentCommandService</text><line style="stroke:#181818;stroke-width:0.5;" x1="1459" x2="1683" y1="137.5" y2="137.5"/><line style="stroke:#181818;stroke-width:0.5;" x1="1459" x2="1683" y1="145.5" y2="145.5"/></g><!--class Organization--><g id="elem_Organization"><rect fill="#FDFDFD" height="48" id="Organization" rx="2.5" ry="2.5" style="stroke:#181818;stroke-width:0.5;" width="101" x="1458.5" y="921"/><ellipse cx="1473.5" cy="937" fill="#ADD1B2" rx="11" ry="11" style="stroke:#181818;stroke-width:1.0;"/><path d="M1476.2656,932.875 Q1476.4219,932.6563 1476.6094,932.5469 Q1476.7969,932.4375 1477.0156,932.4375 Q1477.3906,932.4375 1477.625,932.7031 Q1477.8594,932.9531 1477.8594,933.5625 L1477.8594,935.0156 Q1477.8594,935.625 1477.625,935.8906 Q1477.3906,936.1563 1477.0156,936.1563 Q1476.6719,936.1563 1476.4688,935.9531 Q1476.2656,935.7656 1476.1563,935.25 Q1476.1094,934.8906 1475.9219,934.7031 Q1475.5938,934.3281 1474.9844,934.1094 Q1474.375,933.8906 1473.75,933.8906 Q1472.9844,933.8906 1472.3438,934.2188 Q1471.7188,934.5469 1471.2188,935.2969 Q1470.7344,936.0469 1470.7344,937.0781 L1470.7344,938.1719 Q1470.7344,939.4063 1471.625,940.2344 Q1472.5156,941.0469 1474.1094,941.0469 Q1475.0469,941.0469 1475.7031,940.7969 Q1476.0938,940.6406 1476.5156,940.2031 Q1476.7813,939.9375 1476.9219,939.8594 Q1477.0781,939.7813 1477.2813,939.7813 Q1477.6094,939.7813 1477.8594,940.0469 Q1478.125,940.2969 1478.125,940.6406 Q1478.125,940.9844 1477.7813,941.3906 Q1477.2813,941.9688 1476.4844,942.2969 Q1475.4063,942.75 1474.1094,942.75 Q1472.5938,942.75 1471.3906,942.125 Q1470.4063,941.625 1469.7188,940.5625 Q1469.0313,939.4844 1469.0313,938.2031 L1469.0313,937.0469 Q1469.0313,935.7188 1469.6406,934.5781 Q1470.2656,933.4219 1471.3594,932.8125 Q1472.4531,932.1875 1473.6875,932.1875 Q1474.4219,932.1875 1475.0625,932.3594 Q1475.7188,932.5156 1476.2656,932.875 Z " fill="#000000"/><text fill="#000000" font-family="Arial" font-size="12" lengthAdjust="spacing" textLength="69" x="1487.5" y="941.3564">Organization</text><line style="stroke:#181818;stroke-width:0.5;" x1="1459.5" x2="1558.5" y1="953" y2="953"/><line style="stroke:#181818;stroke-width:0.5;" x1="1459.5" x2="1558.5" y1="961" y2="961"/></g><!--class User--><g id="elem_User"><rect fill="#FDFDFD" height="48" id="User" rx="2.5" ry="2.5" style="stroke:#181818;stroke-width:0.5;" width="59" x="1639.5" y="921"/><ellipse cx="1654.5" cy="937" fill="#ADD1B2" rx="11" ry="11" style="stroke:#181818;stroke-width:1.0;"/><path d="M1657.2656,932.875 Q1657.4219,932.6563 1657.6094,932.5469 Q1657.7969,932.4375 1658.0156,932.4375 Q1658.3906,932.4375 1658.625,932.7031 Q1658.8594,932.9531 1658.8594,933.5625 L1658.8594,935.0156 Q1658.8594,935.625 1658.625,935.8906 Q1658.3906,936.1563 1658.0156,936.1563 Q1657.6719,936.1563 1657.4688,935.9531 Q1657.2656,935.7656 1657.1563,935.25 Q1657.1094,934.8906 1656.9219,934.7031 Q1656.5938,934.3281 1655.9844,934.1094 Q1655.375,933.8906 1654.75,933.8906 Q1653.9844,933.8906 1653.3438,934.2188 Q1652.7188,934.5469 1652.2188,935.2969 Q1651.7344,936.0469 1651.7344,937.0781 L1651.7344,938.1719 Q1651.7344,939.4063 1652.625,940.2344 Q1653.5156,941.0469 1655.1094,941.0469 Q1656.0469,941.0469 1656.7031,940.7969 Q1657.0938,940.6406 1657.5156,940.2031 Q1657.7813,939.9375 1657.9219,939.8594 Q1658.0781,939.7813 1658.2813,939.7813 Q1658.6094,939.7813 1658.8594,940.0469 Q1659.125,940.2969 1659.125,940.6406 Q1659.125,940.9844 1658.7813,941.3906 Q1658.2813,941.9688 1657.4844,942.2969 Q1656.4063,942.75 1655.1094,942.75 Q1653.5938,942.75 1652.3906,942.125 Q1651.4063,941.625 1650.7188,940.5625 Q1650.0313,939.4844 1650.0313,938.2031 L1650.0313,937.0469 Q1650.0313,935.7188 1650.6406,934.5781 Q1651.2656,933.4219 1652.3594,932.8125 Q1653.4531,932.1875 1654.6875,932.1875 Q1655.4219,932.1875 1656.0625,932.3594 Q1656.7188,932.5156 1657.2656,932.875 Z " fill="#000000"/><text fill="#000000" font-family="Arial" font-size="12" lengthAdjust="spacing" textLength="27" x="1668.5" y="941.3564">User</text><line style="stroke:#181818;stroke-width:0.5;" x1="1640.5" x2="1697.5" y1="953" y2="953"/><line style="stroke:#181818;stroke-width:0.5;" x1="1640.5" x2="1697.5" y1="961" y2="961"/></g><!--link BaseRepository to AppDbContext--><g id="link_BaseRepository_AppDbContext"><path codeLine="62" d="M3826,644.02 C3826,720.62 3826,838.79 3826,900.98 " fill="none" id="BaseRepository-to-AppDbContext" style="stroke:#555555;stroke-width:1.5;stroke-dasharray:7.0,7.0;"/><polygon fill="#555555" points="3826,906.98,3830,897.98,3826,901.98,3822,897.98,3826,906.98" style="stroke:#555555;stroke-width:1.5;"/><text fill="#000000" font-family="Arial" font-size="13" lengthAdjust="spacing" textLength="70" x="3755" y="772.6938">dependency</text></g><!--link UnitOfWork to AppDbContext--><g id="link_UnitOfWork_AppDbContext"><path codeLine="63" d="M3583.5,616.68 C3583.5,687.09 3583.5,830.56 3583.5,900.9 " fill="none" id="UnitOfWork-to-AppDbContext" style="stroke:#555555;stroke-width:1.5;stroke-dasharray:7.0,7.0;"/><polygon fill="#555555" points="3583.5,906.9,3587.5,897.9,3583.5,901.9,3579.5,897.9,3583.5,906.9" style="stroke:#555555;stroke-width:1.5;"/><text fill="#000000" font-family="Arial" font-size="13" lengthAdjust="spacing" textLength="70" x="3512.5" y="758.9838">dependency</text></g><!--link AuditLogsController to IAuditLogCommandService--><g id="link_AuditLogsController_IAuditLogCommandService"><path codeLine="147" d="M1034.83,174.35 C1034.83,210.88 1034.83,255.5 1034.83,287.76 " fill="none" id="AuditLogsController-to-IAuditLogCommandService" style="stroke:#555555;stroke-width:1.5;stroke-dasharray:7.0,7.0;"/><polygon fill="#555555" points="1034.83,293.76,1038.83,284.76,1034.83,288.76,1030.83,284.76,1034.83,293.76" style="stroke:#555555;stroke-width:1.5;"/><text fill="#000000" font-family="Arial" font-size="13" lengthAdjust="spacing" textLength="70" x="963.83" y="231.2438">dependency</text></g><!--link AuditLogsController to IAuditLogQueryService--><g id="link_AuditLogsController_IAuditLogQueryService"><path codeLine="148" d="M705.75,174.35 C705.75,210.88 705.75,255.5 705.75,287.76 " fill="none" id="AuditLogsController-to-IAuditLogQueryService" style="stroke:#555555;stroke-width:1.5;stroke-dasharray:7.0,7.0;"/><polygon fill="#555555" points="705.75,293.76,709.75,284.76,705.75,288.76,701.75,284.76,705.75,293.76" style="stroke:#555555;stroke-width:1.5;"/><text fill="#000000" font-family="Arial" font-size="13" lengthAdjust="spacing" textLength="70" x="634.75" y="231.2438">dependency</text></g><!--link AuditLog to EAuditLogType--><g id="link_AuditLog_EAuditLogType"><path codeLine="151" d="M1055.17,681.11 C1055.17,750.29 1055.17,829 1055.17,829 C1055.17,829 856.33,829 738.3,829 " fill="none" id="AuditLog-to-EAuditLogType" style="stroke:#555555;stroke-width:1.5;stroke-dasharray:7.0,7.0;"/><polygon fill="#555555" points="732.3,829,741.3,833,737.3,829,741.3,825,732.3,829" style="stroke:#555555;stroke-width:1.5;"/><polygon fill="#000000" points="925.1492,823.589,934.5885,822.4267,932.1026,817.1004,925.1492,823.589" style="stroke:#000000;stroke-width:1.0;"/><text fill="#000000" font-family="Arial" font-size="13" lengthAdjust="spacing" textLength="28" x="938.68" y="826.1938">uses</text></g><!--link AuditLog to EAuditSeverity--><g id="link_AuditLog_EAuditSeverity"><path codeLine="152" d="M1007.69,613 C956.92,613 912.25,613 912.25,613 C912.25,613 912.25,789.88 912.25,884.18 " fill="none" id="AuditLog-to-EAuditSeverity" style="stroke:#555555;stroke-width:1.5;stroke-dasharray:7.0,7.0;"/><polygon fill="#555555" points="912.25,890.18,916.25,881.18,912.25,885.18,908.25,881.18,912.25,890.18" style="stroke:#555555;stroke-width:1.5;"/><polygon fill="#000000" points="872.5901,701.0608,878.3651,693.5044,872.8207,691.553,872.5901,701.0608" style="stroke:#000000;stroke-width:1.0;"/><text fill="#000000" font-family="Arial" font-size="13" lengthAdjust="spacing" textLength="28" x="883.25" y="701.0638">uses</text></g><!--link AuditLog to EAuditResourceType--><g id="link_AuditLog_EAuditResourceType"><path codeLine="153" d="M1102.33,681.08 C1102.33,736.03 1102.33,797.08 1102.33,849.84 " fill="none" id="AuditLog-to-EAuditResourceType" style="stroke:#555555;stroke-width:1.5;stroke-dasharray:7.0,7.0;"/><polygon fill="#555555" points="1102.33,855.84,1106.33,846.84,1102.33,850.84,1098.33,846.84,1102.33,855.84" style="stroke:#555555;stroke-width:1.5;"/><polygon fill="#000000" points="1064.33,765.9344,1067.2689,756.8893,1061.3911,756.8893,1064.33,765.9344" style="stroke:#000000;stroke-width:1.0;"/><text fill="#000000" font-family="Arial" font-size="13" lengthAdjust="spacing" textLength="28" x="1073.33" y="765.6538">uses</text></g><!--link AuditLog to EAuditActionSource--><g id="link_AuditLog_EAuditActionSource"><path codeLine="154" d="M1263,681.08 C1263,743.65 1263,815.91 1263,870.91 " fill="none" id="AuditLog-to-EAuditActionSource" style="stroke:#555555;stroke-width:1.5;stroke-dasharray:7.0,7.0;"/><polygon fill="#555555" points="1263,876.91,1267,867.91,1263,871.91,1259,867.91,1263,876.91" style="stroke:#555555;stroke-width:1.5;"/><polygon fill="#000000" points="1225,776.4644,1227.9389,767.4193,1222.0611,767.4193,1225,776.4644" style="stroke:#000000;stroke-width:1.0;"/><text fill="#000000" font-family="Arial" font-size="13" lengthAdjust="spacing" textLength="28" x="1234" y="776.1838">uses</text></g><!--link IAuditLogCommandService to AuditLog--><g id="link_IAuditLogCommandService_AuditLog"><path codeLine="155" d="M1152,356.08 C1152,385.96 1152,426.8 1152,469.8 " fill="none" id="IAuditLogCommandService-to-AuditLog" style="stroke:#555555;stroke-width:1.5;stroke-dasharray:7.0,7.0;"/><polygon fill="#555555" points="1152,475.8,1156,466.8,1152,470.8,1148,466.8,1152,475.8" style="stroke:#555555;stroke-width:1.5;"/><polygon fill="#000000" points="1114,413.4144,1116.9389,404.3693,1111.0611,404.3693,1114,413.4144" style="stroke:#000000;stroke-width:1.0;"/><text fill="#000000" font-family="Arial" font-size="13" lengthAdjust="spacing" textLength="28" x="1123" y="413.1338">uses</text></g><!--link IAuditLogQueryService to AuditLog--><g id="link_IAuditLogQueryService_AuditLog"><path codeLine="156" d="M817.25,356.05 C817.25,416.7 817.25,545 817.25,545 C817.25,545 911.01,545 1001.61,545 " fill="none" id="IAuditLogQueryService-to-AuditLog" style="stroke:#555555;stroke-width:1.5;stroke-dasharray:7.0,7.0;"/><polygon fill="#555555" points="1007.61,545,998.61,541,1002.61,545,998.61,549,1007.61,545" style="stroke:#555555;stroke-width:1.5;"/><polygon fill="#000000" points="783.4518,541.0531,779.2386,532.5267,775.0315,536.6315,783.4518,541.0531" style="stroke:#000000;stroke-width:1.0;"/><text fill="#000000" font-family="Arial" font-size="13" lengthAdjust="spacing" textLength="28" x="788.96" y="542.1938">uses</text></g><!--link VitalSignReadingCommandService to IAuditLogCommandService--><g id="link_VitalSignReadingCommandService_IAuditLogCommandService"><path codeLine="161" d="M120,153.74 C120,184.61 120,234 120,234 C120,234 968.67,234 968.67,234 C968.67,234 968.67,261.58 968.67,287.94 " fill="none" id="VitalSignReadingCommandService-to-IAuditLogCommandService" style="stroke:#555555;stroke-width:1.5;stroke-dasharray:7.0,7.0;"/><polygon fill="#555555" points="968.67,293.94,972.67,284.94,968.67,288.94,964.67,284.94,968.67,293.94" style="stroke:#555555;stroke-width:1.5;"/><text fill="#000000" font-family="Arial" font-size="13" lengthAdjust="spacing" textLength="70" x="463.17" y="231.1938">dependency</text></g><!--link RiskAssessmentCommandService to IAuditLogCommandService--><g id="link_RiskAssessmentCommandService_IAuditLogCommandService"><path codeLine="162" d="M1525.83,153.86 C1525.83,206.27 1525.83,325 1525.83,325 C1525.83,325 1476.07,325 1407.61,325 " fill="none" id="RiskAssessmentCommandService-to-IAuditLogCommandService" style="stroke:#555555;stroke-width:1.5;stroke-dasharray:7.0,7.0;"/><polygon fill="#555555" points="1401.61,325,1410.61,329,1406.61,325,1410.61,321,1401.61,325" style="stroke:#555555;stroke-width:1.5;"/><text fill="#000000" font-family="Arial" font-size="13" lengthAdjust="spacing" textLength="70" x="1454.83" y="298.7338">dependency</text></g><!--link AuditLog to IAuditableEntity--><g id="link_AuditLog_IAuditableEntity"><path codeLine="163" d="M1296,654 C1505.6,654 1870,654 1870,654 C1870,654 1870,806.14 1870,886.23 " fill="none" id="AuditLog-to-IAuditableEntity" style="stroke:#555555;stroke-width:1.5;stroke-dasharray:7.0,7.0;"/><polygon fill="none" points="1870,904.23,1876,886.23,1864,886.23,1870,904.23" style="stroke:#555555;stroke-width:1.5;"/><text fill="#000000" font-family="Arial" font-size="13" lengthAdjust="spacing" textLength="67" x="1640.12" y="651.1938">implements</text></g><!--link AuditLog to Organization--><g id="link_AuditLog_Organization"><path codeLine="167" d="M1296.26,672 C1388.97,672 1492.17,672 1492.17,672 C1492.17,672 1492.17,847.96 1492.17,914.77 " fill="none" id="AuditLog-to-Organization" style="stroke:#555555;stroke-width:1.5;"/><polygon fill="#555555" points="1492.17,920.77,1496.17,911.77,1492.17,915.77,1488.17,911.77,1492.17,920.77" style="stroke:#555555;stroke-width:1.5;"/><polygon fill="#000000" points="1425.31,694.7954,1421.9168,685.9108,1417.3426,689.6021,1425.31,694.7954" style="stroke:#000000;stroke-width:1.0;"/><text fill="#000000" font-family="Arial" font-size="13" lengthAdjust="spacing" textLength="60" x="1431.17" y="695.6238">references</text></g><!--link AuditLog to User--><g id="link_AuditLog_User"><path codeLine="168" d="M1296.03,663 C1446.77,663 1661.75,663 1661.75,663 C1661.75,663 1661.75,846.76 1661.75,914.96 " fill="none" id="AuditLog-to-User" style="stroke:#555555;stroke-width:1.5;"/><polygon fill="#555555" points="1661.75,920.96,1665.75,911.96,1661.75,915.96,1657.75,911.96,1661.75,920.96" style="stroke:#555555;stroke-width:1.5;"/><polygon fill="#000000" points="1541.9874,658.311,1536.2063,650.7593,1532.8716,655.5996,1541.9874,658.311" style="stroke:#000000;stroke-width:1.0;"/><text fill="#000000" font-family="Arial" font-size="13" lengthAdjust="spacing" textLength="60" x="1546.87" y="660.1938">references</text></g><!--link BaseRepository to IBaseRepository--><g id="link_BaseRepository_IBaseRepository"><path codeLine="172" d="M3772.5,644.11 C3772.5,737.34 3772.5,897 3772.5,897 C3772.5,897 3118.72,897 2783.16,897 " fill="none" id="BaseRepository-to-IBaseRepository" style="stroke:#555555;stroke-width:1.5;stroke-dasharray:7.0,7.0;"/><polygon fill="none" points="2765.16,897,2783.16,903,2783.16,891,2765.16,897" style="stroke:#555555;stroke-width:1.5;"/><text fill="#000000" font-family="Arial" font-size="13" lengthAdjust="spacing" textLength="67" x="3327.27" y="894.1938">implements</text></g><!--link UnitOfWork to IUnitOfWork--><g id="link_UnitOfWork_IUnitOfWork"><path codeLine="173" d="M3367.33,613 C3029.37,613 2177,613 2177,613 C2177,613 2177,813.12 2177,895.77 " fill="none" id="UnitOfWork-to-IUnitOfWork" style="stroke:#555555;stroke-width:1.5;stroke-dasharray:7.0,7.0;"/><polygon fill="none" points="2177,913.77,2183,895.77,2171,895.77,2177,913.77" style="stroke:#555555;stroke-width:1.5;"/><text fill="#000000" font-family="Arial" font-size="13" lengthAdjust="spacing" textLength="67" x="2553.78" y="610.1938">implements</text></g><!--SRC=[xLXjazes4FxEhz2aCmqtlSiacMGcPQvaZ84SwVL8CPUs7tNsObHioP5aKjBcltVb5x2n34wRVYlvG4xxxEhHQj-4sZ2UK4bZ4Z4EUfS04LAlHK_j1GdrDpG4J-yY819yJNaOGGN0HG0A4lBgQMLHKhunYy-ULrS3MD4qqbF1zHsDWJYIqQWYzoEgb95wx1EGPo-EHOxMaZsa6WwOvnKCbL9yNAwPl-6W57dsvEMnq1MHaEIRbzddsFe8JnfAaVAWW4s35Vvh-g89V3fzCNrb0GePW2n0BvpldqwUzte4Fu_93__qK-ZFxjvEtELaJBmRPu5Ve_dztHY_tVdTSlBhygliKfo2FFBML490HkR8-EsYz-4F_OXGHGhHdvb2JMaiOifu1PGlLA3cmz2KN54Vo6n45ImW4Off8NVNomdNJE-6HmhcyvqJ18xQSRyF6MP02l0byVM0k9Jx44LKCy6NOWFy0W5KRPfsfem7ezsiCCQ2WU5psaZ9w_MmQUu-2QY6OrAek1KiQC8N48jjT_WjKpedUfBVRCBJ62HzY63lmphNpxssAxZdJCzNlmYviNdT5N4IWORp93fkvwG1quPeJfDSNvTyhTjBGEy63kuxnlyiMGpprKg1Vjrs4sUndtiMali8dl6Lf4hBrDUfX4eaPu8ZYba98KwIZ1-A_B06RaNU5udncqAAvT8yNxckmeONJJCUtOAxnaeCgaD4eCTF1a1E_GlIhmxj-pdHGUtq5_zdxN-QjVcbdKxOWxJp7NsT72-IePxUCvFuFYGOCpQo6DECXxMeXYrw6VENNkBaeN1oC9UCsx-dKGgvsqgRI6wHGR9e7vxFydeCaoTFXlNa7U2qaW3sE-xlzaeLTvzNmCtgRJJp1_cMP3vcngtMbfh1HkwPdfgXh2srulnR4M9HTS9GGeWnRg-h9R9_SKBcYpYc75CjhyBbkfilMpHdULes1NCPKiu-PV7K2d9yl9Lx1R8LiSHXTK0c9H7pfoMcC89abgOviFpRbjLAf1X9LRFLjNQDLePU9YwDuOdmmFbQ4pi6vKkMXV60OCl1J3YLNu35edvslEOiA-OFl-ECRhtep9ryox0lMcKB4HLDfIbV0esB_ckL5VtMAXk3AIXDcHE1r6r6Cw5nSRIrIJa6VhHRm9R1ntPvc_5tCgiiR0lvhNJ5ERufDLqC5bMqYVJMRANTDVYR6MyAquTz61X3MoihKxMaVWCSsuLrYvtI41kkIjdKcTeuA54gHigJBKPDmqnxk9KPr27URiN7njfF4B0qRYpVi73TM7Hn7-RZ0x4RisgsTio6ncArDZNvuEXdujb-fmlmyRLdkImVfmMvUnTHVZPicblYizou8Ck6XlGzTjV8Oo4lmlraF7NqOhLCTV3YpEAEadGzq5eoGQ3J6BSxtDDqjIeTsFrmXnpuacV8ePbv8BSCrosjyWR54PnfXcScqHBTDgEqaFivHIUSf_R1m0Ra3MWdYafTbIcVuLMTGFSSXr_qN2f8gyE0SbWxEQGeC_z84M6OdvfGAh2-7mVUrX-qtTub-O3kgW6g7hneUrxsPL56Yb4pTqsU5Vc0QNb1vDxkTrAm-j3c1pDWjeMcTJWzQwGMGZKJUnkFqOeMLs7PN0uWXbUe1KdoaaLMaS0Guc5-aIZh5nJL9J7x8FoIb2LPNJH8Pipg4yo0fCRGy1HsttwwW6iTeOj2hVWr5Dek8ti9bCRQjMhUj-lqAc7ncBYBkUTTPJ_iEOlVo69owondypllPlRE8zFvWYnlPXuPkRrQBrW03SmxgicnSp3L2_U_iLJnyL_3vkyzE3YRESdiedhbiOy2C8TUuLgX924lNchD4Wox1tp71KHmCXKIyFpaHzZPuktgQbXhxxYvX1L8v6eF2wDWXeHZuFvwX3G_X-FcZ9jVpm_4gdaIfFZKy_4agcTzTHgt72tMlD9uTHg5oa8D_3S0]--></g></svg>