<?xml version="1.0" encoding="us-ascii" standalone="no"?><svg xmlns="http://www.w3.org/2000/svg" xmlns:xlink="http://www.w3.org/1999/xlink" contentStyleType="text/css" height="1580px" preserveAspectRatio="none" style="width:2572px;height:1580px;background:#FFFFFF;" version="1.1" viewBox="0 0 2572 1580" width="2572px" zoomAndPan="magnify"><defs/><g><!--cluster shared--><g id="cluster_shared"><rect fill="none" height="710.5" rx="2.5" ry="2.5" style="stroke:#000000;stroke-width:1.5;" width="811" x="7" y="7"/><text fill="#000000" font-family="sans-serif" font-size="14" font-weight="bold" lengthAdjust="spacing" textLength="177" x="324" y="23.5332">Shared Bounded Context</text></g><!--cluster shared_infrastructure--><g id="cluster_shared_infrastructure"><rect fill="none" height="111" rx="2.5" ry="2.5" style="stroke:#000000;stroke-width:1.5;" width="332" x="462" y="95"/><text fill="#000000" font-family="sans-serif" font-size="14" font-weight="bold" lengthAdjust="spacing" textLength="97" x="579.5" y="111.5332">Infrastructure</text></g><!--cluster shared_presentation--><g id="cluster_shared_presentation"><rect fill="none" height="642.5" rx="2.5" ry="2.5" style="stroke:#000000;stroke-width:1.5;" width="407" x="31" y="51"/><text fill="#000000" font-family="sans-serif" font-size="14" font-weight="bold" lengthAdjust="spacing" textLength="90" x="189.5" y="67.5332">Presentation</text></g><!--cluster shared_components--><g id="cluster_shared_components"><rect fill="none" height="574.5" rx="2.5" ry="2.5" style="stroke:#000000;stroke-width:1.5;" width="359" x="55" y="95"/><text fill="#000000" font-family="sans-serif" font-size="14" font-weight="bold" lengthAdjust="spacing" textLength="89" x="190" y="111.5332">Components</text></g><!--cluster clinical_risk--><g id="cluster_clinical_risk"><rect fill="none" height="1344" rx="2.5" ry="2.5" style="stroke:#000000;stroke-width:1.5;" width="1724" x="842" y="230"/><text fill="#000000" font-family="sans-serif" font-size="14" font-weight="bold" lengthAdjust="spacing" textLength="301" x="1553.5" y="246.5332">Clinical Risk Assessment Bounded Context</text></g><!--cluster clinical_domain--><g id="cluster_clinical_domain"><rect fill="none" height="712.5" rx="2.5" ry="2.5" style="stroke:#000000;stroke-width:1.5;" width="394" x="1596" y="837.5"/><text fill="#000000" font-family="sans-serif" font-size="14" font-weight="bold" lengthAdjust="spacing" textLength="52" x="1767" y="854.0332">Domain</text></g><!--cluster clinical_infrastructure--><g id="cluster_clinical_infrastructure"><rect fill="none" height="258" rx="2.5" ry="2.5" style="stroke:#000000;stroke-width:1.5;" width="286" x="2175" y="808"/><text fill="#000000" font-family="sans-serif" font-size="14" font-weight="bold" lengthAdjust="spacing" textLength="97" x="2269.5" y="824.5332">Infrastructure</text></g><!--cluster clinical_application--><g id="cluster_clinical_application"><rect fill="none" height="340" rx="2.5" ry="2.5" style="stroke:#000000;stroke-width:1.5;" width="496" x="1441" y="444"/><text fill="#000000" font-family="sans-serif" font-size="14" font-weight="bold" lengthAdjust="spacing" textLength="78" x="1650" y="460.5332">Application</text></g><!--cluster clinical_presentation--><g id="cluster_clinical_presentation"><rect fill="none" height="146" rx="2.5" ry="2.5" style="stroke:#000000;stroke-width:1.5;" width="1676" x="866" y="274"/><text fill="#000000" font-family="sans-serif" font-size="14" font-weight="bold" lengthAdjust="spacing" textLength="90" x="1659" y="290.5332">Presentation</text></g><!--class BaseEndpoint--><g id="elem_BaseEndpoint"><rect codeLine="8" fill="#F1F1F1" height="48" id="BaseEndpoint" rx="2.5" ry="2.5" style="stroke:#181818;stroke-width:0.5;" width="120" x="658" y="136.5"/><ellipse cx="673" cy="152.5" fill="#ADD1B2" rx="11" ry="11" style="stroke:#181818;stroke-width:1.0;"/><path d="M675.7656,148.375 Q675.9219,148.1563 676.1094,148.0469 Q676.2969,147.9375 676.5156,147.9375 Q676.8906,147.9375 677.125,148.2031 Q677.3594,148.4531 677.3594,149.0625 L677.3594,150.5156 Q677.3594,151.125 677.125,151.3906 Q676.8906,151.6563 676.5156,151.6563 Q676.1719,151.6563 675.9688,151.4531 Q675.7656,151.2656 675.6563,150.75 Q675.6094,150.3906 675.4219,150.2031 Q675.0938,149.8281 674.4844,149.6094 Q673.875,149.3906 673.25,149.3906 Q672.4844,149.3906 671.8438,149.7188 Q671.2188,150.0469 670.7188,150.7969 Q670.2344,151.5469 670.2344,152.5781 L670.2344,153.6719 Q670.2344,154.9063 671.125,155.7344 Q672.0156,156.5469 673.6094,156.5469 Q674.5469,156.5469 675.2031,156.2969 Q675.5938,156.1406 676.0156,155.7031 Q676.2813,155.4375 676.4219,155.3594 Q676.5781,155.2813 676.7813,155.2813 Q677.1094,155.2813 677.3594,155.5469 Q677.625,155.7969 677.625,156.1406 Q677.625,156.4844 677.2813,156.8906 Q676.7813,157.4688 675.9844,157.7969 Q674.9063,158.25 673.6094,158.25 Q672.0938,158.25 670.8906,157.625 Q669.9063,157.125 669.2188,156.0625 Q668.5313,154.9844 668.5313,153.7031 L668.5313,152.5469 Q668.5313,151.2188 669.1406,150.0781 Q669.7656,148.9219 670.8594,148.3125 Q671.9531,147.6875 673.1875,147.6875 Q673.9219,147.6875 674.5625,147.8594 Q675.2188,148.0156 675.7656,148.375 Z " fill="#000000"/><text fill="#000000" font-family="sans-serif" font-size="14" lengthAdjust="spacing" textLength="88" x="687" y="158.2285">BaseEndpoint</text><line style="stroke:#181818;stroke-width:0.5;" x1="659" x2="777" y1="168.5" y2="168.5"/><line style="stroke:#181818;stroke-width:0.5;" x1="659" x2="777" y1="176.5" y2="176.5"/></g><!--class Http--><g id="elem_Http"><rect codeLine="10" fill="#F1F1F1" height="58.7031" id="Http" rx="2.5" ry="2.5" style="stroke:#181818;stroke-width:0.5;" width="119" x="478.5" y="131"/><ellipse cx="493.5" cy="152.3516" fill="#ADD1B2" rx="11" ry="11" style="stroke:#181818;stroke-width:1.0;"/><path d="M496.2656,148.2266 Q496.4219,148.0078 496.6094,147.8984 Q496.7969,147.7891 497.0156,147.7891 Q497.3906,147.7891 497.625,148.0547 Q497.8594,148.3047 497.8594,148.9141 L497.8594,150.3672 Q497.8594,150.9766 497.625,151.2422 Q497.3906,151.5078 497.0156,151.5078 Q496.6719,151.5078 496.4688,151.3047 Q496.2656,151.1172 496.1563,150.6016 Q496.1094,150.2422 495.9219,150.0547 Q495.5938,149.6797 494.9844,149.4609 Q494.375,149.2422 493.75,149.2422 Q492.9844,149.2422 492.3438,149.5703 Q491.7188,149.8984 491.2188,150.6484 Q490.7344,151.3984 490.7344,152.4297 L490.7344,153.5234 Q490.7344,154.7578 491.625,155.5859 Q492.5156,156.3984 494.1094,156.3984 Q495.0469,156.3984 495.7031,156.1484 Q496.0938,155.9922 496.5156,155.5547 Q496.7813,155.2891 496.9219,155.2109 Q497.0781,155.1328 497.2813,155.1328 Q497.6094,155.1328 497.8594,155.3984 Q498.125,155.6484 498.125,155.9922 Q498.125,156.3359 497.7813,156.7422 Q497.2813,157.3203 496.4844,157.6484 Q495.4063,158.1016 494.1094,158.1016 Q492.5938,158.1016 491.3906,157.4766 Q490.4063,156.9766 489.7188,155.9141 Q489.0313,154.8359 489.0313,153.5547 L489.0313,152.3984 Q489.0313,151.0703 489.6406,149.9297 Q490.2656,148.7734 491.3594,148.1641 Q492.4531,147.5391 493.6875,147.5391 Q494.4219,147.5391 495.0625,147.7109 Q495.7188,147.8672 496.2656,148.2266 Z " fill="#000000"/><text fill="#000000" font-family="sans-serif" font-size="12" font-style="italic" lengthAdjust="spacing" textLength="91" x="505.5" y="148.457">&#171;AxiosInstance&#187;</text><text fill="#000000" font-family="sans-serif" font-size="14" lengthAdjust="spacing" textLength="25" x="538.5" y="165.627">Http</text><line style="stroke:#181818;stroke-width:0.5;" x1="479.5" x2="596.5" y1="173.7031" y2="173.7031"/><line style="stroke:#181818;stroke-width:0.5;" x1="479.5" x2="596.5" y1="181.7031" y2="181.7031"/></g><!--class AppLayout--><g id="elem_AppLayout"><rect codeLine="16" fill="#F1F1F1" height="58.7031" id="AppLayout" rx="2.5" ry="2.5" style="stroke:#181818;stroke-width:0.5;" width="104" x="294" y="131"/><ellipse cx="309" cy="152.3516" fill="#ADD1B2" rx="11" ry="11" style="stroke:#181818;stroke-width:1.0;"/><path d="M311.7656,148.2266 Q311.9219,148.0078 312.1094,147.8984 Q312.2969,147.7891 312.5156,147.7891 Q312.8906,147.7891 313.125,148.0547 Q313.3594,148.3047 313.3594,148.9141 L313.3594,150.3672 Q313.3594,150.9766 313.125,151.2422 Q312.8906,151.5078 312.5156,151.5078 Q312.1719,151.5078 311.9688,151.3047 Q311.7656,151.1172 311.6563,150.6016 Q311.6094,150.2422 311.4219,150.0547 Q311.0938,149.6797 310.4844,149.4609 Q309.875,149.2422 309.25,149.2422 Q308.4844,149.2422 307.8438,149.5703 Q307.2188,149.8984 306.7188,150.6484 Q306.2344,151.3984 306.2344,152.4297 L306.2344,153.5234 Q306.2344,154.7578 307.125,155.5859 Q308.0156,156.3984 309.6094,156.3984 Q310.5469,156.3984 311.2031,156.1484 Q311.5938,155.9922 312.0156,155.5547 Q312.2813,155.2891 312.4219,155.2109 Q312.5781,155.1328 312.7813,155.1328 Q313.1094,155.1328 313.3594,155.3984 Q313.625,155.6484 313.625,155.9922 Q313.625,156.3359 313.2813,156.7422 Q312.7813,157.3203 311.9844,157.6484 Q310.9063,158.1016 309.6094,158.1016 Q308.0938,158.1016 306.8906,157.4766 Q305.9063,156.9766 305.2188,155.9141 Q304.5313,154.8359 304.5313,153.5547 L304.5313,152.3984 Q304.5313,151.0703 305.1406,149.9297 Q305.7656,148.7734 306.8594,148.1641 Q307.9531,147.5391 309.1875,147.5391 Q309.9219,147.5391 310.5625,147.7109 Q311.2188,147.8672 311.7656,148.2266 Z " fill="#000000"/><text fill="#000000" font-family="sans-serif" font-size="12" font-style="italic" lengthAdjust="spacing" textLength="76" x="321" y="148.457">&#171;component&#187;</text><text fill="#000000" font-family="sans-serif" font-size="14" lengthAdjust="spacing" textLength="68" x="325" y="165.627">AppLayout</text><line style="stroke:#181818;stroke-width:0.5;" x1="295" x2="397" y1="173.7031" y2="173.7031"/><line style="stroke:#181818;stroke-width:0.5;" x1="295" x2="397" y1="181.7031" y2="181.7031"/></g><!--class AuthLayout--><g id="elem_AuthLayout"><rect codeLine="17" fill="#F1F1F1" height="58.7031" id="AuthLayout" rx="2.5" ry="2.5" style="stroke:#181818;stroke-width:0.5;" width="104" x="101" y="131"/><ellipse cx="116" cy="152.3516" fill="#ADD1B2" rx="11" ry="11" style="stroke:#181818;stroke-width:1.0;"/><path d="M118.7656,148.2266 Q118.9219,148.0078 119.1094,147.8984 Q119.2969,147.7891 119.5156,147.7891 Q119.8906,147.7891 120.125,148.0547 Q120.3594,148.3047 120.3594,148.9141 L120.3594,150.3672 Q120.3594,150.9766 120.125,151.2422 Q119.8906,151.5078 119.5156,151.5078 Q119.1719,151.5078 118.9688,151.3047 Q118.7656,151.1172 118.6563,150.6016 Q118.6094,150.2422 118.4219,150.0547 Q118.0938,149.6797 117.4844,149.4609 Q116.875,149.2422 116.25,149.2422 Q115.4844,149.2422 114.8438,149.5703 Q114.2188,149.8984 113.7188,150.6484 Q113.2344,151.3984 113.2344,152.4297 L113.2344,153.5234 Q113.2344,154.7578 114.125,155.5859 Q115.0156,156.3984 116.6094,156.3984 Q117.5469,156.3984 118.2031,156.1484 Q118.5938,155.9922 119.0156,155.5547 Q119.2813,155.2891 119.4219,155.2109 Q119.5781,155.1328 119.7813,155.1328 Q120.1094,155.1328 120.3594,155.3984 Q120.625,155.6484 120.625,155.9922 Q120.625,156.3359 120.2813,156.7422 Q119.7813,157.3203 118.9844,157.6484 Q117.9063,158.1016 116.6094,158.1016 Q115.0938,158.1016 113.8906,157.4766 Q112.9063,156.9766 112.2188,155.9141 Q111.5313,154.8359 111.5313,153.5547 L111.5313,152.3984 Q111.5313,151.0703 112.1406,149.9297 Q112.7656,148.7734 113.8594,148.1641 Q114.9531,147.5391 116.1875,147.5391 Q116.9219,147.5391 117.5625,147.7109 Q118.2188,147.8672 118.7656,148.2266 Z " fill="#000000"/><text fill="#000000" font-family="sans-serif" font-size="12" font-style="italic" lengthAdjust="spacing" textLength="76" x="128" y="148.457">&#171;component&#187;</text><text fill="#000000" font-family="sans-serif" font-size="14" lengthAdjust="spacing" textLength="72" x="130" y="165.627">AuthLayout</text><line style="stroke:#181818;stroke-width:0.5;" x1="102" x2="204" y1="173.7031" y2="173.7031"/><line style="stroke:#181818;stroke-width:0.5;" x1="102" x2="204" y1="181.7031" y2="181.7031"/></g><!--class AppSidebar--><g id="elem_AppSidebar"><rect codeLine="18" fill="#F1F1F1" height="58.7031" id="AppSidebar" rx="2.5" ry="2.5" style="stroke:#181818;stroke-width:0.5;" width="106" x="125" y="327.5"/><ellipse cx="140" cy="348.8516" fill="#ADD1B2" rx="11" ry="11" style="stroke:#181818;stroke-width:1.0;"/><path d="M142.7656,344.7266 Q142.9219,344.5078 143.1094,344.3984 Q143.2969,344.2891 143.5156,344.2891 Q143.8906,344.2891 144.125,344.5547 Q144.3594,344.8047 144.3594,345.4141 L144.3594,346.8672 Q144.3594,347.4766 144.125,347.7422 Q143.8906,348.0078 143.5156,348.0078 Q143.1719,348.0078 142.9688,347.8047 Q142.7656,347.6172 142.6563,347.1016 Q142.6094,346.7422 142.4219,346.5547 Q142.0938,346.1797 141.4844,345.9609 Q140.875,345.7422 140.25,345.7422 Q139.4844,345.7422 138.8438,346.0703 Q138.2188,346.3984 137.7188,347.1484 Q137.2344,347.8984 137.2344,348.9297 L137.2344,350.0234 Q137.2344,351.2578 138.125,352.0859 Q139.0156,352.8984 140.6094,352.8984 Q141.5469,352.8984 142.2031,352.6484 Q142.5938,352.4922 143.0156,352.0547 Q143.2813,351.7891 143.4219,351.7109 Q143.5781,351.6328 143.7813,351.6328 Q144.1094,351.6328 144.3594,351.8984 Q144.625,352.1484 144.625,352.4922 Q144.625,352.8359 144.2813,353.2422 Q143.7813,353.8203 142.9844,354.1484 Q141.9063,354.6016 140.6094,354.6016 Q139.0938,354.6016 137.8906,353.9766 Q136.9063,353.4766 136.2188,352.4141 Q135.5313,351.3359 135.5313,350.0547 L135.5313,348.8984 Q135.5313,347.5703 136.1406,346.4297 Q136.7656,345.2734 137.8594,344.6641 Q138.9531,344.0391 140.1875,344.0391 Q140.9219,344.0391 141.5625,344.2109 Q142.2188,344.3672 142.7656,344.7266 Z " fill="#000000"/><text fill="#000000" font-family="sans-serif" font-size="12" font-style="italic" lengthAdjust="spacing" textLength="76" x="153" y="344.957">&#171;component&#187;</text><text fill="#000000" font-family="sans-serif" font-size="14" lengthAdjust="spacing" textLength="74" x="154" y="362.127">AppSidebar</text><line style="stroke:#181818;stroke-width:0.5;" x1="126" x2="230" y1="370.2031" y2="370.2031"/><line style="stroke:#181818;stroke-width:0.5;" x1="126" x2="230" y1="378.2031" y2="378.2031"/></g><!--class AppTopbar--><g id="elem_AppTopbar"><rect codeLine="19" fill="#F1F1F1" height="58.7031" id="AppTopbar" rx="2.5" ry="2.5" style="stroke:#181818;stroke-width:0.5;" width="104" x="291" y="327.5"/><ellipse cx="306" cy="348.8516" fill="#ADD1B2" rx="11" ry="11" style="stroke:#181818;stroke-width:1.0;"/><path d="M308.7656,344.7266 Q308.9219,344.5078 309.1094,344.3984 Q309.2969,344.2891 309.5156,344.2891 Q309.8906,344.2891 310.125,344.5547 Q310.3594,344.8047 310.3594,345.4141 L310.3594,346.8672 Q310.3594,347.4766 310.125,347.7422 Q309.8906,348.0078 309.5156,348.0078 Q309.1719,348.0078 308.9688,347.8047 Q308.7656,347.6172 308.6563,347.1016 Q308.6094,346.7422 308.4219,346.5547 Q308.0938,346.1797 307.4844,345.9609 Q306.875,345.7422 306.25,345.7422 Q305.4844,345.7422 304.8438,346.0703 Q304.2188,346.3984 303.7188,347.1484 Q303.2344,347.8984 303.2344,348.9297 L303.2344,350.0234 Q303.2344,351.2578 304.125,352.0859 Q305.0156,352.8984 306.6094,352.8984 Q307.5469,352.8984 308.2031,352.6484 Q308.5938,352.4922 309.0156,352.0547 Q309.2813,351.7891 309.4219,351.7109 Q309.5781,351.6328 309.7813,351.6328 Q310.1094,351.6328 310.3594,351.8984 Q310.625,352.1484 310.625,352.4922 Q310.625,352.8359 310.2813,353.2422 Q309.7813,353.8203 308.9844,354.1484 Q307.9063,354.6016 306.6094,354.6016 Q305.0938,354.6016 303.8906,353.9766 Q302.9063,353.4766 302.2188,352.4141 Q301.5313,351.3359 301.5313,350.0547 L301.5313,348.8984 Q301.5313,347.5703 302.1406,346.4297 Q302.7656,345.2734 303.8594,344.6641 Q304.9531,344.0391 306.1875,344.0391 Q306.9219,344.0391 307.5625,344.2109 Q308.2188,344.3672 308.7656,344.7266 Z " fill="#000000"/><text fill="#000000" font-family="sans-serif" font-size="12" font-style="italic" lengthAdjust="spacing" textLength="76" x="318" y="344.957">&#171;component&#187;</text><text fill="#000000" font-family="sans-serif" font-size="14" lengthAdjust="spacing" textLength="71" x="320.5" y="362.127">AppTopbar</text><line style="stroke:#181818;stroke-width:0.5;" x1="292" x2="394" y1="370.2031" y2="370.2031"/><line style="stroke:#181818;stroke-width:0.5;" x1="292" x2="394" y1="378.2031" y2="378.2031"/></g><!--class LanguageSwitcher--><g id="elem_LanguageSwitcher"><rect codeLine="20" fill="#F1F1F1" height="58.7031" id="LanguageSwitcher" rx="2.5" ry="2.5" style="stroke:#181818;stroke-width:0.5;" width="149" x="71.5" y="594.5"/><ellipse cx="86.5" cy="615.8516" fill="#ADD1B2" rx="11" ry="11" style="stroke:#181818;stroke-width:1.0;"/><path d="M89.2656,611.7266 Q89.4219,611.5078 89.6094,611.3984 Q89.7969,611.2891 90.0156,611.2891 Q90.3906,611.2891 90.625,611.5547 Q90.8594,611.8047 90.8594,612.4141 L90.8594,613.8672 Q90.8594,614.4766 90.625,614.7422 Q90.3906,615.0078 90.0156,615.0078 Q89.6719,615.0078 89.4688,614.8047 Q89.2656,614.6172 89.1563,614.1016 Q89.1094,613.7422 88.9219,613.5547 Q88.5938,613.1797 87.9844,612.9609 Q87.375,612.7422 86.75,612.7422 Q85.9844,612.7422 85.3438,613.0703 Q84.7188,613.3984 84.2188,614.1484 Q83.7344,614.8984 83.7344,615.9297 L83.7344,617.0234 Q83.7344,618.2578 84.625,619.0859 Q85.5156,619.8984 87.1094,619.8984 Q88.0469,619.8984 88.7031,619.6484 Q89.0938,619.4922 89.5156,619.0547 Q89.7813,618.7891 89.9219,618.7109 Q90.0781,618.6328 90.2813,618.6328 Q90.6094,618.6328 90.8594,618.8984 Q91.125,619.1484 91.125,619.4922 Q91.125,619.8359 90.7813,620.2422 Q90.2813,620.8203 89.4844,621.1484 Q88.4063,621.6016 87.1094,621.6016 Q85.5938,621.6016 84.3906,620.9766 Q83.4063,620.4766 82.7188,619.4141 Q82.0313,618.3359 82.0313,617.0547 L82.0313,615.8984 Q82.0313,614.5703 82.6406,613.4297 Q83.2656,612.2734 84.3594,611.6641 Q85.4531,611.0391 86.6875,611.0391 Q87.4219,611.0391 88.0625,611.2109 Q88.7188,611.3672 89.2656,611.7266 Z " fill="#000000"/><text fill="#000000" font-family="sans-serif" font-size="12" font-style="italic" lengthAdjust="spacing" textLength="76" x="121" y="611.957">&#171;component&#187;</text><text fill="#000000" font-family="sans-serif" font-size="14" lengthAdjust="spacing" textLength="117" x="100.5" y="629.127">LanguageSwitcher</text><line style="stroke:#181818;stroke-width:0.5;" x1="72.5" x2="219.5" y1="637.2031" y2="637.2031"/><line style="stroke:#181818;stroke-width:0.5;" x1="72.5" x2="219.5" y1="645.2031" y2="645.2031"/></g><!--class LogoutButton--><g id="elem_LogoutButton"><rect codeLine="21" fill="#F1F1F1" height="58.7031" id="LogoutButton" rx="2.5" ry="2.5" style="stroke:#181818;stroke-width:0.5;" width="117" x="280.5" y="594.5"/><ellipse cx="295.5" cy="615.8516" fill="#ADD1B2" rx="11" ry="11" style="stroke:#181818;stroke-width:1.0;"/><path d="M298.2656,611.7266 Q298.4219,611.5078 298.6094,611.3984 Q298.7969,611.2891 299.0156,611.2891 Q299.3906,611.2891 299.625,611.5547 Q299.8594,611.8047 299.8594,612.4141 L299.8594,613.8672 Q299.8594,614.4766 299.625,614.7422 Q299.3906,615.0078 299.0156,615.0078 Q298.6719,615.0078 298.4688,614.8047 Q298.2656,614.6172 298.1563,614.1016 Q298.1094,613.7422 297.9219,613.5547 Q297.5938,613.1797 296.9844,612.9609 Q296.375,612.7422 295.75,612.7422 Q294.9844,612.7422 294.3438,613.0703 Q293.7188,613.3984 293.2188,614.1484 Q292.7344,614.8984 292.7344,615.9297 L292.7344,617.0234 Q292.7344,618.2578 293.625,619.0859 Q294.5156,619.8984 296.1094,619.8984 Q297.0469,619.8984 297.7031,619.6484 Q298.0938,619.4922 298.5156,619.0547 Q298.7813,618.7891 298.9219,618.7109 Q299.0781,618.6328 299.2813,618.6328 Q299.6094,618.6328 299.8594,618.8984 Q300.125,619.1484 300.125,619.4922 Q300.125,619.8359 299.7813,620.2422 Q299.2813,620.8203 298.4844,621.1484 Q297.4063,621.6016 296.1094,621.6016 Q294.5938,621.6016 293.3906,620.9766 Q292.4063,620.4766 291.7188,619.4141 Q291.0313,618.3359 291.0313,617.0547 L291.0313,615.8984 Q291.0313,614.5703 291.6406,613.4297 Q292.2656,612.2734 293.3594,611.6641 Q294.4531,611.0391 295.6875,611.0391 Q296.4219,611.0391 297.0625,611.2109 Q297.7188,611.3672 298.2656,611.7266 Z " fill="#000000"/><text fill="#000000" font-family="sans-serif" font-size="12" font-style="italic" lengthAdjust="spacing" textLength="76" x="314" y="611.957">&#171;component&#187;</text><text fill="#000000" font-family="sans-serif" font-size="14" lengthAdjust="spacing" textLength="85" x="309.5" y="629.127">LogoutButton</text><line style="stroke:#181818;stroke-width:0.5;" x1="281.5" x2="396.5" y1="637.2031" y2="637.2031"/><line style="stroke:#181818;stroke-width:0.5;" x1="281.5" x2="396.5" y1="645.2031" y2="645.2031"/></g><!--class VitalSignReading--><g id="elem_VitalSignReading"><rect codeLine="34" fill="#F1F1F1" height="181.9688" id="VitalSignReading" rx="2.5" ry="2.5" style="stroke:#181818;stroke-width:0.5;" width="162" x="1712" y="1352"/><ellipse cx="1736.9" cy="1373.3516" fill="#ADD1B2" rx="11" ry="11" style="stroke:#181818;stroke-width:1.0;"/><path d="M1739.6656,1369.2266 Q1739.8219,1369.0078 1740.0094,1368.8984 Q1740.1969,1368.7891 1740.4156,1368.7891 Q1740.7906,1368.7891 1741.025,1369.0547 Q1741.2594,1369.3047 1741.2594,1369.9141 L1741.2594,1371.3672 Q1741.2594,1371.9766 1741.025,1372.2422 Q1740.7906,1372.5078 1740.4156,1372.5078 Q1740.0719,1372.5078 1739.8688,1372.3047 Q1739.6656,1372.1172 1739.5563,1371.6016 Q1739.5094,1371.2422 1739.3219,1371.0547 Q1738.9938,1370.6797 1738.3844,1370.4609 Q1737.775,1370.2422 1737.15,1370.2422 Q1736.3844,1370.2422 1735.7438,1370.5703 Q1735.1188,1370.8984 1734.6188,1371.6484 Q1734.1344,1372.3984 1734.1344,1373.4297 L1734.1344,1374.5234 Q1734.1344,1375.7578 1735.025,1376.5859 Q1735.9156,1377.3984 1737.5094,1377.3984 Q1738.4469,1377.3984 1739.1031,1377.1484 Q1739.4938,1376.9922 1739.9156,1376.5547 Q1740.1813,1376.2891 1740.3219,1376.2109 Q1740.4781,1376.1328 1740.6813,1376.1328 Q1741.0094,1376.1328 1741.2594,1376.3984 Q1741.525,1376.6484 1741.525,1376.9922 Q1741.525,1377.3359 1741.1813,1377.7422 Q1740.6813,1378.3203 1739.8844,1378.6484 Q1738.8063,1379.1016 1737.5094,1379.1016 Q1735.9938,1379.1016 1734.7906,1378.4766 Q1733.8063,1377.9766 1733.1188,1376.9141 Q1732.4313,1375.8359 1732.4313,1374.5547 L1732.4313,1373.3984 Q1732.4313,1372.0703 1733.0406,1370.9297 Q1733.6656,1369.7734 1734.7594,1369.1641 Q1735.8531,1368.5391 1737.0875,1368.5391 Q1737.8219,1368.5391 1738.4625,1368.7109 Q1739.1188,1368.8672 1739.6656,1369.2266 Z " fill="#000000"/><text fill="#000000" font-family="sans-serif" font-size="12" font-style="italic" lengthAdjust="spacing" textLength="43" x="1785.6" y="1369.457">&#171;entity&#187;</text><text fill="#000000" font-family="sans-serif" font-size="14" lengthAdjust="spacing" textLength="108" x="1753.1" y="1386.627">VitalSignReading</text><line style="stroke:#181818;stroke-width:0.5;" x1="1713" x2="1873" y1="1394.7031" y2="1394.7031"/><rect fill="none" height="6" style="stroke:#C82930;stroke-width:1.0;" width="6" x="1720" y="1406.0078"/><text fill="#000000" font-family="sans-serif" font-size="14" lengthAdjust="spacing" textLength="68" x="1732" y="1413.2363">id: Number</text><rect fill="none" height="6" style="stroke:#C82930;stroke-width:1.0;" width="6" x="1720" y="1423.6172"/><text fill="#000000" font-family="sans-serif" font-size="14" lengthAdjust="spacing" textLength="120" x="1732" y="1430.8457">heartRate: Number</text><rect fill="none" height="6" style="stroke:#C82930;stroke-width:1.0;" width="6" x="1720" y="1441.2266"/><text fill="#000000" font-family="sans-serif" font-size="14" lengthAdjust="spacing" textLength="77" x="1732" y="1448.4551">hrv: Number</text><rect fill="none" height="6" style="stroke:#C82930;stroke-width:1.0;" width="6" x="1720" y="1458.8359"/><text fill="#000000" font-family="sans-serif" font-size="14" lengthAdjust="spacing" textLength="134" x="1732" y="1466.0645">fatigueLevel: Number</text><rect fill="none" height="6" style="stroke:#C82930;stroke-width:1.0;" width="6" x="1720" y="1476.4453"/><text fill="#000000" font-family="sans-serif" font-size="14" lengthAdjust="spacing" textLength="136" x="1732" y="1483.6738">cortisolLevel: Number</text><rect fill="none" height="6" style="stroke:#C82930;stroke-width:1.0;" width="6" x="1720" y="1494.0547"/><text fill="#000000" font-family="sans-serif" font-size="14" lengthAdjust="spacing" textLength="126" x="1732" y="1501.2832">sensorStatus: string</text><line style="stroke:#181818;stroke-width:0.5;" x1="1713" x2="1873" y1="1508.3594" y2="1508.3594"/><ellipse cx="1723" cy="1522.6641" fill="#84BE84" rx="3" ry="3" style="stroke:#038048;stroke-width:1.0;"/><text fill="#000000" font-family="sans-serif" font-size="14" lengthAdjust="spacing" textLength="109" x="1732" y="1526.8926">constructor(data)</text></g><!--class VitalSignAnomaly--><g id="elem_VitalSignAnomaly"><rect codeLine="44" fill="#F1F1F1" height="181.9688" id="VitalSignAnomaly" rx="2.5" ry="2.5" style="stroke:#181818;stroke-width:0.5;" width="141" x="1612.5" y="1110"/><ellipse cx="1627.5" cy="1131.3516" fill="#ADD1B2" rx="11" ry="11" style="stroke:#181818;stroke-width:1.0;"/><path d="M1630.2656,1127.2266 Q1630.4219,1127.0078 1630.6094,1126.8984 Q1630.7969,1126.7891 1631.0156,1126.7891 Q1631.3906,1126.7891 1631.625,1127.0547 Q1631.8594,1127.3047 1631.8594,1127.9141 L1631.8594,1129.3672 Q1631.8594,1129.9766 1631.625,1130.2422 Q1631.3906,1130.5078 1631.0156,1130.5078 Q1630.6719,1130.5078 1630.4688,1130.3047 Q1630.2656,1130.1172 1630.1563,1129.6016 Q1630.1094,1129.2422 1629.9219,1129.0547 Q1629.5938,1128.6797 1628.9844,1128.4609 Q1628.375,1128.2422 1627.75,1128.2422 Q1626.9844,1128.2422 1626.3438,1128.5703 Q1625.7188,1128.8984 1625.2188,1129.6484 Q1624.7344,1130.3984 1624.7344,1131.4297 L1624.7344,1132.5234 Q1624.7344,1133.7578 1625.625,1134.5859 Q1626.5156,1135.3984 1628.1094,1135.3984 Q1629.0469,1135.3984 1629.7031,1135.1484 Q1630.0938,1134.9922 1630.5156,1134.5547 Q1630.7813,1134.2891 1630.9219,1134.2109 Q1631.0781,1134.1328 1631.2813,1134.1328 Q1631.6094,1134.1328 1631.8594,1134.3984 Q1632.125,1134.6484 1632.125,1134.9922 Q1632.125,1135.3359 1631.7813,1135.7422 Q1631.2813,1136.3203 1630.4844,1136.6484 Q1629.4063,1137.1016 1628.1094,1137.1016 Q1626.5938,1137.1016 1625.3906,1136.4766 Q1624.4063,1135.9766 1623.7188,1134.9141 Q1623.0313,1133.8359 1623.0313,1132.5547 L1623.0313,1131.3984 Q1623.0313,1130.0703 1623.6406,1128.9297 Q1624.2656,1127.7734 1625.3594,1127.1641 Q1626.4531,1126.5391 1627.6875,1126.5391 Q1628.4219,1126.5391 1629.0625,1126.7109 Q1629.7188,1126.8672 1630.2656,1127.2266 Z " fill="#000000"/><text fill="#000000" font-family="sans-serif" font-size="12" font-style="italic" lengthAdjust="spacing" textLength="43" x="1674.5" y="1127.457">&#171;entity&#187;</text><text fill="#000000" font-family="sans-serif" font-size="14" lengthAdjust="spacing" textLength="109" x="1641.5" y="1144.627">VitalSignAnomaly</text><line style="stroke:#181818;stroke-width:0.5;" x1="1613.5" x2="1752.5" y1="1152.7031" y2="1152.7031"/><rect fill="none" height="6" style="stroke:#C82930;stroke-width:1.0;" width="6" x="1620.5" y="1164.0078"/><text fill="#000000" font-family="sans-serif" font-size="14" lengthAdjust="spacing" textLength="68" x="1632.5" y="1171.2363">id: Number</text><rect fill="none" height="6" style="stroke:#C82930;stroke-width:1.0;" width="6" x="1620.5" y="1181.6172"/><text fill="#000000" font-family="sans-serif" font-size="14" lengthAdjust="spacing" textLength="70" x="1632.5" y="1188.8457">type: string</text><rect fill="none" height="6" style="stroke:#C82930;stroke-width:1.0;" width="6" x="1620.5" y="1199.2266"/><text fill="#000000" font-family="sans-serif" font-size="14" lengthAdjust="spacing" textLength="92" x="1632.5" y="1206.4551">severity: string</text><rect fill="none" height="6" style="stroke:#C82930;stroke-width:1.0;" width="6" x="1620.5" y="1216.8359"/><text fill="#000000" font-family="sans-serif" font-size="14" lengthAdjust="spacing" textLength="81" x="1632.5" y="1224.0645">status: string</text><rect fill="none" height="6" style="stroke:#C82930;stroke-width:1.0;" width="6" x="1620.5" y="1234.4453"/><text fill="#000000" font-family="sans-serif" font-size="14" lengthAdjust="spacing" textLength="77" x="1632.5" y="1241.6738">value: string</text><rect fill="none" height="6" style="stroke:#C82930;stroke-width:1.0;" width="6" x="1620.5" y="1252.0547"/><text fill="#000000" font-family="sans-serif" font-size="14" lengthAdjust="spacing" textLength="100" x="1632.5" y="1259.2832">message: string</text><line style="stroke:#181818;stroke-width:0.5;" x1="1613.5" x2="1752.5" y1="1266.3594" y2="1266.3594"/><ellipse cx="1623.5" cy="1280.6641" fill="#84BE84" rx="3" ry="3" style="stroke:#038048;stroke-width:1.0;"/><text fill="#000000" font-family="sans-serif" font-size="14" lengthAdjust="spacing" textLength="109" x="1632.5" y="1284.8926">constructor(data)</text></g><!--class ClinicalAlert--><g id="elem_ClinicalAlert"><rect codeLine="54" fill="#F1F1F1" height="146.75" id="ClinicalAlert" rx="2.5" ry="2.5" style="stroke:#181818;stroke-width:0.5;" width="135" x="1744.5" y="873.5"/><ellipse cx="1772.55" cy="894.8516" fill="#ADD1B2" rx="11" ry="11" style="stroke:#181818;stroke-width:1.0;"/><path d="M1775.3156,890.7266 Q1775.4719,890.5078 1775.6594,890.3984 Q1775.8469,890.2891 1776.0656,890.2891 Q1776.4406,890.2891 1776.675,890.5547 Q1776.9094,890.8047 1776.9094,891.4141 L1776.9094,892.8672 Q1776.9094,893.4766 1776.675,893.7422 Q1776.4406,894.0078 1776.0656,894.0078 Q1775.7219,894.0078 1775.5188,893.8047 Q1775.3156,893.6172 1775.2063,893.1016 Q1775.1594,892.7422 1774.9719,892.5547 Q1774.6438,892.1797 1774.0344,891.9609 Q1773.425,891.7422 1772.8,891.7422 Q1772.0344,891.7422 1771.3938,892.0703 Q1770.7688,892.3984 1770.2688,893.1484 Q1769.7844,893.8984 1769.7844,894.9297 L1769.7844,896.0234 Q1769.7844,897.2578 1770.675,898.0859 Q1771.5656,898.8984 1773.1594,898.8984 Q1774.0969,898.8984 1774.7531,898.6484 Q1775.1438,898.4922 1775.5656,898.0547 Q1775.8313,897.7891 1775.9719,897.7109 Q1776.1281,897.6328 1776.3313,897.6328 Q1776.6594,897.6328 1776.9094,897.8984 Q1777.175,898.1484 1777.175,898.4922 Q1777.175,898.8359 1776.8313,899.2422 Q1776.3313,899.8203 1775.5344,900.1484 Q1774.4563,900.6016 1773.1594,900.6016 Q1771.6438,900.6016 1770.4406,899.9766 Q1769.4563,899.4766 1768.7688,898.4141 Q1768.0813,897.3359 1768.0813,896.0547 L1768.0813,894.8984 Q1768.0813,893.5703 1768.6906,892.4297 Q1769.3156,891.2734 1770.4094,890.6641 Q1771.5031,890.0391 1772.7375,890.0391 Q1773.4719,890.0391 1774.1125,890.2109 Q1774.7688,890.3672 1775.3156,890.7266 Z " fill="#000000"/><text fill="#000000" font-family="sans-serif" font-size="12" font-style="italic" lengthAdjust="spacing" textLength="43" x="1804.95" y="890.957">&#171;entity&#187;</text><text fill="#000000" font-family="sans-serif" font-size="14" lengthAdjust="spacing" textLength="74" x="1789.45" y="908.127">ClinicalAlert</text><line style="stroke:#181818;stroke-width:0.5;" x1="1745.5" x2="1878.5" y1="916.2031" y2="916.2031"/><rect fill="none" height="6" style="stroke:#C82930;stroke-width:1.0;" width="6" x="1752.5" y="927.5078"/><text fill="#000000" font-family="sans-serif" font-size="14" lengthAdjust="spacing" textLength="68" x="1764.5" y="934.7363">id: Number</text><rect fill="none" height="6" style="stroke:#C82930;stroke-width:1.0;" width="6" x="1752.5" y="945.1172"/><text fill="#000000" font-family="sans-serif" font-size="14" lengthAdjust="spacing" textLength="92" x="1764.5" y="952.3457">severity: string</text><rect fill="none" height="6" style="stroke:#C82930;stroke-width:1.0;" width="6" x="1752.5" y="962.7266"/><text fill="#000000" font-family="sans-serif" font-size="14" lengthAdjust="spacing" textLength="81" x="1764.5" y="969.9551">status: string</text><rect fill="none" height="6" style="stroke:#C82930;stroke-width:1.0;" width="6" x="1752.5" y="980.3359"/><text fill="#000000" font-family="sans-serif" font-size="14" lengthAdjust="spacing" textLength="100" x="1764.5" y="987.5645">message: string</text><line style="stroke:#181818;stroke-width:0.5;" x1="1745.5" x2="1878.5" y1="994.6406" y2="994.6406"/><ellipse cx="1755.5" cy="1008.9453" fill="#84BE84" rx="3" ry="3" style="stroke:#038048;stroke-width:1.0;"/><text fill="#000000" font-family="sans-serif" font-size="14" lengthAdjust="spacing" textLength="109" x="1764.5" y="1013.1738">constructor(data)</text></g><!--class RiskAssessment--><g id="elem_RiskAssessment"><rect codeLine="62" fill="#F1F1F1" height="129.1406" id="RiskAssessment" rx="2.5" ry="2.5" style="stroke:#181818;stroke-width:0.5;" width="160" x="1814" y="1136.5"/><ellipse cx="1840.25" cy="1157.8516" fill="#ADD1B2" rx="11" ry="11" style="stroke:#181818;stroke-width:1.0;"/><path d="M1843.0156,1153.7266 Q1843.1719,1153.5078 1843.3594,1153.3984 Q1843.5469,1153.2891 1843.7656,1153.2891 Q1844.1406,1153.2891 1844.375,1153.5547 Q1844.6094,1153.8047 1844.6094,1154.4141 L1844.6094,1155.8672 Q1844.6094,1156.4766 1844.375,1156.7422 Q1844.1406,1157.0078 1843.7656,1157.0078 Q1843.4219,1157.0078 1843.2188,1156.8047 Q1843.0156,1156.6172 1842.9063,1156.1016 Q1842.8594,1155.7422 1842.6719,1155.5547 Q1842.3438,1155.1797 1841.7344,1154.9609 Q1841.125,1154.7422 1840.5,1154.7422 Q1839.7344,1154.7422 1839.0938,1155.0703 Q1838.4688,1155.3984 1837.9688,1156.1484 Q1837.4844,1156.8984 1837.4844,1157.9297 L1837.4844,1159.0234 Q1837.4844,1160.2578 1838.375,1161.0859 Q1839.2656,1161.8984 1840.8594,1161.8984 Q1841.7969,1161.8984 1842.4531,1161.6484 Q1842.8438,1161.4922 1843.2656,1161.0547 Q1843.5313,1160.7891 1843.6719,1160.7109 Q1843.8281,1160.6328 1844.0313,1160.6328 Q1844.3594,1160.6328 1844.6094,1160.8984 Q1844.875,1161.1484 1844.875,1161.4922 Q1844.875,1161.8359 1844.5313,1162.2422 Q1844.0313,1162.8203 1843.2344,1163.1484 Q1842.1563,1163.6016 1840.8594,1163.6016 Q1839.3438,1163.6016 1838.1406,1162.9766 Q1837.1563,1162.4766 1836.4688,1161.4141 Q1835.7813,1160.3359 1835.7813,1159.0547 L1835.7813,1157.8984 Q1835.7813,1156.5703 1836.3906,1155.4297 Q1837.0156,1154.2734 1838.1094,1153.6641 Q1839.2031,1153.0391 1840.4375,1153.0391 Q1841.1719,1153.0391 1841.8125,1153.2109 Q1842.4688,1153.3672 1843.0156,1153.7266 Z " fill="#000000"/><text fill="#000000" font-family="sans-serif" font-size="12" font-style="italic" lengthAdjust="spacing" textLength="43" x="1886.75" y="1153.957">&#171;entity&#187;</text><text fill="#000000" font-family="sans-serif" font-size="14" lengthAdjust="spacing" textLength="103" x="1856.75" y="1171.127">RiskAssessment</text><line style="stroke:#181818;stroke-width:0.5;" x1="1815" x2="1973" y1="1179.2031" y2="1179.2031"/><rect fill="none" height="6" style="stroke:#C82930;stroke-width:1.0;" width="6" x="1822" y="1190.5078"/><text fill="#000000" font-family="sans-serif" font-size="14" lengthAdjust="spacing" textLength="68" x="1834" y="1197.7363">id: Number</text><rect fill="none" height="6" style="stroke:#C82930;stroke-width:1.0;" width="6" x="1822" y="1208.1172"/><text fill="#000000" font-family="sans-serif" font-size="14" lengthAdjust="spacing" textLength="134" x="1834" y="1215.3457">fatigueLevel: Number</text><rect fill="none" height="6" style="stroke:#C82930;stroke-width:1.0;" width="6" x="1822" y="1225.7266"/><text fill="#000000" font-family="sans-serif" font-size="14" lengthAdjust="spacing" textLength="99" x="1834" y="1232.9551">riskLevel: string</text><line style="stroke:#181818;stroke-width:0.5;" x1="1815" x2="1973" y1="1240.0313" y2="1240.0313"/><ellipse cx="1825" cy="1254.3359" fill="#84BE84" rx="3" ry="3" style="stroke:#038048;stroke-width:1.0;"/><text fill="#000000" font-family="sans-serif" font-size="14" lengthAdjust="spacing" textLength="109" x="1834" y="1258.5645">constructor(data)</text></g><!--class ClinicalRiskApi--><g id="elem_ClinicalRiskApi"><rect codeLine="71" fill="#F1F1F1" height="206.4844" id="ClinicalRiskApi" rx="2.5" ry="2.5" style="stroke:#181818;stroke-width:0.5;" width="253" x="2191.5" y="844"/><ellipse cx="2267.75" cy="860" fill="#ADD1B2" rx="11" ry="11" style="stroke:#181818;stroke-width:1.0;"/><path d="M2270.5156,855.875 Q2270.6719,855.6563 2270.8594,855.5469 Q2271.0469,855.4375 2271.2656,855.4375 Q2271.6406,855.4375 2271.875,855.7031 Q2272.1094,855.9531 2272.1094,856.5625 L2272.1094,858.0156 Q2272.1094,858.625 2271.875,858.8906 Q2271.6406,859.1563 2271.2656,859.1563 Q2270.9219,859.1563 2270.7188,858.9531 Q2270.5156,858.7656 2270.4063,858.25 Q2270.3594,857.8906 2270.1719,857.7031 Q2269.8438,857.3281 2269.2344,857.1094 Q2268.625,856.8906 2268,856.8906 Q2267.2344,856.8906 2266.5938,857.2188 Q2265.9688,857.5469 2265.4688,858.2969 Q2264.9844,859.0469 2264.9844,860.0781 L2264.9844,861.1719 Q2264.9844,862.4063 2265.875,863.2344 Q2266.7656,864.0469 2268.3594,864.0469 Q2269.2969,864.0469 2269.9531,863.7969 Q2270.3438,863.6406 2270.7656,863.2031 Q2271.0313,862.9375 2271.1719,862.8594 Q2271.3281,862.7813 2271.5313,862.7813 Q2271.8594,862.7813 2272.1094,863.0469 Q2272.375,863.2969 2272.375,863.6406 Q2272.375,863.9844 2272.0313,864.3906 Q2271.5313,864.9688 2270.7344,865.2969 Q2269.6563,865.75 2268.3594,865.75 Q2266.8438,865.75 2265.6406,865.125 Q2264.6563,864.625 2263.9688,863.5625 Q2263.2813,862.4844 2263.2813,861.2031 L2263.2813,860.0469 Q2263.2813,858.7188 2263.8906,857.5781 Q2264.5156,856.4219 2265.6094,855.8125 Q2266.7031,855.1875 2267.9375,855.1875 Q2268.6719,855.1875 2269.3125,855.3594 Q2269.9688,855.5156 2270.5156,855.875 Z " fill="#000000"/><text fill="#000000" font-family="sans-serif" font-size="14" lengthAdjust="spacing" textLength="92" x="2288.25" y="865.7285">ClinicalRiskApi</text><line style="stroke:#181818;stroke-width:0.5;" x1="2192.5" x2="2443.5" y1="876" y2="876"/><line style="stroke:#181818;stroke-width:0.5;" x1="2192.5" x2="2443.5" y1="884" y2="884"/><ellipse cx="2202.5" cy="898.3047" fill="#84BE84" rx="3" ry="3" style="stroke:#038048;stroke-width:1.0;"/><text fill="#000000" font-family="sans-serif" font-size="14" lengthAdjust="spacing" textLength="104" x="2211.5" y="902.5332">users(): Promise</text><ellipse cx="2202.5" cy="915.9141" fill="#84BE84" rx="3" ry="3" style="stroke:#038048;stroke-width:1.0;"/><text fill="#000000" font-family="sans-serif" font-size="14" lengthAdjust="spacing" textLength="107" x="2211.5" y="920.1426">teams(): Promise</text><ellipse cx="2202.5" cy="933.5234" fill="#84BE84" rx="3" ry="3" style="stroke:#038048;stroke-width:1.0;"/><text fill="#000000" font-family="sans-serif" font-size="14" lengthAdjust="spacing" textLength="158" x="2211.5" y="937.752">teamMembers(): Promise</text><ellipse cx="2202.5" cy="951.1328" fill="#84BE84" rx="3" ry="3" style="stroke:#038048;stroke-width:1.0;"/><text fill="#000000" font-family="sans-serif" font-size="14" lengthAdjust="spacing" textLength="98" x="2211.5" y="955.3613">risks(): Promise</text><ellipse cx="2202.5" cy="968.7422" fill="#84BE84" rx="3" ry="3" style="stroke:#038048;stroke-width:1.0;"/><text fill="#000000" font-family="sans-serif" font-size="14" lengthAdjust="spacing" textLength="151" x="2211.5" y="972.9707">alerts(params): Promise</text><ellipse cx="2202.5" cy="986.3516" fill="#84BE84" rx="3" ry="3" style="stroke:#038048;stroke-width:1.0;"/><text fill="#000000" font-family="sans-serif" font-size="14" lengthAdjust="spacing" textLength="133" x="2211.5" y="990.5801">anomalies(): Promise</text><ellipse cx="2202.5" cy="1003.9609" fill="#84BE84" rx="3" ry="3" style="stroke:#038048;stroke-width:1.0;"/><text fill="#000000" font-family="sans-serif" font-size="14" lengthAdjust="spacing" textLength="171" x="2211.5" y="1008.1895">readings(params): Promise</text><ellipse cx="2202.5" cy="1021.5703" fill="#84BE84" rx="3" ry="3" style="stroke:#038048;stroke-width:1.0;"/><text fill="#000000" font-family="sans-serif" font-size="14" lengthAdjust="spacing" textLength="202" x="2211.5" y="1025.7988">patchAlert(id, payload): Promise</text><ellipse cx="2202.5" cy="1039.1797" fill="#84BE84" rx="3" ry="3" style="stroke:#038048;stroke-width:1.0;"/><text fill="#000000" font-family="sans-serif" font-size="14" lengthAdjust="spacing" textLength="227" x="2211.5" y="1043.4082">patchAnomaly(id, payload): Promise</text></g><!--class ClinicalRiskStore--><g id="elem_ClinicalRiskStore"><rect codeLine="87" fill="#F1F1F1" height="181.9688" id="ClinicalRiskStore" rx="2.5" ry="2.5" style="stroke:#181818;stroke-width:0.5;" width="218" x="1703" y="533"/><ellipse cx="1754.75" cy="554.3516" fill="#ADD1B2" rx="11" ry="11" style="stroke:#181818;stroke-width:1.0;"/><path d="M1757.5156,550.2266 Q1757.6719,550.0078 1757.8594,549.8984 Q1758.0469,549.7891 1758.2656,549.7891 Q1758.6406,549.7891 1758.875,550.0547 Q1759.1094,550.3047 1759.1094,550.9141 L1759.1094,552.3672 Q1759.1094,552.9766 1758.875,553.2422 Q1758.6406,553.5078 1758.2656,553.5078 Q1757.9219,553.5078 1757.7188,553.3047 Q1757.5156,553.1172 1757.4063,552.6016 Q1757.3594,552.2422 1757.1719,552.0547 Q1756.8438,551.6797 1756.2344,551.4609 Q1755.625,551.2422 1755,551.2422 Q1754.2344,551.2422 1753.5938,551.5703 Q1752.9688,551.8984 1752.4688,552.6484 Q1751.9844,553.3984 1751.9844,554.4297 L1751.9844,555.5234 Q1751.9844,556.7578 1752.875,557.5859 Q1753.7656,558.3984 1755.3594,558.3984 Q1756.2969,558.3984 1756.9531,558.1484 Q1757.3438,557.9922 1757.7656,557.5547 Q1758.0313,557.2891 1758.1719,557.2109 Q1758.3281,557.1328 1758.5313,557.1328 Q1758.8594,557.1328 1759.1094,557.3984 Q1759.375,557.6484 1759.375,557.9922 Q1759.375,558.3359 1759.0313,558.7422 Q1758.5313,559.3203 1757.7344,559.6484 Q1756.6563,560.1016 1755.3594,560.1016 Q1753.8438,560.1016 1752.6406,559.4766 Q1751.6563,558.9766 1750.9688,557.9141 Q1750.2813,556.8359 1750.2813,555.5547 L1750.2813,554.3984 Q1750.2813,553.0703 1750.8906,551.9297 Q1751.5156,550.7734 1752.6094,550.1641 Q1753.7031,549.5391 1754.9375,549.5391 Q1755.6719,549.5391 1756.3125,549.7109 Q1756.9688,549.8672 1757.5156,550.2266 Z " fill="#000000"/><text fill="#000000" font-family="sans-serif" font-size="12" font-style="italic" lengthAdjust="spacing" textLength="41" x="1807.75" y="550.457">&#171;store&#187;</text><text fill="#000000" font-family="sans-serif" font-size="14" lengthAdjust="spacing" textLength="106" x="1775.25" y="567.627">ClinicalRiskStore</text><line style="stroke:#181818;stroke-width:0.5;" x1="1704" x2="1920" y1="575.7031" y2="575.7031"/><rect fill="none" height="6" style="stroke:#C82930;stroke-width:1.0;" width="6" x="1711" y="587.0078"/><text fill="#000000" font-family="sans-serif" font-size="14" lengthAdjust="spacing" textLength="80" x="1723" y="594.2363">users: User[]</text><rect fill="none" height="6" style="stroke:#C82930;stroke-width:1.0;" width="6" x="1711" y="604.6172"/><text fill="#000000" font-family="sans-serif" font-size="14" lengthAdjust="spacing" textLength="148" x="1723" y="611.8457">risks: RiskAssessment[]</text><rect fill="none" height="6" style="stroke:#C82930;stroke-width:1.0;" width="6" x="1711" y="622.2266"/><text fill="#000000" font-family="sans-serif" font-size="14" lengthAdjust="spacing" textLength="125" x="1723" y="629.4551">alerts: ClinicalAlert[]</text><rect fill="none" height="6" style="stroke:#C82930;stroke-width:1.0;" width="6" x="1711" y="639.8359"/><text fill="#000000" font-family="sans-serif" font-size="14" lengthAdjust="spacing" textLength="189" x="1723" y="647.0645">anomalies: VitalSignAnomaly[]</text><rect fill="none" height="6" style="stroke:#C82930;stroke-width:1.0;" width="6" x="1711" y="657.4453"/><text fill="#000000" font-family="sans-serif" font-size="14" lengthAdjust="spacing" textLength="121" x="1723" y="664.6738">teams: CareTeam[]</text><rect fill="none" height="6" style="stroke:#C82930;stroke-width:1.0;" width="6" x="1711" y="675.0547"/><text fill="#000000" font-family="sans-serif" font-size="14" lengthAdjust="spacing" textLength="192" x="1723" y="682.2832">teamMembers: TeamMember[]</text><line style="stroke:#181818;stroke-width:0.5;" x1="1704" x2="1920" y1="689.3594" y2="689.3594"/><ellipse cx="1714" cy="703.6641" fill="#84BE84" rx="3" ry="3" style="stroke:#038048;stroke-width:1.0;"/><text fill="#000000" font-family="sans-serif" font-size="14" lengthAdjust="spacing" textLength="52" x="1723" y="707.8926">loadAll()</text></g><!--class SimulationStore--><g id="elem_SimulationStore"><rect codeLine="97" fill="#F1F1F1" height="287.625" id="SimulationStore" rx="2.5" ry="2.5" style="stroke:#181818;stroke-width:0.5;" width="185" x="1457.5" y="480"/><ellipse cx="1496.8" cy="501.3516" fill="#ADD1B2" rx="11" ry="11" style="stroke:#181818;stroke-width:1.0;"/><path d="M1499.5656,497.2266 Q1499.7219,497.0078 1499.9094,496.8984 Q1500.0969,496.7891 1500.3156,496.7891 Q1500.6906,496.7891 1500.925,497.0547 Q1501.1594,497.3047 1501.1594,497.9141 L1501.1594,499.3672 Q1501.1594,499.9766 1500.925,500.2422 Q1500.6906,500.5078 1500.3156,500.5078 Q1499.9719,500.5078 1499.7688,500.3047 Q1499.5656,500.1172 1499.4563,499.6016 Q1499.4094,499.2422 1499.2219,499.0547 Q1498.8938,498.6797 1498.2844,498.4609 Q1497.675,498.2422 1497.05,498.2422 Q1496.2844,498.2422 1495.6438,498.5703 Q1495.0188,498.8984 1494.5188,499.6484 Q1494.0344,500.3984 1494.0344,501.4297 L1494.0344,502.5234 Q1494.0344,503.7578 1494.925,504.5859 Q1495.8156,505.3984 1497.4094,505.3984 Q1498.3469,505.3984 1499.0031,505.1484 Q1499.3938,504.9922 1499.8156,504.5547 Q1500.0813,504.2891 1500.2219,504.2109 Q1500.3781,504.1328 1500.5813,504.1328 Q1500.9094,504.1328 1501.1594,504.3984 Q1501.425,504.6484 1501.425,504.9922 Q1501.425,505.3359 1501.0813,505.7422 Q1500.5813,506.3203 1499.7844,506.6484 Q1498.7063,507.1016 1497.4094,507.1016 Q1495.8938,507.1016 1494.6906,506.4766 Q1493.7063,505.9766 1493.0188,504.9141 Q1492.3313,503.8359 1492.3313,502.5547 L1492.3313,501.3984 Q1492.3313,500.0703 1492.9406,498.9297 Q1493.5656,497.7734 1494.6594,497.1641 Q1495.7531,496.5391 1496.9875,496.5391 Q1497.7219,496.5391 1498.3625,496.7109 Q1499.0188,496.8672 1499.5656,497.2266 Z " fill="#000000"/><text fill="#000000" font-family="sans-serif" font-size="12" font-style="italic" lengthAdjust="spacing" textLength="41" x="1545.2" y="497.457">&#171;store&#187;</text><text fill="#000000" font-family="sans-serif" font-size="14" lengthAdjust="spacing" textLength="99" x="1516.2" y="514.627">SimulationStore</text><line style="stroke:#181818;stroke-width:0.5;" x1="1458.5" x2="1641.5" y1="522.7031" y2="522.7031"/><rect fill="none" height="6" style="stroke:#C82930;stroke-width:1.0;" width="6" x="1465.5" y="534.0078"/><text fill="#000000" font-family="sans-serif" font-size="14" lengthAdjust="spacing" textLength="130" x="1477.5" y="541.2363">currentBpm: Number</text><rect fill="none" height="6" style="stroke:#C82930;stroke-width:1.0;" width="6" x="1465.5" y="551.6172"/><text fill="#000000" font-family="sans-serif" font-size="14" lengthAdjust="spacing" textLength="150" x="1477.5" y="558.8457">currentFatigue: Number</text><rect fill="none" height="6" style="stroke:#C82930;stroke-width:1.0;" width="6" x="1465.5" y="569.2266"/><text fill="#000000" font-family="sans-serif" font-size="14" lengthAdjust="spacing" textLength="123" x="1477.5" y="576.4551">currentHrv: Number</text><rect fill="none" height="6" style="stroke:#C82930;stroke-width:1.0;" width="6" x="1465.5" y="586.8359"/><text fill="#000000" font-family="sans-serif" font-size="14" lengthAdjust="spacing" textLength="150" x="1477.5" y="594.0645">currentCortisol: Number</text><rect fill="none" height="6" style="stroke:#C82930;stroke-width:1.0;" width="6" x="1465.5" y="604.4453"/><text fill="#000000" font-family="sans-serif" font-size="14" lengthAdjust="spacing" textLength="112" x="1477.5" y="611.6738">isCritical: boolean</text><rect fill="none" height="6" style="stroke:#C82930;stroke-width:1.0;" width="6" x="1465.5" y="622.0547"/><text fill="#000000" font-family="sans-serif" font-size="14" lengthAdjust="spacing" textLength="116" x="1477.5" y="629.2832">graphData: Object</text><rect fill="none" height="6" style="stroke:#C82930;stroke-width:1.0;" width="6" x="1465.5" y="639.6641"/><text fill="#000000" font-family="sans-serif" font-size="14" lengthAdjust="spacing" textLength="129" x="1477.5" y="646.8926">latestRiskId: Number</text><ellipse cx="1468.5" cy="660.2734" fill="none" rx="3" ry="3" style="stroke:#038048;stroke-width:1.0;"/><text fill="#000000" font-family="sans-serif" font-size="14" lengthAdjust="spacing" textLength="146" x="1477.5" y="664.502">graphPoints: computed</text><line style="stroke:#181818;stroke-width:0.5;" x1="1458.5" x2="1641.5" y1="671.5781" y2="671.5781"/><ellipse cx="1468.5" cy="685.8828" fill="#84BE84" rx="3" ry="3" style="stroke:#038048;stroke-width:1.0;"/><text fill="#000000" font-family="sans-serif" font-size="14" lengthAdjust="spacing" textLength="103" x="1477.5" y="690.1113">startSimulation()</text><ellipse cx="1468.5" cy="703.4922" fill="#84BE84" rx="3" ry="3" style="stroke:#038048;stroke-width:1.0;"/><text fill="#000000" font-family="sans-serif" font-size="14" lengthAdjust="spacing" textLength="102" x="1477.5" y="707.7207">stopSimulation()</text><ellipse cx="1468.5" cy="721.1016" fill="#84BE84" rx="3" ry="3" style="stroke:#038048;stroke-width:1.0;"/><text fill="#000000" font-family="sans-serif" font-size="14" lengthAdjust="spacing" textLength="123" x="1477.5" y="725.3301">triggerStressPeak()</text><ellipse cx="1468.5" cy="738.7109" fill="#84BE84" rx="3" ry="3" style="stroke:#038048;stroke-width:1.0;"/><text fill="#000000" font-family="sans-serif" font-size="14" lengthAdjust="spacing" textLength="149" x="1477.5" y="742.9395">reduceFatigue(amount)</text><ellipse cx="1468.5" cy="756.3203" fill="#84BE84" rx="3" ry="3" style="stroke:#038048;stroke-width:1.0;"/><text fill="#000000" font-family="sans-serif" font-size="14" lengthAdjust="spacing" textLength="159" x="1477.5" y="760.5488">increaseFatigue(amount)</text></g><!--class AdminDashboard--><g id="elem_AdminDashboard"><rect codeLine="117" fill="#F1F1F1" height="76.3125" id="AdminDashboard" rx="2.5" ry="2.5" style="stroke:#181818;stroke-width:0.5;" width="172" x="2122" y="319"/><ellipse cx="2150.95" cy="340.3516" fill="#ADD1B2" rx="11" ry="11" style="stroke:#181818;stroke-width:1.0;"/><path d="M2153.7156,336.2266 Q2153.8719,336.0078 2154.0594,335.8984 Q2154.2469,335.7891 2154.4656,335.7891 Q2154.8406,335.7891 2155.075,336.0547 Q2155.3094,336.3047 2155.3094,336.9141 L2155.3094,338.3672 Q2155.3094,338.9766 2155.075,339.2422 Q2154.8406,339.5078 2154.4656,339.5078 Q2154.1219,339.5078 2153.9188,339.3047 Q2153.7156,339.1172 2153.6063,338.6016 Q2153.5594,338.2422 2153.3719,338.0547 Q2153.0438,337.6797 2152.4344,337.4609 Q2151.825,337.2422 2151.2,337.2422 Q2150.4344,337.2422 2149.7938,337.5703 Q2149.1688,337.8984 2148.6688,338.6484 Q2148.1844,339.3984 2148.1844,340.4297 L2148.1844,341.5234 Q2148.1844,342.7578 2149.075,343.5859 Q2149.9656,344.3984 2151.5594,344.3984 Q2152.4969,344.3984 2153.1531,344.1484 Q2153.5438,343.9922 2153.9656,343.5547 Q2154.2313,343.2891 2154.3719,343.2109 Q2154.5281,343.1328 2154.7313,343.1328 Q2155.0594,343.1328 2155.3094,343.3984 Q2155.575,343.6484 2155.575,343.9922 Q2155.575,344.3359 2155.2313,344.7422 Q2154.7313,345.3203 2153.9344,345.6484 Q2152.8563,346.1016 2151.5594,346.1016 Q2150.0438,346.1016 2148.8406,345.4766 Q2147.8563,344.9766 2147.1688,343.9141 Q2146.4813,342.8359 2146.4813,341.5547 L2146.4813,340.3984 Q2146.4813,339.0703 2147.0906,337.9297 Q2147.7156,336.7734 2148.8094,336.1641 Q2149.9031,335.5391 2151.1375,335.5391 Q2151.8719,335.5391 2152.5125,335.7109 Q2153.1688,335.8672 2153.7156,336.2266 Z " fill="#000000"/><text fill="#000000" font-family="sans-serif" font-size="12" font-style="italic" lengthAdjust="spacing" textLength="38" x="2203.55" y="336.457">&#171;view&#187;</text><text fill="#000000" font-family="sans-serif" font-size="14" lengthAdjust="spacing" textLength="109" x="2168.05" y="353.627">AdminDashboard</text><line style="stroke:#181818;stroke-width:0.5;" x1="2123" x2="2293" y1="361.7031" y2="361.7031"/><rect fill="none" height="6" style="stroke:#C82930;stroke-width:1.0;" width="6" x="2130" y="373.0078"/><text fill="#000000" font-family="sans-serif" font-size="14" lengthAdjust="spacing" textLength="146" x="2142" y="380.2363">store: ClinicalRiskStore</text><line style="stroke:#181818;stroke-width:0.5;" x1="2123" x2="2293" y1="387.3125" y2="387.3125"/></g><!--class DoctorHealthDashboard--><g id="elem_DoctorHealthDashboard"><rect codeLine="121" fill="#F1F1F1" height="76.3125" id="DoctorHealthDashboard" rx="2.5" ry="2.5" style="stroke:#181818;stroke-width:0.5;" width="184" x="1878" y="319"/><ellipse cx="1893" cy="340.3516" fill="#ADD1B2" rx="11" ry="11" style="stroke:#181818;stroke-width:1.0;"/><path d="M1895.7656,336.2266 Q1895.9219,336.0078 1896.1094,335.8984 Q1896.2969,335.7891 1896.5156,335.7891 Q1896.8906,335.7891 1897.125,336.0547 Q1897.3594,336.3047 1897.3594,336.9141 L1897.3594,338.3672 Q1897.3594,338.9766 1897.125,339.2422 Q1896.8906,339.5078 1896.5156,339.5078 Q1896.1719,339.5078 1895.9688,339.3047 Q1895.7656,339.1172 1895.6563,338.6016 Q1895.6094,338.2422 1895.4219,338.0547 Q1895.0938,337.6797 1894.4844,337.4609 Q1893.875,337.2422 1893.25,337.2422 Q1892.4844,337.2422 1891.8438,337.5703 Q1891.2188,337.8984 1890.7188,338.6484 Q1890.2344,339.3984 1890.2344,340.4297 L1890.2344,341.5234 Q1890.2344,342.7578 1891.125,343.5859 Q1892.0156,344.3984 1893.6094,344.3984 Q1894.5469,344.3984 1895.2031,344.1484 Q1895.5938,343.9922 1896.0156,343.5547 Q1896.2813,343.2891 1896.4219,343.2109 Q1896.5781,343.1328 1896.7813,343.1328 Q1897.1094,343.1328 1897.3594,343.3984 Q1897.625,343.6484 1897.625,343.9922 Q1897.625,344.3359 1897.2813,344.7422 Q1896.7813,345.3203 1895.9844,345.6484 Q1894.9063,346.1016 1893.6094,346.1016 Q1892.0938,346.1016 1890.8906,345.4766 Q1889.9063,344.9766 1889.2188,343.9141 Q1888.5313,342.8359 1888.5313,341.5547 L1888.5313,340.3984 Q1888.5313,339.0703 1889.1406,337.9297 Q1889.7656,336.7734 1890.8594,336.1641 Q1891.9531,335.5391 1893.1875,335.5391 Q1893.9219,335.5391 1894.5625,335.7109 Q1895.2188,335.8672 1895.7656,336.2266 Z " fill="#000000"/><text fill="#000000" font-family="sans-serif" font-size="12" font-style="italic" lengthAdjust="spacing" textLength="38" x="1964" y="336.457">&#171;view&#187;</text><text fill="#000000" font-family="sans-serif" font-size="14" lengthAdjust="spacing" textLength="152" x="1907" y="353.627">DoctorHealthDashboard</text><line style="stroke:#181818;stroke-width:0.5;" x1="1879" x2="2061" y1="361.7031" y2="361.7031"/><rect fill="none" height="6" style="stroke:#C82930;stroke-width:1.0;" width="6" x="1886" y="373.0078"/><text fill="#000000" font-family="sans-serif" font-size="14" lengthAdjust="spacing" textLength="146" x="1898" y="380.2363">store: ClinicalRiskStore</text><line style="stroke:#181818;stroke-width:0.5;" x1="1879" x2="2061" y1="387.3125" y2="387.3125"/></g><!--class DoctorVitalSigns--><g id="elem_DoctorVitalSigns"><rect codeLine="125" fill="#F1F1F1" height="93.9219" id="DoctorVitalSigns" rx="2.5" ry="2.5" style="stroke:#181818;stroke-width:0.5;" width="230" x="882" y="310"/><ellipse cx="940.75" cy="331.3516" fill="#ADD1B2" rx="11" ry="11" style="stroke:#181818;stroke-width:1.0;"/><path d="M943.5156,327.2266 Q943.6719,327.0078 943.8594,326.8984 Q944.0469,326.7891 944.2656,326.7891 Q944.6406,326.7891 944.875,327.0547 Q945.1094,327.3047 945.1094,327.9141 L945.1094,329.3672 Q945.1094,329.9766 944.875,330.2422 Q944.6406,330.5078 944.2656,330.5078 Q943.9219,330.5078 943.7188,330.3047 Q943.5156,330.1172 943.4063,329.6016 Q943.3594,329.2422 943.1719,329.0547 Q942.8438,328.6797 942.2344,328.4609 Q941.625,328.2422 941,328.2422 Q940.2344,328.2422 939.5938,328.5703 Q938.9688,328.8984 938.4688,329.6484 Q937.9844,330.3984 937.9844,331.4297 L937.9844,332.5234 Q937.9844,333.7578 938.875,334.5859 Q939.7656,335.3984 941.3594,335.3984 Q942.2969,335.3984 942.9531,335.1484 Q943.3438,334.9922 943.7656,334.5547 Q944.0313,334.2891 944.1719,334.2109 Q944.3281,334.1328 944.5313,334.1328 Q944.8594,334.1328 945.1094,334.3984 Q945.375,334.6484 945.375,334.9922 Q945.375,335.3359 945.0313,335.7422 Q944.5313,336.3203 943.7344,336.6484 Q942.6563,337.1016 941.3594,337.1016 Q939.8438,337.1016 938.6406,336.4766 Q937.6563,335.9766 936.9688,334.9141 Q936.2813,333.8359 936.2813,332.5547 L936.2813,331.3984 Q936.2813,330.0703 936.8906,328.9297 Q937.5156,327.7734 938.6094,327.1641 Q939.7031,326.5391 940.9375,326.5391 Q941.6719,326.5391 942.3125,326.7109 Q942.9688,326.8672 943.5156,327.2266 Z " fill="#000000"/><text fill="#000000" font-family="sans-serif" font-size="12" font-style="italic" lengthAdjust="spacing" textLength="38" x="994.25" y="327.457">&#171;view&#187;</text><text fill="#000000" font-family="sans-serif" font-size="14" lengthAdjust="spacing" textLength="104" x="961.25" y="344.627">DoctorVitalSigns</text><line style="stroke:#181818;stroke-width:0.5;" x1="883" x2="1111" y1="352.7031" y2="352.7031"/><rect fill="none" height="6" style="stroke:#C82930;stroke-width:1.0;" width="6" x="890" y="364.0078"/><text fill="#000000" font-family="sans-serif" font-size="14" lengthAdjust="spacing" textLength="204" x="902" y="371.2363">simulationStore: SimulationStore</text><line style="stroke:#181818;stroke-width:0.5;" x1="883" x2="1111" y1="378.3125" y2="378.3125"/><ellipse cx="893" cy="392.6172" fill="#84BE84" rx="3" ry="3" style="stroke:#038048;stroke-width:1.0;"/><text fill="#000000" font-family="sans-serif" font-size="14" lengthAdjust="spacing" textLength="104" x="902" y="396.8457">triggerReading()</text></g><!--class SupervisorAnomalies--><g id="elem_SupervisorAnomalies"><rect codeLine="130" fill="#F1F1F1" height="93.9219" id="SupervisorAnomalies" rx="2.5" ry="2.5" style="stroke:#181818;stroke-width:0.5;" width="172" x="1646" y="310"/><ellipse cx="1664.15" cy="331.3516" fill="#ADD1B2" rx="11" ry="11" style="stroke:#181818;stroke-width:1.0;"/><path d="M1666.9156,327.2266 Q1667.0719,327.0078 1667.2594,326.8984 Q1667.4469,326.7891 1667.6656,326.7891 Q1668.0406,326.7891 1668.275,327.0547 Q1668.5094,327.3047 1668.5094,327.9141 L1668.5094,329.3672 Q1668.5094,329.9766 1668.275,330.2422 Q1668.0406,330.5078 1667.6656,330.5078 Q1667.3219,330.5078 1667.1188,330.3047 Q1666.9156,330.1172 1666.8063,329.6016 Q1666.7594,329.2422 1666.5719,329.0547 Q1666.2438,328.6797 1665.6344,328.4609 Q1665.025,328.2422 1664.4,328.2422 Q1663.6344,328.2422 1662.9938,328.5703 Q1662.3688,328.8984 1661.8688,329.6484 Q1661.3844,330.3984 1661.3844,331.4297 L1661.3844,332.5234 Q1661.3844,333.7578 1662.275,334.5859 Q1663.1656,335.3984 1664.7594,335.3984 Q1665.6969,335.3984 1666.3531,335.1484 Q1666.7438,334.9922 1667.1656,334.5547 Q1667.4313,334.2891 1667.5719,334.2109 Q1667.7281,334.1328 1667.9313,334.1328 Q1668.2594,334.1328 1668.5094,334.3984 Q1668.775,334.6484 1668.775,334.9922 Q1668.775,335.3359 1668.4313,335.7422 Q1667.9313,336.3203 1667.1344,336.6484 Q1666.0563,337.1016 1664.7594,337.1016 Q1663.2438,337.1016 1662.0406,336.4766 Q1661.0563,335.9766 1660.3688,334.9141 Q1659.6813,333.8359 1659.6813,332.5547 L1659.6813,331.3984 Q1659.6813,330.0703 1660.2906,328.9297 Q1660.9156,327.7734 1662.0094,327.1641 Q1663.1031,326.5391 1664.3375,326.5391 Q1665.0719,326.5391 1665.7125,326.7109 Q1666.3688,326.8672 1666.9156,327.2266 Z " fill="#000000"/><text fill="#000000" font-family="sans-serif" font-size="12" font-style="italic" lengthAdjust="spacing" textLength="38" x="1726.35" y="327.457">&#171;view&#187;</text><text fill="#000000" font-family="sans-serif" font-size="14" lengthAdjust="spacing" textLength="133" x="1678.85" y="344.627">SupervisorAnomalies</text><line style="stroke:#181818;stroke-width:0.5;" x1="1647" x2="1817" y1="352.7031" y2="352.7031"/><rect fill="none" height="6" style="stroke:#C82930;stroke-width:1.0;" width="6" x="1654" y="364.0078"/><text fill="#000000" font-family="sans-serif" font-size="14" lengthAdjust="spacing" textLength="146" x="1666" y="371.2363">store: ClinicalRiskStore</text><line style="stroke:#181818;stroke-width:0.5;" x1="1647" x2="1817" y1="378.3125" y2="378.3125"/><ellipse cx="1657" cy="392.6172" fill="#84BE84" rx="3" ry="3" style="stroke:#038048;stroke-width:1.0;"/><text fill="#000000" font-family="sans-serif" font-size="14" lengthAdjust="spacing" textLength="104" x="1666" y="396.8457">reviewAnomaly()</text></g><!--class SupervisorClinicalAlerts--><g id="elem_SupervisorClinicalAlerts"><rect codeLine="135" fill="#F1F1F1" height="93.9219" id="SupervisorClinicalAlerts" rx="2.5" ry="2.5" style="stroke:#181818;stroke-width:0.5;" width="181" x="1404.5" y="310"/><ellipse cx="1419.5" cy="331.3516" fill="#ADD1B2" rx="11" ry="11" style="stroke:#181818;stroke-width:1.0;"/><path d="M1422.2656,327.2266 Q1422.4219,327.0078 1422.6094,326.8984 Q1422.7969,326.7891 1423.0156,326.7891 Q1423.3906,326.7891 1423.625,327.0547 Q1423.8594,327.3047 1423.8594,327.9141 L1423.8594,329.3672 Q1423.8594,329.9766 1423.625,330.2422 Q1423.3906,330.5078 1423.0156,330.5078 Q1422.6719,330.5078 1422.4688,330.3047 Q1422.2656,330.1172 1422.1563,329.6016 Q1422.1094,329.2422 1421.9219,329.0547 Q1421.5938,328.6797 1420.9844,328.4609 Q1420.375,328.2422 1419.75,328.2422 Q1418.9844,328.2422 1418.3438,328.5703 Q1417.7188,328.8984 1417.2188,329.6484 Q1416.7344,330.3984 1416.7344,331.4297 L1416.7344,332.5234 Q1416.7344,333.7578 1417.625,334.5859 Q1418.5156,335.3984 1420.1094,335.3984 Q1421.0469,335.3984 1421.7031,335.1484 Q1422.0938,334.9922 1422.5156,334.5547 Q1422.7813,334.2891 1422.9219,334.2109 Q1423.0781,334.1328 1423.2813,334.1328 Q1423.6094,334.1328 1423.8594,334.3984 Q1424.125,334.6484 1424.125,334.9922 Q1424.125,335.3359 1423.7813,335.7422 Q1423.2813,336.3203 1422.4844,336.6484 Q1421.4063,337.1016 1420.1094,337.1016 Q1418.5938,337.1016 1417.3906,336.4766 Q1416.4063,335.9766 1415.7188,334.9141 Q1415.0313,333.8359 1415.0313,332.5547 L1415.0313,331.3984 Q1415.0313,330.0703 1415.6406,328.9297 Q1416.2656,327.7734 1417.3594,327.1641 Q1418.4531,326.5391 1419.6875,326.5391 Q1420.4219,326.5391 1421.0625,326.7109 Q1421.7188,326.8672 1422.2656,327.2266 Z " fill="#000000"/><text fill="#000000" font-family="sans-serif" font-size="12" font-style="italic" lengthAdjust="spacing" textLength="38" x="1489" y="327.457">&#171;view&#187;</text><text fill="#000000" font-family="sans-serif" font-size="14" lengthAdjust="spacing" textLength="149" x="1433.5" y="344.627">SupervisorClinicalAlerts</text><line style="stroke:#181818;stroke-width:0.5;" x1="1405.5" x2="1584.5" y1="352.7031" y2="352.7031"/><rect fill="none" height="6" style="stroke:#C82930;stroke-width:1.0;" width="6" x="1412.5" y="364.0078"/><text fill="#000000" font-family="sans-serif" font-size="14" lengthAdjust="spacing" textLength="146" x="1424.5" y="371.2363">store: ClinicalRiskStore</text><line style="stroke:#181818;stroke-width:0.5;" x1="1405.5" x2="1584.5" y1="378.3125" y2="378.3125"/><ellipse cx="1415.5" cy="392.6172" fill="#84BE84" rx="3" ry="3" style="stroke:#038048;stroke-width:1.0;"/><text fill="#000000" font-family="sans-serif" font-size="14" lengthAdjust="spacing" textLength="85" x="1424.5" y="396.8457">resolveAlert()</text></g><!--class SupervisorDashboard--><g id="elem_SupervisorDashboard"><rect codeLine="140" fill="#F1F1F1" height="76.3125" id="SupervisorDashboard" rx="2.5" ry="2.5" style="stroke:#181818;stroke-width:0.5;" width="172" x="1172" y="319"/><ellipse cx="1187.9" cy="340.3516" fill="#ADD1B2" rx="11" ry="11" style="stroke:#181818;stroke-width:1.0;"/><path d="M1190.6656,336.2266 Q1190.8219,336.0078 1191.0094,335.8984 Q1191.1969,335.7891 1191.4156,335.7891 Q1191.7906,335.7891 1192.025,336.0547 Q1192.2594,336.3047 1192.2594,336.9141 L1192.2594,338.3672 Q1192.2594,338.9766 1192.025,339.2422 Q1191.7906,339.5078 1191.4156,339.5078 Q1191.0719,339.5078 1190.8688,339.3047 Q1190.6656,339.1172 1190.5563,338.6016 Q1190.5094,338.2422 1190.3219,338.0547 Q1189.9938,337.6797 1189.3844,337.4609 Q1188.775,337.2422 1188.15,337.2422 Q1187.3844,337.2422 1186.7438,337.5703 Q1186.1188,337.8984 1185.6188,338.6484 Q1185.1344,339.3984 1185.1344,340.4297 L1185.1344,341.5234 Q1185.1344,342.7578 1186.025,343.5859 Q1186.9156,344.3984 1188.5094,344.3984 Q1189.4469,344.3984 1190.1031,344.1484 Q1190.4938,343.9922 1190.9156,343.5547 Q1191.1813,343.2891 1191.3219,343.2109 Q1191.4781,343.1328 1191.6813,343.1328 Q1192.0094,343.1328 1192.2594,343.3984 Q1192.525,343.6484 1192.525,343.9922 Q1192.525,344.3359 1192.1813,344.7422 Q1191.6813,345.3203 1190.8844,345.6484 Q1189.8063,346.1016 1188.5094,346.1016 Q1186.9938,346.1016 1185.7906,345.4766 Q1184.8063,344.9766 1184.1188,343.9141 Q1183.4313,342.8359 1183.4313,341.5547 L1183.4313,340.3984 Q1183.4313,339.0703 1184.0406,337.9297 Q1184.6656,336.7734 1185.7594,336.1641 Q1186.8531,335.5391 1188.0875,335.5391 Q1188.8219,335.5391 1189.4625,335.7109 Q1190.1188,335.8672 1190.6656,336.2266 Z " fill="#000000"/><text fill="#000000" font-family="sans-serif" font-size="12" font-style="italic" lengthAdjust="spacing" textLength="38" x="1252.1" y="336.457">&#171;view&#187;</text><text fill="#000000" font-family="sans-serif" font-size="14" lengthAdjust="spacing" textLength="138" x="1202.1" y="353.627">SupervisorDashboard</text><line style="stroke:#181818;stroke-width:0.5;" x1="1173" x2="1343" y1="361.7031" y2="361.7031"/><rect fill="none" height="6" style="stroke:#C82930;stroke-width:1.0;" width="6" x="1180" y="373.0078"/><text fill="#000000" font-family="sans-serif" font-size="14" lengthAdjust="spacing" textLength="146" x="1192" y="380.2363">store: ClinicalRiskStore</text><line style="stroke:#181818;stroke-width:0.5;" x1="1173" x2="1343" y1="387.3125" y2="387.3125"/></g><!--class SupervisorRiskStaff--><g id="elem_SupervisorRiskStaff"><rect codeLine="144" fill="#F1F1F1" height="76.3125" id="SupervisorRiskStaff" rx="2.5" ry="2.5" style="stroke:#181818;stroke-width:0.5;" width="172" x="2354" y="319"/><ellipse cx="2376.2" cy="340.3516" fill="#ADD1B2" rx="11" ry="11" style="stroke:#181818;stroke-width:1.0;"/><path d="M2378.9656,336.2266 Q2379.1219,336.0078 2379.3094,335.8984 Q2379.4969,335.7891 2379.7156,335.7891 Q2380.0906,335.7891 2380.325,336.0547 Q2380.5594,336.3047 2380.5594,336.9141 L2380.5594,338.3672 Q2380.5594,338.9766 2380.325,339.2422 Q2380.0906,339.5078 2379.7156,339.5078 Q2379.3719,339.5078 2379.1688,339.3047 Q2378.9656,339.1172 2378.8563,338.6016 Q2378.8094,338.2422 2378.6219,338.0547 Q2378.2938,337.6797 2377.6844,337.4609 Q2377.075,337.2422 2376.45,337.2422 Q2375.6844,337.2422 2375.0438,337.5703 Q2374.4188,337.8984 2373.9188,338.6484 Q2373.4344,339.3984 2373.4344,340.4297 L2373.4344,341.5234 Q2373.4344,342.7578 2374.325,343.5859 Q2375.2156,344.3984 2376.8094,344.3984 Q2377.7469,344.3984 2378.4031,344.1484 Q2378.7938,343.9922 2379.2156,343.5547 Q2379.4813,343.2891 2379.6219,343.2109 Q2379.7781,343.1328 2379.9813,343.1328 Q2380.3094,343.1328 2380.5594,343.3984 Q2380.825,343.6484 2380.825,343.9922 Q2380.825,344.3359 2380.4813,344.7422 Q2379.9813,345.3203 2379.1844,345.6484 Q2378.1063,346.1016 2376.8094,346.1016 Q2375.2938,346.1016 2374.0906,345.4766 Q2373.1063,344.9766 2372.4188,343.9141 Q2371.7313,342.8359 2371.7313,341.5547 L2371.7313,340.3984 Q2371.7313,339.0703 2372.3406,337.9297 Q2372.9656,336.7734 2374.0594,336.1641 Q2375.1531,335.5391 2376.3875,335.5391 Q2377.1219,335.5391 2377.7625,335.7109 Q2378.4188,335.8672 2378.9656,336.2266 Z " fill="#000000"/><text fill="#000000" font-family="sans-serif" font-size="12" font-style="italic" lengthAdjust="spacing" textLength="38" x="2434.8" y="336.457">&#171;view&#187;</text><text fill="#000000" font-family="sans-serif" font-size="14" lengthAdjust="spacing" textLength="124" x="2391.8" y="353.627">SupervisorRiskStaff</text><line style="stroke:#181818;stroke-width:0.5;" x1="2355" x2="2525" y1="361.7031" y2="361.7031"/><rect fill="none" height="6" style="stroke:#C82930;stroke-width:1.0;" width="6" x="2362" y="373.0078"/><text fill="#000000" font-family="sans-serif" font-size="14" lengthAdjust="spacing" textLength="146" x="2374" y="380.2363">store: ClinicalRiskStore</text><line style="stroke:#181818;stroke-width:0.5;" x1="2355" x2="2525" y1="387.3125" y2="387.3125"/></g><!--reverse link AppLayout to AppSidebar--><g id="link_AppLayout_AppSidebar"><path codeLine="26" d="M281.94,161 C246.5,161 218,161 218,161 C218,161 218,272.4 218,327.23 " fill="none" id="AppLayout-backto-AppSidebar" style="stroke:#181818;stroke-width:1.0;"/><polygon fill="#181818" points="293.94,161,287.94,157,281.94,161,287.94,165,293.94,161" style="stroke:#181818;stroke-width:1.0;"/><polygon fill="#000000" points="157.205,219.9925,163.1952,212.6055,157.7092,210.4953,157.205,219.9925" style="stroke:#000000;stroke-width:1.0;"/><text fill="#000000" font-family="sans-serif" font-size="13" lengthAdjust="spacing" textLength="49" x="168" y="220.6451">contains</text></g><!--reverse link AppLayout to AppTopbar--><g id="link_AppLayout_AppTopbar"><path codeLine="27" d="M372.56,202.34 C372.56,239.38 372.56,290.18 372.56,327.2 " fill="none" id="AppLayout-backto-AppTopbar" style="stroke:#181818;stroke-width:1.0;"/><polygon fill="#181818" points="372.56,190.34,368.56,196.34,372.56,202.34,376.56,196.34,372.56,190.34" style="stroke:#181818;stroke-width:1.0;"/><polygon fill="#000000" points="313.56,254.9458,316.4989,245.9007,310.6211,245.9007,313.56,254.9458" style="stroke:#000000;stroke-width:1.0;"/><text fill="#000000" font-family="sans-serif" font-size="13" lengthAdjust="spacing" textLength="49" x="322.56" y="255.2651">contains</text></g><!--reverse link AppTopbar to LanguageSwitcher--><g id="link_AppTopbar_LanguageSwitcher"><path codeLine="28" d="M278.99,357 C260.3,357 255.75,357 255.75,357 C255.75,357 255.75,624 255.75,624 C255.75,624 240.16,624 220.72,624 " fill="none" id="AppTopbar-backto-LanguageSwitcher" style="stroke:#181818;stroke-width:1.0;"/><polygon fill="#181818" points="290.99,357,284.99,353,278.99,357,284.99,361,290.99,357" style="stroke:#181818;stroke-width:1.0;"/><polygon fill="#000000" points="195.6839,486.4608,200.4838,478.2504,194.7412,476.9971,195.6839,486.4608" style="stroke:#000000;stroke-width:1.0;"/><text fill="#000000" font-family="sans-serif" font-size="13" lengthAdjust="spacing" textLength="49" x="205.75" y="486.8951">contains</text></g><!--reverse link AppTopbar to LogoutButton--><g id="link_AppTopbar_LogoutButton"><path codeLine="29" d="M343,398.59 C343,449.92 343,542.86 343,594.27 " fill="none" id="AppTopbar-backto-LogoutButton" style="stroke:#181818;stroke-width:1.0;"/><polygon fill="#181818" points="343,386.59,339,392.59,343,398.59,347,392.59,343,386.59" style="stroke:#181818;stroke-width:1.0;"/><polygon fill="#000000" points="284,486.6058,286.9389,477.5607,281.0611,477.5607,284,486.6058" style="stroke:#000000;stroke-width:1.0;"/><text fill="#000000" font-family="sans-serif" font-size="13" lengthAdjust="spacing" textLength="49" x="293" y="486.9251">contains</text></g><!--link ClinicalRiskApi to BaseEndpoint--><g id="link_ClinicalRiskApi_BaseEndpoint"><path codeLine="83" d="M2191.45,864 C1813.33,864 718,864 718,864 C718,864 718,326.42 718,202.72 " fill="none" id="ClinicalRiskApi-to-BaseEndpoint" style="stroke:#181818;stroke-width:1.0;stroke-dasharray:7.0,7.0;"/><polygon fill="none" points="718,184.72,712,202.72,724,202.72,718,184.72" style="stroke:#181818;stroke-width:1.0;"/></g><!--link ClinicalRiskStore to ClinicalRiskApi--><g id="link_ClinicalRiskStore_ClinicalRiskApi"><path codeLine="113" d="M1907.17,715.23 C1907.17,779.45 1907.17,854 1907.17,854 C1907.17,854 2064.67,854 2185.38,854 " fill="none" id="ClinicalRiskStore-to-ClinicalRiskApi" style="stroke:#181818;stroke-width:1.0;"/><polygon fill="#181818" points="2191.38,854,2182.38,850,2186.38,854,2182.38,858,2191.38,854" style="stroke:#181818;stroke-width:1.0;"/></g><!--link AdminDashboard to ClinicalRiskStore--><g id="link_AdminDashboard_ClinicalRiskStore"><path codeLine="148" d="M2156.75,395.08 C2156.75,462.07 2156.75,594 2156.75,594 C2156.75,594 2028.08,594 1927.08,594 " fill="none" id="AdminDashboard-to-ClinicalRiskStore" style="stroke:#181818;stroke-width:1.0;"/><polygon fill="#181818" points="1921.08,594,1930.08,598,1926.08,594,1930.08,590,1921.08,594" style="stroke:#181818;stroke-width:1.0;"/></g><!--link DoctorHealthDashboard to ClinicalRiskStore--><g id="link_DoctorHealthDashboard_ClinicalRiskStore"><path codeLine="149" d="M1899.5,395.25 C1899.5,431.01 1899.5,479.8 1899.5,526.79 " fill="none" id="DoctorHealthDashboard-to-ClinicalRiskStore" style="stroke:#181818;stroke-width:1.0;"/><polygon fill="#181818" points="1899.5,532.79,1903.5,523.79,1899.5,527.79,1895.5,523.79,1899.5,532.79" style="stroke:#181818;stroke-width:1.0;"/></g><!--link DoctorVitalSigns to SimulationStore--><g id="link_DoctorVitalSigns_SimulationStore"><path codeLine="150" d="M997,404.08 C997,457.71 997,538 997,538 C997,538 1294.01,538 1451.44,538 " fill="none" id="DoctorVitalSigns-to-SimulationStore" style="stroke:#181818;stroke-width:1.0;"/><polygon fill="#181818" points="1457.44,538,1448.44,534,1452.44,538,1448.44,542,1457.44,538" style="stroke:#181818;stroke-width:1.0;"/></g><!--link SupervisorAnomalies to ClinicalRiskStore--><g id="link_SupervisorAnomalies_ClinicalRiskStore"><path codeLine="151" d="M1789.25,404.12 C1789.25,439.68 1789.25,483.56 1789.25,526.82 " fill="none" id="SupervisorAnomalies-to-ClinicalRiskStore" style="stroke:#181818;stroke-width:1.0;"/><polygon fill="#181818" points="1789.25,532.82,1793.25,523.82,1789.25,527.82,1785.25,523.82,1789.25,532.82" style="stroke:#181818;stroke-width:1.0;"/></g><!--link SupervisorClinicalAlerts to ClinicalRiskStore--><g id="link_SupervisorClinicalAlerts_ClinicalRiskStore"><path codeLine="152" d="M1521.5,404.06 C1521.5,418.18 1521.5,430 1521.5,430 C1521.5,430 1760.5,430 1760.5,430 C1760.5,430 1760.5,476.56 1760.5,526.96 " fill="none" id="SupervisorClinicalAlerts-to-ClinicalRiskStore" style="stroke:#181818;stroke-width:1.0;"/><polygon fill="#181818" points="1760.5,532.96,1764.5,523.96,1760.5,527.96,1756.5,523.96,1760.5,532.96" style="stroke:#181818;stroke-width:1.0;"/></g><!--link SupervisorDashboard to ClinicalRiskStore--><g id="link_SupervisorDashboard_ClinicalRiskStore"><path codeLine="153" d="M1258,395.17 C1258,422.69 1258,455 1258,455 C1258,455 1731.75,455 1731.75,455 C1731.75,455 1731.75,486.76 1731.75,526.58 " fill="none" id="SupervisorDashboard-to-ClinicalRiskStore" style="stroke:#181818;stroke-width:1.0;"/><polygon fill="#181818" points="1731.75,532.58,1735.75,523.58,1731.75,527.58,1727.75,523.58,1731.75,532.58" style="stroke:#181818;stroke-width:1.0;"/></g><!--link SupervisorRiskStaff to ClinicalRiskStore--><g id="link_SupervisorRiskStaff_ClinicalRiskStore"><path codeLine="154" d="M2399.25,395.04 C2399.25,475.38 2399.25,655 2399.25,655 C2399.25,655 2096.91,655 1927.08,655 " fill="none" id="SupervisorRiskStaff-to-ClinicalRiskStore" style="stroke:#181818;stroke-width:1.0;"/><polygon fill="#181818" points="1921.08,655,1930.08,659,1926.08,655,1930.08,651,1921.08,655" style="stroke:#181818;stroke-width:1.0;"/></g><!--link RiskAssessment to VitalSignReading--><g id="link_RiskAssessment_VitalSignReading"><path codeLine="158" d="M1844,1273.53 C1844,1300 1844,1311.11 1844,1339.82 " fill="none" id="RiskAssessment-VitalSignReading" style="stroke:#181818;stroke-width:1.0;"/><line style="stroke:#181818;stroke-width:1.0;" x1="1840" x2="1848" y1="1269.53" y2="1269.53"/><line style="stroke:#181818;stroke-width:1.0;" x1="1840" x2="1848" y1="1272.53" y2="1272.53"/><line style="stroke:#181818;stroke-width:1.0;" x1="1844" x2="1844" y1="1273.53" y2="1265.53"/><polygon fill="none" points="1844,1351.82,1848,1345.82,1844,1339.82,1840,1345.82,1844,1351.82" style="stroke:#181818;stroke-width:1.0;"/><polygon fill="#000000" points="1781,1304.8558,1783.9389,1295.8107,1778.0611,1295.8107,1781,1304.8558" style="stroke:#000000;stroke-width:1.0;"/><text fill="#000000" font-family="sans-serif" font-size="13" lengthAdjust="spacing" textLength="53" x="1790" y="1305.1751">based on</text></g><!--link VitalSignAnomaly to VitalSignReading--><g id="link_VitalSignAnomaly_VitalSignReading"><path codeLine="159" d="M1732.75,1300.14 C1732.75,1319.71 1732.75,1324.38 1732.75,1343.94 " fill="none" id="VitalSignAnomaly-VitalSignReading" style="stroke:#181818;stroke-width:1.0;"/><line style="stroke:#181818;stroke-width:1.0;" x1="1732.75" x2="1726.75" y1="1300.14" y2="1292.14"/><line style="stroke:#181818;stroke-width:1.0;" x1="1732.75" x2="1738.75" y1="1300.14" y2="1292.14"/><line style="stroke:#181818;stroke-width:1.0;" x1="1732.75" x2="1732.75" y1="1300.14" y2="1292.14"/><line style="stroke:#181818;stroke-width:1.0;" x1="1728.75" x2="1736.75" y1="1302.14" y2="1302.14"/><line style="stroke:#181818;stroke-width:1.0;" x1="1736.75" x2="1728.75" y1="1347.94" y2="1347.94"/><line style="stroke:#181818;stroke-width:1.0;" x1="1736.75" x2="1728.75" y1="1344.94" y2="1344.94"/><line style="stroke:#181818;stroke-width:1.0;" x1="1732.75" x2="1732.75" y1="1343.94" y2="1351.94"/><polygon fill="#000000" points="1654.75,1318.2158,1657.6889,1309.1707,1651.8111,1309.1707,1654.75,1318.2158" style="stroke:#000000;stroke-width:1.0;"/><text fill="#000000" font-family="sans-serif" font-size="13" lengthAdjust="spacing" textLength="68" x="1663.75" y="1318.5351">triggered by</text></g><!--link ClinicalAlert to RiskAssessment--><g id="link_ClinicalAlert_RiskAssessment"><path codeLine="160" d="M1846.75,1028.81 C1846.75,1065.28 1846.75,1092.9 1846.75,1128.08 " fill="none" id="ClinicalAlert-RiskAssessment" style="stroke:#181818;stroke-width:1.0;"/><line style="stroke:#181818;stroke-width:1.0;" x1="1846.75" x2="1840.75" y1="1028.81" y2="1020.81"/><line style="stroke:#181818;stroke-width:1.0;" x1="1846.75" x2="1852.75" y1="1028.81" y2="1020.81"/><line style="stroke:#181818;stroke-width:1.0;" x1="1846.75" x2="1846.75" y1="1028.81" y2="1020.81"/><line style="stroke:#181818;stroke-width:1.0;" x1="1842.75" x2="1850.75" y1="1030.81" y2="1030.81"/><line style="stroke:#181818;stroke-width:1.0;" x1="1850.75" x2="1842.75" y1="1132.08" y2="1132.08"/><line style="stroke:#181818;stroke-width:1.0;" x1="1850.75" x2="1842.75" y1="1129.08" y2="1129.08"/><line style="stroke:#181818;stroke-width:1.0;" x1="1846.75" x2="1846.75" y1="1128.08" y2="1136.08"/><polygon fill="#000000" points="1751.75,1074.6158,1754.6889,1065.5707,1748.8111,1065.5707,1751.75,1074.6158" style="stroke:#000000;stroke-width:1.0;"/><text fill="#000000" font-family="sans-serif" font-size="13" lengthAdjust="spacing" textLength="85" x="1760.75" y="1074.9351">escalated from</text></g><!--reverse link ClinicalRiskStore to VitalSignAnomaly--><g id="link_ClinicalRiskStore_VitalSignAnomaly"><path codeLine="161" d="M1723.75,727.11 C1723.75,835.08 1723.75,1001.92 1723.75,1109.89 " fill="none" id="ClinicalRiskStore-backto-VitalSignAnomaly" style="stroke:#181818;stroke-width:1.0;"/><polygon fill="none" points="1723.75,715.11,1719.75,721.11,1723.75,727.11,1727.75,721.11,1723.75,715.11" style="stroke:#181818;stroke-width:1.0;"/><polygon fill="#000000" points="1660.75,908.6758,1663.6889,899.6307,1657.8111,899.6307,1660.75,908.6758" style="stroke:#000000;stroke-width:1.0;"/><text fill="#000000" font-family="sans-serif" font-size="13" lengthAdjust="spacing" textLength="53" x="1669.75" y="908.9951">manages</text></g><!--reverse link ClinicalRiskStore to ClinicalAlert--><g id="link_ClinicalRiskStore_ClinicalAlert"><path codeLine="162" d="M1812,727.26 C1812,777.26 1812,826.41 1812,873.34 " fill="none" id="ClinicalRiskStore-backto-ClinicalAlert" style="stroke:#181818;stroke-width:1.0;"/><polygon fill="none" points="1812,715.26,1808,721.26,1812,727.26,1816,721.26,1812,715.26" style="stroke:#181818;stroke-width:1.0;"/><polygon fill="#000000" points="1749,790.4758,1751.9389,781.4307,1746.0611,781.4307,1749,790.4758" style="stroke:#000000;stroke-width:1.0;"/><text fill="#000000" font-family="sans-serif" font-size="13" lengthAdjust="spacing" textLength="53" x="1758" y="790.7951">manages</text></g><!--reverse link ClinicalRiskStore to RiskAssessment--><g id="link_ClinicalRiskStore_RiskAssessment"><path codeLine="163" d="M1893.33,727.11 C1893.33,844.45 1893.33,1033.49 1893.33,1136.3 " fill="none" id="ClinicalRiskStore-backto-RiskAssessment" style="stroke:#181818;stroke-width:1.0;"/><polygon fill="none" points="1893.33,715.11,1889.33,721.11,1893.33,727.11,1897.33,721.11,1893.33,715.11" style="stroke:#181818;stroke-width:1.0;"/><polygon fill="#000000" points="1898.33,921.8858,1901.2689,912.8407,1895.3911,912.8407,1898.33,921.8858" style="stroke:#000000;stroke-width:1.0;"/><text fill="#000000" font-family="sans-serif" font-size="13" lengthAdjust="spacing" textLength="53" x="1907.33" y="922.2051">manages</text></g><!--link AppLayout to AdminDashboard--><g id="link_AppLayout_AdminDashboard"><path codeLine="166" d="M350.11,190.11 C350.11,207.06 350.11,225 350.11,225 C350.11,225 2208,225 2208,225 C2208,225 2208,273.84 2208,312.82 " fill="none" id="AppLayout-to-AdminDashboard" style="stroke:#181818;stroke-width:1.0;stroke-dasharray:7.0,7.0;"/><polygon fill="#181818" points="2208,318.82,2212,309.82,2208,313.82,2204,309.82,2208,318.82" style="stroke:#181818;stroke-width:1.0;"/><polygon fill="#000000" points="1260.5091,216.5053,1251.6774,212.9767,1251.29,218.8417,1260.5091,216.5053" style="stroke:#000000;stroke-width:1.0;"/><text fill="#000000" font-family="sans-serif" font-size="13" lengthAdjust="spacing" textLength="43" x="1264.52" y="221.4951">renders</text></g><!--link AppLayout to DoctorHealthDashboard--><g id="link_AppLayout_DoctorHealthDashboard"><path codeLine="167" d="M338.89,190.38 C338.89,213.64 338.89,242 338.89,242 C338.89,242 1970,242 1970,242 C1970,242 1970,279.25 1970,312.71 " fill="none" id="AppLayout-to-DoctorHealthDashboard" style="stroke:#181818;stroke-width:1.0;stroke-dasharray:7.0,7.0;"/><polygon fill="#181818" points="1970,318.71,1974,309.71,1970,313.71,1966,309.71,1970,318.71" style="stroke:#181818;stroke-width:1.0;"/><polygon fill="#000000" points="1118.976,233.5497,1110.176,229.9426,1109.7364,235.804,1118.976,233.5497" style="stroke:#000000;stroke-width:1.0;"/><text fill="#000000" font-family="sans-serif" font-size="13" lengthAdjust="spacing" textLength="43" x="1122.99" y="238.4951">renders</text></g><!--link AppLayout to DoctorVitalSigns--><g id="link_AppLayout_DoctorVitalSigns"><path codeLine="168" d="M383.78,190.31 C383.78,236.23 383.78,319 383.78,319 C383.78,319 698.02,319 875.66,319 " fill="none" id="AppLayout-to-DoctorVitalSigns" style="stroke:#181818;stroke-width:1.0;stroke-dasharray:7.0,7.0;"/><polygon fill="#181818" points="881.66,319,872.66,315,876.66,319,872.66,323,881.66,319" style="stroke:#181818;stroke-width:1.0;"/><polygon fill="#000000" points="520.2072,311.4413,512.2005,306.3087,510.7128,311.9952,520.2072,311.4413" style="stroke:#000000;stroke-width:1.0;"/><text fill="#000000" font-family="sans-serif" font-size="13" lengthAdjust="spacing" textLength="43" x="524.37" y="315.4951">renders</text></g><!--link AppLayout to SupervisorAnomalies--><g id="link_AppLayout_SupervisorAnomalies"><path codeLine="169" d="M327.67,190.05 C327.67,219.07 327.67,259 327.67,259 C327.67,259 1732,259 1732,259 C1732,259 1732,278.66 1732,303.72 " fill="none" id="AppLayout-to-SupervisorAnomalies" style="stroke:#181818;stroke-width:1.0;stroke-dasharray:7.0,7.0;"/><polygon fill="#181818" points="1732,309.72,1736,300.72,1732,304.72,1728,300.72,1732,309.72" style="stroke:#181818;stroke-width:1.0;"/><polygon fill="#000000" points="972.7037,250.5792,963.9252,246.9201,963.451,252.7788,972.7037,250.5792" style="stroke:#000000;stroke-width:1.0;"/><text fill="#000000" font-family="sans-serif" font-size="13" lengthAdjust="spacing" textLength="43" x="976.72" y="255.4951">renders</text></g><!--link AppLayout to SupervisorClinicalAlerts--><g id="link_AppLayout_SupervisorClinicalAlerts"><path codeLine="170" d="M316.44,190.24 C316.44,224.47 316.44,276 316.44,276 C316.44,276 1495,276 1495,276 C1495,276 1495,286.06 1495,303.88 " fill="none" id="AppLayout-to-SupervisorClinicalAlerts" style="stroke:#181818;stroke-width:1.0;stroke-dasharray:7.0,7.0;"/><polygon fill="#181818" points="1495,309.88,1499,300.88,1495,304.88,1491,300.88,1495,309.88" style="stroke:#181818;stroke-width:1.0;"/><polygon fill="#000000" points="831.7669,267.6557,823.0457,263.8622,822.4815,269.7129,831.7669,267.6557" style="stroke:#000000;stroke-width:1.0;"/><text fill="#000000" font-family="sans-serif" font-size="13" lengthAdjust="spacing" textLength="43" x="835.79" y="272.4951">renders</text></g><!--link AppLayout to SupervisorDashboard--><g id="link_AppLayout_SupervisorDashboard"><path codeLine="171" d="M305.22,190.24 C305.22,229.3 305.22,293 305.22,293 C305.22,293 1258,293 1258,293 C1258,293 1258,299.03 1258,312.66 " fill="none" id="AppLayout-to-SupervisorDashboard" style="stroke:#181818;stroke-width:1.0;stroke-dasharray:7.0,7.0;"/><polygon fill="#181818" points="1258,318.66,1262,309.66,1258,313.66,1254,309.66,1258,318.66" style="stroke:#181818;stroke-width:1.0;"/><polygon fill="#000000" points="695.0192,284.813,686.4224,280.7453,685.6734,286.5752,695.0192,284.813" style="stroke:#000000;stroke-width:1.0;"/><text fill="#000000" font-family="sans-serif" font-size="13" lengthAdjust="spacing" textLength="43" x="699.06" y="289.4951">renders</text></g><!--link AppLayout to SupervisorRiskStaff--><g id="link_AppLayout_SupervisorRiskStaff"><path codeLine="172" d="M361.33,190.04 C361.33,199.7 361.33,208 361.33,208 C361.33,208 2440,208 2440,208 C2440,208 2440,268.48 2440,312.63 " fill="none" id="AppLayout-to-SupervisorRiskStaff" style="stroke:#181818;stroke-width:1.0;stroke-dasharray:7.0,7.0;"/><polygon fill="#181818" points="2440,318.63,2444,309.63,2440,313.63,2436,309.63,2440,318.63" style="stroke:#181818;stroke-width:1.0;"/><polygon fill="#000000" points="1398.9913,199.4701,1390.135,196.0038,1389.7889,201.8715,1398.9913,199.4701" style="stroke:#000000;stroke-width:1.0;"/><text fill="#000000" font-family="sans-serif" font-size="13" lengthAdjust="spacing" textLength="43" x="1403" y="204.4951">renders</text></g><!--SRC=[hLV1RkCs4BtdAuYzr6dgeASUX8K19scH06aRnEbUYc91InERjKGI7CgxHfr_xr2I9L6Y56qsFiInvWqrCtnlECITa9eRdh5KIB073KmPkrLdM1iqZtTy0ojxI84PY2sNcnHQ0AaIGD3ibvzR3msNk-hXMRK2-x3QSWC9krAvJEZxMaaBN-q7nf5XQVhlZ35Mu-_ai-5eJHxRt40BzrbubjBDVUAK8x8hZl2hJBGIqZQs5nzqQwrc7pyklmg5Tn8fhHWMYmwy-EF5z60eMMcv5Kgs8zAjvyqYjTkrohII1C2sKrm_RLoQ29TQt_E3oYs5MICNYm0mjzk9IArN8e4rDnEGJqfF0DuJ7t97a2_2nbju7Qys5EXLRYqLAeZrA_y3gsXJbv3T2Z3Sn5i1w11DdNwSpzifHYmcYd4XaIs2m2h30AwoE5mlmLVWxVmyw4jB2jUaDn7pb3qAtB4b8Y1cBhUGEE8A_DauiA-H6vNHyZuiAPvrLV59M9wkn4O-0a-4t53nwON27jgiTvyv4qd4_iYpDHZ_-HQuiO_Sme3PxCE6PvB59eTxs4CQHiJKTWIgT0H2ya9bLYIn72D6ugSSseWBL-ko9oWpIxZbvmsZ1agnb5IgzF26KhXU6Oh2nRa7GsiDM0VZdxCzJ_E1HJFY1-ttT-PzOjqo1MFVaFJRKtkV-9rOMbhvzWHU9wAJM6N-nb3hUCVEhrgZuoVOQQEAXBNmqxjWEOB1sNd47epA189ljS2pSUllu18VnhWY35kvOm_EYeCU1q65igX33x-aR4ElBQGvTTs2i3EH_4G_3wdYoJYwLFKulk5MjzYNbyU5DqC4jfPwVae-zHHGxojl36ERkY820H4OtNUVlyK6H-ml-lhxdpv1oUHBeGigjoZo1Ty3dROewZN4BhIW52r71_4J_HioLvoAs5FzmuTTCBSHopIT3Ufx9R8yBMhtIdtYt1XA-qfd0yT9QV-jbFievdReqAhirzN950O9lAQ6w4eSiRLIAN3f0pQ6w-qDTOg8_Rd-byPdtqpP0bgtcNV1bdLHBl3WQ8XkciXqRY7n8THuZMrgrzJtP5Pws4fDRhC1EbTfWCK7uBikW6QlF8Qgb3EUqO1YEn0XOr8p3e72KYktU3vVT0KOa5jlwgxr5fwxgnasoOIyuRXTAsuIOjDUm9S-cGgEHVtOUXS7V_KRvKw1M-2ftRx7IqAhrxh4uOLzpKHT4GLtkne1HvIOQp1xuhrPdhh4crCxqSXvdrhpX1TxlUlxtquItaDvZanu-VjlQBDs2UNFp- -mTeVYNJLvNc72Jd1fiT2X1mWMeipeueDRFT5hOWwXmWywjAwTZr0cYLkXYtjcP_ey7kTprRzLqJb0dJ1Xr8wAss7lhl52ViTZoB4I9pcl3wMpFx1Ndfqu8WP843f84lPCCuxlsNHQHPVJNZ0HoxYa5ejZNduKarnwCJO-PNK_4V7BApsAedVFYjYhktvvJSTp_zP-URde4ZuYPTDzsVHk-0uR9lm4bnRXHz4Xoazqw51-ejV4B4AKRpky_0y0]--></g></svg>