<?xml version="1.0" encoding="us-ascii" standalone="no"?><svg xmlns="http://www.w3.org/2000/svg" xmlns:xlink="http://www.w3.org/1999/xlink" contentStyleType="text/css" height="499px" preserveAspectRatio="none" style="width:2405px;height:499px;background:#FFFFFF;" version="1.1" viewBox="0 0 2405 499" width="2405px" zoomAndPan="magnify"><defs/><g><!--cluster Shared--><g id="cluster_Shared"><rect fill="#F0F4F8" height="486" rx="2.5" ry="2.5" style="stroke:#4A90E2;stroke-width:1.5;" width="2392" x="7" y="7"/><text fill="#000000" font-family="Arial" font-size="14" font-weight="bold" lengthAdjust="spacing" textLength="177" x="1114.5" y="22.1318">Shared Bounded Context</text></g><!--cluster SharedDomain--><g id="cluster_SharedDomain"><rect fill="#F0F4F8" height="168" rx="2.5" ry="2.5" style="stroke:#4A90E2;stroke-width:1.5;" width="1018" x="1357" y="301"/><text fill="#000000" font-family="Arial" font-size="14" font-weight="bold" lengthAdjust="spacing" textLength="52" x="1840" y="316.1318">Domain</text></g><!--cluster SharedInfra--><g id="cluster_SharedInfra"><rect fill="#F0F4F8" height="398.5" rx="2.5" ry="2.5" style="stroke:#4A90E2;stroke-width:1.5;" width="1302" x="31" y="50"/><text fill="#000000" font-family="Arial" font-size="14" font-weight="bold" lengthAdjust="spacing" textLength="97" x="633.5" y="65.1318">Infrastructure</text></g><!--class IBaseRepository--><g id="elem_IBaseRepository"><rect codeLine="16" fill="#FDFDFD" height="116.9941" id="IBaseRepository" rx="2.5" ry="2.5" style="stroke:#181818;stroke-width:0.5;" width="372" x="1987" y="336"/><ellipse cx="2102.75" cy="352" fill="#B4A7E5" rx="11" ry="11" style="stroke:#181818;stroke-width:1.0;"/><path d="M2103.7031,348.6406 L2103.7031,355.2969 L2105.4219,355.2969 Q2106.0313,355.2969 2106.2969,355.5313 Q2106.5625,355.7656 2106.5625,356.1563 Q2106.5625,356.5313 2106.2969,356.7656 Q2106.0313,357 2105.4219,357 L2100.2813,357 Q2099.6719,357 2099.4063,356.7656 Q2099.1406,356.5313 2099.1406,356.1406 Q2099.1406,355.7656 2099.4063,355.5313 Q2099.6719,355.2969 2100.2813,355.2969 L2102,355.2969 L2102,348.6406 L2100.2813,348.6406 Q2099.6719,348.6406 2099.4063,348.4063 Q2099.1406,348.1719 2099.1406,347.7813 Q2099.1406,347.4063 2099.4063,347.1719 Q2099.6719,346.9375 2100.2813,346.9375 L2105.4219,346.9375 Q2106.0313,346.9375 2106.2969,347.1719 Q2106.5625,347.4063 2106.5625,347.7813 Q2106.5625,348.1719 2106.2969,348.4063 Q2106.0313,348.6406 2105.4219,348.6406 L2103.7031,348.6406 Z " fill="#000000"/><text fill="#000000" font-family="Arial" font-size="12" font-style="italic" lengthAdjust="spacing" textLength="91" x="2123.25" y="356.3564">IBaseRepository</text><rect fill="#FFFFFF" height="15.7988" style="stroke:#181818;stroke-width:1.0;stroke-dasharray:2.0,2.0;" width="39" x="2323" y="333"/><text fill="#000000" font-family="Arial" font-size="12" font-style="italic" lengthAdjust="spacing" textLength="37" x="2324" y="345.2559">TEntity</text><line style="stroke:#181818;stroke-width:0.5;" x1="1988" x2="2358" y1="368" y2="368"/><line style="stroke:#181818;stroke-width:0.5;" x1="1988" x2="2358" y1="376" y2="376"/><ellipse cx="1998" cy="388.3994" fill="#84BE84" rx="3" ry="3" style="stroke:#038048;stroke-width:1.0;"/><text fill="#000000" font-family="Arial" font-size="12" lengthAdjust="spacing" textLength="288" x="2007" y="391.2559">AddAsync(entity: TEntity, ct: CancellationToken): Task</text><ellipse cx="1998" cy="402.1982" fill="#84BE84" rx="3" ry="3" style="stroke:#038048;stroke-width:1.0;"/><text fill="#000000" font-family="Arial" font-size="12" lengthAdjust="spacing" textLength="330" x="2007" y="405.0547">FindByIdAsync(id: int, ct: CancellationToken): Task&lt;TEntity?&gt;</text><ellipse cx="1998" cy="415.9971" fill="#84BE84" rx="3" ry="3" style="stroke:#038048;stroke-width:1.0;"/><text fill="#000000" font-family="Arial" font-size="12" lengthAdjust="spacing" textLength="146" x="2007" y="418.8535">Update(entity: TEntity): void</text><ellipse cx="1998" cy="429.7959" fill="#84BE84" rx="3" ry="3" style="stroke:#038048;stroke-width:1.0;"/><text fill="#000000" font-family="Arial" font-size="12" lengthAdjust="spacing" textLength="152" x="2007" y="432.6523">Remove(entity: TEntity): void</text><ellipse cx="1998" cy="443.5947" fill="#84BE84" rx="3" ry="3" style="stroke:#038048;stroke-width:1.0;"/><text fill="#000000" font-family="Arial" font-size="12" lengthAdjust="spacing" textLength="346" x="2007" y="446.4512">ListAsync(ct: CancellationToken): Task&lt;IEnumerable&lt;TEntity&gt;&gt;</text></g><!--class IUnitOfWork--><g id="elem_IUnitOfWork"><rect codeLine="24" fill="#FDFDFD" height="61.7988" id="IUnitOfWork" rx="2.5" ry="2.5" style="stroke:#181818;stroke-width:0.5;" width="271" x="1635.5" y="363.5"/><ellipse cx="1733.25" cy="379.5" fill="#B4A7E5" rx="11" ry="11" style="stroke:#181818;stroke-width:1.0;"/><path d="M1734.2031,376.1406 L1734.2031,382.7969 L1735.9219,382.7969 Q1736.5313,382.7969 1736.7969,383.0313 Q1737.0625,383.2656 1737.0625,383.6563 Q1737.0625,384.0313 1736.7969,384.2656 Q1736.5313,384.5 1735.9219,384.5 L1730.7813,384.5 Q1730.1719,384.5 1729.9063,384.2656 Q1729.6406,384.0313 1729.6406,383.6406 Q1729.6406,383.2656 1729.9063,383.0313 Q1730.1719,382.7969 1730.7813,382.7969 L1732.5,382.7969 L1732.5,376.1406 L1730.7813,376.1406 Q1730.1719,376.1406 1729.9063,375.9063 Q1729.6406,375.6719 1729.6406,375.2813 Q1729.6406,374.9063 1729.9063,374.6719 Q1730.1719,374.4375 1730.7813,374.4375 L1735.9219,374.4375 Q1736.5313,374.4375 1736.7969,374.6719 Q1737.0625,374.9063 1737.0625,375.2813 Q1737.0625,375.6719 1736.7969,375.9063 Q1736.5313,376.1406 1735.9219,376.1406 L1734.2031,376.1406 Z " fill="#000000"/><text fill="#000000" font-family="Arial" font-size="12" font-style="italic" lengthAdjust="spacing" textLength="67" x="1753.75" y="383.8564">IUnitOfWork</text><line style="stroke:#181818;stroke-width:0.5;" x1="1636.5" x2="1905.5" y1="395.5" y2="395.5"/><line style="stroke:#181818;stroke-width:0.5;" x1="1636.5" x2="1905.5" y1="403.5" y2="403.5"/><ellipse cx="1646.5" cy="415.8994" fill="#84BE84" rx="3" ry="3" style="stroke:#038048;stroke-width:1.0;"/><text fill="#000000" font-family="Arial" font-size="12" lengthAdjust="spacing" textLength="245" x="1655.5" y="418.7559">CompleteAsync(ct: CancellationToken): Task</text></g><!--class IAuditableEntity--><g id="elem_IAuditableEntity"><rect codeLine="28" fill="#FDFDFD" height="81.1953" id="IAuditableEntity" rx="2.5" ry="2.5" style="stroke:#181818;stroke-width:0.5;" width="182" x="1373" y="354"/><ellipse cx="1416.35" cy="372.7988" fill="#B4A7E5" rx="11" ry="11" style="stroke:#181818;stroke-width:1.0;"/><path d="M1417.3031,369.4395 L1417.3031,376.0957 L1419.0219,376.0957 Q1419.6313,376.0957 1419.8969,376.3301 Q1420.1625,376.5645 1420.1625,376.9551 Q1420.1625,377.3301 1419.8969,377.5645 Q1419.6313,377.7988 1419.0219,377.7988 L1413.8813,377.7988 Q1413.2719,377.7988 1413.0063,377.5645 Q1412.7406,377.3301 1412.7406,376.9395 Q1412.7406,376.5645 1413.0063,376.3301 Q1413.2719,376.0957 1413.8813,376.0957 L1415.6,376.0957 L1415.6,369.4395 L1413.8813,369.4395 Q1413.2719,369.4395 1413.0063,369.2051 Q1412.7406,368.9707 1412.7406,368.5801 Q1412.7406,368.2051 1413.0063,367.9707 Q1413.2719,367.7363 1413.8813,367.7363 L1419.0219,367.7363 Q1419.6313,367.7363 1419.8969,367.9707 Q1420.1625,368.2051 1420.1625,368.5801 Q1420.1625,368.9707 1419.8969,369.2051 Q1419.6313,369.4395 1419.0219,369.4395 L1417.3031,369.4395 Z " fill="#000000"/><text fill="#000000" font-family="Arial" font-size="12" font-style="italic" lengthAdjust="spacing" textLength="44" x="1458.15" y="370.2559">&#171;Entity&#187;</text><text fill="#000000" font-family="Arial" font-size="12" font-style="italic" lengthAdjust="spacing" textLength="87" x="1436.65" y="384.0547">IAuditableEntity</text><line style="stroke:#181818;stroke-width:0.5;" x1="1374" x2="1554" y1="391.5977" y2="391.5977"/><ellipse cx="1384" cy="403.9971" fill="none" rx="3" ry="3" style="stroke:#038048;stroke-width:1.0;"/><text fill="#000000" font-family="Arial" font-size="12" lengthAdjust="spacing" textLength="153" x="1393" y="406.8535">CreatedAt: DateTimeOffset?</text><ellipse cx="1384" cy="417.7959" fill="none" rx="3" ry="3" style="stroke:#038048;stroke-width:1.0;"/><text fill="#000000" font-family="Arial" font-size="12" lengthAdjust="spacing" textLength="156" x="1393" y="420.6523">UpdatedAt: DateTimeOffset?</text><line style="stroke:#181818;stroke-width:0.5;" x1="1374" x2="1554" y1="427.1953" y2="427.1953"/></g><!--class AppDbContext--><g id="elem_AppDbContext"><rect codeLine="35" fill="#FDFDFD" height="75.5977" id="AppDbContext" rx="2.5" ry="2.5" style="stroke:#181818;stroke-width:0.5;" width="351" x="747.5" y="356.5"/><ellipse cx="879.75" cy="372.5" fill="#ADD1B2" rx="11" ry="11" style="stroke:#181818;stroke-width:1.0;"/><path d="M882.5156,368.375 Q882.6719,368.1563 882.8594,368.0469 Q883.0469,367.9375 883.2656,367.9375 Q883.6406,367.9375 883.875,368.2031 Q884.1094,368.4531 884.1094,369.0625 L884.1094,370.5156 Q884.1094,371.125 883.875,371.3906 Q883.6406,371.6563 883.2656,371.6563 Q882.9219,371.6563 882.7188,371.4531 Q882.5156,371.2656 882.4063,370.75 Q882.3594,370.3906 882.1719,370.2031 Q881.8438,369.8281 881.2344,369.6094 Q880.625,369.3906 880,369.3906 Q879.2344,369.3906 878.5938,369.7188 Q877.9688,370.0469 877.4688,370.7969 Q876.9844,371.5469 876.9844,372.5781 L876.9844,373.6719 Q876.9844,374.9063 877.875,375.7344 Q878.7656,376.5469 880.3594,376.5469 Q881.2969,376.5469 881.9531,376.2969 Q882.3438,376.1406 882.7656,375.7031 Q883.0313,375.4375 883.1719,375.3594 Q883.3281,375.2813 883.5313,375.2813 Q883.8594,375.2813 884.1094,375.5469 Q884.375,375.7969 884.375,376.1406 Q884.375,376.4844 884.0313,376.8906 Q883.5313,377.4688 882.7344,377.7969 Q881.6563,378.25 880.3594,378.25 Q878.8438,378.25 877.6406,377.625 Q876.6563,377.125 875.9688,376.0625 Q875.2813,374.9844 875.2813,373.7031 L875.2813,372.5469 Q875.2813,371.2188 875.8906,370.0781 Q876.5156,368.9219 877.6094,368.3125 Q878.7031,367.6875 879.9375,367.6875 Q880.6719,367.6875 881.3125,367.8594 Q881.9688,368.0156 882.5156,368.375 Z " fill="#000000"/><text fill="#000000" font-family="Arial" font-size="12" lengthAdjust="spacing" textLength="78" x="900.25" y="376.8564">AppDbContext</text><line style="stroke:#181818;stroke-width:0.5;" x1="748.5" x2="1097.5" y1="388.5" y2="388.5"/><line style="stroke:#181818;stroke-width:0.5;" x1="748.5" x2="1097.5" y1="396.5" y2="396.5"/><ellipse cx="758.5" cy="408.8994" fill="#84BE84" rx="3" ry="3" style="stroke:#038048;stroke-width:1.0;"/><text fill="#000000" font-family="Arial" font-size="12" lengthAdjust="spacing" textLength="325" x="767.5" y="411.7559">AppDbContext(options: DbContextOptions&lt;AppDbContext&gt;)</text><ellipse cx="758.5" cy="422.6982" fill="#84BE84" rx="3" ry="3" style="stroke:#038048;stroke-width:1.0;"/><text fill="#000000" font-family="Arial" font-size="12" lengthAdjust="spacing" textLength="296" x="767.5" y="425.5547">SaveChangesAsync(ct: CancellationToken): Task&lt;int&gt;</text></g><!--class BaseRepository--><g id="elem_BaseRepository"><rect codeLine="40" fill="#FDFDFD" height="130.793" id="BaseRepository" rx="2.5" ry="2.5" style="stroke:#181818;stroke-width:0.5;" width="372" x="945" y="85"/><ellipse cx="1062.25" cy="101" fill="#ADD1B2" rx="11" ry="11" style="stroke:#181818;stroke-width:1.0;"/><path d="M1065.0156,96.875 Q1065.1719,96.6563 1065.3594,96.5469 Q1065.5469,96.4375 1065.7656,96.4375 Q1066.1406,96.4375 1066.375,96.7031 Q1066.6094,96.9531 1066.6094,97.5625 L1066.6094,99.0156 Q1066.6094,99.625 1066.375,99.8906 Q1066.1406,100.1563 1065.7656,100.1563 Q1065.4219,100.1563 1065.2188,99.9531 Q1065.0156,99.7656 1064.9063,99.25 Q1064.8594,98.8906 1064.6719,98.7031 Q1064.3438,98.3281 1063.7344,98.1094 Q1063.125,97.8906 1062.5,97.8906 Q1061.7344,97.8906 1061.0938,98.2188 Q1060.4688,98.5469 1059.9688,99.2969 Q1059.4844,100.0469 1059.4844,101.0781 L1059.4844,102.1719 Q1059.4844,103.4063 1060.375,104.2344 Q1061.2656,105.0469 1062.8594,105.0469 Q1063.7969,105.0469 1064.4531,104.7969 Q1064.8438,104.6406 1065.2656,104.2031 Q1065.5313,103.9375 1065.6719,103.8594 Q1065.8281,103.7813 1066.0313,103.7813 Q1066.3594,103.7813 1066.6094,104.0469 Q1066.875,104.2969 1066.875,104.6406 Q1066.875,104.9844 1066.5313,105.3906 Q1066.0313,105.9688 1065.2344,106.2969 Q1064.1563,106.75 1062.8594,106.75 Q1061.3438,106.75 1060.1406,106.125 Q1059.1563,105.625 1058.4688,104.5625 Q1057.7813,103.4844 1057.7813,102.2031 L1057.7813,101.0469 Q1057.7813,99.7188 1058.3906,98.5781 Q1059.0156,97.4219 1060.1094,96.8125 Q1061.2031,96.1875 1062.4375,96.1875 Q1063.1719,96.1875 1063.8125,96.3594 Q1064.4688,96.5156 1065.0156,96.875 Z " fill="#000000"/><text fill="#000000" font-family="Arial" font-size="12" lengthAdjust="spacing" textLength="88" x="1082.75" y="105.3564">BaseRepository</text><rect fill="#FFFFFF" height="15.7988" style="stroke:#181818;stroke-width:1.0;stroke-dasharray:2.0,2.0;" width="39" x="1281" y="82"/><text fill="#000000" font-family="Arial" font-size="12" font-style="italic" lengthAdjust="spacing" textLength="37" x="1282" y="94.2559">TEntity</text><line style="stroke:#181818;stroke-width:0.5;" x1="946" x2="1316" y1="117" y2="117"/><line style="stroke:#181818;stroke-width:0.5;" x1="946" x2="1316" y1="125" y2="125"/><ellipse cx="956" cy="137.3994" fill="#84BE84" rx="3" ry="3" style="stroke:#038048;stroke-width:1.0;"/><text fill="#000000" font-family="Arial" font-size="12" lengthAdjust="spacing" textLength="218" x="965" y="140.2559">BaseRepository(context: AppDbContext)</text><ellipse cx="956" cy="151.1982" fill="#84BE84" rx="3" ry="3" style="stroke:#038048;stroke-width:1.0;"/><text fill="#000000" font-family="Arial" font-size="12" lengthAdjust="spacing" textLength="288" x="965" y="154.0547">AddAsync(entity: TEntity, ct: CancellationToken): Task</text><ellipse cx="956" cy="164.9971" fill="#84BE84" rx="3" ry="3" style="stroke:#038048;stroke-width:1.0;"/><text fill="#000000" font-family="Arial" font-size="12" lengthAdjust="spacing" textLength="330" x="965" y="167.8535">FindByIdAsync(id: int, ct: CancellationToken): Task&lt;TEntity?&gt;</text><ellipse cx="956" cy="178.7959" fill="#84BE84" rx="3" ry="3" style="stroke:#038048;stroke-width:1.0;"/><text fill="#000000" font-family="Arial" font-size="12" lengthAdjust="spacing" textLength="146" x="965" y="181.6523">Update(entity: TEntity): void</text><ellipse cx="956" cy="192.5947" fill="#84BE84" rx="3" ry="3" style="stroke:#038048;stroke-width:1.0;"/><text fill="#000000" font-family="Arial" font-size="12" lengthAdjust="spacing" textLength="152" x="965" y="195.4512">Remove(entity: TEntity): void</text><ellipse cx="956" cy="206.3936" fill="#84BE84" rx="3" ry="3" style="stroke:#038048;stroke-width:1.0;"/><text fill="#000000" font-family="Arial" font-size="12" lengthAdjust="spacing" textLength="346" x="965" y="209.25">ListAsync(ct: CancellationToken): Task&lt;IEnumerable&lt;TEntity&gt;&gt;</text></g><!--class UnitOfWork--><g id="elem_UnitOfWork"><rect codeLine="49" fill="#FDFDFD" height="75.5977" id="UnitOfWork" rx="2.5" ry="2.5" style="stroke:#181818;stroke-width:0.5;" width="271" x="593.5" y="112.5"/><ellipse cx="693.75" cy="128.5" fill="#ADD1B2" rx="11" ry="11" style="stroke:#181818;stroke-width:1.0;"/><path d="M696.5156,124.375 Q696.6719,124.1563 696.8594,124.0469 Q697.0469,123.9375 697.2656,123.9375 Q697.6406,123.9375 697.875,124.2031 Q698.1094,124.4531 698.1094,125.0625 L698.1094,126.5156 Q698.1094,127.125 697.875,127.3906 Q697.6406,127.6563 697.2656,127.6563 Q696.9219,127.6563 696.7188,127.4531 Q696.5156,127.2656 696.4063,126.75 Q696.3594,126.3906 696.1719,126.2031 Q695.8438,125.8281 695.2344,125.6094 Q694.625,125.3906 694,125.3906 Q693.2344,125.3906 692.5938,125.7188 Q691.9688,126.0469 691.4688,126.7969 Q690.9844,127.5469 690.9844,128.5781 L690.9844,129.6719 Q690.9844,130.9063 691.875,131.7344 Q692.7656,132.5469 694.3594,132.5469 Q695.2969,132.5469 695.9531,132.2969 Q696.3438,132.1406 696.7656,131.7031 Q697.0313,131.4375 697.1719,131.3594 Q697.3281,131.2813 697.5313,131.2813 Q697.8594,131.2813 698.1094,131.5469 Q698.375,131.7969 698.375,132.1406 Q698.375,132.4844 698.0313,132.8906 Q697.5313,133.4688 696.7344,133.7969 Q695.6563,134.25 694.3594,134.25 Q692.8438,134.25 691.6406,133.625 Q690.6563,133.125 689.9688,132.0625 Q689.2813,130.9844 689.2813,129.7031 L689.2813,128.5469 Q689.2813,127.2188 689.8906,126.0781 Q690.5156,124.9219 691.6094,124.3125 Q692.7031,123.6875 693.9375,123.6875 Q694.6719,123.6875 695.3125,123.8594 Q695.9688,124.0156 696.5156,124.375 Z " fill="#000000"/><text fill="#000000" font-family="Arial" font-size="12" lengthAdjust="spacing" textLength="62" x="714.25" y="132.8564">UnitOfWork</text><line style="stroke:#181818;stroke-width:0.5;" x1="594.5" x2="863.5" y1="144.5" y2="144.5"/><line style="stroke:#181818;stroke-width:0.5;" x1="594.5" x2="863.5" y1="152.5" y2="152.5"/><ellipse cx="604.5" cy="164.8994" fill="#84BE84" rx="3" ry="3" style="stroke:#038048;stroke-width:1.0;"/><text fill="#000000" font-family="Arial" font-size="12" lengthAdjust="spacing" textLength="192" x="613.5" y="167.7559">UnitOfWork(context: AppDbContext)</text><ellipse cx="604.5" cy="178.6982" fill="#84BE84" rx="3" ry="3" style="stroke:#038048;stroke-width:1.0;"/><text fill="#000000" font-family="Arial" font-size="12" lengthAdjust="spacing" textLength="245" x="613.5" y="181.5547">CompleteAsync(ct: CancellationToken): Task</text></g><!--class AuditableEntityInterceptor--><g id="elem_AuditableEntityInterceptor"><rect codeLine="54" fill="#FDFDFD" height="61.7988" id="AuditableEntityInterceptor" rx="2.5" ry="2.5" style="stroke:#181818;stroke-width:0.5;" width="466" x="47" y="119.5"/><ellipse cx="206.75" cy="135.5" fill="#ADD1B2" rx="11" ry="11" style="stroke:#181818;stroke-width:1.0;"/><path d="M209.5156,131.375 Q209.6719,131.1563 209.8594,131.0469 Q210.0469,130.9375 210.2656,130.9375 Q210.6406,130.9375 210.875,131.2031 Q211.1094,131.4531 211.1094,132.0625 L211.1094,133.5156 Q211.1094,134.125 210.875,134.3906 Q210.6406,134.6563 210.2656,134.6563 Q209.9219,134.6563 209.7188,134.4531 Q209.5156,134.2656 209.4063,133.75 Q209.3594,133.3906 209.1719,133.2031 Q208.8438,132.8281 208.2344,132.6094 Q207.625,132.3906 207,132.3906 Q206.2344,132.3906 205.5938,132.7188 Q204.9688,133.0469 204.4688,133.7969 Q203.9844,134.5469 203.9844,135.5781 L203.9844,136.6719 Q203.9844,137.9063 204.875,138.7344 Q205.7656,139.5469 207.3594,139.5469 Q208.2969,139.5469 208.9531,139.2969 Q209.3438,139.1406 209.7656,138.7031 Q210.0313,138.4375 210.1719,138.3594 Q210.3281,138.2813 210.5313,138.2813 Q210.8594,138.2813 211.1094,138.5469 Q211.375,138.7969 211.375,139.1406 Q211.375,139.4844 211.0313,139.8906 Q210.5313,140.4688 209.7344,140.7969 Q208.6563,141.25 207.3594,141.25 Q205.8438,141.25 204.6406,140.625 Q203.6563,140.125 202.9688,139.0625 Q202.2813,137.9844 202.2813,136.7031 L202.2813,135.5469 Q202.2813,134.2188 202.8906,133.0781 Q203.5156,131.9219 204.6094,131.3125 Q205.7031,130.6875 206.9375,130.6875 Q207.6719,130.6875 208.3125,130.8594 Q208.9688,131.0156 209.5156,131.375 Z " fill="#000000"/><text fill="#000000" font-family="Arial" font-size="12" lengthAdjust="spacing" textLength="138" x="227.25" y="139.8564">AuditableEntityInterceptor</text><line style="stroke:#181818;stroke-width:0.5;" x1="48" x2="512" y1="151.5" y2="151.5"/><line style="stroke:#181818;stroke-width:0.5;" x1="48" x2="512" y1="159.5" y2="159.5"/><ellipse cx="58" cy="171.8994" fill="#84BE84" rx="3" ry="3" style="stroke:#038048;stroke-width:1.0;"/><text fill="#000000" font-family="Arial" font-size="12" lengthAdjust="spacing" textLength="440" x="67" y="174.7559">SavingChangesAsync(eventData, result, ct): ValueTask&lt;InterceptionResult&lt;int&gt;&gt;</text></g><!--link BaseRepository to AppDbContext--><g id="link_BaseRepository_AppDbContext"><path codeLine="59" d="M1021.75,216.21 C1021.75,261.09 1021.75,313 1021.75,350.44 " fill="none" id="BaseRepository-to-AppDbContext" style="stroke:#555555;stroke-width:1.5;stroke-dasharray:7.0,7.0;"/><polygon fill="#555555" points="1021.75,356.44,1025.75,347.44,1021.75,351.44,1017.75,347.44,1021.75,356.44" style="stroke:#555555;stroke-width:1.5;"/><text fill="#000000" font-family="Arial" font-size="13" lengthAdjust="spacing" textLength="70" x="950.75" y="283.5138">dependency</text></g><!--link UnitOfWork to AppDbContext--><g id="link_UnitOfWork_AppDbContext"><path codeLine="60" d="M786.5,188.62 C786.5,234.33 786.5,304.48 786.5,350.24 " fill="none" id="UnitOfWork-to-AppDbContext" style="stroke:#555555;stroke-width:1.5;stroke-dasharray:7.0,7.0;"/><polygon fill="#555555" points="786.5,356.24,790.5,347.24,786.5,351.24,782.5,347.24,786.5,356.24" style="stroke:#555555;stroke-width:1.5;"/><text fill="#000000" font-family="Arial" font-size="13" lengthAdjust="spacing" textLength="70" x="715.5" y="269.6238">dependency</text></g><!--link BaseRepository to IBaseRepository--><g id="link_BaseRepository_IBaseRepository"><path codeLine="67" d="M1207.75,216.08 C1207.75,272.54 1207.75,345 1207.75,345 C1207.75,345 1688.4,345 1968.89,345 " fill="none" id="BaseRepository-to-IBaseRepository" style="stroke:#555555;stroke-width:1.5;stroke-dasharray:7.0,7.0;"/><polygon fill="none" points="1986.89,345,1968.89,339,1968.89,351,1986.89,345" style="stroke:#555555;stroke-width:1.5;"/><text fill="#000000" font-family="Arial" font-size="13" lengthAdjust="spacing" textLength="67" x="1464.86" y="342.1938">implements</text></g><!--link UnitOfWork to IUnitOfWork--><g id="link_UnitOfWork_IUnitOfWork"><path codeLine="68" d="M825.5,188.84 C825.5,225.74 825.5,276 825.5,276 C825.5,276 1771,276 1771,276 C1771,276 1771,310.26 1771,345.37 " fill="none" id="UnitOfWork-to-IUnitOfWork" style="stroke:#555555;stroke-width:1.5;stroke-dasharray:7.0,7.0;"/><polygon fill="none" points="1771,363.37,1777,345.37,1765,345.37,1771,363.37" style="stroke:#555555;stroke-width:1.5;"/><text fill="#000000" font-family="Arial" font-size="13" lengthAdjust="spacing" textLength="67" x="1230.35" y="273.1938">implements</text></g><!--SRC=[xLPHRzem47xdLrZTGq5ZLLkrKeSGLQ15GffMhT3jsOqlOCMnBTjXoxh-zvsJG9EGKYPjRpCFHBxlpjzzTnV7nbngQcX219VWCWr46RTI7RirQ1h6T0bpbmaW1a97vL901I0L0mkQN9rMDWsLiTyyEw_kCeXeAjnKIVUP9a02mwces4D1hVNMEVy9vEoYQGgSC_mnTV22EQzWg37g-sB5mrY2jUJivB9fd2YX37btcQzcz35ckZGgbQo4JLc4lrqjTe6dqulfLGjG6GQc15q47qzlppiTWgkqawFvYXfWPEo3uVy4yu8VxeXGIqhJK-vGSxfH2UMo0YesAb2_E8Oo4Gs1pCRKmZrePRbJ9XikRgNZBXir7Fnw7p0Ms4o6NSWn0rA2-oHq0pAXCWGXgEDABbGCieS0QkFTE5CksJYRbS4u6tW- -uDiU5sFTiCzQ4OTD4cXurfnjWk_XqIj3uT_ujOLHFVocztAD0537mLiDQnpVUwyLe87oTrTz4sPk4trYKgq00TlapZmk21bt7cY1Kqo76xujXvl0DLb0PvxWmyBdi1T55bmrwzLuatiSwU5vBQ3Pp8or3gJXYurKEdatD2Wc0yd2RI-UIpdexLnA_QkqbutYnGtMtV5ph0A6_Lsmypf6YOhVCU1FQ0ZKF6z3L1G_uFngqExOK5qKCk-ztzg_-dK5aNRFx0lreDhz7Tcl1o6-dZF_E27eB5dsiXYJtEvh7Krh55bd5_QnplTuftiYup7VwKYXKAsJKmaTvz3ycuVlJtbzHuc9oUZ-l0Ey3j00zvtCiosJXMvzpjiFOvH1QS-B45YSV6Dz0BYO8bJH9iyIn89XHBBPQ4TshfOYeHAPllaIme6uNs2AQeKyxMzueGodsEyaet_wi7uNFgF9DIhg5Zj39PgmKEaOJkj4lmQDMzXp8hxXaZGlN2gIU0TAXiry6y0]--></g></svg>