<?xml version="1.0" encoding="us-ascii" standalone="no"?><svg xmlns="http://www.w3.org/2000/svg" xmlns:xlink="http://www.w3.org/1999/xlink" contentStyleType="text/css" height="636px" preserveAspectRatio="none" style="width:1187px;height:636px;background:#FFFFFF;" version="1.1" viewBox="0 0 1187 636" width="1187px" zoomAndPan="magnify"><defs/><g><!--cluster shared--><g id="cluster_shared"><rect fill="none" height="623" rx="2.5" ry="2.5" style="stroke:#000000;stroke-width:1.5;" width="1174" x="7" y="7"/><text fill="#000000" font-family="sans-serif" font-size="14" font-weight="bold" lengthAdjust="spacing" textLength="177" x="505.5" y="23.5332">Shared Bounded Context</text></g><!--cluster shared_infrastructure--><g id="cluster_shared_infrastructure"><rect fill="none" height="368.5" rx="2.5" ry="2.5" style="stroke:#000000;stroke-width:1.5;" width="624" x="533" y="51"/><text fill="#000000" font-family="sans-serif" font-size="14" font-weight="bold" lengthAdjust="spacing" textLength="97" x="796.5" y="67.5332">Infrastructure</text></g><!--cluster shared_presentation--><g id="cluster_shared_presentation"><rect fill="none" height="542.5" rx="2.5" ry="2.5" style="stroke:#000000;stroke-width:1.5;" width="478" x="31" y="63.5"/><text fill="#000000" font-family="sans-serif" font-size="14" font-weight="bold" lengthAdjust="spacing" textLength="90" x="225" y="80.0332">Presentation</text></g><!--cluster shared_components--><g id="cluster_shared_components"><rect fill="none" height="474.5" rx="2.5" ry="2.5" style="stroke:#000000;stroke-width:1.5;" width="430" x="55" y="107.5"/><text fill="#000000" font-family="sans-serif" font-size="14" font-weight="bold" lengthAdjust="spacing" textLength="89" x="225.5" y="124.0332">Components</text></g><!--class BaseEndpoint--><g id="elem_BaseEndpoint"><rect codeLine="8" fill="#F1F1F1" height="188.875" id="BaseEndpoint" rx="2.5" ry="2.5" style="stroke:#181818;stroke-width:0.5;" width="208" x="933" y="87"/><ellipse cx="988.75" cy="103" fill="#ADD1B2" rx="11" ry="11" style="stroke:#181818;stroke-width:1.0;"/><path d="M991.5156,98.875 Q991.6719,98.6563 991.8594,98.5469 Q992.0469,98.4375 992.2656,98.4375 Q992.6406,98.4375 992.875,98.7031 Q993.1094,98.9531 993.1094,99.5625 L993.1094,101.0156 Q993.1094,101.625 992.875,101.8906 Q992.6406,102.1563 992.2656,102.1563 Q991.9219,102.1563 991.7188,101.9531 Q991.5156,101.7656 991.4063,101.25 Q991.3594,100.8906 991.1719,100.7031 Q990.8438,100.3281 990.2344,100.1094 Q989.625,99.8906 989,99.8906 Q988.2344,99.8906 987.5938,100.2188 Q986.9688,100.5469 986.4688,101.2969 Q985.9844,102.0469 985.9844,103.0781 L985.9844,104.1719 Q985.9844,105.4063 986.875,106.2344 Q987.7656,107.0469 989.3594,107.0469 Q990.2969,107.0469 990.9531,106.7969 Q991.3438,106.6406 991.7656,106.2031 Q992.0313,105.9375 992.1719,105.8594 Q992.3281,105.7813 992.5313,105.7813 Q992.8594,105.7813 993.1094,106.0469 Q993.375,106.2969 993.375,106.6406 Q993.375,106.9844 993.0313,107.3906 Q992.5313,107.9688 991.7344,108.2969 Q990.6563,108.75 989.3594,108.75 Q987.8438,108.75 986.6406,108.125 Q985.6563,107.625 984.9688,106.5625 Q984.2813,105.4844 984.2813,104.2031 L984.2813,103.0469 Q984.2813,101.7188 984.8906,100.5781 Q985.5156,99.4219 986.6094,98.8125 Q987.7031,98.1875 988.9375,98.1875 Q989.6719,98.1875 990.3125,98.3594 Q990.9688,98.5156 991.5156,98.875 Z " fill="#000000"/><text fill="#000000" font-family="sans-serif" font-size="14" lengthAdjust="spacing" textLength="88" x="1009.25" y="108.7285">BaseEndpoint</text><line style="stroke:#181818;stroke-width:0.5;" x1="934" x2="1140" y1="119" y2="119"/><rect fill="none" height="6" style="stroke:#C82930;stroke-width:1.0;" width="6" x="941" y="130.3047"/><text fill="#000000" font-family="sans-serif" font-size="14" lengthAdjust="spacing" textLength="128" x="953" y="137.5332">resourcePath: string</text><line style="stroke:#181818;stroke-width:0.5;" x1="934" x2="1140" y1="144.6094" y2="144.6094"/><ellipse cx="944" cy="158.9141" fill="#84BE84" rx="3" ry="3" style="stroke:#038048;stroke-width:1.0;"/><text fill="#000000" font-family="sans-serif" font-size="14" lengthAdjust="spacing" textLength="166" x="953" y="163.1426">constructor(resourcePath)</text><ellipse cx="944" cy="176.5234" fill="#84BE84" rx="3" ry="3" style="stroke:#038048;stroke-width:1.0;"/><text fill="#000000" font-family="sans-serif" font-size="14" lengthAdjust="spacing" textLength="151" x="953" y="180.752">getAll(params): Promise</text><ellipse cx="944" cy="194.1328" fill="#84BE84" rx="3" ry="3" style="stroke:#038048;stroke-width:1.0;"/><text fill="#000000" font-family="sans-serif" font-size="14" lengthAdjust="spacing" textLength="127" x="953" y="198.3613">getById(id): Promise</text><ellipse cx="944" cy="211.7422" fill="#84BE84" rx="3" ry="3" style="stroke:#038048;stroke-width:1.0;"/><text fill="#000000" font-family="sans-serif" font-size="14" lengthAdjust="spacing" textLength="159" x="953" y="215.9707">create(payload): Promise</text><ellipse cx="944" cy="229.3516" fill="#84BE84" rx="3" ry="3" style="stroke:#038048;stroke-width:1.0;"/><text fill="#000000" font-family="sans-serif" font-size="14" lengthAdjust="spacing" textLength="182" x="953" y="233.5801">update(id, payload): Promise</text><ellipse cx="944" cy="246.9609" fill="#84BE84" rx="3" ry="3" style="stroke:#038048;stroke-width:1.0;"/><text fill="#000000" font-family="sans-serif" font-size="14" lengthAdjust="spacing" textLength="173" x="953" y="251.1895">patch(id, payload): Promise</text><ellipse cx="944" cy="264.5703" fill="#84BE84" rx="3" ry="3" style="stroke:#038048;stroke-width:1.0;"/><text fill="#000000" font-family="sans-serif" font-size="14" lengthAdjust="spacing" textLength="119" x="953" y="268.7988">delete(id): Promise</text></g><!--class Http--><g id="elem_Http"><rect codeLine="19" fill="#F1F1F1" height="58.7031" id="Http" rx="2.5" ry="2.5" style="stroke:#181818;stroke-width:0.5;" width="119" x="814.5" y="344.5"/><ellipse cx="829.5" cy="365.8516" fill="#ADD1B2" rx="11" ry="11" style="stroke:#181818;stroke-width:1.0;"/><path d="M832.2656,361.7266 Q832.4219,361.5078 832.6094,361.3984 Q832.7969,361.2891 833.0156,361.2891 Q833.3906,361.2891 833.625,361.5547 Q833.8594,361.8047 833.8594,362.4141 L833.8594,363.8672 Q833.8594,364.4766 833.625,364.7422 Q833.3906,365.0078 833.0156,365.0078 Q832.6719,365.0078 832.4688,364.8047 Q832.2656,364.6172 832.1563,364.1016 Q832.1094,363.7422 831.9219,363.5547 Q831.5938,363.1797 830.9844,362.9609 Q830.375,362.7422 829.75,362.7422 Q828.9844,362.7422 828.3438,363.0703 Q827.7188,363.3984 827.2188,364.1484 Q826.7344,364.8984 826.7344,365.9297 L826.7344,367.0234 Q826.7344,368.2578 827.625,369.0859 Q828.5156,369.8984 830.1094,369.8984 Q831.0469,369.8984 831.7031,369.6484 Q832.0938,369.4922 832.5156,369.0547 Q832.7813,368.7891 832.9219,368.7109 Q833.0781,368.6328 833.2813,368.6328 Q833.6094,368.6328 833.8594,368.8984 Q834.125,369.1484 834.125,369.4922 Q834.125,369.8359 833.7813,370.2422 Q833.2813,370.8203 832.4844,371.1484 Q831.4063,371.6016 830.1094,371.6016 Q828.5938,371.6016 827.3906,370.9766 Q826.4063,370.4766 825.7188,369.4141 Q825.0313,368.3359 825.0313,367.0547 L825.0313,365.8984 Q825.0313,364.5703 825.6406,363.4297 Q826.2656,362.2734 827.3594,361.6641 Q828.4531,361.0391 829.6875,361.0391 Q830.4219,361.0391 831.0625,361.2109 Q831.7188,361.3672 832.2656,361.7266 Z " fill="#000000"/><text fill="#000000" font-family="sans-serif" font-size="12" font-style="italic" lengthAdjust="spacing" textLength="91" x="841.5" y="361.957">&#171;AxiosInstance&#187;</text><text fill="#000000" font-family="sans-serif" font-size="14" lengthAdjust="spacing" textLength="25" x="874.5" y="379.127">Http</text><line style="stroke:#181818;stroke-width:0.5;" x1="815.5" x2="932.5" y1="387.2031" y2="387.2031"/><line style="stroke:#181818;stroke-width:0.5;" x1="815.5" x2="932.5" y1="395.2031" y2="395.2031"/></g><!--class ApiService--><g id="elem_ApiService"><rect codeLine="22" fill="#F1F1F1" height="136.0469" id="ApiService" rx="2.5" ry="2.5" style="stroke:#181818;stroke-width:0.5;" width="324" x="549" y="113.5"/><ellipse cx="673.25" cy="129.5" fill="#ADD1B2" rx="11" ry="11" style="stroke:#181818;stroke-width:1.0;"/><path d="M676.0156,125.375 Q676.1719,125.1563 676.3594,125.0469 Q676.5469,124.9375 676.7656,124.9375 Q677.1406,124.9375 677.375,125.2031 Q677.6094,125.4531 677.6094,126.0625 L677.6094,127.5156 Q677.6094,128.125 677.375,128.3906 Q677.1406,128.6563 676.7656,128.6563 Q676.4219,128.6563 676.2188,128.4531 Q676.0156,128.2656 675.9063,127.75 Q675.8594,127.3906 675.6719,127.2031 Q675.3438,126.8281 674.7344,126.6094 Q674.125,126.3906 673.5,126.3906 Q672.7344,126.3906 672.0938,126.7188 Q671.4688,127.0469 670.9688,127.7969 Q670.4844,128.5469 670.4844,129.5781 L670.4844,130.6719 Q670.4844,131.9063 671.375,132.7344 Q672.2656,133.5469 673.8594,133.5469 Q674.7969,133.5469 675.4531,133.2969 Q675.8438,133.1406 676.2656,132.7031 Q676.5313,132.4375 676.6719,132.3594 Q676.8281,132.2813 677.0313,132.2813 Q677.3594,132.2813 677.6094,132.5469 Q677.875,132.7969 677.875,133.1406 Q677.875,133.4844 677.5313,133.8906 Q677.0313,134.4688 676.2344,134.7969 Q675.1563,135.25 673.8594,135.25 Q672.3438,135.25 671.1406,134.625 Q670.1563,134.125 669.4688,133.0625 Q668.7813,131.9844 668.7813,130.7031 L668.7813,129.5469 Q668.7813,128.2188 669.3906,127.0781 Q670.0156,125.9219 671.1094,125.3125 Q672.2031,124.6875 673.4375,124.6875 Q674.1719,124.6875 674.8125,124.8594 Q675.4688,125.0156 676.0156,125.375 Z " fill="#000000"/><text fill="#000000" font-family="sans-serif" font-size="14" lengthAdjust="spacing" textLength="67" x="693.75" y="135.2285">ApiService</text><line style="stroke:#181818;stroke-width:0.5;" x1="550" x2="872" y1="145.5" y2="145.5"/><line style="stroke:#181818;stroke-width:0.5;" x1="550" x2="872" y1="153.5" y2="153.5"/><ellipse cx="560" cy="167.8047" fill="#84BE84" rx="3" ry="3" style="stroke:#038048;stroke-width:1.0;"/><text fill="#000000" font-family="sans-serif" font-size="14" lengthAdjust="spacing" textLength="258" x="569" y="172.0332">listResource(resource, params): Promise</text><ellipse cx="560" cy="185.4141" fill="#84BE84" rx="3" ry="3" style="stroke:#038048;stroke-width:1.0;"/><text fill="#000000" font-family="sans-serif" font-size="14" lengthAdjust="spacing" textLength="225" x="569" y="189.6426">getResource(resource, id): Promise</text><ellipse cx="560" cy="203.0234" fill="#84BE84" rx="3" ry="3" style="stroke:#038048;stroke-width:1.0;"/><text fill="#000000" font-family="sans-serif" font-size="14" lengthAdjust="spacing" textLength="284" x="569" y="207.252">createResource(resource, payload): Promise</text><ellipse cx="560" cy="220.6328" fill="#84BE84" rx="3" ry="3" style="stroke:#038048;stroke-width:1.0;"/><text fill="#000000" font-family="sans-serif" font-size="14" lengthAdjust="spacing" textLength="298" x="569" y="224.8613">patchResource(resource, id, payload): Promise</text><ellipse cx="560" cy="238.2422" fill="#84BE84" rx="3" ry="3" style="stroke:#038048;stroke-width:1.0;"/><text fill="#000000" font-family="sans-serif" font-size="14" lengthAdjust="spacing" textLength="244" x="569" y="242.4707">deleteResource(resource, id): Promise</text></g><!--class AppLayout--><g id="elem_AppLayout"><rect codeLine="36" fill="#F1F1F1" height="76.3125" id="AppLayout" rx="2.5" ry="2.5" style="stroke:#181818;stroke-width:0.5;" width="167" x="242.5" y="143.5"/><ellipse cx="285.85" cy="164.8516" fill="#ADD1B2" rx="11" ry="11" style="stroke:#181818;stroke-width:1.0;"/><path d="M288.6156,160.7266 Q288.7719,160.5078 288.9594,160.3984 Q289.1469,160.2891 289.3656,160.2891 Q289.7406,160.2891 289.975,160.5547 Q290.2094,160.8047 290.2094,161.4141 L290.2094,162.8672 Q290.2094,163.4766 289.975,163.7422 Q289.7406,164.0078 289.3656,164.0078 Q289.0219,164.0078 288.8188,163.8047 Q288.6156,163.6172 288.5063,163.1016 Q288.4594,162.7422 288.2719,162.5547 Q287.9438,162.1797 287.3344,161.9609 Q286.725,161.7422 286.1,161.7422 Q285.3344,161.7422 284.6938,162.0703 Q284.0688,162.3984 283.5688,163.1484 Q283.0844,163.8984 283.0844,164.9297 L283.0844,166.0234 Q283.0844,167.2578 283.975,168.0859 Q284.8656,168.8984 286.4594,168.8984 Q287.3969,168.8984 288.0531,168.6484 Q288.4438,168.4922 288.8656,168.0547 Q289.1313,167.7891 289.2719,167.7109 Q289.4281,167.6328 289.6313,167.6328 Q289.9594,167.6328 290.2094,167.8984 Q290.475,168.1484 290.475,168.4922 Q290.475,168.8359 290.1313,169.2422 Q289.6313,169.8203 288.8344,170.1484 Q287.7563,170.6016 286.4594,170.6016 Q284.9438,170.6016 283.7406,169.9766 Q282.7563,169.4766 282.0688,168.4141 Q281.3813,167.3359 281.3813,166.0547 L281.3813,164.8984 Q281.3813,163.5703 281.9906,162.4297 Q282.6156,161.2734 283.7094,160.6641 Q284.8031,160.0391 286.0375,160.0391 Q286.7719,160.0391 287.4125,160.2109 Q288.0688,160.3672 288.6156,160.7266 Z " fill="#000000"/><text fill="#000000" font-family="sans-serif" font-size="12" font-style="italic" lengthAdjust="spacing" textLength="76" x="304.15" y="160.957">&#171;component&#187;</text><text fill="#000000" font-family="sans-serif" font-size="14" lengthAdjust="spacing" textLength="68" x="308.15" y="178.127">AppLayout</text><line style="stroke:#181818;stroke-width:0.5;" x1="243.5" x2="408.5" y1="186.2031" y2="186.2031"/><rect fill="none" height="6" style="stroke:#C82930;stroke-width:1.0;" width="6" x="250.5" y="197.5078"/><text fill="#000000" font-family="sans-serif" font-size="14" lengthAdjust="spacing" textLength="141" x="262.5" y="204.7363">sidebarOpen: boolean</text><line style="stroke:#181818;stroke-width:0.5;" x1="243.5" x2="408.5" y1="211.8125" y2="211.8125"/></g><!--class AuthLayout--><g id="elem_AuthLayout"><rect codeLine="40" fill="#F1F1F1" height="58.7031" id="AuthLayout" rx="2.5" ry="2.5" style="stroke:#181818;stroke-width:0.5;" width="104" x="76" y="152"/><ellipse cx="91" cy="173.3516" fill="#ADD1B2" rx="11" ry="11" style="stroke:#181818;stroke-width:1.0;"/><path d="M93.7656,169.2266 Q93.9219,169.0078 94.1094,168.8984 Q94.2969,168.7891 94.5156,168.7891 Q94.8906,168.7891 95.125,169.0547 Q95.3594,169.3047 95.3594,169.9141 L95.3594,171.3672 Q95.3594,171.9766 95.125,172.2422 Q94.8906,172.5078 94.5156,172.5078 Q94.1719,172.5078 93.9688,172.3047 Q93.7656,172.1172 93.6563,171.6016 Q93.6094,171.2422 93.4219,171.0547 Q93.0938,170.6797 92.4844,170.4609 Q91.875,170.2422 91.25,170.2422 Q90.4844,170.2422 89.8438,170.5703 Q89.2188,170.8984 88.7188,171.6484 Q88.2344,172.3984 88.2344,173.4297 L88.2344,174.5234 Q88.2344,175.7578 89.125,176.5859 Q90.0156,177.3984 91.6094,177.3984 Q92.5469,177.3984 93.2031,177.1484 Q93.5938,176.9922 94.0156,176.5547 Q94.2813,176.2891 94.4219,176.2109 Q94.5781,176.1328 94.7813,176.1328 Q95.1094,176.1328 95.3594,176.3984 Q95.625,176.6484 95.625,176.9922 Q95.625,177.3359 95.2813,177.7422 Q94.7813,178.3203 93.9844,178.6484 Q92.9063,179.1016 91.6094,179.1016 Q90.0938,179.1016 88.8906,178.4766 Q87.9063,177.9766 87.2188,176.9141 Q86.5313,175.8359 86.5313,174.5547 L86.5313,173.3984 Q86.5313,172.0703 87.1406,170.9297 Q87.7656,169.7734 88.8594,169.1641 Q89.9531,168.5391 91.1875,168.5391 Q91.9219,168.5391 92.5625,168.7109 Q93.2188,168.8672 93.7656,169.2266 Z " fill="#000000"/><text fill="#000000" font-family="sans-serif" font-size="12" font-style="italic" lengthAdjust="spacing" textLength="76" x="103" y="169.457">&#171;component&#187;</text><text fill="#000000" font-family="sans-serif" font-size="14" lengthAdjust="spacing" textLength="72" x="105" y="186.627">AuthLayout</text><line style="stroke:#181818;stroke-width:0.5;" x1="77" x2="179" y1="194.7031" y2="194.7031"/><line style="stroke:#181818;stroke-width:0.5;" x1="77" x2="179" y1="202.7031" y2="202.7031"/></g><!--class AppSidebar--><g id="elem_AppSidebar"><rect codeLine="43" fill="#F1F1F1" height="76.3125" id="AppSidebar" rx="2.5" ry="2.5" style="stroke:#181818;stroke-width:0.5;" width="135" x="101.5" y="336"/><ellipse cx="129.55" cy="357.3516" fill="#ADD1B2" rx="11" ry="11" style="stroke:#181818;stroke-width:1.0;"/><path d="M132.3156,353.2266 Q132.4719,353.0078 132.6594,352.8984 Q132.8469,352.7891 133.0656,352.7891 Q133.4406,352.7891 133.675,353.0547 Q133.9094,353.3047 133.9094,353.9141 L133.9094,355.3672 Q133.9094,355.9766 133.675,356.2422 Q133.4406,356.5078 133.0656,356.5078 Q132.7219,356.5078 132.5188,356.3047 Q132.3156,356.1172 132.2063,355.6016 Q132.1594,355.2422 131.9719,355.0547 Q131.6438,354.6797 131.0344,354.4609 Q130.425,354.2422 129.8,354.2422 Q129.0344,354.2422 128.3938,354.5703 Q127.7688,354.8984 127.2688,355.6484 Q126.7844,356.3984 126.7844,357.4297 L126.7844,358.5234 Q126.7844,359.7578 127.675,360.5859 Q128.5656,361.3984 130.1594,361.3984 Q131.0969,361.3984 131.7531,361.1484 Q132.1438,360.9922 132.5656,360.5547 Q132.8313,360.2891 132.9719,360.2109 Q133.1281,360.1328 133.3313,360.1328 Q133.6594,360.1328 133.9094,360.3984 Q134.175,360.6484 134.175,360.9922 Q134.175,361.3359 133.8313,361.7422 Q133.3313,362.3203 132.5344,362.6484 Q131.4563,363.1016 130.1594,363.1016 Q128.6438,363.1016 127.4406,362.4766 Q126.4563,361.9766 125.7688,360.9141 Q125.0813,359.8359 125.0813,358.5547 L125.0813,357.3984 Q125.0813,356.0703 125.6906,354.9297 Q126.3156,353.7734 127.4094,353.1641 Q128.5031,352.5391 129.7375,352.5391 Q130.4719,352.5391 131.1125,352.7109 Q131.7688,352.8672 132.3156,353.2266 Z " fill="#000000"/><text fill="#000000" font-family="sans-serif" font-size="12" font-style="italic" lengthAdjust="spacing" textLength="76" x="145.45" y="353.457">&#171;component&#187;</text><text fill="#000000" font-family="sans-serif" font-size="14" lengthAdjust="spacing" textLength="74" x="146.45" y="370.627">AppSidebar</text><line style="stroke:#181818;stroke-width:0.5;" x1="102.5" x2="235.5" y1="378.7031" y2="378.7031"/><rect fill="none" height="6" style="stroke:#C82930;stroke-width:1.0;" width="6" x="109.5" y="390.0078"/><text fill="#000000" font-family="sans-serif" font-size="14" lengthAdjust="spacing" textLength="109" x="121.5" y="397.2363">menuItems: array</text><line style="stroke:#181818;stroke-width:0.5;" x1="102.5" x2="235.5" y1="404.3125" y2="404.3125"/></g><!--class AppTopbar--><g id="elem_AppTopbar"><rect codeLine="47" fill="#F1F1F1" height="76.3125" id="AppTopbar" rx="2.5" ry="2.5" style="stroke:#181818;stroke-width:0.5;" width="124" x="297" y="336"/><ellipse cx="321" cy="357.3516" fill="#ADD1B2" rx="11" ry="11" style="stroke:#181818;stroke-width:1.0;"/><path d="M323.7656,353.2266 Q323.9219,353.0078 324.1094,352.8984 Q324.2969,352.7891 324.5156,352.7891 Q324.8906,352.7891 325.125,353.0547 Q325.3594,353.3047 325.3594,353.9141 L325.3594,355.3672 Q325.3594,355.9766 325.125,356.2422 Q324.8906,356.5078 324.5156,356.5078 Q324.1719,356.5078 323.9688,356.3047 Q323.7656,356.1172 323.6563,355.6016 Q323.6094,355.2422 323.4219,355.0547 Q323.0938,354.6797 322.4844,354.4609 Q321.875,354.2422 321.25,354.2422 Q320.4844,354.2422 319.8438,354.5703 Q319.2188,354.8984 318.7188,355.6484 Q318.2344,356.3984 318.2344,357.4297 L318.2344,358.5234 Q318.2344,359.7578 319.125,360.5859 Q320.0156,361.3984 321.6094,361.3984 Q322.5469,361.3984 323.2031,361.1484 Q323.5938,360.9922 324.0156,360.5547 Q324.2813,360.2891 324.4219,360.2109 Q324.5781,360.1328 324.7813,360.1328 Q325.1094,360.1328 325.3594,360.3984 Q325.625,360.6484 325.625,360.9922 Q325.625,361.3359 325.2813,361.7422 Q324.7813,362.3203 323.9844,362.6484 Q322.9063,363.1016 321.6094,363.1016 Q320.0938,363.1016 318.8906,362.4766 Q317.9063,361.9766 317.2188,360.9141 Q316.5313,359.8359 316.5313,358.5547 L316.5313,357.3984 Q316.5313,356.0703 317.1406,354.9297 Q317.7656,353.7734 318.8594,353.1641 Q319.9531,352.5391 321.1875,352.5391 Q321.9219,352.5391 322.5625,352.7109 Q323.2188,352.8672 323.7656,353.2266 Z " fill="#000000"/><text fill="#000000" font-family="sans-serif" font-size="12" font-style="italic" lengthAdjust="spacing" textLength="76" x="335" y="353.457">&#171;component&#187;</text><text fill="#000000" font-family="sans-serif" font-size="14" lengthAdjust="spacing" textLength="71" x="337.5" y="370.627">AppTopbar</text><line style="stroke:#181818;stroke-width:0.5;" x1="298" x2="420" y1="378.7031" y2="378.7031"/><line style="stroke:#181818;stroke-width:0.5;" x1="298" x2="420" y1="386.7031" y2="386.7031"/><rect fill="#F24D5C" height="6" style="stroke:#C82930;stroke-width:1.0;" width="6" x="305" y="398.0078"/><text fill="#000000" font-family="sans-serif" font-size="14" lengthAdjust="spacing" textLength="98" x="317" y="405.2363">toggleSidebar()</text></g><!--class LanguageSwitcher--><g id="elem_LanguageSwitcher"><rect codeLine="51" fill="#F1F1F1" height="93.9219" id="LanguageSwitcher" rx="2.5" ry="2.5" style="stroke:#181818;stroke-width:0.5;" width="178" x="71" y="472"/><ellipse cx="99.05" cy="493.3516" fill="#ADD1B2" rx="11" ry="11" style="stroke:#181818;stroke-width:1.0;"/><path d="M101.8156,489.2266 Q101.9719,489.0078 102.1594,488.8984 Q102.3469,488.7891 102.5656,488.7891 Q102.9406,488.7891 103.175,489.0547 Q103.4094,489.3047 103.4094,489.9141 L103.4094,491.3672 Q103.4094,491.9766 103.175,492.2422 Q102.9406,492.5078 102.5656,492.5078 Q102.2219,492.5078 102.0188,492.3047 Q101.8156,492.1172 101.7063,491.6016 Q101.6594,491.2422 101.4719,491.0547 Q101.1438,490.6797 100.5344,490.4609 Q99.925,490.2422 99.3,490.2422 Q98.5344,490.2422 97.8938,490.5703 Q97.2688,490.8984 96.7688,491.6484 Q96.2844,492.3984 96.2844,493.4297 L96.2844,494.5234 Q96.2844,495.7578 97.175,496.5859 Q98.0656,497.3984 99.6594,497.3984 Q100.5969,497.3984 101.2531,497.1484 Q101.6438,496.9922 102.0656,496.5547 Q102.3313,496.2891 102.4719,496.2109 Q102.6281,496.1328 102.8313,496.1328 Q103.1594,496.1328 103.4094,496.3984 Q103.675,496.6484 103.675,496.9922 Q103.675,497.3359 103.3313,497.7422 Q102.8313,498.3203 102.0344,498.6484 Q100.9563,499.1016 99.6594,499.1016 Q98.1438,499.1016 96.9406,498.4766 Q95.9563,497.9766 95.2688,496.9141 Q94.5813,495.8359 94.5813,494.5547 L94.5813,493.3984 Q94.5813,492.0703 95.1906,490.9297 Q95.8156,489.7734 96.9094,489.1641 Q98.0031,488.5391 99.2375,488.5391 Q99.9719,488.5391 100.6125,488.7109 Q101.2688,488.8672 101.8156,489.2266 Z " fill="#000000"/><text fill="#000000" font-family="sans-serif" font-size="12" font-style="italic" lengthAdjust="spacing" textLength="76" x="136.45" y="489.457">&#171;component&#187;</text><text fill="#000000" font-family="sans-serif" font-size="14" lengthAdjust="spacing" textLength="117" x="115.95" y="506.627">LanguageSwitcher</text><line style="stroke:#181818;stroke-width:0.5;" x1="72" x2="248" y1="514.7031" y2="514.7031"/><rect fill="none" height="6" style="stroke:#C82930;stroke-width:1.0;" width="6" x="79" y="526.0078"/><text fill="#000000" font-family="sans-serif" font-size="14" lengthAdjust="spacing" textLength="152" x="91" y="533.2363">currentLanguage: string</text><line style="stroke:#181818;stroke-width:0.5;" x1="72" x2="248" y1="540.3125" y2="540.3125"/><ellipse cx="82" cy="554.6172" fill="#84BE84" rx="3" ry="3" style="stroke:#038048;stroke-width:1.0;"/><text fill="#000000" font-family="sans-serif" font-size="14" lengthAdjust="spacing" textLength="113" x="91" y="558.8457">toggleLanguage()</text></g><!--class LogoutButton--><g id="elem_LogoutButton"><rect codeLine="56" fill="#F1F1F1" height="93.9219" id="LogoutButton" rx="2.5" ry="2.5" style="stroke:#181818;stroke-width:0.5;" width="159" x="309.5" y="472"/><ellipse cx="343.4" cy="493.3516" fill="#ADD1B2" rx="11" ry="11" style="stroke:#181818;stroke-width:1.0;"/><path d="M346.1656,489.2266 Q346.3219,489.0078 346.5094,488.8984 Q346.6969,488.7891 346.9156,488.7891 Q347.2906,488.7891 347.525,489.0547 Q347.7594,489.3047 347.7594,489.9141 L347.7594,491.3672 Q347.7594,491.9766 347.525,492.2422 Q347.2906,492.5078 346.9156,492.5078 Q346.5719,492.5078 346.3688,492.3047 Q346.1656,492.1172 346.0563,491.6016 Q346.0094,491.2422 345.8219,491.0547 Q345.4938,490.6797 344.8844,490.4609 Q344.275,490.2422 343.65,490.2422 Q342.8844,490.2422 342.2438,490.5703 Q341.6188,490.8984 341.1188,491.6484 Q340.6344,492.3984 340.6344,493.4297 L340.6344,494.5234 Q340.6344,495.7578 341.525,496.5859 Q342.4156,497.3984 344.0094,497.3984 Q344.9469,497.3984 345.6031,497.1484 Q345.9938,496.9922 346.4156,496.5547 Q346.6813,496.2891 346.8219,496.2109 Q346.9781,496.1328 347.1813,496.1328 Q347.5094,496.1328 347.7594,496.3984 Q348.025,496.6484 348.025,496.9922 Q348.025,497.3359 347.6813,497.7422 Q347.1813,498.3203 346.3844,498.6484 Q345.3063,499.1016 344.0094,499.1016 Q342.4938,499.1016 341.2906,498.4766 Q340.3063,497.9766 339.6188,496.9141 Q338.9313,495.8359 338.9313,494.5547 L338.9313,493.3984 Q338.9313,492.0703 339.5406,490.9297 Q340.1656,489.7734 341.2594,489.1641 Q342.3531,488.5391 343.5875,488.5391 Q344.3219,488.5391 344.9625,488.7109 Q345.6188,488.8672 346.1656,489.2266 Z " fill="#000000"/><text fill="#000000" font-family="sans-serif" font-size="12" font-style="italic" lengthAdjust="spacing" textLength="76" x="366.1" y="489.457">&#171;component&#187;</text><text fill="#000000" font-family="sans-serif" font-size="14" lengthAdjust="spacing" textLength="85" x="361.6" y="506.627">LogoutButton</text><line style="stroke:#181818;stroke-width:0.5;" x1="310.5" x2="467.5" y1="514.7031" y2="514.7031"/><rect fill="none" height="6" style="stroke:#C82930;stroke-width:1.0;" width="6" x="317.5" y="526.0078"/><text fill="#000000" font-family="sans-serif" font-size="14" lengthAdjust="spacing" textLength="133" x="329.5" y="533.2363">authStore: AuthStore</text><line style="stroke:#181818;stroke-width:0.5;" x1="310.5" x2="467.5" y1="540.3125" y2="540.3125"/><ellipse cx="320.5" cy="554.6172" fill="#84BE84" rx="3" ry="3" style="stroke:#038048;stroke-width:1.0;"/><text fill="#000000" font-family="sans-serif" font-size="14" lengthAdjust="spacing" textLength="49" x="329.5" y="558.8457">logout()</text></g><!--link BaseEndpoint to Http--><g id="link_BaseEndpoint_Http"><path codeLine="30" d="M932.74,263 C915.44,263 903,263 903,263 C903,263 903,305.37 903,338.25 " fill="none" id="BaseEndpoint-to-Http" style="stroke:#181818;stroke-width:1.0;"/><polygon fill="#181818" points="903,344.25,907,335.25,903,339.25,899,335.25,903,344.25" style="stroke:#181818;stroke-width:1.0;"/></g><!--link ApiService to Http--><g id="link_ApiService_Http"><path codeLine="31" d="M843.75,249.64 C843.75,282.09 843.75,313.21 843.75,338.38 " fill="none" id="ApiService-to-Http" style="stroke:#181818;stroke-width:1.0;"/><polygon fill="#181818" points="843.75,344.38,847.75,335.38,843.75,339.38,839.75,335.38,843.75,344.38" style="stroke:#181818;stroke-width:1.0;"/></g><!--reverse link AppLayout to AppSidebar--><g id="link_AppLayout_AppSidebar"><path codeLine="64" d="M230.31,216 C211.13,216 208.25,216 208.25,216 C208.25,216 208.25,288.99 208.25,335.75 " fill="none" id="AppLayout-backto-AppSidebar" style="stroke:#181818;stroke-width:1.0;"/><polygon fill="#181818" points="242.31,216,236.31,212,230.31,216,236.31,220,242.31,216" style="stroke:#181818;stroke-width:1.0;"/><polygon fill="#000000" points="148.3442,254.943,152.8731,246.5801,147.0925,245.5152,148.3442,254.943" style="stroke:#000000;stroke-width:1.0;"/><text fill="#000000" font-family="sans-serif" font-size="13" lengthAdjust="spacing" textLength="49" x="158.25" y="255.3451">contains</text></g><!--reverse link AppLayout to AppTopbar--><g id="link_AppLayout_AppTopbar"><path codeLine="65" d="M353.25,231.53 C353.25,265.17 353.25,302 353.25,335.72 " fill="none" id="AppLayout-backto-AppTopbar" style="stroke:#181818;stroke-width:1.0;"/><polygon fill="#181818" points="353.25,219.53,349.25,225.53,353.25,231.53,357.25,225.53,353.25,219.53" style="stroke:#181818;stroke-width:1.0;"/><polygon fill="#000000" points="294.25,273.8058,297.1889,264.7607,291.3111,264.7607,294.25,273.8058" style="stroke:#000000;stroke-width:1.0;"/><text fill="#000000" font-family="sans-serif" font-size="13" lengthAdjust="spacing" textLength="49" x="303.25" y="274.1251">contains</text></g><!--reverse link AppTopbar to LanguageSwitcher--><g id="link_AppTopbar_LanguageSwitcher"><path codeLine="66" d="M303.25,424.1 C303.25,467.06 303.25,519 303.25,519 C303.25,519 278.22,519 249.09,519 " fill="none" id="AppTopbar-backto-LanguageSwitcher" style="stroke:#181818;stroke-width:1.0;"/><polygon fill="#181818" points="303.25,412.1,299.25,418.1,303.25,424.1,307.25,418.1,303.25,412.1" style="stroke:#181818;stroke-width:1.0;"/><polygon fill="#000000" points="241.7717,488.1483,248.8075,481.7493,243.7025,478.8358,241.7717,488.1483" style="stroke:#000000;stroke-width:1.0;"/><text fill="#000000" font-family="sans-serif" font-size="13" lengthAdjust="spacing" textLength="49" x="253.25" y="489.1251">contains</text></g><!--reverse link AppTopbar to LogoutButton--><g id="link_AppTopbar_LogoutButton"><path codeLine="67" d="M365.25,424.1 C365.25,442.39 365.25,452.48 365.25,471.83 " fill="none" id="AppTopbar-backto-LogoutButton" style="stroke:#181818;stroke-width:1.0;"/><polygon fill="#181818" points="365.25,412.1,361.25,418.1,365.25,424.1,369.25,418.1,365.25,412.1" style="stroke:#181818;stroke-width:1.0;"/><polygon fill="#000000" points="306.25,438.1358,309.1889,429.0907,303.3111,429.0907,306.25,438.1358" style="stroke:#000000;stroke-width:1.0;"/><text fill="#000000" font-family="sans-serif" font-size="13" lengthAdjust="spacing" textLength="49" x="315.25" y="438.4551">contains</text></g><!--SRC=[ZPJVQzim4CVVyrSSVLcoBdHFUmWba9H20uM5Pk_ZAbzj4KKIqdch6VdV9_-CtBZOXiH2zxdJ-NkdyqUfBJeyWPAQkB04nd5cPhupM1H7JEd0XI9m91XrgYW2j4d8auKVtwDDX_hORCwQ271poD1H0bkJwoIy7uncUkSRG0- -DlsR0K37x_IRGyyk5vmxYhZVicUftSf7AFGUjkZfKIVMICqNM_aimnTuapj1U-Hi1I64r6bCt88mkevit3oc5tqi9TueDQy-rozMi7Vc93rTGTjYbynbyXaX725J25CeWvzIkKrAIYRVO8Iqo2AR0YQag0fv3PndVJsVc2tSts_UfV6x80vgGUlrHTcF_CRA0xa_Kb1V_TlGPPvV6aqxSSjKHqGSy1cJTF2OSUa6JveeviGip-sYVVVwTRbSLuAtnaZCs5HhtbsLVJYID2DBe-EBOgFzIp4wjmTpiaO7mCTEejljrw-jhdt6mkGSMg8ZutQuN3Ol4tf5zzEINi6hCOfGnzIbSQBmEMVZyGSzhJtK1uvdTYATxvXEVWNe71OJOlyoTb9eDcaOa4qcyyLOvESmJ_DomFwLeVremW4YTouOMyUXALPtPPr9oqr8nQH1zctE79fbD0qCXJg48HaIsBJBwnnK5VFZsV6Y-Yj_Nw1hHtYIvD29J9A7EtWXLNMmpwJri-fIj3tuTRcC2xygnpUZr1xMWs1JnG6kiPJSLKr6y5Yt7dh-3m00]--></g></svg>