<?xml version="1.0" encoding="us-ascii" standalone="no"?><svg xmlns="http://www.w3.org/2000/svg" xmlns:xlink="http://www.w3.org/1999/xlink" contentStyleType="text/css" height="1299px" preserveAspectRatio="none" style="width:1703px;height:1299px;background:#FFFFFF;" version="1.1" viewBox="0 0 1703 1299" width="1703px" zoomAndPan="magnify"><defs/><g><!--cluster shared--><g id="cluster_shared"><rect fill="none" height="649" rx="2.5" ry="2.5" style="stroke:#000000;stroke-width:1.5;" width="811" x="7" y="7"/><text fill="#000000" font-family="sans-serif" font-size="14" font-weight="bold" lengthAdjust="spacing" textLength="177" x="324" y="23.5332">Shared Bounded Context</text></g><!--cluster shared_infrastructure--><g id="cluster_shared_infrastructure"><rect fill="none" height="111" rx="2.5" ry="2.5" style="stroke:#000000;stroke-width:1.5;" width="332" x="462" y="95"/><text fill="#000000" font-family="sans-serif" font-size="14" font-weight="bold" lengthAdjust="spacing" textLength="97" x="579.5" y="111.5332">Infrastructure</text></g><!--cluster shared_presentation--><g id="cluster_shared_presentation"><rect fill="none" height="581" rx="2.5" ry="2.5" style="stroke:#000000;stroke-width:1.5;" width="407" x="31" y="51"/><text fill="#000000" font-family="sans-serif" font-size="14" font-weight="bold" lengthAdjust="spacing" textLength="90" x="189.5" y="67.5332">Presentation</text></g><!--cluster shared_components--><g id="cluster_shared_components"><rect fill="none" height="513" rx="2.5" ry="2.5" style="stroke:#000000;stroke-width:1.5;" width="359" x="55" y="95"/><text fill="#000000" font-family="sans-serif" font-size="14" font-weight="bold" lengthAdjust="spacing" textLength="89" x="190" y="111.5332">Components</text></g><!--cluster shift--><g id="cluster_shift"><rect fill="none" height="1063" rx="2.5" ry="2.5" style="stroke:#000000;stroke-width:1.5;" width="855" x="842" y="230"/><text fill="#000000" font-family="sans-serif" font-size="14" font-weight="bold" lengthAdjust="spacing" textLength="254" x="1142.5" y="246.5332">Shift Coordination Bounded Context</text></g><!--cluster shift_domain--><g id="cluster_shift_domain"><rect fill="none" height="559" rx="2.5" ry="2.5" style="stroke:#000000;stroke-width:1.5;" width="435" x="866" y="710"/><text fill="#000000" font-family="sans-serif" font-size="14" font-weight="bold" lengthAdjust="spacing" textLength="52" x="1057.5" y="726.5332">Domain</text></g><!--cluster shift_infrastructure--><g id="cluster_shift_infrastructure"><rect fill="none" height="382" rx="2.5" ry="2.5" style="stroke:#000000;stroke-width:1.5;" width="282" x="1391" y="680"/><text fill="#000000" font-family="sans-serif" font-size="14" font-weight="bold" lengthAdjust="spacing" textLength="97" x="1483.5" y="696.5332">Infrastructure</text></g><!--cluster shift_application--><g id="cluster_shift_application"><rect fill="none" height="181" rx="2.5" ry="2.5" style="stroke:#000000;stroke-width:1.5;" width="220" x="1089" y="462"/><text fill="#000000" font-family="sans-serif" font-size="14" font-weight="bold" lengthAdjust="spacing" textLength="78" x="1160" y="478.5332">Application</text></g><!--cluster shift_presentation--><g id="cluster_shift_presentation"><rect fill="none" height="164" rx="2.5" ry="2.5" style="stroke:#000000;stroke-width:1.5;" width="566" x="866" y="274"/><text fill="#000000" font-family="sans-serif" font-size="14" font-weight="bold" lengthAdjust="spacing" textLength="90" x="1104" y="290.5332">Presentation</text></g><!--class BaseEndpoint--><g id="elem_BaseEndpoint"><rect codeLine="8" fill="#F1F1F1" height="48" id="BaseEndpoint" rx="2.5" ry="2.5" style="stroke:#181818;stroke-width:0.5;" width="120" x="658" y="136.5"/><ellipse cx="673" cy="152.5" fill="#ADD1B2" rx="11" ry="11" style="stroke:#181818;stroke-width:1.0;"/><path d="M675.7656,148.375 Q675.9219,148.1563 676.1094,148.0469 Q676.2969,147.9375 676.5156,147.9375 Q676.8906,147.9375 677.125,148.2031 Q677.3594,148.4531 677.3594,149.0625 L677.3594,150.5156 Q677.3594,151.125 677.125,151.3906 Q676.8906,151.6563 676.5156,151.6563 Q676.1719,151.6563 675.9688,151.4531 Q675.7656,151.2656 675.6563,150.75 Q675.6094,150.3906 675.4219,150.2031 Q675.0938,149.8281 674.4844,149.6094 Q673.875,149.3906 673.25,149.3906 Q672.4844,149.3906 671.8438,149.7188 Q671.2188,150.0469 670.7188,150.7969 Q670.2344,151.5469 670.2344,152.5781 L670.2344,153.6719 Q670.2344,154.9063 671.125,155.7344 Q672.0156,156.5469 673.6094,156.5469 Q674.5469,156.5469 675.2031,156.2969 Q675.5938,156.1406 676.0156,155.7031 Q676.2813,155.4375 676.4219,155.3594 Q676.5781,155.2813 676.7813,155.2813 Q677.1094,155.2813 677.3594,155.5469 Q677.625,155.7969 677.625,156.1406 Q677.625,156.4844 677.2813,156.8906 Q676.7813,157.4688 675.9844,157.7969 Q674.9063,158.25 673.6094,158.25 Q672.0938,158.25 670.8906,157.625 Q669.9063,157.125 669.2188,156.0625 Q668.5313,154.9844 668.5313,153.7031 L668.5313,152.5469 Q668.5313,151.2188 669.1406,150.0781 Q669.7656,148.9219 670.8594,148.3125 Q671.9531,147.6875 673.1875,147.6875 Q673.9219,147.6875 674.5625,147.8594 Q675.2188,148.0156 675.7656,148.375 Z " fill="#000000"/><text fill="#000000" font-family="sans-serif" font-size="14" lengthAdjust="spacing" textLength="88" x="687" y="158.2285">BaseEndpoint</text><line style="stroke:#181818;stroke-width:0.5;" x1="659" x2="777" y1="168.5" y2="168.5"/><line style="stroke:#181818;stroke-width:0.5;" x1="659" x2="777" y1="176.5" y2="176.5"/></g><!--class Http--><g id="elem_Http"><rect codeLine="10" fill="#F1F1F1" height="58.7031" id="Http" rx="2.5" ry="2.5" style="stroke:#181818;stroke-width:0.5;" width="119" x="478.5" y="131"/><ellipse cx="493.5" cy="152.3516" fill="#ADD1B2" rx="11" ry="11" style="stroke:#181818;stroke-width:1.0;"/><path d="M496.2656,148.2266 Q496.4219,148.0078 496.6094,147.8984 Q496.7969,147.7891 497.0156,147.7891 Q497.3906,147.7891 497.625,148.0547 Q497.8594,148.3047 497.8594,148.9141 L497.8594,150.3672 Q497.8594,150.9766 497.625,151.2422 Q497.3906,151.5078 497.0156,151.5078 Q496.6719,151.5078 496.4688,151.3047 Q496.2656,151.1172 496.1563,150.6016 Q496.1094,150.2422 495.9219,150.0547 Q495.5938,149.6797 494.9844,149.4609 Q494.375,149.2422 493.75,149.2422 Q492.9844,149.2422 492.3438,149.5703 Q491.7188,149.8984 491.2188,150.6484 Q490.7344,151.3984 490.7344,152.4297 L490.7344,153.5234 Q490.7344,154.7578 491.625,155.5859 Q492.5156,156.3984 494.1094,156.3984 Q495.0469,156.3984 495.7031,156.1484 Q496.0938,155.9922 496.5156,155.5547 Q496.7813,155.2891 496.9219,155.2109 Q497.0781,155.1328 497.2813,155.1328 Q497.6094,155.1328 497.8594,155.3984 Q498.125,155.6484 498.125,155.9922 Q498.125,156.3359 497.7813,156.7422 Q497.2813,157.3203 496.4844,157.6484 Q495.4063,158.1016 494.1094,158.1016 Q492.5938,158.1016 491.3906,157.4766 Q490.4063,156.9766 489.7188,155.9141 Q489.0313,154.8359 489.0313,153.5547 L489.0313,152.3984 Q489.0313,151.0703 489.6406,149.9297 Q490.2656,148.7734 491.3594,148.1641 Q492.4531,147.5391 493.6875,147.5391 Q494.4219,147.5391 495.0625,147.7109 Q495.7188,147.8672 496.2656,148.2266 Z " fill="#000000"/><text fill="#000000" font-family="sans-serif" font-size="12" font-style="italic" lengthAdjust="spacing" textLength="91" x="505.5" y="148.457">&#171;AxiosInstance&#187;</text><text fill="#000000" font-family="sans-serif" font-size="14" lengthAdjust="spacing" textLength="25" x="538.5" y="165.627">Http</text><line style="stroke:#181818;stroke-width:0.5;" x1="479.5" x2="596.5" y1="173.7031" y2="173.7031"/><line style="stroke:#181818;stroke-width:0.5;" x1="479.5" x2="596.5" y1="181.7031" y2="181.7031"/></g><!--class AppLayout--><g id="elem_AppLayout"><rect codeLine="16" fill="#F1F1F1" height="58.7031" id="AppLayout" rx="2.5" ry="2.5" style="stroke:#181818;stroke-width:0.5;" width="104" x="294" y="131"/><ellipse cx="309" cy="152.3516" fill="#ADD1B2" rx="11" ry="11" style="stroke:#181818;stroke-width:1.0;"/><path d="M311.7656,148.2266 Q311.9219,148.0078 312.1094,147.8984 Q312.2969,147.7891 312.5156,147.7891 Q312.8906,147.7891 313.125,148.0547 Q313.3594,148.3047 313.3594,148.9141 L313.3594,150.3672 Q313.3594,150.9766 313.125,151.2422 Q312.8906,151.5078 312.5156,151.5078 Q312.1719,151.5078 311.9688,151.3047 Q311.7656,151.1172 311.6563,150.6016 Q311.6094,150.2422 311.4219,150.0547 Q311.0938,149.6797 310.4844,149.4609 Q309.875,149.2422 309.25,149.2422 Q308.4844,149.2422 307.8438,149.5703 Q307.2188,149.8984 306.7188,150.6484 Q306.2344,151.3984 306.2344,152.4297 L306.2344,153.5234 Q306.2344,154.7578 307.125,155.5859 Q308.0156,156.3984 309.6094,156.3984 Q310.5469,156.3984 311.2031,156.1484 Q311.5938,155.9922 312.0156,155.5547 Q312.2813,155.2891 312.4219,155.2109 Q312.5781,155.1328 312.7813,155.1328 Q313.1094,155.1328 313.3594,155.3984 Q313.625,155.6484 313.625,155.9922 Q313.625,156.3359 313.2813,156.7422 Q312.7813,157.3203 311.9844,157.6484 Q310.9063,158.1016 309.6094,158.1016 Q308.0938,158.1016 306.8906,157.4766 Q305.9063,156.9766 305.2188,155.9141 Q304.5313,154.8359 304.5313,153.5547 L304.5313,152.3984 Q304.5313,151.0703 305.1406,149.9297 Q305.7656,148.7734 306.8594,148.1641 Q307.9531,147.5391 309.1875,147.5391 Q309.9219,147.5391 310.5625,147.7109 Q311.2188,147.8672 311.7656,148.2266 Z " fill="#000000"/><text fill="#000000" font-family="sans-serif" font-size="12" font-style="italic" lengthAdjust="spacing" textLength="76" x="321" y="148.457">&#171;component&#187;</text><text fill="#000000" font-family="sans-serif" font-size="14" lengthAdjust="spacing" textLength="68" x="325" y="165.627">AppLayout</text><line style="stroke:#181818;stroke-width:0.5;" x1="295" x2="397" y1="173.7031" y2="173.7031"/><line style="stroke:#181818;stroke-width:0.5;" x1="295" x2="397" y1="181.7031" y2="181.7031"/></g><!--class AuthLayout--><g id="elem_AuthLayout"><rect codeLine="17" fill="#F1F1F1" height="58.7031" id="AuthLayout" rx="2.5" ry="2.5" style="stroke:#181818;stroke-width:0.5;" width="104" x="101" y="131"/><ellipse cx="116" cy="152.3516" fill="#ADD1B2" rx="11" ry="11" style="stroke:#181818;stroke-width:1.0;"/><path d="M118.7656,148.2266 Q118.9219,148.0078 119.1094,147.8984 Q119.2969,147.7891 119.5156,147.7891 Q119.8906,147.7891 120.125,148.0547 Q120.3594,148.3047 120.3594,148.9141 L120.3594,150.3672 Q120.3594,150.9766 120.125,151.2422 Q119.8906,151.5078 119.5156,151.5078 Q119.1719,151.5078 118.9688,151.3047 Q118.7656,151.1172 118.6563,150.6016 Q118.6094,150.2422 118.4219,150.0547 Q118.0938,149.6797 117.4844,149.4609 Q116.875,149.2422 116.25,149.2422 Q115.4844,149.2422 114.8438,149.5703 Q114.2188,149.8984 113.7188,150.6484 Q113.2344,151.3984 113.2344,152.4297 L113.2344,153.5234 Q113.2344,154.7578 114.125,155.5859 Q115.0156,156.3984 116.6094,156.3984 Q117.5469,156.3984 118.2031,156.1484 Q118.5938,155.9922 119.0156,155.5547 Q119.2813,155.2891 119.4219,155.2109 Q119.5781,155.1328 119.7813,155.1328 Q120.1094,155.1328 120.3594,155.3984 Q120.625,155.6484 120.625,155.9922 Q120.625,156.3359 120.2813,156.7422 Q119.7813,157.3203 118.9844,157.6484 Q117.9063,158.1016 116.6094,158.1016 Q115.0938,158.1016 113.8906,157.4766 Q112.9063,156.9766 112.2188,155.9141 Q111.5313,154.8359 111.5313,153.5547 L111.5313,152.3984 Q111.5313,151.0703 112.1406,149.9297 Q112.7656,148.7734 113.8594,148.1641 Q114.9531,147.5391 116.1875,147.5391 Q116.9219,147.5391 117.5625,147.7109 Q118.2188,147.8672 118.7656,148.2266 Z " fill="#000000"/><text fill="#000000" font-family="sans-serif" font-size="12" font-style="italic" lengthAdjust="spacing" textLength="76" x="128" y="148.457">&#171;component&#187;</text><text fill="#000000" font-family="sans-serif" font-size="14" lengthAdjust="spacing" textLength="72" x="130" y="165.627">AuthLayout</text><line style="stroke:#181818;stroke-width:0.5;" x1="102" x2="204" y1="173.7031" y2="173.7031"/><line style="stroke:#181818;stroke-width:0.5;" x1="102" x2="204" y1="181.7031" y2="181.7031"/></g><!--class AppSidebar--><g id="elem_AppSidebar"><rect codeLine="18" fill="#F1F1F1" height="58.7031" id="AppSidebar" rx="2.5" ry="2.5" style="stroke:#181818;stroke-width:0.5;" width="106" x="125" y="336.5"/><ellipse cx="140" cy="357.8516" fill="#ADD1B2" rx="11" ry="11" style="stroke:#181818;stroke-width:1.0;"/><path d="M142.7656,353.7266 Q142.9219,353.5078 143.1094,353.3984 Q143.2969,353.2891 143.5156,353.2891 Q143.8906,353.2891 144.125,353.5547 Q144.3594,353.8047 144.3594,354.4141 L144.3594,355.8672 Q144.3594,356.4766 144.125,356.7422 Q143.8906,357.0078 143.5156,357.0078 Q143.1719,357.0078 142.9688,356.8047 Q142.7656,356.6172 142.6563,356.1016 Q142.6094,355.7422 142.4219,355.5547 Q142.0938,355.1797 141.4844,354.9609 Q140.875,354.7422 140.25,354.7422 Q139.4844,354.7422 138.8438,355.0703 Q138.2188,355.3984 137.7188,356.1484 Q137.2344,356.8984 137.2344,357.9297 L137.2344,359.0234 Q137.2344,360.2578 138.125,361.0859 Q139.0156,361.8984 140.6094,361.8984 Q141.5469,361.8984 142.2031,361.6484 Q142.5938,361.4922 143.0156,361.0547 Q143.2813,360.7891 143.4219,360.7109 Q143.5781,360.6328 143.7813,360.6328 Q144.1094,360.6328 144.3594,360.8984 Q144.625,361.1484 144.625,361.4922 Q144.625,361.8359 144.2813,362.2422 Q143.7813,362.8203 142.9844,363.1484 Q141.9063,363.6016 140.6094,363.6016 Q139.0938,363.6016 137.8906,362.9766 Q136.9063,362.4766 136.2188,361.4141 Q135.5313,360.3359 135.5313,359.0547 L135.5313,357.8984 Q135.5313,356.5703 136.1406,355.4297 Q136.7656,354.2734 137.8594,353.6641 Q138.9531,353.0391 140.1875,353.0391 Q140.9219,353.0391 141.5625,353.2109 Q142.2188,353.3672 142.7656,353.7266 Z " fill="#000000"/><text fill="#000000" font-family="sans-serif" font-size="12" font-style="italic" lengthAdjust="spacing" textLength="76" x="153" y="353.957">&#171;component&#187;</text><text fill="#000000" font-family="sans-serif" font-size="14" lengthAdjust="spacing" textLength="74" x="154" y="371.127">AppSidebar</text><line style="stroke:#181818;stroke-width:0.5;" x1="126" x2="230" y1="379.2031" y2="379.2031"/><line style="stroke:#181818;stroke-width:0.5;" x1="126" x2="230" y1="387.2031" y2="387.2031"/></g><!--class AppTopbar--><g id="elem_AppTopbar"><rect codeLine="19" fill="#F1F1F1" height="58.7031" id="AppTopbar" rx="2.5" ry="2.5" style="stroke:#181818;stroke-width:0.5;" width="104" x="291" y="336.5"/><ellipse cx="306" cy="357.8516" fill="#ADD1B2" rx="11" ry="11" style="stroke:#181818;stroke-width:1.0;"/><path d="M308.7656,353.7266 Q308.9219,353.5078 309.1094,353.3984 Q309.2969,353.2891 309.5156,353.2891 Q309.8906,353.2891 310.125,353.5547 Q310.3594,353.8047 310.3594,354.4141 L310.3594,355.8672 Q310.3594,356.4766 310.125,356.7422 Q309.8906,357.0078 309.5156,357.0078 Q309.1719,357.0078 308.9688,356.8047 Q308.7656,356.6172 308.6563,356.1016 Q308.6094,355.7422 308.4219,355.5547 Q308.0938,355.1797 307.4844,354.9609 Q306.875,354.7422 306.25,354.7422 Q305.4844,354.7422 304.8438,355.0703 Q304.2188,355.3984 303.7188,356.1484 Q303.2344,356.8984 303.2344,357.9297 L303.2344,359.0234 Q303.2344,360.2578 304.125,361.0859 Q305.0156,361.8984 306.6094,361.8984 Q307.5469,361.8984 308.2031,361.6484 Q308.5938,361.4922 309.0156,361.0547 Q309.2813,360.7891 309.4219,360.7109 Q309.5781,360.6328 309.7813,360.6328 Q310.1094,360.6328 310.3594,360.8984 Q310.625,361.1484 310.625,361.4922 Q310.625,361.8359 310.2813,362.2422 Q309.7813,362.8203 308.9844,363.1484 Q307.9063,363.6016 306.6094,363.6016 Q305.0938,363.6016 303.8906,362.9766 Q302.9063,362.4766 302.2188,361.4141 Q301.5313,360.3359 301.5313,359.0547 L301.5313,357.8984 Q301.5313,356.5703 302.1406,355.4297 Q302.7656,354.2734 303.8594,353.6641 Q304.9531,353.0391 306.1875,353.0391 Q306.9219,353.0391 307.5625,353.2109 Q308.2188,353.3672 308.7656,353.7266 Z " fill="#000000"/><text fill="#000000" font-family="sans-serif" font-size="12" font-style="italic" lengthAdjust="spacing" textLength="76" x="318" y="353.957">&#171;component&#187;</text><text fill="#000000" font-family="sans-serif" font-size="14" lengthAdjust="spacing" textLength="71" x="320.5" y="371.127">AppTopbar</text><line style="stroke:#181818;stroke-width:0.5;" x1="292" x2="394" y1="379.2031" y2="379.2031"/><line style="stroke:#181818;stroke-width:0.5;" x1="292" x2="394" y1="387.2031" y2="387.2031"/></g><!--class LanguageSwitcher--><g id="elem_LanguageSwitcher"><rect codeLine="20" fill="#F1F1F1" height="58.7031" id="LanguageSwitcher" rx="2.5" ry="2.5" style="stroke:#181818;stroke-width:0.5;" width="149" x="71.5" y="533"/><ellipse cx="86.5" cy="554.3516" fill="#ADD1B2" rx="11" ry="11" style="stroke:#181818;stroke-width:1.0;"/><path d="M89.2656,550.2266 Q89.4219,550.0078 89.6094,549.8984 Q89.7969,549.7891 90.0156,549.7891 Q90.3906,549.7891 90.625,550.0547 Q90.8594,550.3047 90.8594,550.9141 L90.8594,552.3672 Q90.8594,552.9766 90.625,553.2422 Q90.3906,553.5078 90.0156,553.5078 Q89.6719,553.5078 89.4688,553.3047 Q89.2656,553.1172 89.1563,552.6016 Q89.1094,552.2422 88.9219,552.0547 Q88.5938,551.6797 87.9844,551.4609 Q87.375,551.2422 86.75,551.2422 Q85.9844,551.2422 85.3438,551.5703 Q84.7188,551.8984 84.2188,552.6484 Q83.7344,553.3984 83.7344,554.4297 L83.7344,555.5234 Q83.7344,556.7578 84.625,557.5859 Q85.5156,558.3984 87.1094,558.3984 Q88.0469,558.3984 88.7031,558.1484 Q89.0938,557.9922 89.5156,557.5547 Q89.7813,557.2891 89.9219,557.2109 Q90.0781,557.1328 90.2813,557.1328 Q90.6094,557.1328 90.8594,557.3984 Q91.125,557.6484 91.125,557.9922 Q91.125,558.3359 90.7813,558.7422 Q90.2813,559.3203 89.4844,559.6484 Q88.4063,560.1016 87.1094,560.1016 Q85.5938,560.1016 84.3906,559.4766 Q83.4063,558.9766 82.7188,557.9141 Q82.0313,556.8359 82.0313,555.5547 L82.0313,554.3984 Q82.0313,553.0703 82.6406,551.9297 Q83.2656,550.7734 84.3594,550.1641 Q85.4531,549.5391 86.6875,549.5391 Q87.4219,549.5391 88.0625,549.7109 Q88.7188,549.8672 89.2656,550.2266 Z " fill="#000000"/><text fill="#000000" font-family="sans-serif" font-size="12" font-style="italic" lengthAdjust="spacing" textLength="76" x="121" y="550.457">&#171;component&#187;</text><text fill="#000000" font-family="sans-serif" font-size="14" lengthAdjust="spacing" textLength="117" x="100.5" y="567.627">LanguageSwitcher</text><line style="stroke:#181818;stroke-width:0.5;" x1="72.5" x2="219.5" y1="575.7031" y2="575.7031"/><line style="stroke:#181818;stroke-width:0.5;" x1="72.5" x2="219.5" y1="583.7031" y2="583.7031"/></g><!--class LogoutButton--><g id="elem_LogoutButton"><rect codeLine="21" fill="#F1F1F1" height="58.7031" id="LogoutButton" rx="2.5" ry="2.5" style="stroke:#181818;stroke-width:0.5;" width="117" x="280.5" y="533"/><ellipse cx="295.5" cy="554.3516" fill="#ADD1B2" rx="11" ry="11" style="stroke:#181818;stroke-width:1.0;"/><path d="M298.2656,550.2266 Q298.4219,550.0078 298.6094,549.8984 Q298.7969,549.7891 299.0156,549.7891 Q299.3906,549.7891 299.625,550.0547 Q299.8594,550.3047 299.8594,550.9141 L299.8594,552.3672 Q299.8594,552.9766 299.625,553.2422 Q299.3906,553.5078 299.0156,553.5078 Q298.6719,553.5078 298.4688,553.3047 Q298.2656,553.1172 298.1563,552.6016 Q298.1094,552.2422 297.9219,552.0547 Q297.5938,551.6797 296.9844,551.4609 Q296.375,551.2422 295.75,551.2422 Q294.9844,551.2422 294.3438,551.5703 Q293.7188,551.8984 293.2188,552.6484 Q292.7344,553.3984 292.7344,554.4297 L292.7344,555.5234 Q292.7344,556.7578 293.625,557.5859 Q294.5156,558.3984 296.1094,558.3984 Q297.0469,558.3984 297.7031,558.1484 Q298.0938,557.9922 298.5156,557.5547 Q298.7813,557.2891 298.9219,557.2109 Q299.0781,557.1328 299.2813,557.1328 Q299.6094,557.1328 299.8594,557.3984 Q300.125,557.6484 300.125,557.9922 Q300.125,558.3359 299.7813,558.7422 Q299.2813,559.3203 298.4844,559.6484 Q297.4063,560.1016 296.1094,560.1016 Q294.5938,560.1016 293.3906,559.4766 Q292.4063,558.9766 291.7188,557.9141 Q291.0313,556.8359 291.0313,555.5547 L291.0313,554.3984 Q291.0313,553.0703 291.6406,551.9297 Q292.2656,550.7734 293.3594,550.1641 Q294.4531,549.5391 295.6875,549.5391 Q296.4219,549.5391 297.0625,549.7109 Q297.7188,549.8672 298.2656,550.2266 Z " fill="#000000"/><text fill="#000000" font-family="sans-serif" font-size="12" font-style="italic" lengthAdjust="spacing" textLength="76" x="314" y="550.457">&#171;component&#187;</text><text fill="#000000" font-family="sans-serif" font-size="14" lengthAdjust="spacing" textLength="85" x="309.5" y="567.627">LogoutButton</text><line style="stroke:#181818;stroke-width:0.5;" x1="281.5" x2="396.5" y1="575.7031" y2="575.7031"/><line style="stroke:#181818;stroke-width:0.5;" x1="281.5" x2="396.5" y1="583.7031" y2="583.7031"/></g><!--class CareTeam--><g id="elem_CareTeam"><rect codeLine="34" fill="#F1F1F1" height="181.9688" id="CareTeam" rx="2.5" ry="2.5" style="stroke:#181818;stroke-width:0.5;" width="171" x="1113.5" y="790"/><ellipse cx="1161.25" cy="811.3516" fill="#ADD1B2" rx="11" ry="11" style="stroke:#181818;stroke-width:1.0;"/><path d="M1164.0156,807.2266 Q1164.1719,807.0078 1164.3594,806.8984 Q1164.5469,806.7891 1164.7656,806.7891 Q1165.1406,806.7891 1165.375,807.0547 Q1165.6094,807.3047 1165.6094,807.9141 L1165.6094,809.3672 Q1165.6094,809.9766 1165.375,810.2422 Q1165.1406,810.5078 1164.7656,810.5078 Q1164.4219,810.5078 1164.2188,810.3047 Q1164.0156,810.1172 1163.9063,809.6016 Q1163.8594,809.2422 1163.6719,809.0547 Q1163.3438,808.6797 1162.7344,808.4609 Q1162.125,808.2422 1161.5,808.2422 Q1160.7344,808.2422 1160.0938,808.5703 Q1159.4688,808.8984 1158.9688,809.6484 Q1158.4844,810.3984 1158.4844,811.4297 L1158.4844,812.5234 Q1158.4844,813.7578 1159.375,814.5859 Q1160.2656,815.3984 1161.8594,815.3984 Q1162.7969,815.3984 1163.4531,815.1484 Q1163.8438,814.9922 1164.2656,814.5547 Q1164.5313,814.2891 1164.6719,814.2109 Q1164.8281,814.1328 1165.0313,814.1328 Q1165.3594,814.1328 1165.6094,814.3984 Q1165.875,814.6484 1165.875,814.9922 Q1165.875,815.3359 1165.5313,815.7422 Q1165.0313,816.3203 1164.2344,816.6484 Q1163.1563,817.1016 1161.8594,817.1016 Q1160.3438,817.1016 1159.1406,816.4766 Q1158.1563,815.9766 1157.4688,814.9141 Q1156.7813,813.8359 1156.7813,812.5547 L1156.7813,811.3984 Q1156.7813,810.0703 1157.3906,808.9297 Q1158.0156,807.7734 1159.1094,807.1641 Q1160.2031,806.5391 1161.4375,806.5391 Q1162.1719,806.5391 1162.8125,806.7109 Q1163.4688,806.8672 1164.0156,807.2266 Z " fill="#000000"/><text fill="#000000" font-family="sans-serif" font-size="12" font-style="italic" lengthAdjust="spacing" textLength="43" x="1193.75" y="807.457">&#171;entity&#187;</text><text fill="#000000" font-family="sans-serif" font-size="14" lengthAdjust="spacing" textLength="67" x="1181.75" y="824.627">CareTeam</text><line style="stroke:#181818;stroke-width:0.5;" x1="1114.5" x2="1283.5" y1="832.7031" y2="832.7031"/><rect fill="none" height="6" style="stroke:#C82930;stroke-width:1.0;" width="6" x="1121.5" y="844.0078"/><text fill="#000000" font-family="sans-serif" font-size="14" lengthAdjust="spacing" textLength="68" x="1133.5" y="851.2363">id: Number</text><rect fill="none" height="6" style="stroke:#C82930;stroke-width:1.0;" width="6" x="1121.5" y="861.6172"/><text fill="#000000" font-family="sans-serif" font-size="14" lengthAdjust="spacing" textLength="78" x="1133.5" y="868.8457">name: string</text><rect fill="none" height="6" style="stroke:#C82930;stroke-width:1.0;" width="6" x="1121.5" y="879.2266"/><text fill="#000000" font-family="sans-serif" font-size="14" lengthAdjust="spacing" textLength="145" x="1133.5" y="886.4551">organizationId: Number</text><rect fill="none" height="6" style="stroke:#C82930;stroke-width:1.0;" width="6" x="1121.5" y="896.8359"/><text fill="#000000" font-family="sans-serif" font-size="14" lengthAdjust="spacing" textLength="127" x="1133.5" y="904.0645">workAreaId: Number</text><rect fill="none" height="6" style="stroke:#C82930;stroke-width:1.0;" width="6" x="1121.5" y="914.4453"/><text fill="#000000" font-family="sans-serif" font-size="14" lengthAdjust="spacing" textLength="134" x="1133.5" y="921.6738">supervisorId: Number</text><rect fill="none" height="6" style="stroke:#C82930;stroke-width:1.0;" width="6" x="1121.5" y="932.0547"/><text fill="#000000" font-family="sans-serif" font-size="14" lengthAdjust="spacing" textLength="81" x="1133.5" y="939.2832">status: string</text><line style="stroke:#181818;stroke-width:0.5;" x1="1114.5" x2="1283.5" y1="946.3594" y2="946.3594"/><ellipse cx="1124.5" cy="960.6641" fill="#84BE84" rx="3" ry="3" style="stroke:#038048;stroke-width:1.0;"/><text fill="#000000" font-family="sans-serif" font-size="14" lengthAdjust="spacing" textLength="109" x="1133.5" y="964.8926">constructor(data)</text></g><!--class ShiftRecord--><g id="elem_ShiftRecord"><rect codeLine="44" fill="#F1F1F1" height="270.0156" id="ShiftRecord" rx="2.5" ry="2.5" style="stroke:#181818;stroke-width:0.5;" width="171" x="882.5" y="746"/><ellipse cx="926.75" cy="767.3516" fill="#ADD1B2" rx="11" ry="11" style="stroke:#181818;stroke-width:1.0;"/><path d="M929.5156,763.2266 Q929.6719,763.0078 929.8594,762.8984 Q930.0469,762.7891 930.2656,762.7891 Q930.6406,762.7891 930.875,763.0547 Q931.1094,763.3047 931.1094,763.9141 L931.1094,765.3672 Q931.1094,765.9766 930.875,766.2422 Q930.6406,766.5078 930.2656,766.5078 Q929.9219,766.5078 929.7188,766.3047 Q929.5156,766.1172 929.4063,765.6016 Q929.3594,765.2422 929.1719,765.0547 Q928.8438,764.6797 928.2344,764.4609 Q927.625,764.2422 927,764.2422 Q926.2344,764.2422 925.5938,764.5703 Q924.9688,764.8984 924.4688,765.6484 Q923.9844,766.3984 923.9844,767.4297 L923.9844,768.5234 Q923.9844,769.7578 924.875,770.5859 Q925.7656,771.3984 927.3594,771.3984 Q928.2969,771.3984 928.9531,771.1484 Q929.3438,770.9922 929.7656,770.5547 Q930.0313,770.2891 930.1719,770.2109 Q930.3281,770.1328 930.5313,770.1328 Q930.8594,770.1328 931.1094,770.3984 Q931.375,770.6484 931.375,770.9922 Q931.375,771.3359 931.0313,771.7422 Q930.5313,772.3203 929.7344,772.6484 Q928.6563,773.1016 927.3594,773.1016 Q925.8438,773.1016 924.6406,772.4766 Q923.6563,771.9766 922.9688,770.9141 Q922.2813,769.8359 922.2813,768.5547 L922.2813,767.3984 Q922.2813,766.0703 922.8906,764.9297 Q923.5156,763.7734 924.6094,763.1641 Q925.7031,762.5391 926.9375,762.5391 Q927.6719,762.5391 928.3125,762.7109 Q928.9688,762.8672 929.5156,763.2266 Z " fill="#000000"/><text fill="#000000" font-family="sans-serif" font-size="12" font-style="italic" lengthAdjust="spacing" textLength="43" x="962.75" y="763.457">&#171;entity&#187;</text><text fill="#000000" font-family="sans-serif" font-size="14" lengthAdjust="spacing" textLength="74" x="947.25" y="780.627">ShiftRecord</text><line style="stroke:#181818;stroke-width:0.5;" x1="883.5" x2="1052.5" y1="788.7031" y2="788.7031"/><rect fill="none" height="6" style="stroke:#C82930;stroke-width:1.0;" width="6" x="890.5" y="800.0078"/><text fill="#000000" font-family="sans-serif" font-size="14" lengthAdjust="spacing" textLength="68" x="902.5" y="807.2363">id: Number</text><rect fill="none" height="6" style="stroke:#C82930;stroke-width:1.0;" width="6" x="890.5" y="817.6172"/><text fill="#000000" font-family="sans-serif" font-size="14" lengthAdjust="spacing" textLength="145" x="902.5" y="824.8457">organizationId: Number</text><rect fill="none" height="6" style="stroke:#C82930;stroke-width:1.0;" width="6" x="890.5" y="835.2266"/><text fill="#000000" font-family="sans-serif" font-size="14" lengthAdjust="spacing" textLength="96" x="902.5" y="842.4551">userId: Number</text><rect fill="none" height="6" style="stroke:#C82930;stroke-width:1.0;" width="6" x="890.5" y="852.8359"/><text fill="#000000" font-family="sans-serif" font-size="14" lengthAdjust="spacing" textLength="127" x="902.5" y="860.0645">workAreaId: Number</text><rect fill="none" height="6" style="stroke:#C82930;stroke-width:1.0;" width="6" x="890.5" y="870.4453"/><text fill="#000000" font-family="sans-serif" font-size="14" lengthAdjust="spacing" textLength="70" x="902.5" y="877.6738">type: string</text><rect fill="none" height="6" style="stroke:#C82930;stroke-width:1.0;" width="6" x="890.5" y="888.0547"/><text fill="#000000" font-family="sans-serif" font-size="14" lengthAdjust="spacing" textLength="81" x="902.5" y="895.2832">status: string</text><rect fill="none" height="6" style="stroke:#C82930;stroke-width:1.0;" width="6" x="890.5" y="905.6641"/><text fill="#000000" font-family="sans-serif" font-size="14" lengthAdjust="spacing" textLength="133" x="902.5" y="912.8926">scheduledStart: Date</text><rect fill="none" height="6" style="stroke:#C82930;stroke-width:1.0;" width="6" x="890.5" y="923.2734"/><text fill="#000000" font-family="sans-serif" font-size="14" lengthAdjust="spacing" textLength="128" x="902.5" y="930.502">scheduledEnd: Date</text><rect fill="none" height="6" style="stroke:#C82930;stroke-width:1.0;" width="6" x="890.5" y="940.8828"/><text fill="#000000" font-family="sans-serif" font-size="14" lengthAdjust="spacing" textLength="124" x="902.5" y="948.1113">checkInAt: Date|null</text><rect fill="none" height="6" style="stroke:#C82930;stroke-width:1.0;" width="6" x="890.5" y="958.4922"/><text fill="#000000" font-family="sans-serif" font-size="14" lengthAdjust="spacing" textLength="136" x="902.5" y="965.7207">checkOutAt: Date|null</text><rect fill="none" height="6" style="stroke:#C82930;stroke-width:1.0;" width="6" x="890.5" y="976.1016"/><text fill="#000000" font-family="sans-serif" font-size="14" lengthAdjust="spacing" textLength="139" x="902.5" y="983.3301">evaluation: Object|null</text><line style="stroke:#181818;stroke-width:0.5;" x1="883.5" x2="1052.5" y1="990.4063" y2="990.4063"/><ellipse cx="893.5" cy="1004.7109" fill="#84BE84" rx="3" ry="3" style="stroke:#038048;stroke-width:1.0;"/><text fill="#000000" font-family="sans-serif" font-size="14" lengthAdjust="spacing" textLength="109" x="902.5" y="1008.9395">constructor(data)</text></g><!--class TeamMember--><g id="elem_TeamMember"><rect codeLine="59" fill="#F1F1F1" height="146.75" id="TeamMember" rx="2.5" ry="2.5" style="stroke:#181818;stroke-width:0.5;" width="135" x="1140.5" y="1106"/><ellipse cx="1162.7" cy="1127.3516" fill="#ADD1B2" rx="11" ry="11" style="stroke:#181818;stroke-width:1.0;"/><path d="M1165.4656,1123.2266 Q1165.6219,1123.0078 1165.8094,1122.8984 Q1165.9969,1122.7891 1166.2156,1122.7891 Q1166.5906,1122.7891 1166.825,1123.0547 Q1167.0594,1123.3047 1167.0594,1123.9141 L1167.0594,1125.3672 Q1167.0594,1125.9766 1166.825,1126.2422 Q1166.5906,1126.5078 1166.2156,1126.5078 Q1165.8719,1126.5078 1165.6688,1126.3047 Q1165.4656,1126.1172 1165.3563,1125.6016 Q1165.3094,1125.2422 1165.1219,1125.0547 Q1164.7938,1124.6797 1164.1844,1124.4609 Q1163.575,1124.2422 1162.95,1124.2422 Q1162.1844,1124.2422 1161.5438,1124.5703 Q1160.9188,1124.8984 1160.4188,1125.6484 Q1159.9344,1126.3984 1159.9344,1127.4297 L1159.9344,1128.5234 Q1159.9344,1129.7578 1160.825,1130.5859 Q1161.7156,1131.3984 1163.3094,1131.3984 Q1164.2469,1131.3984 1164.9031,1131.1484 Q1165.2938,1130.9922 1165.7156,1130.5547 Q1165.9813,1130.2891 1166.1219,1130.2109 Q1166.2781,1130.1328 1166.4813,1130.1328 Q1166.8094,1130.1328 1167.0594,1130.3984 Q1167.325,1130.6484 1167.325,1130.9922 Q1167.325,1131.3359 1166.9813,1131.7422 Q1166.4813,1132.3203 1165.6844,1132.6484 Q1164.6063,1133.1016 1163.3094,1133.1016 Q1161.7938,1133.1016 1160.5906,1132.4766 Q1159.6063,1131.9766 1158.9188,1130.9141 Q1158.2313,1129.8359 1158.2313,1128.5547 L1158.2313,1127.3984 Q1158.2313,1126.0703 1158.8406,1124.9297 Q1159.4656,1123.7734 1160.5594,1123.1641 Q1161.6531,1122.5391 1162.8875,1122.5391 Q1163.6219,1122.5391 1164.2625,1122.7109 Q1164.9188,1122.8672 1165.4656,1123.2266 Z " fill="#000000"/><text fill="#000000" font-family="sans-serif" font-size="12" font-style="italic" lengthAdjust="spacing" textLength="43" x="1200.3" y="1123.457">&#171;entity&#187;</text><text fill="#000000" font-family="sans-serif" font-size="14" lengthAdjust="spacing" textLength="87" x="1178.3" y="1140.627">TeamMember</text><line style="stroke:#181818;stroke-width:0.5;" x1="1141.5" x2="1274.5" y1="1148.7031" y2="1148.7031"/><rect fill="none" height="6" style="stroke:#C82930;stroke-width:1.0;" width="6" x="1148.5" y="1160.0078"/><text fill="#000000" font-family="sans-serif" font-size="14" lengthAdjust="spacing" textLength="68" x="1160.5" y="1167.2363">id: Number</text><rect fill="none" height="6" style="stroke:#C82930;stroke-width:1.0;" width="6" x="1148.5" y="1177.6172"/><text fill="#000000" font-family="sans-serif" font-size="14" lengthAdjust="spacing" textLength="99" x="1160.5" y="1184.8457">teamId: Number</text><rect fill="none" height="6" style="stroke:#C82930;stroke-width:1.0;" width="6" x="1148.5" y="1195.2266"/><text fill="#000000" font-family="sans-serif" font-size="14" lengthAdjust="spacing" textLength="96" x="1160.5" y="1202.4551">userId: Number</text><rect fill="none" height="6" style="stroke:#C82930;stroke-width:1.0;" width="6" x="1148.5" y="1212.8359"/><text fill="#000000" font-family="sans-serif" font-size="14" lengthAdjust="spacing" textLength="108" x="1160.5" y="1220.0645">assignedAt: Date</text><line style="stroke:#181818;stroke-width:0.5;" x1="1141.5" x2="1274.5" y1="1227.1406" y2="1227.1406"/><ellipse cx="1151.5" cy="1241.4453" fill="#84BE84" rx="3" ry="3" style="stroke:#038048;stroke-width:1.0;"/><text fill="#000000" font-family="sans-serif" font-size="14" lengthAdjust="spacing" textLength="109" x="1160.5" y="1245.6738">constructor(data)</text></g><!--class ShiftApi--><g id="elem_ShiftApi"><rect codeLine="69" fill="#F1F1F1" height="329.75" id="ShiftApi" rx="2.5" ry="2.5" style="stroke:#181818;stroke-width:0.5;" width="249" x="1407.5" y="716"/><ellipse cx="1503.75" cy="732" fill="#ADD1B2" rx="11" ry="11" style="stroke:#181818;stroke-width:1.0;"/><path d="M1506.5156,727.875 Q1506.6719,727.6563 1506.8594,727.5469 Q1507.0469,727.4375 1507.2656,727.4375 Q1507.6406,727.4375 1507.875,727.7031 Q1508.1094,727.9531 1508.1094,728.5625 L1508.1094,730.0156 Q1508.1094,730.625 1507.875,730.8906 Q1507.6406,731.1563 1507.2656,731.1563 Q1506.9219,731.1563 1506.7188,730.9531 Q1506.5156,730.7656 1506.4063,730.25 Q1506.3594,729.8906 1506.1719,729.7031 Q1505.8438,729.3281 1505.2344,729.1094 Q1504.625,728.8906 1504,728.8906 Q1503.2344,728.8906 1502.5938,729.2188 Q1501.9688,729.5469 1501.4688,730.2969 Q1500.9844,731.0469 1500.9844,732.0781 L1500.9844,733.1719 Q1500.9844,734.4063 1501.875,735.2344 Q1502.7656,736.0469 1504.3594,736.0469 Q1505.2969,736.0469 1505.9531,735.7969 Q1506.3438,735.6406 1506.7656,735.2031 Q1507.0313,734.9375 1507.1719,734.8594 Q1507.3281,734.7813 1507.5313,734.7813 Q1507.8594,734.7813 1508.1094,735.0469 Q1508.375,735.2969 1508.375,735.6406 Q1508.375,735.9844 1508.0313,736.3906 Q1507.5313,736.9688 1506.7344,737.2969 Q1505.6563,737.75 1504.3594,737.75 Q1502.8438,737.75 1501.6406,737.125 Q1500.6563,736.625 1499.9688,735.5625 Q1499.2813,734.4844 1499.2813,733.2031 L1499.2813,732.0469 Q1499.2813,730.7188 1499.8906,729.5781 Q1500.5156,728.4219 1501.6094,727.8125 Q1502.7031,727.1875 1503.9375,727.1875 Q1504.6719,727.1875 1505.3125,727.3594 Q1505.9688,727.5156 1506.5156,727.875 Z " fill="#000000"/><text fill="#000000" font-family="sans-serif" font-size="14" lengthAdjust="spacing" textLength="48" x="1524.25" y="737.7285">ShiftApi</text><line style="stroke:#181818;stroke-width:0.5;" x1="1408.5" x2="1655.5" y1="748" y2="748"/><line style="stroke:#181818;stroke-width:0.5;" x1="1408.5" x2="1655.5" y1="756" y2="756"/><ellipse cx="1418.5" cy="770.3047" fill="#84BE84" rx="3" ry="3" style="stroke:#038048;stroke-width:1.0;"/><text fill="#000000" font-family="sans-serif" font-size="14" lengthAdjust="spacing" textLength="107" x="1427.5" y="774.5332">teams(): Promise</text><ellipse cx="1418.5" cy="787.9141" fill="#84BE84" rx="3" ry="3" style="stroke:#038048;stroke-width:1.0;"/><text fill="#000000" font-family="sans-serif" font-size="14" lengthAdjust="spacing" textLength="127" x="1427.5" y="792.1426">members(): Promise</text><ellipse cx="1418.5" cy="805.5234" fill="#84BE84" rx="3" ry="3" style="stroke:#038048;stroke-width:1.0;"/><text fill="#000000" font-family="sans-serif" font-size="14" lengthAdjust="spacing" textLength="149" x="1427.5" y="809.752">shifts(params): Promise</text><ellipse cx="1418.5" cy="823.1328" fill="#84BE84" rx="3" ry="3" style="stroke:#038048;stroke-width:1.0;"/><text fill="#000000" font-family="sans-serif" font-size="14" lengthAdjust="spacing" textLength="135" x="1427.5" y="827.3613">workAreas(): Promise</text><ellipse cx="1418.5" cy="840.7422" fill="#84BE84" rx="3" ry="3" style="stroke:#038048;stroke-width:1.0;"/><text fill="#000000" font-family="sans-serif" font-size="14" lengthAdjust="spacing" textLength="104" x="1427.5" y="844.9707">users(): Promise</text><ellipse cx="1418.5" cy="858.3516" fill="#84BE84" rx="3" ry="3" style="stroke:#038048;stroke-width:1.0;"/><text fill="#000000" font-family="sans-serif" font-size="14" lengthAdjust="spacing" textLength="195" x="1427.5" y="862.5801">createTeam(payload): Promise</text><ellipse cx="1418.5" cy="875.9609" fill="#84BE84" rx="3" ry="3" style="stroke:#038048;stroke-width:1.0;"/><text fill="#000000" font-family="sans-serif" font-size="14" lengthAdjust="spacing" textLength="210" x="1427.5" y="880.1895">createMember(payload): Promise</text><ellipse cx="1418.5" cy="893.5703" fill="#84BE84" rx="3" ry="3" style="stroke:#038048;stroke-width:1.0;"/><text fill="#000000" font-family="sans-serif" font-size="14" lengthAdjust="spacing" textLength="187" x="1427.5" y="897.7988">createShift(payload): Promise</text><ellipse cx="1418.5" cy="911.1797" fill="#84BE84" rx="3" ry="3" style="stroke:#038048;stroke-width:1.0;"/><text fill="#000000" font-family="sans-serif" font-size="14" lengthAdjust="spacing" textLength="179" x="1427.5" y="915.4082">patchShift(id, data): Promise</text><ellipse cx="1418.5" cy="928.7891" fill="#84BE84" rx="3" ry="3" style="stroke:#038048;stroke-width:1.0;"/><text fill="#000000" font-family="sans-serif" font-size="14" lengthAdjust="spacing" textLength="149" x="1427.5" y="933.0176">cancelShift(id): Promise</text><ellipse cx="1418.5" cy="946.3984" fill="#84BE84" rx="3" ry="3" style="stroke:#038048;stroke-width:1.0;"/><text fill="#000000" font-family="sans-serif" font-size="14" lengthAdjust="spacing" textLength="128" x="1427.5" y="950.627">checkIn(id): Promise</text><ellipse cx="1418.5" cy="964.0078" fill="#84BE84" rx="3" ry="3" style="stroke:#038048;stroke-width:1.0;"/><text fill="#000000" font-family="sans-serif" font-size="14" lengthAdjust="spacing" textLength="140" x="1427.5" y="968.2363">checkOut(id): Promise</text><ellipse cx="1418.5" cy="981.6172" fill="#84BE84" rx="3" ry="3" style="stroke:#038048;stroke-width:1.0;"/><text fill="#000000" font-family="sans-serif" font-size="14" lengthAdjust="spacing" textLength="113" x="1427.5" y="985.8457">block(id): Promise</text><ellipse cx="1418.5" cy="999.2266" fill="#84BE84" rx="3" ry="3" style="stroke:#038048;stroke-width:1.0;"/><text fill="#000000" font-family="sans-serif" font-size="14" lengthAdjust="spacing" textLength="192" x="1427.5" y="1003.4551">evaluate(id, payload): Promise</text><ellipse cx="1418.5" cy="1016.8359" fill="#84BE84" rx="3" ry="3" style="stroke:#038048;stroke-width:1.0;"/><text fill="#000000" font-family="sans-serif" font-size="14" lengthAdjust="spacing" textLength="207" x="1427.5" y="1021.0645">reassign(id, newUserId): Promise</text><ellipse cx="1418.5" cy="1034.4453" fill="#84BE84" rx="3" ry="3" style="stroke:#038048;stroke-width:1.0;"/><text fill="#000000" font-family="sans-serif" font-size="14" lengthAdjust="spacing" textLength="223" x="1427.5" y="1038.6738">suggestions(teamUserIds): Promise</text></g><!--class ShiftStore--><g id="elem_ShiftStore"><rect codeLine="92" fill="#F1F1F1" height="129.1406" id="ShiftStore" rx="2.5" ry="2.5" style="stroke:#181818;stroke-width:0.5;" width="187" x="1105.5" y="498"/><ellipse cx="1163.75" cy="519.3516" fill="#ADD1B2" rx="11" ry="11" style="stroke:#181818;stroke-width:1.0;"/><path d="M1166.5156,515.2266 Q1166.6719,515.0078 1166.8594,514.8984 Q1167.0469,514.7891 1167.2656,514.7891 Q1167.6406,514.7891 1167.875,515.0547 Q1168.1094,515.3047 1168.1094,515.9141 L1168.1094,517.3672 Q1168.1094,517.9766 1167.875,518.2422 Q1167.6406,518.5078 1167.2656,518.5078 Q1166.9219,518.5078 1166.7188,518.3047 Q1166.5156,518.1172 1166.4063,517.6016 Q1166.3594,517.2422 1166.1719,517.0547 Q1165.8438,516.6797 1165.2344,516.4609 Q1164.625,516.2422 1164,516.2422 Q1163.2344,516.2422 1162.5938,516.5703 Q1161.9688,516.8984 1161.4688,517.6484 Q1160.9844,518.3984 1160.9844,519.4297 L1160.9844,520.5234 Q1160.9844,521.7578 1161.875,522.5859 Q1162.7656,523.3984 1164.3594,523.3984 Q1165.2969,523.3984 1165.9531,523.1484 Q1166.3438,522.9922 1166.7656,522.5547 Q1167.0313,522.2891 1167.1719,522.2109 Q1167.3281,522.1328 1167.5313,522.1328 Q1167.8594,522.1328 1168.1094,522.3984 Q1168.375,522.6484 1168.375,522.9922 Q1168.375,523.3359 1168.0313,523.7422 Q1167.5313,524.3203 1166.7344,524.6484 Q1165.6563,525.1016 1164.3594,525.1016 Q1162.8438,525.1016 1161.6406,524.4766 Q1160.6563,523.9766 1159.9688,522.9141 Q1159.2813,521.8359 1159.2813,520.5547 L1159.2813,519.3984 Q1159.2813,518.0703 1159.8906,516.9297 Q1160.5156,515.7734 1161.6094,515.1641 Q1162.7031,514.5391 1163.9375,514.5391 Q1164.6719,514.5391 1165.3125,514.7109 Q1165.9688,514.8672 1166.5156,515.2266 Z " fill="#000000"/><text fill="#000000" font-family="sans-serif" font-size="12" font-style="italic" lengthAdjust="spacing" textLength="41" x="1194.75" y="515.457">&#171;store&#187;</text><text fill="#000000" font-family="sans-serif" font-size="14" lengthAdjust="spacing" textLength="62" x="1184.25" y="532.627">ShiftStore</text><line style="stroke:#181818;stroke-width:0.5;" x1="1106.5" x2="1291.5" y1="540.7031" y2="540.7031"/><rect fill="none" height="6" style="stroke:#C82930;stroke-width:1.0;" width="6" x="1113.5" y="552.0078"/><text fill="#000000" font-family="sans-serif" font-size="14" lengthAdjust="spacing" textLength="123" x="1125.5" y="559.2363">shifts: ShiftRecord[]</text><rect fill="none" height="6" style="stroke:#C82930;stroke-width:1.0;" width="6" x="1113.5" y="569.6172"/><text fill="#000000" font-family="sans-serif" font-size="14" lengthAdjust="spacing" textLength="154" x="1125.5" y="576.8457">careTeams: CareTeam[]</text><rect fill="none" height="6" style="stroke:#C82930;stroke-width:1.0;" width="6" x="1113.5" y="587.2266"/><text fill="#000000" font-family="sans-serif" font-size="14" lengthAdjust="spacing" textLength="161" x="1125.5" y="594.4551">members: TeamMember[]</text><line style="stroke:#181818;stroke-width:0.5;" x1="1106.5" x2="1291.5" y1="601.5313" y2="601.5313"/><ellipse cx="1116.5" cy="615.8359" fill="#84BE84" rx="3" ry="3" style="stroke:#038048;stroke-width:1.0;"/><text fill="#000000" font-family="sans-serif" font-size="14" lengthAdjust="spacing" textLength="52" x="1125.5" y="620.0645">loadAll()</text></g><!--class DoctorShifts--><g id="elem_DoctorShifts"><rect codeLine="103" fill="#F1F1F1" height="111.5313" id="DoctorShifts" rx="2.5" ry="2.5" style="stroke:#181818;stroke-width:0.5;" width="128" x="1288" y="310"/><ellipse cx="1311.55" cy="331.3516" fill="#ADD1B2" rx="11" ry="11" style="stroke:#181818;stroke-width:1.0;"/><path d="M1314.3156,327.2266 Q1314.4719,327.0078 1314.6594,326.8984 Q1314.8469,326.7891 1315.0656,326.7891 Q1315.4406,326.7891 1315.675,327.0547 Q1315.9094,327.3047 1315.9094,327.9141 L1315.9094,329.3672 Q1315.9094,329.9766 1315.675,330.2422 Q1315.4406,330.5078 1315.0656,330.5078 Q1314.7219,330.5078 1314.5188,330.3047 Q1314.3156,330.1172 1314.2063,329.6016 Q1314.1594,329.2422 1313.9719,329.0547 Q1313.6438,328.6797 1313.0344,328.4609 Q1312.425,328.2422 1311.8,328.2422 Q1311.0344,328.2422 1310.3938,328.5703 Q1309.7688,328.8984 1309.2688,329.6484 Q1308.7844,330.3984 1308.7844,331.4297 L1308.7844,332.5234 Q1308.7844,333.7578 1309.675,334.5859 Q1310.5656,335.3984 1312.1594,335.3984 Q1313.0969,335.3984 1313.7531,335.1484 Q1314.1438,334.9922 1314.5656,334.5547 Q1314.8313,334.2891 1314.9719,334.2109 Q1315.1281,334.1328 1315.3313,334.1328 Q1315.6594,334.1328 1315.9094,334.3984 Q1316.175,334.6484 1316.175,334.9922 Q1316.175,335.3359 1315.8313,335.7422 Q1315.3313,336.3203 1314.5344,336.6484 Q1313.4563,337.1016 1312.1594,337.1016 Q1310.6438,337.1016 1309.4406,336.4766 Q1308.4563,335.9766 1307.7688,334.9141 Q1307.0813,333.8359 1307.0813,332.5547 L1307.0813,331.3984 Q1307.0813,330.0703 1307.6906,328.9297 Q1308.3156,327.7734 1309.4094,327.1641 Q1310.5031,326.5391 1311.7375,326.5391 Q1312.4719,326.5391 1313.1125,326.7109 Q1313.7688,326.8672 1314.3156,327.2266 Z " fill="#000000"/><text fill="#000000" font-family="sans-serif" font-size="12" font-style="italic" lengthAdjust="spacing" textLength="38" x="1346.95" y="327.457">&#171;view&#187;</text><text fill="#000000" font-family="sans-serif" font-size="14" lengthAdjust="spacing" textLength="77" x="1327.45" y="344.627">DoctorShifts</text><line style="stroke:#181818;stroke-width:0.5;" x1="1289" x2="1415" y1="352.7031" y2="352.7031"/><rect fill="none" height="6" style="stroke:#C82930;stroke-width:1.0;" width="6" x="1296" y="364.0078"/><text fill="#000000" font-family="sans-serif" font-size="14" lengthAdjust="spacing" textLength="102" x="1308" y="371.2363">store: ShiftStore</text><line style="stroke:#181818;stroke-width:0.5;" x1="1289" x2="1415" y1="378.3125" y2="378.3125"/><ellipse cx="1299" cy="392.6172" fill="#84BE84" rx="3" ry="3" style="stroke:#038048;stroke-width:1.0;"/><text fill="#000000" font-family="sans-serif" font-size="14" lengthAdjust="spacing" textLength="58" x="1308" y="396.8457">checkIn()</text><ellipse cx="1299" cy="410.2266" fill="#84BE84" rx="3" ry="3" style="stroke:#038048;stroke-width:1.0;"/><text fill="#000000" font-family="sans-serif" font-size="14" lengthAdjust="spacing" textLength="70" x="1308" y="414.4551">checkOut()</text></g><!--class SupervisorShifts--><g id="elem_SupervisorShifts"><rect codeLine="109" fill="#F1F1F1" height="93.9219" id="SupervisorShifts" rx="2.5" ry="2.5" style="stroke:#181818;stroke-width:0.5;" width="135" x="1092.5" y="319"/><ellipse cx="1107.5" cy="340.3516" fill="#ADD1B2" rx="11" ry="11" style="stroke:#181818;stroke-width:1.0;"/><path d="M1110.2656,336.2266 Q1110.4219,336.0078 1110.6094,335.8984 Q1110.7969,335.7891 1111.0156,335.7891 Q1111.3906,335.7891 1111.625,336.0547 Q1111.8594,336.3047 1111.8594,336.9141 L1111.8594,338.3672 Q1111.8594,338.9766 1111.625,339.2422 Q1111.3906,339.5078 1111.0156,339.5078 Q1110.6719,339.5078 1110.4688,339.3047 Q1110.2656,339.1172 1110.1563,338.6016 Q1110.1094,338.2422 1109.9219,338.0547 Q1109.5938,337.6797 1108.9844,337.4609 Q1108.375,337.2422 1107.75,337.2422 Q1106.9844,337.2422 1106.3438,337.5703 Q1105.7188,337.8984 1105.2188,338.6484 Q1104.7344,339.3984 1104.7344,340.4297 L1104.7344,341.5234 Q1104.7344,342.7578 1105.625,343.5859 Q1106.5156,344.3984 1108.1094,344.3984 Q1109.0469,344.3984 1109.7031,344.1484 Q1110.0938,343.9922 1110.5156,343.5547 Q1110.7813,343.2891 1110.9219,343.2109 Q1111.0781,343.1328 1111.2813,343.1328 Q1111.6094,343.1328 1111.8594,343.3984 Q1112.125,343.6484 1112.125,343.9922 Q1112.125,344.3359 1111.7813,344.7422 Q1111.2813,345.3203 1110.4844,345.6484 Q1109.4063,346.1016 1108.1094,346.1016 Q1106.5938,346.1016 1105.3906,345.4766 Q1104.4063,344.9766 1103.7188,343.9141 Q1103.0313,342.8359 1103.0313,341.5547 L1103.0313,340.3984 Q1103.0313,339.0703 1103.6406,337.9297 Q1104.2656,336.7734 1105.3594,336.1641 Q1106.4531,335.5391 1107.6875,335.5391 Q1108.4219,335.5391 1109.0625,335.7109 Q1109.7188,335.8672 1110.2656,336.2266 Z " fill="#000000"/><text fill="#000000" font-family="sans-serif" font-size="12" font-style="italic" lengthAdjust="spacing" textLength="38" x="1154" y="336.457">&#171;view&#187;</text><text fill="#000000" font-family="sans-serif" font-size="14" lengthAdjust="spacing" textLength="103" x="1121.5" y="353.627">SupervisorShifts</text><line style="stroke:#181818;stroke-width:0.5;" x1="1093.5" x2="1226.5" y1="361.7031" y2="361.7031"/><rect fill="none" height="6" style="stroke:#C82930;stroke-width:1.0;" width="6" x="1100.5" y="373.0078"/><text fill="#000000" font-family="sans-serif" font-size="14" lengthAdjust="spacing" textLength="102" x="1112.5" y="380.2363">store: ShiftStore</text><line style="stroke:#181818;stroke-width:0.5;" x1="1093.5" x2="1226.5" y1="387.3125" y2="387.3125"/><ellipse cx="1103.5" cy="401.6172" fill="#84BE84" rx="3" ry="3" style="stroke:#038048;stroke-width:1.0;"/><text fill="#000000" font-family="sans-serif" font-size="14" lengthAdjust="spacing" textLength="79" x="1112.5" y="405.8457">assignShift()</text></g><!--class TeamManagement--><g id="elem_TeamManagement"><rect codeLine="114" fill="#F1F1F1" height="111.5313" id="TeamManagement" rx="2.5" ry="2.5" style="stroke:#181818;stroke-width:0.5;" width="150" x="882" y="310"/><ellipse cx="897" cy="331.3516" fill="#ADD1B2" rx="11" ry="11" style="stroke:#181818;stroke-width:1.0;"/><path d="M899.7656,327.2266 Q899.9219,327.0078 900.1094,326.8984 Q900.2969,326.7891 900.5156,326.7891 Q900.8906,326.7891 901.125,327.0547 Q901.3594,327.3047 901.3594,327.9141 L901.3594,329.3672 Q901.3594,329.9766 901.125,330.2422 Q900.8906,330.5078 900.5156,330.5078 Q900.1719,330.5078 899.9688,330.3047 Q899.7656,330.1172 899.6563,329.6016 Q899.6094,329.2422 899.4219,329.0547 Q899.0938,328.6797 898.4844,328.4609 Q897.875,328.2422 897.25,328.2422 Q896.4844,328.2422 895.8438,328.5703 Q895.2188,328.8984 894.7188,329.6484 Q894.2344,330.3984 894.2344,331.4297 L894.2344,332.5234 Q894.2344,333.7578 895.125,334.5859 Q896.0156,335.3984 897.6094,335.3984 Q898.5469,335.3984 899.2031,335.1484 Q899.5938,334.9922 900.0156,334.5547 Q900.2813,334.2891 900.4219,334.2109 Q900.5781,334.1328 900.7813,334.1328 Q901.1094,334.1328 901.3594,334.3984 Q901.625,334.6484 901.625,334.9922 Q901.625,335.3359 901.2813,335.7422 Q900.7813,336.3203 899.9844,336.6484 Q898.9063,337.1016 897.6094,337.1016 Q896.0938,337.1016 894.8906,336.4766 Q893.9063,335.9766 893.2188,334.9141 Q892.5313,333.8359 892.5313,332.5547 L892.5313,331.3984 Q892.5313,330.0703 893.1406,328.9297 Q893.7656,327.7734 894.8594,327.1641 Q895.9531,326.5391 897.1875,326.5391 Q897.9219,326.5391 898.5625,326.7109 Q899.2188,326.8672 899.7656,327.2266 Z " fill="#000000"/><text fill="#000000" font-family="sans-serif" font-size="12" font-style="italic" lengthAdjust="spacing" textLength="38" x="951" y="327.457">&#171;view&#187;</text><text fill="#000000" font-family="sans-serif" font-size="14" lengthAdjust="spacing" textLength="118" x="911" y="344.627">TeamManagement</text><line style="stroke:#181818;stroke-width:0.5;" x1="883" x2="1031" y1="352.7031" y2="352.7031"/><rect fill="none" height="6" style="stroke:#C82930;stroke-width:1.0;" width="6" x="890" y="364.0078"/><text fill="#000000" font-family="sans-serif" font-size="14" lengthAdjust="spacing" textLength="102" x="902" y="371.2363">store: ShiftStore</text><line style="stroke:#181818;stroke-width:0.5;" x1="883" x2="1031" y1="378.3125" y2="378.3125"/><ellipse cx="893" cy="392.6172" fill="#84BE84" rx="3" ry="3" style="stroke:#038048;stroke-width:1.0;"/><text fill="#000000" font-family="sans-serif" font-size="14" lengthAdjust="spacing" textLength="86" x="902" y="396.8457">createTeam()</text><ellipse cx="893" cy="410.2266" fill="#84BE84" rx="3" ry="3" style="stroke:#038048;stroke-width:1.0;"/><text fill="#000000" font-family="sans-serif" font-size="14" lengthAdjust="spacing" textLength="85" x="902" y="414.4551">addMember()</text></g><!--reverse link AppLayout to AppSidebar--><g id="link_AppLayout_AppSidebar"><path codeLine="26" d="M281.94,161 C246.5,161 218,161 218,161 C218,161 218,279.33 218,336.19 " fill="none" id="AppLayout-backto-AppSidebar" style="stroke:#181818;stroke-width:1.0;"/><polygon fill="#181818" points="293.94,161,287.94,157,281.94,161,287.94,165,293.94,161" style="stroke:#181818;stroke-width:1.0;"/><polygon fill="#000000" points="157.2857,206.5027,163.1477,199.0135,157.6261,196.9983,157.2857,206.5027" style="stroke:#000000;stroke-width:1.0;"/><text fill="#000000" font-family="sans-serif" font-size="13" lengthAdjust="spacing" textLength="49" x="168" y="207.1251">contains</text></g><!--reverse link AppLayout to AppTopbar--><g id="link_AppLayout_AppTopbar"><path codeLine="27" d="M354.6,202.38 C354.6,241.45 354.6,297.49 354.6,336.42 " fill="none" id="AppLayout-backto-AppTopbar" style="stroke:#181818;stroke-width:1.0;"/><polygon fill="#181818" points="354.6,190.38,350.6,196.38,354.6,202.38,358.6,196.38,354.6,190.38" style="stroke:#181818;stroke-width:1.0;"/><polygon fill="#000000" points="295.6,259.5758,298.5389,250.5307,292.6611,250.5307,295.6,259.5758" style="stroke:#000000;stroke-width:1.0;"/><text fill="#000000" font-family="sans-serif" font-size="13" lengthAdjust="spacing" textLength="49" x="304.6" y="259.8951">contains</text></g><!--reverse link AppTopbar to LanguageSwitcher--><g id="link_AppTopbar_LanguageSwitcher"><path codeLine="28" d="M278.99,366 C260.3,366 255.75,366 255.75,366 C255.75,366 255.75,563 255.75,563 C255.75,563 240.16,563 220.72,563 " fill="none" id="AppTopbar-backto-LanguageSwitcher" style="stroke:#181818;stroke-width:1.0;"/><polygon fill="#181818" points="290.99,366,284.99,362,278.99,366,284.99,370,290.99,366" style="stroke:#181818;stroke-width:1.0;"/><polygon fill="#000000" points="195.3318,460.3704,200.7156,452.5304,195.0791,450.8632,195.3318,460.3704" style="stroke:#000000;stroke-width:1.0;"/><text fill="#000000" font-family="sans-serif" font-size="13" lengthAdjust="spacing" textLength="49" x="205.75" y="460.8951">contains</text></g><!--reverse link AppTopbar to LogoutButton--><g id="link_AppTopbar_LogoutButton"><path codeLine="29" d="M343,407.84 C343,444.88 343,495.68 343,532.7 " fill="none" id="AppTopbar-backto-LogoutButton" style="stroke:#181818;stroke-width:1.0;"/><polygon fill="#181818" points="343,395.84,339,401.84,343,407.84,347,401.84,343,395.84" style="stroke:#181818;stroke-width:1.0;"/><polygon fill="#000000" points="284,460.4458,286.9389,451.4007,281.0611,451.4007,284,460.4458" style="stroke:#000000;stroke-width:1.0;"/><text fill="#000000" font-family="sans-serif" font-size="13" lengthAdjust="spacing" textLength="49" x="293" y="460.7651">contains</text></g><!--link ShiftApi to BaseEndpoint--><g id="link_ShiftApi_BaseEndpoint"><path codeLine="88" d="M1407.48,736 C1179.46,736 718,736 718,736 C718,736 718,312.4 718,202.86 " fill="none" id="ShiftApi-to-BaseEndpoint" style="stroke:#181818;stroke-width:1.0;stroke-dasharray:7.0,7.0;"/><polygon fill="none" points="718,184.86,712,202.86,724,202.86,718,184.86" style="stroke:#181818;stroke-width:1.0;"/></g><!--link ShiftStore to ShiftApi--><g id="link_ShiftStore_ShiftApi"><path codeLine="99" d="M1289.83,627.12 C1289.83,672.82 1289.83,726 1289.83,726 C1289.83,726 1342.03,726 1401.37,726 " fill="none" id="ShiftStore-to-ShiftApi" style="stroke:#181818;stroke-width:1.0;"/><polygon fill="#181818" points="1407.37,726,1398.37,722,1402.37,726,1398.37,730,1407.37,726" style="stroke:#181818;stroke-width:1.0;"/></g><!--link DoctorShifts to ShiftStore--><g id="link_DoctorShifts_ShiftStore"><path codeLine="120" d="M1287.83,419 C1271.14,419 1257.75,419 1257.75,419 C1257.75,419 1257.75,453.8 1257.75,491.89 " fill="none" id="DoctorShifts-to-ShiftStore" style="stroke:#181818;stroke-width:1.0;"/><polygon fill="#181818" points="1257.75,497.89,1261.75,488.89,1257.75,492.89,1253.75,488.89,1257.75,497.89" style="stroke:#181818;stroke-width:1.0;"/></g><!--link SupervisorShifts to ShiftStore--><g id="link_SupervisorShifts_ShiftStore"><path codeLine="121" d="M1186.83,413.07 C1186.83,438.5 1186.83,464.28 1186.83,491.99 " fill="none" id="SupervisorShifts-to-ShiftStore" style="stroke:#181818;stroke-width:1.0;"/><polygon fill="#181818" points="1186.83,497.99,1190.83,488.99,1186.83,492.99,1182.83,488.99,1186.83,497.99" style="stroke:#181818;stroke-width:1.0;"/></g><!--link TeamManagement to ShiftStore--><g id="link_TeamManagement_ShiftStore"><path codeLine="122" d="M1032.04,416 C1084.85,416 1146.17,416 1146.17,416 C1146.17,416 1146.17,452.57 1146.17,491.82 " fill="none" id="TeamManagement-to-ShiftStore" style="stroke:#181818;stroke-width:1.0;"/><polygon fill="#181818" points="1146.17,497.82,1150.17,488.82,1146.17,492.82,1142.17,488.82,1146.17,497.82" style="stroke:#181818;stroke-width:1.0;"/></g><!--link CareTeam to TeamMember--><g id="link_CareTeam_TeamMember"><path codeLine="126" d="M1208,980.18 C1208,1023.04 1208,1053.48 1208,1093.87 " fill="none" id="CareTeam-TeamMember" style="stroke:#181818;stroke-width:1.0;"/><line style="stroke:#181818;stroke-width:1.0;" x1="1204" x2="1212" y1="976.18" y2="976.18"/><line style="stroke:#181818;stroke-width:1.0;" x1="1204" x2="1212" y1="979.18" y2="979.18"/><line style="stroke:#181818;stroke-width:1.0;" x1="1208" x2="1208" y1="980.18" y2="972.18"/><polygon fill="none" points="1208,1105.87,1212,1099.87,1208,1093.87,1204,1099.87,1208,1105.87" style="stroke:#181818;stroke-width:1.0;"/><polygon fill="#000000" points="1177,1035.2058,1179.9389,1026.1607,1174.0611,1026.1607,1177,1035.2058" style="stroke:#000000;stroke-width:1.0;"/><text fill="#000000" font-family="sans-serif" font-size="13" lengthAdjust="spacing" textLength="21" x="1186" y="1035.5251">has</text></g><!--reverse link ShiftStore to ShiftRecord--><g id="link_ShiftStore_ShiftRecord"><path codeLine="127" d="M1109.5,639.24 C1109.5,699.48 1109.5,768 1109.5,768 C1109.5,768 1083.37,768 1053.58,768 " fill="none" id="ShiftStore-backto-ShiftRecord" style="stroke:#181818;stroke-width:1.0;"/><polygon fill="none" points="1109.5,627.24,1105.5,633.24,1109.5,639.24,1113.5,633.24,1109.5,627.24" style="stroke:#181818;stroke-width:1.0;"/><polygon fill="#000000" points="1044.5082,739.3419,1050.807,732.2162,1045.4157,729.8748,1044.5082,739.3419" style="stroke:#000000;stroke-width:1.0;"/><text fill="#000000" font-family="sans-serif" font-size="13" lengthAdjust="spacing" textLength="53" x="1055.5" y="740.0751">manages</text></g><!--reverse link ShiftStore to CareTeam--><g id="link_ShiftStore_CareTeam"><path codeLine="128" d="M1199,639.34 C1199,686.17 1199,738.06 1199,790 " fill="none" id="ShiftStore-backto-CareTeam" style="stroke:#181818;stroke-width:1.0;"/><polygon fill="none" points="1199,627.34,1195,633.34,1199,639.34,1203,633.34,1199,627.34" style="stroke:#181818;stroke-width:1.0;"/><polygon fill="#000000" points="1136,704.8458,1138.9389,695.8007,1133.0611,695.8007,1136,704.8458" style="stroke:#000000;stroke-width:1.0;"/><text fill="#000000" font-family="sans-serif" font-size="13" lengthAdjust="spacing" textLength="53" x="1145" y="705.1651">manages</text></g><!--reverse link ShiftStore to TeamMember--><g id="link_ShiftStore_TeamMember"><path codeLine="129" d="M1287.17,639.13 C1287.17,797.48 1287.17,1180 1287.17,1180 C1287.17,1180 1282.67,1180 1275.82,1180 " fill="none" id="ShiftStore-backto-TeamMember" style="stroke:#181818;stroke-width:1.0;"/><polygon fill="none" points="1287.17,627.13,1283.17,633.13,1287.17,639.13,1291.17,633.13,1287.17,627.13" style="stroke:#181818;stroke-width:1.0;"/><polygon fill="#000000" points="1292.0651,905.4047,1295.1931,896.4232,1289.3166,896.2999,1292.0651,905.4047" style="stroke:#000000;stroke-width:1.0;"/><text fill="#000000" font-family="sans-serif" font-size="13" lengthAdjust="spacing" textLength="53" x="1301.17" y="905.7251">manages</text></g><!--link AppLayout to DoctorShifts--><g id="link_AppLayout_DoctorShifts"><path codeLine="132" d="M334.4,190.38 C334.4,209.21 334.4,230 334.4,230 C334.4,230 1352,230 1352,230 C1352,230 1352,266.44 1352,303.9 " fill="none" id="AppLayout-to-DoctorShifts" style="stroke:#181818;stroke-width:1.0;stroke-dasharray:7.0,7.0;"/><polygon fill="#181818" points="1352,309.9,1356,300.9,1352,304.9,1348,300.9,1352,309.9" style="stroke:#181818;stroke-width:1.0;"/><polygon fill="#000000" points="815.3092,221.7301,806.6457,217.8065,805.994,223.6481,815.3092,221.7301" style="stroke:#000000;stroke-width:1.0;"/><text fill="#000000" font-family="sans-serif" font-size="13" lengthAdjust="spacing" textLength="43" x="819.34" y="226.4951">renders</text></g><!--link AppLayout to SupervisorShifts--><g id="link_AppLayout_SupervisorShifts"><path codeLine="133" d="M314.2,190.13 C314.2,222.56 314.2,270 314.2,270 C314.2,270 1160,270 1160,270 C1160,270 1160,288.57 1160,312.84 " fill="none" id="AppLayout-to-SupervisorShifts" style="stroke:#181818;stroke-width:1.0;stroke-dasharray:7.0,7.0;"/><polygon fill="#181818" points="1160,318.84,1164,309.84,1160,313.84,1156,309.84,1160,318.84" style="stroke:#181818;stroke-width:1.0;"/><polygon fill="#000000" points="673.5382,261.8937,665.0088,257.6865,664.1649,263.5035,673.5382,261.8937" style="stroke:#000000;stroke-width:1.0;"/><text fill="#000000" font-family="sans-serif" font-size="13" lengthAdjust="spacing" textLength="43" x="677.59" y="266.4951">renders</text></g><!--link AppLayout to TeamManagement--><g id="link_AppLayout_TeamManagement"><path codeLine="134" d="M374.8,190.11 C374.8,237.22 374.8,324 374.8,324 C374.8,324 718.4,324 875.78,324 " fill="none" id="AppLayout-to-TeamManagement" style="stroke:#181818;stroke-width:1.0;stroke-dasharray:7.0,7.0;"/><polygon fill="#181818" points="881.78,324,872.78,320,876.78,324,872.78,328,881.78,324" style="stroke:#181818;stroke-width:1.0;"/><polygon fill="#000000" points="513.1805,316.4668,505.2009,311.2921,503.6833,316.9706,513.1805,316.4668" style="stroke:#000000;stroke-width:1.0;"/><text fill="#000000" font-family="sans-serif" font-size="13" lengthAdjust="spacing" textLength="43" x="517.35" y="320.4951">renders</text></g><!--SRC=[fLPTJzim57tdLrYyh1qhsjCU8bIfm2IGs42KxMMQa4akhTV4jcm7w0R_VTTEcjYjatPT7bh9zzY-z_ZS3xrWN5952v8p3cOfWGXbvk90DmP9qmMTmTGiSo0AKaFvB0SFm4K66YJvzD5RL9GlwiM3-WHoE9rJ1Hav5INFyFzCS0Clvf1GJNHb-dD026dmb_nHKMrKcPfIWOUxPu6bscQ_DATQarEguJFFf63SjBQt47HXZ2Gd9vCN9lGbrnXM2kFn6jpz13xTA0oM6sgOuBv7qbjl3scsdOb22eu0xMzAczLsI-lXHCehkXIbGJSRv7WS0PPclYDIoYdBu86g7P1tGku0l48zb5OWpyoaSzYE5pDqzBGq1ecAOaFctv5QDWs5v8A1eYgTCz0MqVBqVZJoGqn8YXAZZ6ioZWBh22Eusc9n6m5kWVln1T2t81NOey6GXCeOhqGJJmiB2xFYN1HuO6k-pzp2UXAS8MbtWAbuSeASCRFqnMs_4M5PGhwMnGEeS9tJ0XA2wSNuBBG8DQES_NOENtRiVXPgCL50k-owbA2Uc1Qg4u5fLEgO1qUMpohlXHfarD1XgvemViVmBQJ8y1uKx19egK7jIu8jjN6AkuD76-elAtF8feOgav1pQg03WVKlPaTpkhZaathpAo_pF8AuBaqF19veNZfg4dBzy0jxmWRe7nxAYlGBM8hsU2U3c_Tv7xoOpJXaamYBlRut0VHtAPkN_KtAwNCYMHZfaOj83uO9kL6YO7hDiy8HrMrtD-k1QyAw2xGIP_SnbhfkQufxZIikUD4o5pJhHrQlknlMqR8DAYbMuWh9iW_4FL7NgRQlvoji9wfAYsq8J8iUo4CkqaMFlKuRS3vlYT2-ZbMemt9u_kQqtFdgvMm6sYQa7bZzLEZ8-xUvryZl-FXr74nC4ObZXyjPwiyyLj-qNOsAUuhf0vZJslvlfdGbrSGlr3z-hjMYkeSXQjNErY5rGYHU6GaXHyJoFCdpmR23XShFqMZSa1AX83BtMGxYOrz5mhcm1SITgP669mRF4HRivOddI5oOmmurThU_fil-dmEL3AlywI_Xb2DHXPtFzesrBIjhuT8igsj8n8M0vkOLW_Cto8Z3riBO17b3wItaxj5H1j9DeSsyzVew6Wc_goLaJkjHqTERm5dHdr4IKhYhuyZcz7vOS6iBh5p-ZezIJT6QERqE7h4whCRhQZBMmt1GFZuUXmGdM9fmJ5KR8xL5Rl3SYrwZsyU-_GK0]--></g></svg>