<?xml version="1.0" encoding="us-ascii" standalone="no"?><svg xmlns="http://www.w3.org/2000/svg" xmlns:xlink="http://www.w3.org/1999/xlink" contentStyleType="text/css" height="1589px" preserveAspectRatio="none" style="width:5657px;height:1589px;background:#FFFFFF;" version="1.1" viewBox="0 0 5657 1589" width="5657px" zoomAndPan="magnify"><defs/><g><!--cluster Shared--><g id="cluster_Shared"><rect fill="#F0F4F8" height="486" rx="2.5" ry="2.5" style="stroke:#4A90E2;stroke-width:1.5;" width="2392" x="7" y="1097"/><text fill="#000000" font-family="Arial" font-size="14" font-weight="bold" lengthAdjust="spacing" textLength="177" x="1114.5" y="1112.1318">Shared Bounded Context</text></g><!--cluster SharedDomain--><g id="cluster_SharedDomain"><rect fill="#F0F4F8" height="168" rx="2.5" ry="2.5" style="stroke:#4A90E2;stroke-width:1.5;" width="1018" x="31" y="1391"/><text fill="#000000" font-family="Arial" font-size="14" font-weight="bold" lengthAdjust="spacing" textLength="52" x="514" y="1406.1318">Domain</text></g><!--cluster SharedInfra--><g id="cluster_SharedInfra"><rect fill="#F0F4F8" height="398.5" rx="2.5" ry="2.5" style="stroke:#4A90E2;stroke-width:1.5;" width="1302" x="1073" y="1140"/><text fill="#000000" font-family="Arial" font-size="14" font-weight="bold" lengthAdjust="spacing" textLength="97" x="1675.5" y="1155.1318">Infrastructure</text></g><!--cluster ShiftCoord--><g id="cluster_ShiftCoord"><rect fill="#F0F4F8" height="1328" rx="2.5" ry="2.5" style="stroke:#4A90E2;stroke-width:1.5;" width="3152" x="2423" y="7"/><text fill="#000000" font-family="Arial" font-size="14" font-weight="bold" lengthAdjust="spacing" textLength="254" x="3872" y="22.1318">Shift Coordination Bounded Context</text></g><!--cluster ShiftDomain--><g id="cluster_ShiftDomain"><rect fill="#F0F4F8" height="1024" rx="2.5" ry="2.5" style="stroke:#4A90E2;stroke-width:1.5;" width="2891" x="2660" y="287"/><text fill="#000000" font-family="Arial" font-size="14" font-weight="bold" lengthAdjust="spacing" textLength="52" x="4079.5" y="302.1318">Domain</text></g><!--cluster ShiftInterfaces--><g id="cluster_ShiftInterfaces"><rect fill="#F0F4F8" height="168" rx="2.5" ry="2.5" style="stroke:#4A90E2;stroke-width:1.5;" width="3104" x="2447" y="50"/><text fill="#000000" font-family="Arial" font-size="14" font-weight="bold" lengthAdjust="spacing" textLength="71" x="3963.5" y="65.1318">Interfaces</text></g><!--class IBaseRepository--><g id="elem_IBaseRepository"><rect codeLine="19" fill="#FDFDFD" height="116.9941" id="IBaseRepository" rx="2.5" ry="2.5" style="stroke:#181818;stroke-width:0.5;" width="372" x="661" y="1426"/><ellipse cx="776.75" cy="1442" fill="#B4A7E5" rx="11" ry="11" style="stroke:#181818;stroke-width:1.0;"/><path d="M777.7031,1438.6406 L777.7031,1445.2969 L779.4219,1445.2969 Q780.0313,1445.2969 780.2969,1445.5313 Q780.5625,1445.7656 780.5625,1446.1563 Q780.5625,1446.5313 780.2969,1446.7656 Q780.0313,1447 779.4219,1447 L774.2813,1447 Q773.6719,1447 773.4063,1446.7656 Q773.1406,1446.5313 773.1406,1446.1406 Q773.1406,1445.7656 773.4063,1445.5313 Q773.6719,1445.2969 774.2813,1445.2969 L776,1445.2969 L776,1438.6406 L774.2813,1438.6406 Q773.6719,1438.6406 773.4063,1438.4063 Q773.1406,1438.1719 773.1406,1437.7813 Q773.1406,1437.4063 773.4063,1437.1719 Q773.6719,1436.9375 774.2813,1436.9375 L779.4219,1436.9375 Q780.0313,1436.9375 780.2969,1437.1719 Q780.5625,1437.4063 780.5625,1437.7813 Q780.5625,1438.1719 780.2969,1438.4063 Q780.0313,1438.6406 779.4219,1438.6406 L777.7031,1438.6406 Z " fill="#000000"/><text fill="#000000" font-family="Arial" font-size="12" font-style="italic" lengthAdjust="spacing" textLength="91" x="797.25" y="1446.3564">IBaseRepository</text><rect fill="#FFFFFF" height="15.7988" style="stroke:#181818;stroke-width:1.0;stroke-dasharray:2.0,2.0;" width="39" x="997" y="1423"/><text fill="#000000" font-family="Arial" font-size="12" font-style="italic" lengthAdjust="spacing" textLength="37" x="998" y="1435.2559">TEntity</text><line style="stroke:#181818;stroke-width:0.5;" x1="662" x2="1032" y1="1458" y2="1458"/><line style="stroke:#181818;stroke-width:0.5;" x1="662" x2="1032" y1="1466" y2="1466"/><ellipse cx="672" cy="1478.3994" fill="#84BE84" rx="3" ry="3" style="stroke:#038048;stroke-width:1.0;"/><text fill="#000000" font-family="Arial" font-size="12" lengthAdjust="spacing" textLength="288" x="681" y="1481.2559">AddAsync(entity: TEntity, ct: CancellationToken): Task</text><ellipse cx="672" cy="1492.1982" fill="#84BE84" rx="3" ry="3" style="stroke:#038048;stroke-width:1.0;"/><text fill="#000000" font-family="Arial" font-size="12" lengthAdjust="spacing" textLength="330" x="681" y="1495.0547">FindByIdAsync(id: int, ct: CancellationToken): Task&lt;TEntity?&gt;</text><ellipse cx="672" cy="1505.9971" fill="#84BE84" rx="3" ry="3" style="stroke:#038048;stroke-width:1.0;"/><text fill="#000000" font-family="Arial" font-size="12" lengthAdjust="spacing" textLength="146" x="681" y="1508.8535">Update(entity: TEntity): void</text><ellipse cx="672" cy="1519.7959" fill="#84BE84" rx="3" ry="3" style="stroke:#038048;stroke-width:1.0;"/><text fill="#000000" font-family="Arial" font-size="12" lengthAdjust="spacing" textLength="152" x="681" y="1522.6523">Remove(entity: TEntity): void</text><ellipse cx="672" cy="1533.5947" fill="#84BE84" rx="3" ry="3" style="stroke:#038048;stroke-width:1.0;"/><text fill="#000000" font-family="Arial" font-size="12" lengthAdjust="spacing" textLength="346" x="681" y="1536.4512">ListAsync(ct: CancellationToken): Task&lt;IEnumerable&lt;TEntity&gt;&gt;</text></g><!--class IUnitOfWork--><g id="elem_IUnitOfWork"><rect codeLine="27" fill="#FDFDFD" height="61.7988" id="IUnitOfWork" rx="2.5" ry="2.5" style="stroke:#181818;stroke-width:0.5;" width="271" x="309.5" y="1453.5"/><ellipse cx="407.25" cy="1469.5" fill="#B4A7E5" rx="11" ry="11" style="stroke:#181818;stroke-width:1.0;"/><path d="M408.2031,1466.1406 L408.2031,1472.7969 L409.9219,1472.7969 Q410.5313,1472.7969 410.7969,1473.0313 Q411.0625,1473.2656 411.0625,1473.6563 Q411.0625,1474.0313 410.7969,1474.2656 Q410.5313,1474.5 409.9219,1474.5 L404.7813,1474.5 Q404.1719,1474.5 403.9063,1474.2656 Q403.6406,1474.0313 403.6406,1473.6406 Q403.6406,1473.2656 403.9063,1473.0313 Q404.1719,1472.7969 404.7813,1472.7969 L406.5,1472.7969 L406.5,1466.1406 L404.7813,1466.1406 Q404.1719,1466.1406 403.9063,1465.9063 Q403.6406,1465.6719 403.6406,1465.2813 Q403.6406,1464.9063 403.9063,1464.6719 Q404.1719,1464.4375 404.7813,1464.4375 L409.9219,1464.4375 Q410.5313,1464.4375 410.7969,1464.6719 Q411.0625,1464.9063 411.0625,1465.2813 Q411.0625,1465.6719 410.7969,1465.9063 Q410.5313,1466.1406 409.9219,1466.1406 L408.2031,1466.1406 Z " fill="#000000"/><text fill="#000000" font-family="Arial" font-size="12" font-style="italic" lengthAdjust="spacing" textLength="67" x="427.75" y="1473.8564">IUnitOfWork</text><line style="stroke:#181818;stroke-width:0.5;" x1="310.5" x2="579.5" y1="1485.5" y2="1485.5"/><line style="stroke:#181818;stroke-width:0.5;" x1="310.5" x2="579.5" y1="1493.5" y2="1493.5"/><ellipse cx="320.5" cy="1505.8994" fill="#84BE84" rx="3" ry="3" style="stroke:#038048;stroke-width:1.0;"/><text fill="#000000" font-family="Arial" font-size="12" lengthAdjust="spacing" textLength="245" x="329.5" y="1508.7559">CompleteAsync(ct: CancellationToken): Task</text></g><!--class IAuditableEntity--><g id="elem_IAuditableEntity"><rect codeLine="31" fill="#FDFDFD" height="81.1953" id="IAuditableEntity" rx="2.5" ry="2.5" style="stroke:#181818;stroke-width:0.5;" width="182" x="47" y="1444"/><ellipse cx="90.35" cy="1462.7988" fill="#B4A7E5" rx="11" ry="11" style="stroke:#181818;stroke-width:1.0;"/><path d="M91.3031,1459.4395 L91.3031,1466.0957 L93.0219,1466.0957 Q93.6313,1466.0957 93.8969,1466.3301 Q94.1625,1466.5645 94.1625,1466.9551 Q94.1625,1467.3301 93.8969,1467.5645 Q93.6313,1467.7988 93.0219,1467.7988 L87.8813,1467.7988 Q87.2719,1467.7988 87.0063,1467.5645 Q86.7406,1467.3301 86.7406,1466.9395 Q86.7406,1466.5645 87.0063,1466.3301 Q87.2719,1466.0957 87.8813,1466.0957 L89.6,1466.0957 L89.6,1459.4395 L87.8813,1459.4395 Q87.2719,1459.4395 87.0063,1459.2051 Q86.7406,1458.9707 86.7406,1458.5801 Q86.7406,1458.2051 87.0063,1457.9707 Q87.2719,1457.7363 87.8813,1457.7363 L93.0219,1457.7363 Q93.6313,1457.7363 93.8969,1457.9707 Q94.1625,1458.2051 94.1625,1458.5801 Q94.1625,1458.9707 93.8969,1459.2051 Q93.6313,1459.4395 93.0219,1459.4395 L91.3031,1459.4395 Z " fill="#000000"/><text fill="#000000" font-family="Arial" font-size="12" font-style="italic" lengthAdjust="spacing" textLength="44" x="132.15" y="1460.2559">&#171;Entity&#187;</text><text fill="#000000" font-family="Arial" font-size="12" font-style="italic" lengthAdjust="spacing" textLength="87" x="110.65" y="1474.0547">IAuditableEntity</text><line style="stroke:#181818;stroke-width:0.5;" x1="48" x2="228" y1="1481.5977" y2="1481.5977"/><ellipse cx="58" cy="1493.9971" fill="none" rx="3" ry="3" style="stroke:#038048;stroke-width:1.0;"/><text fill="#000000" font-family="Arial" font-size="12" lengthAdjust="spacing" textLength="153" x="67" y="1496.8535">CreatedAt: DateTimeOffset?</text><ellipse cx="58" cy="1507.7959" fill="none" rx="3" ry="3" style="stroke:#038048;stroke-width:1.0;"/><text fill="#000000" font-family="Arial" font-size="12" lengthAdjust="spacing" textLength="156" x="67" y="1510.6523">UpdatedAt: DateTimeOffset?</text><line style="stroke:#181818;stroke-width:0.5;" x1="48" x2="228" y1="1517.1953" y2="1517.1953"/></g><!--class AppDbContext--><g id="elem_AppDbContext"><rect codeLine="38" fill="#FDFDFD" height="75.5977" id="AppDbContext" rx="2.5" ry="2.5" style="stroke:#181818;stroke-width:0.5;" width="351" x="1796.5" y="1446.5"/><ellipse cx="1928.75" cy="1462.5" fill="#ADD1B2" rx="11" ry="11" style="stroke:#181818;stroke-width:1.0;"/><path d="M1931.5156,1458.375 Q1931.6719,1458.1563 1931.8594,1458.0469 Q1932.0469,1457.9375 1932.2656,1457.9375 Q1932.6406,1457.9375 1932.875,1458.2031 Q1933.1094,1458.4531 1933.1094,1459.0625 L1933.1094,1460.5156 Q1933.1094,1461.125 1932.875,1461.3906 Q1932.6406,1461.6563 1932.2656,1461.6563 Q1931.9219,1461.6563 1931.7188,1461.4531 Q1931.5156,1461.2656 1931.4063,1460.75 Q1931.3594,1460.3906 1931.1719,1460.2031 Q1930.8438,1459.8281 1930.2344,1459.6094 Q1929.625,1459.3906 1929,1459.3906 Q1928.2344,1459.3906 1927.5938,1459.7188 Q1926.9688,1460.0469 1926.4688,1460.7969 Q1925.9844,1461.5469 1925.9844,1462.5781 L1925.9844,1463.6719 Q1925.9844,1464.9063 1926.875,1465.7344 Q1927.7656,1466.5469 1929.3594,1466.5469 Q1930.2969,1466.5469 1930.9531,1466.2969 Q1931.3438,1466.1406 1931.7656,1465.7031 Q1932.0313,1465.4375 1932.1719,1465.3594 Q1932.3281,1465.2813 1932.5313,1465.2813 Q1932.8594,1465.2813 1933.1094,1465.5469 Q1933.375,1465.7969 1933.375,1466.1406 Q1933.375,1466.4844 1933.0313,1466.8906 Q1932.5313,1467.4688 1931.7344,1467.7969 Q1930.6563,1468.25 1929.3594,1468.25 Q1927.8438,1468.25 1926.6406,1467.625 Q1925.6563,1467.125 1924.9688,1466.0625 Q1924.2813,1464.9844 1924.2813,1463.7031 L1924.2813,1462.5469 Q1924.2813,1461.2188 1924.8906,1460.0781 Q1925.5156,1458.9219 1926.6094,1458.3125 Q1927.7031,1457.6875 1928.9375,1457.6875 Q1929.6719,1457.6875 1930.3125,1457.8594 Q1930.9688,1458.0156 1931.5156,1458.375 Z " fill="#000000"/><text fill="#000000" font-family="Arial" font-size="12" lengthAdjust="spacing" textLength="78" x="1949.25" y="1466.8564">AppDbContext</text><line style="stroke:#181818;stroke-width:0.5;" x1="1797.5" x2="2146.5" y1="1478.5" y2="1478.5"/><line style="stroke:#181818;stroke-width:0.5;" x1="1797.5" x2="2146.5" y1="1486.5" y2="1486.5"/><ellipse cx="1807.5" cy="1498.8994" fill="#84BE84" rx="3" ry="3" style="stroke:#038048;stroke-width:1.0;"/><text fill="#000000" font-family="Arial" font-size="12" lengthAdjust="spacing" textLength="325" x="1816.5" y="1501.7559">AppDbContext(options: DbContextOptions&lt;AppDbContext&gt;)</text><ellipse cx="1807.5" cy="1512.6982" fill="#84BE84" rx="3" ry="3" style="stroke:#038048;stroke-width:1.0;"/><text fill="#000000" font-family="Arial" font-size="12" lengthAdjust="spacing" textLength="296" x="1816.5" y="1515.5547">SaveChangesAsync(ct: CancellationToken): Task&lt;int&gt;</text></g><!--class BaseRepository--><g id="elem_BaseRepository"><rect codeLine="43" fill="#FDFDFD" height="130.793" id="BaseRepository" rx="2.5" ry="2.5" style="stroke:#181818;stroke-width:0.5;" width="372" x="1987" y="1175"/><ellipse cx="2104.25" cy="1191" fill="#ADD1B2" rx="11" ry="11" style="stroke:#181818;stroke-width:1.0;"/><path d="M2107.0156,1186.875 Q2107.1719,1186.6563 2107.3594,1186.5469 Q2107.5469,1186.4375 2107.7656,1186.4375 Q2108.1406,1186.4375 2108.375,1186.7031 Q2108.6094,1186.9531 2108.6094,1187.5625 L2108.6094,1189.0156 Q2108.6094,1189.625 2108.375,1189.8906 Q2108.1406,1190.1563 2107.7656,1190.1563 Q2107.4219,1190.1563 2107.2188,1189.9531 Q2107.0156,1189.7656 2106.9063,1189.25 Q2106.8594,1188.8906 2106.6719,1188.7031 Q2106.3438,1188.3281 2105.7344,1188.1094 Q2105.125,1187.8906 2104.5,1187.8906 Q2103.7344,1187.8906 2103.0938,1188.2188 Q2102.4688,1188.5469 2101.9688,1189.2969 Q2101.4844,1190.0469 2101.4844,1191.0781 L2101.4844,1192.1719 Q2101.4844,1193.4063 2102.375,1194.2344 Q2103.2656,1195.0469 2104.8594,1195.0469 Q2105.7969,1195.0469 2106.4531,1194.7969 Q2106.8438,1194.6406 2107.2656,1194.2031 Q2107.5313,1193.9375 2107.6719,1193.8594 Q2107.8281,1193.7813 2108.0313,1193.7813 Q2108.3594,1193.7813 2108.6094,1194.0469 Q2108.875,1194.2969 2108.875,1194.6406 Q2108.875,1194.9844 2108.5313,1195.3906 Q2108.0313,1195.9688 2107.2344,1196.2969 Q2106.1563,1196.75 2104.8594,1196.75 Q2103.3438,1196.75 2102.1406,1196.125 Q2101.1563,1195.625 2100.4688,1194.5625 Q2099.7813,1193.4844 2099.7813,1192.2031 L2099.7813,1191.0469 Q2099.7813,1189.7188 2100.3906,1188.5781 Q2101.0156,1187.4219 2102.1094,1186.8125 Q2103.2031,1186.1875 2104.4375,1186.1875 Q2105.1719,1186.1875 2105.8125,1186.3594 Q2106.4688,1186.5156 2107.0156,1186.875 Z " fill="#000000"/><text fill="#000000" font-family="Arial" font-size="12" lengthAdjust="spacing" textLength="88" x="2124.75" y="1195.3564">BaseRepository</text><rect fill="#FFFFFF" height="15.7988" style="stroke:#181818;stroke-width:1.0;stroke-dasharray:2.0,2.0;" width="39" x="2323" y="1172"/><text fill="#000000" font-family="Arial" font-size="12" font-style="italic" lengthAdjust="spacing" textLength="37" x="2324" y="1184.2559">TEntity</text><line style="stroke:#181818;stroke-width:0.5;" x1="1988" x2="2358" y1="1207" y2="1207"/><line style="stroke:#181818;stroke-width:0.5;" x1="1988" x2="2358" y1="1215" y2="1215"/><ellipse cx="1998" cy="1227.3994" fill="#84BE84" rx="3" ry="3" style="stroke:#038048;stroke-width:1.0;"/><text fill="#000000" font-family="Arial" font-size="12" lengthAdjust="spacing" textLength="218" x="2007" y="1230.2559">BaseRepository(context: AppDbContext)</text><ellipse cx="1998" cy="1241.1982" fill="#84BE84" rx="3" ry="3" style="stroke:#038048;stroke-width:1.0;"/><text fill="#000000" font-family="Arial" font-size="12" lengthAdjust="spacing" textLength="288" x="2007" y="1244.0547">AddAsync(entity: TEntity, ct: CancellationToken): Task</text><ellipse cx="1998" cy="1254.9971" fill="#84BE84" rx="3" ry="3" style="stroke:#038048;stroke-width:1.0;"/><text fill="#000000" font-family="Arial" font-size="12" lengthAdjust="spacing" textLength="330" x="2007" y="1257.8535">FindByIdAsync(id: int, ct: CancellationToken): Task&lt;TEntity?&gt;</text><ellipse cx="1998" cy="1268.7959" fill="#84BE84" rx="3" ry="3" style="stroke:#038048;stroke-width:1.0;"/><text fill="#000000" font-family="Arial" font-size="12" lengthAdjust="spacing" textLength="146" x="2007" y="1271.6523">Update(entity: TEntity): void</text><ellipse cx="1998" cy="1282.5947" fill="#84BE84" rx="3" ry="3" style="stroke:#038048;stroke-width:1.0;"/><text fill="#000000" font-family="Arial" font-size="12" lengthAdjust="spacing" textLength="152" x="2007" y="1285.4512">Remove(entity: TEntity): void</text><ellipse cx="1998" cy="1296.3936" fill="#84BE84" rx="3" ry="3" style="stroke:#038048;stroke-width:1.0;"/><text fill="#000000" font-family="Arial" font-size="12" lengthAdjust="spacing" textLength="346" x="2007" y="1299.25">ListAsync(ct: CancellationToken): Task&lt;IEnumerable&lt;TEntity&gt;&gt;</text></g><!--class UnitOfWork--><g id="elem_UnitOfWork"><rect codeLine="52" fill="#FDFDFD" height="75.5977" id="UnitOfWork" rx="2.5" ry="2.5" style="stroke:#181818;stroke-width:0.5;" width="271" x="1635.5" y="1202.5"/><ellipse cx="1735.75" cy="1218.5" fill="#ADD1B2" rx="11" ry="11" style="stroke:#181818;stroke-width:1.0;"/><path d="M1738.5156,1214.375 Q1738.6719,1214.1563 1738.8594,1214.0469 Q1739.0469,1213.9375 1739.2656,1213.9375 Q1739.6406,1213.9375 1739.875,1214.2031 Q1740.1094,1214.4531 1740.1094,1215.0625 L1740.1094,1216.5156 Q1740.1094,1217.125 1739.875,1217.3906 Q1739.6406,1217.6563 1739.2656,1217.6563 Q1738.9219,1217.6563 1738.7188,1217.4531 Q1738.5156,1217.2656 1738.4063,1216.75 Q1738.3594,1216.3906 1738.1719,1216.2031 Q1737.8438,1215.8281 1737.2344,1215.6094 Q1736.625,1215.3906 1736,1215.3906 Q1735.2344,1215.3906 1734.5938,1215.7188 Q1733.9688,1216.0469 1733.4688,1216.7969 Q1732.9844,1217.5469 1732.9844,1218.5781 L1732.9844,1219.6719 Q1732.9844,1220.9063 1733.875,1221.7344 Q1734.7656,1222.5469 1736.3594,1222.5469 Q1737.2969,1222.5469 1737.9531,1222.2969 Q1738.3438,1222.1406 1738.7656,1221.7031 Q1739.0313,1221.4375 1739.1719,1221.3594 Q1739.3281,1221.2813 1739.5313,1221.2813 Q1739.8594,1221.2813 1740.1094,1221.5469 Q1740.375,1221.7969 1740.375,1222.1406 Q1740.375,1222.4844 1740.0313,1222.8906 Q1739.5313,1223.4688 1738.7344,1223.7969 Q1737.6563,1224.25 1736.3594,1224.25 Q1734.8438,1224.25 1733.6406,1223.625 Q1732.6563,1223.125 1731.9688,1222.0625 Q1731.2813,1220.9844 1731.2813,1219.7031 L1731.2813,1218.5469 Q1731.2813,1217.2188 1731.8906,1216.0781 Q1732.5156,1214.9219 1733.6094,1214.3125 Q1734.7031,1213.6875 1735.9375,1213.6875 Q1736.6719,1213.6875 1737.3125,1213.8594 Q1737.9688,1214.0156 1738.5156,1214.375 Z " fill="#000000"/><text fill="#000000" font-family="Arial" font-size="12" lengthAdjust="spacing" textLength="62" x="1756.25" y="1222.8564">UnitOfWork</text><line style="stroke:#181818;stroke-width:0.5;" x1="1636.5" x2="1905.5" y1="1234.5" y2="1234.5"/><line style="stroke:#181818;stroke-width:0.5;" x1="1636.5" x2="1905.5" y1="1242.5" y2="1242.5"/><ellipse cx="1646.5" cy="1254.8994" fill="#84BE84" rx="3" ry="3" style="stroke:#038048;stroke-width:1.0;"/><text fill="#000000" font-family="Arial" font-size="12" lengthAdjust="spacing" textLength="192" x="1655.5" y="1257.7559">UnitOfWork(context: AppDbContext)</text><ellipse cx="1646.5" cy="1268.6982" fill="#84BE84" rx="3" ry="3" style="stroke:#038048;stroke-width:1.0;"/><text fill="#000000" font-family="Arial" font-size="12" lengthAdjust="spacing" textLength="245" x="1655.5" y="1271.5547">CompleteAsync(ct: CancellationToken): Task</text></g><!--class AuditableEntityInterceptor--><g id="elem_AuditableEntityInterceptor"><rect codeLine="57" fill="#FDFDFD" height="61.7988" id="AuditableEntityInterceptor" rx="2.5" ry="2.5" style="stroke:#181818;stroke-width:0.5;" width="466" x="1089" y="1209.5"/><ellipse cx="1248.75" cy="1225.5" fill="#ADD1B2" rx="11" ry="11" style="stroke:#181818;stroke-width:1.0;"/><path d="M1251.5156,1221.375 Q1251.6719,1221.1563 1251.8594,1221.0469 Q1252.0469,1220.9375 1252.2656,1220.9375 Q1252.6406,1220.9375 1252.875,1221.2031 Q1253.1094,1221.4531 1253.1094,1222.0625 L1253.1094,1223.5156 Q1253.1094,1224.125 1252.875,1224.3906 Q1252.6406,1224.6563 1252.2656,1224.6563 Q1251.9219,1224.6563 1251.7188,1224.4531 Q1251.5156,1224.2656 1251.4063,1223.75 Q1251.3594,1223.3906 1251.1719,1223.2031 Q1250.8438,1222.8281 1250.2344,1222.6094 Q1249.625,1222.3906 1249,1222.3906 Q1248.2344,1222.3906 1247.5938,1222.7188 Q1246.9688,1223.0469 1246.4688,1223.7969 Q1245.9844,1224.5469 1245.9844,1225.5781 L1245.9844,1226.6719 Q1245.9844,1227.9063 1246.875,1228.7344 Q1247.7656,1229.5469 1249.3594,1229.5469 Q1250.2969,1229.5469 1250.9531,1229.2969 Q1251.3438,1229.1406 1251.7656,1228.7031 Q1252.0313,1228.4375 1252.1719,1228.3594 Q1252.3281,1228.2813 1252.5313,1228.2813 Q1252.8594,1228.2813 1253.1094,1228.5469 Q1253.375,1228.7969 1253.375,1229.1406 Q1253.375,1229.4844 1253.0313,1229.8906 Q1252.5313,1230.4688 1251.7344,1230.7969 Q1250.6563,1231.25 1249.3594,1231.25 Q1247.8438,1231.25 1246.6406,1230.625 Q1245.6563,1230.125 1244.9688,1229.0625 Q1244.2813,1227.9844 1244.2813,1226.7031 L1244.2813,1225.5469 Q1244.2813,1224.2188 1244.8906,1223.0781 Q1245.5156,1221.9219 1246.6094,1221.3125 Q1247.7031,1220.6875 1248.9375,1220.6875 Q1249.6719,1220.6875 1250.3125,1220.8594 Q1250.9688,1221.0156 1251.5156,1221.375 Z " fill="#000000"/><text fill="#000000" font-family="Arial" font-size="12" lengthAdjust="spacing" textLength="138" x="1269.25" y="1229.8564">AuditableEntityInterceptor</text><line style="stroke:#181818;stroke-width:0.5;" x1="1090" x2="1554" y1="1241.5" y2="1241.5"/><line style="stroke:#181818;stroke-width:0.5;" x1="1090" x2="1554" y1="1249.5" y2="1249.5"/><ellipse cx="1100" cy="1261.8994" fill="#84BE84" rx="3" ry="3" style="stroke:#038048;stroke-width:1.0;"/><text fill="#000000" font-family="Arial" font-size="12" lengthAdjust="spacing" textLength="440" x="1109" y="1264.7559">SavingChangesAsync(eventData, result, ct): ValueTask&lt;InterceptionResult&lt;int&gt;&gt;</text></g><!--class CareTeam--><g id="elem_CareTeam"><rect codeLine="69" fill="#FDFDFD" height="177.7871" id="CareTeam" rx="2.5" ry="2.5" style="stroke:#181818;stroke-width:0.5;" width="322" x="3830" y="835.5"/><ellipse cx="3953.25" cy="854.2988" fill="#ADD1B2" rx="11" ry="11" style="stroke:#181818;stroke-width:1.0;"/><path d="M3956.0156,850.1738 Q3956.1719,849.9551 3956.3594,849.8457 Q3956.5469,849.7363 3956.7656,849.7363 Q3957.1406,849.7363 3957.375,850.002 Q3957.6094,850.252 3957.6094,850.8613 L3957.6094,852.3145 Q3957.6094,852.9238 3957.375,853.1895 Q3957.1406,853.4551 3956.7656,853.4551 Q3956.4219,853.4551 3956.2188,853.252 Q3956.0156,853.0645 3955.9063,852.5488 Q3955.8594,852.1895 3955.6719,852.002 Q3955.3438,851.627 3954.7344,851.4082 Q3954.125,851.1895 3953.5,851.1895 Q3952.7344,851.1895 3952.0938,851.5176 Q3951.4688,851.8457 3950.9688,852.5957 Q3950.4844,853.3457 3950.4844,854.377 L3950.4844,855.4707 Q3950.4844,856.7051 3951.375,857.5332 Q3952.2656,858.3457 3953.8594,858.3457 Q3954.7969,858.3457 3955.4531,858.0957 Q3955.8438,857.9395 3956.2656,857.502 Q3956.5313,857.2363 3956.6719,857.1582 Q3956.8281,857.0801 3957.0313,857.0801 Q3957.3594,857.0801 3957.6094,857.3457 Q3957.875,857.5957 3957.875,857.9395 Q3957.875,858.2832 3957.5313,858.6895 Q3957.0313,859.2676 3956.2344,859.5957 Q3955.1563,860.0488 3953.8594,860.0488 Q3952.3438,860.0488 3951.1406,859.4238 Q3950.1563,858.9238 3949.4688,857.8613 Q3948.7813,856.7832 3948.7813,855.502 L3948.7813,854.3457 Q3948.7813,853.0176 3949.3906,851.877 Q3950.0156,850.7207 3951.1094,850.1113 Q3952.2031,849.4863 3953.4375,849.4863 Q3954.1719,849.4863 3954.8125,849.6582 Q3955.4688,849.8145 3956.0156,850.1738 Z " fill="#000000"/><text fill="#000000" font-family="Arial" font-size="12" font-style="italic" lengthAdjust="spacing" textLength="71" x="3971.75" y="851.7559">&#171;Aggregate&#187;</text><text fill="#000000" font-family="Arial" font-size="12" lengthAdjust="spacing" textLength="59" x="3977.75" y="865.5547">CareTeam</text><line style="stroke:#181818;stroke-width:0.5;" x1="3831" x2="4151" y1="873.0977" y2="873.0977"/><ellipse cx="3841" cy="885.4971" fill="none" rx="3" ry="3" style="stroke:#038048;stroke-width:1.0;"/><text fill="#000000" font-family="Arial" font-size="12" lengthAdjust="spacing" textLength="29" x="3850" y="888.3535">Id: int</text><ellipse cx="3841" cy="899.2959" fill="none" rx="3" ry="3" style="stroke:#038048;stroke-width:1.0;"/><text fill="#000000" font-family="Arial" font-size="12" lengthAdjust="spacing" textLength="98" x="3850" y="902.1523">OrganizationId: int</text><ellipse cx="3841" cy="913.0947" fill="none" rx="3" ry="3" style="stroke:#038048;stroke-width:1.0;"/><text fill="#000000" font-family="Arial" font-size="12" lengthAdjust="spacing" textLength="71" x="3850" y="915.9512">Name: string</text><ellipse cx="3841" cy="926.8936" fill="none" rx="3" ry="3" style="stroke:#038048;stroke-width:1.0;"/><text fill="#000000" font-family="Arial" font-size="12" lengthAdjust="spacing" textLength="82" x="3850" y="929.75">WorkAreaId: int</text><ellipse cx="3841" cy="940.6924" fill="none" rx="3" ry="3" style="stroke:#038048;stroke-width:1.0;"/><text fill="#000000" font-family="Arial" font-size="12" lengthAdjust="spacing" textLength="88" x="3850" y="943.5488">SupervisorId: int</text><ellipse cx="3841" cy="954.4912" fill="none" rx="3" ry="3" style="stroke:#038048;stroke-width:1.0;"/><text fill="#000000" font-family="Arial" font-size="12" lengthAdjust="spacing" textLength="72" x="3850" y="957.3477">Status: string</text><line style="stroke:#181818;stroke-width:0.5;" x1="3831" x2="4151" y1="963.8906" y2="963.8906"/><ellipse cx="3841" cy="976.29" fill="#84BE84" rx="3" ry="3" style="stroke:#038048;stroke-width:1.0;"/><text fill="#000000" font-family="Arial" font-size="12" lengthAdjust="spacing" textLength="67" x="3850" y="979.1465">CareTeam()</text><ellipse cx="3841" cy="990.0889" fill="#84BE84" rx="3" ry="3" style="stroke:#038048;stroke-width:1.0;"/><text fill="#000000" font-family="Arial" font-size="12" lengthAdjust="spacing" textLength="284" x="3850" y="992.9453">CareTeam(command: CreateCareTeamCommand)</text><ellipse cx="3841" cy="1003.8877" fill="#84BE84" rx="3" ry="3" style="stroke:#038048;stroke-width:1.0;"/><text fill="#000000" font-family="Arial" font-size="12" lengthAdjust="spacing" textLength="296" x="3850" y="1006.7441">Update(command: UpdateCareTeamCommand): void</text></g><!--class TeamMember--><g id="elem_TeamMember"><rect codeLine="81" fill="#FDFDFD" height="122.5918" id="TeamMember" rx="2.5" ry="2.5" style="stroke:#181818;stroke-width:0.5;" width="346" x="2676" y="551"/><ellipse cx="2806.25" cy="569.7988" fill="#ADD1B2" rx="11" ry="11" style="stroke:#181818;stroke-width:1.0;"/><path d="M2809.0156,565.6738 Q2809.1719,565.4551 2809.3594,565.3457 Q2809.5469,565.2363 2809.7656,565.2363 Q2810.1406,565.2363 2810.375,565.502 Q2810.6094,565.752 2810.6094,566.3613 L2810.6094,567.8145 Q2810.6094,568.4238 2810.375,568.6895 Q2810.1406,568.9551 2809.7656,568.9551 Q2809.4219,568.9551 2809.2188,568.752 Q2809.0156,568.5645 2808.9063,568.0488 Q2808.8594,567.6895 2808.6719,567.502 Q2808.3438,567.127 2807.7344,566.9082 Q2807.125,566.6895 2806.5,566.6895 Q2805.7344,566.6895 2805.0938,567.0176 Q2804.4688,567.3457 2803.9688,568.0957 Q2803.4844,568.8457 2803.4844,569.877 L2803.4844,570.9707 Q2803.4844,572.2051 2804.375,573.0332 Q2805.2656,573.8457 2806.8594,573.8457 Q2807.7969,573.8457 2808.4531,573.5957 Q2808.8438,573.4395 2809.2656,573.002 Q2809.5313,572.7363 2809.6719,572.6582 Q2809.8281,572.5801 2810.0313,572.5801 Q2810.3594,572.5801 2810.6094,572.8457 Q2810.875,573.0957 2810.875,573.4395 Q2810.875,573.7832 2810.5313,574.1895 Q2810.0313,574.7676 2809.2344,575.0957 Q2808.1563,575.5488 2806.8594,575.5488 Q2805.3438,575.5488 2804.1406,574.9238 Q2803.1563,574.4238 2802.4688,573.3613 Q2801.7813,572.2832 2801.7813,571.002 L2801.7813,569.8457 Q2801.7813,568.5176 2802.3906,567.377 Q2803.0156,566.2207 2804.1094,565.6113 Q2805.2031,564.9863 2806.4375,564.9863 Q2807.1719,564.9863 2807.8125,565.1582 Q2808.4688,565.3145 2809.0156,565.6738 Z " fill="#000000"/><text fill="#000000" font-family="Arial" font-size="12" font-style="italic" lengthAdjust="spacing" textLength="71" x="2829.75" y="567.2559">&#171;Aggregate&#187;</text><text fill="#000000" font-family="Arial" font-size="12" lengthAdjust="spacing" textLength="77" x="2826.75" y="581.0547">TeamMember</text><line style="stroke:#181818;stroke-width:0.5;" x1="2677" x2="3021" y1="588.5977" y2="588.5977"/><ellipse cx="2687" cy="600.9971" fill="none" rx="3" ry="3" style="stroke:#038048;stroke-width:1.0;"/><text fill="#000000" font-family="Arial" font-size="12" lengthAdjust="spacing" textLength="29" x="2696" y="603.8535">Id: int</text><ellipse cx="2687" cy="614.7959" fill="none" rx="3" ry="3" style="stroke:#038048;stroke-width:1.0;"/><text fill="#000000" font-family="Arial" font-size="12" lengthAdjust="spacing" textLength="61" x="2696" y="617.6523">TeamId: int</text><ellipse cx="2687" cy="628.5947" fill="none" rx="3" ry="3" style="stroke:#038048;stroke-width:1.0;"/><text fill="#000000" font-family="Arial" font-size="12" lengthAdjust="spacing" textLength="56" x="2696" y="631.4512">UserId: int</text><line style="stroke:#181818;stroke-width:0.5;" x1="2677" x2="3021" y1="637.9941" y2="637.9941"/><ellipse cx="2687" cy="650.3936" fill="#84BE84" rx="3" ry="3" style="stroke:#038048;stroke-width:1.0;"/><text fill="#000000" font-family="Arial" font-size="12" lengthAdjust="spacing" textLength="85" x="2696" y="653.25">TeamMember()</text><ellipse cx="2687" cy="664.1924" fill="#84BE84" rx="3" ry="3" style="stroke:#038048;stroke-width:1.0;"/><text fill="#000000" font-family="Arial" font-size="12" lengthAdjust="spacing" textLength="320" x="2696" y="667.0488">TeamMember(command: CreateTeamMemberCommand)</text></g><!--class ShiftRecord--><g id="elem_ShiftRecord"><rect codeLine="89" fill="#FDFDFD" height="260.5801" id="ShiftRecord" rx="2.5" ry="2.5" style="stroke:#181818;stroke-width:0.5;" width="531" x="4293.5" y="794"/><ellipse cx="4521.25" cy="812.7988" fill="#ADD1B2" rx="11" ry="11" style="stroke:#181818;stroke-width:1.0;"/><path d="M4524.0156,808.6738 Q4524.1719,808.4551 4524.3594,808.3457 Q4524.5469,808.2363 4524.7656,808.2363 Q4525.1406,808.2363 4525.375,808.502 Q4525.6094,808.752 4525.6094,809.3613 L4525.6094,810.8145 Q4525.6094,811.4238 4525.375,811.6895 Q4525.1406,811.9551 4524.7656,811.9551 Q4524.4219,811.9551 4524.2188,811.752 Q4524.0156,811.5645 4523.9063,811.0488 Q4523.8594,810.6895 4523.6719,810.502 Q4523.3438,810.127 4522.7344,809.9082 Q4522.125,809.6895 4521.5,809.6895 Q4520.7344,809.6895 4520.0938,810.0176 Q4519.4688,810.3457 4518.9688,811.0957 Q4518.4844,811.8457 4518.4844,812.877 L4518.4844,813.9707 Q4518.4844,815.2051 4519.375,816.0332 Q4520.2656,816.8457 4521.8594,816.8457 Q4522.7969,816.8457 4523.4531,816.5957 Q4523.8438,816.4395 4524.2656,816.002 Q4524.5313,815.7363 4524.6719,815.6582 Q4524.8281,815.5801 4525.0313,815.5801 Q4525.3594,815.5801 4525.6094,815.8457 Q4525.875,816.0957 4525.875,816.4395 Q4525.875,816.7832 4525.5313,817.1895 Q4525.0313,817.7676 4524.2344,818.0957 Q4523.1563,818.5488 4521.8594,818.5488 Q4520.3438,818.5488 4519.1406,817.9238 Q4518.1563,817.4238 4517.4688,816.3613 Q4516.7813,815.2832 4516.7813,814.002 L4516.7813,812.8457 Q4516.7813,811.5176 4517.3906,810.377 Q4518.0156,809.2207 4519.1094,808.6113 Q4520.2031,807.9863 4521.4375,807.9863 Q4522.1719,807.9863 4522.8125,808.1582 Q4523.4688,808.3145 4524.0156,808.6738 Z " fill="#000000"/><text fill="#000000" font-family="Arial" font-size="12" font-style="italic" lengthAdjust="spacing" textLength="71" x="4539.75" y="810.2559">&#171;Aggregate&#187;</text><text fill="#000000" font-family="Arial" font-size="12" lengthAdjust="spacing" textLength="64" x="4543.25" y="824.0547">ShiftRecord</text><line style="stroke:#181818;stroke-width:0.5;" x1="4294.5" x2="4823.5" y1="831.5977" y2="831.5977"/><ellipse cx="4304.5" cy="843.9971" fill="none" rx="3" ry="3" style="stroke:#038048;stroke-width:1.0;"/><text fill="#000000" font-family="Arial" font-size="12" lengthAdjust="spacing" textLength="29" x="4313.5" y="846.8535">Id: int</text><ellipse cx="4304.5" cy="857.7959" fill="none" rx="3" ry="3" style="stroke:#038048;stroke-width:1.0;"/><text fill="#000000" font-family="Arial" font-size="12" lengthAdjust="spacing" textLength="98" x="4313.5" y="860.6523">OrganizationId: int</text><ellipse cx="4304.5" cy="871.5947" fill="none" rx="3" ry="3" style="stroke:#038048;stroke-width:1.0;"/><text fill="#000000" font-family="Arial" font-size="12" lengthAdjust="spacing" textLength="56" x="4313.5" y="874.4512">UserId: int</text><ellipse cx="4304.5" cy="885.3936" fill="none" rx="3" ry="3" style="stroke:#038048;stroke-width:1.0;"/><text fill="#000000" font-family="Arial" font-size="12" lengthAdjust="spacing" textLength="82" x="4313.5" y="888.25">WorkAreaId: int</text><ellipse cx="4304.5" cy="899.1924" fill="none" rx="3" ry="3" style="stroke:#038048;stroke-width:1.0;"/><text fill="#000000" font-family="Arial" font-size="12" lengthAdjust="spacing" textLength="63" x="4313.5" y="902.0488">Type: string</text><ellipse cx="4304.5" cy="912.9912" fill="none" rx="3" ry="3" style="stroke:#038048;stroke-width:1.0;"/><text fill="#000000" font-family="Arial" font-size="12" lengthAdjust="spacing" textLength="72" x="4313.5" y="915.8477">Status: string</text><ellipse cx="4304.5" cy="926.79" fill="none" rx="3" ry="3" style="stroke:#038048;stroke-width:1.0;"/><text fill="#000000" font-family="Arial" font-size="12" lengthAdjust="spacing" textLength="176" x="4313.5" y="929.6465">ScheduledStart: DateTimeOffset</text><ellipse cx="4304.5" cy="940.5889" fill="none" rx="3" ry="3" style="stroke:#038048;stroke-width:1.0;"/><text fill="#000000" font-family="Arial" font-size="12" lengthAdjust="spacing" textLength="173" x="4313.5" y="943.4453">ScheduledEnd: DateTimeOffset</text><ellipse cx="4304.5" cy="954.3877" fill="none" rx="3" ry="3" style="stroke:#038048;stroke-width:1.0;"/><text fill="#000000" font-family="Arial" font-size="12" lengthAdjust="spacing" textLength="154" x="4313.5" y="957.2441">CheckInAt: DateTimeOffset?</text><ellipse cx="4304.5" cy="968.1865" fill="none" rx="3" ry="3" style="stroke:#038048;stroke-width:1.0;"/><text fill="#000000" font-family="Arial" font-size="12" lengthAdjust="spacing" textLength="163" x="4313.5" y="971.043">CheckOutAt: DateTimeOffset?</text><line style="stroke:#181818;stroke-width:0.5;" x1="4294.5" x2="4823.5" y1="977.5859" y2="977.5859"/><ellipse cx="4304.5" cy="989.9854" fill="#84BE84" rx="3" ry="3" style="stroke:#038048;stroke-width:1.0;"/><text fill="#000000" font-family="Arial" font-size="12" lengthAdjust="spacing" textLength="72" x="4313.5" y="992.8418">ShiftRecord()</text><ellipse cx="4304.5" cy="1003.7842" fill="#84BE84" rx="3" ry="3" style="stroke:#038048;stroke-width:1.0;"/><text fill="#000000" font-family="Arial" font-size="12" lengthAdjust="spacing" textLength="294" x="4313.5" y="1006.6406">ShiftRecord(command: CreateShiftRecordCommand)</text><ellipse cx="4304.5" cy="1017.583" fill="#84BE84" rx="3" ry="3" style="stroke:#038048;stroke-width:1.0;"/><text fill="#000000" font-family="Arial" font-size="12" lengthAdjust="spacing" textLength="505" x="4313.5" y="1020.4395">UpdateStatus(status: string, checkInAt: DateTimeOffset?, checkOutAt: DateTimeOffset?): void</text><ellipse cx="4304.5" cy="1031.3818" fill="#84BE84" rx="3" ry="3" style="stroke:#038048;stroke-width:1.0;"/><text fill="#000000" font-family="Arial" font-size="12" lengthAdjust="spacing" textLength="66" x="4313.5" y="1034.2383">Block(): void</text><ellipse cx="4304.5" cy="1045.1807" fill="#84BE84" rx="3" ry="3" style="stroke:#038048;stroke-width:1.0;"/><text fill="#000000" font-family="Arial" font-size="12" lengthAdjust="spacing" textLength="169" x="4313.5" y="1048.0371">Reassign(newUserId: int): void</text></g><!--class WorkArea--><g id="elem_WorkArea"><rect codeLine="107" fill="#FDFDFD" height="108.793" id="WorkArea" rx="2.5" ry="2.5" style="stroke:#181818;stroke-width:0.5;" width="124" x="3957" y="1186"/><ellipse cx="3983.25" cy="1204.7988" fill="#ADD1B2" rx="11" ry="11" style="stroke:#181818;stroke-width:1.0;"/><path d="M3986.0156,1200.6738 Q3986.1719,1200.4551 3986.3594,1200.3457 Q3986.5469,1200.2363 3986.7656,1200.2363 Q3987.1406,1200.2363 3987.375,1200.502 Q3987.6094,1200.752 3987.6094,1201.3613 L3987.6094,1202.8145 Q3987.6094,1203.4238 3987.375,1203.6895 Q3987.1406,1203.9551 3986.7656,1203.9551 Q3986.4219,1203.9551 3986.2188,1203.752 Q3986.0156,1203.5645 3985.9063,1203.0488 Q3985.8594,1202.6895 3985.6719,1202.502 Q3985.3438,1202.127 3984.7344,1201.9082 Q3984.125,1201.6895 3983.5,1201.6895 Q3982.7344,1201.6895 3982.0938,1202.0176 Q3981.4688,1202.3457 3980.9688,1203.0957 Q3980.4844,1203.8457 3980.4844,1204.877 L3980.4844,1205.9707 Q3980.4844,1207.2051 3981.375,1208.0332 Q3982.2656,1208.8457 3983.8594,1208.8457 Q3984.7969,1208.8457 3985.4531,1208.5957 Q3985.8438,1208.4395 3986.2656,1208.002 Q3986.5313,1207.7363 3986.6719,1207.6582 Q3986.8281,1207.5801 3987.0313,1207.5801 Q3987.3594,1207.5801 3987.6094,1207.8457 Q3987.875,1208.0957 3987.875,1208.4395 Q3987.875,1208.7832 3987.5313,1209.1895 Q3987.0313,1209.7676 3986.2344,1210.0957 Q3985.1563,1210.5488 3983.8594,1210.5488 Q3982.3438,1210.5488 3981.1406,1209.9238 Q3980.1563,1209.4238 3979.4688,1208.3613 Q3978.7813,1207.2832 3978.7813,1206.002 L3978.7813,1204.8457 Q3978.7813,1203.5176 3979.3906,1202.377 Q3980.0156,1201.2207 3981.1094,1200.6113 Q3982.2031,1199.9863 3983.4375,1199.9863 Q3984.1719,1199.9863 3984.8125,1200.1582 Q3985.4688,1200.3145 3986.0156,1200.6738 Z " fill="#000000"/><text fill="#000000" font-family="Arial" font-size="12" font-style="italic" lengthAdjust="spacing" textLength="71" x="3997.75" y="1202.2559">&#171;Aggregate&#187;</text><text fill="#000000" font-family="Arial" font-size="12" lengthAdjust="spacing" textLength="53" x="4006.75" y="1216.0547">WorkArea</text><line style="stroke:#181818;stroke-width:0.5;" x1="3958" x2="4080" y1="1223.5977" y2="1223.5977"/><ellipse cx="3968" cy="1235.9971" fill="none" rx="3" ry="3" style="stroke:#038048;stroke-width:1.0;"/><text fill="#000000" font-family="Arial" font-size="12" lengthAdjust="spacing" textLength="29" x="3977" y="1238.8535">Id: int</text><ellipse cx="3968" cy="1249.7959" fill="none" rx="3" ry="3" style="stroke:#038048;stroke-width:1.0;"/><text fill="#000000" font-family="Arial" font-size="12" lengthAdjust="spacing" textLength="98" x="3977" y="1252.6523">OrganizationId: int</text><ellipse cx="3968" cy="1263.5947" fill="none" rx="3" ry="3" style="stroke:#038048;stroke-width:1.0;"/><text fill="#000000" font-family="Arial" font-size="12" lengthAdjust="spacing" textLength="71" x="3977" y="1266.4512">Name: string</text><line style="stroke:#181818;stroke-width:0.5;" x1="3958" x2="4080" y1="1272.9941" y2="1272.9941"/><ellipse cx="3968" cy="1285.3936" fill="#84BE84" rx="3" ry="3" style="stroke:#038048;stroke-width:1.0;"/><text fill="#000000" font-family="Arial" font-size="12" lengthAdjust="spacing" textLength="61" x="3977" y="1288.25">WorkArea()</text></g><!--class Specialty--><g id="elem_Specialty"><rect codeLine="114" fill="#FDFDFD" height="108.793" id="Specialty" rx="2.5" ry="2.5" style="stroke:#181818;stroke-width:0.5;" width="124" x="3401" y="322"/><ellipse cx="3427.25" cy="340.7988" fill="#ADD1B2" rx="11" ry="11" style="stroke:#181818;stroke-width:1.0;"/><path d="M3430.0156,336.6738 Q3430.1719,336.4551 3430.3594,336.3457 Q3430.5469,336.2363 3430.7656,336.2363 Q3431.1406,336.2363 3431.375,336.502 Q3431.6094,336.752 3431.6094,337.3613 L3431.6094,338.8145 Q3431.6094,339.4238 3431.375,339.6895 Q3431.1406,339.9551 3430.7656,339.9551 Q3430.4219,339.9551 3430.2188,339.752 Q3430.0156,339.5645 3429.9063,339.0488 Q3429.8594,338.6895 3429.6719,338.502 Q3429.3438,338.127 3428.7344,337.9082 Q3428.125,337.6895 3427.5,337.6895 Q3426.7344,337.6895 3426.0938,338.0176 Q3425.4688,338.3457 3424.9688,339.0957 Q3424.4844,339.8457 3424.4844,340.877 L3424.4844,341.9707 Q3424.4844,343.2051 3425.375,344.0332 Q3426.2656,344.8457 3427.8594,344.8457 Q3428.7969,344.8457 3429.4531,344.5957 Q3429.8438,344.4395 3430.2656,344.002 Q3430.5313,343.7363 3430.6719,343.6582 Q3430.8281,343.5801 3431.0313,343.5801 Q3431.3594,343.5801 3431.6094,343.8457 Q3431.875,344.0957 3431.875,344.4395 Q3431.875,344.7832 3431.5313,345.1895 Q3431.0313,345.7676 3430.2344,346.0957 Q3429.1563,346.5488 3427.8594,346.5488 Q3426.3438,346.5488 3425.1406,345.9238 Q3424.1563,345.4238 3423.4688,344.3613 Q3422.7813,343.2832 3422.7813,342.002 L3422.7813,340.8457 Q3422.7813,339.5176 3423.3906,338.377 Q3424.0156,337.2207 3425.1094,336.6113 Q3426.2031,335.9863 3427.4375,335.9863 Q3428.1719,335.9863 3428.8125,336.1582 Q3429.4688,336.3145 3430.0156,336.6738 Z " fill="#000000"/><text fill="#000000" font-family="Arial" font-size="12" font-style="italic" lengthAdjust="spacing" textLength="71" x="3441.75" y="338.2559">&#171;Aggregate&#187;</text><text fill="#000000" font-family="Arial" font-size="12" lengthAdjust="spacing" textLength="49" x="3452.75" y="352.0547">Specialty</text><line style="stroke:#181818;stroke-width:0.5;" x1="3402" x2="3524" y1="359.5977" y2="359.5977"/><ellipse cx="3412" cy="371.9971" fill="none" rx="3" ry="3" style="stroke:#038048;stroke-width:1.0;"/><text fill="#000000" font-family="Arial" font-size="12" lengthAdjust="spacing" textLength="29" x="3421" y="374.8535">Id: int</text><ellipse cx="3412" cy="385.7959" fill="none" rx="3" ry="3" style="stroke:#038048;stroke-width:1.0;"/><text fill="#000000" font-family="Arial" font-size="12" lengthAdjust="spacing" textLength="98" x="3421" y="388.6523">OrganizationId: int</text><ellipse cx="3412" cy="399.5947" fill="none" rx="3" ry="3" style="stroke:#038048;stroke-width:1.0;"/><text fill="#000000" font-family="Arial" font-size="12" lengthAdjust="spacing" textLength="71" x="3421" y="402.4512">Name: string</text><line style="stroke:#181818;stroke-width:0.5;" x1="3402" x2="3524" y1="408.9941" y2="408.9941"/><ellipse cx="3412" cy="421.3936" fill="#84BE84" rx="3" ry="3" style="stroke:#038048;stroke-width:1.0;"/><text fill="#000000" font-family="Arial" font-size="12" lengthAdjust="spacing" textLength="57" x="3421" y="424.25">Specialty()</text></g><!--class ICareTeamCommandService--><g id="elem_ICareTeamCommandService"><rect codeLine="121" fill="#FDFDFD" height="89.3965" id="ICareTeamCommandService" rx="2.5" ry="2.5" style="stroke:#181818;stroke-width:0.5;" width="531" x="3102.5" y="568"/><ellipse cx="3282.25" cy="584" fill="#B4A7E5" rx="11" ry="11" style="stroke:#181818;stroke-width:1.0;"/><path d="M3283.2031,580.6406 L3283.2031,587.2969 L3284.9219,587.2969 Q3285.5313,587.2969 3285.7969,587.5313 Q3286.0625,587.7656 3286.0625,588.1563 Q3286.0625,588.5313 3285.7969,588.7656 Q3285.5313,589 3284.9219,589 L3279.7813,589 Q3279.1719,589 3278.9063,588.7656 Q3278.6406,588.5313 3278.6406,588.1406 Q3278.6406,587.7656 3278.9063,587.5313 Q3279.1719,587.2969 3279.7813,587.2969 L3281.5,587.2969 L3281.5,580.6406 L3279.7813,580.6406 Q3279.1719,580.6406 3278.9063,580.4063 Q3278.6406,580.1719 3278.6406,579.7813 Q3278.6406,579.4063 3278.9063,579.1719 Q3279.1719,578.9375 3279.7813,578.9375 L3284.9219,578.9375 Q3285.5313,578.9375 3285.7969,579.1719 Q3286.0625,579.4063 3286.0625,579.7813 Q3286.0625,580.1719 3285.7969,580.4063 Q3285.5313,580.6406 3284.9219,580.6406 L3283.2031,580.6406 Z " fill="#000000"/><text fill="#000000" font-family="Arial" font-size="12" font-style="italic" lengthAdjust="spacing" textLength="163" x="3302.75" y="588.3564">ICareTeamCommandService</text><line style="stroke:#181818;stroke-width:0.5;" x1="3103.5" x2="3632.5" y1="600" y2="600"/><line style="stroke:#181818;stroke-width:0.5;" x1="3103.5" x2="3632.5" y1="608" y2="608"/><ellipse cx="3113.5" cy="620.3994" fill="#84BE84" rx="3" ry="3" style="stroke:#038048;stroke-width:1.0;"/><text fill="#000000" font-family="Arial" font-size="12" lengthAdjust="spacing" textLength="495" x="3122.5" y="623.2559">Handle(command: CreateCareTeamCommand, ct: CancellationToken): Task&lt;CareTeam&gt;</text><ellipse cx="3113.5" cy="634.1982" fill="#84BE84" rx="3" ry="3" style="stroke:#038048;stroke-width:1.0;"/><text fill="#000000" font-family="Arial" font-size="12" lengthAdjust="spacing" textLength="505" x="3122.5" y="637.0547">Handle(command: UpdateCareTeamCommand, ct: CancellationToken): Task&lt;CareTeam?&gt;</text><ellipse cx="3113.5" cy="647.9971" fill="#84BE84" rx="3" ry="3" style="stroke:#038048;stroke-width:1.0;"/><text fill="#000000" font-family="Arial" font-size="12" lengthAdjust="spacing" textLength="459" x="3122.5" y="650.8535">Handle(command: DeleteCareTeamCommand, ct: CancellationToken): Task&lt;bool&gt;</text></g><!--class ICareTeamQueryService--><g id="elem_ICareTeamQueryService"><rect codeLine="126" fill="#FDFDFD" height="61.7988" id="ICareTeamQueryService" rx="2.5" ry="2.5" style="stroke:#181818;stroke-width:0.5;" width="555" x="3713.5" y="581.5"/><ellipse cx="3918.25" cy="597.5" fill="#B4A7E5" rx="11" ry="11" style="stroke:#181818;stroke-width:1.0;"/><path d="M3919.2031,594.1406 L3919.2031,600.7969 L3920.9219,600.7969 Q3921.5313,600.7969 3921.7969,601.0313 Q3922.0625,601.2656 3922.0625,601.6563 Q3922.0625,602.0313 3921.7969,602.2656 Q3921.5313,602.5 3920.9219,602.5 L3915.7813,602.5 Q3915.1719,602.5 3914.9063,602.2656 Q3914.6406,602.0313 3914.6406,601.6406 Q3914.6406,601.2656 3914.9063,601.0313 Q3915.1719,600.7969 3915.7813,600.7969 L3917.5,600.7969 L3917.5,594.1406 L3915.7813,594.1406 Q3915.1719,594.1406 3914.9063,593.9063 Q3914.6406,593.6719 3914.6406,593.2813 Q3914.6406,592.9063 3914.9063,592.6719 Q3915.1719,592.4375 3915.7813,592.4375 L3920.9219,592.4375 Q3921.5313,592.4375 3921.7969,592.6719 Q3922.0625,592.9063 3922.0625,593.2813 Q3922.0625,593.6719 3921.7969,593.9063 Q3921.5313,594.1406 3920.9219,594.1406 L3919.2031,594.1406 Z " fill="#000000"/><text fill="#000000" font-family="Arial" font-size="12" font-style="italic" lengthAdjust="spacing" textLength="137" x="3938.75" y="601.8564">ICareTeamQueryService</text><line style="stroke:#181818;stroke-width:0.5;" x1="3714.5" x2="4267.5" y1="613.5" y2="613.5"/><line style="stroke:#181818;stroke-width:0.5;" x1="3714.5" x2="4267.5" y1="621.5" y2="621.5"/><ellipse cx="3724.5" cy="633.8994" fill="#84BE84" rx="3" ry="3" style="stroke:#038048;stroke-width:1.0;"/><text fill="#000000" font-family="Arial" font-size="12" lengthAdjust="spacing" textLength="529" x="3733.5" y="636.7559">Handle(query: GetAllCareTeamsQuery, ct: CancellationToken): Task&lt;IEnumerable&lt;CareTeam&gt;&gt;</text></g><!--class IShiftRecordCommandService--><g id="elem_IShiftRecordCommandService"><rect codeLine="129" fill="#FDFDFD" height="75.5977" id="IShiftRecordCommandService" rx="2.5" ry="2.5" style="stroke:#181818;stroke-width:0.5;" width="541" x="4348.5" y="574.5"/><ellipse cx="4530.75" cy="590.5" fill="#B4A7E5" rx="11" ry="11" style="stroke:#181818;stroke-width:1.0;"/><path d="M4531.7031,587.1406 L4531.7031,593.7969 L4533.4219,593.7969 Q4534.0313,593.7969 4534.2969,594.0313 Q4534.5625,594.2656 4534.5625,594.6563 Q4534.5625,595.0313 4534.2969,595.2656 Q4534.0313,595.5 4533.4219,595.5 L4528.2813,595.5 Q4527.6719,595.5 4527.4063,595.2656 Q4527.1406,595.0313 4527.1406,594.6406 Q4527.1406,594.2656 4527.4063,594.0313 Q4527.6719,593.7969 4528.2813,593.7969 L4530,593.7969 L4530,587.1406 L4528.2813,587.1406 Q4527.6719,587.1406 4527.4063,586.9063 Q4527.1406,586.6719 4527.1406,586.2813 Q4527.1406,585.9063 4527.4063,585.6719 Q4527.6719,585.4375 4528.2813,585.4375 L4533.4219,585.4375 Q4534.0313,585.4375 4534.2969,585.6719 Q4534.5625,585.9063 4534.5625,586.2813 Q4534.5625,586.6719 4534.2969,586.9063 Q4534.0313,587.1406 4533.4219,587.1406 L4531.7031,587.1406 Z " fill="#000000"/><text fill="#000000" font-family="Arial" font-size="12" font-style="italic" lengthAdjust="spacing" textLength="168" x="4551.25" y="594.8564">IShiftRecordCommandService</text><line style="stroke:#181818;stroke-width:0.5;" x1="4349.5" x2="4888.5" y1="606.5" y2="606.5"/><line style="stroke:#181818;stroke-width:0.5;" x1="4349.5" x2="4888.5" y1="614.5" y2="614.5"/><ellipse cx="4359.5" cy="626.8994" fill="#84BE84" rx="3" ry="3" style="stroke:#038048;stroke-width:1.0;"/><text fill="#000000" font-family="Arial" font-size="12" lengthAdjust="spacing" textLength="505" x="4368.5" y="629.7559">Handle(command: CreateShiftRecordCommand, ct: CancellationToken): Task&lt;ShiftRecord&gt;</text><ellipse cx="4359.5" cy="640.6982" fill="#84BE84" rx="3" ry="3" style="stroke:#038048;stroke-width:1.0;"/><text fill="#000000" font-family="Arial" font-size="12" lengthAdjust="spacing" textLength="515" x="4368.5" y="643.5547">Handle(command: UpdateShiftRecordCommand, ct: CancellationToken): Task&lt;ShiftRecord?&gt;</text></g><!--class IShiftRecordQueryService--><g id="elem_IShiftRecordQueryService"><rect codeLine="133" fill="#FDFDFD" height="61.7988" id="IShiftRecordQueryService" rx="2.5" ry="2.5" style="stroke:#181818;stroke-width:0.5;" width="565" x="4969.5" y="581.5"/><ellipse cx="5176.75" cy="597.5" fill="#B4A7E5" rx="11" ry="11" style="stroke:#181818;stroke-width:1.0;"/><path d="M5177.7031,594.1406 L5177.7031,600.7969 L5179.4219,600.7969 Q5180.0313,600.7969 5180.2969,601.0313 Q5180.5625,601.2656 5180.5625,601.6563 Q5180.5625,602.0313 5180.2969,602.2656 Q5180.0313,602.5 5179.4219,602.5 L5174.2813,602.5 Q5173.6719,602.5 5173.4063,602.2656 Q5173.1406,602.0313 5173.1406,601.6406 Q5173.1406,601.2656 5173.4063,601.0313 Q5173.6719,600.7969 5174.2813,600.7969 L5176,600.7969 L5176,594.1406 L5174.2813,594.1406 Q5173.6719,594.1406 5173.4063,593.9063 Q5173.1406,593.6719 5173.1406,593.2813 Q5173.1406,592.9063 5173.4063,592.6719 Q5173.6719,592.4375 5174.2813,592.4375 L5179.4219,592.4375 Q5180.0313,592.4375 5180.2969,592.6719 Q5180.5625,592.9063 5180.5625,593.2813 Q5180.5625,593.6719 5180.2969,593.9063 Q5180.0313,594.1406 5179.4219,594.1406 L5177.7031,594.1406 Z " fill="#000000"/><text fill="#000000" font-family="Arial" font-size="12" font-style="italic" lengthAdjust="spacing" textLength="142" x="5197.25" y="601.8564">IShiftRecordQueryService</text><line style="stroke:#181818;stroke-width:0.5;" x1="4970.5" x2="5533.5" y1="613.5" y2="613.5"/><line style="stroke:#181818;stroke-width:0.5;" x1="4970.5" x2="5533.5" y1="621.5" y2="621.5"/><ellipse cx="4980.5" cy="633.8994" fill="#84BE84" rx="3" ry="3" style="stroke:#038048;stroke-width:1.0;"/><text fill="#000000" font-family="Arial" font-size="12" lengthAdjust="spacing" textLength="539" x="4989.5" y="636.7559">Handle(query: GetAllShiftRecordsQuery, ct: CancellationToken): Task&lt;IEnumerable&lt;ShiftRecord&gt;&gt;</text></g><!--class ITeamMemberCommandService--><g id="elem_ITeamMemberCommandService"><rect codeLine="136" fill="#FDFDFD" height="75.5977" id="ITeamMemberCommandService" rx="2.5" ry="2.5" style="stroke:#181818;stroke-width:0.5;" width="557" x="3622.5" y="338.5"/><ellipse cx="3805.75" cy="354.5" fill="#B4A7E5" rx="11" ry="11" style="stroke:#181818;stroke-width:1.0;"/><path d="M3806.7031,351.1406 L3806.7031,357.7969 L3808.4219,357.7969 Q3809.0313,357.7969 3809.2969,358.0313 Q3809.5625,358.2656 3809.5625,358.6563 Q3809.5625,359.0313 3809.2969,359.2656 Q3809.0313,359.5 3808.4219,359.5 L3803.2813,359.5 Q3802.6719,359.5 3802.4063,359.2656 Q3802.1406,359.0313 3802.1406,358.6406 Q3802.1406,358.2656 3802.4063,358.0313 Q3802.6719,357.7969 3803.2813,357.7969 L3805,357.7969 L3805,351.1406 L3803.2813,351.1406 Q3802.6719,351.1406 3802.4063,350.9063 Q3802.1406,350.6719 3802.1406,350.2813 Q3802.1406,349.9063 3802.4063,349.6719 Q3802.6719,349.4375 3803.2813,349.4375 L3808.4219,349.4375 Q3809.0313,349.4375 3809.2969,349.6719 Q3809.5625,349.9063 3809.5625,350.2813 Q3809.5625,350.6719 3809.2969,350.9063 Q3809.0313,351.1406 3808.4219,351.1406 L3806.7031,351.1406 Z " fill="#000000"/><text fill="#000000" font-family="Arial" font-size="12" font-style="italic" lengthAdjust="spacing" textLength="182" x="3826.25" y="358.8564">ITeamMemberCommandService</text><line style="stroke:#181818;stroke-width:0.5;" x1="3623.5" x2="4178.5" y1="370.5" y2="370.5"/><line style="stroke:#181818;stroke-width:0.5;" x1="3623.5" x2="4178.5" y1="378.5" y2="378.5"/><ellipse cx="3633.5" cy="390.8994" fill="#84BE84" rx="3" ry="3" style="stroke:#038048;stroke-width:1.0;"/><text fill="#000000" font-family="Arial" font-size="12" lengthAdjust="spacing" textLength="531" x="3642.5" y="393.7559">Handle(command: CreateTeamMemberCommand, ct: CancellationToken): Task&lt;TeamMember&gt;</text><ellipse cx="3633.5" cy="404.6982" fill="#84BE84" rx="3" ry="3" style="stroke:#038048;stroke-width:1.0;"/><text fill="#000000" font-family="Arial" font-size="12" lengthAdjust="spacing" textLength="477" x="3642.5" y="407.5547">Handle(command: DeleteTeamMemberCommand, ct: CancellationToken): Task&lt;bool&gt;</text></g><!--class ITeamMemberQueryService--><g id="elem_ITeamMemberQueryService"><rect codeLine="140" fill="#FDFDFD" height="61.7988" id="ITeamMemberQueryService" rx="2.5" ry="2.5" style="stroke:#181818;stroke-width:0.5;" width="591" x="2694.5" y="345.5"/><ellipse cx="2907.75" cy="361.5" fill="#B4A7E5" rx="11" ry="11" style="stroke:#181818;stroke-width:1.0;"/><path d="M2908.7031,358.1406 L2908.7031,364.7969 L2910.4219,364.7969 Q2911.0313,364.7969 2911.2969,365.0313 Q2911.5625,365.2656 2911.5625,365.6563 Q2911.5625,366.0313 2911.2969,366.2656 Q2911.0313,366.5 2910.4219,366.5 L2905.2813,366.5 Q2904.6719,366.5 2904.4063,366.2656 Q2904.1406,366.0313 2904.1406,365.6406 Q2904.1406,365.2656 2904.4063,365.0313 Q2904.6719,364.7969 2905.2813,364.7969 L2907,364.7969 L2907,358.1406 L2905.2813,358.1406 Q2904.6719,358.1406 2904.4063,357.9063 Q2904.1406,357.6719 2904.1406,357.2813 Q2904.1406,356.9063 2904.4063,356.6719 Q2904.6719,356.4375 2905.2813,356.4375 L2910.4219,356.4375 Q2911.0313,356.4375 2911.2969,356.6719 Q2911.5625,356.9063 2911.5625,357.2813 Q2911.5625,357.6719 2911.2969,357.9063 Q2911.0313,358.1406 2910.4219,358.1406 L2908.7031,358.1406 Z " fill="#000000"/><text fill="#000000" font-family="Arial" font-size="12" font-style="italic" lengthAdjust="spacing" textLength="156" x="2928.25" y="365.8564">ITeamMemberQueryService</text><line style="stroke:#181818;stroke-width:0.5;" x1="2695.5" x2="3284.5" y1="377.5" y2="377.5"/><line style="stroke:#181818;stroke-width:0.5;" x1="2695.5" x2="3284.5" y1="385.5" y2="385.5"/><ellipse cx="2705.5" cy="397.8994" fill="#84BE84" rx="3" ry="3" style="stroke:#038048;stroke-width:1.0;"/><text fill="#000000" font-family="Arial" font-size="12" lengthAdjust="spacing" textLength="565" x="2714.5" y="400.7559">Handle(query: GetAllTeamMembersQuery, ct: CancellationToken): Task&lt;IEnumerable&lt;TeamMember&gt;&gt;</text></g><!--class CareTeamsController--><g id="elem_CareTeamsController"><rect codeLine="146" fill="#FDFDFD" height="116.9941" id="CareTeamsController" rx="2.5" ry="2.5" style="stroke:#181818;stroke-width:0.5;" width="545" x="4349.5" y="85"/><ellipse cx="4557.75" cy="101" fill="#ADD1B2" rx="11" ry="11" style="stroke:#181818;stroke-width:1.0;"/><path d="M4560.5156,96.875 Q4560.6719,96.6563 4560.8594,96.5469 Q4561.0469,96.4375 4561.2656,96.4375 Q4561.6406,96.4375 4561.875,96.7031 Q4562.1094,96.9531 4562.1094,97.5625 L4562.1094,99.0156 Q4562.1094,99.625 4561.875,99.8906 Q4561.6406,100.1563 4561.2656,100.1563 Q4560.9219,100.1563 4560.7188,99.9531 Q4560.5156,99.7656 4560.4063,99.25 Q4560.3594,98.8906 4560.1719,98.7031 Q4559.8438,98.3281 4559.2344,98.1094 Q4558.625,97.8906 4558,97.8906 Q4557.2344,97.8906 4556.5938,98.2188 Q4555.9688,98.5469 4555.4688,99.2969 Q4554.9844,100.0469 4554.9844,101.0781 L4554.9844,102.1719 Q4554.9844,103.4063 4555.875,104.2344 Q4556.7656,105.0469 4558.3594,105.0469 Q4559.2969,105.0469 4559.9531,104.7969 Q4560.3438,104.6406 4560.7656,104.2031 Q4561.0313,103.9375 4561.1719,103.8594 Q4561.3281,103.7813 4561.5313,103.7813 Q4561.8594,103.7813 4562.1094,104.0469 Q4562.375,104.2969 4562.375,104.6406 Q4562.375,104.9844 4562.0313,105.3906 Q4561.5313,105.9688 4560.7344,106.2969 Q4559.6563,106.75 4558.3594,106.75 Q4556.8438,106.75 4555.6406,106.125 Q4554.6563,105.625 4553.9688,104.5625 Q4553.2813,103.4844 4553.2813,102.2031 L4553.2813,101.0469 Q4553.2813,99.7188 4553.8906,98.5781 Q4554.5156,97.4219 4555.6094,96.8125 Q4556.7031,96.1875 4557.9375,96.1875 Q4558.6719,96.1875 4559.3125,96.3594 Q4559.9688,96.5156 4560.5156,96.875 Z " fill="#000000"/><text fill="#000000" font-family="Arial" font-size="12" lengthAdjust="spacing" textLength="120" x="4578.25" y="105.3564">CareTeamsController</text><line style="stroke:#181818;stroke-width:0.5;" x1="4350.5" x2="4893.5" y1="117" y2="117"/><line style="stroke:#181818;stroke-width:0.5;" x1="4350.5" x2="4893.5" y1="125" y2="125"/><ellipse cx="4360.5" cy="137.3994" fill="#84BE84" rx="3" ry="3" style="stroke:#038048;stroke-width:1.0;"/><text fill="#000000" font-family="Arial" font-size="12" lengthAdjust="spacing" textLength="519" x="4369.5" y="140.2559">CareTeamsController(cmdSvc: ICareTeamCommandService, qrySvc: ICareTeamQueryService)</text><ellipse cx="4360.5" cy="151.1982" fill="#84BE84" rx="3" ry="3" style="stroke:#038048;stroke-width:1.0;"/><text fill="#000000" font-family="Arial" font-size="12" lengthAdjust="spacing" textLength="228" x="4369.5" y="154.0547">Create(resource, ct): Task&lt;IActionResult&gt;</text><ellipse cx="4360.5" cy="164.9971" fill="#84BE84" rx="3" ry="3" style="stroke:#038048;stroke-width:1.0;"/><text fill="#000000" font-family="Arial" font-size="12" lengthAdjust="spacing" textLength="168" x="4369.5" y="167.8535">GetAll(ct): Task&lt;IActionResult&gt;</text><ellipse cx="4360.5" cy="178.7959" fill="#84BE84" rx="3" ry="3" style="stroke:#038048;stroke-width:1.0;"/><text fill="#000000" font-family="Arial" font-size="12" lengthAdjust="spacing" textLength="266" x="4369.5" y="181.6523">Update(id: int, resource, ct): Task&lt;IActionResult&gt;</text><ellipse cx="4360.5" cy="192.5947" fill="#84BE84" rx="3" ry="3" style="stroke:#038048;stroke-width:1.0;"/><text fill="#000000" font-family="Arial" font-size="12" lengthAdjust="spacing" textLength="207" x="4369.5" y="195.4512">Delete(id: int, ct): Task&lt;IActionResult&gt;</text></g><!--class ShiftRecordsController--><g id="elem_ShiftRecordsController"><rect codeLine="153" fill="#FDFDFD" height="103.1953" id="ShiftRecordsController" rx="2.5" ry="2.5" style="stroke:#181818;stroke-width:0.5;" width="560" x="4975" y="92"/><ellipse cx="5188.25" cy="108" fill="#ADD1B2" rx="11" ry="11" style="stroke:#181818;stroke-width:1.0;"/><path d="M5191.0156,103.875 Q5191.1719,103.6563 5191.3594,103.5469 Q5191.5469,103.4375 5191.7656,103.4375 Q5192.1406,103.4375 5192.375,103.7031 Q5192.6094,103.9531 5192.6094,104.5625 L5192.6094,106.0156 Q5192.6094,106.625 5192.375,106.8906 Q5192.1406,107.1563 5191.7656,107.1563 Q5191.4219,107.1563 5191.2188,106.9531 Q5191.0156,106.7656 5190.9063,106.25 Q5190.8594,105.8906 5190.6719,105.7031 Q5190.3438,105.3281 5189.7344,105.1094 Q5189.125,104.8906 5188.5,104.8906 Q5187.7344,104.8906 5187.0938,105.2188 Q5186.4688,105.5469 5185.9688,106.2969 Q5185.4844,107.0469 5185.4844,108.0781 L5185.4844,109.1719 Q5185.4844,110.4063 5186.375,111.2344 Q5187.2656,112.0469 5188.8594,112.0469 Q5189.7969,112.0469 5190.4531,111.7969 Q5190.8438,111.6406 5191.2656,111.2031 Q5191.5313,110.9375 5191.6719,110.8594 Q5191.8281,110.7813 5192.0313,110.7813 Q5192.3594,110.7813 5192.6094,111.0469 Q5192.875,111.2969 5192.875,111.6406 Q5192.875,111.9844 5192.5313,112.3906 Q5192.0313,112.9688 5191.2344,113.2969 Q5190.1563,113.75 5188.8594,113.75 Q5187.3438,113.75 5186.1406,113.125 Q5185.1563,112.625 5184.4688,111.5625 Q5183.7813,110.4844 5183.7813,109.2031 L5183.7813,108.0469 Q5183.7813,106.7188 5184.3906,105.5781 Q5185.0156,104.4219 5186.1094,103.8125 Q5187.2031,103.1875 5188.4375,103.1875 Q5189.1719,103.1875 5189.8125,103.3594 Q5190.4688,103.5156 5191.0156,103.875 Z " fill="#000000"/><text fill="#000000" font-family="Arial" font-size="12" lengthAdjust="spacing" textLength="125" x="5208.75" y="112.3564">ShiftRecordsController</text><line style="stroke:#181818;stroke-width:0.5;" x1="4976" x2="5534" y1="124" y2="124"/><line style="stroke:#181818;stroke-width:0.5;" x1="4976" x2="5534" y1="132" y2="132"/><ellipse cx="4986" cy="144.3994" fill="#84BE84" rx="3" ry="3" style="stroke:#038048;stroke-width:1.0;"/><text fill="#000000" font-family="Arial" font-size="12" lengthAdjust="spacing" textLength="534" x="4995" y="147.2559">ShiftRecordsController(cmdSvc: IShiftRecordCommandService, qrySvc: IShiftRecordQueryService)</text><ellipse cx="4986" cy="158.1982" fill="#84BE84" rx="3" ry="3" style="stroke:#038048;stroke-width:1.0;"/><text fill="#000000" font-family="Arial" font-size="12" lengthAdjust="spacing" textLength="228" x="4995" y="161.0547">Create(resource, ct): Task&lt;IActionResult&gt;</text><ellipse cx="4986" cy="171.9971" fill="#84BE84" rx="3" ry="3" style="stroke:#038048;stroke-width:1.0;"/><text fill="#000000" font-family="Arial" font-size="12" lengthAdjust="spacing" textLength="168" x="4995" y="174.8535">GetAll(ct): Task&lt;IActionResult&gt;</text><ellipse cx="4986" cy="185.7959" fill="#84BE84" rx="3" ry="3" style="stroke:#038048;stroke-width:1.0;"/><text fill="#000000" font-family="Arial" font-size="12" lengthAdjust="spacing" textLength="266" x="4995" y="188.6523">Update(id: int, resource, ct): Task&lt;IActionResult&gt;</text></g><!--class TeamMembersController--><g id="elem_TeamMembersController"><rect codeLine="159" fill="#FDFDFD" height="103.1953" id="TeamMembersController" rx="2.5" ry="2.5" style="stroke:#181818;stroke-width:0.5;" width="599" x="3670.5" y="92"/><ellipse cx="3896.75" cy="108" fill="#ADD1B2" rx="11" ry="11" style="stroke:#181818;stroke-width:1.0;"/><path d="M3899.5156,103.875 Q3899.6719,103.6563 3899.8594,103.5469 Q3900.0469,103.4375 3900.2656,103.4375 Q3900.6406,103.4375 3900.875,103.7031 Q3901.1094,103.9531 3901.1094,104.5625 L3901.1094,106.0156 Q3901.1094,106.625 3900.875,106.8906 Q3900.6406,107.1563 3900.2656,107.1563 Q3899.9219,107.1563 3899.7188,106.9531 Q3899.5156,106.7656 3899.4063,106.25 Q3899.3594,105.8906 3899.1719,105.7031 Q3898.8438,105.3281 3898.2344,105.1094 Q3897.625,104.8906 3897,104.8906 Q3896.2344,104.8906 3895.5938,105.2188 Q3894.9688,105.5469 3894.4688,106.2969 Q3893.9844,107.0469 3893.9844,108.0781 L3893.9844,109.1719 Q3893.9844,110.4063 3894.875,111.2344 Q3895.7656,112.0469 3897.3594,112.0469 Q3898.2969,112.0469 3898.9531,111.7969 Q3899.3438,111.6406 3899.7656,111.2031 Q3900.0313,110.9375 3900.1719,110.8594 Q3900.3281,110.7813 3900.5313,110.7813 Q3900.8594,110.7813 3901.1094,111.0469 Q3901.375,111.2969 3901.375,111.6406 Q3901.375,111.9844 3901.0313,112.3906 Q3900.5313,112.9688 3899.7344,113.2969 Q3898.6563,113.75 3897.3594,113.75 Q3895.8438,113.75 3894.6406,113.125 Q3893.6563,112.625 3892.9688,111.5625 Q3892.2813,110.4844 3892.2813,109.2031 L3892.2813,108.0469 Q3892.2813,106.7188 3892.8906,105.5781 Q3893.5156,104.4219 3894.6094,103.8125 Q3895.7031,103.1875 3896.9375,103.1875 Q3897.6719,103.1875 3898.3125,103.3594 Q3898.9688,103.5156 3899.5156,103.875 Z " fill="#000000"/><text fill="#000000" font-family="Arial" font-size="12" lengthAdjust="spacing" textLength="138" x="3917.25" y="112.3564">TeamMembersController</text><line style="stroke:#181818;stroke-width:0.5;" x1="3671.5" x2="4268.5" y1="124" y2="124"/><line style="stroke:#181818;stroke-width:0.5;" x1="3671.5" x2="4268.5" y1="132" y2="132"/><ellipse cx="3681.5" cy="144.3994" fill="#84BE84" rx="3" ry="3" style="stroke:#038048;stroke-width:1.0;"/><text fill="#000000" font-family="Arial" font-size="12" lengthAdjust="spacing" textLength="573" x="3690.5" y="147.2559">TeamMembersController(cmdSvc: ITeamMemberCommandService, qrySvc: ITeamMemberQueryService)</text><ellipse cx="3681.5" cy="158.1982" fill="#84BE84" rx="3" ry="3" style="stroke:#038048;stroke-width:1.0;"/><text fill="#000000" font-family="Arial" font-size="12" lengthAdjust="spacing" textLength="228" x="3690.5" y="161.0547">Create(resource, ct): Task&lt;IActionResult&gt;</text><ellipse cx="3681.5" cy="171.9971" fill="#84BE84" rx="3" ry="3" style="stroke:#038048;stroke-width:1.0;"/><text fill="#000000" font-family="Arial" font-size="12" lengthAdjust="spacing" textLength="168" x="3690.5" y="174.8535">GetAll(ct): Task&lt;IActionResult&gt;</text><ellipse cx="3681.5" cy="185.7959" fill="#84BE84" rx="3" ry="3" style="stroke:#038048;stroke-width:1.0;"/><text fill="#000000" font-family="Arial" font-size="12" lengthAdjust="spacing" textLength="207" x="3690.5" y="188.6523">Delete(id: int, ct): Task&lt;IActionResult&gt;</text></g><!--class WorkAreasController--><g id="elem_WorkAreasController"><rect codeLine="165" fill="#FDFDFD" height="89.3965" id="WorkAreasController" rx="2.5" ry="2.5" style="stroke:#181818;stroke-width:0.5;" width="527" x="3063.5" y="99"/><ellipse cx="3265.75" cy="115" fill="#ADD1B2" rx="11" ry="11" style="stroke:#181818;stroke-width:1.0;"/><path d="M3268.5156,110.875 Q3268.6719,110.6563 3268.8594,110.5469 Q3269.0469,110.4375 3269.2656,110.4375 Q3269.6406,110.4375 3269.875,110.7031 Q3270.1094,110.9531 3270.1094,111.5625 L3270.1094,113.0156 Q3270.1094,113.625 3269.875,113.8906 Q3269.6406,114.1563 3269.2656,114.1563 Q3268.9219,114.1563 3268.7188,113.9531 Q3268.5156,113.7656 3268.4063,113.25 Q3268.3594,112.8906 3268.1719,112.7031 Q3267.8438,112.3281 3267.2344,112.1094 Q3266.625,111.8906 3266,111.8906 Q3265.2344,111.8906 3264.5938,112.2188 Q3263.9688,112.5469 3263.4688,113.2969 Q3262.9844,114.0469 3262.9844,115.0781 L3262.9844,116.1719 Q3262.9844,117.4063 3263.875,118.2344 Q3264.7656,119.0469 3266.3594,119.0469 Q3267.2969,119.0469 3267.9531,118.7969 Q3268.3438,118.6406 3268.7656,118.2031 Q3269.0313,117.9375 3269.1719,117.8594 Q3269.3281,117.7813 3269.5313,117.7813 Q3269.8594,117.7813 3270.1094,118.0469 Q3270.375,118.2969 3270.375,118.6406 Q3270.375,118.9844 3270.0313,119.3906 Q3269.5313,119.9688 3268.7344,120.2969 Q3267.6563,120.75 3266.3594,120.75 Q3264.8438,120.75 3263.6406,120.125 Q3262.6563,119.625 3261.9688,118.5625 Q3261.2813,117.4844 3261.2813,116.2031 L3261.2813,115.0469 Q3261.2813,113.7188 3261.8906,112.5781 Q3262.5156,111.4219 3263.6094,110.8125 Q3264.7031,110.1875 3265.9375,110.1875 Q3266.6719,110.1875 3267.3125,110.3594 Q3267.9688,110.5156 3268.5156,110.875 Z " fill="#000000"/><text fill="#000000" font-family="Arial" font-size="12" lengthAdjust="spacing" textLength="114" x="3286.25" y="119.3564">WorkAreasController</text><line style="stroke:#181818;stroke-width:0.5;" x1="3064.5" x2="3589.5" y1="131" y2="131"/><line style="stroke:#181818;stroke-width:0.5;" x1="3064.5" x2="3589.5" y1="139" y2="139"/><ellipse cx="3074.5" cy="151.3994" fill="#84BE84" rx="3" ry="3" style="stroke:#038048;stroke-width:1.0;"/><text fill="#000000" font-family="Arial" font-size="12" lengthAdjust="spacing" textLength="501" x="3083.5" y="154.2559">WorkAreasController(cmdSvc: IWorkAreaCommandService, qrySvc: IWorkAreaQueryService)</text><ellipse cx="3074.5" cy="165.1982" fill="#84BE84" rx="3" ry="3" style="stroke:#038048;stroke-width:1.0;"/><text fill="#000000" font-family="Arial" font-size="12" lengthAdjust="spacing" textLength="228" x="3083.5" y="168.0547">Create(resource, ct): Task&lt;IActionResult&gt;</text><ellipse cx="3074.5" cy="178.9971" fill="#84BE84" rx="3" ry="3" style="stroke:#038048;stroke-width:1.0;"/><text fill="#000000" font-family="Arial" font-size="12" lengthAdjust="spacing" textLength="168" x="3083.5" y="181.8535">GetAll(ct): Task&lt;IActionResult&gt;</text></g><!--class SpecialtiesController--><g id="elem_SpecialtiesController"><rect codeLine="170" fill="#FDFDFD" height="89.3965" id="SpecialtiesController" rx="2.5" ry="2.5" style="stroke:#181818;stroke-width:0.5;" width="520" x="2463" y="99"/><ellipse cx="2661.25" cy="115" fill="#ADD1B2" rx="11" ry="11" style="stroke:#181818;stroke-width:1.0;"/><path d="M2664.0156,110.875 Q2664.1719,110.6563 2664.3594,110.5469 Q2664.5469,110.4375 2664.7656,110.4375 Q2665.1406,110.4375 2665.375,110.7031 Q2665.6094,110.9531 2665.6094,111.5625 L2665.6094,113.0156 Q2665.6094,113.625 2665.375,113.8906 Q2665.1406,114.1563 2664.7656,114.1563 Q2664.4219,114.1563 2664.2188,113.9531 Q2664.0156,113.7656 2663.9063,113.25 Q2663.8594,112.8906 2663.6719,112.7031 Q2663.3438,112.3281 2662.7344,112.1094 Q2662.125,111.8906 2661.5,111.8906 Q2660.7344,111.8906 2660.0938,112.2188 Q2659.4688,112.5469 2658.9688,113.2969 Q2658.4844,114.0469 2658.4844,115.0781 L2658.4844,116.1719 Q2658.4844,117.4063 2659.375,118.2344 Q2660.2656,119.0469 2661.8594,119.0469 Q2662.7969,119.0469 2663.4531,118.7969 Q2663.8438,118.6406 2664.2656,118.2031 Q2664.5313,117.9375 2664.6719,117.8594 Q2664.8281,117.7813 2665.0313,117.7813 Q2665.3594,117.7813 2665.6094,118.0469 Q2665.875,118.2969 2665.875,118.6406 Q2665.875,118.9844 2665.5313,119.3906 Q2665.0313,119.9688 2664.2344,120.2969 Q2663.1563,120.75 2661.8594,120.75 Q2660.3438,120.75 2659.1406,120.125 Q2658.1563,119.625 2657.4688,118.5625 Q2656.7813,117.4844 2656.7813,116.2031 L2656.7813,115.0469 Q2656.7813,113.7188 2657.3906,112.5781 Q2658.0156,111.4219 2659.1094,110.8125 Q2660.2031,110.1875 2661.4375,110.1875 Q2662.1719,110.1875 2662.8125,110.3594 Q2663.4688,110.5156 2664.0156,110.875 Z " fill="#000000"/><text fill="#000000" font-family="Arial" font-size="12" lengthAdjust="spacing" textLength="115" x="2681.75" y="119.3564">SpecialtiesController</text><line style="stroke:#181818;stroke-width:0.5;" x1="2464" x2="2982" y1="131" y2="131"/><line style="stroke:#181818;stroke-width:0.5;" x1="2464" x2="2982" y1="139" y2="139"/><ellipse cx="2474" cy="151.3994" fill="#84BE84" rx="3" ry="3" style="stroke:#038048;stroke-width:1.0;"/><text fill="#000000" font-family="Arial" font-size="12" lengthAdjust="spacing" textLength="494" x="2483" y="154.2559">SpecialtiesController(cmdSvc: ISpecialtyCommandService, qrySvc: ISpecialtyQueryService)</text><ellipse cx="2474" cy="165.1982" fill="#84BE84" rx="3" ry="3" style="stroke:#038048;stroke-width:1.0;"/><text fill="#000000" font-family="Arial" font-size="12" lengthAdjust="spacing" textLength="228" x="2483" y="168.0547">Create(resource, ct): Task&lt;IActionResult&gt;</text><ellipse cx="2474" cy="178.9971" fill="#84BE84" rx="3" ry="3" style="stroke:#038048;stroke-width:1.0;"/><text fill="#000000" font-family="Arial" font-size="12" lengthAdjust="spacing" textLength="168" x="2483" y="181.8535">GetAll(ct): Task&lt;IActionResult&gt;</text></g><!--class Organization--><g id="elem_Organization"><rect fill="#FDFDFD" height="48" id="Organization" rx="2.5" ry="2.5" style="stroke:#181818;stroke-width:0.5;" width="101" x="4371.5" y="1460.5"/><ellipse cx="4386.5" cy="1476.5" fill="#ADD1B2" rx="11" ry="11" style="stroke:#181818;stroke-width:1.0;"/><path d="M4389.2656,1472.375 Q4389.4219,1472.1563 4389.6094,1472.0469 Q4389.7969,1471.9375 4390.0156,1471.9375 Q4390.3906,1471.9375 4390.625,1472.2031 Q4390.8594,1472.4531 4390.8594,1473.0625 L4390.8594,1474.5156 Q4390.8594,1475.125 4390.625,1475.3906 Q4390.3906,1475.6563 4390.0156,1475.6563 Q4389.6719,1475.6563 4389.4688,1475.4531 Q4389.2656,1475.2656 4389.1563,1474.75 Q4389.1094,1474.3906 4388.9219,1474.2031 Q4388.5938,1473.8281 4387.9844,1473.6094 Q4387.375,1473.3906 4386.75,1473.3906 Q4385.9844,1473.3906 4385.3438,1473.7188 Q4384.7188,1474.0469 4384.2188,1474.7969 Q4383.7344,1475.5469 4383.7344,1476.5781 L4383.7344,1477.6719 Q4383.7344,1478.9063 4384.625,1479.7344 Q4385.5156,1480.5469 4387.1094,1480.5469 Q4388.0469,1480.5469 4388.7031,1480.2969 Q4389.0938,1480.1406 4389.5156,1479.7031 Q4389.7813,1479.4375 4389.9219,1479.3594 Q4390.0781,1479.2813 4390.2813,1479.2813 Q4390.6094,1479.2813 4390.8594,1479.5469 Q4391.125,1479.7969 4391.125,1480.1406 Q4391.125,1480.4844 4390.7813,1480.8906 Q4390.2813,1481.4688 4389.4844,1481.7969 Q4388.4063,1482.25 4387.1094,1482.25 Q4385.5938,1482.25 4384.3906,1481.625 Q4383.4063,1481.125 4382.7188,1480.0625 Q4382.0313,1478.9844 4382.0313,1477.7031 L4382.0313,1476.5469 Q4382.0313,1475.2188 4382.6406,1474.0781 Q4383.2656,1472.9219 4384.3594,1472.3125 Q4385.4531,1471.6875 4386.6875,1471.6875 Q4387.4219,1471.6875 4388.0625,1471.8594 Q4388.7188,1472.0156 4389.2656,1472.375 Z " fill="#000000"/><text fill="#000000" font-family="Arial" font-size="12" lengthAdjust="spacing" textLength="69" x="4400.5" y="1480.8564">Organization</text><line style="stroke:#181818;stroke-width:0.5;" x1="4372.5" x2="4471.5" y1="1492.5" y2="1492.5"/><line style="stroke:#181818;stroke-width:0.5;" x1="4372.5" x2="4471.5" y1="1500.5" y2="1500.5"/></g><!--class User--><g id="elem_User"><rect fill="#FDFDFD" height="48" id="User" rx="2.5" ry="2.5" style="stroke:#181818;stroke-width:0.5;" width="59" x="5591.5" y="1216.5"/><ellipse cx="5606.5" cy="1232.5" fill="#ADD1B2" rx="11" ry="11" style="stroke:#181818;stroke-width:1.0;"/><path d="M5609.2656,1228.375 Q5609.4219,1228.1563 5609.6094,1228.0469 Q5609.7969,1227.9375 5610.0156,1227.9375 Q5610.3906,1227.9375 5610.625,1228.2031 Q5610.8594,1228.4531 5610.8594,1229.0625 L5610.8594,1230.5156 Q5610.8594,1231.125 5610.625,1231.3906 Q5610.3906,1231.6563 5610.0156,1231.6563 Q5609.6719,1231.6563 5609.4688,1231.4531 Q5609.2656,1231.2656 5609.1563,1230.75 Q5609.1094,1230.3906 5608.9219,1230.2031 Q5608.5938,1229.8281 5607.9844,1229.6094 Q5607.375,1229.3906 5606.75,1229.3906 Q5605.9844,1229.3906 5605.3438,1229.7188 Q5604.7188,1230.0469 5604.2188,1230.7969 Q5603.7344,1231.5469 5603.7344,1232.5781 L5603.7344,1233.6719 Q5603.7344,1234.9063 5604.625,1235.7344 Q5605.5156,1236.5469 5607.1094,1236.5469 Q5608.0469,1236.5469 5608.7031,1236.2969 Q5609.0938,1236.1406 5609.5156,1235.7031 Q5609.7813,1235.4375 5609.9219,1235.3594 Q5610.0781,1235.2813 5610.2813,1235.2813 Q5610.6094,1235.2813 5610.8594,1235.5469 Q5611.125,1235.7969 5611.125,1236.1406 Q5611.125,1236.4844 5610.7813,1236.8906 Q5610.2813,1237.4688 5609.4844,1237.7969 Q5608.4063,1238.25 5607.1094,1238.25 Q5605.5938,1238.25 5604.3906,1237.625 Q5603.4063,1237.125 5602.7188,1236.0625 Q5602.0313,1234.9844 5602.0313,1233.7031 L5602.0313,1232.5469 Q5602.0313,1231.2188 5602.6406,1230.0781 Q5603.2656,1228.9219 5604.3594,1228.3125 Q5605.4531,1227.6875 5606.6875,1227.6875 Q5607.4219,1227.6875 5608.0625,1227.8594 Q5608.7188,1228.0156 5609.2656,1228.375 Z " fill="#000000"/><text fill="#000000" font-family="Arial" font-size="12" lengthAdjust="spacing" textLength="27" x="5620.5" y="1236.8564">User</text><line style="stroke:#181818;stroke-width:0.5;" x1="5592.5" x2="5649.5" y1="1248.5" y2="1248.5"/><line style="stroke:#181818;stroke-width:0.5;" x1="5592.5" x2="5649.5" y1="1256.5" y2="1256.5"/></g><!--link BaseRepository to AppDbContext--><g id="link_BaseRepository_AppDbContext"><path codeLine="62" d="M2094,1306.21 C2094,1351.09 2094,1403 2094,1440.44 " fill="none" id="BaseRepository-to-AppDbContext" style="stroke:#555555;stroke-width:1.5;stroke-dasharray:7.0,7.0;"/><polygon fill="#555555" points="2094,1446.44,2098,1437.44,2094,1441.44,2090,1437.44,2094,1446.44" style="stroke:#555555;stroke-width:1.5;"/><text fill="#000000" font-family="Arial" font-size="13" lengthAdjust="spacing" textLength="70" x="2023" y="1373.5138">dependency</text></g><!--link UnitOfWork to AppDbContext--><g id="link_UnitOfWork_AppDbContext"><path codeLine="63" d="M1851.5,1278.62 C1851.5,1324.33 1851.5,1394.48 1851.5,1440.24 " fill="none" id="UnitOfWork-to-AppDbContext" style="stroke:#555555;stroke-width:1.5;stroke-dasharray:7.0,7.0;"/><polygon fill="#555555" points="1851.5,1446.24,1855.5,1437.24,1851.5,1441.24,1847.5,1437.24,1851.5,1446.24" style="stroke:#555555;stroke-width:1.5;"/><text fill="#000000" font-family="Arial" font-size="13" lengthAdjust="spacing" textLength="70" x="1780.5" y="1359.6238">dependency</text></g><!--link CareTeamsController to ICareTeamCommandService--><g id="link_CareTeamsController_ICareTeamCommandService"><path codeLine="177" d="M4349.2,198 C4048.41,198 3606.5,198 3606.5,198 C3606.5,198 3606.5,454.57 3606.5,561.75 " fill="none" id="CareTeamsController-to-ICareTeamCommandService" style="stroke:#555555;stroke-width:1.5;stroke-dasharray:7.0,7.0;"/><polygon fill="#555555" points="3606.5,567.75,3610.5,558.75,3606.5,562.75,3602.5,558.75,3606.5,567.75" style="stroke:#555555;stroke-width:1.5;"/><text fill="#000000" font-family="Arial" font-size="13" lengthAdjust="spacing" textLength="70" x="3721.97" y="211.1938">dependency</text></g><!--link CareTeamsController to ICareTeamQueryService--><g id="link_CareTeamsController_ICareTeamQueryService"><path codeLine="178" d="M4349.38,200 C4279.68,200 4224,200 4224,200 C4224,200 4224,479.56 4224,575.5 " fill="none" id="CareTeamsController-to-ICareTeamQueryService" style="stroke:#555555;stroke-width:1.5;stroke-dasharray:7.0,7.0;"/><polygon fill="#555555" points="4224,581.5,4228,572.5,4224,576.5,4220,572.5,4224,581.5" style="stroke:#555555;stroke-width:1.5;"/><text fill="#000000" font-family="Arial" font-size="13" lengthAdjust="spacing" textLength="70" x="4153" y="325.2538">dependency</text></g><!--link ShiftRecordsController to IShiftRecordCommandService--><g id="link_ShiftRecordsController_IShiftRecordCommandService"><path codeLine="179" d="M5161.5,195.05 C5161.5,310.14 5161.5,578 5161.5,578 C5161.5,578 5031.61,578 4895.85,578 " fill="none" id="ShiftRecordsController-to-IShiftRecordCommandService" style="stroke:#555555;stroke-width:1.5;stroke-dasharray:7.0,7.0;"/><polygon fill="#555555" points="4889.85,578,4898.85,582,4894.85,578,4898.85,574,4889.85,578" style="stroke:#555555;stroke-width:1.5;"/><text fill="#000000" font-family="Arial" font-size="13" lengthAdjust="spacing" textLength="70" x="5090.5" y="519.5438">dependency</text></g><!--link ShiftRecordsController to IShiftRecordQueryService--><g id="link_ShiftRecordsController_IShiftRecordQueryService"><path codeLine="180" d="M5348,195.03 C5348,292.71 5348,496.12 5348,575.3 " fill="none" id="ShiftRecordsController-to-IShiftRecordQueryService" style="stroke:#555555;stroke-width:1.5;stroke-dasharray:7.0,7.0;"/><polygon fill="#555555" points="5348,581.3,5352,572.3,5348,576.3,5344,572.3,5348,581.3" style="stroke:#555555;stroke-width:1.5;"/><text fill="#000000" font-family="Arial" font-size="13" lengthAdjust="spacing" textLength="70" x="5277" y="385.3638">dependency</text></g><!--link TeamMembersController to ITeamMemberCommandService--><g id="link_TeamMembersController_ITeamMemberCommandService"><path codeLine="181" d="M3925,195.21 C3925,238.51 3925,293.33 3925,332.33 " fill="none" id="TeamMembersController-to-ITeamMemberCommandService" style="stroke:#555555;stroke-width:1.5;stroke-dasharray:7.0,7.0;"/><polygon fill="#555555" points="3925,338.33,3929,329.33,3925,333.33,3921,329.33,3925,338.33" style="stroke:#555555;stroke-width:1.5;"/><text fill="#000000" font-family="Arial" font-size="13" lengthAdjust="spacing" textLength="70" x="3854" y="263.9638">dependency</text></g><!--link TeamMembersController to ITeamMemberQueryService--><g id="link_TeamMembersController_ITeamMemberQueryService"><path codeLine="182" d="M3670.39,192 C3444.89,192 3174.5,192 3174.5,192 C3174.5,192 3174.5,286.56 3174.5,339.2 " fill="none" id="TeamMembersController-to-ITeamMemberQueryService" style="stroke:#555555;stroke-width:1.5;stroke-dasharray:7.0,7.0;"/><polygon fill="#555555" points="3174.5,345.2,3178.5,336.2,3174.5,340.2,3170.5,336.2,3174.5,345.2" style="stroke:#555555;stroke-width:1.5;"/><text fill="#000000" font-family="Arial" font-size="13" lengthAdjust="spacing" textLength="70" x="3274.84" y="205.1938">dependency</text></g><!--link ICareTeamCommandService to CareTeam--><g id="link_ICareTeamCommandService_CareTeam"><path codeLine="185" d="M3633.56,647 C3803.01,647 3991,647 3991,647 C3991,647 3991,748.05 3991,829.17 " fill="none" id="ICareTeamCommandService-to-CareTeam" style="stroke:#555555;stroke-width:1.5;stroke-dasharray:7.0,7.0;"/><polygon fill="#555555" points="3991,835.17,3995,826.17,3991,830.17,3987,826.17,3991,835.17" style="stroke:#555555;stroke-width:1.5;"/><polygon fill="#000000" points="3872.8248,657.7448,3866.1005,651.0191,3863.4315,656.256,3872.8248,657.7448" style="stroke:#000000;stroke-width:1.0;"/><text fill="#000000" font-family="Arial" font-size="13" lengthAdjust="spacing" textLength="28" x="3877.37" y="660.1938">uses</text></g><!--link ICareTeamQueryService to CareTeam--><g id="link_ICareTeamQueryService_CareTeam"><path codeLine="186" d="M4071.5,643.56 C4071.5,687.87 4071.5,765 4071.5,829.38 " fill="none" id="ICareTeamQueryService-to-CareTeam" style="stroke:#555555;stroke-width:1.5;stroke-dasharray:7.0,7.0;"/><polygon fill="#555555" points="4071.5,835.38,4075.5,826.38,4071.5,830.38,4067.5,826.38,4071.5,835.38" style="stroke:#555555;stroke-width:1.5;"/><polygon fill="#000000" points="4033.5,736.9444,4036.4389,727.8993,4030.5611,727.8993,4033.5,736.9444" style="stroke:#000000;stroke-width:1.0;"/><text fill="#000000" font-family="Arial" font-size="13" lengthAdjust="spacing" textLength="28" x="4042.5" y="736.6638">uses</text></g><!--link IShiftRecordCommandService to ShiftRecord--><g id="link_IShiftRecordCommandService_ShiftRecord"><path codeLine="187" d="M4586.5,650.76 C4586.5,686.56 4586.5,736.13 4586.5,787.88 " fill="none" id="IShiftRecordCommandService-to-ShiftRecord" style="stroke:#555555;stroke-width:1.5;stroke-dasharray:7.0,7.0;"/><polygon fill="#555555" points="4586.5,793.88,4590.5,784.88,4586.5,788.88,4582.5,784.88,4586.5,793.88" style="stroke:#555555;stroke-width:1.5;"/><polygon fill="#000000" points="4548.5,719.7944,4551.4389,710.7493,4545.5611,710.7493,4548.5,719.7944" style="stroke:#000000;stroke-width:1.0;"/><text fill="#000000" font-family="Arial" font-size="13" lengthAdjust="spacing" textLength="28" x="4557.5" y="719.5138">uses</text></g><!--link IShiftRecordQueryService to ShiftRecord--><g id="link_IShiftRecordQueryService_ShiftRecord"><path codeLine="188" d="M5252,643.56 C5252,714.24 5252,881 5252,881 C5252,881 5026.38,881 4830.95,881 " fill="none" id="IShiftRecordQueryService-to-ShiftRecord" style="stroke:#555555;stroke-width:1.5;stroke-dasharray:7.0,7.0;"/><polygon fill="#555555" points="4824.95,881,4833.95,885,4829.95,881,4833.95,877,4824.95,881" style="stroke:#555555;stroke-width:1.5;"/><polygon fill="#000000" points="5114.8348,875.9304,5124.1571,874.0473,5121.2698,868.9275,5114.8348,875.9304" style="stroke:#000000;stroke-width:1.0;"/><text fill="#000000" font-family="Arial" font-size="13" lengthAdjust="spacing" textLength="28" x="5128.19" y="878.1938">uses</text></g><!--link ITeamMemberCommandService to TeamMember--><g id="link_ITeamMemberCommandService_TeamMember"><path codeLine="189" d="M3628,414.52 C3628,468.27 3628,560 3628,560 C3628,560 3257.91,560 3028.37,560 " fill="none" id="ITeamMemberCommandService-to-TeamMember" style="stroke:#555555;stroke-width:1.5;stroke-dasharray:7.0,7.0;"/><polygon fill="#555555" points="3022.37,560,3031.37,564,3027.37,560,3031.37,556,3022.37,560" style="stroke:#555555;stroke-width:1.5;"/><polygon fill="#000000" points="3355.061,553.6532,3364.544,554.3767,3363.1581,548.6646,3355.061,553.6532" style="stroke:#000000;stroke-width:1.0;"/><text fill="#000000" font-family="Arial" font-size="13" lengthAdjust="spacing" textLength="28" x="3368.92" y="557.1938">uses</text></g><!--link ITeamMemberQueryService to TeamMember--><g id="link_ITeamMemberQueryService_TeamMember"><path codeLine="190" d="M2858.25,407.84 C2858.25,444.2 2858.25,499.03 2858.25,544.94 " fill="none" id="ITeamMemberQueryService-to-TeamMember" style="stroke:#555555;stroke-width:1.5;stroke-dasharray:7.0,7.0;"/><polygon fill="#555555" points="2858.25,550.94,2862.25,541.94,2858.25,545.94,2854.25,541.94,2858.25,550.94" style="stroke:#555555;stroke-width:1.5;"/><polygon fill="#000000" points="2820.25,476.8644,2823.1889,467.8193,2817.3111,467.8193,2820.25,476.8644" style="stroke:#000000;stroke-width:1.0;"/><text fill="#000000" font-family="Arial" font-size="13" lengthAdjust="spacing" textLength="28" x="2829.25" y="476.5838">uses</text></g><!--link CareTeam to IAuditableEntity--><g id="link_CareTeam_IAuditableEntity"><path codeLine="195" d="M3829.74,925 C3099.49,925 138,925 138,925 C138,925 138,1297.06 138,1425.81 " fill="none" id="CareTeam-to-IAuditableEntity" style="stroke:#555555;stroke-width:1.5;stroke-dasharray:7.0,7.0;"/><polygon fill="none" points="138,1443.81,144,1425.81,132,1425.81,138,1443.81" style="stroke:#555555;stroke-width:1.5;"/><text fill="#000000" font-family="Arial" font-size="13" lengthAdjust="spacing" textLength="67" x="1656.46" y="922.1938">implements</text></g><!--link TeamMember to IAuditableEntity--><g id="link_TeamMember_IAuditableEntity"><path codeLine="196" d="M2675.96,613 C2073.97,613 107.67,613 107.67,613 C107.67,613 107.67,1254.08 107.67,1425.92 " fill="none" id="TeamMember-to-IAuditableEntity" style="stroke:#555555;stroke-width:1.5;stroke-dasharray:7.0,7.0;"/><polygon fill="none" points="107.67,1443.92,113.67,1425.92,101.67,1425.92,107.67,1443.92" style="stroke:#555555;stroke-width:1.5;"/><text fill="#000000" font-family="Arial" font-size="13" lengthAdjust="spacing" textLength="67" x="908.35" y="610.1938">implements</text></g><!--link ShiftRecord to IAuditableEntity--><g id="link_ShiftRecord_IAuditableEntity"><path codeLine="197" d="M4293.41,1035 C3343.14,1035 168.33,1035 168.33,1035 C168.33,1035 168.33,1315.17 168.33,1425.82 " fill="none" id="ShiftRecord-to-IAuditableEntity" style="stroke:#555555;stroke-width:1.5;stroke-dasharray:7.0,7.0;"/><polygon fill="none" points="168.33,1443.82,174.33,1425.82,162.33,1425.82,168.33,1443.82" style="stroke:#555555;stroke-width:1.5;"/><text fill="#000000" font-family="Arial" font-size="13" lengthAdjust="spacing" textLength="67" x="1958.47" y="1032.1938">implements</text></g><!--link WorkArea to IAuditableEntity--><g id="link_WorkArea_IAuditableEntity"><path codeLine="198" d="M4019,1295.18 C4019,1329 4019,1366 4019,1366 C4019,1366 198.67,1366 198.67,1366 C198.67,1366 198.67,1391.44 198.67,1425.72 " fill="none" id="WorkArea-to-IAuditableEntity" style="stroke:#555555;stroke-width:1.5;stroke-dasharray:7.0,7.0;"/><polygon fill="none" points="198.67,1443.72,204.67,1425.72,192.67,1425.72,198.67,1443.72" style="stroke:#555555;stroke-width:1.5;"/><text fill="#000000" font-family="Arial" font-size="13" lengthAdjust="spacing" textLength="67" x="2106.38" y="1363.1938">implements</text></g><!--link Specialty to IAuditableEntity--><g id="link_Specialty_IAuditableEntity"><path codeLine="199" d="M3400.98,420 C2940.95,420 77.33,420 77.33,420 C77.33,420 77.33,1230.71 77.33,1425.75 " fill="none" id="Specialty-to-IAuditableEntity" style="stroke:#555555;stroke-width:1.5;stroke-dasharray:7.0,7.0;"/><polygon fill="none" points="77.33,1443.75,83.33,1425.75,71.33,1425.75,77.33,1443.75" style="stroke:#555555;stroke-width:1.5;"/><text fill="#000000" font-family="Arial" font-size="13" lengthAdjust="spacing" textLength="67" x="1159.28" y="417.1938">implements</text></g><!--link CareTeam to Organization--><g id="link_CareTeam_Organization"><path codeLine="203" d="M4104.67,1013.58 C4104.67,1169.85 4104.67,1477 4104.67,1477 C4104.67,1477 4275.77,1477 4365.37,1477 " fill="none" id="CareTeam-to-Organization" style="stroke:#555555;stroke-width:1.5;"/><polygon fill="#555555" points="4371.37,1477,4362.37,1473,4366.37,1477,4362.37,1481,4371.37,1477" style="stroke:#555555;stroke-width:1.5;"/><polygon fill="#000000" points="4037.1215,1375.4721,4035.2481,1366.1479,4030.1253,1369.0298,4037.1215,1375.4721" style="stroke:#000000;stroke-width:1.0;"/><text fill="#000000" font-family="Arial" font-size="13" lengthAdjust="spacing" textLength="60" x="4043.67" y="1375.8338">references</text></g><!--link CareTeam to WorkArea--><g id="link_CareTeam_WorkArea"><path codeLine="204" d="M4019,1013.79 C4019,1069.09 4019,1132.33 4019,1179.65 " fill="none" id="CareTeam-to-WorkArea" style="stroke:#555555;stroke-width:1.5;"/><polygon fill="#555555" points="4019,1185.65,4023,1176.65,4019,1180.65,4015,1176.65,4019,1185.65" style="stroke:#555555;stroke-width:1.5;"/><polygon fill="#000000" points="3949,1097.1944,3951.9389,1088.1493,3946.0611,1088.1493,3949,1097.1944" style="stroke:#000000;stroke-width:1.0;"/><text fill="#000000" font-family="Arial" font-size="13" lengthAdjust="spacing" textLength="60" x="3958" y="1096.9138">references</text></g><!--link CareTeam to User--><g id="link_CareTeam_User"><path codeLine="205" d="M4128.33,1013.51 C4128.33,1107.12 4128.33,1241 4128.33,1241 C4128.33,1241 5374.81,1241 5585.18,1241 " fill="none" id="CareTeam-to-User" style="stroke:#555555;stroke-width:1.5;"/><polygon fill="#555555" points="5591.18,1241,5582.18,1237,5586.18,1241,5582.18,1245,5591.18,1241" style="stroke:#555555;stroke-width:1.5;"/><polygon fill="#000000" points="4680.9501,1234.2458,4672.4668,1229.9465,4671.5599,1235.754,4680.9501,1234.2458" style="stroke:#000000;stroke-width:1.0;"/><text fill="#000000" font-family="Arial" font-size="13" lengthAdjust="spacing" textLength="60" x="4685.01" y="1238.1938">references</text></g><!--link TeamMember to CareTeam--><g id="link_TeamMember_CareTeam"><path codeLine="206" d="M3022.21,669 C3323.09,669 3910.5,669 3910.5,669 C3910.5,669 3910.5,755.76 3910.5,829.5 " fill="none" id="TeamMember-to-CareTeam" style="stroke:#555555;stroke-width:1.5;"/><polygon fill="#555555" points="3910.5,835.5,3914.5,826.5,3910.5,830.5,3906.5,826.5,3910.5,835.5" style="stroke:#555555;stroke-width:1.5;"/><polygon fill="#000000" points="3484.5203,678.3634,3476.1419,673.863,3475.0968,679.6472,3484.5203,678.3634" style="stroke:#000000;stroke-width:1.0;"/><text fill="#000000" font-family="Arial" font-size="13" lengthAdjust="spacing" textLength="60" x="3488.6" y="682.1938">references</text></g><!--link TeamMember to User--><g id="link_TeamMember_User"><path codeLine="207" d="M3022.23,663 C3630.3,663 5630.83,663 5630.83,663 C5630.83,663 5630.83,1101.12 5630.83,1210.42 " fill="none" id="TeamMember-to-User" style="stroke:#555555;stroke-width:1.5;"/><polygon fill="#555555" points="5630.83,1216.42,5634.83,1207.42,5630.83,1211.42,5626.83,1207.42,5630.83,1216.42" style="stroke:#555555;stroke-width:1.5;"/><polygon fill="#000000" points="4538.1334,672.5013,4529.8847,667.7673,4528.6776,673.5199,4538.1334,672.5013" style="stroke:#000000;stroke-width:1.0;"/><text fill="#000000" font-family="Arial" font-size="13" lengthAdjust="spacing" textLength="60" x="4542.24" y="676.1938">references</text></g><!--link ShiftRecord to Organization--><g id="link_ShiftRecord_Organization"><path codeLine="208" d="M4438.83,1055.09 C4438.83,1190.18 4438.83,1384.9 4438.83,1454.05 " fill="none" id="ShiftRecord-to-Organization" style="stroke:#555555;stroke-width:1.5;"/><polygon fill="#555555" points="4438.83,1460.05,4442.83,1451.05,4438.83,1455.05,4434.83,1451.05,4438.83,1460.05" style="stroke:#555555;stroke-width:1.5;"/><polygon fill="#000000" points="4368.83,1255.0444,4371.7689,1245.9993,4365.8911,1245.9993,4368.83,1255.0444" style="stroke:#000000;stroke-width:1.0;"/><text fill="#000000" font-family="Arial" font-size="13" lengthAdjust="spacing" textLength="60" x="4377.83" y="1254.7638">references</text></g><!--link ShiftRecord to User--><g id="link_ShiftRecord_User"><path codeLine="209" d="M4824.51,968 C5136.2,968 5611.17,968 5611.17,968 C5611.17,968 5611.17,1143.63 5611.17,1210.32 " fill="none" id="ShiftRecord-to-User" style="stroke:#555555;stroke-width:1.5;"/><polygon fill="#555555" points="5611.17,1216.32,5615.17,1207.32,5611.17,1211.32,5607.17,1207.32,5611.17,1216.32" style="stroke:#555555;stroke-width:1.5;"/><polygon fill="#000000" points="5276.7784,961.9463,5268.9993,956.4749,5267.269,962.0922,5276.7784,961.9463" style="stroke:#000000;stroke-width:1.0;"/><text fill="#000000" font-family="Arial" font-size="13" lengthAdjust="spacing" textLength="60" x="5281" y="965.1938">references</text></g><!--link ShiftRecord to WorkArea--><g id="link_ShiftRecord_WorkArea"><path codeLine="210" d="M4332.5,1055.12 C4332.5,1127.1 4332.5,1202 4332.5,1202 C4332.5,1202 4178.74,1202 4087.31,1202 " fill="none" id="ShiftRecord-to-WorkArea" style="stroke:#555555;stroke-width:1.5;"/><polygon fill="#555555" points="4081.31,1202,4090.31,1206,4086.31,1202,4090.31,1198,4081.31,1202" style="stroke:#555555;stroke-width:1.5;"/><polygon fill="#000000" points="4206.0507,1197.0438,4215.3204,1194.9168,4212.2998,1189.8745,4206.0507,1197.0438" style="stroke:#000000;stroke-width:1.0;"/><text fill="#000000" font-family="Arial" font-size="13" lengthAdjust="spacing" textLength="60" x="4219.34" y="1199.1938">references</text></g><!--link WorkArea to Organization--><g id="link_WorkArea_Organization"><path codeLine="211" d="M4081.04,1280 C4190.2,1280 4405.17,1280 4405.17,1280 C4405.17,1280 4405.17,1400.07 4405.17,1454.24 " fill="none" id="WorkArea-to-Organization" style="stroke:#555555;stroke-width:1.5;"/><polygon fill="#555555" points="4405.17,1460.24,4409.17,1451.24,4405.17,1455.24,4401.17,1451.24,4405.17,1460.24" style="stroke:#555555;stroke-width:1.5;"/><polygon fill="#000000" points="4267.624,1274.8418,4261.0486,1267.9705,4258.2655,1273.1477,4267.624,1274.8418" style="stroke:#000000;stroke-width:1.0;"/><text fill="#000000" font-family="Arial" font-size="13" lengthAdjust="spacing" textLength="60" x="4272.22" y="1277.1938">references</text></g><!--link Specialty to Organization--><g id="link_Specialty_Organization"><path codeLine="212" d="M3525.02,423 C3587.11,423 3673.5,423 3673.5,423 C3673.5,423 3673.5,1493 3673.5,1493 C3673.5,1493 4197.29,1493 4365.43,1493 " fill="none" id="Specialty-to-Organization" style="stroke:#555555;stroke-width:1.5;"/><polygon fill="#555555" points="4371.43,1493,4362.43,1489,4366.43,1493,4362.43,1497,4371.43,1493" style="stroke:#555555;stroke-width:1.5;"/><polygon fill="#000000" points="3606.5884,1229.1365,3603.3127,1220.2079,3598.6902,1223.8385,3606.5884,1229.1365" style="stroke:#000000;stroke-width:1.0;"/><text fill="#000000" font-family="Arial" font-size="13" lengthAdjust="spacing" textLength="60" x="3612.5" y="1229.9238">references</text></g><!--link BaseRepository to IBaseRepository--><g id="link_BaseRepository_IBaseRepository"><path codeLine="216" d="M2040.5,1306.2 C2040.5,1363.33 2040.5,1437 2040.5,1437 C2040.5,1437 1386.72,1437 1051.16,1437 " fill="none" id="BaseRepository-to-IBaseRepository" style="stroke:#555555;stroke-width:1.5;stroke-dasharray:7.0,7.0;"/><polygon fill="none" points="1033.16,1437,1051.16,1443,1051.16,1431,1033.16,1437" style="stroke:#555555;stroke-width:1.5;"/><text fill="#000000" font-family="Arial" font-size="13" lengthAdjust="spacing" textLength="67" x="1534.23" y="1434.1938">implements</text></g><!--link UnitOfWork to IUnitOfWork--><g id="link_UnitOfWork_IUnitOfWork"><path codeLine="217" d="M1635.33,1275 C1297.37,1275 445,1275 445,1275 C445,1275 445,1376.69 445,1435.14 " fill="none" id="UnitOfWork-to-IUnitOfWork" style="stroke:#555555;stroke-width:1.5;stroke-dasharray:7.0,7.0;"/><polygon fill="none" points="445,1453.14,451,1435.14,439,1435.14,445,1453.14" style="stroke:#555555;stroke-width:1.5;"/><text fill="#000000" font-family="Arial" font-size="13" lengthAdjust="spacing" textLength="67" x="883.1" y="1272.1938">implements</text></g><!--SRC=[xLhTRzis47_tNq5i3tMmf6YB5kYCp87iE8ktBjviPn-FYdIs2SkaIbBft2t_-uxwf2nHajDsxO0f3tPulpiUxuj7od9BMUWATqS2oa3jGo1Sg0tloPmGkjxMNSD2xGCW0ZpbidK01e1n7oI4vFKpOr2uRAi7dxymHtrOkL6WhZXJD-uEY2Ee6nXqBt2brDG5VG_a-Sj3agEKe7UHWWBpmi2uGl1tomtrjWoa9C-VlZeaZdd01VdwLVmSIX_XIjU2HynFOLV-2l-gjgW2drszl7fT0-J21v62NZhVFfkywFK8Fa_8TuzzKlxfpG-JyN9oIHRNpXm_HhFRcqly7CzkbfFVbnzbbdGLvAl5nXNWav5UCdwEqVhmf_gAk9AafBzYXXBJ9T-vb1cWPC20weUYAB5oFI3JaIjX3Y6NL76nFrzEcA9gFpnWqCytZkyxSi-yFiIO0Kd1fyHJ0p9scGT1u2hAsP9lWPqWm9NRgfmholpHVfeAe_v0wzCi9DFhObWLTnlwhe93fP3ndbE_2f_3ZjztXx-XKYMADketdR1e1yAz2o2tOLdNXvxD1RUCgjdgDowsTLOVyrqOW89s9JfEvqG-LLhHH4roVfxfMpkz0BIkx-2yb_XbINSmMwqag0kR9rgn3xqQ9VC8dhALSAKIaQSY0KOanuG35UCIGfmmlBnBywCsS0rwduVQRX9Lp8PcoSYv2HkULCKit7iORx0IW-mG4MZnnW18L3yY_ShGlfSeEYYj_kJ_hFsaMPiuhJbX2sfd7tsS74-JePpUKvtu7eGOCtNAOanJjYv5DToZbJ5_tLFiF2Hs3jh9EFslRX11OhPC9YetZo5nj0_RixmSm-Jfqs4vUGVOhOI0-ntpzZcJOUvs1fpiS1kbAuMx9tO5bCNsj6of28jHhTig0cjtrSJ-OwnLIy1svFpSMQy5h37CBQKrHVPF6cWUt-rSXjcM5E9iV9mCrt1Eayoi4cPYxJBwFZQ15QGxn071yejHKQLg7pYeXvLz4OKWxgdamWvHhegaVOwqCEJhJlu_N7TDujTcW-Rv2NPt8DhzKM3hF69G3tnIK1xX5Sri9TvAg3LaxLBZm9o3fqEuTQq6k6wn9lbWjGRfKmMXRTdTOd291ofxUBM5tyBRW1y5u2DGL1gP1ln4cwWDFTw0jvsoJjrKZ9r5weZMArbSNvRMYENREcjAgv_5khkE0kvj-mrxDOOZNRC-WtU6ApldRERXzYZEaFr_hmxMfru87XwgusQwBV4owEVJsJWB79JLXIxUE5wZzpMI0sZPZbhQmGmzR1TVM_KxYh_e8FyITBzrdFmxpWDRZsEnwoyHY7sxLTzgs81y3ye9WenNnimjEfaTR6xUZafMA_dH_g-AQD7NOEWS1HyooSNnjdYCpmpsezrccgIZjfMEusZ7LIIqdUHoVEVaEdQA8zAh4FqOPnNSH_lACCFmg3kDL7LP726AiSPZXDI75C6304JJ6SA0zRsTlxZt1hRgVahUeibA0DEA9xOxe3wU1daaj83uF9WOn_6AKs1DQ2GMxtTdIDl__7xXCPCcyMVUKNJWV6XkgLlyK8yiN66jjOOtB3Nel-sGXyP3MOjLQu65KMrbqB1fVQNup2RzQF6PzRyjPgo15KRCY5OJPe0lmu0F3UqtXROihGCQIPhrvlOKpH1VcZ6CNQTkvz3tPhPcl_REhLL8QUEj5M4fdh4KU-lv8QBQTQglFB4SQq_rU45sVN8vJuWJANws1eOTXWA_066C4iL9AEBxMB8AEBOcR9s4FDBwgPhobEXv47vAvccyoI8aRLxNgkPNbGCIQP73AbTf2IqyTgTgHlDwgf6tCcKpfzLlcjMu_clYh4nPnzSpykm96SzdYyLP_0BOcVz1vfCtpd8wkrbSJtzUaAlPd2olfmio6lVCR4BPVm-hR-1m6z3t_plqi-oLewihXscZZYpvDKlNAV9BZWuCcPaEeZk1dk5OoYGWwRZbXeOOqtUkH1Hdv8eBe6j6VeIz4Sov7S_EXiIy4y791Qn0ODwKV5nYo1VS1Qmlhcn0mpqQQgH45tYJPDEDNTTuo7EC_3QJvFJEokH1qiQH9n8N-WSkw7RAzEzXYf0movyVXG7rC8QIMAoyHz81UJ1O2U3IUoJDO0oKmFy0]--></g></svg>