<?xml version="1.0" encoding="us-ascii" standalone="no"?><svg xmlns="http://www.w3.org/2000/svg" xmlns:xlink="http://www.w3.org/1999/xlink" contentStyleType="text/css" height="1245px" preserveAspectRatio="none" style="width:1474px;height:1245px;background:#FFFFFF;" version="1.1" viewBox="0 0 1474 1245" width="1474px" zoomAndPan="magnify"><defs/><g><!--cluster shared--><g id="cluster_shared"><rect fill="none" height="666.5" rx="2.5" ry="2.5" style="stroke:#000000;stroke-width:1.5;" width="811" x="7" y="7"/><text fill="#000000" font-family="sans-serif" font-size="14" font-weight="bold" lengthAdjust="spacing" textLength="177" x="324" y="23.5332">Shared Bounded Context</text></g><!--cluster shared_infrastructure--><g id="cluster_shared_infrastructure"><rect fill="none" height="111" rx="2.5" ry="2.5" style="stroke:#000000;stroke-width:1.5;" width="332" x="462" y="95"/><text fill="#000000" font-family="sans-serif" font-size="14" font-weight="bold" lengthAdjust="spacing" textLength="97" x="579.5" y="111.5332">Infrastructure</text></g><!--cluster shared_presentation--><g id="cluster_shared_presentation"><rect fill="none" height="598.5" rx="2.5" ry="2.5" style="stroke:#000000;stroke-width:1.5;" width="407" x="31" y="51"/><text fill="#000000" font-family="sans-serif" font-size="14" font-weight="bold" lengthAdjust="spacing" textLength="90" x="189.5" y="67.5332">Presentation</text></g><!--cluster shared_components--><g id="cluster_shared_components"><rect fill="none" height="530.5" rx="2.5" ry="2.5" style="stroke:#000000;stroke-width:1.5;" width="359" x="55" y="95"/><text fill="#000000" font-family="sans-serif" font-size="14" font-weight="bold" lengthAdjust="spacing" textLength="89" x="190" y="111.5332">Components</text></g><!--cluster staff_recovery--><g id="cluster_staff_recovery"><rect fill="none" height="1009.5" rx="2.5" ry="2.5" style="stroke:#000000;stroke-width:1.5;" width="626" x="842" y="230"/><text fill="#000000" font-family="sans-serif" font-size="14" font-weight="bold" lengthAdjust="spacing" textLength="230" x="1040" y="246.5332">Staff Recovery Bounded Context</text></g><!--cluster recovery_domain--><g id="cluster_recovery_domain"><rect fill="none" height="514.5" rx="2.5" ry="2.5" style="stroke:#000000;stroke-width:1.5;" width="242" x="904" y="701"/><text fill="#000000" font-family="sans-serif" font-size="14" font-weight="bold" lengthAdjust="spacing" textLength="52" x="999" y="717.5332">Domain</text></g><!--cluster recovery_infrastructure--><g id="cluster_recovery_infrastructure"><rect fill="none" height="223" rx="2.5" ry="2.5" style="stroke:#000000;stroke-width:1.5;" width="270" x="1174" y="697.5"/><text fill="#000000" font-family="sans-serif" font-size="14" font-weight="bold" lengthAdjust="spacing" textLength="97" x="1260.5" y="714.0332">Infrastructure</text></g><!--cluster recovery_application--><g id="cluster_recovery_application"><rect fill="none" height="146" rx="2.5" ry="2.5" style="stroke:#000000;stroke-width:1.5;" width="226" x="912" y="497"/><text fill="#000000" font-family="sans-serif" font-size="14" font-weight="bold" lengthAdjust="spacing" textLength="78" x="986" y="513.5332">Application</text></g><!--cluster recovery_presentation--><g id="cluster_recovery_presentation"><rect fill="none" height="199" rx="2.5" ry="2.5" style="stroke:#000000;stroke-width:1.5;" width="480" x="866" y="274"/><text fill="#000000" font-family="sans-serif" font-size="14" font-weight="bold" lengthAdjust="spacing" textLength="90" x="1061" y="290.5332">Presentation</text></g><!--class BaseEndpoint--><g id="elem_BaseEndpoint"><rect codeLine="8" fill="#F1F1F1" height="48" id="BaseEndpoint" rx="2.5" ry="2.5" style="stroke:#181818;stroke-width:0.5;" width="120" x="658" y="136.5"/><ellipse cx="673" cy="152.5" fill="#ADD1B2" rx="11" ry="11" style="stroke:#181818;stroke-width:1.0;"/><path d="M675.7656,148.375 Q675.9219,148.1563 676.1094,148.0469 Q676.2969,147.9375 676.5156,147.9375 Q676.8906,147.9375 677.125,148.2031 Q677.3594,148.4531 677.3594,149.0625 L677.3594,150.5156 Q677.3594,151.125 677.125,151.3906 Q676.8906,151.6563 676.5156,151.6563 Q676.1719,151.6563 675.9688,151.4531 Q675.7656,151.2656 675.6563,150.75 Q675.6094,150.3906 675.4219,150.2031 Q675.0938,149.8281 674.4844,149.6094 Q673.875,149.3906 673.25,149.3906 Q672.4844,149.3906 671.8438,149.7188 Q671.2188,150.0469 670.7188,150.7969 Q670.2344,151.5469 670.2344,152.5781 L670.2344,153.6719 Q670.2344,154.9063 671.125,155.7344 Q672.0156,156.5469 673.6094,156.5469 Q674.5469,156.5469 675.2031,156.2969 Q675.5938,156.1406 676.0156,155.7031 Q676.2813,155.4375 676.4219,155.3594 Q676.5781,155.2813 676.7813,155.2813 Q677.1094,155.2813 677.3594,155.5469 Q677.625,155.7969 677.625,156.1406 Q677.625,156.4844 677.2813,156.8906 Q676.7813,157.4688 675.9844,157.7969 Q674.9063,158.25 673.6094,158.25 Q672.0938,158.25 670.8906,157.625 Q669.9063,157.125 669.2188,156.0625 Q668.5313,154.9844 668.5313,153.7031 L668.5313,152.5469 Q668.5313,151.2188 669.1406,150.0781 Q669.7656,148.9219 670.8594,148.3125 Q671.9531,147.6875 673.1875,147.6875 Q673.9219,147.6875 674.5625,147.8594 Q675.2188,148.0156 675.7656,148.375 Z " fill="#000000"/><text fill="#000000" font-family="sans-serif" font-size="14" lengthAdjust="spacing" textLength="88" x="687" y="158.2285">BaseEndpoint</text><line style="stroke:#181818;stroke-width:0.5;" x1="659" x2="777" y1="168.5" y2="168.5"/><line style="stroke:#181818;stroke-width:0.5;" x1="659" x2="777" y1="176.5" y2="176.5"/></g><!--class Http--><g id="elem_Http"><rect codeLine="10" fill="#F1F1F1" height="58.7031" id="Http" rx="2.5" ry="2.5" style="stroke:#181818;stroke-width:0.5;" width="119" x="478.5" y="131"/><ellipse cx="493.5" cy="152.3516" fill="#ADD1B2" rx="11" ry="11" style="stroke:#181818;stroke-width:1.0;"/><path d="M496.2656,148.2266 Q496.4219,148.0078 496.6094,147.8984 Q496.7969,147.7891 497.0156,147.7891 Q497.3906,147.7891 497.625,148.0547 Q497.8594,148.3047 497.8594,148.9141 L497.8594,150.3672 Q497.8594,150.9766 497.625,151.2422 Q497.3906,151.5078 497.0156,151.5078 Q496.6719,151.5078 496.4688,151.3047 Q496.2656,151.1172 496.1563,150.6016 Q496.1094,150.2422 495.9219,150.0547 Q495.5938,149.6797 494.9844,149.4609 Q494.375,149.2422 493.75,149.2422 Q492.9844,149.2422 492.3438,149.5703 Q491.7188,149.8984 491.2188,150.6484 Q490.7344,151.3984 490.7344,152.4297 L490.7344,153.5234 Q490.7344,154.7578 491.625,155.5859 Q492.5156,156.3984 494.1094,156.3984 Q495.0469,156.3984 495.7031,156.1484 Q496.0938,155.9922 496.5156,155.5547 Q496.7813,155.2891 496.9219,155.2109 Q497.0781,155.1328 497.2813,155.1328 Q497.6094,155.1328 497.8594,155.3984 Q498.125,155.6484 498.125,155.9922 Q498.125,156.3359 497.7813,156.7422 Q497.2813,157.3203 496.4844,157.6484 Q495.4063,158.1016 494.1094,158.1016 Q492.5938,158.1016 491.3906,157.4766 Q490.4063,156.9766 489.7188,155.9141 Q489.0313,154.8359 489.0313,153.5547 L489.0313,152.3984 Q489.0313,151.0703 489.6406,149.9297 Q490.2656,148.7734 491.3594,148.1641 Q492.4531,147.5391 493.6875,147.5391 Q494.4219,147.5391 495.0625,147.7109 Q495.7188,147.8672 496.2656,148.2266 Z " fill="#000000"/><text fill="#000000" font-family="sans-serif" font-size="12" font-style="italic" lengthAdjust="spacing" textLength="91" x="505.5" y="148.457">&#171;AxiosInstance&#187;</text><text fill="#000000" font-family="sans-serif" font-size="14" lengthAdjust="spacing" textLength="25" x="538.5" y="165.627">Http</text><line style="stroke:#181818;stroke-width:0.5;" x1="479.5" x2="596.5" y1="173.7031" y2="173.7031"/><line style="stroke:#181818;stroke-width:0.5;" x1="479.5" x2="596.5" y1="181.7031" y2="181.7031"/></g><!--class AppLayout--><g id="elem_AppLayout"><rect codeLine="16" fill="#F1F1F1" height="58.7031" id="AppLayout" rx="2.5" ry="2.5" style="stroke:#181818;stroke-width:0.5;" width="104" x="292" y="131"/><ellipse cx="307" cy="152.3516" fill="#ADD1B2" rx="11" ry="11" style="stroke:#181818;stroke-width:1.0;"/><path d="M309.7656,148.2266 Q309.9219,148.0078 310.1094,147.8984 Q310.2969,147.7891 310.5156,147.7891 Q310.8906,147.7891 311.125,148.0547 Q311.3594,148.3047 311.3594,148.9141 L311.3594,150.3672 Q311.3594,150.9766 311.125,151.2422 Q310.8906,151.5078 310.5156,151.5078 Q310.1719,151.5078 309.9688,151.3047 Q309.7656,151.1172 309.6563,150.6016 Q309.6094,150.2422 309.4219,150.0547 Q309.0938,149.6797 308.4844,149.4609 Q307.875,149.2422 307.25,149.2422 Q306.4844,149.2422 305.8438,149.5703 Q305.2188,149.8984 304.7188,150.6484 Q304.2344,151.3984 304.2344,152.4297 L304.2344,153.5234 Q304.2344,154.7578 305.125,155.5859 Q306.0156,156.3984 307.6094,156.3984 Q308.5469,156.3984 309.2031,156.1484 Q309.5938,155.9922 310.0156,155.5547 Q310.2813,155.2891 310.4219,155.2109 Q310.5781,155.1328 310.7813,155.1328 Q311.1094,155.1328 311.3594,155.3984 Q311.625,155.6484 311.625,155.9922 Q311.625,156.3359 311.2813,156.7422 Q310.7813,157.3203 309.9844,157.6484 Q308.9063,158.1016 307.6094,158.1016 Q306.0938,158.1016 304.8906,157.4766 Q303.9063,156.9766 303.2188,155.9141 Q302.5313,154.8359 302.5313,153.5547 L302.5313,152.3984 Q302.5313,151.0703 303.1406,149.9297 Q303.7656,148.7734 304.8594,148.1641 Q305.9531,147.5391 307.1875,147.5391 Q307.9219,147.5391 308.5625,147.7109 Q309.2188,147.8672 309.7656,148.2266 Z " fill="#000000"/><text fill="#000000" font-family="sans-serif" font-size="12" font-style="italic" lengthAdjust="spacing" textLength="76" x="319" y="148.457">&#171;component&#187;</text><text fill="#000000" font-family="sans-serif" font-size="14" lengthAdjust="spacing" textLength="68" x="323" y="165.627">AppLayout</text><line style="stroke:#181818;stroke-width:0.5;" x1="293" x2="395" y1="173.7031" y2="173.7031"/><line style="stroke:#181818;stroke-width:0.5;" x1="293" x2="395" y1="181.7031" y2="181.7031"/></g><!--class AuthLayout--><g id="elem_AuthLayout"><rect codeLine="17" fill="#F1F1F1" height="58.7031" id="AuthLayout" rx="2.5" ry="2.5" style="stroke:#181818;stroke-width:0.5;" width="104" x="102" y="131"/><ellipse cx="117" cy="152.3516" fill="#ADD1B2" rx="11" ry="11" style="stroke:#181818;stroke-width:1.0;"/><path d="M119.7656,148.2266 Q119.9219,148.0078 120.1094,147.8984 Q120.2969,147.7891 120.5156,147.7891 Q120.8906,147.7891 121.125,148.0547 Q121.3594,148.3047 121.3594,148.9141 L121.3594,150.3672 Q121.3594,150.9766 121.125,151.2422 Q120.8906,151.5078 120.5156,151.5078 Q120.1719,151.5078 119.9688,151.3047 Q119.7656,151.1172 119.6563,150.6016 Q119.6094,150.2422 119.4219,150.0547 Q119.0938,149.6797 118.4844,149.4609 Q117.875,149.2422 117.25,149.2422 Q116.4844,149.2422 115.8438,149.5703 Q115.2188,149.8984 114.7188,150.6484 Q114.2344,151.3984 114.2344,152.4297 L114.2344,153.5234 Q114.2344,154.7578 115.125,155.5859 Q116.0156,156.3984 117.6094,156.3984 Q118.5469,156.3984 119.2031,156.1484 Q119.5938,155.9922 120.0156,155.5547 Q120.2813,155.2891 120.4219,155.2109 Q120.5781,155.1328 120.7813,155.1328 Q121.1094,155.1328 121.3594,155.3984 Q121.625,155.6484 121.625,155.9922 Q121.625,156.3359 121.2813,156.7422 Q120.7813,157.3203 119.9844,157.6484 Q118.9063,158.1016 117.6094,158.1016 Q116.0938,158.1016 114.8906,157.4766 Q113.9063,156.9766 113.2188,155.9141 Q112.5313,154.8359 112.5313,153.5547 L112.5313,152.3984 Q112.5313,151.0703 113.1406,149.9297 Q113.7656,148.7734 114.8594,148.1641 Q115.9531,147.5391 117.1875,147.5391 Q117.9219,147.5391 118.5625,147.7109 Q119.2188,147.8672 119.7656,148.2266 Z " fill="#000000"/><text fill="#000000" font-family="sans-serif" font-size="12" font-style="italic" lengthAdjust="spacing" textLength="76" x="129" y="148.457">&#171;component&#187;</text><text fill="#000000" font-family="sans-serif" font-size="14" lengthAdjust="spacing" textLength="72" x="131" y="165.627">AuthLayout</text><line style="stroke:#181818;stroke-width:0.5;" x1="103" x2="205" y1="173.7031" y2="173.7031"/><line style="stroke:#181818;stroke-width:0.5;" x1="103" x2="205" y1="181.7031" y2="181.7031"/></g><!--class AppSidebar--><g id="elem_AppSidebar"><rect codeLine="18" fill="#F1F1F1" height="58.7031" id="AppSidebar" rx="2.5" ry="2.5" style="stroke:#181818;stroke-width:0.5;" width="106" x="124" y="354"/><ellipse cx="139" cy="375.3516" fill="#ADD1B2" rx="11" ry="11" style="stroke:#181818;stroke-width:1.0;"/><path d="M141.7656,371.2266 Q141.9219,371.0078 142.1094,370.8984 Q142.2969,370.7891 142.5156,370.7891 Q142.8906,370.7891 143.125,371.0547 Q143.3594,371.3047 143.3594,371.9141 L143.3594,373.3672 Q143.3594,373.9766 143.125,374.2422 Q142.8906,374.5078 142.5156,374.5078 Q142.1719,374.5078 141.9688,374.3047 Q141.7656,374.1172 141.6563,373.6016 Q141.6094,373.2422 141.4219,373.0547 Q141.0938,372.6797 140.4844,372.4609 Q139.875,372.2422 139.25,372.2422 Q138.4844,372.2422 137.8438,372.5703 Q137.2188,372.8984 136.7188,373.6484 Q136.2344,374.3984 136.2344,375.4297 L136.2344,376.5234 Q136.2344,377.7578 137.125,378.5859 Q138.0156,379.3984 139.6094,379.3984 Q140.5469,379.3984 141.2031,379.1484 Q141.5938,378.9922 142.0156,378.5547 Q142.2813,378.2891 142.4219,378.2109 Q142.5781,378.1328 142.7813,378.1328 Q143.1094,378.1328 143.3594,378.3984 Q143.625,378.6484 143.625,378.9922 Q143.625,379.3359 143.2813,379.7422 Q142.7813,380.3203 141.9844,380.6484 Q140.9063,381.1016 139.6094,381.1016 Q138.0938,381.1016 136.8906,380.4766 Q135.9063,379.9766 135.2188,378.9141 Q134.5313,377.8359 134.5313,376.5547 L134.5313,375.3984 Q134.5313,374.0703 135.1406,372.9297 Q135.7656,371.7734 136.8594,371.1641 Q137.9531,370.5391 139.1875,370.5391 Q139.9219,370.5391 140.5625,370.7109 Q141.2188,370.8672 141.7656,371.2266 Z " fill="#000000"/><text fill="#000000" font-family="sans-serif" font-size="12" font-style="italic" lengthAdjust="spacing" textLength="76" x="152" y="371.457">&#171;component&#187;</text><text fill="#000000" font-family="sans-serif" font-size="14" lengthAdjust="spacing" textLength="74" x="153" y="388.627">AppSidebar</text><line style="stroke:#181818;stroke-width:0.5;" x1="125" x2="229" y1="396.7031" y2="396.7031"/><line style="stroke:#181818;stroke-width:0.5;" x1="125" x2="229" y1="404.7031" y2="404.7031"/></g><!--class AppTopbar--><g id="elem_AppTopbar"><rect codeLine="19" fill="#F1F1F1" height="58.7031" id="AppTopbar" rx="2.5" ry="2.5" style="stroke:#181818;stroke-width:0.5;" width="104" x="290" y="354"/><ellipse cx="305" cy="375.3516" fill="#ADD1B2" rx="11" ry="11" style="stroke:#181818;stroke-width:1.0;"/><path d="M307.7656,371.2266 Q307.9219,371.0078 308.1094,370.8984 Q308.2969,370.7891 308.5156,370.7891 Q308.8906,370.7891 309.125,371.0547 Q309.3594,371.3047 309.3594,371.9141 L309.3594,373.3672 Q309.3594,373.9766 309.125,374.2422 Q308.8906,374.5078 308.5156,374.5078 Q308.1719,374.5078 307.9688,374.3047 Q307.7656,374.1172 307.6563,373.6016 Q307.6094,373.2422 307.4219,373.0547 Q307.0938,372.6797 306.4844,372.4609 Q305.875,372.2422 305.25,372.2422 Q304.4844,372.2422 303.8438,372.5703 Q303.2188,372.8984 302.7188,373.6484 Q302.2344,374.3984 302.2344,375.4297 L302.2344,376.5234 Q302.2344,377.7578 303.125,378.5859 Q304.0156,379.3984 305.6094,379.3984 Q306.5469,379.3984 307.2031,379.1484 Q307.5938,378.9922 308.0156,378.5547 Q308.2813,378.2891 308.4219,378.2109 Q308.5781,378.1328 308.7813,378.1328 Q309.1094,378.1328 309.3594,378.3984 Q309.625,378.6484 309.625,378.9922 Q309.625,379.3359 309.2813,379.7422 Q308.7813,380.3203 307.9844,380.6484 Q306.9063,381.1016 305.6094,381.1016 Q304.0938,381.1016 302.8906,380.4766 Q301.9063,379.9766 301.2188,378.9141 Q300.5313,377.8359 300.5313,376.5547 L300.5313,375.3984 Q300.5313,374.0703 301.1406,372.9297 Q301.7656,371.7734 302.8594,371.1641 Q303.9531,370.5391 305.1875,370.5391 Q305.9219,370.5391 306.5625,370.7109 Q307.2188,370.8672 307.7656,371.2266 Z " fill="#000000"/><text fill="#000000" font-family="sans-serif" font-size="12" font-style="italic" lengthAdjust="spacing" textLength="76" x="317" y="371.457">&#171;component&#187;</text><text fill="#000000" font-family="sans-serif" font-size="14" lengthAdjust="spacing" textLength="71" x="319.5" y="388.627">AppTopbar</text><line style="stroke:#181818;stroke-width:0.5;" x1="291" x2="393" y1="396.7031" y2="396.7031"/><line style="stroke:#181818;stroke-width:0.5;" x1="291" x2="393" y1="404.7031" y2="404.7031"/></g><!--class LanguageSwitcher--><g id="elem_LanguageSwitcher"><rect codeLine="20" fill="#F1F1F1" height="58.7031" id="LanguageSwitcher" rx="2.5" ry="2.5" style="stroke:#181818;stroke-width:0.5;" width="149" x="71.5" y="550.5"/><ellipse cx="86.5" cy="571.8516" fill="#ADD1B2" rx="11" ry="11" style="stroke:#181818;stroke-width:1.0;"/><path d="M89.2656,567.7266 Q89.4219,567.5078 89.6094,567.3984 Q89.7969,567.2891 90.0156,567.2891 Q90.3906,567.2891 90.625,567.5547 Q90.8594,567.8047 90.8594,568.4141 L90.8594,569.8672 Q90.8594,570.4766 90.625,570.7422 Q90.3906,571.0078 90.0156,571.0078 Q89.6719,571.0078 89.4688,570.8047 Q89.2656,570.6172 89.1563,570.1016 Q89.1094,569.7422 88.9219,569.5547 Q88.5938,569.1797 87.9844,568.9609 Q87.375,568.7422 86.75,568.7422 Q85.9844,568.7422 85.3438,569.0703 Q84.7188,569.3984 84.2188,570.1484 Q83.7344,570.8984 83.7344,571.9297 L83.7344,573.0234 Q83.7344,574.2578 84.625,575.0859 Q85.5156,575.8984 87.1094,575.8984 Q88.0469,575.8984 88.7031,575.6484 Q89.0938,575.4922 89.5156,575.0547 Q89.7813,574.7891 89.9219,574.7109 Q90.0781,574.6328 90.2813,574.6328 Q90.6094,574.6328 90.8594,574.8984 Q91.125,575.1484 91.125,575.4922 Q91.125,575.8359 90.7813,576.2422 Q90.2813,576.8203 89.4844,577.1484 Q88.4063,577.6016 87.1094,577.6016 Q85.5938,577.6016 84.3906,576.9766 Q83.4063,576.4766 82.7188,575.4141 Q82.0313,574.3359 82.0313,573.0547 L82.0313,571.8984 Q82.0313,570.5703 82.6406,569.4297 Q83.2656,568.2734 84.3594,567.6641 Q85.4531,567.0391 86.6875,567.0391 Q87.4219,567.0391 88.0625,567.2109 Q88.7188,567.3672 89.2656,567.7266 Z " fill="#000000"/><text fill="#000000" font-family="sans-serif" font-size="12" font-style="italic" lengthAdjust="spacing" textLength="76" x="121" y="567.957">&#171;component&#187;</text><text fill="#000000" font-family="sans-serif" font-size="14" lengthAdjust="spacing" textLength="117" x="100.5" y="585.127">LanguageSwitcher</text><line style="stroke:#181818;stroke-width:0.5;" x1="72.5" x2="219.5" y1="593.2031" y2="593.2031"/><line style="stroke:#181818;stroke-width:0.5;" x1="72.5" x2="219.5" y1="601.2031" y2="601.2031"/></g><!--class LogoutButton--><g id="elem_LogoutButton"><rect codeLine="21" fill="#F1F1F1" height="58.7031" id="LogoutButton" rx="2.5" ry="2.5" style="stroke:#181818;stroke-width:0.5;" width="117" x="280.5" y="550.5"/><ellipse cx="295.5" cy="571.8516" fill="#ADD1B2" rx="11" ry="11" style="stroke:#181818;stroke-width:1.0;"/><path d="M298.2656,567.7266 Q298.4219,567.5078 298.6094,567.3984 Q298.7969,567.2891 299.0156,567.2891 Q299.3906,567.2891 299.625,567.5547 Q299.8594,567.8047 299.8594,568.4141 L299.8594,569.8672 Q299.8594,570.4766 299.625,570.7422 Q299.3906,571.0078 299.0156,571.0078 Q298.6719,571.0078 298.4688,570.8047 Q298.2656,570.6172 298.1563,570.1016 Q298.1094,569.7422 297.9219,569.5547 Q297.5938,569.1797 296.9844,568.9609 Q296.375,568.7422 295.75,568.7422 Q294.9844,568.7422 294.3438,569.0703 Q293.7188,569.3984 293.2188,570.1484 Q292.7344,570.8984 292.7344,571.9297 L292.7344,573.0234 Q292.7344,574.2578 293.625,575.0859 Q294.5156,575.8984 296.1094,575.8984 Q297.0469,575.8984 297.7031,575.6484 Q298.0938,575.4922 298.5156,575.0547 Q298.7813,574.7891 298.9219,574.7109 Q299.0781,574.6328 299.2813,574.6328 Q299.6094,574.6328 299.8594,574.8984 Q300.125,575.1484 300.125,575.4922 Q300.125,575.8359 299.7813,576.2422 Q299.2813,576.8203 298.4844,577.1484 Q297.4063,577.6016 296.1094,577.6016 Q294.5938,577.6016 293.3906,576.9766 Q292.4063,576.4766 291.7188,575.4141 Q291.0313,574.3359 291.0313,573.0547 L291.0313,571.8984 Q291.0313,570.5703 291.6406,569.4297 Q292.2656,568.2734 293.3594,567.6641 Q294.4531,567.0391 295.6875,567.0391 Q296.4219,567.0391 297.0625,567.2109 Q297.7188,567.3672 298.2656,567.7266 Z " fill="#000000"/><text fill="#000000" font-family="sans-serif" font-size="12" font-style="italic" lengthAdjust="spacing" textLength="76" x="314" y="567.957">&#171;component&#187;</text><text fill="#000000" font-family="sans-serif" font-size="14" lengthAdjust="spacing" textLength="85" x="309.5" y="585.127">LogoutButton</text><line style="stroke:#181818;stroke-width:0.5;" x1="281.5" x2="396.5" y1="593.2031" y2="593.2031"/><line style="stroke:#181818;stroke-width:0.5;" x1="281.5" x2="396.5" y1="601.2031" y2="601.2031"/></g><!--class PreventiveAction--><g id="elem_PreventiveAction"><rect codeLine="34" fill="#F1F1F1" height="234.7969" id="PreventiveAction" rx="2.5" ry="2.5" style="stroke:#181818;stroke-width:0.5;" width="171" x="929.5" y="964.5"/><ellipse cx="959.35" cy="985.8516" fill="#ADD1B2" rx="11" ry="11" style="stroke:#181818;stroke-width:1.0;"/><path d="M962.1156,981.7266 Q962.2719,981.5078 962.4594,981.3984 Q962.6469,981.2891 962.8656,981.2891 Q963.2406,981.2891 963.475,981.5547 Q963.7094,981.8047 963.7094,982.4141 L963.7094,983.8672 Q963.7094,984.4766 963.475,984.7422 Q963.2406,985.0078 962.8656,985.0078 Q962.5219,985.0078 962.3188,984.8047 Q962.1156,984.6172 962.0063,984.1016 Q961.9594,983.7422 961.7719,983.5547 Q961.4438,983.1797 960.8344,982.9609 Q960.225,982.7422 959.6,982.7422 Q958.8344,982.7422 958.1938,983.0703 Q957.5688,983.3984 957.0688,984.1484 Q956.5844,984.8984 956.5844,985.9297 L956.5844,987.0234 Q956.5844,988.2578 957.475,989.0859 Q958.3656,989.8984 959.9594,989.8984 Q960.8969,989.8984 961.5531,989.6484 Q961.9438,989.4922 962.3656,989.0547 Q962.6313,988.7891 962.7719,988.7109 Q962.9281,988.6328 963.1313,988.6328 Q963.4594,988.6328 963.7094,988.8984 Q963.975,989.1484 963.975,989.4922 Q963.975,989.8359 963.6313,990.2422 Q963.1313,990.8203 962.3344,991.1484 Q961.2563,991.6016 959.9594,991.6016 Q958.4438,991.6016 957.2406,990.9766 Q956.2563,990.4766 955.5688,989.4141 Q954.8813,988.3359 954.8813,987.0547 L954.8813,985.8984 Q954.8813,984.5703 955.4906,983.4297 Q956.1156,982.2734 957.2094,981.6641 Q958.3031,981.0391 959.5375,981.0391 Q960.2719,981.0391 960.9125,981.2109 Q961.5688,981.3672 962.1156,981.7266 Z " fill="#000000"/><text fill="#000000" font-family="sans-serif" font-size="12" font-style="italic" lengthAdjust="spacing" textLength="43" x="1008.15" y="981.957">&#171;entity&#187;</text><text fill="#000000" font-family="sans-serif" font-size="14" lengthAdjust="spacing" textLength="106" x="976.65" y="999.127">PreventiveAction</text><line style="stroke:#181818;stroke-width:0.5;" x1="930.5" x2="1099.5" y1="1007.2031" y2="1007.2031"/><rect fill="none" height="6" style="stroke:#C82930;stroke-width:1.0;" width="6" x="937.5" y="1018.5078"/><text fill="#000000" font-family="sans-serif" font-size="14" lengthAdjust="spacing" textLength="68" x="949.5" y="1025.7363">id: Number</text><rect fill="none" height="6" style="stroke:#C82930;stroke-width:1.0;" width="6" x="937.5" y="1036.1172"/><text fill="#000000" font-family="sans-serif" font-size="14" lengthAdjust="spacing" textLength="145" x="949.5" y="1043.3457">organizationId: Number</text><rect fill="none" height="6" style="stroke:#C82930;stroke-width:1.0;" width="6" x="937.5" y="1053.7266"/><text fill="#000000" font-family="sans-serif" font-size="14" lengthAdjust="spacing" textLength="134" x="949.5" y="1060.9551">supervisorId: Number</text><rect fill="none" height="6" style="stroke:#C82930;stroke-width:1.0;" width="6" x="937.5" y="1071.3359"/><text fill="#000000" font-family="sans-serif" font-size="14" lengthAdjust="spacing" textLength="96" x="949.5" y="1078.5645">userId: Number</text><rect fill="none" height="6" style="stroke:#C82930;stroke-width:1.0;" width="6" x="937.5" y="1088.9453"/><text fill="#000000" font-family="sans-serif" font-size="14" lengthAdjust="spacing" textLength="70" x="949.5" y="1096.1738">type: string</text><rect fill="none" height="6" style="stroke:#C82930;stroke-width:1.0;" width="6" x="937.5" y="1106.5547"/><text fill="#000000" font-family="sans-serif" font-size="14" lengthAdjust="spacing" textLength="81" x="949.5" y="1113.7832">status: string</text><rect fill="none" height="6" style="stroke:#C82930;stroke-width:1.0;" width="6" x="937.5" y="1124.1641"/><text fill="#000000" font-family="sans-serif" font-size="14" lengthAdjust="spacing" textLength="78" x="949.5" y="1131.3926">notes: string</text><rect fill="none" height="6" style="stroke:#C82930;stroke-width:1.0;" width="6" x="937.5" y="1141.7734"/><text fill="#000000" font-family="sans-serif" font-size="14" lengthAdjust="spacing" textLength="99" x="949.5" y="1149.002">createdAt: Date</text><rect fill="none" height="6" style="stroke:#C82930;stroke-width:1.0;" width="6" x="937.5" y="1159.3828"/><text fill="#000000" font-family="sans-serif" font-size="14" lengthAdjust="spacing" textLength="116" x="949.5" y="1166.6113">completedAt: Date</text><line style="stroke:#181818;stroke-width:0.5;" x1="930.5" x2="1099.5" y1="1173.6875" y2="1173.6875"/><ellipse cx="940.5" cy="1187.9922" fill="#84BE84" rx="3" ry="3" style="stroke:#038048;stroke-width:1.0;"/><text fill="#000000" font-family="sans-serif" font-size="14" lengthAdjust="spacing" textLength="109" x="949.5" y="1192.2207">constructor(data)</text></g><!--class RecoveryPlan--><g id="elem_RecoveryPlan"><rect codeLine="47" fill="#F1F1F1" height="164.3594" id="RecoveryPlan" rx="2.5" ry="2.5" style="stroke:#181818;stroke-width:0.5;" width="210" x="920" y="737"/><ellipse cx="976.75" cy="758.3516" fill="#ADD1B2" rx="11" ry="11" style="stroke:#181818;stroke-width:1.0;"/><path d="M979.5156,754.2266 Q979.6719,754.0078 979.8594,753.8984 Q980.0469,753.7891 980.2656,753.7891 Q980.6406,753.7891 980.875,754.0547 Q981.1094,754.3047 981.1094,754.9141 L981.1094,756.3672 Q981.1094,756.9766 980.875,757.2422 Q980.6406,757.5078 980.2656,757.5078 Q979.9219,757.5078 979.7188,757.3047 Q979.5156,757.1172 979.4063,756.6016 Q979.3594,756.2422 979.1719,756.0547 Q978.8438,755.6797 978.2344,755.4609 Q977.625,755.2422 977,755.2422 Q976.2344,755.2422 975.5938,755.5703 Q974.9688,755.8984 974.4688,756.6484 Q973.9844,757.3984 973.9844,758.4297 L973.9844,759.5234 Q973.9844,760.7578 974.875,761.5859 Q975.7656,762.3984 977.3594,762.3984 Q978.2969,762.3984 978.9531,762.1484 Q979.3438,761.9922 979.7656,761.5547 Q980.0313,761.2891 980.1719,761.2109 Q980.3281,761.1328 980.5313,761.1328 Q980.8594,761.1328 981.1094,761.3984 Q981.375,761.6484 981.375,761.9922 Q981.375,762.3359 981.0313,762.7422 Q980.5313,763.3203 979.7344,763.6484 Q978.6563,764.1016 977.3594,764.1016 Q975.8438,764.1016 974.6406,763.4766 Q973.6563,762.9766 972.9688,761.9141 Q972.2813,760.8359 972.2813,759.5547 L972.2813,758.3984 Q972.2813,757.0703 972.8906,755.9297 Q973.5156,754.7734 974.6094,754.1641 Q975.7031,753.5391 976.9375,753.5391 Q977.6719,753.5391 978.3125,753.7109 Q978.9688,753.8672 979.5156,754.2266 Z " fill="#000000"/><text fill="#000000" font-family="sans-serif" font-size="12" font-style="italic" lengthAdjust="spacing" textLength="43" x="1019.75" y="754.457">&#171;entity&#187;</text><text fill="#000000" font-family="sans-serif" font-size="14" lengthAdjust="spacing" textLength="88" x="997.25" y="771.627">RecoveryPlan</text><line style="stroke:#181818;stroke-width:0.5;" x1="921" x2="1129" y1="779.7031" y2="779.7031"/><rect fill="none" height="6" style="stroke:#C82930;stroke-width:1.0;" width="6" x="928" y="791.0078"/><text fill="#000000" font-family="sans-serif" font-size="14" lengthAdjust="spacing" textLength="68" x="940" y="798.2363">id: Number</text><rect fill="none" height="6" style="stroke:#C82930;stroke-width:1.0;" width="6" x="928" y="808.6172"/><text fill="#000000" font-family="sans-serif" font-size="14" lengthAdjust="spacing" textLength="145" x="940" y="815.8457">medicalStaffId: Number</text><rect fill="none" height="6" style="stroke:#C82930;stroke-width:1.0;" width="6" x="928" y="826.2266"/><text fill="#000000" font-family="sans-serif" font-size="14" lengthAdjust="spacing" textLength="112" x="940" y="833.4551">description: string</text><rect fill="none" height="6" style="stroke:#C82930;stroke-width:1.0;" width="6" x="928" y="843.8359"/><text fill="#000000" font-family="sans-serif" font-size="14" lengthAdjust="spacing" textLength="184" x="940" y="851.0645">suggestedRestDays: Number</text><rect fill="none" height="6" style="stroke:#C82930;stroke-width:1.0;" width="6" x="928" y="861.4453"/><text fill="#000000" font-family="sans-serif" font-size="14" lengthAdjust="spacing" textLength="81" x="940" y="868.6738">status: string</text><line style="stroke:#181818;stroke-width:0.5;" x1="921" x2="1129" y1="875.75" y2="875.75"/><ellipse cx="931" cy="890.0547" fill="#84BE84" rx="3" ry="3" style="stroke:#038048;stroke-width:1.0;"/><text fill="#000000" font-family="sans-serif" font-size="14" lengthAdjust="spacing" textLength="109" x="940" y="894.2832">constructor(data)</text></g><!--class RecoveryApi--><g id="elem_RecoveryApi"><rect codeLine="58" fill="#F1F1F1" height="171.2656" id="RecoveryApi" rx="2.5" ry="2.5" style="stroke:#181818;stroke-width:0.5;" width="238" x="1190" y="733.5"/><ellipse cx="1264.75" cy="749.5" fill="#ADD1B2" rx="11" ry="11" style="stroke:#181818;stroke-width:1.0;"/><path d="M1267.5156,745.375 Q1267.6719,745.1563 1267.8594,745.0469 Q1268.0469,744.9375 1268.2656,744.9375 Q1268.6406,744.9375 1268.875,745.2031 Q1269.1094,745.4531 1269.1094,746.0625 L1269.1094,747.5156 Q1269.1094,748.125 1268.875,748.3906 Q1268.6406,748.6563 1268.2656,748.6563 Q1267.9219,748.6563 1267.7188,748.4531 Q1267.5156,748.2656 1267.4063,747.75 Q1267.3594,747.3906 1267.1719,747.2031 Q1266.8438,746.8281 1266.2344,746.6094 Q1265.625,746.3906 1265,746.3906 Q1264.2344,746.3906 1263.5938,746.7188 Q1262.9688,747.0469 1262.4688,747.7969 Q1261.9844,748.5469 1261.9844,749.5781 L1261.9844,750.6719 Q1261.9844,751.9063 1262.875,752.7344 Q1263.7656,753.5469 1265.3594,753.5469 Q1266.2969,753.5469 1266.9531,753.2969 Q1267.3438,753.1406 1267.7656,752.7031 Q1268.0313,752.4375 1268.1719,752.3594 Q1268.3281,752.2813 1268.5313,752.2813 Q1268.8594,752.2813 1269.1094,752.5469 Q1269.375,752.7969 1269.375,753.1406 Q1269.375,753.4844 1269.0313,753.8906 Q1268.5313,754.4688 1267.7344,754.7969 Q1266.6563,755.25 1265.3594,755.25 Q1263.8438,755.25 1262.6406,754.625 Q1261.6563,754.125 1260.9688,753.0625 Q1260.2813,751.9844 1260.2813,750.7031 L1260.2813,749.5469 Q1260.2813,748.2188 1260.8906,747.0781 Q1261.5156,745.9219 1262.6094,745.3125 Q1263.7031,744.6875 1264.9375,744.6875 Q1265.6719,744.6875 1266.3125,744.8594 Q1266.9688,745.0156 1267.5156,745.375 Z " fill="#000000"/><text fill="#000000" font-family="sans-serif" font-size="14" lengthAdjust="spacing" textLength="80" x="1285.25" y="755.2285">RecoveryApi</text><line style="stroke:#181818;stroke-width:0.5;" x1="1191" x2="1427" y1="765.5" y2="765.5"/><line style="stroke:#181818;stroke-width:0.5;" x1="1191" x2="1427" y1="773.5" y2="773.5"/><ellipse cx="1201" cy="787.8047" fill="#84BE84" rx="3" ry="3" style="stroke:#038048;stroke-width:1.0;"/><text fill="#000000" font-family="sans-serif" font-size="14" lengthAdjust="spacing" textLength="161" x="1210" y="792.0332">actions(params): Promise</text><ellipse cx="1201" cy="805.4141" fill="#84BE84" rx="3" ry="3" style="stroke:#038048;stroke-width:1.0;"/><text fill="#000000" font-family="sans-serif" font-size="14" lengthAdjust="spacing" textLength="198" x="1210" y="809.6426">createAction(payload): Promise</text><ellipse cx="1201" cy="823.0234" fill="#84BE84" rx="3" ry="3" style="stroke:#038048;stroke-width:1.0;"/><text fill="#000000" font-family="sans-serif" font-size="14" lengthAdjust="spacing" textLength="212" x="1210" y="827.252">patchAction(id, payload): Promise</text><ellipse cx="1201" cy="840.6328" fill="#84BE84" rx="3" ry="3" style="stroke:#038048;stroke-width:1.0;"/><text fill="#000000" font-family="sans-serif" font-size="14" lengthAdjust="spacing" textLength="150" x="1210" y="844.8613">plans(params): Promise</text><ellipse cx="1201" cy="858.2422" fill="#84BE84" rx="3" ry="3" style="stroke:#038048;stroke-width:1.0;"/><text fill="#000000" font-family="sans-serif" font-size="14" lengthAdjust="spacing" textLength="150" x="1210" y="862.4707">acceptPlan(id): Promise</text><ellipse cx="1201" cy="875.8516" fill="#84BE84" rx="3" ry="3" style="stroke:#038048;stroke-width:1.0;"/><text fill="#000000" font-family="sans-serif" font-size="14" lengthAdjust="spacing" textLength="143" x="1210" y="880.0801">rejectPlan(id): Promise</text><ellipse cx="1201" cy="893.4609" fill="#84BE84" rx="3" ry="3" style="stroke:#038048;stroke-width:1.0;"/><text fill="#000000" font-family="sans-serif" font-size="14" lengthAdjust="spacing" textLength="154" x="1210" y="897.6895">confirmPlan(id): Promise</text></g><!--class RecoveryStore--><g id="elem_RecoveryStore"><rect codeLine="72" fill="#F1F1F1" height="93.9219" id="RecoveryStore" rx="2.5" ry="2.5" style="stroke:#181818;stroke-width:0.5;" width="193" x="928.5" y="533"/><ellipse cx="973.75" cy="554.3516" fill="#ADD1B2" rx="11" ry="11" style="stroke:#181818;stroke-width:1.0;"/><path d="M976.5156,550.2266 Q976.6719,550.0078 976.8594,549.8984 Q977.0469,549.7891 977.2656,549.7891 Q977.6406,549.7891 977.875,550.0547 Q978.1094,550.3047 978.1094,550.9141 L978.1094,552.3672 Q978.1094,552.9766 977.875,553.2422 Q977.6406,553.5078 977.2656,553.5078 Q976.9219,553.5078 976.7188,553.3047 Q976.5156,553.1172 976.4063,552.6016 Q976.3594,552.2422 976.1719,552.0547 Q975.8438,551.6797 975.2344,551.4609 Q974.625,551.2422 974,551.2422 Q973.2344,551.2422 972.5938,551.5703 Q971.9688,551.8984 971.4688,552.6484 Q970.9844,553.3984 970.9844,554.4297 L970.9844,555.5234 Q970.9844,556.7578 971.875,557.5859 Q972.7656,558.3984 974.3594,558.3984 Q975.2969,558.3984 975.9531,558.1484 Q976.3438,557.9922 976.7656,557.5547 Q977.0313,557.2891 977.1719,557.2109 Q977.3281,557.1328 977.5313,557.1328 Q977.8594,557.1328 978.1094,557.3984 Q978.375,557.6484 978.375,557.9922 Q978.375,558.3359 978.0313,558.7422 Q977.5313,559.3203 976.7344,559.6484 Q975.6563,560.1016 974.3594,560.1016 Q972.8438,560.1016 971.6406,559.4766 Q970.6563,558.9766 969.9688,557.9141 Q969.2813,556.8359 969.2813,555.5547 L969.2813,554.3984 Q969.2813,553.0703 969.8906,551.9297 Q970.5156,550.7734 971.6094,550.1641 Q972.7031,549.5391 973.9375,549.5391 Q974.6719,549.5391 975.3125,549.7109 Q975.9688,549.8672 976.5156,550.2266 Z " fill="#000000"/><text fill="#000000" font-family="sans-serif" font-size="12" font-style="italic" lengthAdjust="spacing" textLength="41" x="1020.75" y="550.457">&#171;store&#187;</text><text fill="#000000" font-family="sans-serif" font-size="14" lengthAdjust="spacing" textLength="94" x="994.25" y="567.627">RecoveryStore</text><line style="stroke:#181818;stroke-width:0.5;" x1="929.5" x2="1120.5" y1="575.7031" y2="575.7031"/><rect fill="none" height="6" style="stroke:#C82930;stroke-width:1.0;" width="6" x="936.5" y="587.0078"/><text fill="#000000" font-family="sans-serif" font-size="14" lengthAdjust="spacing" textLength="167" x="948.5" y="594.2363">actions: PreventiveAction[]</text><line style="stroke:#181818;stroke-width:0.5;" x1="929.5" x2="1120.5" y1="601.3125" y2="601.3125"/><ellipse cx="939.5" cy="615.6172" fill="#84BE84" rx="3" ry="3" style="stroke:#038048;stroke-width:1.0;"/><text fill="#000000" font-family="sans-serif" font-size="14" lengthAdjust="spacing" textLength="130" x="948.5" y="619.8457">loadActions(params)</text></g><!--class DoctorRecovery--><g id="elem_DoctorRecovery"><rect codeLine="81" fill="#F1F1F1" height="129.1406" id="DoctorRecovery" rx="2.5" ry="2.5" style="stroke:#181818;stroke-width:0.5;" width="160" x="1170" y="319"/><ellipse cx="1196.7" cy="340.3516" fill="#ADD1B2" rx="11" ry="11" style="stroke:#181818;stroke-width:1.0;"/><path d="M1199.4656,336.2266 Q1199.6219,336.0078 1199.8094,335.8984 Q1199.9969,335.7891 1200.2156,335.7891 Q1200.5906,335.7891 1200.825,336.0547 Q1201.0594,336.3047 1201.0594,336.9141 L1201.0594,338.3672 Q1201.0594,338.9766 1200.825,339.2422 Q1200.5906,339.5078 1200.2156,339.5078 Q1199.8719,339.5078 1199.6688,339.3047 Q1199.4656,339.1172 1199.3563,338.6016 Q1199.3094,338.2422 1199.1219,338.0547 Q1198.7938,337.6797 1198.1844,337.4609 Q1197.575,337.2422 1196.95,337.2422 Q1196.1844,337.2422 1195.5438,337.5703 Q1194.9188,337.8984 1194.4188,338.6484 Q1193.9344,339.3984 1193.9344,340.4297 L1193.9344,341.5234 Q1193.9344,342.7578 1194.825,343.5859 Q1195.7156,344.3984 1197.3094,344.3984 Q1198.2469,344.3984 1198.9031,344.1484 Q1199.2938,343.9922 1199.7156,343.5547 Q1199.9813,343.2891 1200.1219,343.2109 Q1200.2781,343.1328 1200.4813,343.1328 Q1200.8094,343.1328 1201.0594,343.3984 Q1201.325,343.6484 1201.325,343.9922 Q1201.325,344.3359 1200.9813,344.7422 Q1200.4813,345.3203 1199.6844,345.6484 Q1198.6063,346.1016 1197.3094,346.1016 Q1195.7938,346.1016 1194.5906,345.4766 Q1193.6063,344.9766 1192.9188,343.9141 Q1192.2313,342.8359 1192.2313,341.5547 L1192.2313,340.3984 Q1192.2313,339.0703 1192.8406,337.9297 Q1193.4656,336.7734 1194.5594,336.1641 Q1195.6531,335.5391 1196.8875,335.5391 Q1197.6219,335.5391 1198.2625,335.7109 Q1198.9188,335.8672 1199.4656,336.2266 Z " fill="#000000"/><text fill="#000000" font-family="sans-serif" font-size="12" font-style="italic" lengthAdjust="spacing" textLength="38" x="1245.3" y="336.457">&#171;view&#187;</text><text fill="#000000" font-family="sans-serif" font-size="14" lengthAdjust="spacing" textLength="102" x="1213.3" y="353.627">DoctorRecovery</text><line style="stroke:#181818;stroke-width:0.5;" x1="1171" x2="1329" y1="361.7031" y2="361.7031"/><rect fill="none" height="6" style="stroke:#C82930;stroke-width:1.0;" width="6" x="1178" y="373.0078"/><text fill="#000000" font-family="sans-serif" font-size="14" lengthAdjust="spacing" textLength="134" x="1190" y="380.2363">store: RecoveryStore</text><line style="stroke:#181818;stroke-width:0.5;" x1="1171" x2="1329" y1="387.3125" y2="387.3125"/><ellipse cx="1181" cy="401.6172" fill="#84BE84" rx="3" ry="3" style="stroke:#038048;stroke-width:1.0;"/><text fill="#000000" font-family="sans-serif" font-size="14" lengthAdjust="spacing" textLength="67" x="1190" y="405.8457">complete()</text><ellipse cx="1181" cy="419.2266" fill="#84BE84" rx="3" ry="3" style="stroke:#038048;stroke-width:1.0;"/><text fill="#000000" font-family="sans-serif" font-size="14" lengthAdjust="spacing" textLength="80" x="1190" y="423.4551">acceptPlan()</text><ellipse cx="1181" cy="436.8359" fill="#84BE84" rx="3" ry="3" style="stroke:#038048;stroke-width:1.0;"/><text fill="#000000" font-family="sans-serif" font-size="14" lengthAdjust="spacing" textLength="73" x="1190" y="441.0645">rejectPlan()</text></g><!--class PreventiveActionsManagement--><g id="elem_PreventiveActionsManagement"><rect codeLine="88" fill="#F1F1F1" height="146.75" id="PreventiveActionsManagement" rx="2.5" ry="2.5" style="stroke:#181818;stroke-width:0.5;" width="227" x="882.5" y="310"/><ellipse cx="897.5" cy="331.3516" fill="#ADD1B2" rx="11" ry="11" style="stroke:#181818;stroke-width:1.0;"/><path d="M900.2656,327.2266 Q900.4219,327.0078 900.6094,326.8984 Q900.7969,326.7891 901.0156,326.7891 Q901.3906,326.7891 901.625,327.0547 Q901.8594,327.3047 901.8594,327.9141 L901.8594,329.3672 Q901.8594,329.9766 901.625,330.2422 Q901.3906,330.5078 901.0156,330.5078 Q900.6719,330.5078 900.4688,330.3047 Q900.2656,330.1172 900.1563,329.6016 Q900.1094,329.2422 899.9219,329.0547 Q899.5938,328.6797 898.9844,328.4609 Q898.375,328.2422 897.75,328.2422 Q896.9844,328.2422 896.3438,328.5703 Q895.7188,328.8984 895.2188,329.6484 Q894.7344,330.3984 894.7344,331.4297 L894.7344,332.5234 Q894.7344,333.7578 895.625,334.5859 Q896.5156,335.3984 898.1094,335.3984 Q899.0469,335.3984 899.7031,335.1484 Q900.0938,334.9922 900.5156,334.5547 Q900.7813,334.2891 900.9219,334.2109 Q901.0781,334.1328 901.2813,334.1328 Q901.6094,334.1328 901.8594,334.3984 Q902.125,334.6484 902.125,334.9922 Q902.125,335.3359 901.7813,335.7422 Q901.2813,336.3203 900.4844,336.6484 Q899.4063,337.1016 898.1094,337.1016 Q896.5938,337.1016 895.3906,336.4766 Q894.4063,335.9766 893.7188,334.9141 Q893.0313,333.8359 893.0313,332.5547 L893.0313,331.3984 Q893.0313,330.0703 893.6406,328.9297 Q894.2656,327.7734 895.3594,327.1641 Q896.4531,326.5391 897.6875,326.5391 Q898.4219,326.5391 899.0625,326.7109 Q899.7188,326.8672 900.2656,327.2266 Z " fill="#000000"/><text fill="#000000" font-family="sans-serif" font-size="12" font-style="italic" lengthAdjust="spacing" textLength="38" x="990" y="327.457">&#171;view&#187;</text><text fill="#000000" font-family="sans-serif" font-size="14" lengthAdjust="spacing" textLength="195" x="911.5" y="344.627">PreventiveActionsManagement</text><line style="stroke:#181818;stroke-width:0.5;" x1="883.5" x2="1108.5" y1="352.7031" y2="352.7031"/><rect fill="none" height="6" style="stroke:#C82930;stroke-width:1.0;" width="6" x="890.5" y="364.0078"/><text fill="#000000" font-family="sans-serif" font-size="14" lengthAdjust="spacing" textLength="134" x="902.5" y="371.2363">store: RecoveryStore</text><line style="stroke:#181818;stroke-width:0.5;" x1="883.5" x2="1108.5" y1="378.3125" y2="378.3125"/><ellipse cx="893.5" cy="392.6172" fill="#84BE84" rx="3" ry="3" style="stroke:#038048;stroke-width:1.0;"/><text fill="#000000" font-family="sans-serif" font-size="14" lengthAdjust="spacing" textLength="89" x="902.5" y="396.8457">createAction()</text><ellipse cx="893.5" cy="410.2266" fill="#84BE84" rx="3" ry="3" style="stroke:#038048;stroke-width:1.0;"/><text fill="#000000" font-family="sans-serif" font-size="14" lengthAdjust="spacing" textLength="67" x="902.5" y="414.4551">complete()</text><ellipse cx="893.5" cy="427.8359" fill="#84BE84" rx="3" ry="3" style="stroke:#038048;stroke-width:1.0;"/><text fill="#000000" font-family="sans-serif" font-size="14" lengthAdjust="spacing" textLength="51" x="902.5" y="432.0645">cancel()</text><ellipse cx="893.5" cy="445.4453" fill="#84BE84" rx="3" ry="3" style="stroke:#038048;stroke-width:1.0;"/><text fill="#000000" font-family="sans-serif" font-size="14" lengthAdjust="spacing" textLength="84" x="902.5" y="449.6738">confirmPlan()</text></g><!--reverse link AppLayout to AppSidebar--><g id="link_AppLayout_AppSidebar"><path codeLine="26" d="M279.66,160.5 C245.04,160.5 218,160.5 218,160.5 C218,160.5 218,293.23 218,353.89 " fill="none" id="AppLayout-backto-AppSidebar" style="stroke:#181818;stroke-width:1.0;"/><polygon fill="#181818" points="291.66,160.5,285.66,156.5,279.66,160.5,285.66,164.5,291.66,160.5" style="stroke:#181818;stroke-width:1.0;"/><polygon fill="#000000" points="157.4811,216.2995,163.0288,208.5746,157.4287,206.7891,157.4811,216.2995" style="stroke:#000000;stroke-width:1.0;"/><text fill="#000000" font-family="sans-serif" font-size="13" lengthAdjust="spacing" textLength="49" x="168" y="216.8551">contains</text></g><!--reverse link AppLayout to AppTopbar--><g id="link_AppLayout_AppTopbar"><path codeLine="27" d="M343,202.11 C343,244.76 343,311.04 343,353.76 " fill="none" id="AppLayout-backto-AppTopbar" style="stroke:#181818;stroke-width:1.0;"/><polygon fill="#181818" points="343,190.11,339,196.11,343,202.11,347,196.11,343,190.11" style="stroke:#181818;stroke-width:1.0;"/><polygon fill="#000000" points="284,268.1158,286.9389,259.0707,281.0611,259.0707,284,268.1158" style="stroke:#000000;stroke-width:1.0;"/><text fill="#000000" font-family="sans-serif" font-size="13" lengthAdjust="spacing" textLength="49" x="293" y="268.4351">contains</text></g><!--reverse link AppTopbar to LanguageSwitcher--><g id="link_AppTopbar_LanguageSwitcher"><path codeLine="28" d="M277.54,383.5 C259.27,383.5 255.25,383.5 255.25,383.5 C255.25,383.5 255.25,580.5 255.25,580.5 C255.25,580.5 239.89,580.5 220.68,580.5 " fill="none" id="AppTopbar-backto-LanguageSwitcher" style="stroke:#181818;stroke-width:1.0;"/><polygon fill="#181818" points="289.54,383.5,283.54,379.5,277.54,383.5,283.54,387.5,289.54,383.5" style="stroke:#181818;stroke-width:1.0;"/><polygon fill="#000000" points="194.8635,478.1197,200.1954,470.2443,194.5481,468.6143,194.8635,478.1197" style="stroke:#000000;stroke-width:1.0;"/><text fill="#000000" font-family="sans-serif" font-size="13" lengthAdjust="spacing" textLength="49" x="205.25" y="478.6351">contains</text></g><!--reverse link AppTopbar to LogoutButton--><g id="link_AppTopbar_LogoutButton"><path codeLine="29" d="M342,425.34 C342,462.38 342,513.18 342,550.2 " fill="none" id="AppTopbar-backto-LogoutButton" style="stroke:#181818;stroke-width:1.0;"/><polygon fill="#181818" points="342,413.34,338,419.34,342,425.34,346,419.34,342,413.34" style="stroke:#181818;stroke-width:1.0;"/><polygon fill="#000000" points="283,477.9458,285.9389,468.9007,280.0611,468.9007,283,477.9458" style="stroke:#000000;stroke-width:1.0;"/><text fill="#000000" font-family="sans-serif" font-size="13" lengthAdjust="spacing" textLength="49" x="292" y="478.2651">contains</text></g><!--link RecoveryApi to BaseEndpoint--><g id="link_RecoveryApi_BaseEndpoint"><path codeLine="68" d="M1379,733.25 C1379,554.92 1379,160.5 1379,160.5 C1379,160.5 959.06,160.5 796.12,160.5 " fill="none" id="RecoveryApi-to-BaseEndpoint" style="stroke:#181818;stroke-width:1.0;stroke-dasharray:7.0,7.0;"/><polygon fill="none" points="778.12,160.5,796.12,166.5,796.12,154.5,778.12,160.5" style="stroke:#181818;stroke-width:1.0;"/></g><!--link RecoveryStore to RecoveryApi--><g id="link_RecoveryStore_RecoveryApi"><path codeLine="77" d="M1121.6,596.5 C1186.42,596.5 1260,596.5 1260,596.5 C1260,596.5 1260,664.61 1260,727.29 " fill="none" id="RecoveryStore-to-RecoveryApi" style="stroke:#181818;stroke-width:1.0;"/><polygon fill="#181818" points="1260,733.29,1264,724.29,1260,728.29,1256,724.29,1260,733.29" style="stroke:#181818;stroke-width:1.0;"/></g><!--link DoctorRecovery to RecoveryStore--><g id="link_DoctorRecovery_RecoveryStore"><path codeLine="96" d="M1180,448.08 C1180,500.06 1180,564.5 1180,564.5 C1180,564.5 1159.17,564.5 1127.84,564.5 " fill="none" id="DoctorRecovery-to-RecoveryStore" style="stroke:#181818;stroke-width:1.0;"/><polygon fill="#181818" points="1121.84,564.5,1130.84,568.5,1126.84,564.5,1130.84,560.5,1121.84,564.5" style="stroke:#181818;stroke-width:1.0;"/></g><!--link PreventiveActionsManagement to RecoveryStore--><g id="link_PreventiveActionsManagement_RecoveryStore"><path codeLine="97" d="M1019,457.23 C1019,482.6 1019,504.31 1019,526.97 " fill="none" id="PreventiveActionsManagement-to-RecoveryStore" style="stroke:#181818;stroke-width:1.0;"/><polygon fill="#181818" points="1019,532.97,1023,523.97,1019,527.97,1015,523.97,1019,532.97" style="stroke:#181818;stroke-width:1.0;"/></g><!--link RecoveryPlan to PreventiveAction--><g id="link_RecoveryPlan_PreventiveAction"><path codeLine="101" d="M1015,909.13 C1015,929.18 1015,931.01 1015,952.36 " fill="none" id="RecoveryPlan-PreventiveAction" style="stroke:#181818;stroke-width:1.0;"/><line style="stroke:#181818;stroke-width:1.0;" x1="1011" x2="1019" y1="905.13" y2="905.13"/><line style="stroke:#181818;stroke-width:1.0;" x1="1011" x2="1019" y1="908.13" y2="908.13"/><line style="stroke:#181818;stroke-width:1.0;" x1="1015" x2="1015" y1="909.13" y2="901.13"/><polygon fill="none" points="1015,964.36,1019,958.36,1015,952.36,1011,958.36,1015,964.36" style="stroke:#181818;stroke-width:1.0;"/><polygon fill="#000000" points="957,928.9258,959.9389,919.8807,954.0611,919.8807,957,928.9258" style="stroke:#000000;stroke-width:1.0;"/><text fill="#000000" font-family="sans-serif" font-size="13" lengthAdjust="spacing" textLength="48" x="966" y="929.2451">includes</text></g><!--reverse link RecoveryStore to PreventiveAction--><g id="link_RecoveryStore_PreventiveAction"><path codeLine="102" d="M916.41,618.5 C900.59,618.5 901.25,618.5 901.25,618.5 C901.25,618.5 901.25,1082.5 901.25,1082.5 C901.25,1082.5 913.21,1082.5 929.37,1082.5 " fill="none" id="RecoveryStore-backto-PreventiveAction" style="stroke:#181818;stroke-width:1.0;"/><polygon fill="none" points="928.41,618.5,922.41,614.5,916.41,618.5,922.41,622.5,928.41,618.5" style="stroke:#181818;stroke-width:1.0;"/><polygon fill="#000000" points="838.3896,847.1538,841.0748,838.0302,835.1993,838.1943,838.3896,847.1538" style="stroke:#000000;stroke-width:1.0;"/><text fill="#000000" font-family="sans-serif" font-size="13" lengthAdjust="spacing" textLength="53" x="847.25" y="847.4751">manages</text></g><!--reverse link RecoveryStore to RecoveryPlan--><g id="link_RecoveryStore_RecoveryPlan"><path codeLine="103" d="M1025,639.22 C1025,670.37 1025,700.02 1025,736.55 " fill="none" id="RecoveryStore-backto-RecoveryPlan" style="stroke:#181818;stroke-width:1.0;"/><polygon fill="none" points="1025,627.22,1021,633.22,1025,639.22,1029,633.22,1025,627.22" style="stroke:#181818;stroke-width:1.0;"/><polygon fill="#000000" points="962,678.0558,964.9389,669.0107,959.0611,669.0107,962,678.0558" style="stroke:#000000;stroke-width:1.0;"/><text fill="#000000" font-family="sans-serif" font-size="13" lengthAdjust="spacing" textLength="53" x="971" y="678.3751">manages</text></g><!--link AppLayout to DoctorRecovery--><g id="link_AppLayout_DoctorRecovery"><path codeLine="106" d="M317.5,190.47 C317.5,216.65 317.5,250.5 317.5,250.5 C317.5,250.5 1250,250.5 1250,250.5 C1250,250.5 1250,279.06 1250,312.95 " fill="none" id="AppLayout-to-DoctorRecovery" style="stroke:#181818;stroke-width:1.0;stroke-dasharray:7.0,7.0;"/><polygon fill="#181818" points="1250,318.95,1254,309.95,1250,313.95,1246,309.95,1250,318.95" style="stroke:#181818;stroke-width:1.0;"/><polygon fill="#000000" points="739.9174,242.3269,731.3321,238.2351,730.5666,244.0629,739.9174,242.3269" style="stroke:#000000;stroke-width:1.0;"/><text fill="#000000" font-family="sans-serif" font-size="13" lengthAdjust="spacing" textLength="43" x="743.96" y="246.9951">renders</text></g><!--link AppLayout to PreventiveActionsManagement--><g id="link_AppLayout_PreventiveActionsManagement"><path codeLine="107" d="M368.5,190.07 C368.5,239.25 368.5,332.5 368.5,332.5 C368.5,332.5 695.54,332.5 876.36,332.5 " fill="none" id="AppLayout-to-PreventiveActionsManagement" style="stroke:#181818;stroke-width:1.0;stroke-dasharray:7.0,7.0;"/><polygon fill="#181818" points="882.36,332.5,873.36,328.5,877.36,332.5,873.36,336.5,882.36,332.5" style="stroke:#181818;stroke-width:1.0;"/><polygon fill="#000000" points="506.0343,325.0259,498.1188,319.7537,496.5316,325.4132,506.0343,325.0259" style="stroke:#000000;stroke-width:1.0;"/><text fill="#000000" font-family="sans-serif" font-size="13" lengthAdjust="spacing" textLength="43" x="510.22" y="328.9951">renders</text></g><!--SRC=[fLPTRzem57tlhx3wCbW7sjCU8XI9bacjr4rLcVOoJPNhNC1hObksGylM_lTT9v3O8GQqvO4FtsF7vzpZUssUk51KquBaN83TA21IsvKyCqr0KVP4bp2tcno81cQfMERW0OJCm80YdpvwWvgAf-tWsNO5SZvVKGqPkPIboF3xIWeBB_QSK4DC7VfpHWXfy3TYeQcnkcIsrE3X7dWGgQUvX-NK67993NmMcP9Ss3Rs5eAkhLLaCfc-S6bkX45Q3DAq0wy-WZtTQIGhBBLS2dz7oXjl5sccNSb2IO40uqzYpMWxfTtXLAbRkf6bnMqso3Jj0PPsTI9IgJdFu97g4v3Vf3e1U8j-A9r1dhbbApYEbqlSw6LfBGhLYmsLVqUsjcaa9DSSDDLinS4uHAlJ-z78fvWGXXQZN1YIzWAt37jmsuZ3xH4y0lVv1T0t_oXOkbYGUs1o3NhJVoGSv47l8E7HcCa2LwrmEyH3Lerr3mCQTesYyJLCMMNEoSJzjHlVxEuP4Pubv6jPF88EnwLUKi5_Lzw-YM1CgK2lkP4wXYWDH6EkyYJ8M7EnxAoBHweq_J4XBKH2J0Era4rjGcRuenD49-KG2L-ubDMbHUf1HYqTjiOCfTsbxowd_o9h0HbdDA-i41C6IolJN3db8_gKooKOv7AFdpEwCP7qH6KyoBSXVQWcDmOyN9LtQaqL3nMw8BHofXbKlSCC4pIjBBZfvgNAQUrYX6voIRCOLb4ygrieppwGOt3CuB7NKyP0MPThN346ql0BM-GH40g-uBg8ebgV-PgDnwzfqDfwieEbA4TFDSsfIGrj0x6yp37_W3OsxdlVnTiS9Ni5vSVFa9tJUHecD4wiVkbebFfKUuZjjTs6MN_ZhQdDf3DrKsKdapM7vtrg5UCat5CtOtN560oZdXX6ZH2j7rqbpHSga6tXUjn_xDK_9iFJU31t-ydtqQrFUqXqrFMJ66ph4CtUILxlluUyognPSLKr-w3clhwEHdA_moM42vQNM3lh1XsQJMAJxfbIL9kApWZUwwFhVNx7PDKt5CEh1GSBFDExgqjzwwZFGNi96O_JheO9-WOl0dhlmkAmXtJq9xxz1G00]--></g></svg>