<?xml version="1.0" encoding="us-ascii" standalone="no"?><svg xmlns="http://www.w3.org/2000/svg" xmlns:xlink="http://www.w3.org/1999/xlink" contentStyleType="text/css" height="951px" preserveAspectRatio="none" style="width:3818px;height:951px;background:#FFFFFF;" version="1.1" viewBox="0 0 3818 951" width="3818px" zoomAndPan="magnify"><defs/><g><!--cluster Shared--><g id="cluster_Shared"><rect fill="#F0F4F8" height="502.5" rx="2.5" ry="2.5" style="stroke:#4A90E2;stroke-width:1.5;" width="2392" x="7" y="442.5"/><text fill="#000000" font-family="Arial" font-size="14" font-weight="bold" lengthAdjust="spacing" textLength="177" x="1114.5" y="457.6318">Shared Bounded Context</text></g><!--cluster SharedDomain--><g id="cluster_SharedDomain"><rect fill="#F0F4F8" height="168" rx="2.5" ry="2.5" style="stroke:#4A90E2;stroke-width:1.5;" width="1018" x="1357" y="753"/><text fill="#000000" font-family="Arial" font-size="14" font-weight="bold" lengthAdjust="spacing" textLength="52" x="1840" y="768.1318">Domain</text></g><!--cluster SharedInfra--><g id="cluster_SharedInfra"><rect fill="#F0F4F8" height="415" rx="2.5" ry="2.5" style="stroke:#4A90E2;stroke-width:1.5;" width="1302" x="31" y="485.5"/><text fill="#000000" font-family="Arial" font-size="14" font-weight="bold" lengthAdjust="spacing" textLength="97" x="633.5" y="500.6318">Infrastructure</text></g><!--cluster StaffRecovery--><g id="cluster_StaffRecovery"><rect fill="#F0F4F8" height="701" rx="2.5" ry="2.5" style="stroke:#4A90E2;stroke-width:1.5;" width="1389" x="2423" y="7"/><text fill="#000000" font-family="Arial" font-size="14" font-weight="bold" lengthAdjust="spacing" textLength="230" x="3002.5" y="22.1318">Staff Recovery Bounded Context</text></g><!--cluster StaffDomain--><g id="cluster_StaffDomain"><rect fill="#F0F4F8" height="411" rx="2.5" ry="2.5" style="stroke:#4A90E2;stroke-width:1.5;" width="1321" x="2467" y="273"/><text fill="#000000" font-family="Arial" font-size="14" font-weight="bold" lengthAdjust="spacing" textLength="52" x="3101.5" y="288.1318">Domain</text></g><!--cluster StaffInterfaces--><g id="cluster_StaffInterfaces"><rect fill="#F0F4F8" height="154" rx="2.5" ry="2.5" style="stroke:#4A90E2;stroke-width:1.5;" width="1341" x="2447" y="50"/><text fill="#000000" font-family="Arial" font-size="14" font-weight="bold" lengthAdjust="spacing" textLength="71" x="3082" y="65.1318">Interfaces</text></g><!--class IBaseRepository--><g id="elem_IBaseRepository"><rect codeLine="19" fill="#FDFDFD" height="116.9941" id="IBaseRepository" rx="2.5" ry="2.5" style="stroke:#181818;stroke-width:0.5;" width="372" x="1725" y="788"/><ellipse cx="1840.75" cy="804" fill="#B4A7E5" rx="11" ry="11" style="stroke:#181818;stroke-width:1.0;"/><path d="M1841.7031,800.6406 L1841.7031,807.2969 L1843.4219,807.2969 Q1844.0313,807.2969 1844.2969,807.5313 Q1844.5625,807.7656 1844.5625,808.1563 Q1844.5625,808.5313 1844.2969,808.7656 Q1844.0313,809 1843.4219,809 L1838.2813,809 Q1837.6719,809 1837.4063,808.7656 Q1837.1406,808.5313 1837.1406,808.1406 Q1837.1406,807.7656 1837.4063,807.5313 Q1837.6719,807.2969 1838.2813,807.2969 L1840,807.2969 L1840,800.6406 L1838.2813,800.6406 Q1837.6719,800.6406 1837.4063,800.4063 Q1837.1406,800.1719 1837.1406,799.7813 Q1837.1406,799.4063 1837.4063,799.1719 Q1837.6719,798.9375 1838.2813,798.9375 L1843.4219,798.9375 Q1844.0313,798.9375 1844.2969,799.1719 Q1844.5625,799.4063 1844.5625,799.7813 Q1844.5625,800.1719 1844.2969,800.4063 Q1844.0313,800.6406 1843.4219,800.6406 L1841.7031,800.6406 Z " fill="#000000"/><text fill="#000000" font-family="Arial" font-size="12" font-style="italic" lengthAdjust="spacing" textLength="91" x="1861.25" y="808.3564">IBaseRepository</text><rect fill="#FFFFFF" height="15.7988" style="stroke:#181818;stroke-width:1.0;stroke-dasharray:2.0,2.0;" width="39" x="2061" y="785"/><text fill="#000000" font-family="Arial" font-size="12" font-style="italic" lengthAdjust="spacing" textLength="37" x="2062" y="797.2559">TEntity</text><line style="stroke:#181818;stroke-width:0.5;" x1="1726" x2="2096" y1="820" y2="820"/><line style="stroke:#181818;stroke-width:0.5;" x1="1726" x2="2096" y1="828" y2="828"/><ellipse cx="1736" cy="840.3994" fill="#84BE84" rx="3" ry="3" style="stroke:#038048;stroke-width:1.0;"/><text fill="#000000" font-family="Arial" font-size="12" lengthAdjust="spacing" textLength="288" x="1745" y="843.2559">AddAsync(entity: TEntity, ct: CancellationToken): Task</text><ellipse cx="1736" cy="854.1982" fill="#84BE84" rx="3" ry="3" style="stroke:#038048;stroke-width:1.0;"/><text fill="#000000" font-family="Arial" font-size="12" lengthAdjust="spacing" textLength="330" x="1745" y="857.0547">FindByIdAsync(id: int, ct: CancellationToken): Task&lt;TEntity?&gt;</text><ellipse cx="1736" cy="867.9971" fill="#84BE84" rx="3" ry="3" style="stroke:#038048;stroke-width:1.0;"/><text fill="#000000" font-family="Arial" font-size="12" lengthAdjust="spacing" textLength="146" x="1745" y="870.8535">Update(entity: TEntity): void</text><ellipse cx="1736" cy="881.7959" fill="#84BE84" rx="3" ry="3" style="stroke:#038048;stroke-width:1.0;"/><text fill="#000000" font-family="Arial" font-size="12" lengthAdjust="spacing" textLength="152" x="1745" y="884.6523">Remove(entity: TEntity): void</text><ellipse cx="1736" cy="895.5947" fill="#84BE84" rx="3" ry="3" style="stroke:#038048;stroke-width:1.0;"/><text fill="#000000" font-family="Arial" font-size="12" lengthAdjust="spacing" textLength="346" x="1745" y="898.4512">ListAsync(ct: CancellationToken): Task&lt;IEnumerable&lt;TEntity&gt;&gt;</text></g><!--class IUnitOfWork--><g id="elem_IUnitOfWork"><rect codeLine="27" fill="#FDFDFD" height="61.7988" id="IUnitOfWork" rx="2.5" ry="2.5" style="stroke:#181818;stroke-width:0.5;" width="271" x="1373.5" y="815.5"/><ellipse cx="1471.25" cy="831.5" fill="#B4A7E5" rx="11" ry="11" style="stroke:#181818;stroke-width:1.0;"/><path d="M1472.2031,828.1406 L1472.2031,834.7969 L1473.9219,834.7969 Q1474.5313,834.7969 1474.7969,835.0313 Q1475.0625,835.2656 1475.0625,835.6563 Q1475.0625,836.0313 1474.7969,836.2656 Q1474.5313,836.5 1473.9219,836.5 L1468.7813,836.5 Q1468.1719,836.5 1467.9063,836.2656 Q1467.6406,836.0313 1467.6406,835.6406 Q1467.6406,835.2656 1467.9063,835.0313 Q1468.1719,834.7969 1468.7813,834.7969 L1470.5,834.7969 L1470.5,828.1406 L1468.7813,828.1406 Q1468.1719,828.1406 1467.9063,827.9063 Q1467.6406,827.6719 1467.6406,827.2813 Q1467.6406,826.9063 1467.9063,826.6719 Q1468.1719,826.4375 1468.7813,826.4375 L1473.9219,826.4375 Q1474.5313,826.4375 1474.7969,826.6719 Q1475.0625,826.9063 1475.0625,827.2813 Q1475.0625,827.6719 1474.7969,827.9063 Q1474.5313,828.1406 1473.9219,828.1406 L1472.2031,828.1406 Z " fill="#000000"/><text fill="#000000" font-family="Arial" font-size="12" font-style="italic" lengthAdjust="spacing" textLength="67" x="1491.75" y="835.8564">IUnitOfWork</text><line style="stroke:#181818;stroke-width:0.5;" x1="1374.5" x2="1643.5" y1="847.5" y2="847.5"/><line style="stroke:#181818;stroke-width:0.5;" x1="1374.5" x2="1643.5" y1="855.5" y2="855.5"/><ellipse cx="1384.5" cy="867.8994" fill="#84BE84" rx="3" ry="3" style="stroke:#038048;stroke-width:1.0;"/><text fill="#000000" font-family="Arial" font-size="12" lengthAdjust="spacing" textLength="245" x="1393.5" y="870.7559">CompleteAsync(ct: CancellationToken): Task</text></g><!--class IAuditableEntity--><g id="elem_IAuditableEntity"><rect codeLine="31" fill="#FDFDFD" height="81.1953" id="IAuditableEntity" rx="2.5" ry="2.5" style="stroke:#181818;stroke-width:0.5;" width="182" x="2177" y="806"/><ellipse cx="2220.35" cy="824.7988" fill="#B4A7E5" rx="11" ry="11" style="stroke:#181818;stroke-width:1.0;"/><path d="M2221.3031,821.4395 L2221.3031,828.0957 L2223.0219,828.0957 Q2223.6313,828.0957 2223.8969,828.3301 Q2224.1625,828.5645 2224.1625,828.9551 Q2224.1625,829.3301 2223.8969,829.5645 Q2223.6313,829.7988 2223.0219,829.7988 L2217.8813,829.7988 Q2217.2719,829.7988 2217.0063,829.5645 Q2216.7406,829.3301 2216.7406,828.9395 Q2216.7406,828.5645 2217.0063,828.3301 Q2217.2719,828.0957 2217.8813,828.0957 L2219.6,828.0957 L2219.6,821.4395 L2217.8813,821.4395 Q2217.2719,821.4395 2217.0063,821.2051 Q2216.7406,820.9707 2216.7406,820.5801 Q2216.7406,820.2051 2217.0063,819.9707 Q2217.2719,819.7363 2217.8813,819.7363 L2223.0219,819.7363 Q2223.6313,819.7363 2223.8969,819.9707 Q2224.1625,820.2051 2224.1625,820.5801 Q2224.1625,820.9707 2223.8969,821.2051 Q2223.6313,821.4395 2223.0219,821.4395 L2221.3031,821.4395 Z " fill="#000000"/><text fill="#000000" font-family="Arial" font-size="12" font-style="italic" lengthAdjust="spacing" textLength="44" x="2262.15" y="822.2559">&#171;Entity&#187;</text><text fill="#000000" font-family="Arial" font-size="12" font-style="italic" lengthAdjust="spacing" textLength="87" x="2240.65" y="836.0547">IAuditableEntity</text><line style="stroke:#181818;stroke-width:0.5;" x1="2178" x2="2358" y1="843.5977" y2="843.5977"/><ellipse cx="2188" cy="855.9971" fill="none" rx="3" ry="3" style="stroke:#038048;stroke-width:1.0;"/><text fill="#000000" font-family="Arial" font-size="12" lengthAdjust="spacing" textLength="153" x="2197" y="858.8535">CreatedAt: DateTimeOffset?</text><ellipse cx="2188" cy="869.7959" fill="none" rx="3" ry="3" style="stroke:#038048;stroke-width:1.0;"/><text fill="#000000" font-family="Arial" font-size="12" lengthAdjust="spacing" textLength="156" x="2197" y="872.6523">UpdatedAt: DateTimeOffset?</text><line style="stroke:#181818;stroke-width:0.5;" x1="2178" x2="2358" y1="879.1953" y2="879.1953"/></g><!--class AppDbContext--><g id="elem_AppDbContext"><rect codeLine="38" fill="#FDFDFD" height="75.5977" id="AppDbContext" rx="2.5" ry="2.5" style="stroke:#181818;stroke-width:0.5;" width="351" x="747.5" y="808.5"/><ellipse cx="879.75" cy="824.5" fill="#ADD1B2" rx="11" ry="11" style="stroke:#181818;stroke-width:1.0;"/><path d="M882.5156,820.375 Q882.6719,820.1563 882.8594,820.0469 Q883.0469,819.9375 883.2656,819.9375 Q883.6406,819.9375 883.875,820.2031 Q884.1094,820.4531 884.1094,821.0625 L884.1094,822.5156 Q884.1094,823.125 883.875,823.3906 Q883.6406,823.6563 883.2656,823.6563 Q882.9219,823.6563 882.7188,823.4531 Q882.5156,823.2656 882.4063,822.75 Q882.3594,822.3906 882.1719,822.2031 Q881.8438,821.8281 881.2344,821.6094 Q880.625,821.3906 880,821.3906 Q879.2344,821.3906 878.5938,821.7188 Q877.9688,822.0469 877.4688,822.7969 Q876.9844,823.5469 876.9844,824.5781 L876.9844,825.6719 Q876.9844,826.9063 877.875,827.7344 Q878.7656,828.5469 880.3594,828.5469 Q881.2969,828.5469 881.9531,828.2969 Q882.3438,828.1406 882.7656,827.7031 Q883.0313,827.4375 883.1719,827.3594 Q883.3281,827.2813 883.5313,827.2813 Q883.8594,827.2813 884.1094,827.5469 Q884.375,827.7969 884.375,828.1406 Q884.375,828.4844 884.0313,828.8906 Q883.5313,829.4688 882.7344,829.7969 Q881.6563,830.25 880.3594,830.25 Q878.8438,830.25 877.6406,829.625 Q876.6563,829.125 875.9688,828.0625 Q875.2813,826.9844 875.2813,825.7031 L875.2813,824.5469 Q875.2813,823.2188 875.8906,822.0781 Q876.5156,820.9219 877.6094,820.3125 Q878.7031,819.6875 879.9375,819.6875 Q880.6719,819.6875 881.3125,819.8594 Q881.9688,820.0156 882.5156,820.375 Z " fill="#000000"/><text fill="#000000" font-family="Arial" font-size="12" lengthAdjust="spacing" textLength="78" x="900.25" y="828.8564">AppDbContext</text><line style="stroke:#181818;stroke-width:0.5;" x1="748.5" x2="1097.5" y1="840.5" y2="840.5"/><line style="stroke:#181818;stroke-width:0.5;" x1="748.5" x2="1097.5" y1="848.5" y2="848.5"/><ellipse cx="758.5" cy="860.8994" fill="#84BE84" rx="3" ry="3" style="stroke:#038048;stroke-width:1.0;"/><text fill="#000000" font-family="Arial" font-size="12" lengthAdjust="spacing" textLength="325" x="767.5" y="863.7559">AppDbContext(options: DbContextOptions&lt;AppDbContext&gt;)</text><ellipse cx="758.5" cy="874.6982" fill="#84BE84" rx="3" ry="3" style="stroke:#038048;stroke-width:1.0;"/><text fill="#000000" font-family="Arial" font-size="12" lengthAdjust="spacing" textLength="296" x="767.5" y="877.5547">SaveChangesAsync(ct: CancellationToken): Task&lt;int&gt;</text></g><!--class BaseRepository--><g id="elem_BaseRepository"><rect codeLine="43" fill="#FDFDFD" height="130.793" id="BaseRepository" rx="2.5" ry="2.5" style="stroke:#181818;stroke-width:0.5;" width="372" x="945" y="520.5"/><ellipse cx="1062.25" cy="536.5" fill="#ADD1B2" rx="11" ry="11" style="stroke:#181818;stroke-width:1.0;"/><path d="M1065.0156,532.375 Q1065.1719,532.1563 1065.3594,532.0469 Q1065.5469,531.9375 1065.7656,531.9375 Q1066.1406,531.9375 1066.375,532.2031 Q1066.6094,532.4531 1066.6094,533.0625 L1066.6094,534.5156 Q1066.6094,535.125 1066.375,535.3906 Q1066.1406,535.6563 1065.7656,535.6563 Q1065.4219,535.6563 1065.2188,535.4531 Q1065.0156,535.2656 1064.9063,534.75 Q1064.8594,534.3906 1064.6719,534.2031 Q1064.3438,533.8281 1063.7344,533.6094 Q1063.125,533.3906 1062.5,533.3906 Q1061.7344,533.3906 1061.0938,533.7188 Q1060.4688,534.0469 1059.9688,534.7969 Q1059.4844,535.5469 1059.4844,536.5781 L1059.4844,537.6719 Q1059.4844,538.9063 1060.375,539.7344 Q1061.2656,540.5469 1062.8594,540.5469 Q1063.7969,540.5469 1064.4531,540.2969 Q1064.8438,540.1406 1065.2656,539.7031 Q1065.5313,539.4375 1065.6719,539.3594 Q1065.8281,539.2813 1066.0313,539.2813 Q1066.3594,539.2813 1066.6094,539.5469 Q1066.875,539.7969 1066.875,540.1406 Q1066.875,540.4844 1066.5313,540.8906 Q1066.0313,541.4688 1065.2344,541.7969 Q1064.1563,542.25 1062.8594,542.25 Q1061.3438,542.25 1060.1406,541.625 Q1059.1563,541.125 1058.4688,540.0625 Q1057.7813,538.9844 1057.7813,537.7031 L1057.7813,536.5469 Q1057.7813,535.2188 1058.3906,534.0781 Q1059.0156,532.9219 1060.1094,532.3125 Q1061.2031,531.6875 1062.4375,531.6875 Q1063.1719,531.6875 1063.8125,531.8594 Q1064.4688,532.0156 1065.0156,532.375 Z " fill="#000000"/><text fill="#000000" font-family="Arial" font-size="12" lengthAdjust="spacing" textLength="88" x="1082.75" y="540.8564">BaseRepository</text><rect fill="#FFFFFF" height="15.7988" style="stroke:#181818;stroke-width:1.0;stroke-dasharray:2.0,2.0;" width="39" x="1281" y="517.5"/><text fill="#000000" font-family="Arial" font-size="12" font-style="italic" lengthAdjust="spacing" textLength="37" x="1282" y="529.7559">TEntity</text><line style="stroke:#181818;stroke-width:0.5;" x1="946" x2="1316" y1="552.5" y2="552.5"/><line style="stroke:#181818;stroke-width:0.5;" x1="946" x2="1316" y1="560.5" y2="560.5"/><ellipse cx="956" cy="572.8994" fill="#84BE84" rx="3" ry="3" style="stroke:#038048;stroke-width:1.0;"/><text fill="#000000" font-family="Arial" font-size="12" lengthAdjust="spacing" textLength="218" x="965" y="575.7559">BaseRepository(context: AppDbContext)</text><ellipse cx="956" cy="586.6982" fill="#84BE84" rx="3" ry="3" style="stroke:#038048;stroke-width:1.0;"/><text fill="#000000" font-family="Arial" font-size="12" lengthAdjust="spacing" textLength="288" x="965" y="589.5547">AddAsync(entity: TEntity, ct: CancellationToken): Task</text><ellipse cx="956" cy="600.4971" fill="#84BE84" rx="3" ry="3" style="stroke:#038048;stroke-width:1.0;"/><text fill="#000000" font-family="Arial" font-size="12" lengthAdjust="spacing" textLength="330" x="965" y="603.3535">FindByIdAsync(id: int, ct: CancellationToken): Task&lt;TEntity?&gt;</text><ellipse cx="956" cy="614.2959" fill="#84BE84" rx="3" ry="3" style="stroke:#038048;stroke-width:1.0;"/><text fill="#000000" font-family="Arial" font-size="12" lengthAdjust="spacing" textLength="146" x="965" y="617.1523">Update(entity: TEntity): void</text><ellipse cx="956" cy="628.0947" fill="#84BE84" rx="3" ry="3" style="stroke:#038048;stroke-width:1.0;"/><text fill="#000000" font-family="Arial" font-size="12" lengthAdjust="spacing" textLength="152" x="965" y="630.9512">Remove(entity: TEntity): void</text><ellipse cx="956" cy="641.8936" fill="#84BE84" rx="3" ry="3" style="stroke:#038048;stroke-width:1.0;"/><text fill="#000000" font-family="Arial" font-size="12" lengthAdjust="spacing" textLength="346" x="965" y="644.75">ListAsync(ct: CancellationToken): Task&lt;IEnumerable&lt;TEntity&gt;&gt;</text></g><!--class UnitOfWork--><g id="elem_UnitOfWork"><rect codeLine="52" fill="#FDFDFD" height="75.5977" id="UnitOfWork" rx="2.5" ry="2.5" style="stroke:#181818;stroke-width:0.5;" width="271" x="593.5" y="548"/><ellipse cx="693.75" cy="564" fill="#ADD1B2" rx="11" ry="11" style="stroke:#181818;stroke-width:1.0;"/><path d="M696.5156,559.875 Q696.6719,559.6563 696.8594,559.5469 Q697.0469,559.4375 697.2656,559.4375 Q697.6406,559.4375 697.875,559.7031 Q698.1094,559.9531 698.1094,560.5625 L698.1094,562.0156 Q698.1094,562.625 697.875,562.8906 Q697.6406,563.1563 697.2656,563.1563 Q696.9219,563.1563 696.7188,562.9531 Q696.5156,562.7656 696.4063,562.25 Q696.3594,561.8906 696.1719,561.7031 Q695.8438,561.3281 695.2344,561.1094 Q694.625,560.8906 694,560.8906 Q693.2344,560.8906 692.5938,561.2188 Q691.9688,561.5469 691.4688,562.2969 Q690.9844,563.0469 690.9844,564.0781 L690.9844,565.1719 Q690.9844,566.4063 691.875,567.2344 Q692.7656,568.0469 694.3594,568.0469 Q695.2969,568.0469 695.9531,567.7969 Q696.3438,567.6406 696.7656,567.2031 Q697.0313,566.9375 697.1719,566.8594 Q697.3281,566.7813 697.5313,566.7813 Q697.8594,566.7813 698.1094,567.0469 Q698.375,567.2969 698.375,567.6406 Q698.375,567.9844 698.0313,568.3906 Q697.5313,568.9688 696.7344,569.2969 Q695.6563,569.75 694.3594,569.75 Q692.8438,569.75 691.6406,569.125 Q690.6563,568.625 689.9688,567.5625 Q689.2813,566.4844 689.2813,565.2031 L689.2813,564.0469 Q689.2813,562.7188 689.8906,561.5781 Q690.5156,560.4219 691.6094,559.8125 Q692.7031,559.1875 693.9375,559.1875 Q694.6719,559.1875 695.3125,559.3594 Q695.9688,559.5156 696.5156,559.875 Z " fill="#000000"/><text fill="#000000" font-family="Arial" font-size="12" lengthAdjust="spacing" textLength="62" x="714.25" y="568.3564">UnitOfWork</text><line style="stroke:#181818;stroke-width:0.5;" x1="594.5" x2="863.5" y1="580" y2="580"/><line style="stroke:#181818;stroke-width:0.5;" x1="594.5" x2="863.5" y1="588" y2="588"/><ellipse cx="604.5" cy="600.3994" fill="#84BE84" rx="3" ry="3" style="stroke:#038048;stroke-width:1.0;"/><text fill="#000000" font-family="Arial" font-size="12" lengthAdjust="spacing" textLength="192" x="613.5" y="603.2559">UnitOfWork(context: AppDbContext)</text><ellipse cx="604.5" cy="614.1982" fill="#84BE84" rx="3" ry="3" style="stroke:#038048;stroke-width:1.0;"/><text fill="#000000" font-family="Arial" font-size="12" lengthAdjust="spacing" textLength="245" x="613.5" y="617.0547">CompleteAsync(ct: CancellationToken): Task</text></g><!--class AuditableEntityInterceptor--><g id="elem_AuditableEntityInterceptor"><rect codeLine="57" fill="#FDFDFD" height="61.7988" id="AuditableEntityInterceptor" rx="2.5" ry="2.5" style="stroke:#181818;stroke-width:0.5;" width="466" x="47" y="555"/><ellipse cx="206.75" cy="571" fill="#ADD1B2" rx="11" ry="11" style="stroke:#181818;stroke-width:1.0;"/><path d="M209.5156,566.875 Q209.6719,566.6563 209.8594,566.5469 Q210.0469,566.4375 210.2656,566.4375 Q210.6406,566.4375 210.875,566.7031 Q211.1094,566.9531 211.1094,567.5625 L211.1094,569.0156 Q211.1094,569.625 210.875,569.8906 Q210.6406,570.1563 210.2656,570.1563 Q209.9219,570.1563 209.7188,569.9531 Q209.5156,569.7656 209.4063,569.25 Q209.3594,568.8906 209.1719,568.7031 Q208.8438,568.3281 208.2344,568.1094 Q207.625,567.8906 207,567.8906 Q206.2344,567.8906 205.5938,568.2188 Q204.9688,568.5469 204.4688,569.2969 Q203.9844,570.0469 203.9844,571.0781 L203.9844,572.1719 Q203.9844,573.4063 204.875,574.2344 Q205.7656,575.0469 207.3594,575.0469 Q208.2969,575.0469 208.9531,574.7969 Q209.3438,574.6406 209.7656,574.2031 Q210.0313,573.9375 210.1719,573.8594 Q210.3281,573.7813 210.5313,573.7813 Q210.8594,573.7813 211.1094,574.0469 Q211.375,574.2969 211.375,574.6406 Q211.375,574.9844 211.0313,575.3906 Q210.5313,575.9688 209.7344,576.2969 Q208.6563,576.75 207.3594,576.75 Q205.8438,576.75 204.6406,576.125 Q203.6563,575.625 202.9688,574.5625 Q202.2813,573.4844 202.2813,572.2031 L202.2813,571.0469 Q202.2813,569.7188 202.8906,568.5781 Q203.5156,567.4219 204.6094,566.8125 Q205.7031,566.1875 206.9375,566.1875 Q207.6719,566.1875 208.3125,566.3594 Q208.9688,566.5156 209.5156,566.875 Z " fill="#000000"/><text fill="#000000" font-family="Arial" font-size="12" lengthAdjust="spacing" textLength="138" x="227.25" y="575.3564">AuditableEntityInterceptor</text><line style="stroke:#181818;stroke-width:0.5;" x1="48" x2="512" y1="587" y2="587"/><line style="stroke:#181818;stroke-width:0.5;" x1="48" x2="512" y1="595" y2="595"/><ellipse cx="58" cy="607.3994" fill="#84BE84" rx="3" ry="3" style="stroke:#038048;stroke-width:1.0;"/><text fill="#000000" font-family="Arial" font-size="12" lengthAdjust="spacing" textLength="440" x="67" y="610.2559">SavingChangesAsync(eventData, result, ct): ValueTask&lt;InterceptionResult&lt;int&gt;&gt;</text></g><!--class RecoveryPlan--><g id="elem_RecoveryPlan"><rect codeLine="69" fill="#FDFDFD" height="163.9883" id="RecoveryPlan" rx="2.5" ry="2.5" style="stroke:#181818;stroke-width:0.5;" width="410" x="2572" y="504"/><ellipse cx="2735.25" cy="522.7988" fill="#ADD1B2" rx="11" ry="11" style="stroke:#181818;stroke-width:1.0;"/><path d="M2738.0156,518.6738 Q2738.1719,518.4551 2738.3594,518.3457 Q2738.5469,518.2363 2738.7656,518.2363 Q2739.1406,518.2363 2739.375,518.502 Q2739.6094,518.752 2739.6094,519.3613 L2739.6094,520.8145 Q2739.6094,521.4238 2739.375,521.6895 Q2739.1406,521.9551 2738.7656,521.9551 Q2738.4219,521.9551 2738.2188,521.752 Q2738.0156,521.5645 2737.9063,521.0488 Q2737.8594,520.6895 2737.6719,520.502 Q2737.3438,520.127 2736.7344,519.9082 Q2736.125,519.6895 2735.5,519.6895 Q2734.7344,519.6895 2734.0938,520.0176 Q2733.4688,520.3457 2732.9688,521.0957 Q2732.4844,521.8457 2732.4844,522.877 L2732.4844,523.9707 Q2732.4844,525.2051 2733.375,526.0332 Q2734.2656,526.8457 2735.8594,526.8457 Q2736.7969,526.8457 2737.4531,526.5957 Q2737.8438,526.4395 2738.2656,526.002 Q2738.5313,525.7363 2738.6719,525.6582 Q2738.8281,525.5801 2739.0313,525.5801 Q2739.3594,525.5801 2739.6094,525.8457 Q2739.875,526.0957 2739.875,526.4395 Q2739.875,526.7832 2739.5313,527.1895 Q2739.0313,527.7676 2738.2344,528.0957 Q2737.1563,528.5488 2735.8594,528.5488 Q2734.3438,528.5488 2733.1406,527.9238 Q2732.1563,527.4238 2731.4688,526.3613 Q2730.7813,525.2832 2730.7813,524.002 L2730.7813,522.8457 Q2730.7813,521.5176 2731.3906,520.377 Q2732.0156,519.2207 2733.1094,518.6113 Q2734.2031,517.9863 2735.4375,517.9863 Q2736.1719,517.9863 2736.8125,518.1582 Q2737.4688,518.3145 2738.0156,518.6738 Z " fill="#000000"/><text fill="#000000" font-family="Arial" font-size="12" font-style="italic" lengthAdjust="spacing" textLength="71" x="2757.75" y="520.2559">&#171;Aggregate&#187;</text><text fill="#000000" font-family="Arial" font-size="12" lengthAdjust="spacing" textLength="75" x="2755.75" y="534.0547">RecoveryPlan</text><line style="stroke:#181818;stroke-width:0.5;" x1="2573" x2="2981" y1="541.5977" y2="541.5977"/><ellipse cx="2583" cy="553.9971" fill="none" rx="3" ry="3" style="stroke:#038048;stroke-width:1.0;"/><text fill="#000000" font-family="Arial" font-size="12" lengthAdjust="spacing" textLength="29" x="2592" y="556.8535">Id: int</text><ellipse cx="2583" cy="567.7959" fill="none" rx="3" ry="3" style="stroke:#038048;stroke-width:1.0;"/><text fill="#000000" font-family="Arial" font-size="12" lengthAdjust="spacing" textLength="95" x="2592" y="570.6523">MedicalStaffId: int</text><ellipse cx="2583" cy="581.5947" fill="none" rx="3" ry="3" style="stroke:#038048;stroke-width:1.0;"/><text fill="#000000" font-family="Arial" font-size="12" lengthAdjust="spacing" textLength="100" x="2592" y="584.4512">Description: string</text><ellipse cx="2583" cy="595.3936" fill="none" rx="3" ry="3" style="stroke:#038048;stroke-width:1.0;"/><text fill="#000000" font-family="Arial" font-size="12" lengthAdjust="spacing" textLength="133" x="2592" y="598.25">SuggestedRestDays: int</text><ellipse cx="2583" cy="609.1924" fill="none" rx="3" ry="3" style="stroke:#038048;stroke-width:1.0;"/><text fill="#000000" font-family="Arial" font-size="12" lengthAdjust="spacing" textLength="72" x="2592" y="612.0488">Status: string</text><line style="stroke:#181818;stroke-width:0.5;" x1="2573" x2="2981" y1="618.5918" y2="618.5918"/><ellipse cx="2583" cy="630.9912" fill="#84BE84" rx="3" ry="3" style="stroke:#038048;stroke-width:1.0;"/><text fill="#000000" font-family="Arial" font-size="12" lengthAdjust="spacing" textLength="83" x="2592" y="633.8477">RecoveryPlan()</text><ellipse cx="2583" cy="644.79" fill="#84BE84" rx="3" ry="3" style="stroke:#038048;stroke-width:1.0;"/><text fill="#000000" font-family="Arial" font-size="12" lengthAdjust="spacing" textLength="384" x="2592" y="647.6465">RecoveryPlan(command: IssueRecoveryRecommendationCommand)</text><ellipse cx="2583" cy="658.5889" fill="#84BE84" rx="3" ry="3" style="stroke:#038048;stroke-width:1.0;"/><text fill="#000000" font-family="Arial" font-size="12" lengthAdjust="spacing" textLength="182" x="2592" y="661.4453">UpdateStatus(status: string): void</text></g><!--class IRecoveryPlanCommandService--><g id="elem_IRecoveryPlanCommandService"><rect codeLine="80" fill="#FDFDFD" height="75.5977" id="IRecoveryPlanCommandService" rx="2.5" ry="2.5" style="stroke:#181818;stroke-width:0.5;" width="621" x="3150.5" y="308"/><ellipse cx="3366.25" cy="324" fill="#B4A7E5" rx="11" ry="11" style="stroke:#181818;stroke-width:1.0;"/><path d="M3367.2031,320.6406 L3367.2031,327.2969 L3368.9219,327.2969 Q3369.5313,327.2969 3369.7969,327.5313 Q3370.0625,327.7656 3370.0625,328.1563 Q3370.0625,328.5313 3369.7969,328.7656 Q3369.5313,329 3368.9219,329 L3363.7813,329 Q3363.1719,329 3362.9063,328.7656 Q3362.6406,328.5313 3362.6406,328.1406 Q3362.6406,327.7656 3362.9063,327.5313 Q3363.1719,327.2969 3363.7813,327.2969 L3365.5,327.2969 L3365.5,320.6406 L3363.7813,320.6406 Q3363.1719,320.6406 3362.9063,320.4063 Q3362.6406,320.1719 3362.6406,319.7813 Q3362.6406,319.4063 3362.9063,319.1719 Q3363.1719,318.9375 3363.7813,318.9375 L3368.9219,318.9375 Q3369.5313,318.9375 3369.7969,319.1719 Q3370.0625,319.4063 3370.0625,319.7813 Q3370.0625,320.1719 3369.7969,320.4063 Q3369.5313,320.6406 3368.9219,320.6406 L3367.2031,320.6406 Z " fill="#000000"/><text fill="#000000" font-family="Arial" font-size="12" font-style="italic" lengthAdjust="spacing" textLength="181" x="3386.75" y="328.3564">IRecoveryPlanCommandService</text><line style="stroke:#181818;stroke-width:0.5;" x1="3151.5" x2="3770.5" y1="340" y2="340"/><line style="stroke:#181818;stroke-width:0.5;" x1="3151.5" x2="3770.5" y1="348" y2="348"/><ellipse cx="3161.5" cy="360.3994" fill="#84BE84" rx="3" ry="3" style="stroke:#038048;stroke-width:1.0;"/><text fill="#000000" font-family="Arial" font-size="12" lengthAdjust="spacing" textLength="595" x="3170.5" y="363.2559">Handle(command: IssueRecoveryRecommendationCommand, ct: CancellationToken): Task&lt;RecoveryPlan&gt;</text><ellipse cx="3161.5" cy="374.1982" fill="#84BE84" rx="3" ry="3" style="stroke:#038048;stroke-width:1.0;"/><text fill="#000000" font-family="Arial" font-size="12" lengthAdjust="spacing" textLength="572" x="3170.5" y="377.0547">Handle(command: UpdateRecoveryPlanStatusCommand, ct: CancellationToken): Task&lt;RecoveryPlan?&gt;</text></g><!--class IRecoveryPlanQueryService--><g id="elem_IRecoveryPlanQueryService"><rect codeLine="84" fill="#FDFDFD" height="75.5977" id="IRecoveryPlanQueryService" rx="2.5" ry="2.5" style="stroke:#181818;stroke-width:0.5;" width="587" x="2483.5" y="308"/><ellipse cx="2695.25" cy="324" fill="#B4A7E5" rx="11" ry="11" style="stroke:#181818;stroke-width:1.0;"/><path d="M2696.2031,320.6406 L2696.2031,327.2969 L2697.9219,327.2969 Q2698.5313,327.2969 2698.7969,327.5313 Q2699.0625,327.7656 2699.0625,328.1563 Q2699.0625,328.5313 2698.7969,328.7656 Q2698.5313,329 2697.9219,329 L2692.7813,329 Q2692.1719,329 2691.9063,328.7656 Q2691.6406,328.5313 2691.6406,328.1406 Q2691.6406,327.7656 2691.9063,327.5313 Q2692.1719,327.2969 2692.7813,327.2969 L2694.5,327.2969 L2694.5,320.6406 L2692.7813,320.6406 Q2692.1719,320.6406 2691.9063,320.4063 Q2691.6406,320.1719 2691.6406,319.7813 Q2691.6406,319.4063 2691.9063,319.1719 Q2692.1719,318.9375 2692.7813,318.9375 L2697.9219,318.9375 Q2698.5313,318.9375 2698.7969,319.1719 Q2699.0625,319.4063 2699.0625,319.7813 Q2699.0625,320.1719 2698.7969,320.4063 Q2698.5313,320.6406 2697.9219,320.6406 L2696.2031,320.6406 Z " fill="#000000"/><text fill="#000000" font-family="Arial" font-size="12" font-style="italic" lengthAdjust="spacing" textLength="155" x="2715.75" y="328.3564">IRecoveryPlanQueryService</text><line style="stroke:#181818;stroke-width:0.5;" x1="2484.5" x2="3069.5" y1="340" y2="340"/><line style="stroke:#181818;stroke-width:0.5;" x1="2484.5" x2="3069.5" y1="348" y2="348"/><ellipse cx="2494.5" cy="360.3994" fill="#84BE84" rx="3" ry="3" style="stroke:#038048;stroke-width:1.0;"/><text fill="#000000" font-family="Arial" font-size="12" lengthAdjust="spacing" textLength="561" x="2503.5" y="363.2559">Handle(query: GetAllRecoveryPlansQuery, ct: CancellationToken): Task&lt;IEnumerable&lt;RecoveryPlan&gt;&gt;</text><ellipse cx="2494.5" cy="374.1982" fill="#84BE84" rx="3" ry="3" style="stroke:#038048;stroke-width:1.0;"/><text fill="#000000" font-family="Arial" font-size="12" lengthAdjust="spacing" textLength="486" x="2503.5" y="377.0547">Handle(query: GetRecoveryPlanByIdQuery, ct: CancellationToken): Task&lt;RecoveryPlan?&gt;</text></g><!--class RecoveryPlansController--><g id="elem_RecoveryPlansController"><rect codeLine="91" fill="#FDFDFD" height="103.1953" id="RecoveryPlansController" rx="2.5" ry="2.5" style="stroke:#181818;stroke-width:0.5;" width="593" x="3178.5" y="85"/><ellipse cx="3402.75" cy="101" fill="#ADD1B2" rx="11" ry="11" style="stroke:#181818;stroke-width:1.0;"/><path d="M3405.5156,96.875 Q3405.6719,96.6563 3405.8594,96.5469 Q3406.0469,96.4375 3406.2656,96.4375 Q3406.6406,96.4375 3406.875,96.7031 Q3407.1094,96.9531 3407.1094,97.5625 L3407.1094,99.0156 Q3407.1094,99.625 3406.875,99.8906 Q3406.6406,100.1563 3406.2656,100.1563 Q3405.9219,100.1563 3405.7188,99.9531 Q3405.5156,99.7656 3405.4063,99.25 Q3405.3594,98.8906 3405.1719,98.7031 Q3404.8438,98.3281 3404.2344,98.1094 Q3403.625,97.8906 3403,97.8906 Q3402.2344,97.8906 3401.5938,98.2188 Q3400.9688,98.5469 3400.4688,99.2969 Q3399.9844,100.0469 3399.9844,101.0781 L3399.9844,102.1719 Q3399.9844,103.4063 3400.875,104.2344 Q3401.7656,105.0469 3403.3594,105.0469 Q3404.2969,105.0469 3404.9531,104.7969 Q3405.3438,104.6406 3405.7656,104.2031 Q3406.0313,103.9375 3406.1719,103.8594 Q3406.3281,103.7813 3406.5313,103.7813 Q3406.8594,103.7813 3407.1094,104.0469 Q3407.375,104.2969 3407.375,104.6406 Q3407.375,104.9844 3407.0313,105.3906 Q3406.5313,105.9688 3405.7344,106.2969 Q3404.6563,106.75 3403.3594,106.75 Q3401.8438,106.75 3400.6406,106.125 Q3399.6563,105.625 3398.9688,104.5625 Q3398.2813,103.4844 3398.2813,102.2031 L3398.2813,101.0469 Q3398.2813,99.7188 3398.8906,98.5781 Q3399.5156,97.4219 3400.6094,96.8125 Q3401.7031,96.1875 3402.9375,96.1875 Q3403.6719,96.1875 3404.3125,96.3594 Q3404.9688,96.5156 3405.5156,96.875 Z " fill="#000000"/><text fill="#000000" font-family="Arial" font-size="12" lengthAdjust="spacing" textLength="136" x="3423.25" y="105.3564">RecoveryPlansController</text><line style="stroke:#181818;stroke-width:0.5;" x1="3179.5" x2="3770.5" y1="117" y2="117"/><line style="stroke:#181818;stroke-width:0.5;" x1="3179.5" x2="3770.5" y1="125" y2="125"/><ellipse cx="3189.5" cy="137.3994" fill="#84BE84" rx="3" ry="3" style="stroke:#038048;stroke-width:1.0;"/><text fill="#000000" font-family="Arial" font-size="12" lengthAdjust="spacing" textLength="567" x="3198.5" y="140.2559">RecoveryPlansController(cmdSvc: IRecoveryPlanCommandService, qrySvc: IRecoveryPlanQueryService)</text><ellipse cx="3189.5" cy="151.1982" fill="#84BE84" rx="3" ry="3" style="stroke:#038048;stroke-width:1.0;"/><text fill="#000000" font-family="Arial" font-size="12" lengthAdjust="spacing" textLength="228" x="3198.5" y="154.0547">Create(resource, ct): Task&lt;IActionResult&gt;</text><ellipse cx="3189.5" cy="164.9971" fill="#84BE84" rx="3" ry="3" style="stroke:#038048;stroke-width:1.0;"/><text fill="#000000" font-family="Arial" font-size="12" lengthAdjust="spacing" textLength="168" x="3198.5" y="167.8535">GetAll(ct): Task&lt;IActionResult&gt;</text><ellipse cx="3189.5" cy="178.7959" fill="#84BE84" rx="3" ry="3" style="stroke:#038048;stroke-width:1.0;"/><text fill="#000000" font-family="Arial" font-size="12" lengthAdjust="spacing" textLength="266" x="3198.5" y="181.6523">Update(id: int, resource, ct): Task&lt;IActionResult&gt;</text></g><!--class PreventiveActionsController--><g id="elem_PreventiveActionsController"><rect codeLine="97" fill="#FDFDFD" height="103.1953" id="PreventiveActionsController" rx="2.5" ry="2.5" style="stroke:#181818;stroke-width:0.5;" width="635" x="2463.5" y="85"/><ellipse cx="2701.75" cy="101" fill="#ADD1B2" rx="11" ry="11" style="stroke:#181818;stroke-width:1.0;"/><path d="M2704.5156,96.875 Q2704.6719,96.6563 2704.8594,96.5469 Q2705.0469,96.4375 2705.2656,96.4375 Q2705.6406,96.4375 2705.875,96.7031 Q2706.1094,96.9531 2706.1094,97.5625 L2706.1094,99.0156 Q2706.1094,99.625 2705.875,99.8906 Q2705.6406,100.1563 2705.2656,100.1563 Q2704.9219,100.1563 2704.7188,99.9531 Q2704.5156,99.7656 2704.4063,99.25 Q2704.3594,98.8906 2704.1719,98.7031 Q2703.8438,98.3281 2703.2344,98.1094 Q2702.625,97.8906 2702,97.8906 Q2701.2344,97.8906 2700.5938,98.2188 Q2699.9688,98.5469 2699.4688,99.2969 Q2698.9844,100.0469 2698.9844,101.0781 L2698.9844,102.1719 Q2698.9844,103.4063 2699.875,104.2344 Q2700.7656,105.0469 2702.3594,105.0469 Q2703.2969,105.0469 2703.9531,104.7969 Q2704.3438,104.6406 2704.7656,104.2031 Q2705.0313,103.9375 2705.1719,103.8594 Q2705.3281,103.7813 2705.5313,103.7813 Q2705.8594,103.7813 2706.1094,104.0469 Q2706.375,104.2969 2706.375,104.6406 Q2706.375,104.9844 2706.0313,105.3906 Q2705.5313,105.9688 2704.7344,106.2969 Q2703.6563,106.75 2702.3594,106.75 Q2700.8438,106.75 2699.6406,106.125 Q2698.6563,105.625 2697.9688,104.5625 Q2697.2813,103.4844 2697.2813,102.2031 L2697.2813,101.0469 Q2697.2813,99.7188 2697.8906,98.5781 Q2698.5156,97.4219 2699.6094,96.8125 Q2700.7031,96.1875 2701.9375,96.1875 Q2702.6719,96.1875 2703.3125,96.3594 Q2703.9688,96.5156 2704.5156,96.875 Z " fill="#000000"/><text fill="#000000" font-family="Arial" font-size="12" lengthAdjust="spacing" textLength="150" x="2722.25" y="105.3564">PreventiveActionsController</text><line style="stroke:#181818;stroke-width:0.5;" x1="2464.5" x2="3097.5" y1="117" y2="117"/><line style="stroke:#181818;stroke-width:0.5;" x1="2464.5" x2="3097.5" y1="125" y2="125"/><ellipse cx="2474.5" cy="137.3994" fill="#84BE84" rx="3" ry="3" style="stroke:#038048;stroke-width:1.0;"/><text fill="#000000" font-family="Arial" font-size="12" lengthAdjust="spacing" textLength="609" x="2483.5" y="140.2559">PreventiveActionsController(cmdSvc: IPreventiveActionCommandService, qrySvc: IPreventiveActionQueryService)</text><ellipse cx="2474.5" cy="151.1982" fill="#84BE84" rx="3" ry="3" style="stroke:#038048;stroke-width:1.0;"/><text fill="#000000" font-family="Arial" font-size="12" lengthAdjust="spacing" textLength="228" x="2483.5" y="154.0547">Create(resource, ct): Task&lt;IActionResult&gt;</text><ellipse cx="2474.5" cy="164.9971" fill="#84BE84" rx="3" ry="3" style="stroke:#038048;stroke-width:1.0;"/><text fill="#000000" font-family="Arial" font-size="12" lengthAdjust="spacing" textLength="168" x="2483.5" y="167.8535">GetAll(ct): Task&lt;IActionResult&gt;</text><ellipse cx="2474.5" cy="178.7959" fill="#84BE84" rx="3" ry="3" style="stroke:#038048;stroke-width:1.0;"/><text fill="#000000" font-family="Arial" font-size="12" lengthAdjust="spacing" textLength="266" x="2483.5" y="181.6523">Update(id: int, resource, ct): Task&lt;IActionResult&gt;</text></g><!--class User--><g id="elem_User"><rect fill="#FDFDFD" height="48" id="User" rx="2.5" ry="2.5" style="stroke:#181818;stroke-width:0.5;" width="59" x="2747.5" y="822.5"/><ellipse cx="2762.5" cy="838.5" fill="#ADD1B2" rx="11" ry="11" style="stroke:#181818;stroke-width:1.0;"/><path d="M2765.2656,834.375 Q2765.4219,834.1563 2765.6094,834.0469 Q2765.7969,833.9375 2766.0156,833.9375 Q2766.3906,833.9375 2766.625,834.2031 Q2766.8594,834.4531 2766.8594,835.0625 L2766.8594,836.5156 Q2766.8594,837.125 2766.625,837.3906 Q2766.3906,837.6563 2766.0156,837.6563 Q2765.6719,837.6563 2765.4688,837.4531 Q2765.2656,837.2656 2765.1563,836.75 Q2765.1094,836.3906 2764.9219,836.2031 Q2764.5938,835.8281 2763.9844,835.6094 Q2763.375,835.3906 2762.75,835.3906 Q2761.9844,835.3906 2761.3438,835.7188 Q2760.7188,836.0469 2760.2188,836.7969 Q2759.7344,837.5469 2759.7344,838.5781 L2759.7344,839.6719 Q2759.7344,840.9063 2760.625,841.7344 Q2761.5156,842.5469 2763.1094,842.5469 Q2764.0469,842.5469 2764.7031,842.2969 Q2765.0938,842.1406 2765.5156,841.7031 Q2765.7813,841.4375 2765.9219,841.3594 Q2766.0781,841.2813 2766.2813,841.2813 Q2766.6094,841.2813 2766.8594,841.5469 Q2767.125,841.7969 2767.125,842.1406 Q2767.125,842.4844 2766.7813,842.8906 Q2766.2813,843.4688 2765.4844,843.7969 Q2764.4063,844.25 2763.1094,844.25 Q2761.5938,844.25 2760.3906,843.625 Q2759.4063,843.125 2758.7188,842.0625 Q2758.0313,840.9844 2758.0313,839.7031 L2758.0313,838.5469 Q2758.0313,837.2188 2758.6406,836.0781 Q2759.2656,834.9219 2760.3594,834.3125 Q2761.4531,833.6875 2762.6875,833.6875 Q2763.4219,833.6875 2764.0625,833.8594 Q2764.7188,834.0156 2765.2656,834.375 Z " fill="#000000"/><text fill="#000000" font-family="Arial" font-size="12" lengthAdjust="spacing" textLength="27" x="2776.5" y="842.8564">User</text><line style="stroke:#181818;stroke-width:0.5;" x1="2748.5" x2="2805.5" y1="854.5" y2="854.5"/><line style="stroke:#181818;stroke-width:0.5;" x1="2748.5" x2="2805.5" y1="862.5" y2="862.5"/></g><!--link BaseRepository to AppDbContext--><g id="link_BaseRepository_AppDbContext"><path codeLine="62" d="M1021.75,651.74 C1021.75,701.17 1021.75,761.2 1021.75,802.27 " fill="none" id="BaseRepository-to-AppDbContext" style="stroke:#555555;stroke-width:1.5;stroke-dasharray:7.0,7.0;"/><polygon fill="#555555" points="1021.75,808.27,1025.75,799.27,1021.75,803.27,1017.75,799.27,1021.75,808.27" style="stroke:#555555;stroke-width:1.5;"/><text fill="#000000" font-family="Arial" font-size="13" lengthAdjust="spacing" textLength="70" x="950.75" y="727.1938">dependency</text></g><!--link UnitOfWork to AppDbContext--><g id="link_UnitOfWork_AppDbContext"><path codeLine="63" d="M786.5,624.16 C786.5,673.48 786.5,752.87 786.5,802.24 " fill="none" id="UnitOfWork-to-AppDbContext" style="stroke:#555555;stroke-width:1.5;stroke-dasharray:7.0,7.0;"/><polygon fill="#555555" points="786.5,808.24,790.5,799.24,786.5,803.24,782.5,799.24,786.5,808.24" style="stroke:#555555;stroke-width:1.5;"/><text fill="#000000" font-family="Arial" font-size="13" lengthAdjust="spacing" textLength="70" x="715.5" y="713.3938">dependency</text></g><!--link RecoveryPlansController to IRecoveryPlanCommandService--><g id="link_RecoveryPlansController_IRecoveryPlanCommandService"><path codeLine="105" d="M3475,188.02 C3475,225.09 3475,268.28 3475,301.86 " fill="none" id="RecoveryPlansController-to-IRecoveryPlanCommandService" style="stroke:#555555;stroke-width:1.5;stroke-dasharray:7.0,7.0;"/><polygon fill="#555555" points="3475,307.86,3479,298.86,3475,302.86,3471,298.86,3475,307.86" style="stroke:#555555;stroke-width:1.5;"/><text fill="#000000" font-family="Arial" font-size="13" lengthAdjust="spacing" textLength="70" x="3404" y="245.1338">dependency</text></g><!--link RecoveryPlansController to IRecoveryPlanQueryService--><g id="link_RecoveryPlansController_IRecoveryPlanQueryService"><path codeLine="106" d="M3178.5,137 C3146.07,137 3124.5,137 3124.5,137 C3124.5,137 3124.5,346 3124.5,346 C3124.5,346 3108.95,346 3076.58,346 " fill="none" id="RecoveryPlansController-to-IRecoveryPlanQueryService" style="stroke:#555555;stroke-width:1.5;stroke-dasharray:7.0,7.0;"/><polygon fill="#555555" points="3070.58,346,3079.58,350,3075.58,346,3079.58,342,3070.58,346" style="stroke:#555555;stroke-width:1.5;"/><text fill="#000000" font-family="Arial" font-size="13" lengthAdjust="spacing" textLength="70" x="3053.5" y="238.6538">dependency</text></g><!--link IRecoveryPlanCommandService to RecoveryPlan--><g id="link_IRecoveryPlanCommandService_RecoveryPlan"><path codeLine="109" d="M3461,384.03 C3461,451.7 3461,586 3461,586 C3461,586 3189.7,586 2988.22,586 " fill="none" id="IRecoveryPlanCommandService-to-RecoveryPlan" style="stroke:#555555;stroke-width:1.5;stroke-dasharray:7.0,7.0;"/><polygon fill="#555555" points="2982.22,586,2991.22,590,2987.22,586,2991.22,582,2982.22,586" style="stroke:#555555;stroke-width:1.5;"/><polygon fill="#000000" points="3280.002,580.4386,3289.4744,579.5879,3287.1653,574.1826,3280.002,580.4386" style="stroke:#000000;stroke-width:1.0;"/><text fill="#000000" font-family="Arial" font-size="13" lengthAdjust="spacing" textLength="28" x="3293.6" y="583.1938">uses</text></g><!--link IRecoveryPlanQueryService to RecoveryPlan--><g id="link_IRecoveryPlanQueryService_RecoveryPlan"><path codeLine="110" d="M2777,384.03 C2777,416.15 2777,457.27 2777,497.93 " fill="none" id="IRecoveryPlanQueryService-to-RecoveryPlan" style="stroke:#555555;stroke-width:1.5;stroke-dasharray:7.0,7.0;"/><polygon fill="#555555" points="2777,503.93,2781,494.93,2777,498.93,2773,494.93,2777,503.93" style="stroke:#555555;stroke-width:1.5;"/><polygon fill="#000000" points="2739,441.4544,2741.9389,432.4093,2736.0611,432.4093,2739,441.4544" style="stroke:#000000;stroke-width:1.0;"/><text fill="#000000" font-family="Arial" font-size="13" lengthAdjust="spacing" textLength="28" x="2748" y="441.1738">uses</text></g><!--link RecoveryPlan to IAuditableEntity--><g id="link_RecoveryPlan_IAuditableEntity"><path codeLine="115" d="M2659.75,668.03 C2659.75,733.74 2659.75,815 2659.75,815 C2659.75,815 2493.11,815 2377.35,815 " fill="none" id="RecoveryPlan-to-IAuditableEntity" style="stroke:#555555;stroke-width:1.5;stroke-dasharray:7.0,7.0;"/><polygon fill="none" points="2359.35,815,2377.35,821,2377.35,809,2359.35,815" style="stroke:#555555;stroke-width:1.5;"/><text fill="#000000" font-family="Arial" font-size="13" lengthAdjust="spacing" textLength="67" x="2515.04" y="812.1938">implements</text></g><!--link RecoveryPlan to User--><g id="link_RecoveryPlan_User"><path codeLine="119" d="M2777,668.07 C2777,721.46 2777,781.42 2777,816.27 " fill="none" id="RecoveryPlan-to-User" style="stroke:#555555;stroke-width:1.5;"/><polygon fill="#555555" points="2777,822.27,2781,813.27,2777,817.27,2773,813.27,2777,822.27" style="stroke:#555555;stroke-width:1.5;"/><polygon fill="#000000" points="2707,742.6444,2709.9389,733.5993,2704.0611,733.5993,2707,742.6444" style="stroke:#000000;stroke-width:1.0;"/><text fill="#000000" font-family="Arial" font-size="13" lengthAdjust="spacing" textLength="60" x="2716" y="742.3638">references</text></g><!--link BaseRepository to IBaseRepository--><g id="link_BaseRepository_IBaseRepository"><path codeLine="123" d="M1207.75,651.65 C1207.75,714.23 1207.75,799 1207.75,799 C1207.75,799 1498.5,799 1706.85,799 " fill="none" id="BaseRepository-to-IBaseRepository" style="stroke:#555555;stroke-width:1.5;stroke-dasharray:7.0,7.0;"/><polygon fill="none" points="1724.85,799,1706.85,793,1706.85,805,1724.85,799" style="stroke:#555555;stroke-width:1.5;"/><text fill="#000000" font-family="Arial" font-size="13" lengthAdjust="spacing" textLength="67" x="1324.62" y="796.1938">implements</text></g><!--link UnitOfWork to IUnitOfWork--><g id="link_UnitOfWork_IUnitOfWork"><path codeLine="124" d="M825.5,624.3 C825.5,642.36 825.5,660 825.5,660 C825.5,660 1509,660 1509,660 C1509,660 1509,744.19 1509,797.28 " fill="none" id="UnitOfWork-to-IUnitOfWork" style="stroke:#555555;stroke-width:1.5;stroke-dasharray:7.0,7.0;"/><polygon fill="none" points="1509,815.28,1515,797.28,1503,797.28,1509,815.28" style="stroke:#555555;stroke-width:1.5;"/><text fill="#000000" font-family="Arial" font-size="13" lengthAdjust="spacing" textLength="67" x="1159.04" y="673.1938">implements</text></g><!--SRC=[xLZBRkCs5DtxAuZf8WwQ14cG0QP6wa1-DPfEuzHo-bWoqhL3M28r9ENMRVFllHHbcv9boocccwBAGWPvxeFdlXYf1UCfbJGXCUEWLoaG8VMBQAdDHah31Pr3e5Sn40cXfdmUWmFW8W85AVbmwInAoXTcyUhQNOrWHhDOZmJN3pG1uab6OsS_ZAbIPZTWVm2vkgbkULfBzfnfs6Ak7GoLKlmsVM7XWeDIvEhYVNMpBs8XoLVlywUglOSddKkHyQY0ZQ8P_kroiGky7DsCFjG0XOn05g0RxvlBuNMhHV0v8T_-qwUGzny-3llJuO04zzu4NxtnqyC0t_tnmtJuo_IBM2bEGTu5BrH2H7hcoFZk8_lmktv7g2B5rf-vG4be81BAk0Eo2mxKF0nLoHaDWVWzgc02gL1C2xcwdGwvPdhLhGYOvsilYZoruc4RSao75E0p4keEwLCUGXnJpGIVYWNmKmHGjTZLCs8ywgtyGXcBEiQVmqhMVjrrTzKzfH7LK7KA1PU2HRlm2IHYUJpy4rFQEdhGFt_8imGaVOvXms7PrzVMlX0ySQR7iv-5NDIntXT96eE6PYUEDETb4TF6KUickRrT-rjhNWAo6tbeTu0_fYo1yMocGD_jYqGZzhLLu-GcWtq-arHfcOKwa-1aShvHSJ5l8SHBqy5pKH-rYUlijqLgU5FeudffR5TkNLZtT5TDG9VGVy5E3Eg8Z4363oQ0TVqDvLU6jaFhQATq-jF_g_PVhLeRjCC5kzqzEaPVfiQBOYYNjsyAFuGKSwREMSnfnkUbh8ObieprIy_mvg7mvc22ZEP_ed46bhQrJdHkaaFoREysLtavXyd5HRTSl1syhQI0yuw7gusGGtUp01ghZ55DPpCoWH3p1qtMZbC3sI0Qfgh1rWvLI_zQpMDCERPMRpwNCCTCh- -kBhfzsh0VYYIX70lFLog3zPPv9mbIaETAts9gLFcsOdStVe28XJJE3xOND00LIfP7l4EmEsFIr2HJDiSimWc0IO4Pj59xbA4fdQdzUcnliAYsAe7hAdx_g7FfAvW9G2uPxjK4unwtOtWBpGtjppNVRRPdZ-qAMGhURknkNoaUuEV737yqi_FPm3haEz1U7BloAbVGuAJRS4liT8ymw0gOINICmQDOgR-652ofRTblrnfBNvd-8aKSWsogUmVQ3fCeM8QTGvbxHZvZd7P0RlXEzrtZsjZGHIQDahobsvXuuRQHryJ1Xhfzl40nsZTNX3SQVQsXzb7cKuajmSerq7i0lgMu2jfBSnNuNwJQAO5zQMncxw6EMZkxZrPMQZybLHjT9tYtqU9y3Xmx24wPBOXXHMf1KXieCei5TW8-jyc3U-t2LNL6Z1s4dw5dbYgr3U6Xqnc7IxEzGpAZkbilNJhEVjcMm_q9wK_6GN2UVrJm9h-IoV2JD_N73y6z_nYGqNX2flT-G7hzLfLPjF1NT_S_EqmASw_4gQLLQssamg65dkDQ8IJ1jb7rmb9axXblR14Hd8o413Rdv7jOEPILl3W_xv8dXT7je9OPI8oCFUNwV4AQRrceZt7pwMjhourUbAKnNaWqg5RjbT6SjB9OEkZEbT48E0ibyDy0]--></g></svg>