<?xml version="1.0" encoding="us-ascii" standalone="no"?><svg xmlns="http://www.w3.org/2000/svg" xmlns:xlink="http://www.w3.org/1999/xlink" contentStyleType="text/css" height="1426px" preserveAspectRatio="none" style="width:2225px;height:1426px;background:#FFFFFF;" version="1.1" viewBox="0 0 2225 1426" width="2225px" zoomAndPan="magnify"><defs/><g><!--cluster shared--><g id="cluster_shared"><rect fill="none" height="675.5" rx="2.5" ry="2.5" style="stroke:#000000;stroke-width:1.5;" width="811" x="7" y="7"/><text fill="#000000" font-family="sans-serif" font-size="14" font-weight="bold" lengthAdjust="spacing" textLength="177" x="324" y="23.5332">Shared Bounded Context</text></g><!--cluster shared_infrastructure--><g id="cluster_shared_infrastructure"><rect fill="none" height="111" rx="2.5" ry="2.5" style="stroke:#000000;stroke-width:1.5;" width="332" x="462" y="95"/><text fill="#000000" font-family="sans-serif" font-size="14" font-weight="bold" lengthAdjust="spacing" textLength="97" x="579.5" y="111.5332">Infrastructure</text></g><!--cluster shared_presentation--><g id="cluster_shared_presentation"><rect fill="none" height="607.5" rx="2.5" ry="2.5" style="stroke:#000000;stroke-width:1.5;" width="407" x="31" y="51"/><text fill="#000000" font-family="sans-serif" font-size="14" font-weight="bold" lengthAdjust="spacing" textLength="90" x="189.5" y="67.5332">Presentation</text></g><!--cluster shared_components--><g id="cluster_shared_components"><rect fill="none" height="539.5" rx="2.5" ry="2.5" style="stroke:#000000;stroke-width:1.5;" width="359" x="55" y="95"/><text fill="#000000" font-family="sans-serif" font-size="14" font-weight="bold" lengthAdjust="spacing" textLength="89" x="190" y="111.5332">Components</text></g><!--cluster subscription--><g id="cluster_subscription"><rect fill="none" height="1190" rx="2.5" ry="2.5" style="stroke:#000000;stroke-width:1.5;" width="1377" x="842" y="230"/><text fill="#000000" font-family="sans-serif" font-size="14" font-weight="bold" lengthAdjust="spacing" textLength="345" x="1358" y="246.5332">Subscription Plan Management Bounded Context</text></g><!--cluster sub_domain--><g id="cluster_sub_domain"><rect fill="none" height="672.5" rx="2.5" ry="2.5" style="stroke:#000000;stroke-width:1.5;" width="250" x="966" y="723.5"/><text fill="#000000" font-family="sans-serif" font-size="14" font-weight="bold" lengthAdjust="spacing" textLength="52" x="1065" y="740.0332">Domain</text></g><!--cluster sub_infrastructure--><g id="cluster_sub_infrastructure"><rect fill="none" height="399" rx="2.5" ry="2.5" style="stroke:#000000;stroke-width:1.5;" width="364" x="1473" y="720"/><text fill="#000000" font-family="sans-serif" font-size="14" font-weight="bold" lengthAdjust="spacing" textLength="97" x="1606.5" y="736.5332">Infrastructure</text></g><!--cluster sub_application--><g id="cluster_sub_application"><rect fill="none" height="234" rx="2.5" ry="2.5" style="stroke:#000000;stroke-width:1.5;" width="236" x="1002" y="462"/><text fill="#000000" font-family="sans-serif" font-size="14" font-weight="bold" lengthAdjust="spacing" textLength="78" x="1081" y="478.5332">Application</text></g><!--cluster sub_presentation--><g id="cluster_sub_presentation"><rect fill="none" height="164" rx="2.5" ry="2.5" style="stroke:#000000;stroke-width:1.5;" width="1329" x="866" y="274"/><text fill="#000000" font-family="sans-serif" font-size="14" font-weight="bold" lengthAdjust="spacing" textLength="90" x="1485.5" y="290.5332">Presentation</text></g><!--class BaseEndpoint--><g id="elem_BaseEndpoint"><rect codeLine="8" fill="#F1F1F1" height="48" id="BaseEndpoint" rx="2.5" ry="2.5" style="stroke:#181818;stroke-width:0.5;" width="120" x="658" y="136.5"/><ellipse cx="673" cy="152.5" fill="#ADD1B2" rx="11" ry="11" style="stroke:#181818;stroke-width:1.0;"/><path d="M675.7656,148.375 Q675.9219,148.1563 676.1094,148.0469 Q676.2969,147.9375 676.5156,147.9375 Q676.8906,147.9375 677.125,148.2031 Q677.3594,148.4531 677.3594,149.0625 L677.3594,150.5156 Q677.3594,151.125 677.125,151.3906 Q676.8906,151.6563 676.5156,151.6563 Q676.1719,151.6563 675.9688,151.4531 Q675.7656,151.2656 675.6563,150.75 Q675.6094,150.3906 675.4219,150.2031 Q675.0938,149.8281 674.4844,149.6094 Q673.875,149.3906 673.25,149.3906 Q672.4844,149.3906 671.8438,149.7188 Q671.2188,150.0469 670.7188,150.7969 Q670.2344,151.5469 670.2344,152.5781 L670.2344,153.6719 Q670.2344,154.9063 671.125,155.7344 Q672.0156,156.5469 673.6094,156.5469 Q674.5469,156.5469 675.2031,156.2969 Q675.5938,156.1406 676.0156,155.7031 Q676.2813,155.4375 676.4219,155.3594 Q676.5781,155.2813 676.7813,155.2813 Q677.1094,155.2813 677.3594,155.5469 Q677.625,155.7969 677.625,156.1406 Q677.625,156.4844 677.2813,156.8906 Q676.7813,157.4688 675.9844,157.7969 Q674.9063,158.25 673.6094,158.25 Q672.0938,158.25 670.8906,157.625 Q669.9063,157.125 669.2188,156.0625 Q668.5313,154.9844 668.5313,153.7031 L668.5313,152.5469 Q668.5313,151.2188 669.1406,150.0781 Q669.7656,148.9219 670.8594,148.3125 Q671.9531,147.6875 673.1875,147.6875 Q673.9219,147.6875 674.5625,147.8594 Q675.2188,148.0156 675.7656,148.375 Z " fill="#000000"/><text fill="#000000" font-family="sans-serif" font-size="14" lengthAdjust="spacing" textLength="88" x="687" y="158.2285">BaseEndpoint</text><line style="stroke:#181818;stroke-width:0.5;" x1="659" x2="777" y1="168.5" y2="168.5"/><line style="stroke:#181818;stroke-width:0.5;" x1="659" x2="777" y1="176.5" y2="176.5"/></g><!--class Http--><g id="elem_Http"><rect codeLine="10" fill="#F1F1F1" height="58.7031" id="Http" rx="2.5" ry="2.5" style="stroke:#181818;stroke-width:0.5;" width="119" x="478.5" y="131"/><ellipse cx="493.5" cy="152.3516" fill="#ADD1B2" rx="11" ry="11" style="stroke:#181818;stroke-width:1.0;"/><path d="M496.2656,148.2266 Q496.4219,148.0078 496.6094,147.8984 Q496.7969,147.7891 497.0156,147.7891 Q497.3906,147.7891 497.625,148.0547 Q497.8594,148.3047 497.8594,148.9141 L497.8594,150.3672 Q497.8594,150.9766 497.625,151.2422 Q497.3906,151.5078 497.0156,151.5078 Q496.6719,151.5078 496.4688,151.3047 Q496.2656,151.1172 496.1563,150.6016 Q496.1094,150.2422 495.9219,150.0547 Q495.5938,149.6797 494.9844,149.4609 Q494.375,149.2422 493.75,149.2422 Q492.9844,149.2422 492.3438,149.5703 Q491.7188,149.8984 491.2188,150.6484 Q490.7344,151.3984 490.7344,152.4297 L490.7344,153.5234 Q490.7344,154.7578 491.625,155.5859 Q492.5156,156.3984 494.1094,156.3984 Q495.0469,156.3984 495.7031,156.1484 Q496.0938,155.9922 496.5156,155.5547 Q496.7813,155.2891 496.9219,155.2109 Q497.0781,155.1328 497.2813,155.1328 Q497.6094,155.1328 497.8594,155.3984 Q498.125,155.6484 498.125,155.9922 Q498.125,156.3359 497.7813,156.7422 Q497.2813,157.3203 496.4844,157.6484 Q495.4063,158.1016 494.1094,158.1016 Q492.5938,158.1016 491.3906,157.4766 Q490.4063,156.9766 489.7188,155.9141 Q489.0313,154.8359 489.0313,153.5547 L489.0313,152.3984 Q489.0313,151.0703 489.6406,149.9297 Q490.2656,148.7734 491.3594,148.1641 Q492.4531,147.5391 493.6875,147.5391 Q494.4219,147.5391 495.0625,147.7109 Q495.7188,147.8672 496.2656,148.2266 Z " fill="#000000"/><text fill="#000000" font-family="sans-serif" font-size="12" font-style="italic" lengthAdjust="spacing" textLength="91" x="505.5" y="148.457">&#171;AxiosInstance&#187;</text><text fill="#000000" font-family="sans-serif" font-size="14" lengthAdjust="spacing" textLength="25" x="538.5" y="165.627">Http</text><line style="stroke:#181818;stroke-width:0.5;" x1="479.5" x2="596.5" y1="173.7031" y2="173.7031"/><line style="stroke:#181818;stroke-width:0.5;" x1="479.5" x2="596.5" y1="181.7031" y2="181.7031"/></g><!--class AppLayout--><g id="elem_AppLayout"><rect codeLine="16" fill="#F1F1F1" height="58.7031" id="AppLayout" rx="2.5" ry="2.5" style="stroke:#181818;stroke-width:0.5;" width="104" x="130" y="131"/><ellipse cx="145" cy="152.3516" fill="#ADD1B2" rx="11" ry="11" style="stroke:#181818;stroke-width:1.0;"/><path d="M147.7656,148.2266 Q147.9219,148.0078 148.1094,147.8984 Q148.2969,147.7891 148.5156,147.7891 Q148.8906,147.7891 149.125,148.0547 Q149.3594,148.3047 149.3594,148.9141 L149.3594,150.3672 Q149.3594,150.9766 149.125,151.2422 Q148.8906,151.5078 148.5156,151.5078 Q148.1719,151.5078 147.9688,151.3047 Q147.7656,151.1172 147.6563,150.6016 Q147.6094,150.2422 147.4219,150.0547 Q147.0938,149.6797 146.4844,149.4609 Q145.875,149.2422 145.25,149.2422 Q144.4844,149.2422 143.8438,149.5703 Q143.2188,149.8984 142.7188,150.6484 Q142.2344,151.3984 142.2344,152.4297 L142.2344,153.5234 Q142.2344,154.7578 143.125,155.5859 Q144.0156,156.3984 145.6094,156.3984 Q146.5469,156.3984 147.2031,156.1484 Q147.5938,155.9922 148.0156,155.5547 Q148.2813,155.2891 148.4219,155.2109 Q148.5781,155.1328 148.7813,155.1328 Q149.1094,155.1328 149.3594,155.3984 Q149.625,155.6484 149.625,155.9922 Q149.625,156.3359 149.2813,156.7422 Q148.7813,157.3203 147.9844,157.6484 Q146.9063,158.1016 145.6094,158.1016 Q144.0938,158.1016 142.8906,157.4766 Q141.9063,156.9766 141.2188,155.9141 Q140.5313,154.8359 140.5313,153.5547 L140.5313,152.3984 Q140.5313,151.0703 141.1406,149.9297 Q141.7656,148.7734 142.8594,148.1641 Q143.9531,147.5391 145.1875,147.5391 Q145.9219,147.5391 146.5625,147.7109 Q147.2188,147.8672 147.7656,148.2266 Z " fill="#000000"/><text fill="#000000" font-family="sans-serif" font-size="12" font-style="italic" lengthAdjust="spacing" textLength="76" x="157" y="148.457">&#171;component&#187;</text><text fill="#000000" font-family="sans-serif" font-size="14" lengthAdjust="spacing" textLength="68" x="161" y="165.627">AppLayout</text><line style="stroke:#181818;stroke-width:0.5;" x1="131" x2="233" y1="173.7031" y2="173.7031"/><line style="stroke:#181818;stroke-width:0.5;" x1="131" x2="233" y1="181.7031" y2="181.7031"/></g><!--class AuthLayout--><g id="elem_AuthLayout"><rect codeLine="17" fill="#F1F1F1" height="58.7031" id="AuthLayout" rx="2.5" ry="2.5" style="stroke:#181818;stroke-width:0.5;" width="104" x="294" y="131"/><ellipse cx="309" cy="152.3516" fill="#ADD1B2" rx="11" ry="11" style="stroke:#181818;stroke-width:1.0;"/><path d="M311.7656,148.2266 Q311.9219,148.0078 312.1094,147.8984 Q312.2969,147.7891 312.5156,147.7891 Q312.8906,147.7891 313.125,148.0547 Q313.3594,148.3047 313.3594,148.9141 L313.3594,150.3672 Q313.3594,150.9766 313.125,151.2422 Q312.8906,151.5078 312.5156,151.5078 Q312.1719,151.5078 311.9688,151.3047 Q311.7656,151.1172 311.6563,150.6016 Q311.6094,150.2422 311.4219,150.0547 Q311.0938,149.6797 310.4844,149.4609 Q309.875,149.2422 309.25,149.2422 Q308.4844,149.2422 307.8438,149.5703 Q307.2188,149.8984 306.7188,150.6484 Q306.2344,151.3984 306.2344,152.4297 L306.2344,153.5234 Q306.2344,154.7578 307.125,155.5859 Q308.0156,156.3984 309.6094,156.3984 Q310.5469,156.3984 311.2031,156.1484 Q311.5938,155.9922 312.0156,155.5547 Q312.2813,155.2891 312.4219,155.2109 Q312.5781,155.1328 312.7813,155.1328 Q313.1094,155.1328 313.3594,155.3984 Q313.625,155.6484 313.625,155.9922 Q313.625,156.3359 313.2813,156.7422 Q312.7813,157.3203 311.9844,157.6484 Q310.9063,158.1016 309.6094,158.1016 Q308.0938,158.1016 306.8906,157.4766 Q305.9063,156.9766 305.2188,155.9141 Q304.5313,154.8359 304.5313,153.5547 L304.5313,152.3984 Q304.5313,151.0703 305.1406,149.9297 Q305.7656,148.7734 306.8594,148.1641 Q307.9531,147.5391 309.1875,147.5391 Q309.9219,147.5391 310.5625,147.7109 Q311.2188,147.8672 311.7656,148.2266 Z " fill="#000000"/><text fill="#000000" font-family="sans-serif" font-size="12" font-style="italic" lengthAdjust="spacing" textLength="76" x="321" y="148.457">&#171;component&#187;</text><text fill="#000000" font-family="sans-serif" font-size="14" lengthAdjust="spacing" textLength="72" x="323" y="165.627">AuthLayout</text><line style="stroke:#181818;stroke-width:0.5;" x1="295" x2="397" y1="173.7031" y2="173.7031"/><line style="stroke:#181818;stroke-width:0.5;" x1="295" x2="397" y1="181.7031" y2="181.7031"/></g><!--class AppSidebar--><g id="elem_AppSidebar"><rect codeLine="18" fill="#F1F1F1" height="58.7031" id="AppSidebar" rx="2.5" ry="2.5" style="stroke:#181818;stroke-width:0.5;" width="106" x="96" y="336.5"/><ellipse cx="111" cy="357.8516" fill="#ADD1B2" rx="11" ry="11" style="stroke:#181818;stroke-width:1.0;"/><path d="M113.7656,353.7266 Q113.9219,353.5078 114.1094,353.3984 Q114.2969,353.2891 114.5156,353.2891 Q114.8906,353.2891 115.125,353.5547 Q115.3594,353.8047 115.3594,354.4141 L115.3594,355.8672 Q115.3594,356.4766 115.125,356.7422 Q114.8906,357.0078 114.5156,357.0078 Q114.1719,357.0078 113.9688,356.8047 Q113.7656,356.6172 113.6563,356.1016 Q113.6094,355.7422 113.4219,355.5547 Q113.0938,355.1797 112.4844,354.9609 Q111.875,354.7422 111.25,354.7422 Q110.4844,354.7422 109.8438,355.0703 Q109.2188,355.3984 108.7188,356.1484 Q108.2344,356.8984 108.2344,357.9297 L108.2344,359.0234 Q108.2344,360.2578 109.125,361.0859 Q110.0156,361.8984 111.6094,361.8984 Q112.5469,361.8984 113.2031,361.6484 Q113.5938,361.4922 114.0156,361.0547 Q114.2813,360.7891 114.4219,360.7109 Q114.5781,360.6328 114.7813,360.6328 Q115.1094,360.6328 115.3594,360.8984 Q115.625,361.1484 115.625,361.4922 Q115.625,361.8359 115.2813,362.2422 Q114.7813,362.8203 113.9844,363.1484 Q112.9063,363.6016 111.6094,363.6016 Q110.0938,363.6016 108.8906,362.9766 Q107.9063,362.4766 107.2188,361.4141 Q106.5313,360.3359 106.5313,359.0547 L106.5313,357.8984 Q106.5313,356.5703 107.1406,355.4297 Q107.7656,354.2734 108.8594,353.6641 Q109.9531,353.0391 111.1875,353.0391 Q111.9219,353.0391 112.5625,353.2109 Q113.2188,353.3672 113.7656,353.7266 Z " fill="#000000"/><text fill="#000000" font-family="sans-serif" font-size="12" font-style="italic" lengthAdjust="spacing" textLength="76" x="124" y="353.957">&#171;component&#187;</text><text fill="#000000" font-family="sans-serif" font-size="14" lengthAdjust="spacing" textLength="74" x="125" y="371.127">AppSidebar</text><line style="stroke:#181818;stroke-width:0.5;" x1="97" x2="201" y1="379.2031" y2="379.2031"/><line style="stroke:#181818;stroke-width:0.5;" x1="97" x2="201" y1="387.2031" y2="387.2031"/></g><!--class AppTopbar--><g id="elem_AppTopbar"><rect codeLine="19" fill="#F1F1F1" height="58.7031" id="AppTopbar" rx="2.5" ry="2.5" style="stroke:#181818;stroke-width:0.5;" width="104" x="262" y="336.5"/><ellipse cx="277" cy="357.8516" fill="#ADD1B2" rx="11" ry="11" style="stroke:#181818;stroke-width:1.0;"/><path d="M279.7656,353.7266 Q279.9219,353.5078 280.1094,353.3984 Q280.2969,353.2891 280.5156,353.2891 Q280.8906,353.2891 281.125,353.5547 Q281.3594,353.8047 281.3594,354.4141 L281.3594,355.8672 Q281.3594,356.4766 281.125,356.7422 Q280.8906,357.0078 280.5156,357.0078 Q280.1719,357.0078 279.9688,356.8047 Q279.7656,356.6172 279.6563,356.1016 Q279.6094,355.7422 279.4219,355.5547 Q279.0938,355.1797 278.4844,354.9609 Q277.875,354.7422 277.25,354.7422 Q276.4844,354.7422 275.8438,355.0703 Q275.2188,355.3984 274.7188,356.1484 Q274.2344,356.8984 274.2344,357.9297 L274.2344,359.0234 Q274.2344,360.2578 275.125,361.0859 Q276.0156,361.8984 277.6094,361.8984 Q278.5469,361.8984 279.2031,361.6484 Q279.5938,361.4922 280.0156,361.0547 Q280.2813,360.7891 280.4219,360.7109 Q280.5781,360.6328 280.7813,360.6328 Q281.1094,360.6328 281.3594,360.8984 Q281.625,361.1484 281.625,361.4922 Q281.625,361.8359 281.2813,362.2422 Q280.7813,362.8203 279.9844,363.1484 Q278.9063,363.6016 277.6094,363.6016 Q276.0938,363.6016 274.8906,362.9766 Q273.9063,362.4766 273.2188,361.4141 Q272.5313,360.3359 272.5313,359.0547 L272.5313,357.8984 Q272.5313,356.5703 273.1406,355.4297 Q273.7656,354.2734 274.8594,353.6641 Q275.9531,353.0391 277.1875,353.0391 Q277.9219,353.0391 278.5625,353.2109 Q279.2188,353.3672 279.7656,353.7266 Z " fill="#000000"/><text fill="#000000" font-family="sans-serif" font-size="12" font-style="italic" lengthAdjust="spacing" textLength="76" x="289" y="353.957">&#171;component&#187;</text><text fill="#000000" font-family="sans-serif" font-size="14" lengthAdjust="spacing" textLength="71" x="291.5" y="371.127">AppTopbar</text><line style="stroke:#181818;stroke-width:0.5;" x1="263" x2="365" y1="379.2031" y2="379.2031"/><line style="stroke:#181818;stroke-width:0.5;" x1="263" x2="365" y1="387.2031" y2="387.2031"/></g><!--class LanguageSwitcher--><g id="elem_LanguageSwitcher"><rect codeLine="20" fill="#F1F1F1" height="58.7031" id="LanguageSwitcher" rx="2.5" ry="2.5" style="stroke:#181818;stroke-width:0.5;" width="149" x="71.5" y="559.5"/><ellipse cx="86.5" cy="580.8516" fill="#ADD1B2" rx="11" ry="11" style="stroke:#181818;stroke-width:1.0;"/><path d="M89.2656,576.7266 Q89.4219,576.5078 89.6094,576.3984 Q89.7969,576.2891 90.0156,576.2891 Q90.3906,576.2891 90.625,576.5547 Q90.8594,576.8047 90.8594,577.4141 L90.8594,578.8672 Q90.8594,579.4766 90.625,579.7422 Q90.3906,580.0078 90.0156,580.0078 Q89.6719,580.0078 89.4688,579.8047 Q89.2656,579.6172 89.1563,579.1016 Q89.1094,578.7422 88.9219,578.5547 Q88.5938,578.1797 87.9844,577.9609 Q87.375,577.7422 86.75,577.7422 Q85.9844,577.7422 85.3438,578.0703 Q84.7188,578.3984 84.2188,579.1484 Q83.7344,579.8984 83.7344,580.9297 L83.7344,582.0234 Q83.7344,583.2578 84.625,584.0859 Q85.5156,584.8984 87.1094,584.8984 Q88.0469,584.8984 88.7031,584.6484 Q89.0938,584.4922 89.5156,584.0547 Q89.7813,583.7891 89.9219,583.7109 Q90.0781,583.6328 90.2813,583.6328 Q90.6094,583.6328 90.8594,583.8984 Q91.125,584.1484 91.125,584.4922 Q91.125,584.8359 90.7813,585.2422 Q90.2813,585.8203 89.4844,586.1484 Q88.4063,586.6016 87.1094,586.6016 Q85.5938,586.6016 84.3906,585.9766 Q83.4063,585.4766 82.7188,584.4141 Q82.0313,583.3359 82.0313,582.0547 L82.0313,580.8984 Q82.0313,579.5703 82.6406,578.4297 Q83.2656,577.2734 84.3594,576.6641 Q85.4531,576.0391 86.6875,576.0391 Q87.4219,576.0391 88.0625,576.2109 Q88.7188,576.3672 89.2656,576.7266 Z " fill="#000000"/><text fill="#000000" font-family="sans-serif" font-size="12" font-style="italic" lengthAdjust="spacing" textLength="76" x="121" y="576.957">&#171;component&#187;</text><text fill="#000000" font-family="sans-serif" font-size="14" lengthAdjust="spacing" textLength="117" x="100.5" y="594.127">LanguageSwitcher</text><line style="stroke:#181818;stroke-width:0.5;" x1="72.5" x2="219.5" y1="602.2031" y2="602.2031"/><line style="stroke:#181818;stroke-width:0.5;" x1="72.5" x2="219.5" y1="610.2031" y2="610.2031"/></g><!--class LogoutButton--><g id="elem_LogoutButton"><rect codeLine="21" fill="#F1F1F1" height="58.7031" id="LogoutButton" rx="2.5" ry="2.5" style="stroke:#181818;stroke-width:0.5;" width="117" x="280.5" y="559.5"/><ellipse cx="295.5" cy="580.8516" fill="#ADD1B2" rx="11" ry="11" style="stroke:#181818;stroke-width:1.0;"/><path d="M298.2656,576.7266 Q298.4219,576.5078 298.6094,576.3984 Q298.7969,576.2891 299.0156,576.2891 Q299.3906,576.2891 299.625,576.5547 Q299.8594,576.8047 299.8594,577.4141 L299.8594,578.8672 Q299.8594,579.4766 299.625,579.7422 Q299.3906,580.0078 299.0156,580.0078 Q298.6719,580.0078 298.4688,579.8047 Q298.2656,579.6172 298.1563,579.1016 Q298.1094,578.7422 297.9219,578.5547 Q297.5938,578.1797 296.9844,577.9609 Q296.375,577.7422 295.75,577.7422 Q294.9844,577.7422 294.3438,578.0703 Q293.7188,578.3984 293.2188,579.1484 Q292.7344,579.8984 292.7344,580.9297 L292.7344,582.0234 Q292.7344,583.2578 293.625,584.0859 Q294.5156,584.8984 296.1094,584.8984 Q297.0469,584.8984 297.7031,584.6484 Q298.0938,584.4922 298.5156,584.0547 Q298.7813,583.7891 298.9219,583.7109 Q299.0781,583.6328 299.2813,583.6328 Q299.6094,583.6328 299.8594,583.8984 Q300.125,584.1484 300.125,584.4922 Q300.125,584.8359 299.7813,585.2422 Q299.2813,585.8203 298.4844,586.1484 Q297.4063,586.6016 296.1094,586.6016 Q294.5938,586.6016 293.3906,585.9766 Q292.4063,585.4766 291.7188,584.4141 Q291.0313,583.3359 291.0313,582.0547 L291.0313,580.8984 Q291.0313,579.5703 291.6406,578.4297 Q292.2656,577.2734 293.3594,576.6641 Q294.4531,576.0391 295.6875,576.0391 Q296.4219,576.0391 297.0625,576.2109 Q297.7188,576.3672 298.2656,576.7266 Z " fill="#000000"/><text fill="#000000" font-family="sans-serif" font-size="12" font-style="italic" lengthAdjust="spacing" textLength="76" x="314" y="576.957">&#171;component&#187;</text><text fill="#000000" font-family="sans-serif" font-size="14" lengthAdjust="spacing" textLength="85" x="309.5" y="594.127">LogoutButton</text><line style="stroke:#181818;stroke-width:0.5;" x1="281.5" x2="396.5" y1="602.2031" y2="602.2031"/><line style="stroke:#181818;stroke-width:0.5;" x1="281.5" x2="396.5" y1="610.2031" y2="610.2031"/></g><!--class Plan--><g id="elem_Plan"><rect codeLine="34" fill="#F1F1F1" height="340.4531" id="Plan" rx="2.5" ry="2.5" style="stroke:#181818;stroke-width:0.5;" width="195" x="987.5" y="759.5"/><ellipse cx="1061.25" cy="780.8516" fill="#ADD1B2" rx="11" ry="11" style="stroke:#181818;stroke-width:1.0;"/><path d="M1064.0156,776.7266 Q1064.1719,776.5078 1064.3594,776.3984 Q1064.5469,776.2891 1064.7656,776.2891 Q1065.1406,776.2891 1065.375,776.5547 Q1065.6094,776.8047 1065.6094,777.4141 L1065.6094,778.8672 Q1065.6094,779.4766 1065.375,779.7422 Q1065.1406,780.0078 1064.7656,780.0078 Q1064.4219,780.0078 1064.2188,779.8047 Q1064.0156,779.6172 1063.9063,779.1016 Q1063.8594,778.7422 1063.6719,778.5547 Q1063.3438,778.1797 1062.7344,777.9609 Q1062.125,777.7422 1061.5,777.7422 Q1060.7344,777.7422 1060.0938,778.0703 Q1059.4688,778.3984 1058.9688,779.1484 Q1058.4844,779.8984 1058.4844,780.9297 L1058.4844,782.0234 Q1058.4844,783.2578 1059.375,784.0859 Q1060.2656,784.8984 1061.8594,784.8984 Q1062.7969,784.8984 1063.4531,784.6484 Q1063.8438,784.4922 1064.2656,784.0547 Q1064.5313,783.7891 1064.6719,783.7109 Q1064.8281,783.6328 1065.0313,783.6328 Q1065.3594,783.6328 1065.6094,783.8984 Q1065.875,784.1484 1065.875,784.4922 Q1065.875,784.8359 1065.5313,785.2422 Q1065.0313,785.8203 1064.2344,786.1484 Q1063.1563,786.6016 1061.8594,786.6016 Q1060.3438,786.6016 1059.1406,785.9766 Q1058.1563,785.4766 1057.4688,784.4141 Q1056.7813,783.3359 1056.7813,782.0547 L1056.7813,780.8984 Q1056.7813,779.5703 1057.3906,778.4297 Q1058.0156,777.2734 1059.1094,776.6641 Q1060.2031,776.0391 1061.4375,776.0391 Q1062.1719,776.0391 1062.8125,776.2109 Q1063.4688,776.3672 1064.0156,776.7266 Z " fill="#000000"/><text fill="#000000" font-family="sans-serif" font-size="12" font-style="italic" lengthAdjust="spacing" textLength="43" x="1079.75" y="776.957">&#171;entity&#187;</text><text fill="#000000" font-family="sans-serif" font-size="14" lengthAdjust="spacing" textLength="28" x="1087.25" y="794.127">Plan</text><line style="stroke:#181818;stroke-width:0.5;" x1="988.5" x2="1181.5" y1="802.2031" y2="802.2031"/><rect fill="none" height="6" style="stroke:#C82930;stroke-width:1.0;" width="6" x="995.5" y="813.5078"/><text fill="#000000" font-family="sans-serif" font-size="14" lengthAdjust="spacing" textLength="68" x="1007.5" y="820.7363">id: Number</text><rect fill="none" height="6" style="stroke:#C82930;stroke-width:1.0;" width="6" x="995.5" y="831.1172"/><text fill="#000000" font-family="sans-serif" font-size="14" lengthAdjust="spacing" textLength="74" x="1007.5" y="838.3457">code: string</text><rect fill="none" height="6" style="stroke:#C82930;stroke-width:1.0;" width="6" x="995.5" y="848.7266"/><text fill="#000000" font-family="sans-serif" font-size="14" lengthAdjust="spacing" textLength="78" x="1007.5" y="855.9551">name: string</text><rect fill="none" height="6" style="stroke:#C82930;stroke-width:1.0;" width="6" x="995.5" y="866.3359"/><text fill="#000000" font-family="sans-serif" font-size="14" lengthAdjust="spacing" textLength="88" x="1007.5" y="873.5645">price: Number</text><rect fill="none" height="6" style="stroke:#C82930;stroke-width:1.0;" width="6" x="995.5" y="883.9453"/><text fill="#000000" font-family="sans-serif" font-size="14" lengthAdjust="spacing" textLength="98" x="1007.5" y="891.1738">currency: string</text><rect fill="none" height="6" style="stroke:#C82930;stroke-width:1.0;" width="6" x="995.5" y="901.5547"/><text fill="#000000" font-family="sans-serif" font-size="14" lengthAdjust="spacing" textLength="120" x="1007.5" y="908.7832">billingPeriod: string</text><rect fill="none" height="6" style="stroke:#C82930;stroke-width:1.0;" width="6" x="995.5" y="919.1641"/><text fill="#000000" font-family="sans-serif" font-size="14" lengthAdjust="spacing" textLength="156" x="1007.5" y="926.3926">maxDoctors: Number|null</text><rect fill="none" height="6" style="stroke:#C82930;stroke-width:1.0;" width="6" x="995.5" y="936.7734"/><text fill="#000000" font-family="sans-serif" font-size="14" lengthAdjust="spacing" textLength="157" x="1007.5" y="944.002">maxSupervisors: Number</text><rect fill="none" height="6" style="stroke:#C82930;stroke-width:1.0;" width="6" x="995.5" y="954.3828"/><text fill="#000000" font-family="sans-serif" font-size="14" lengthAdjust="spacing" textLength="125" x="1007.5" y="961.6113">maxTeams: Number</text><rect fill="none" height="6" style="stroke:#C82930;stroke-width:1.0;" width="6" x="995.5" y="971.9922"/><text fill="#000000" font-family="sans-serif" font-size="14" lengthAdjust="spacing" textLength="152" x="1007.5" y="979.2207">maxWorkAreas: Number</text><rect fill="none" height="6" style="stroke:#C82930;stroke-width:1.0;" width="6" x="995.5" y="989.6016"/><text fill="#000000" font-family="sans-serif" font-size="14" lengthAdjust="spacing" textLength="169" x="1007.5" y="996.8301">monthlyInvitations: Number</text><rect fill="none" height="6" style="stroke:#C82930;stroke-width:1.0;" width="6" x="995.5" y="1007.2109"/><text fill="#000000" font-family="sans-serif" font-size="14" lengthAdjust="spacing" textLength="160" x="1007.5" y="1014.4395">dataHistoryDays: Number</text><rect fill="none" height="6" style="stroke:#C82930;stroke-width:1.0;" width="6" x="995.5" y="1024.8203"/><text fill="#000000" font-family="sans-serif" font-size="14" lengthAdjust="spacing" textLength="125" x="1007.5" y="1032.0488">supportLevel: string</text><rect fill="none" height="6" style="stroke:#C82930;stroke-width:1.0;" width="6" x="995.5" y="1042.4297"/><text fill="#000000" font-family="sans-serif" font-size="14" lengthAdjust="spacing" textLength="149" x="1007.5" y="1049.6582">recommended: boolean</text><rect fill="none" height="6" style="stroke:#C82930;stroke-width:1.0;" width="6" x="995.5" y="1060.0391"/><text fill="#000000" font-family="sans-serif" font-size="14" lengthAdjust="spacing" textLength="127" x="1007.5" y="1067.2676">featureKeys: string[]</text><line style="stroke:#181818;stroke-width:0.5;" x1="988.5" x2="1181.5" y1="1074.3438" y2="1074.3438"/><ellipse cx="998.5" cy="1088.6484" fill="#84BE84" rx="3" ry="3" style="stroke:#038048;stroke-width:1.0;"/><text fill="#000000" font-family="sans-serif" font-size="14" lengthAdjust="spacing" textLength="109" x="1007.5" y="1092.877">constructor(data)</text></g><!--class Subscription--><g id="elem_Subscription"><rect codeLine="53" fill="#F1F1F1" height="217.1875" id="Subscription" rx="2.5" ry="2.5" style="stroke:#181818;stroke-width:0.5;" width="218" x="982" y="1163"/><ellipse cx="1047.75" cy="1184.3516" fill="#ADD1B2" rx="11" ry="11" style="stroke:#181818;stroke-width:1.0;"/><path d="M1050.5156,1180.2266 Q1050.6719,1180.0078 1050.8594,1179.8984 Q1051.0469,1179.7891 1051.2656,1179.7891 Q1051.6406,1179.7891 1051.875,1180.0547 Q1052.1094,1180.3047 1052.1094,1180.9141 L1052.1094,1182.3672 Q1052.1094,1182.9766 1051.875,1183.2422 Q1051.6406,1183.5078 1051.2656,1183.5078 Q1050.9219,1183.5078 1050.7188,1183.3047 Q1050.5156,1183.1172 1050.4063,1182.6016 Q1050.3594,1182.2422 1050.1719,1182.0547 Q1049.8438,1181.6797 1049.2344,1181.4609 Q1048.625,1181.2422 1048,1181.2422 Q1047.2344,1181.2422 1046.5938,1181.5703 Q1045.9688,1181.8984 1045.4688,1182.6484 Q1044.9844,1183.3984 1044.9844,1184.4297 L1044.9844,1185.5234 Q1044.9844,1186.7578 1045.875,1187.5859 Q1046.7656,1188.3984 1048.3594,1188.3984 Q1049.2969,1188.3984 1049.9531,1188.1484 Q1050.3438,1187.9922 1050.7656,1187.5547 Q1051.0313,1187.2891 1051.1719,1187.2109 Q1051.3281,1187.1328 1051.5313,1187.1328 Q1051.8594,1187.1328 1052.1094,1187.3984 Q1052.375,1187.6484 1052.375,1187.9922 Q1052.375,1188.3359 1052.0313,1188.7422 Q1051.5313,1189.3203 1050.7344,1189.6484 Q1049.6563,1190.1016 1048.3594,1190.1016 Q1046.8438,1190.1016 1045.6406,1189.4766 Q1044.6563,1188.9766 1043.9688,1187.9141 Q1043.2813,1186.8359 1043.2813,1185.5547 L1043.2813,1184.3984 Q1043.2813,1183.0703 1043.8906,1181.9297 Q1044.5156,1180.7734 1045.6094,1180.1641 Q1046.7031,1179.5391 1047.9375,1179.5391 Q1048.6719,1179.5391 1049.3125,1179.7109 Q1049.9688,1179.8672 1050.5156,1180.2266 Z " fill="#000000"/><text fill="#000000" font-family="sans-serif" font-size="12" font-style="italic" lengthAdjust="spacing" textLength="43" x="1085.75" y="1180.457">&#171;entity&#187;</text><text fill="#000000" font-family="sans-serif" font-size="14" lengthAdjust="spacing" textLength="78" x="1068.25" y="1197.627">Subscription</text><line style="stroke:#181818;stroke-width:0.5;" x1="983" x2="1199" y1="1205.7031" y2="1205.7031"/><rect fill="none" height="6" style="stroke:#C82930;stroke-width:1.0;" width="6" x="990" y="1217.0078"/><text fill="#000000" font-family="sans-serif" font-size="14" lengthAdjust="spacing" textLength="68" x="1002" y="1224.2363">id: Number</text><rect fill="none" height="6" style="stroke:#C82930;stroke-width:1.0;" width="6" x="990" y="1234.6172"/><text fill="#000000" font-family="sans-serif" font-size="14" lengthAdjust="spacing" textLength="145" x="1002" y="1241.8457">organizationId: Number</text><rect fill="none" height="6" style="stroke:#C82930;stroke-width:1.0;" width="6" x="990" y="1252.2266"/><text fill="#000000" font-family="sans-serif" font-size="14" lengthAdjust="spacing" textLength="95" x="1002" y="1259.4551">planId: Number</text><rect fill="none" height="6" style="stroke:#C82930;stroke-width:1.0;" width="6" x="990" y="1269.8359"/><text fill="#000000" font-family="sans-serif" font-size="14" lengthAdjust="spacing" textLength="81" x="1002" y="1277.0645">status: string</text><rect fill="none" height="6" style="stroke:#C82930;stroke-width:1.0;" width="6" x="990" y="1287.4453"/><text fill="#000000" font-family="sans-serif" font-size="14" lengthAdjust="spacing" textLength="95" x="1002" y="1294.6738">startedAt: Date</text><rect fill="none" height="6" style="stroke:#C82930;stroke-width:1.0;" width="6" x="990" y="1305.0547"/><text fill="#000000" font-family="sans-serif" font-size="14" lengthAdjust="spacing" textLength="136" x="1002" y="1312.2832">cancelledAt: Date|null</text><rect fill="none" height="6" style="stroke:#C82930;stroke-width:1.0;" width="6" x="990" y="1322.6641"/><text fill="#000000" font-family="sans-serif" font-size="14" lengthAdjust="spacing" textLength="192" x="1002" y="1329.8926">stripeSubscriptionId: string|null</text><rect fill="none" height="6" style="stroke:#C82930;stroke-width:1.0;" width="6" x="990" y="1340.2734"/><text fill="#000000" font-family="sans-serif" font-size="14" lengthAdjust="spacing" textLength="175" x="1002" y="1347.502">stripeCustomerId: string|null</text><line style="stroke:#181818;stroke-width:0.5;" x1="983" x2="1199" y1="1354.5781" y2="1354.5781"/><ellipse cx="993" cy="1368.8828" fill="#84BE84" rx="3" ry="3" style="stroke:#038048;stroke-width:1.0;"/><text fill="#000000" font-family="sans-serif" font-size="14" lengthAdjust="spacing" textLength="109" x="1002" y="1373.1113">constructor(data)</text></g><!--class SubscriptionApi--><g id="elem_SubscriptionApi"><rect codeLine="67" fill="#F1F1F1" height="347.3594" id="SubscriptionApi" rx="2.5" ry="2.5" style="stroke:#181818;stroke-width:0.5;" width="332" x="1489" y="756"/><ellipse cx="1601.75" cy="772" fill="#ADD1B2" rx="11" ry="11" style="stroke:#181818;stroke-width:1.0;"/><path d="M1604.5156,767.875 Q1604.6719,767.6563 1604.8594,767.5469 Q1605.0469,767.4375 1605.2656,767.4375 Q1605.6406,767.4375 1605.875,767.7031 Q1606.1094,767.9531 1606.1094,768.5625 L1606.1094,770.0156 Q1606.1094,770.625 1605.875,770.8906 Q1605.6406,771.1563 1605.2656,771.1563 Q1604.9219,771.1563 1604.7188,770.9531 Q1604.5156,770.7656 1604.4063,770.25 Q1604.3594,769.8906 1604.1719,769.7031 Q1603.8438,769.3281 1603.2344,769.1094 Q1602.625,768.8906 1602,768.8906 Q1601.2344,768.8906 1600.5938,769.2188 Q1599.9688,769.5469 1599.4688,770.2969 Q1598.9844,771.0469 1598.9844,772.0781 L1598.9844,773.1719 Q1598.9844,774.4063 1599.875,775.2344 Q1600.7656,776.0469 1602.3594,776.0469 Q1603.2969,776.0469 1603.9531,775.7969 Q1604.3438,775.6406 1604.7656,775.2031 Q1605.0313,774.9375 1605.1719,774.8594 Q1605.3281,774.7813 1605.5313,774.7813 Q1605.8594,774.7813 1606.1094,775.0469 Q1606.375,775.2969 1606.375,775.6406 Q1606.375,775.9844 1606.0313,776.3906 Q1605.5313,776.9688 1604.7344,777.2969 Q1603.6563,777.75 1602.3594,777.75 Q1600.8438,777.75 1599.6406,777.125 Q1598.6563,776.625 1597.9688,775.5625 Q1597.2813,774.4844 1597.2813,773.2031 L1597.2813,772.0469 Q1597.2813,770.7188 1597.8906,769.5781 Q1598.5156,768.4219 1599.6094,767.8125 Q1600.7031,767.1875 1601.9375,767.1875 Q1602.6719,767.1875 1603.3125,767.3594 Q1603.9688,767.5156 1604.5156,767.875 Z " fill="#000000"/><text fill="#000000" font-family="sans-serif" font-size="14" lengthAdjust="spacing" textLength="98" x="1622.25" y="777.7285">SubscriptionApi</text><line style="stroke:#181818;stroke-width:0.5;" x1="1490" x2="1820" y1="788" y2="788"/><line style="stroke:#181818;stroke-width:0.5;" x1="1490" x2="1820" y1="796" y2="796"/><ellipse cx="1500" cy="810.3047" fill="#84BE84" rx="3" ry="3" style="stroke:#038048;stroke-width:1.0;"/><text fill="#000000" font-family="sans-serif" font-size="14" lengthAdjust="spacing" textLength="103" x="1509" y="814.5332">plans(): Promise</text><ellipse cx="1500" cy="827.9141" fill="#84BE84" rx="3" ry="3" style="stroke:#038048;stroke-width:1.0;"/><text fill="#000000" font-family="sans-serif" font-size="14" lengthAdjust="spacing" textLength="199" x="1509" y="832.1426">subscriptions(params): Promise</text><ellipse cx="1500" cy="845.5234" fill="#84BE84" rx="3" ry="3" style="stroke:#038048;stroke-width:1.0;"/><text fill="#000000" font-family="sans-serif" font-size="14" lengthAdjust="spacing" textLength="230" x="1509" y="849.752">checkoutSessions(params): Promise</text><ellipse cx="1500" cy="863.1328" fill="#84BE84" rx="3" ry="3" style="stroke:#038048;stroke-width:1.0;"/><text fill="#000000" font-family="sans-serif" font-size="14" lengthAdjust="spacing" textLength="153" x="1509" y="867.3613">organizations(): Promise</text><ellipse cx="1500" cy="880.7422" fill="#84BE84" rx="3" ry="3" style="stroke:#038048;stroke-width:1.0;"/><text fill="#000000" font-family="sans-serif" font-size="14" lengthAdjust="spacing" textLength="199" x="1509" y="884.9707">cancelSubscription(id): Promise</text><ellipse cx="1500" cy="898.3516" fill="#84BE84" rx="3" ry="3" style="stroke:#038048;stroke-width:1.0;"/><text fill="#000000" font-family="sans-serif" font-size="14" lengthAdjust="spacing" textLength="218" x="1509" y="902.5801">getSubscriptionStatus(id): Promise</text><ellipse cx="1500" cy="915.9609" fill="#84BE84" rx="3" ry="3" style="stroke:#038048;stroke-width:1.0;"/><text fill="#000000" font-family="sans-serif" font-size="14" lengthAdjust="spacing" textLength="237" x="1509" y="920.1895">getSubscriptionSummary(id): Promise</text><ellipse cx="1500" cy="933.5703" fill="#84BE84" rx="3" ry="3" style="stroke:#038048;stroke-width:1.0;"/><text fill="#000000" font-family="sans-serif" font-size="14" lengthAdjust="spacing" textLength="201" x="1509" y="937.7988">getPendingCheckout(): Promise</text><ellipse cx="1500" cy="951.1797" fill="#84BE84" rx="3" ry="3" style="stroke:#038048;stroke-width:1.0;"/><text fill="#000000" font-family="sans-serif" font-size="14" lengthAdjust="spacing" textLength="212" x="1509" y="955.4082">clearPendingCheckout(): Promise</text><ellipse cx="1500" cy="968.7891" fill="#84BE84" rx="3" ry="3" style="stroke:#038048;stroke-width:1.0;"/><text fill="#000000" font-family="sans-serif" font-size="14" lengthAdjust="spacing" textLength="239" x="1509" y="973.0176">createOrganization(payload): Promise</text><ellipse cx="1500" cy="986.3984" fill="#84BE84" rx="3" ry="3" style="stroke:#038048;stroke-width:1.0;"/><text fill="#000000" font-family="sans-serif" font-size="14" lengthAdjust="spacing" textLength="292" x="1509" y="990.627">createHospitalAdministrator(payload): Promise</text><ellipse cx="1500" cy="1004.0078" fill="#84BE84" rx="3" ry="3" style="stroke:#038048;stroke-width:1.0;"/><text fill="#000000" font-family="sans-serif" font-size="14" lengthAdjust="spacing" textLength="237" x="1509" y="1008.2363">createSubscription(payload): Promise</text><ellipse cx="1500" cy="1021.6172" fill="#84BE84" rx="3" ry="3" style="stroke:#038048;stroke-width:1.0;"/><text fill="#000000" font-family="sans-serif" font-size="14" lengthAdjust="spacing" textLength="260" x="1509" y="1025.8457">updateSubscription(id, payload): Promise</text><ellipse cx="1500" cy="1039.2266" fill="#84BE84" rx="3" ry="3" style="stroke:#038048;stroke-width:1.0;"/><text fill="#000000" font-family="sans-serif" font-size="14" lengthAdjust="spacing" textLength="306" x="1509" y="1043.4551">createStripeCheckoutSession(payload): Promise</text><ellipse cx="1500" cy="1056.8359" fill="#84BE84" rx="3" ry="3" style="stroke:#038048;stroke-width:1.0;"/><text fill="#000000" font-family="sans-serif" font-size="14" lengthAdjust="spacing" textLength="298" x="1509" y="1061.0645">getCheckoutSessionStatus(sessionId): Promise</text><ellipse cx="1500" cy="1074.4453" fill="#84BE84" rx="3" ry="3" style="stroke:#038048;stroke-width:1.0;"/><text fill="#000000" font-family="sans-serif" font-size="14" lengthAdjust="spacing" textLength="231" x="1509" y="1078.6738">cancelCheckoutSession(id): Promise</text><ellipse cx="1500" cy="1092.0547" fill="#84BE84" rx="3" ry="3" style="stroke:#038048;stroke-width:1.0;"/><text fill="#000000" font-family="sans-serif" font-size="14" lengthAdjust="spacing" textLength="290" x="1509" y="1096.2832">registerOrganizationWithStripe(data): Promise</text></g><!--class SubscriptionStore--><g id="elem_SubscriptionStore"><rect codeLine="91" fill="#F1F1F1" height="181.9688" id="SubscriptionStore" rx="2.5" ry="2.5" style="stroke:#181818;stroke-width:0.5;" width="203" x="1018.5" y="498"/><ellipse cx="1060.05" cy="519.3516" fill="#ADD1B2" rx="11" ry="11" style="stroke:#181818;stroke-width:1.0;"/><path d="M1062.8156,515.2266 Q1062.9719,515.0078 1063.1594,514.8984 Q1063.3469,514.7891 1063.5656,514.7891 Q1063.9406,514.7891 1064.175,515.0547 Q1064.4094,515.3047 1064.4094,515.9141 L1064.4094,517.3672 Q1064.4094,517.9766 1064.175,518.2422 Q1063.9406,518.5078 1063.5656,518.5078 Q1063.2219,518.5078 1063.0188,518.3047 Q1062.8156,518.1172 1062.7063,517.6016 Q1062.6594,517.2422 1062.4719,517.0547 Q1062.1438,516.6797 1061.5344,516.4609 Q1060.925,516.2422 1060.3,516.2422 Q1059.5344,516.2422 1058.8938,516.5703 Q1058.2688,516.8984 1057.7688,517.6484 Q1057.2844,518.3984 1057.2844,519.4297 L1057.2844,520.5234 Q1057.2844,521.7578 1058.175,522.5859 Q1059.0656,523.3984 1060.6594,523.3984 Q1061.5969,523.3984 1062.2531,523.1484 Q1062.6438,522.9922 1063.0656,522.5547 Q1063.3313,522.2891 1063.4719,522.2109 Q1063.6281,522.1328 1063.8313,522.1328 Q1064.1594,522.1328 1064.4094,522.3984 Q1064.675,522.6484 1064.675,522.9922 Q1064.675,523.3359 1064.3313,523.7422 Q1063.8313,524.3203 1063.0344,524.6484 Q1061.9563,525.1016 1060.6594,525.1016 Q1059.1438,525.1016 1057.9406,524.4766 Q1056.9563,523.9766 1056.2688,522.9141 Q1055.5813,521.8359 1055.5813,520.5547 L1055.5813,519.3984 Q1055.5813,518.0703 1056.1906,516.9297 Q1056.8156,515.7734 1057.9094,515.1641 Q1059.0031,514.5391 1060.2375,514.5391 Q1060.9719,514.5391 1061.6125,514.7109 Q1062.2688,514.8672 1062.8156,515.2266 Z " fill="#000000"/><text fill="#000000" font-family="sans-serif" font-size="12" font-style="italic" lengthAdjust="spacing" textLength="41" x="1115.45" y="515.457">&#171;store&#187;</text><text fill="#000000" font-family="sans-serif" font-size="14" lengthAdjust="spacing" textLength="112" x="1079.95" y="532.627">SubscriptionStore</text><line style="stroke:#181818;stroke-width:0.5;" x1="1019.5" x2="1220.5" y1="540.7031" y2="540.7031"/><rect fill="none" height="6" style="stroke:#C82930;stroke-width:1.0;" width="6" x="1026.5" y="552.0078"/><text fill="#000000" font-family="sans-serif" font-size="14" lengthAdjust="spacing" textLength="78" x="1038.5" y="559.2363">plans: Plan[]</text><rect fill="none" height="6" style="stroke:#C82930;stroke-width:1.0;" width="6" x="1026.5" y="569.6172"/><text fill="#000000" font-family="sans-serif" font-size="14" lengthAdjust="spacing" textLength="177" x="1038.5" y="576.8457">subscriptions: Subscription[]</text><rect fill="none" height="6" style="stroke:#C82930;stroke-width:1.0;" width="6" x="1026.5" y="587.2266"/><text fill="#000000" font-family="sans-serif" font-size="14" lengthAdjust="spacing" textLength="112" x="1038.5" y="594.4551">sessions: Object[]</text><line style="stroke:#181818;stroke-width:0.5;" x1="1019.5" x2="1220.5" y1="601.5313" y2="601.5313"/><ellipse cx="1029.5" cy="615.8359" fill="#84BE84" rx="3" ry="3" style="stroke:#038048;stroke-width:1.0;"/><text fill="#000000" font-family="sans-serif" font-size="14" lengthAdjust="spacing" textLength="52" x="1038.5" y="620.0645">loadAll()</text><ellipse cx="1029.5" cy="633.4453" fill="#84BE84" rx="3" ry="3" style="stroke:#038048;stroke-width:1.0;"/><text fill="#000000" font-family="sans-serif" font-size="14" lengthAdjust="spacing" textLength="140" x="1038.5" y="637.6738">cancelSubscription(id)</text><ellipse cx="1029.5" cy="651.0547" fill="#84BE84" rx="3" ry="3" style="stroke:#038048;stroke-width:1.0;"/><text fill="#000000" font-family="sans-serif" font-size="14" lengthAdjust="spacing" textLength="111" x="1038.5" y="655.2832">fetchSummary(id)</text><ellipse cx="1029.5" cy="668.6641" fill="#84BE84" rx="3" ry="3" style="stroke:#038048;stroke-width:1.0;"/><text fill="#000000" font-family="sans-serif" font-size="14" lengthAdjust="spacing" textLength="92" x="1038.5" y="672.8926">fetchStatus(id)</text></g><!--class AdminSubscription--><g id="elem_AdminSubscription"><rect codeLine="105" fill="#F1F1F1" height="111.5313" id="AdminSubscription" rx="2.5" ry="2.5" style="stroke:#181818;stroke-width:0.5;" width="178" x="882" y="310"/><ellipse cx="910.05" cy="331.3516" fill="#ADD1B2" rx="11" ry="11" style="stroke:#181818;stroke-width:1.0;"/><path d="M912.8156,327.2266 Q912.9719,327.0078 913.1594,326.8984 Q913.3469,326.7891 913.5656,326.7891 Q913.9406,326.7891 914.175,327.0547 Q914.4094,327.3047 914.4094,327.9141 L914.4094,329.3672 Q914.4094,329.9766 914.175,330.2422 Q913.9406,330.5078 913.5656,330.5078 Q913.2219,330.5078 913.0188,330.3047 Q912.8156,330.1172 912.7063,329.6016 Q912.6594,329.2422 912.4719,329.0547 Q912.1438,328.6797 911.5344,328.4609 Q910.925,328.2422 910.3,328.2422 Q909.5344,328.2422 908.8938,328.5703 Q908.2688,328.8984 907.7688,329.6484 Q907.2844,330.3984 907.2844,331.4297 L907.2844,332.5234 Q907.2844,333.7578 908.175,334.5859 Q909.0656,335.3984 910.6594,335.3984 Q911.5969,335.3984 912.2531,335.1484 Q912.6438,334.9922 913.0656,334.5547 Q913.3313,334.2891 913.4719,334.2109 Q913.6281,334.1328 913.8313,334.1328 Q914.1594,334.1328 914.4094,334.3984 Q914.675,334.6484 914.675,334.9922 Q914.675,335.3359 914.3313,335.7422 Q913.8313,336.3203 913.0344,336.6484 Q911.9563,337.1016 910.6594,337.1016 Q909.1438,337.1016 907.9406,336.4766 Q906.9563,335.9766 906.2688,334.9141 Q905.5813,333.8359 905.5813,332.5547 L905.5813,331.3984 Q905.5813,330.0703 906.1906,328.9297 Q906.8156,327.7734 907.9094,327.1641 Q909.0031,326.5391 910.2375,326.5391 Q910.9719,326.5391 911.6125,326.7109 Q912.2688,326.8672 912.8156,327.2266 Z " fill="#000000"/><text fill="#000000" font-family="sans-serif" font-size="12" font-style="italic" lengthAdjust="spacing" textLength="38" x="966.45" y="327.457">&#171;view&#187;</text><text fill="#000000" font-family="sans-serif" font-size="14" lengthAdjust="spacing" textLength="117" x="926.95" y="344.627">AdminSubscription</text><line style="stroke:#181818;stroke-width:0.5;" x1="883" x2="1059" y1="352.7031" y2="352.7031"/><rect fill="none" height="6" style="stroke:#C82930;stroke-width:1.0;" width="6" x="890" y="364.0078"/><text fill="#000000" font-family="sans-serif" font-size="14" lengthAdjust="spacing" textLength="152" x="902" y="371.2363">store: SubscriptionStore</text><line style="stroke:#181818;stroke-width:0.5;" x1="883" x2="1059" y1="378.3125" y2="378.3125"/><ellipse cx="893" cy="392.6172" fill="#84BE84" rx="3" ry="3" style="stroke:#038048;stroke-width:1.0;"/><text fill="#000000" font-family="sans-serif" font-size="14" lengthAdjust="spacing" textLength="112" x="902" y="396.8457">changePlan(plan)</text><ellipse cx="893" cy="410.2266" fill="#84BE84" rx="3" ry="3" style="stroke:#038048;stroke-width:1.0;"/><text fill="#000000" font-family="sans-serif" font-size="14" lengthAdjust="spacing" textLength="129" x="902" y="414.4551">cancelSubscription()</text></g><!--class OrganizationRegistration--><g id="elem_OrganizationRegistration"><rect codeLine="111" fill="#F1F1F1" height="93.9219" id="OrganizationRegistration" rx="2.5" ry="2.5" style="stroke:#181818;stroke-width:0.5;" width="188" x="1120" y="319"/><ellipse cx="1135" cy="340.3516" fill="#ADD1B2" rx="11" ry="11" style="stroke:#181818;stroke-width:1.0;"/><path d="M1137.7656,336.2266 Q1137.9219,336.0078 1138.1094,335.8984 Q1138.2969,335.7891 1138.5156,335.7891 Q1138.8906,335.7891 1139.125,336.0547 Q1139.3594,336.3047 1139.3594,336.9141 L1139.3594,338.3672 Q1139.3594,338.9766 1139.125,339.2422 Q1138.8906,339.5078 1138.5156,339.5078 Q1138.1719,339.5078 1137.9688,339.3047 Q1137.7656,339.1172 1137.6563,338.6016 Q1137.6094,338.2422 1137.4219,338.0547 Q1137.0938,337.6797 1136.4844,337.4609 Q1135.875,337.2422 1135.25,337.2422 Q1134.4844,337.2422 1133.8438,337.5703 Q1133.2188,337.8984 1132.7188,338.6484 Q1132.2344,339.3984 1132.2344,340.4297 L1132.2344,341.5234 Q1132.2344,342.7578 1133.125,343.5859 Q1134.0156,344.3984 1135.6094,344.3984 Q1136.5469,344.3984 1137.2031,344.1484 Q1137.5938,343.9922 1138.0156,343.5547 Q1138.2813,343.2891 1138.4219,343.2109 Q1138.5781,343.1328 1138.7813,343.1328 Q1139.1094,343.1328 1139.3594,343.3984 Q1139.625,343.6484 1139.625,343.9922 Q1139.625,344.3359 1139.2813,344.7422 Q1138.7813,345.3203 1137.9844,345.6484 Q1136.9063,346.1016 1135.6094,346.1016 Q1134.0938,346.1016 1132.8906,345.4766 Q1131.9063,344.9766 1131.2188,343.9141 Q1130.5313,342.8359 1130.5313,341.5547 L1130.5313,340.3984 Q1130.5313,339.0703 1131.1406,337.9297 Q1131.7656,336.7734 1132.8594,336.1641 Q1133.9531,335.5391 1135.1875,335.5391 Q1135.9219,335.5391 1136.5625,335.7109 Q1137.2188,335.8672 1137.7656,336.2266 Z " fill="#000000"/><text fill="#000000" font-family="sans-serif" font-size="12" font-style="italic" lengthAdjust="spacing" textLength="38" x="1208" y="336.457">&#171;view&#187;</text><text fill="#000000" font-family="sans-serif" font-size="14" lengthAdjust="spacing" textLength="156" x="1149" y="353.627">OrganizationRegistration</text><line style="stroke:#181818;stroke-width:0.5;" x1="1121" x2="1307" y1="361.7031" y2="361.7031"/><rect fill="none" height="6" style="stroke:#C82930;stroke-width:1.0;" width="6" x="1128" y="373.0078"/><text fill="#000000" font-family="sans-serif" font-size="14" lengthAdjust="spacing" textLength="125" x="1140" y="380.2363">api: SubscriptionApi</text><line style="stroke:#181818;stroke-width:0.5;" x1="1121" x2="1307" y1="387.3125" y2="387.3125"/><ellipse cx="1131" cy="401.6172" fill="#84BE84" rx="3" ry="3" style="stroke:#038048;stroke-width:1.0;"/><text fill="#000000" font-family="sans-serif" font-size="14" lengthAdjust="spacing" textLength="51" x="1140" y="405.8457">submit()</text></g><!--class Onboarding--><g id="elem_Onboarding"><rect codeLine="116" fill="#F1F1F1" height="76.3125" id="Onboarding" rx="2.5" ry="2.5" style="stroke:#181818;stroke-width:0.5;" width="151" x="1368.5" y="328"/><ellipse cx="1403.3" cy="349.3516" fill="#ADD1B2" rx="11" ry="11" style="stroke:#181818;stroke-width:1.0;"/><path d="M1406.0656,345.2266 Q1406.2219,345.0078 1406.4094,344.8984 Q1406.5969,344.7891 1406.8156,344.7891 Q1407.1906,344.7891 1407.425,345.0547 Q1407.6594,345.3047 1407.6594,345.9141 L1407.6594,347.3672 Q1407.6594,347.9766 1407.425,348.2422 Q1407.1906,348.5078 1406.8156,348.5078 Q1406.4719,348.5078 1406.2688,348.3047 Q1406.0656,348.1172 1405.9563,347.6016 Q1405.9094,347.2422 1405.7219,347.0547 Q1405.3938,346.6797 1404.7844,346.4609 Q1404.175,346.2422 1403.55,346.2422 Q1402.7844,346.2422 1402.1438,346.5703 Q1401.5188,346.8984 1401.0188,347.6484 Q1400.5344,348.3984 1400.5344,349.4297 L1400.5344,350.5234 Q1400.5344,351.7578 1401.425,352.5859 Q1402.3156,353.3984 1403.9094,353.3984 Q1404.8469,353.3984 1405.5031,353.1484 Q1405.8938,352.9922 1406.3156,352.5547 Q1406.5813,352.2891 1406.7219,352.2109 Q1406.8781,352.1328 1407.0813,352.1328 Q1407.4094,352.1328 1407.6594,352.3984 Q1407.925,352.6484 1407.925,352.9922 Q1407.925,353.3359 1407.5813,353.7422 Q1407.0813,354.3203 1406.2844,354.6484 Q1405.2063,355.1016 1403.9094,355.1016 Q1402.3938,355.1016 1401.1906,354.4766 Q1400.2063,353.9766 1399.5188,352.9141 Q1398.8313,351.8359 1398.8313,350.5547 L1398.8313,349.3984 Q1398.8313,348.0703 1399.4406,346.9297 Q1400.0656,345.7734 1401.1594,345.1641 Q1402.2531,344.5391 1403.4875,344.5391 Q1404.2219,344.5391 1404.8625,344.7109 Q1405.5188,344.8672 1406.0656,345.2266 Z " fill="#000000"/><text fill="#000000" font-family="sans-serif" font-size="12" font-style="italic" lengthAdjust="spacing" textLength="38" x="1440.2" y="345.457">&#171;view&#187;</text><text fill="#000000" font-family="sans-serif" font-size="14" lengthAdjust="spacing" textLength="75" x="1421.7" y="362.627">Onboarding</text><line style="stroke:#181818;stroke-width:0.5;" x1="1369.5" x2="1518.5" y1="370.7031" y2="370.7031"/><rect fill="none" height="6" style="stroke:#C82930;stroke-width:1.0;" width="6" x="1376.5" y="382.0078"/><text fill="#000000" font-family="sans-serif" font-size="14" lengthAdjust="spacing" textLength="125" x="1388.5" y="389.2363">api: SubscriptionApi</text><line style="stroke:#181818;stroke-width:0.5;" x1="1369.5" x2="1518.5" y1="396.3125" y2="396.3125"/></g><!--class CheckoutSuccess--><g id="elem_CheckoutSuccess"><rect codeLine="120" fill="#F1F1F1" height="93.9219" id="CheckoutSuccess" rx="2.5" ry="2.5" style="stroke:#181818;stroke-width:0.5;" width="151" x="1579.5" y="319"/><ellipse cx="1597.2" cy="340.3516" fill="#ADD1B2" rx="11" ry="11" style="stroke:#181818;stroke-width:1.0;"/><path d="M1599.9656,336.2266 Q1600.1219,336.0078 1600.3094,335.8984 Q1600.4969,335.7891 1600.7156,335.7891 Q1601.0906,335.7891 1601.325,336.0547 Q1601.5594,336.3047 1601.5594,336.9141 L1601.5594,338.3672 Q1601.5594,338.9766 1601.325,339.2422 Q1601.0906,339.5078 1600.7156,339.5078 Q1600.3719,339.5078 1600.1688,339.3047 Q1599.9656,339.1172 1599.8563,338.6016 Q1599.8094,338.2422 1599.6219,338.0547 Q1599.2938,337.6797 1598.6844,337.4609 Q1598.075,337.2422 1597.45,337.2422 Q1596.6844,337.2422 1596.0438,337.5703 Q1595.4188,337.8984 1594.9188,338.6484 Q1594.4344,339.3984 1594.4344,340.4297 L1594.4344,341.5234 Q1594.4344,342.7578 1595.325,343.5859 Q1596.2156,344.3984 1597.8094,344.3984 Q1598.7469,344.3984 1599.4031,344.1484 Q1599.7938,343.9922 1600.2156,343.5547 Q1600.4813,343.2891 1600.6219,343.2109 Q1600.7781,343.1328 1600.9813,343.1328 Q1601.3094,343.1328 1601.5594,343.3984 Q1601.825,343.6484 1601.825,343.9922 Q1601.825,344.3359 1601.4813,344.7422 Q1600.9813,345.3203 1600.1844,345.6484 Q1599.1063,346.1016 1597.8094,346.1016 Q1596.2938,346.1016 1595.0906,345.4766 Q1594.1063,344.9766 1593.4188,343.9141 Q1592.7313,342.8359 1592.7313,341.5547 L1592.7313,340.3984 Q1592.7313,339.0703 1593.3406,337.9297 Q1593.9656,336.7734 1595.0594,336.1641 Q1596.1531,335.5391 1597.3875,335.5391 Q1598.1219,335.5391 1598.7625,335.7109 Q1599.4188,335.8672 1599.9656,336.2266 Z " fill="#000000"/><text fill="#000000" font-family="sans-serif" font-size="12" font-style="italic" lengthAdjust="spacing" textLength="38" x="1649.3" y="336.457">&#171;view&#187;</text><text fill="#000000" font-family="sans-serif" font-size="14" lengthAdjust="spacing" textLength="113" x="1611.8" y="353.627">CheckoutSuccess</text><line style="stroke:#181818;stroke-width:0.5;" x1="1580.5" x2="1729.5" y1="361.7031" y2="361.7031"/><rect fill="none" height="6" style="stroke:#C82930;stroke-width:1.0;" width="6" x="1587.5" y="373.0078"/><text fill="#000000" font-family="sans-serif" font-size="14" lengthAdjust="spacing" textLength="125" x="1599.5" y="380.2363">api: SubscriptionApi</text><line style="stroke:#181818;stroke-width:0.5;" x1="1580.5" x2="1729.5" y1="387.3125" y2="387.3125"/><ellipse cx="1590.5" cy="401.6172" fill="#84BE84" rx="3" ry="3" style="stroke:#038048;stroke-width:1.0;"/><text fill="#000000" font-family="sans-serif" font-size="14" lengthAdjust="spacing" textLength="119" x="1599.5" y="405.8457">validateCheckout()</text></g><!--class CheckoutCancelled--><g id="elem_CheckoutCancelled"><rect codeLine="125" fill="#F1F1F1" height="93.9219" id="CheckoutCancelled" rx="2.5" ry="2.5" style="stroke:#181818;stroke-width:0.5;" width="171" x="1790.5" y="319"/><ellipse cx="1812.7" cy="340.3516" fill="#ADD1B2" rx="11" ry="11" style="stroke:#181818;stroke-width:1.0;"/><path d="M1815.4656,336.2266 Q1815.6219,336.0078 1815.8094,335.8984 Q1815.9969,335.7891 1816.2156,335.7891 Q1816.5906,335.7891 1816.825,336.0547 Q1817.0594,336.3047 1817.0594,336.9141 L1817.0594,338.3672 Q1817.0594,338.9766 1816.825,339.2422 Q1816.5906,339.5078 1816.2156,339.5078 Q1815.8719,339.5078 1815.6688,339.3047 Q1815.4656,339.1172 1815.3563,338.6016 Q1815.3094,338.2422 1815.1219,338.0547 Q1814.7938,337.6797 1814.1844,337.4609 Q1813.575,337.2422 1812.95,337.2422 Q1812.1844,337.2422 1811.5438,337.5703 Q1810.9188,337.8984 1810.4188,338.6484 Q1809.9344,339.3984 1809.9344,340.4297 L1809.9344,341.5234 Q1809.9344,342.7578 1810.825,343.5859 Q1811.7156,344.3984 1813.3094,344.3984 Q1814.2469,344.3984 1814.9031,344.1484 Q1815.2938,343.9922 1815.7156,343.5547 Q1815.9813,343.2891 1816.1219,343.2109 Q1816.2781,343.1328 1816.4813,343.1328 Q1816.8094,343.1328 1817.0594,343.3984 Q1817.325,343.6484 1817.325,343.9922 Q1817.325,344.3359 1816.9813,344.7422 Q1816.4813,345.3203 1815.6844,345.6484 Q1814.6063,346.1016 1813.3094,346.1016 Q1811.7938,346.1016 1810.5906,345.4766 Q1809.6063,344.9766 1808.9188,343.9141 Q1808.2313,342.8359 1808.2313,341.5547 L1808.2313,340.3984 Q1808.2313,339.0703 1808.8406,337.9297 Q1809.4656,336.7734 1810.5594,336.1641 Q1811.6531,335.5391 1812.8875,335.5391 Q1813.6219,335.5391 1814.2625,335.7109 Q1814.9188,335.8672 1815.4656,336.2266 Z " fill="#000000"/><text fill="#000000" font-family="sans-serif" font-size="12" font-style="italic" lengthAdjust="spacing" textLength="38" x="1870.8" y="336.457">&#171;view&#187;</text><text fill="#000000" font-family="sans-serif" font-size="14" lengthAdjust="spacing" textLength="123" x="1828.3" y="353.627">CheckoutCancelled</text><line style="stroke:#181818;stroke-width:0.5;" x1="1791.5" x2="1960.5" y1="361.7031" y2="361.7031"/><rect fill="none" height="6" style="stroke:#C82930;stroke-width:1.0;" width="6" x="1798.5" y="373.0078"/><text fill="#000000" font-family="sans-serif" font-size="14" lengthAdjust="spacing" textLength="125" x="1810.5" y="380.2363">api: SubscriptionApi</text><line style="stroke:#181818;stroke-width:0.5;" x1="1791.5" x2="1960.5" y1="387.3125" y2="387.3125"/><ellipse cx="1801.5" cy="401.6172" fill="#84BE84" rx="3" ry="3" style="stroke:#038048;stroke-width:1.0;"/><text fill="#000000" font-family="sans-serif" font-size="14" lengthAdjust="spacing" textLength="145" x="1810.5" y="405.8457">cancelLocalCheckout()</text></g><!--class SubscriptionExpired--><g id="elem_SubscriptionExpired"><rect codeLine="130" fill="#F1F1F1" height="76.3125" id="SubscriptionExpired" rx="2.5" ry="2.5" style="stroke:#181818;stroke-width:0.5;" width="157" x="2021.5" y="328"/><ellipse cx="2036.5" cy="349.3516" fill="#ADD1B2" rx="11" ry="11" style="stroke:#181818;stroke-width:1.0;"/><path d="M2039.2656,345.2266 Q2039.4219,345.0078 2039.6094,344.8984 Q2039.7969,344.7891 2040.0156,344.7891 Q2040.3906,344.7891 2040.625,345.0547 Q2040.8594,345.3047 2040.8594,345.9141 L2040.8594,347.3672 Q2040.8594,347.9766 2040.625,348.2422 Q2040.3906,348.5078 2040.0156,348.5078 Q2039.6719,348.5078 2039.4688,348.3047 Q2039.2656,348.1172 2039.1563,347.6016 Q2039.1094,347.2422 2038.9219,347.0547 Q2038.5938,346.6797 2037.9844,346.4609 Q2037.375,346.2422 2036.75,346.2422 Q2035.9844,346.2422 2035.3438,346.5703 Q2034.7188,346.8984 2034.2188,347.6484 Q2033.7344,348.3984 2033.7344,349.4297 L2033.7344,350.5234 Q2033.7344,351.7578 2034.625,352.5859 Q2035.5156,353.3984 2037.1094,353.3984 Q2038.0469,353.3984 2038.7031,353.1484 Q2039.0938,352.9922 2039.5156,352.5547 Q2039.7813,352.2891 2039.9219,352.2109 Q2040.0781,352.1328 2040.2813,352.1328 Q2040.6094,352.1328 2040.8594,352.3984 Q2041.125,352.6484 2041.125,352.9922 Q2041.125,353.3359 2040.7813,353.7422 Q2040.2813,354.3203 2039.4844,354.6484 Q2038.4063,355.1016 2037.1094,355.1016 Q2035.5938,355.1016 2034.3906,354.4766 Q2033.4063,353.9766 2032.7188,352.9141 Q2032.0313,351.8359 2032.0313,350.5547 L2032.0313,349.3984 Q2032.0313,348.0703 2032.6406,346.9297 Q2033.2656,345.7734 2034.3594,345.1641 Q2035.4531,344.5391 2036.6875,344.5391 Q2037.4219,344.5391 2038.0625,344.7109 Q2038.7188,344.8672 2039.2656,345.2266 Z " fill="#000000"/><text fill="#000000" font-family="sans-serif" font-size="12" font-style="italic" lengthAdjust="spacing" textLength="38" x="2094" y="345.457">&#171;view&#187;</text><text fill="#000000" font-family="sans-serif" font-size="14" lengthAdjust="spacing" textLength="125" x="2050.5" y="362.627">SubscriptionExpired</text><line style="stroke:#181818;stroke-width:0.5;" x1="2022.5" x2="2177.5" y1="370.7031" y2="370.7031"/><line style="stroke:#181818;stroke-width:0.5;" x1="2022.5" x2="2177.5" y1="378.7031" y2="378.7031"/><ellipse cx="2032.5" cy="393.0078" fill="#84BE84" rx="3" ry="3" style="stroke:#038048;stroke-width:1.0;"/><text fill="#000000" font-family="sans-serif" font-size="14" lengthAdjust="spacing" textLength="76" x="2041.5" y="397.2363">renewPlan()</text></g><!--reverse link AppLayout to AppSidebar--><g id="link_AppLayout_AppSidebar"><path codeLine="26" d="M166,202.38 C166,241.45 166,297.49 166,336.42 " fill="none" id="AppLayout-backto-AppSidebar" style="stroke:#181818;stroke-width:1.0;"/><polygon fill="#181818" points="166,190.38,162,196.38,166,202.38,170,196.38,166,190.38" style="stroke:#181818;stroke-width:1.0;"/><polygon fill="#000000" points="107,259.5758,109.9389,250.5307,104.0611,250.5307,107,259.5758" style="stroke:#000000;stroke-width:1.0;"/><text fill="#000000" font-family="sans-serif" font-size="13" lengthAdjust="spacing" textLength="49" x="116" y="259.8951">contains</text></g><!--reverse link AppLayout to AppTopbar--><g id="link_AppLayout_AppTopbar"><path codeLine="27" d="M225,202.38 C225,259.38 225,366 225,366 C225,366 242.49,366 261.97,366 " fill="none" id="AppLayout-backto-AppTopbar" style="stroke:#181818;stroke-width:1.0;"/><polygon fill="#181818" points="225,190.38,221,196.38,225,202.38,229,196.38,225,190.38" style="stroke:#181818;stroke-width:1.0;"/><polygon fill="#000000" points="167.102,292.7328,167.9751,283.2624,162.2418,284.5579,167.102,292.7328" style="stroke:#000000;stroke-width:1.0;"/><text fill="#000000" font-family="sans-serif" font-size="13" lengthAdjust="spacing" textLength="49" x="175" y="293.1751">contains</text></g><!--reverse link AppTopbar to LanguageSwitcher--><g id="link_AppTopbar_LanguageSwitcher"><path codeLine="28" d="M271.25,407.61 C271.25,468.27 271.25,589 271.25,589 C271.25,589 247.49,589 220.67,589 " fill="none" id="AppTopbar-backto-LanguageSwitcher" style="stroke:#181818;stroke-width:1.0;"/><polygon fill="#181818" points="271.25,395.61,267.25,401.61,271.25,407.61,275.25,401.61,271.25,395.61" style="stroke:#181818;stroke-width:1.0;"/><polygon fill="#000000" points="210.907,513.592,216.1674,505.6687,210.5056,504.09,210.907,513.592" style="stroke:#000000;stroke-width:1.0;"/><text fill="#000000" font-family="sans-serif" font-size="13" lengthAdjust="spacing" textLength="49" x="221.25" y="514.0951">contains</text></g><!--reverse link AppTopbar to LogoutButton--><g id="link_AppTopbar_LogoutButton"><path codeLine="29" d="M323.25,407.61 C323.25,450.26 323.25,516.54 323.25,559.26 " fill="none" id="AppTopbar-backto-LogoutButton" style="stroke:#181818;stroke-width:1.0;"/><polygon fill="#181818" points="323.25,395.61,319.25,401.61,323.25,407.61,327.25,401.61,323.25,395.61" style="stroke:#181818;stroke-width:1.0;"/><polygon fill="#000000" points="264.25,473.6158,267.1889,464.5707,261.3111,464.5707,264.25,473.6158" style="stroke:#000000;stroke-width:1.0;"/><text fill="#000000" font-family="sans-serif" font-size="13" lengthAdjust="spacing" textLength="49" x="273.25" y="473.9351">contains</text></g><!--link SubscriptionApi to BaseEndpoint--><g id="link_SubscriptionApi_BaseEndpoint"><path codeLine="87" d="M1549.5,755.6 C1549.5,528.89 1549.5,161 1549.5,161 C1549.5,161 987.13,161 796.13,161 " fill="none" id="SubscriptionApi-to-BaseEndpoint" style="stroke:#181818;stroke-width:1.0;stroke-dasharray:7.0,7.0;"/><polygon fill="none" points="778.13,161,796.13,167,796.13,155,778.13,161" style="stroke:#181818;stroke-width:1.0;"/></g><!--link SubscriptionStore to SubscriptionApi--><g id="link_SubscriptionStore_SubscriptionApi"><path codeLine="101" d="M1221.92,589 C1333.46,589 1496.62,589 1496.62,589 C1496.62,589 1496.62,665.81 1496.62,749.76 " fill="none" id="SubscriptionStore-to-SubscriptionApi" style="stroke:#181818;stroke-width:1.0;"/><polygon fill="#181818" points="1496.62,755.76,1500.62,746.76,1496.62,750.76,1492.62,746.76,1496.62,755.76" style="stroke:#181818;stroke-width:1.0;"/></g><!--link AdminSubscription to SubscriptionStore--><g id="link_AdminSubscription_SubscriptionStore"><path codeLine="134" d="M1039.25,422.27 C1039.25,445.11 1039.25,466.08 1039.25,491.6 " fill="none" id="AdminSubscription-to-SubscriptionStore" style="stroke:#181818;stroke-width:1.0;"/><polygon fill="#181818" points="1039.25,497.6,1043.25,488.6,1039.25,492.6,1035.25,488.6,1039.25,497.6" style="stroke:#181818;stroke-width:1.0;"/></g><!--link OrganizationRegistration to SubscriptionApi--><g id="link_OrganizationRegistration_SubscriptionApi"><path codeLine="135" d="M1308.24,409 C1392.99,409 1504.25,409 1504.25,409 C1504.25,409 1504.25,598.46 1504.25,749.82 " fill="none" id="OrganizationRegistration-to-SubscriptionApi" style="stroke:#181818;stroke-width:1.0;"/><polygon fill="#181818" points="1504.25,755.82,1508.25,746.82,1504.25,750.82,1500.25,746.82,1504.25,755.82" style="stroke:#181818;stroke-width:1.0;"/></g><!--link Onboarding to SubscriptionApi--><g id="link_Onboarding_SubscriptionApi"><path codeLine="136" d="M1511.88,404.29 C1511.88,475.44 1511.88,626.07 1511.88,749.87 " fill="none" id="Onboarding-to-SubscriptionApi" style="stroke:#181818;stroke-width:1.0;"/><polygon fill="#181818" points="1511.88,755.87,1515.88,746.87,1511.88,750.87,1507.88,746.87,1511.88,755.87" style="stroke:#181818;stroke-width:1.0;"/></g><!--link CheckoutSuccess to SubscriptionApi--><g id="link_CheckoutSuccess_SubscriptionApi"><path codeLine="137" d="M1655,413.07 C1655,487.73 1655,631.02 1655,749.96 " fill="none" id="CheckoutSuccess-to-SubscriptionApi" style="stroke:#181818;stroke-width:1.0;"/><polygon fill="#181818" points="1655,755.96,1659,746.96,1655,750.96,1651,746.96,1655,755.96" style="stroke:#181818;stroke-width:1.0;"/></g><!--link CheckoutCancelled to SubscriptionApi--><g id="link_CheckoutCancelled_SubscriptionApi"><path codeLine="138" d="M1805.75,413.07 C1805.75,487.73 1805.75,631.02 1805.75,749.96 " fill="none" id="CheckoutCancelled-to-SubscriptionApi" style="stroke:#181818;stroke-width:1.0;"/><polygon fill="#181818" points="1805.75,755.96,1809.75,746.96,1805.75,750.96,1801.75,746.96,1805.75,755.96" style="stroke:#181818;stroke-width:1.0;"/></g><!--link SubscriptionExpired to SubscriptionApi--><g id="link_SubscriptionExpired_SubscriptionApi"><path codeLine="139" d="M2100,404.32 C2100,531.26 2100,930 2100,930 C2100,930 1953.48,930 1827.02,930 " fill="none" id="SubscriptionExpired-to-SubscriptionApi" style="stroke:#181818;stroke-width:1.0;"/><polygon fill="#181818" points="1821.02,930,1830.02,934,1826.02,930,1830.02,926,1821.02,930" style="stroke:#181818;stroke-width:1.0;"/></g><!--link Plan to Subscription--><g id="link_Plan_Subscription"><path codeLine="143" d="M1085,1107.75 C1085,1129.19 1085,1130.64 1085,1150.76 " fill="none" id="Plan-Subscription" style="stroke:#181818;stroke-width:1.0;"/><line style="stroke:#181818;stroke-width:1.0;" x1="1081" x2="1089" y1="1103.75" y2="1103.75"/><line style="stroke:#181818;stroke-width:1.0;" x1="1081" x2="1089" y1="1106.75" y2="1106.75"/><line style="stroke:#181818;stroke-width:1.0;" x1="1085" x2="1085" y1="1107.75" y2="1099.75"/><polygon fill="none" points="1085,1162.76,1089,1156.76,1085,1150.76,1081,1156.76,1085,1162.76" style="stroke:#181818;stroke-width:1.0;"/><polygon fill="#000000" points="1054,1127.4258,1056.9389,1118.3807,1051.0611,1118.3807,1054,1127.4258" style="stroke:#000000;stroke-width:1.0;"/><text fill="#000000" font-family="sans-serif" font-size="13" lengthAdjust="spacing" textLength="21" x="1063" y="1127.7451">has</text></g><!--reverse link SubscriptionStore to Plan--><g id="link_SubscriptionStore_Plan"><path codeLine="144" d="M1100.5,692.25 C1100.5,716.77 1100.5,732.11 1100.5,759.44 " fill="none" id="SubscriptionStore-backto-Plan" style="stroke:#181818;stroke-width:1.0;"/><polygon fill="none" points="1100.5,680.25,1096.5,686.25,1100.5,692.25,1104.5,686.25,1100.5,680.25" style="stroke:#181818;stroke-width:1.0;"/><polygon fill="#000000" points="1037.5,716.0158,1040.4389,706.9707,1034.5611,706.9707,1037.5,716.0158" style="stroke:#000000;stroke-width:1.0;"/><text fill="#000000" font-family="sans-serif" font-size="13" lengthAdjust="spacing" textLength="53" x="1046.5" y="716.3351">manages</text></g><!--reverse link SubscriptionStore to Subscription--><g id="link_SubscriptionStore_Subscription"><path codeLine="145" d="M1191.25,692.34 C1191.25,817.38 1191.25,1029.52 1191.25,1162.97 " fill="none" id="SubscriptionStore-backto-Subscription" style="stroke:#181818;stroke-width:1.0;"/><polygon fill="none" points="1191.25,680.34,1187.25,686.34,1191.25,692.34,1195.25,686.34,1191.25,680.34" style="stroke:#181818;stroke-width:1.0;"/><polygon fill="#000000" points="1196.25,917.8358,1199.1889,908.7907,1193.3111,908.7907,1196.25,917.8358" style="stroke:#000000;stroke-width:1.0;"/><text fill="#000000" font-family="sans-serif" font-size="13" lengthAdjust="spacing" textLength="53" x="1205.25" y="918.1551">manages</text></g><!--link AppLayout to AdminSubscription--><g id="link_AppLayout_AdminSubscription"><path codeLine="148" d="M229.5,190.11 C229.5,237.22 229.5,324 229.5,324 C229.5,324 678.91,324 875.93,324 " fill="none" id="AppLayout-to-AdminSubscription" style="stroke:#181818;stroke-width:1.0;stroke-dasharray:7.0,7.0;"/><polygon fill="#181818" points="881.93,324,872.93,320,876.93,324,872.93,328,881.93,324" style="stroke:#181818;stroke-width:1.0;"/><polygon fill="#000000" points="440.6661,316.1899,432.4051,311.4775,431.2129,317.2332,440.6661,316.1899" style="stroke:#000000;stroke-width:1.0;"/><text fill="#000000" font-family="sans-serif" font-size="13" lengthAdjust="spacing" textLength="43" x="444.77" y="320.4951">renders</text></g><!--link AuthLayout to OrganizationRegistration--><g id="link_AuthLayout_OrganizationRegistration"><path codeLine="149" d="M371.25,190.21 C371.25,228.44 371.25,290 371.25,290 C371.25,290 1214,290 1214,290 C1214,290 1214,297.28 1214,312.73 " fill="none" id="AuthLayout-to-OrganizationRegistration" style="stroke:#181818;stroke-width:1.0;stroke-dasharray:7.0,7.0;"/><polygon fill="#181818" points="1214,318.73,1218,309.73,1214,313.73,1210,309.73,1214,318.73" style="stroke:#181818;stroke-width:1.0;"/><polygon fill="#000000" points="709.048,281.8951,700.5198,277.6855,699.6742,283.5022,709.048,281.8951" style="stroke:#000000;stroke-width:1.0;"/><text fill="#000000" font-family="sans-serif" font-size="13" lengthAdjust="spacing" textLength="43" x="713.1" y="286.4951">renders</text></g><!--link AuthLayout to Onboarding--><g id="link_AuthLayout_Onboarding"><path codeLine="150" d="M376.5,190.13 C376.5,222.56 376.5,270 376.5,270 C376.5,270 1444,270 1444,270 C1444,270 1444,295.01 1444,321.78 " fill="none" id="AuthLayout-to-Onboarding" style="stroke:#181818;stroke-width:1.0;stroke-dasharray:7.0,7.0;"/><polygon fill="#181818" points="1444,327.78,1448,318.78,1444,322.78,1440,318.78,1444,327.78" style="stroke:#181818;stroke-width:1.0;"/><polygon fill="#000000" points="851.1724,261.7878,842.555,257.7638,841.8356,263.5975,851.1724,261.7878" style="stroke:#000000;stroke-width:1.0;"/><text fill="#000000" font-family="sans-serif" font-size="13" lengthAdjust="spacing" textLength="43" x="855.21" y="266.4951">renders</text></g><!--link AuthLayout to CheckoutSuccess--><g id="link_AuthLayout_CheckoutSuccess"><path codeLine="151" d="M381.75,190.3 C381.75,216.34 381.75,250 381.75,250 C381.75,250 1655,250 1655,250 C1655,250 1655,280.7 1655,312.82 " fill="none" id="AuthLayout-to-CheckoutSuccess" style="stroke:#181818;stroke-width:1.0;stroke-dasharray:7.0,7.0;"/><polygon fill="#181818" points="1655,318.82,1659,309.82,1655,313.82,1651,309.82,1655,318.82" style="stroke:#181818;stroke-width:1.0;"/><polygon fill="#000000" points="974.917,241.6547,966.195,237.8629,965.632,243.7137,974.917,241.6547" style="stroke:#000000;stroke-width:1.0;"/><text fill="#000000" font-family="sans-serif" font-size="13" lengthAdjust="spacing" textLength="43" x="978.94" y="246.4951">renders</text></g><!--link AuthLayout to CheckoutCancelled--><g id="link_AuthLayout_CheckoutCancelled"><path codeLine="152" d="M387,190.38 C387,209.21 387,230 387,230 C387,230 1876,230 1876,230 C1876,230 1876,273.54 1876,312.82 " fill="none" id="AuthLayout-to-CheckoutCancelled" style="stroke:#181818;stroke-width:1.0;stroke-dasharray:7.0,7.0;"/><polygon fill="#181818" points="1876,318.82,1880,309.82,1876,313.82,1872,309.82,1876,318.82" style="stroke:#181818;stroke-width:1.0;"/><polygon fill="#000000" points="1108.0832,221.5855,1099.3094,217.9152,1098.8277,223.7733,1108.0832,221.5855" style="stroke:#000000;stroke-width:1.0;"/><text fill="#000000" font-family="sans-serif" font-size="13" lengthAdjust="spacing" textLength="43" x="1112.1" y="226.4951">renders</text></g><!--link AuthLayout to SubscriptionExpired--><g id="link_AuthLayout_SubscriptionExpired"><path codeLine="153" d="M392.25,190.15 C392.25,200.69 392.25,210 392.25,210 C392.25,210 2100,210 2100,210 C2100,210 2100,275.65 2100,321.84 " fill="none" id="AuthLayout-to-SubscriptionExpired" style="stroke:#181818;stroke-width:1.0;stroke-dasharray:7.0,7.0;"/><polygon fill="#181818" points="2100,327.84,2104,318.84,2100,322.84,2096,318.84,2100,327.84" style="stroke:#181818;stroke-width:1.0;"/><polygon fill="#000000" points="1247.1052,201.5602,1238.3128,197.9345,1237.8609,203.795,1247.1052,201.5602" style="stroke:#000000;stroke-width:1.0;"/><text fill="#000000" font-family="sans-serif" font-size="13" lengthAdjust="spacing" textLength="43" x="1251.12" y="206.4951">renders</text></g><!--SRC=[fLTDR-Cs4BtdLn1xgTEjWvvw4083ZhD0ZAPTOxte7efYGKiJcpL54YJbH6totpkKP8dKbxNT7194yuOpd7blI9eZ4ufgcXBE1DXS0P7Q7kILgGsAnaUwXwtDEH0DiQLYpy4329c00KL- -TdxgAauLX-lgXN8k-s1QaZ8dSn4WdzNKbXuiUy8DSIKfd-l224rVYsUD3LMPx7DD7Yuhoomb6xk9-RK67973NmGYP9CsCRs5e8Uh5NazdRvmgHP2uFRYc6nQC6BNq5E6usR5PPQ9eMVaVA-DulKRYkPAYaGO7odkFxQk3GPBfLwfBdCBAPP8nUB7c1c3nEHIcrP0Zkg9o0_IpK1-8Xyo1n1dfcD3t0PB_UOw5rcBHQg5njM_WTIqQOk8NbWeAcE3moCGpHr-d4-zxSOaHWfHfamPD4Bh7ROWwii3jVPu0Mulxy0-kPB8TkPM3DLq6N3gI2_KO6MrEslLo2-GoYJUvbYX3FgQrByszP44UFs5fTdDlTvxdxcX2KH-JrBTw33xp6AEoAeD2RseKNGTC2YD8jXOBbCQn1ntk-uOnp7q7u3cica7vBIbtiPMwdDES2ho3ZlWBQP0drYnWDsC9-1fiFMBr8Vbnhe409xS-3vMfnOAVe1N48jVM06CyxlQJu0CfbIE7SVuGIyVzyuU6MAv41QH6Gd9GSgGiGJK3SBVmKNf5pYpxzyo7l7nN9cIZrpULqtYWl94h3psqaZzPuAzazHblK0HY4VXsmuZ6rc-Wk1DcqXMTg8t5CBBNgv8SvvO-uXXrjKWR_3TSsrGVWgmmwce4UWe-MjQpnwjg5unmysF-kbOc4_tXSrDRFhY6oqJ9c1qEfF43ChZcapXCKv5nznZ6t1c0bml-732PJTyVSmOyaGU0_MHsuBIdm3FajJglDnXmtg2LkvgZOxd3YgJKy6uyomyD6h21Olvv8cunuFqYWS9NoPf4pWmD3KyMYIQr3I2nwPIjeUBFc9J8jJQY7angM0MEUMHzLBK_wtJiRvqWutt54DUwmRQB_sNvWzb6cNakouDgElBQwRczT5S9NiKJ4U_Pp5tcKG9KoRRsFwtM9x0OUhEngWEriBBKV5iHsEyNaev2XOj0Ejz1kHZxk_yUxUFX5SuvQSpwwdA3N4F07UXZoPzLbhqOvNkop5VBvezw2dujtxDvQy__9TNMITdbe7sed1SxVaHIUYRcRjqOZtGN1zcRaUNQxSu2dhy_HJmLrDHnEaYaLz9GfcVChiI4YnarIxEVQ_WhINgxMPnJ4oxJiIFr7Et61gnkkbcAlpMVyTKSjkFSgOyik1_PK-l2Yc1qExKIJWkU18pt9THhQf7z1ka2O3WYbycZwFeDhjcm1jgZu2xglKeBhhPzuduEK5ui1KyQuhdYolh_Ev32-a4JdGwkdLdI8Ids25OuINUFUY6aMsrcqyofJ-mEQMxqx32iZi2K-FyuEqV4kQw_1fUNEpwEbmv2YHW3u_6PiNkyCFjlY2MzFbSM2xqTFGJQ_7yNtjzZtU_WC0]--></g></svg>