<?xml version="1.0" encoding="us-ascii" standalone="no"?><svg xmlns="http://www.w3.org/2000/svg" xmlns:xlink="http://www.w3.org/1999/xlink" contentStyleType="text/css" height="1455px" preserveAspectRatio="none" style="width:4871px;height:1455px;background:#FFFFFF;" version="1.1" viewBox="0 0 4871 1455" width="4871px" zoomAndPan="magnify"><defs/><g><!--cluster Shared--><g id="cluster_Shared"><rect fill="#F0F4F8" height="571.5" rx="2.5" ry="2.5" style="stroke:#4A90E2;stroke-width:1.5;" width="2392" x="7" y="877.5"/><text fill="#000000" font-family="Arial" font-size="14" font-weight="bold" lengthAdjust="spacing" textLength="177" x="1114.5" y="892.6318">Shared Bounded Context</text></g><!--cluster SharedDomain--><g id="cluster_SharedDomain"><rect fill="#F0F4F8" height="168" rx="2.5" ry="2.5" style="stroke:#4A90E2;stroke-width:1.5;" width="1018" x="1357" y="1257"/><text fill="#000000" font-family="Arial" font-size="14" font-weight="bold" lengthAdjust="spacing" textLength="52" x="1840" y="1272.1318">Domain</text></g><!--cluster SharedInfra--><g id="cluster_SharedInfra"><rect fill="#F0F4F8" height="484" rx="2.5" ry="2.5" style="stroke:#4A90E2;stroke-width:1.5;" width="1302" x="31" y="920.5"/><text fill="#000000" font-family="Arial" font-size="14" font-weight="bold" lengthAdjust="spacing" textLength="97" x="633.5" y="935.6318">Infrastructure</text></g><!--cluster SubscriptionBC--><g id="cluster_SubscriptionBC"><rect fill="#F0F4F8" height="1431" rx="2.5" ry="2.5" style="stroke:#4A90E2;stroke-width:1.5;" width="2332" x="2533" y="7"/><text fill="#000000" font-family="Arial" font-size="14" font-weight="bold" lengthAdjust="spacing" textLength="278" x="3560" y="22.1318">Subscription &amp; Billing Bounded Context</text></g><!--cluster SubDomain--><g id="cluster_SubDomain"><rect fill="#F0F4F8" height="1141" rx="2.5" ry="2.5" style="stroke:#4A90E2;stroke-width:1.5;" width="1472" x="2560" y="273"/><text fill="#000000" font-family="Arial" font-size="14" font-weight="bold" lengthAdjust="spacing" textLength="52" x="3270" y="288.1318">Domain</text></g><!--cluster SubInterfaces--><g id="cluster_SubInterfaces"><rect fill="#F0F4F8" height="154" rx="2.5" ry="2.5" style="stroke:#4A90E2;stroke-width:1.5;" width="2284" x="2557" y="50"/><text fill="#000000" font-family="Arial" font-size="14" font-weight="bold" lengthAdjust="spacing" textLength="71" x="3663.5" y="65.1318">Interfaces</text></g><!--class IBaseRepository--><g id="elem_IBaseRepository"><rect codeLine="19" fill="#FDFDFD" height="116.9941" id="IBaseRepository" rx="2.5" ry="2.5" style="stroke:#181818;stroke-width:0.5;" width="372" x="1725" y="1292"/><ellipse cx="1840.75" cy="1308" fill="#B4A7E5" rx="11" ry="11" style="stroke:#181818;stroke-width:1.0;"/><path d="M1841.7031,1304.6406 L1841.7031,1311.2969 L1843.4219,1311.2969 Q1844.0313,1311.2969 1844.2969,1311.5313 Q1844.5625,1311.7656 1844.5625,1312.1563 Q1844.5625,1312.5313 1844.2969,1312.7656 Q1844.0313,1313 1843.4219,1313 L1838.2813,1313 Q1837.6719,1313 1837.4063,1312.7656 Q1837.1406,1312.5313 1837.1406,1312.1406 Q1837.1406,1311.7656 1837.4063,1311.5313 Q1837.6719,1311.2969 1838.2813,1311.2969 L1840,1311.2969 L1840,1304.6406 L1838.2813,1304.6406 Q1837.6719,1304.6406 1837.4063,1304.4063 Q1837.1406,1304.1719 1837.1406,1303.7813 Q1837.1406,1303.4063 1837.4063,1303.1719 Q1837.6719,1302.9375 1838.2813,1302.9375 L1843.4219,1302.9375 Q1844.0313,1302.9375 1844.2969,1303.1719 Q1844.5625,1303.4063 1844.5625,1303.7813 Q1844.5625,1304.1719 1844.2969,1304.4063 Q1844.0313,1304.6406 1843.4219,1304.6406 L1841.7031,1304.6406 Z " fill="#000000"/><text fill="#000000" font-family="Arial" font-size="12" font-style="italic" lengthAdjust="spacing" textLength="91" x="1861.25" y="1312.3564">IBaseRepository</text><rect fill="#FFFFFF" height="15.7988" style="stroke:#181818;stroke-width:1.0;stroke-dasharray:2.0,2.0;" width="39" x="2061" y="1289"/><text fill="#000000" font-family="Arial" font-size="12" font-style="italic" lengthAdjust="spacing" textLength="37" x="2062" y="1301.2559">TEntity</text><line style="stroke:#181818;stroke-width:0.5;" x1="1726" x2="2096" y1="1324" y2="1324"/><line style="stroke:#181818;stroke-width:0.5;" x1="1726" x2="2096" y1="1332" y2="1332"/><ellipse cx="1736" cy="1344.3994" fill="#84BE84" rx="3" ry="3" style="stroke:#038048;stroke-width:1.0;"/><text fill="#000000" font-family="Arial" font-size="12" lengthAdjust="spacing" textLength="288" x="1745" y="1347.2559">AddAsync(entity: TEntity, ct: CancellationToken): Task</text><ellipse cx="1736" cy="1358.1982" fill="#84BE84" rx="3" ry="3" style="stroke:#038048;stroke-width:1.0;"/><text fill="#000000" font-family="Arial" font-size="12" lengthAdjust="spacing" textLength="330" x="1745" y="1361.0547">FindByIdAsync(id: int, ct: CancellationToken): Task&lt;TEntity?&gt;</text><ellipse cx="1736" cy="1371.9971" fill="#84BE84" rx="3" ry="3" style="stroke:#038048;stroke-width:1.0;"/><text fill="#000000" font-family="Arial" font-size="12" lengthAdjust="spacing" textLength="146" x="1745" y="1374.8535">Update(entity: TEntity): void</text><ellipse cx="1736" cy="1385.7959" fill="#84BE84" rx="3" ry="3" style="stroke:#038048;stroke-width:1.0;"/><text fill="#000000" font-family="Arial" font-size="12" lengthAdjust="spacing" textLength="152" x="1745" y="1388.6523">Remove(entity: TEntity): void</text><ellipse cx="1736" cy="1399.5947" fill="#84BE84" rx="3" ry="3" style="stroke:#038048;stroke-width:1.0;"/><text fill="#000000" font-family="Arial" font-size="12" lengthAdjust="spacing" textLength="346" x="1745" y="1402.4512">ListAsync(ct: CancellationToken): Task&lt;IEnumerable&lt;TEntity&gt;&gt;</text></g><!--class IUnitOfWork--><g id="elem_IUnitOfWork"><rect codeLine="27" fill="#FDFDFD" height="61.7988" id="IUnitOfWork" rx="2.5" ry="2.5" style="stroke:#181818;stroke-width:0.5;" width="271" x="1373.5" y="1319.5"/><ellipse cx="1471.25" cy="1335.5" fill="#B4A7E5" rx="11" ry="11" style="stroke:#181818;stroke-width:1.0;"/><path d="M1472.2031,1332.1406 L1472.2031,1338.7969 L1473.9219,1338.7969 Q1474.5313,1338.7969 1474.7969,1339.0313 Q1475.0625,1339.2656 1475.0625,1339.6563 Q1475.0625,1340.0313 1474.7969,1340.2656 Q1474.5313,1340.5 1473.9219,1340.5 L1468.7813,1340.5 Q1468.1719,1340.5 1467.9063,1340.2656 Q1467.6406,1340.0313 1467.6406,1339.6406 Q1467.6406,1339.2656 1467.9063,1339.0313 Q1468.1719,1338.7969 1468.7813,1338.7969 L1470.5,1338.7969 L1470.5,1332.1406 L1468.7813,1332.1406 Q1468.1719,1332.1406 1467.9063,1331.9063 Q1467.6406,1331.6719 1467.6406,1331.2813 Q1467.6406,1330.9063 1467.9063,1330.6719 Q1468.1719,1330.4375 1468.7813,1330.4375 L1473.9219,1330.4375 Q1474.5313,1330.4375 1474.7969,1330.6719 Q1475.0625,1330.9063 1475.0625,1331.2813 Q1475.0625,1331.6719 1474.7969,1331.9063 Q1474.5313,1332.1406 1473.9219,1332.1406 L1472.2031,1332.1406 Z " fill="#000000"/><text fill="#000000" font-family="Arial" font-size="12" font-style="italic" lengthAdjust="spacing" textLength="67" x="1491.75" y="1339.8564">IUnitOfWork</text><line style="stroke:#181818;stroke-width:0.5;" x1="1374.5" x2="1643.5" y1="1351.5" y2="1351.5"/><line style="stroke:#181818;stroke-width:0.5;" x1="1374.5" x2="1643.5" y1="1359.5" y2="1359.5"/><ellipse cx="1384.5" cy="1371.8994" fill="#84BE84" rx="3" ry="3" style="stroke:#038048;stroke-width:1.0;"/><text fill="#000000" font-family="Arial" font-size="12" lengthAdjust="spacing" textLength="245" x="1393.5" y="1374.7559">CompleteAsync(ct: CancellationToken): Task</text></g><!--class IAuditableEntity--><g id="elem_IAuditableEntity"><rect codeLine="31" fill="#FDFDFD" height="81.1953" id="IAuditableEntity" rx="2.5" ry="2.5" style="stroke:#181818;stroke-width:0.5;" width="182" x="2177" y="1310"/><ellipse cx="2220.35" cy="1328.7988" fill="#B4A7E5" rx="11" ry="11" style="stroke:#181818;stroke-width:1.0;"/><path d="M2221.3031,1325.4395 L2221.3031,1332.0957 L2223.0219,1332.0957 Q2223.6313,1332.0957 2223.8969,1332.3301 Q2224.1625,1332.5645 2224.1625,1332.9551 Q2224.1625,1333.3301 2223.8969,1333.5645 Q2223.6313,1333.7988 2223.0219,1333.7988 L2217.8813,1333.7988 Q2217.2719,1333.7988 2217.0063,1333.5645 Q2216.7406,1333.3301 2216.7406,1332.9395 Q2216.7406,1332.5645 2217.0063,1332.3301 Q2217.2719,1332.0957 2217.8813,1332.0957 L2219.6,1332.0957 L2219.6,1325.4395 L2217.8813,1325.4395 Q2217.2719,1325.4395 2217.0063,1325.2051 Q2216.7406,1324.9707 2216.7406,1324.5801 Q2216.7406,1324.2051 2217.0063,1323.9707 Q2217.2719,1323.7363 2217.8813,1323.7363 L2223.0219,1323.7363 Q2223.6313,1323.7363 2223.8969,1323.9707 Q2224.1625,1324.2051 2224.1625,1324.5801 Q2224.1625,1324.9707 2223.8969,1325.2051 Q2223.6313,1325.4395 2223.0219,1325.4395 L2221.3031,1325.4395 Z " fill="#000000"/><text fill="#000000" font-family="Arial" font-size="12" font-style="italic" lengthAdjust="spacing" textLength="44" x="2262.15" y="1326.2559">&#171;Entity&#187;</text><text fill="#000000" font-family="Arial" font-size="12" font-style="italic" lengthAdjust="spacing" textLength="87" x="2240.65" y="1340.0547">IAuditableEntity</text><line style="stroke:#181818;stroke-width:0.5;" x1="2178" x2="2358" y1="1347.5977" y2="1347.5977"/><ellipse cx="2188" cy="1359.9971" fill="none" rx="3" ry="3" style="stroke:#038048;stroke-width:1.0;"/><text fill="#000000" font-family="Arial" font-size="12" lengthAdjust="spacing" textLength="153" x="2197" y="1362.8535">CreatedAt: DateTimeOffset?</text><ellipse cx="2188" cy="1373.7959" fill="none" rx="3" ry="3" style="stroke:#038048;stroke-width:1.0;"/><text fill="#000000" font-family="Arial" font-size="12" lengthAdjust="spacing" textLength="156" x="2197" y="1376.6523">UpdatedAt: DateTimeOffset?</text><line style="stroke:#181818;stroke-width:0.5;" x1="2178" x2="2358" y1="1383.1953" y2="1383.1953"/></g><!--class AppDbContext--><g id="elem_AppDbContext"><rect codeLine="38" fill="#FDFDFD" height="75.5977" id="AppDbContext" rx="2.5" ry="2.5" style="stroke:#181818;stroke-width:0.5;" width="351" x="747.5" y="1312.5"/><ellipse cx="879.75" cy="1328.5" fill="#ADD1B2" rx="11" ry="11" style="stroke:#181818;stroke-width:1.0;"/><path d="M882.5156,1324.375 Q882.6719,1324.1563 882.8594,1324.0469 Q883.0469,1323.9375 883.2656,1323.9375 Q883.6406,1323.9375 883.875,1324.2031 Q884.1094,1324.4531 884.1094,1325.0625 L884.1094,1326.5156 Q884.1094,1327.125 883.875,1327.3906 Q883.6406,1327.6563 883.2656,1327.6563 Q882.9219,1327.6563 882.7188,1327.4531 Q882.5156,1327.2656 882.4063,1326.75 Q882.3594,1326.3906 882.1719,1326.2031 Q881.8438,1325.8281 881.2344,1325.6094 Q880.625,1325.3906 880,1325.3906 Q879.2344,1325.3906 878.5938,1325.7188 Q877.9688,1326.0469 877.4688,1326.7969 Q876.9844,1327.5469 876.9844,1328.5781 L876.9844,1329.6719 Q876.9844,1330.9063 877.875,1331.7344 Q878.7656,1332.5469 880.3594,1332.5469 Q881.2969,1332.5469 881.9531,1332.2969 Q882.3438,1332.1406 882.7656,1331.7031 Q883.0313,1331.4375 883.1719,1331.3594 Q883.3281,1331.2813 883.5313,1331.2813 Q883.8594,1331.2813 884.1094,1331.5469 Q884.375,1331.7969 884.375,1332.1406 Q884.375,1332.4844 884.0313,1332.8906 Q883.5313,1333.4688 882.7344,1333.7969 Q881.6563,1334.25 880.3594,1334.25 Q878.8438,1334.25 877.6406,1333.625 Q876.6563,1333.125 875.9688,1332.0625 Q875.2813,1330.9844 875.2813,1329.7031 L875.2813,1328.5469 Q875.2813,1327.2188 875.8906,1326.0781 Q876.5156,1324.9219 877.6094,1324.3125 Q878.7031,1323.6875 879.9375,1323.6875 Q880.6719,1323.6875 881.3125,1323.8594 Q881.9688,1324.0156 882.5156,1324.375 Z " fill="#000000"/><text fill="#000000" font-family="Arial" font-size="12" lengthAdjust="spacing" textLength="78" x="900.25" y="1332.8564">AppDbContext</text><line style="stroke:#181818;stroke-width:0.5;" x1="748.5" x2="1097.5" y1="1344.5" y2="1344.5"/><line style="stroke:#181818;stroke-width:0.5;" x1="748.5" x2="1097.5" y1="1352.5" y2="1352.5"/><ellipse cx="758.5" cy="1364.8994" fill="#84BE84" rx="3" ry="3" style="stroke:#038048;stroke-width:1.0;"/><text fill="#000000" font-family="Arial" font-size="12" lengthAdjust="spacing" textLength="325" x="767.5" y="1367.7559">AppDbContext(options: DbContextOptions&lt;AppDbContext&gt;)</text><ellipse cx="758.5" cy="1378.6982" fill="#84BE84" rx="3" ry="3" style="stroke:#038048;stroke-width:1.0;"/><text fill="#000000" font-family="Arial" font-size="12" lengthAdjust="spacing" textLength="296" x="767.5" y="1381.5547">SaveChangesAsync(ct: CancellationToken): Task&lt;int&gt;</text></g><!--class BaseRepository--><g id="elem_BaseRepository"><rect codeLine="43" fill="#FDFDFD" height="130.793" id="BaseRepository" rx="2.5" ry="2.5" style="stroke:#181818;stroke-width:0.5;" width="372" x="945" y="955.5"/><ellipse cx="1062.25" cy="971.5" fill="#ADD1B2" rx="11" ry="11" style="stroke:#181818;stroke-width:1.0;"/><path d="M1065.0156,967.375 Q1065.1719,967.1563 1065.3594,967.0469 Q1065.5469,966.9375 1065.7656,966.9375 Q1066.1406,966.9375 1066.375,967.2031 Q1066.6094,967.4531 1066.6094,968.0625 L1066.6094,969.5156 Q1066.6094,970.125 1066.375,970.3906 Q1066.1406,970.6563 1065.7656,970.6563 Q1065.4219,970.6563 1065.2188,970.4531 Q1065.0156,970.2656 1064.9063,969.75 Q1064.8594,969.3906 1064.6719,969.2031 Q1064.3438,968.8281 1063.7344,968.6094 Q1063.125,968.3906 1062.5,968.3906 Q1061.7344,968.3906 1061.0938,968.7188 Q1060.4688,969.0469 1059.9688,969.7969 Q1059.4844,970.5469 1059.4844,971.5781 L1059.4844,972.6719 Q1059.4844,973.9063 1060.375,974.7344 Q1061.2656,975.5469 1062.8594,975.5469 Q1063.7969,975.5469 1064.4531,975.2969 Q1064.8438,975.1406 1065.2656,974.7031 Q1065.5313,974.4375 1065.6719,974.3594 Q1065.8281,974.2813 1066.0313,974.2813 Q1066.3594,974.2813 1066.6094,974.5469 Q1066.875,974.7969 1066.875,975.1406 Q1066.875,975.4844 1066.5313,975.8906 Q1066.0313,976.4688 1065.2344,976.7969 Q1064.1563,977.25 1062.8594,977.25 Q1061.3438,977.25 1060.1406,976.625 Q1059.1563,976.125 1058.4688,975.0625 Q1057.7813,973.9844 1057.7813,972.7031 L1057.7813,971.5469 Q1057.7813,970.2188 1058.3906,969.0781 Q1059.0156,967.9219 1060.1094,967.3125 Q1061.2031,966.6875 1062.4375,966.6875 Q1063.1719,966.6875 1063.8125,966.8594 Q1064.4688,967.0156 1065.0156,967.375 Z " fill="#000000"/><text fill="#000000" font-family="Arial" font-size="12" lengthAdjust="spacing" textLength="88" x="1082.75" y="975.8564">BaseRepository</text><rect fill="#FFFFFF" height="15.7988" style="stroke:#181818;stroke-width:1.0;stroke-dasharray:2.0,2.0;" width="39" x="1281" y="952.5"/><text fill="#000000" font-family="Arial" font-size="12" font-style="italic" lengthAdjust="spacing" textLength="37" x="1282" y="964.7559">TEntity</text><line style="stroke:#181818;stroke-width:0.5;" x1="946" x2="1316" y1="987.5" y2="987.5"/><line style="stroke:#181818;stroke-width:0.5;" x1="946" x2="1316" y1="995.5" y2="995.5"/><ellipse cx="956" cy="1007.8994" fill="#84BE84" rx="3" ry="3" style="stroke:#038048;stroke-width:1.0;"/><text fill="#000000" font-family="Arial" font-size="12" lengthAdjust="spacing" textLength="218" x="965" y="1010.7559">BaseRepository(context: AppDbContext)</text><ellipse cx="956" cy="1021.6982" fill="#84BE84" rx="3" ry="3" style="stroke:#038048;stroke-width:1.0;"/><text fill="#000000" font-family="Arial" font-size="12" lengthAdjust="spacing" textLength="288" x="965" y="1024.5547">AddAsync(entity: TEntity, ct: CancellationToken): Task</text><ellipse cx="956" cy="1035.4971" fill="#84BE84" rx="3" ry="3" style="stroke:#038048;stroke-width:1.0;"/><text fill="#000000" font-family="Arial" font-size="12" lengthAdjust="spacing" textLength="330" x="965" y="1038.3535">FindByIdAsync(id: int, ct: CancellationToken): Task&lt;TEntity?&gt;</text><ellipse cx="956" cy="1049.2959" fill="#84BE84" rx="3" ry="3" style="stroke:#038048;stroke-width:1.0;"/><text fill="#000000" font-family="Arial" font-size="12" lengthAdjust="spacing" textLength="146" x="965" y="1052.1523">Update(entity: TEntity): void</text><ellipse cx="956" cy="1063.0947" fill="#84BE84" rx="3" ry="3" style="stroke:#038048;stroke-width:1.0;"/><text fill="#000000" font-family="Arial" font-size="12" lengthAdjust="spacing" textLength="152" x="965" y="1065.9512">Remove(entity: TEntity): void</text><ellipse cx="956" cy="1076.8936" fill="#84BE84" rx="3" ry="3" style="stroke:#038048;stroke-width:1.0;"/><text fill="#000000" font-family="Arial" font-size="12" lengthAdjust="spacing" textLength="346" x="965" y="1079.75">ListAsync(ct: CancellationToken): Task&lt;IEnumerable&lt;TEntity&gt;&gt;</text></g><!--class UnitOfWork--><g id="elem_UnitOfWork"><rect codeLine="52" fill="#FDFDFD" height="75.5977" id="UnitOfWork" rx="2.5" ry="2.5" style="stroke:#181818;stroke-width:0.5;" width="271" x="593.5" y="983"/><ellipse cx="693.75" cy="999" fill="#ADD1B2" rx="11" ry="11" style="stroke:#181818;stroke-width:1.0;"/><path d="M696.5156,994.875 Q696.6719,994.6563 696.8594,994.5469 Q697.0469,994.4375 697.2656,994.4375 Q697.6406,994.4375 697.875,994.7031 Q698.1094,994.9531 698.1094,995.5625 L698.1094,997.0156 Q698.1094,997.625 697.875,997.8906 Q697.6406,998.1563 697.2656,998.1563 Q696.9219,998.1563 696.7188,997.9531 Q696.5156,997.7656 696.4063,997.25 Q696.3594,996.8906 696.1719,996.7031 Q695.8438,996.3281 695.2344,996.1094 Q694.625,995.8906 694,995.8906 Q693.2344,995.8906 692.5938,996.2188 Q691.9688,996.5469 691.4688,997.2969 Q690.9844,998.0469 690.9844,999.0781 L690.9844,1000.1719 Q690.9844,1001.4063 691.875,1002.2344 Q692.7656,1003.0469 694.3594,1003.0469 Q695.2969,1003.0469 695.9531,1002.7969 Q696.3438,1002.6406 696.7656,1002.2031 Q697.0313,1001.9375 697.1719,1001.8594 Q697.3281,1001.7813 697.5313,1001.7813 Q697.8594,1001.7813 698.1094,1002.0469 Q698.375,1002.2969 698.375,1002.6406 Q698.375,1002.9844 698.0313,1003.3906 Q697.5313,1003.9688 696.7344,1004.2969 Q695.6563,1004.75 694.3594,1004.75 Q692.8438,1004.75 691.6406,1004.125 Q690.6563,1003.625 689.9688,1002.5625 Q689.2813,1001.4844 689.2813,1000.2031 L689.2813,999.0469 Q689.2813,997.7188 689.8906,996.5781 Q690.5156,995.4219 691.6094,994.8125 Q692.7031,994.1875 693.9375,994.1875 Q694.6719,994.1875 695.3125,994.3594 Q695.9688,994.5156 696.5156,994.875 Z " fill="#000000"/><text fill="#000000" font-family="Arial" font-size="12" lengthAdjust="spacing" textLength="62" x="714.25" y="1003.3564">UnitOfWork</text><line style="stroke:#181818;stroke-width:0.5;" x1="594.5" x2="863.5" y1="1015" y2="1015"/><line style="stroke:#181818;stroke-width:0.5;" x1="594.5" x2="863.5" y1="1023" y2="1023"/><ellipse cx="604.5" cy="1035.3994" fill="#84BE84" rx="3" ry="3" style="stroke:#038048;stroke-width:1.0;"/><text fill="#000000" font-family="Arial" font-size="12" lengthAdjust="spacing" textLength="192" x="613.5" y="1038.2559">UnitOfWork(context: AppDbContext)</text><ellipse cx="604.5" cy="1049.1982" fill="#84BE84" rx="3" ry="3" style="stroke:#038048;stroke-width:1.0;"/><text fill="#000000" font-family="Arial" font-size="12" lengthAdjust="spacing" textLength="245" x="613.5" y="1052.0547">CompleteAsync(ct: CancellationToken): Task</text></g><!--class AuditableEntityInterceptor--><g id="elem_AuditableEntityInterceptor"><rect codeLine="57" fill="#FDFDFD" height="61.7988" id="AuditableEntityInterceptor" rx="2.5" ry="2.5" style="stroke:#181818;stroke-width:0.5;" width="466" x="47" y="990"/><ellipse cx="206.75" cy="1006" fill="#ADD1B2" rx="11" ry="11" style="stroke:#181818;stroke-width:1.0;"/><path d="M209.5156,1001.875 Q209.6719,1001.6563 209.8594,1001.5469 Q210.0469,1001.4375 210.2656,1001.4375 Q210.6406,1001.4375 210.875,1001.7031 Q211.1094,1001.9531 211.1094,1002.5625 L211.1094,1004.0156 Q211.1094,1004.625 210.875,1004.8906 Q210.6406,1005.1563 210.2656,1005.1563 Q209.9219,1005.1563 209.7188,1004.9531 Q209.5156,1004.7656 209.4063,1004.25 Q209.3594,1003.8906 209.1719,1003.7031 Q208.8438,1003.3281 208.2344,1003.1094 Q207.625,1002.8906 207,1002.8906 Q206.2344,1002.8906 205.5938,1003.2188 Q204.9688,1003.5469 204.4688,1004.2969 Q203.9844,1005.0469 203.9844,1006.0781 L203.9844,1007.1719 Q203.9844,1008.4063 204.875,1009.2344 Q205.7656,1010.0469 207.3594,1010.0469 Q208.2969,1010.0469 208.9531,1009.7969 Q209.3438,1009.6406 209.7656,1009.2031 Q210.0313,1008.9375 210.1719,1008.8594 Q210.3281,1008.7813 210.5313,1008.7813 Q210.8594,1008.7813 211.1094,1009.0469 Q211.375,1009.2969 211.375,1009.6406 Q211.375,1009.9844 211.0313,1010.3906 Q210.5313,1010.9688 209.7344,1011.2969 Q208.6563,1011.75 207.3594,1011.75 Q205.8438,1011.75 204.6406,1011.125 Q203.6563,1010.625 202.9688,1009.5625 Q202.2813,1008.4844 202.2813,1007.2031 L202.2813,1006.0469 Q202.2813,1004.7188 202.8906,1003.5781 Q203.5156,1002.4219 204.6094,1001.8125 Q205.7031,1001.1875 206.9375,1001.1875 Q207.6719,1001.1875 208.3125,1001.3594 Q208.9688,1001.5156 209.5156,1001.875 Z " fill="#000000"/><text fill="#000000" font-family="Arial" font-size="12" lengthAdjust="spacing" textLength="138" x="227.25" y="1010.3564">AuditableEntityInterceptor</text><line style="stroke:#181818;stroke-width:0.5;" x1="48" x2="512" y1="1022" y2="1022"/><line style="stroke:#181818;stroke-width:0.5;" x1="48" x2="512" y1="1030" y2="1030"/><ellipse cx="58" cy="1042.3994" fill="#84BE84" rx="3" ry="3" style="stroke:#038048;stroke-width:1.0;"/><text fill="#000000" font-family="Arial" font-size="12" lengthAdjust="spacing" textLength="440" x="67" y="1045.2559">SavingChangesAsync(eventData, result, ct): ValueTask&lt;InterceptionResult&lt;int&gt;&gt;</text></g><!--class Plan--><g id="elem_Plan"><rect codeLine="69" fill="#FDFDFD" height="301.9766" id="Plan" rx="2.5" ry="2.5" style="stroke:#181818;stroke-width:0.5;" width="197" x="2983.5" y="870"/><ellipse cx="3044.25" cy="888.7988" fill="#ADD1B2" rx="11" ry="11" style="stroke:#181818;stroke-width:1.0;"/><path d="M3047.0156,884.6738 Q3047.1719,884.4551 3047.3594,884.3457 Q3047.5469,884.2363 3047.7656,884.2363 Q3048.1406,884.2363 3048.375,884.502 Q3048.6094,884.752 3048.6094,885.3613 L3048.6094,886.8145 Q3048.6094,887.4238 3048.375,887.6895 Q3048.1406,887.9551 3047.7656,887.9551 Q3047.4219,887.9551 3047.2188,887.752 Q3047.0156,887.5645 3046.9063,887.0488 Q3046.8594,886.6895 3046.6719,886.502 Q3046.3438,886.127 3045.7344,885.9082 Q3045.125,885.6895 3044.5,885.6895 Q3043.7344,885.6895 3043.0938,886.0176 Q3042.4688,886.3457 3041.9688,887.0957 Q3041.4844,887.8457 3041.4844,888.877 L3041.4844,889.9707 Q3041.4844,891.2051 3042.375,892.0332 Q3043.2656,892.8457 3044.8594,892.8457 Q3045.7969,892.8457 3046.4531,892.5957 Q3046.8438,892.4395 3047.2656,892.002 Q3047.5313,891.7363 3047.6719,891.6582 Q3047.8281,891.5801 3048.0313,891.5801 Q3048.3594,891.5801 3048.6094,891.8457 Q3048.875,892.0957 3048.875,892.4395 Q3048.875,892.7832 3048.5313,893.1895 Q3048.0313,893.7676 3047.2344,894.0957 Q3046.1563,894.5488 3044.8594,894.5488 Q3043.3438,894.5488 3042.1406,893.9238 Q3041.1563,893.4238 3040.4688,892.3613 Q3039.7813,891.2832 3039.7813,890.002 L3039.7813,888.8457 Q3039.7813,887.5176 3040.3906,886.377 Q3041.0156,885.2207 3042.1094,884.6113 Q3043.2031,883.9863 3044.4375,883.9863 Q3045.1719,883.9863 3045.8125,884.1582 Q3046.4688,884.3145 3047.0156,884.6738 Z " fill="#000000"/><text fill="#000000" font-family="Arial" font-size="12" font-style="italic" lengthAdjust="spacing" textLength="71" x="3062.75" y="886.2559">&#171;Aggregate&#187;</text><text fill="#000000" font-family="Arial" font-size="12" lengthAdjust="spacing" textLength="25" x="3085.75" y="900.0547">Plan</text><line style="stroke:#181818;stroke-width:0.5;" x1="2984.5" x2="3179.5" y1="907.5977" y2="907.5977"/><ellipse cx="2994.5" cy="919.9971" fill="none" rx="3" ry="3" style="stroke:#038048;stroke-width:1.0;"/><text fill="#000000" font-family="Arial" font-size="12" lengthAdjust="spacing" textLength="29" x="3003.5" y="922.8535">Id: int</text><ellipse cx="2994.5" cy="933.7959" fill="none" rx="3" ry="3" style="stroke:#038048;stroke-width:1.0;"/><text fill="#000000" font-family="Arial" font-size="12" lengthAdjust="spacing" textLength="67" x="3003.5" y="936.6523">Code: string</text><ellipse cx="2994.5" cy="947.5947" fill="none" rx="3" ry="3" style="stroke:#038048;stroke-width:1.0;"/><text fill="#000000" font-family="Arial" font-size="12" lengthAdjust="spacing" textLength="71" x="3003.5" y="950.4512">Name: string</text><ellipse cx="2994.5" cy="961.3936" fill="none" rx="3" ry="3" style="stroke:#038048;stroke-width:1.0;"/><text fill="#000000" font-family="Arial" font-size="12" lengthAdjust="spacing" textLength="78" x="3003.5" y="964.25">Price: decimal</text><ellipse cx="2994.5" cy="975.1924" fill="none" rx="3" ry="3" style="stroke:#038048;stroke-width:1.0;"/><text fill="#000000" font-family="Arial" font-size="12" lengthAdjust="spacing" textLength="86" x="3003.5" y="978.0488">Currency: string</text><ellipse cx="2994.5" cy="988.9912" fill="none" rx="3" ry="3" style="stroke:#038048;stroke-width:1.0;"/><text fill="#000000" font-family="Arial" font-size="12" lengthAdjust="spacing" textLength="154" x="3003.5" y="991.8477">BillingPeriod: EBillingPeriod</text><ellipse cx="2994.5" cy="1002.79" fill="none" rx="3" ry="3" style="stroke:#038048;stroke-width:1.0;"/><text fill="#000000" font-family="Arial" font-size="12" lengthAdjust="spacing" textLength="90" x="3003.5" y="1005.6465">MaxDoctors: int?</text><ellipse cx="2994.5" cy="1016.5889" fill="none" rx="3" ry="3" style="stroke:#038048;stroke-width:1.0;"/><text fill="#000000" font-family="Arial" font-size="12" lengthAdjust="spacing" textLength="106" x="3003.5" y="1019.4453">MaxSupervisors: int</text><ellipse cx="2994.5" cy="1030.3877" fill="none" rx="3" ry="3" style="stroke:#038048;stroke-width:1.0;"/><text fill="#000000" font-family="Arial" font-size="12" lengthAdjust="spacing" textLength="79" x="3003.5" y="1033.2441">MaxTeams: int</text><ellipse cx="2994.5" cy="1044.1865" fill="none" rx="3" ry="3" style="stroke:#038048;stroke-width:1.0;"/><text fill="#000000" font-family="Arial" font-size="12" lengthAdjust="spacing" textLength="100" x="3003.5" y="1047.043">MaxWorkAreas: int</text><ellipse cx="2994.5" cy="1057.9854" fill="none" rx="3" ry="3" style="stroke:#038048;stroke-width:1.0;"/><text fill="#000000" font-family="Arial" font-size="12" lengthAdjust="spacing" textLength="115" x="3003.5" y="1060.8418">MonthlyInvitations: int</text><ellipse cx="2994.5" cy="1071.7842" fill="none" rx="3" ry="3" style="stroke:#038048;stroke-width:1.0;"/><text fill="#000000" font-family="Arial" font-size="12" lengthAdjust="spacing" textLength="111" x="3003.5" y="1074.6406">DataHistoryDays: int</text><ellipse cx="2994.5" cy="1085.583" fill="none" rx="3" ry="3" style="stroke:#038048;stroke-width:1.0;"/><text fill="#000000" font-family="Arial" font-size="12" lengthAdjust="spacing" textLength="158" x="3003.5" y="1088.4395">SupportLevel: ESupportLevel</text><ellipse cx="2994.5" cy="1099.3818" fill="none" rx="3" ry="3" style="stroke:#038048;stroke-width:1.0;"/><text fill="#000000" font-family="Arial" font-size="12" lengthAdjust="spacing" textLength="116" x="3003.5" y="1102.2383">Recommended: bool</text><ellipse cx="2994.5" cy="1113.1807" fill="none" rx="3" ry="3" style="stroke:#038048;stroke-width:1.0;"/><text fill="#000000" font-family="Arial" font-size="12" lengthAdjust="spacing" textLength="143" x="3003.5" y="1116.0371">FeatureKeys: IList&lt;string&gt;</text><ellipse cx="2994.5" cy="1126.9795" fill="none" rx="3" ry="3" style="stroke:#038048;stroke-width:1.0;"/><text fill="#000000" font-family="Arial" font-size="12" lengthAdjust="spacing" textLength="167" x="3003.5" y="1129.8359">EnabledModules: IList&lt;string&gt;</text><ellipse cx="2994.5" cy="1140.7783" fill="none" rx="3" ry="3" style="stroke:#038048;stroke-width:1.0;"/><text fill="#000000" font-family="Arial" font-size="12" lengthAdjust="spacing" textLength="171" x="3003.5" y="1143.6348">DisabledModules: IList&lt;string&gt;</text><line style="stroke:#181818;stroke-width:0.5;" x1="2984.5" x2="3179.5" y1="1150.1777" y2="1150.1777"/><ellipse cx="2994.5" cy="1162.5771" fill="#84BE84" rx="3" ry="3" style="stroke:#038048;stroke-width:1.0;"/><text fill="#000000" font-family="Arial" font-size="12" lengthAdjust="spacing" textLength="33" x="3003.5" y="1165.4336">Plan()</text></g><!--class Subscription--><g id="elem_Subscription"><rect codeLine="90" fill="#FDFDFD" height="232.9824" id="Subscription" rx="2.5" ry="2.5" style="stroke:#181818;stroke-width:0.5;" width="403" x="2576.5" y="517"/><ellipse cx="2739.25" cy="535.7988" fill="#ADD1B2" rx="11" ry="11" style="stroke:#181818;stroke-width:1.0;"/><path d="M2742.0156,531.6738 Q2742.1719,531.4551 2742.3594,531.3457 Q2742.5469,531.2363 2742.7656,531.2363 Q2743.1406,531.2363 2743.375,531.502 Q2743.6094,531.752 2743.6094,532.3613 L2743.6094,533.8145 Q2743.6094,534.4238 2743.375,534.6895 Q2743.1406,534.9551 2742.7656,534.9551 Q2742.4219,534.9551 2742.2188,534.752 Q2742.0156,534.5645 2741.9063,534.0488 Q2741.8594,533.6895 2741.6719,533.502 Q2741.3438,533.127 2740.7344,532.9082 Q2740.125,532.6895 2739.5,532.6895 Q2738.7344,532.6895 2738.0938,533.0176 Q2737.4688,533.3457 2736.9688,534.0957 Q2736.4844,534.8457 2736.4844,535.877 L2736.4844,536.9707 Q2736.4844,538.2051 2737.375,539.0332 Q2738.2656,539.8457 2739.8594,539.8457 Q2740.7969,539.8457 2741.4531,539.5957 Q2741.8438,539.4395 2742.2656,539.002 Q2742.5313,538.7363 2742.6719,538.6582 Q2742.8281,538.5801 2743.0313,538.5801 Q2743.3594,538.5801 2743.6094,538.8457 Q2743.875,539.0957 2743.875,539.4395 Q2743.875,539.7832 2743.5313,540.1895 Q2743.0313,540.7676 2742.2344,541.0957 Q2741.1563,541.5488 2739.8594,541.5488 Q2738.3438,541.5488 2737.1406,540.9238 Q2736.1563,540.4238 2735.4688,539.3613 Q2734.7813,538.2832 2734.7813,537.002 L2734.7813,535.8457 Q2734.7813,534.5176 2735.3906,533.377 Q2736.0156,532.2207 2737.1094,531.6113 Q2738.2031,530.9863 2739.4375,530.9863 Q2740.1719,530.9863 2740.8125,531.1582 Q2741.4688,531.3145 2742.0156,531.6738 Z " fill="#000000"/><text fill="#000000" font-family="Arial" font-size="12" font-style="italic" lengthAdjust="spacing" textLength="71" x="2758.75" y="533.2559">&#171;Aggregate&#187;</text><text fill="#000000" font-family="Arial" font-size="12" lengthAdjust="spacing" textLength="69" x="2759.75" y="547.0547">Subscription</text><line style="stroke:#181818;stroke-width:0.5;" x1="2577.5" x2="2978.5" y1="554.5977" y2="554.5977"/><ellipse cx="2587.5" cy="566.9971" fill="none" rx="3" ry="3" style="stroke:#038048;stroke-width:1.0;"/><text fill="#000000" font-family="Arial" font-size="12" lengthAdjust="spacing" textLength="29" x="2596.5" y="569.8535">Id: int</text><ellipse cx="2587.5" cy="580.7959" fill="none" rx="3" ry="3" style="stroke:#038048;stroke-width:1.0;"/><text fill="#000000" font-family="Arial" font-size="12" lengthAdjust="spacing" textLength="98" x="2596.5" y="583.6523">OrganizationId: int</text><ellipse cx="2587.5" cy="594.5947" fill="none" rx="3" ry="3" style="stroke:#038048;stroke-width:1.0;"/><text fill="#000000" font-family="Arial" font-size="12" lengthAdjust="spacing" textLength="54" x="2596.5" y="597.4512">PlanId: int</text><ellipse cx="2587.5" cy="608.3936" fill="none" rx="3" ry="3" style="stroke:#038048;stroke-width:1.0;"/><text fill="#000000" font-family="Arial" font-size="12" lengthAdjust="spacing" textLength="153" x="2596.5" y="611.25">Status: ESubscriptionStatus</text><ellipse cx="2587.5" cy="622.1924" fill="none" rx="3" ry="3" style="stroke:#038048;stroke-width:1.0;"/><text fill="#000000" font-family="Arial" font-size="12" lengthAdjust="spacing" textLength="141" x="2596.5" y="625.0488">StartedAt: DateTimeOffset</text><ellipse cx="2587.5" cy="635.9912" fill="none" rx="3" ry="3" style="stroke:#038048;stroke-width:1.0;"/><text fill="#000000" font-family="Arial" font-size="12" lengthAdjust="spacing" textLength="165" x="2596.5" y="638.8477">CancelledAt: DateTimeOffset?</text><ellipse cx="2587.5" cy="649.79" fill="none" rx="3" ry="3" style="stroke:#038048;stroke-width:1.0;"/><text fill="#000000" font-family="Arial" font-size="12" lengthAdjust="spacing" textLength="155" x="2596.5" y="652.6465">StripeSubscriptionId: string?</text><ellipse cx="2587.5" cy="663.5889" fill="none" rx="3" ry="3" style="stroke:#038048;stroke-width:1.0;"/><text fill="#000000" font-family="Arial" font-size="12" lengthAdjust="spacing" textLength="141" x="2596.5" y="666.4453">StripeCustomerId: string?</text><line style="stroke:#181818;stroke-width:0.5;" x1="2577.5" x2="2978.5" y1="672.9883" y2="672.9883"/><ellipse cx="2587.5" cy="685.3877" fill="#84BE84" rx="3" ry="3" style="stroke:#038048;stroke-width:1.0;"/><text fill="#000000" font-family="Arial" font-size="12" lengthAdjust="spacing" textLength="77" x="2596.5" y="688.2441">Subscription()</text><ellipse cx="2587.5" cy="699.1865" fill="#84BE84" rx="3" ry="3" style="stroke:#038048;stroke-width:1.0;"/><text fill="#000000" font-family="Arial" font-size="12" lengthAdjust="spacing" textLength="304" x="2596.5" y="702.043">Subscription(command: CreateSubscriptionCommand)</text><ellipse cx="2587.5" cy="712.9854" fill="#84BE84" rx="3" ry="3" style="stroke:#038048;stroke-width:1.0;"/><text fill="#000000" font-family="Arial" font-size="12" lengthAdjust="spacing" textLength="154" x="2596.5" y="715.8418">UpdatePlan(planId: int): void</text><ellipse cx="2587.5" cy="726.7842" fill="#84BE84" rx="3" ry="3" style="stroke:#038048;stroke-width:1.0;"/><text fill="#000000" font-family="Arial" font-size="12" lengthAdjust="spacing" textLength="377" x="2596.5" y="729.6406">Activate(stripeSubscriptionId: string?, stripeCustomerId: string?): void</text><ellipse cx="2587.5" cy="740.583" fill="#84BE84" rx="3" ry="3" style="stroke:#038048;stroke-width:1.0;"/><text fill="#000000" font-family="Arial" font-size="12" lengthAdjust="spacing" textLength="75" x="2596.5" y="743.4395">Cancel(): void</text></g><!--class CheckoutSession--><g id="elem_CheckoutSession"><rect codeLine="106" fill="#FDFDFD" height="163.9883" id="CheckoutSession" rx="2.5" ry="2.5" style="stroke:#181818;stroke-width:0.5;" width="388" x="3060" y="551.5"/><ellipse cx="3200.75" cy="570.2988" fill="#ADD1B2" rx="11" ry="11" style="stroke:#181818;stroke-width:1.0;"/><path d="M3203.5156,566.1738 Q3203.6719,565.9551 3203.8594,565.8457 Q3204.0469,565.7363 3204.2656,565.7363 Q3204.6406,565.7363 3204.875,566.002 Q3205.1094,566.252 3205.1094,566.8613 L3205.1094,568.3145 Q3205.1094,568.9238 3204.875,569.1895 Q3204.6406,569.4551 3204.2656,569.4551 Q3203.9219,569.4551 3203.7188,569.252 Q3203.5156,569.0645 3203.4063,568.5488 Q3203.3594,568.1895 3203.1719,568.002 Q3202.8438,567.627 3202.2344,567.4082 Q3201.625,567.1895 3201,567.1895 Q3200.2344,567.1895 3199.5938,567.5176 Q3198.9688,567.8457 3198.4688,568.5957 Q3197.9844,569.3457 3197.9844,570.377 L3197.9844,571.4707 Q3197.9844,572.7051 3198.875,573.5332 Q3199.7656,574.3457 3201.3594,574.3457 Q3202.2969,574.3457 3202.9531,574.0957 Q3203.3438,573.9395 3203.7656,573.502 Q3204.0313,573.2363 3204.1719,573.1582 Q3204.3281,573.0801 3204.5313,573.0801 Q3204.8594,573.0801 3205.1094,573.3457 Q3205.375,573.5957 3205.375,573.9395 Q3205.375,574.2832 3205.0313,574.6895 Q3204.5313,575.2676 3203.7344,575.5957 Q3202.6563,576.0488 3201.3594,576.0488 Q3199.8438,576.0488 3198.6406,575.4238 Q3197.6563,574.9238 3196.9688,573.8613 Q3196.2813,572.7832 3196.2813,571.502 L3196.2813,570.3457 Q3196.2813,569.0176 3196.8906,567.877 Q3197.5156,566.7207 3198.6094,566.1113 Q3199.7031,565.4863 3200.9375,565.4863 Q3201.6719,565.4863 3202.3125,565.6582 Q3202.9688,565.8145 3203.5156,566.1738 Z " fill="#000000"/><text fill="#000000" font-family="Arial" font-size="12" font-style="italic" lengthAdjust="spacing" textLength="71" x="3234.75" y="567.7559">&#171;Aggregate&#187;</text><text fill="#000000" font-family="Arial" font-size="12" lengthAdjust="spacing" textLength="98" x="3221.25" y="581.5547">CheckoutSession</text><line style="stroke:#181818;stroke-width:0.5;" x1="3061" x2="3447" y1="589.0977" y2="589.0977"/><ellipse cx="3071" cy="601.4971" fill="none" rx="3" ry="3" style="stroke:#038048;stroke-width:1.0;"/><text fill="#000000" font-family="Arial" font-size="12" lengthAdjust="spacing" textLength="29" x="3080" y="604.3535">Id: int</text><ellipse cx="3071" cy="615.2959" fill="none" rx="3" ry="3" style="stroke:#038048;stroke-width:1.0;"/><text fill="#000000" font-family="Arial" font-size="12" lengthAdjust="spacing" textLength="98" x="3080" y="618.1523">OrganizationId: int</text><ellipse cx="3071" cy="629.0947" fill="none" rx="3" ry="3" style="stroke:#038048;stroke-width:1.0;"/><text fill="#000000" font-family="Arial" font-size="12" lengthAdjust="spacing" textLength="54" x="3080" y="631.9512">PlanId: int</text><ellipse cx="3071" cy="642.8936" fill="none" rx="3" ry="3" style="stroke:#038048;stroke-width:1.0;"/><text fill="#000000" font-family="Arial" font-size="12" lengthAdjust="spacing" textLength="182" x="3080" y="645.75">Status: ECheckoutSessionStatus</text><ellipse cx="3071" cy="656.6924" fill="none" rx="3" ry="3" style="stroke:#038048;stroke-width:1.0;"/><text fill="#000000" font-family="Arial" font-size="12" lengthAdjust="spacing" textLength="125" x="3080" y="659.5488">StripeSessionId: string</text><ellipse cx="3071" cy="670.4912" fill="none" rx="3" ry="3" style="stroke:#038048;stroke-width:1.0;"/><text fill="#000000" font-family="Arial" font-size="12" lengthAdjust="spacing" textLength="131" x="3080" y="673.3477">StripeSessionUrl: string</text><line style="stroke:#181818;stroke-width:0.5;" x1="3061" x2="3447" y1="679.8906" y2="679.8906"/><ellipse cx="3071" cy="692.29" fill="#84BE84" rx="3" ry="3" style="stroke:#038048;stroke-width:1.0;"/><text fill="#000000" font-family="Arial" font-size="12" lengthAdjust="spacing" textLength="106" x="3080" y="695.1465">CheckoutSession()</text><ellipse cx="3071" cy="706.0889" fill="#84BE84" rx="3" ry="3" style="stroke:#038048;stroke-width:1.0;"/><text fill="#000000" font-family="Arial" font-size="12" lengthAdjust="spacing" textLength="362" x="3080" y="708.9453">CheckoutSession(command: CreateCheckoutSessionCommand)</text></g><!--class EBillingPeriod--><g id="elem_EBillingPeriod"><rect codeLine="117" fill="#FDFDFD" height="81.1953" id="EBillingPeriod" rx="2.5" ry="2.5" style="stroke:#181818;stroke-width:0.5;" width="110" x="2931" y="1310"/><ellipse cx="2946" cy="1328.7988" fill="#EB937F" rx="11" ry="11" style="stroke:#181818;stroke-width:1.0;"/><path d="M2944.8594,1329.5957 L2944.8594,1332.0957 L2949.1875,1332.0957 L2949.1875,1331.1738 Q2949.1875,1330.5645 2949.4219,1330.2988 Q2949.6719,1330.0332 2950.0469,1330.0332 Q2950.4219,1330.0332 2950.6563,1330.2988 Q2950.8906,1330.5645 2950.8906,1331.1738 L2950.8906,1333.7988 L2942.8906,1333.7988 Q2942.2656,1333.7988 2942,1333.5645 Q2941.75,1333.3301 2941.75,1332.9395 Q2941.75,1332.5645 2942.0156,1332.3301 Q2942.2813,1332.0957 2942.8906,1332.0957 L2943.1563,1332.0957 L2943.1563,1325.4395 L2942.8906,1325.4395 Q2942.2656,1325.4395 2942,1325.2051 Q2941.75,1324.9707 2941.75,1324.5801 Q2941.75,1324.2051 2942,1323.9707 Q2942.2656,1323.7363 2942.8906,1323.7363 L2950.5156,1323.7363 L2950.5156,1326.3301 Q2950.5156,1326.9395 2950.2813,1327.2051 Q2950.0625,1327.4551 2949.6719,1327.4551 Q2949.2969,1327.4551 2949.0625,1327.2051 Q2948.8281,1326.9395 2948.8281,1326.3301 L2948.8281,1325.4395 L2944.8594,1325.4395 L2944.8594,1327.8926 L2946.3438,1327.8926 Q2946.3438,1327.2363 2946.4688,1327.0488 Q2946.7344,1326.6426 2947.2031,1326.6426 Q2947.5781,1326.6426 2947.8125,1326.9082 Q2948.0469,1327.1582 2948.0469,1327.7676 L2948.0469,1329.7363 Q2948.0469,1330.2832 2947.9219,1330.4707 Q2947.6563,1330.8613 2947.2031,1330.8613 Q2946.7344,1330.8613 2946.4688,1330.4551 Q2946.3438,1330.2676 2946.3438,1329.5957 L2944.8594,1329.5957 Z " fill="#000000"/><text fill="#000000" font-family="Arial" font-size="12" font-style="italic" lengthAdjust="spacing" textLength="82" x="2958" y="1326.2559">&#171;ValueObject&#187;</text><text fill="#000000" font-family="Arial" font-size="12" lengthAdjust="spacing" textLength="78" x="2960" y="1340.0547">EBillingPeriod</text><line style="stroke:#181818;stroke-width:0.5;" x1="2932" x2="3040" y1="1347.5977" y2="1347.5977"/><text fill="#000000" font-family="Arial" font-size="12" lengthAdjust="spacing" textLength="41" x="2937" y="1362.8535">Monthly</text><text fill="#000000" font-family="Arial" font-size="12" lengthAdjust="spacing" textLength="38" x="2937" y="1376.6523">Annual</text><line style="stroke:#181818;stroke-width:0.5;" x1="2932" x2="3040" y1="1383.1953" y2="1383.1953"/></g><!--class ESubscriptionStatus--><g id="elem_ESubscriptionStatus"><rect codeLine="122" fill="#FDFDFD" height="108.793" id="ESubscriptionStatus" rx="2.5" ry="2.5" style="stroke:#181818;stroke-width:0.5;" width="144" x="2759" y="966.5"/><ellipse cx="2774" cy="985.2988" fill="#EB937F" rx="11" ry="11" style="stroke:#181818;stroke-width:1.0;"/><path d="M2772.8594,986.0957 L2772.8594,988.5957 L2777.1875,988.5957 L2777.1875,987.6738 Q2777.1875,987.0645 2777.4219,986.7988 Q2777.6719,986.5332 2778.0469,986.5332 Q2778.4219,986.5332 2778.6563,986.7988 Q2778.8906,987.0645 2778.8906,987.6738 L2778.8906,990.2988 L2770.8906,990.2988 Q2770.2656,990.2988 2770,990.0645 Q2769.75,989.8301 2769.75,989.4395 Q2769.75,989.0645 2770.0156,988.8301 Q2770.2813,988.5957 2770.8906,988.5957 L2771.1563,988.5957 L2771.1563,981.9395 L2770.8906,981.9395 Q2770.2656,981.9395 2770,981.7051 Q2769.75,981.4707 2769.75,981.0801 Q2769.75,980.7051 2770,980.4707 Q2770.2656,980.2363 2770.8906,980.2363 L2778.5156,980.2363 L2778.5156,982.8301 Q2778.5156,983.4395 2778.2813,983.7051 Q2778.0625,983.9551 2777.6719,983.9551 Q2777.2969,983.9551 2777.0625,983.7051 Q2776.8281,983.4395 2776.8281,982.8301 L2776.8281,981.9395 L2772.8594,981.9395 L2772.8594,984.3926 L2774.3438,984.3926 Q2774.3438,983.7363 2774.4688,983.5488 Q2774.7344,983.1426 2775.2031,983.1426 Q2775.5781,983.1426 2775.8125,983.4082 Q2776.0469,983.6582 2776.0469,984.2676 L2776.0469,986.2363 Q2776.0469,986.7832 2775.9219,986.9707 Q2775.6563,987.3613 2775.2031,987.3613 Q2774.7344,987.3613 2774.4688,986.9551 Q2774.3438,986.7676 2774.3438,986.0957 L2772.8594,986.0957 Z " fill="#000000"/><text fill="#000000" font-family="Arial" font-size="12" font-style="italic" lengthAdjust="spacing" textLength="82" x="2803" y="982.7559">&#171;ValueObject&#187;</text><text fill="#000000" font-family="Arial" font-size="12" lengthAdjust="spacing" textLength="112" x="2788" y="996.5547">ESubscriptionStatus</text><line style="stroke:#181818;stroke-width:0.5;" x1="2760" x2="2902" y1="1004.0977" y2="1004.0977"/><text fill="#000000" font-family="Arial" font-size="12" lengthAdjust="spacing" textLength="46" x="2765" y="1019.3535">Pending</text><text fill="#000000" font-family="Arial" font-size="12" lengthAdjust="spacing" textLength="31" x="2765" y="1033.1523">Active</text><text fill="#000000" font-family="Arial" font-size="12" lengthAdjust="spacing" textLength="56" x="2765" y="1046.9512">Cancelled</text><text fill="#000000" font-family="Arial" font-size="12" lengthAdjust="spacing" textLength="41" x="2765" y="1060.75">Expired</text><line style="stroke:#181818;stroke-width:0.5;" x1="2760" x2="2902" y1="1067.293" y2="1067.293"/></g><!--class ECheckoutSessionStatus--><g id="elem_ECheckoutSessionStatus"><rect codeLine="129" fill="#FDFDFD" height="94.9941" id="ECheckoutSessionStatus" rx="2.5" ry="2.5" style="stroke:#181818;stroke-width:0.5;" width="173" x="3260.5" y="973.5"/><ellipse cx="3275.5" cy="992.2988" fill="#EB937F" rx="11" ry="11" style="stroke:#181818;stroke-width:1.0;"/><path d="M3274.3594,993.0957 L3274.3594,995.5957 L3278.6875,995.5957 L3278.6875,994.6738 Q3278.6875,994.0645 3278.9219,993.7988 Q3279.1719,993.5332 3279.5469,993.5332 Q3279.9219,993.5332 3280.1563,993.7988 Q3280.3906,994.0645 3280.3906,994.6738 L3280.3906,997.2988 L3272.3906,997.2988 Q3271.7656,997.2988 3271.5,997.0645 Q3271.25,996.8301 3271.25,996.4395 Q3271.25,996.0645 3271.5156,995.8301 Q3271.7813,995.5957 3272.3906,995.5957 L3272.6563,995.5957 L3272.6563,988.9395 L3272.3906,988.9395 Q3271.7656,988.9395 3271.5,988.7051 Q3271.25,988.4707 3271.25,988.0801 Q3271.25,987.7051 3271.5,987.4707 Q3271.7656,987.2363 3272.3906,987.2363 L3280.0156,987.2363 L3280.0156,989.8301 Q3280.0156,990.4395 3279.7813,990.7051 Q3279.5625,990.9551 3279.1719,990.9551 Q3278.7969,990.9551 3278.5625,990.7051 Q3278.3281,990.4395 3278.3281,989.8301 L3278.3281,988.9395 L3274.3594,988.9395 L3274.3594,991.3926 L3275.8438,991.3926 Q3275.8438,990.7363 3275.9688,990.5488 Q3276.2344,990.1426 3276.7031,990.1426 Q3277.0781,990.1426 3277.3125,990.4082 Q3277.5469,990.6582 3277.5469,991.2676 L3277.5469,993.2363 Q3277.5469,993.7832 3277.4219,993.9707 Q3277.1563,994.3613 3276.7031,994.3613 Q3276.2344,994.3613 3275.9688,993.9551 Q3275.8438,993.7676 3275.8438,993.0957 L3274.3594,993.0957 Z " fill="#000000"/><text fill="#000000" font-family="Arial" font-size="12" font-style="italic" lengthAdjust="spacing" textLength="82" x="3319" y="989.7559">&#171;ValueObject&#187;</text><text fill="#000000" font-family="Arial" font-size="12" lengthAdjust="spacing" textLength="141" x="3289.5" y="1003.5547">ECheckoutSessionStatus</text><line style="stroke:#181818;stroke-width:0.5;" x1="3261.5" x2="3432.5" y1="1011.0977" y2="1011.0977"/><text fill="#000000" font-family="Arial" font-size="12" lengthAdjust="spacing" textLength="46" x="3266.5" y="1026.3535">Pending</text><text fill="#000000" font-family="Arial" font-size="12" lengthAdjust="spacing" textLength="61" x="3266.5" y="1040.1523">Completed</text><text fill="#000000" font-family="Arial" font-size="12" lengthAdjust="spacing" textLength="41" x="3266.5" y="1053.9512">Expired</text><line style="stroke:#181818;stroke-width:0.5;" x1="3261.5" x2="3432.5" y1="1060.4941" y2="1060.4941"/></g><!--class ESupportLevel--><g id="elem_ESupportLevel"><rect codeLine="135" fill="#FDFDFD" height="94.9941" id="ESupportLevel" rx="2.5" ry="2.5" style="stroke:#181818;stroke-width:0.5;" width="112" x="3121" y="1303"/><ellipse cx="3136" cy="1321.7988" fill="#EB937F" rx="11" ry="11" style="stroke:#181818;stroke-width:1.0;"/><path d="M3134.8594,1322.5957 L3134.8594,1325.0957 L3139.1875,1325.0957 L3139.1875,1324.1738 Q3139.1875,1323.5645 3139.4219,1323.2988 Q3139.6719,1323.0332 3140.0469,1323.0332 Q3140.4219,1323.0332 3140.6563,1323.2988 Q3140.8906,1323.5645 3140.8906,1324.1738 L3140.8906,1326.7988 L3132.8906,1326.7988 Q3132.2656,1326.7988 3132,1326.5645 Q3131.75,1326.3301 3131.75,1325.9395 Q3131.75,1325.5645 3132.0156,1325.3301 Q3132.2813,1325.0957 3132.8906,1325.0957 L3133.1563,1325.0957 L3133.1563,1318.4395 L3132.8906,1318.4395 Q3132.2656,1318.4395 3132,1318.2051 Q3131.75,1317.9707 3131.75,1317.5801 Q3131.75,1317.2051 3132,1316.9707 Q3132.2656,1316.7363 3132.8906,1316.7363 L3140.5156,1316.7363 L3140.5156,1319.3301 Q3140.5156,1319.9395 3140.2813,1320.2051 Q3140.0625,1320.4551 3139.6719,1320.4551 Q3139.2969,1320.4551 3139.0625,1320.2051 Q3138.8281,1319.9395 3138.8281,1319.3301 L3138.8281,1318.4395 L3134.8594,1318.4395 L3134.8594,1320.8926 L3136.3438,1320.8926 Q3136.3438,1320.2363 3136.4688,1320.0488 Q3136.7344,1319.6426 3137.2031,1319.6426 Q3137.5781,1319.6426 3137.8125,1319.9082 Q3138.0469,1320.1582 3138.0469,1320.7676 L3138.0469,1322.7363 Q3138.0469,1323.2832 3137.9219,1323.4707 Q3137.6563,1323.8613 3137.2031,1323.8613 Q3136.7344,1323.8613 3136.4688,1323.4551 Q3136.3438,1323.2676 3136.3438,1322.5957 L3134.8594,1322.5957 Z " fill="#000000"/><text fill="#000000" font-family="Arial" font-size="12" font-style="italic" lengthAdjust="spacing" textLength="82" x="3149" y="1319.2559">&#171;ValueObject&#187;</text><text fill="#000000" font-family="Arial" font-size="12" lengthAdjust="spacing" textLength="80" x="3150" y="1333.0547">ESupportLevel</text><line style="stroke:#181818;stroke-width:0.5;" x1="3122" x2="3232" y1="1340.5977" y2="1340.5977"/><text fill="#000000" font-family="Arial" font-size="12" lengthAdjust="spacing" textLength="31" x="3127" y="1355.8535">Basic</text><text fill="#000000" font-family="Arial" font-size="12" lengthAdjust="spacing" textLength="37" x="3127" y="1369.6523">Priority</text><text fill="#000000" font-family="Arial" font-size="12" lengthAdjust="spacing" textLength="56" x="3127" y="1383.4512">Dedicated</text><line style="stroke:#181818;stroke-width:0.5;" x1="3122" x2="3232" y1="1389.9941" y2="1389.9941"/></g><!--class ISubscriptionCommandService--><g id="elem_ISubscriptionCommandService"><rect codeLine="141" fill="#FDFDFD" height="89.3965" id="ISubscriptionCommandService" rx="2.5" ry="2.5" style="stroke:#181818;stroke-width:0.5;" width="551" x="2785.5" y="308"/><ellipse cx="2970.25" cy="324" fill="#B4A7E5" rx="11" ry="11" style="stroke:#181818;stroke-width:1.0;"/><path d="M2971.2031,320.6406 L2971.2031,327.2969 L2972.9219,327.2969 Q2973.5313,327.2969 2973.7969,327.5313 Q2974.0625,327.7656 2974.0625,328.1563 Q2974.0625,328.5313 2973.7969,328.7656 Q2973.5313,329 2972.9219,329 L2967.7813,329 Q2967.1719,329 2966.9063,328.7656 Q2966.6406,328.5313 2966.6406,328.1406 Q2966.6406,327.7656 2966.9063,327.5313 Q2967.1719,327.2969 2967.7813,327.2969 L2969.5,327.2969 L2969.5,320.6406 L2967.7813,320.6406 Q2967.1719,320.6406 2966.9063,320.4063 Q2966.6406,320.1719 2966.6406,319.7813 Q2966.6406,319.4063 2966.9063,319.1719 Q2967.1719,318.9375 2967.7813,318.9375 L2972.9219,318.9375 Q2973.5313,318.9375 2973.7969,319.1719 Q2974.0625,319.4063 2974.0625,319.7813 Q2974.0625,320.1719 2973.7969,320.4063 Q2973.5313,320.6406 2972.9219,320.6406 L2971.2031,320.6406 Z " fill="#000000"/><text fill="#000000" font-family="Arial" font-size="12" font-style="italic" lengthAdjust="spacing" textLength="173" x="2990.75" y="328.3564">ISubscriptionCommandService</text><line style="stroke:#181818;stroke-width:0.5;" x1="2786.5" x2="3335.5" y1="340" y2="340"/><line style="stroke:#181818;stroke-width:0.5;" x1="2786.5" x2="3335.5" y1="348" y2="348"/><ellipse cx="2796.5" cy="360.3994" fill="#84BE84" rx="3" ry="3" style="stroke:#038048;stroke-width:1.0;"/><text fill="#000000" font-family="Arial" font-size="12" lengthAdjust="spacing" textLength="515" x="2805.5" y="363.2559">Handle(command: CreateSubscriptionCommand, ct: CancellationToken): Task&lt;Subscription&gt;</text><ellipse cx="2796.5" cy="374.1982" fill="#84BE84" rx="3" ry="3" style="stroke:#038048;stroke-width:1.0;"/><text fill="#000000" font-family="Arial" font-size="12" lengthAdjust="spacing" textLength="525" x="2805.5" y="377.0547">Handle(command: UpdateSubscriptionCommand, ct: CancellationToken): Task&lt;Subscription?&gt;</text><ellipse cx="2796.5" cy="387.9971" fill="#84BE84" rx="3" ry="3" style="stroke:#038048;stroke-width:1.0;"/><text fill="#000000" font-family="Arial" font-size="12" lengthAdjust="spacing" textLength="524" x="2805.5" y="390.8535">Handle(command: CancelSubscriptionCommand, ct: CancellationToken): Task&lt;Subscription?&gt;</text></g><!--class ICheckoutSessionCommandService--><g id="elem_ICheckoutSessionCommandService"><rect codeLine="146" fill="#FDFDFD" height="61.7988" id="ICheckoutSessionCommandService" rx="2.5" ry="2.5" style="stroke:#181818;stroke-width:0.5;" width="599" x="3416.5" y="321.5"/><ellipse cx="3611.25" cy="337.5" fill="#B4A7E5" rx="11" ry="11" style="stroke:#181818;stroke-width:1.0;"/><path d="M3612.2031,334.1406 L3612.2031,340.7969 L3613.9219,340.7969 Q3614.5313,340.7969 3614.7969,341.0313 Q3615.0625,341.2656 3615.0625,341.6563 Q3615.0625,342.0313 3614.7969,342.2656 Q3614.5313,342.5 3613.9219,342.5 L3608.7813,342.5 Q3608.1719,342.5 3607.9063,342.2656 Q3607.6406,342.0313 3607.6406,341.6406 Q3607.6406,341.2656 3607.9063,341.0313 Q3608.1719,340.7969 3608.7813,340.7969 L3610.5,340.7969 L3610.5,334.1406 L3608.7813,334.1406 Q3608.1719,334.1406 3607.9063,333.9063 Q3607.6406,333.6719 3607.6406,333.2813 Q3607.6406,332.9063 3607.9063,332.6719 Q3608.1719,332.4375 3608.7813,332.4375 L3613.9219,332.4375 Q3614.5313,332.4375 3614.7969,332.6719 Q3615.0625,332.9063 3615.0625,333.2813 Q3615.0625,333.6719 3614.7969,333.9063 Q3614.5313,334.1406 3613.9219,334.1406 L3612.2031,334.1406 Z " fill="#000000"/><text fill="#000000" font-family="Arial" font-size="12" font-style="italic" lengthAdjust="spacing" textLength="201" x="3631.75" y="341.8564">ICheckoutSessionCommandService</text><line style="stroke:#181818;stroke-width:0.5;" x1="3417.5" x2="4014.5" y1="353.5" y2="353.5"/><line style="stroke:#181818;stroke-width:0.5;" x1="3417.5" x2="4014.5" y1="361.5" y2="361.5"/><ellipse cx="3427.5" cy="373.8994" fill="#84BE84" rx="3" ry="3" style="stroke:#038048;stroke-width:1.0;"/><text fill="#000000" font-family="Arial" font-size="12" lengthAdjust="spacing" textLength="573" x="3436.5" y="376.7559">Handle(command: CreateCheckoutSessionCommand, ct: CancellationToken): Task&lt;CheckoutSession&gt;</text></g><!--class IPlanQueryService--><g id="elem_IPlanQueryService"><rect codeLine="149" fill="#FDFDFD" height="75.5977" id="IPlanQueryService" rx="2.5" ry="2.5" style="stroke:#181818;stroke-width:0.5;" width="487" x="3528.5" y="595.5"/><ellipse cx="3716.25" cy="611.5" fill="#B4A7E5" rx="11" ry="11" style="stroke:#181818;stroke-width:1.0;"/><path d="M3717.2031,608.1406 L3717.2031,614.7969 L3718.9219,614.7969 Q3719.5313,614.7969 3719.7969,615.0313 Q3720.0625,615.2656 3720.0625,615.6563 Q3720.0625,616.0313 3719.7969,616.2656 Q3719.5313,616.5 3718.9219,616.5 L3713.7813,616.5 Q3713.1719,616.5 3712.9063,616.2656 Q3712.6406,616.0313 3712.6406,615.6406 Q3712.6406,615.2656 3712.9063,615.0313 Q3713.1719,614.7969 3713.7813,614.7969 L3715.5,614.7969 L3715.5,608.1406 L3713.7813,608.1406 Q3713.1719,608.1406 3712.9063,607.9063 Q3712.6406,607.6719 3712.6406,607.2813 Q3712.6406,606.9063 3712.9063,606.6719 Q3713.1719,606.4375 3713.7813,606.4375 L3718.9219,606.4375 Q3719.5313,606.4375 3719.7969,606.6719 Q3720.0625,606.9063 3720.0625,607.2813 Q3720.0625,607.6719 3719.7969,607.9063 Q3719.5313,608.1406 3718.9219,608.1406 L3717.2031,608.1406 Z " fill="#000000"/><text fill="#000000" font-family="Arial" font-size="12" font-style="italic" lengthAdjust="spacing" textLength="103" x="3736.75" y="615.8564">IPlanQueryService</text><line style="stroke:#181818;stroke-width:0.5;" x1="3529.5" x2="4014.5" y1="627.5" y2="627.5"/><line style="stroke:#181818;stroke-width:0.5;" x1="3529.5" x2="4014.5" y1="635.5" y2="635.5"/><ellipse cx="3539.5" cy="647.8994" fill="#84BE84" rx="3" ry="3" style="stroke:#038048;stroke-width:1.0;"/><text fill="#000000" font-family="Arial" font-size="12" lengthAdjust="spacing" textLength="461" x="3548.5" y="650.7559">Handle(query: GetAllPlansQuery, ct: CancellationToken): Task&lt;IEnumerable&lt;Plan&gt;&gt;</text><ellipse cx="3539.5" cy="661.6982" fill="#84BE84" rx="3" ry="3" style="stroke:#038048;stroke-width:1.0;"/><text fill="#000000" font-family="Arial" font-size="12" lengthAdjust="spacing" textLength="386" x="3548.5" y="664.5547">Handle(query: GetPlanByIdQuery, ct: CancellationToken): Task&lt;Plan?&gt;</text></g><!--class PlansController--><g id="elem_PlansController"><rect codeLine="156" fill="#FDFDFD" height="89.3965" id="PlansController" rx="2.5" ry="2.5" style="stroke:#181818;stroke-width:0.5;" width="261" x="2573.5" y="92"/><ellipse cx="2656.75" cy="108" fill="#ADD1B2" rx="11" ry="11" style="stroke:#181818;stroke-width:1.0;"/><path d="M2659.5156,103.875 Q2659.6719,103.6563 2659.8594,103.5469 Q2660.0469,103.4375 2660.2656,103.4375 Q2660.6406,103.4375 2660.875,103.7031 Q2661.1094,103.9531 2661.1094,104.5625 L2661.1094,106.0156 Q2661.1094,106.625 2660.875,106.8906 Q2660.6406,107.1563 2660.2656,107.1563 Q2659.9219,107.1563 2659.7188,106.9531 Q2659.5156,106.7656 2659.4063,106.25 Q2659.3594,105.8906 2659.1719,105.7031 Q2658.8438,105.3281 2658.2344,105.1094 Q2657.625,104.8906 2657,104.8906 Q2656.2344,104.8906 2655.5938,105.2188 Q2654.9688,105.5469 2654.4688,106.2969 Q2653.9844,107.0469 2653.9844,108.0781 L2653.9844,109.1719 Q2653.9844,110.4063 2654.875,111.2344 Q2655.7656,112.0469 2657.3594,112.0469 Q2658.2969,112.0469 2658.9531,111.7969 Q2659.3438,111.6406 2659.7656,111.2031 Q2660.0313,110.9375 2660.1719,110.8594 Q2660.3281,110.7813 2660.5313,110.7813 Q2660.8594,110.7813 2661.1094,111.0469 Q2661.375,111.2969 2661.375,111.6406 Q2661.375,111.9844 2661.0313,112.3906 Q2660.5313,112.9688 2659.7344,113.2969 Q2658.6563,113.75 2657.3594,113.75 Q2655.8438,113.75 2654.6406,113.125 Q2653.6563,112.625 2652.9688,111.5625 Q2652.2813,110.4844 2652.2813,109.2031 L2652.2813,108.0469 Q2652.2813,106.7188 2652.8906,105.5781 Q2653.5156,104.4219 2654.6094,103.8125 Q2655.7031,103.1875 2656.9375,103.1875 Q2657.6719,103.1875 2658.3125,103.3594 Q2658.9688,103.5156 2659.5156,103.875 Z " fill="#000000"/><text fill="#000000" font-family="Arial" font-size="12" lengthAdjust="spacing" textLength="86" x="2677.25" y="112.3564">PlansController</text><line style="stroke:#181818;stroke-width:0.5;" x1="2574.5" x2="2833.5" y1="124" y2="124"/><line style="stroke:#181818;stroke-width:0.5;" x1="2574.5" x2="2833.5" y1="132" y2="132"/><ellipse cx="2584.5" cy="144.3994" fill="#84BE84" rx="3" ry="3" style="stroke:#038048;stroke-width:1.0;"/><text fill="#000000" font-family="Arial" font-size="12" lengthAdjust="spacing" textLength="235" x="2593.5" y="147.2559">PlansController(qrySvc: IPlanQueryService)</text><ellipse cx="2584.5" cy="158.1982" fill="#84BE84" rx="3" ry="3" style="stroke:#038048;stroke-width:1.0;"/><text fill="#000000" font-family="Arial" font-size="12" lengthAdjust="spacing" textLength="168" x="2593.5" y="161.0547">GetAll(ct): Task&lt;IActionResult&gt;</text><ellipse cx="2584.5" cy="171.9971" fill="#84BE84" rx="3" ry="3" style="stroke:#038048;stroke-width:1.0;"/><text fill="#000000" font-family="Arial" font-size="12" lengthAdjust="spacing" textLength="213" x="2593.5" y="174.8535">GetById(id: int, ct): Task&lt;IActionResult&gt;</text></g><!--class SubscriptionsController--><g id="elem_SubscriptionsController"><rect codeLine="161" fill="#FDFDFD" height="103.1953" id="SubscriptionsController" rx="2.5" ry="2.5" style="stroke:#181818;stroke-width:0.5;" width="575" x="2914.5" y="85"/><ellipse cx="3132.75" cy="101" fill="#ADD1B2" rx="11" ry="11" style="stroke:#181818;stroke-width:1.0;"/><path d="M3135.5156,96.875 Q3135.6719,96.6563 3135.8594,96.5469 Q3136.0469,96.4375 3136.2656,96.4375 Q3136.6406,96.4375 3136.875,96.7031 Q3137.1094,96.9531 3137.1094,97.5625 L3137.1094,99.0156 Q3137.1094,99.625 3136.875,99.8906 Q3136.6406,100.1563 3136.2656,100.1563 Q3135.9219,100.1563 3135.7188,99.9531 Q3135.5156,99.7656 3135.4063,99.25 Q3135.3594,98.8906 3135.1719,98.7031 Q3134.8438,98.3281 3134.2344,98.1094 Q3133.625,97.8906 3133,97.8906 Q3132.2344,97.8906 3131.5938,98.2188 Q3130.9688,98.5469 3130.4688,99.2969 Q3129.9844,100.0469 3129.9844,101.0781 L3129.9844,102.1719 Q3129.9844,103.4063 3130.875,104.2344 Q3131.7656,105.0469 3133.3594,105.0469 Q3134.2969,105.0469 3134.9531,104.7969 Q3135.3438,104.6406 3135.7656,104.2031 Q3136.0313,103.9375 3136.1719,103.8594 Q3136.3281,103.7813 3136.5313,103.7813 Q3136.8594,103.7813 3137.1094,104.0469 Q3137.375,104.2969 3137.375,104.6406 Q3137.375,104.9844 3137.0313,105.3906 Q3136.5313,105.9688 3135.7344,106.2969 Q3134.6563,106.75 3133.3594,106.75 Q3131.8438,106.75 3130.6406,106.125 Q3129.6563,105.625 3128.9688,104.5625 Q3128.2813,103.4844 3128.2813,102.2031 L3128.2813,101.0469 Q3128.2813,99.7188 3128.8906,98.5781 Q3129.5156,97.4219 3130.6094,96.8125 Q3131.7031,96.1875 3132.9375,96.1875 Q3133.6719,96.1875 3134.3125,96.3594 Q3134.9688,96.5156 3135.5156,96.875 Z " fill="#000000"/><text fill="#000000" font-family="Arial" font-size="12" lengthAdjust="spacing" textLength="130" x="3153.25" y="105.3564">SubscriptionsController</text><line style="stroke:#181818;stroke-width:0.5;" x1="2915.5" x2="3488.5" y1="117" y2="117"/><line style="stroke:#181818;stroke-width:0.5;" x1="2915.5" x2="3488.5" y1="125" y2="125"/><ellipse cx="2925.5" cy="137.3994" fill="#84BE84" rx="3" ry="3" style="stroke:#038048;stroke-width:1.0;"/><text fill="#000000" font-family="Arial" font-size="12" lengthAdjust="spacing" textLength="549" x="2934.5" y="140.2559">SubscriptionsController(cmdSvc: ISubscriptionCommandService, qrySvc: ISubscriptionQueryService)</text><ellipse cx="2925.5" cy="151.1982" fill="#84BE84" rx="3" ry="3" style="stroke:#038048;stroke-width:1.0;"/><text fill="#000000" font-family="Arial" font-size="12" lengthAdjust="spacing" textLength="228" x="2934.5" y="154.0547">Create(resource, ct): Task&lt;IActionResult&gt;</text><ellipse cx="2925.5" cy="164.9971" fill="#84BE84" rx="3" ry="3" style="stroke:#038048;stroke-width:1.0;"/><text fill="#000000" font-family="Arial" font-size="12" lengthAdjust="spacing" textLength="168" x="2934.5" y="167.8535">GetAll(ct): Task&lt;IActionResult&gt;</text><ellipse cx="2925.5" cy="178.7959" fill="#84BE84" rx="3" ry="3" style="stroke:#038048;stroke-width:1.0;"/><text fill="#000000" font-family="Arial" font-size="12" lengthAdjust="spacing" textLength="266" x="2934.5" y="181.6523">Update(id: int, resource, ct): Task&lt;IActionResult&gt;</text></g><!--class CheckoutSessionsController--><g id="elem_CheckoutSessionsController"><rect codeLine="167" fill="#FDFDFD" height="89.3965" id="CheckoutSessionsController" rx="2.5" ry="2.5" style="stroke:#181818;stroke-width:0.5;" width="662" x="4163" y="92"/><ellipse cx="4410.25" cy="108" fill="#ADD1B2" rx="11" ry="11" style="stroke:#181818;stroke-width:1.0;"/><path d="M4413.0156,103.875 Q4413.1719,103.6563 4413.3594,103.5469 Q4413.5469,103.4375 4413.7656,103.4375 Q4414.1406,103.4375 4414.375,103.7031 Q4414.6094,103.9531 4414.6094,104.5625 L4414.6094,106.0156 Q4414.6094,106.625 4414.375,106.8906 Q4414.1406,107.1563 4413.7656,107.1563 Q4413.4219,107.1563 4413.2188,106.9531 Q4413.0156,106.7656 4412.9063,106.25 Q4412.8594,105.8906 4412.6719,105.7031 Q4412.3438,105.3281 4411.7344,105.1094 Q4411.125,104.8906 4410.5,104.8906 Q4409.7344,104.8906 4409.0938,105.2188 Q4408.4688,105.5469 4407.9688,106.2969 Q4407.4844,107.0469 4407.4844,108.0781 L4407.4844,109.1719 Q4407.4844,110.4063 4408.375,111.2344 Q4409.2656,112.0469 4410.8594,112.0469 Q4411.7969,112.0469 4412.4531,111.7969 Q4412.8438,111.6406 4413.2656,111.2031 Q4413.5313,110.9375 4413.6719,110.8594 Q4413.8281,110.7813 4414.0313,110.7813 Q4414.3594,110.7813 4414.6094,111.0469 Q4414.875,111.2969 4414.875,111.6406 Q4414.875,111.9844 4414.5313,112.3906 Q4414.0313,112.9688 4413.2344,113.2969 Q4412.1563,113.75 4410.8594,113.75 Q4409.3438,113.75 4408.1406,113.125 Q4407.1563,112.625 4406.4688,111.5625 Q4405.7813,110.4844 4405.7813,109.2031 L4405.7813,108.0469 Q4405.7813,106.7188 4406.3906,105.5781 Q4407.0156,104.4219 4408.1094,103.8125 Q4409.2031,103.1875 4410.4375,103.1875 Q4411.1719,103.1875 4411.8125,103.3594 Q4412.4688,103.5156 4413.0156,103.875 Z " fill="#000000"/><text fill="#000000" font-family="Arial" font-size="12" lengthAdjust="spacing" textLength="159" x="4430.75" y="112.3564">CheckoutSessionsController</text><line style="stroke:#181818;stroke-width:0.5;" x1="4164" x2="4824" y1="124" y2="124"/><line style="stroke:#181818;stroke-width:0.5;" x1="4164" x2="4824" y1="132" y2="132"/><ellipse cx="4174" cy="144.3994" fill="#84BE84" rx="3" ry="3" style="stroke:#038048;stroke-width:1.0;"/><text fill="#000000" font-family="Arial" font-size="12" lengthAdjust="spacing" textLength="636" x="4183" y="147.2559">CheckoutSessionsController(cmdSvc: ICheckoutSessionCommandService, qrySvc: ICheckoutSessionQueryService)</text><ellipse cx="4174" cy="158.1982" fill="#84BE84" rx="3" ry="3" style="stroke:#038048;stroke-width:1.0;"/><text fill="#000000" font-family="Arial" font-size="12" lengthAdjust="spacing" textLength="228" x="4183" y="161.0547">Create(resource, ct): Task&lt;IActionResult&gt;</text><ellipse cx="4174" cy="171.9971" fill="#84BE84" rx="3" ry="3" style="stroke:#038048;stroke-width:1.0;"/><text fill="#000000" font-family="Arial" font-size="12" lengthAdjust="spacing" textLength="349" x="4183" y="174.8535">GetByOrganizationId(organizationId: int, ct): Task&lt;IActionResult&gt;</text></g><!--class BillingController--><g id="elem_BillingController"><rect codeLine="172" fill="#FDFDFD" height="75.5977" id="BillingController" rx="2.5" ry="2.5" style="stroke:#181818;stroke-width:0.5;" width="513" x="3569.5" y="98.5"/><ellipse cx="3777.75" cy="114.5" fill="#ADD1B2" rx="11" ry="11" style="stroke:#181818;stroke-width:1.0;"/><path d="M3780.5156,110.375 Q3780.6719,110.1563 3780.8594,110.0469 Q3781.0469,109.9375 3781.2656,109.9375 Q3781.6406,109.9375 3781.875,110.2031 Q3782.1094,110.4531 3782.1094,111.0625 L3782.1094,112.5156 Q3782.1094,113.125 3781.875,113.3906 Q3781.6406,113.6563 3781.2656,113.6563 Q3780.9219,113.6563 3780.7188,113.4531 Q3780.5156,113.2656 3780.4063,112.75 Q3780.3594,112.3906 3780.1719,112.2031 Q3779.8438,111.8281 3779.2344,111.6094 Q3778.625,111.3906 3778,111.3906 Q3777.2344,111.3906 3776.5938,111.7188 Q3775.9688,112.0469 3775.4688,112.7969 Q3774.9844,113.5469 3774.9844,114.5781 L3774.9844,115.6719 Q3774.9844,116.9063 3775.875,117.7344 Q3776.7656,118.5469 3778.3594,118.5469 Q3779.2969,118.5469 3779.9531,118.2969 Q3780.3438,118.1406 3780.7656,117.7031 Q3781.0313,117.4375 3781.1719,117.3594 Q3781.3281,117.2813 3781.5313,117.2813 Q3781.8594,117.2813 3782.1094,117.5469 Q3782.375,117.7969 3782.375,118.1406 Q3782.375,118.4844 3782.0313,118.8906 Q3781.5313,119.4688 3780.7344,119.7969 Q3779.6563,120.25 3778.3594,120.25 Q3776.8438,120.25 3775.6406,119.625 Q3774.6563,119.125 3773.9688,118.0625 Q3773.2813,116.9844 3773.2813,115.7031 L3773.2813,114.5469 Q3773.2813,113.2188 3773.8906,112.0781 Q3774.5156,110.9219 3775.6094,110.3125 Q3776.7031,109.6875 3777.9375,109.6875 Q3778.6719,109.6875 3779.3125,109.8594 Q3779.9688,110.0156 3780.5156,110.375 Z " fill="#000000"/><text fill="#000000" font-family="Arial" font-size="12" lengthAdjust="spacing" textLength="88" x="3798.25" y="118.8564">BillingController</text><line style="stroke:#181818;stroke-width:0.5;" x1="3570.5" x2="4081.5" y1="130.5" y2="130.5"/><line style="stroke:#181818;stroke-width:0.5;" x1="3570.5" x2="4081.5" y1="138.5" y2="138.5"/><ellipse cx="3580.5" cy="150.8994" fill="#84BE84" rx="3" ry="3" style="stroke:#038048;stroke-width:1.0;"/><text fill="#000000" font-family="Arial" font-size="12" lengthAdjust="spacing" textLength="487" x="3589.5" y="153.7559">BillingController(cmdSvc: ISubscriptionCommandService, stripeSvc: IStripeBillingService)</text><ellipse cx="3580.5" cy="164.6982" fill="#84BE84" rx="3" ry="3" style="stroke:#038048;stroke-width:1.0;"/><text fill="#000000" font-family="Arial" font-size="12" lengthAdjust="spacing" textLength="228" x="3589.5" y="167.5547">HandleWebhook(ct): Task&lt;IActionResult&gt;</text></g><!--class Organization--><g id="elem_Organization"><rect fill="#FDFDFD" height="48" id="Organization" rx="2.5" ry="2.5" style="stroke:#181818;stroke-width:0.5;" width="101" x="2415.5" y="997"/><ellipse cx="2430.5" cy="1013" fill="#ADD1B2" rx="11" ry="11" style="stroke:#181818;stroke-width:1.0;"/><path d="M2433.2656,1008.875 Q2433.4219,1008.6563 2433.6094,1008.5469 Q2433.7969,1008.4375 2434.0156,1008.4375 Q2434.3906,1008.4375 2434.625,1008.7031 Q2434.8594,1008.9531 2434.8594,1009.5625 L2434.8594,1011.0156 Q2434.8594,1011.625 2434.625,1011.8906 Q2434.3906,1012.1563 2434.0156,1012.1563 Q2433.6719,1012.1563 2433.4688,1011.9531 Q2433.2656,1011.7656 2433.1563,1011.25 Q2433.1094,1010.8906 2432.9219,1010.7031 Q2432.5938,1010.3281 2431.9844,1010.1094 Q2431.375,1009.8906 2430.75,1009.8906 Q2429.9844,1009.8906 2429.3438,1010.2188 Q2428.7188,1010.5469 2428.2188,1011.2969 Q2427.7344,1012.0469 2427.7344,1013.0781 L2427.7344,1014.1719 Q2427.7344,1015.4063 2428.625,1016.2344 Q2429.5156,1017.0469 2431.1094,1017.0469 Q2432.0469,1017.0469 2432.7031,1016.7969 Q2433.0938,1016.6406 2433.5156,1016.2031 Q2433.7813,1015.9375 2433.9219,1015.8594 Q2434.0781,1015.7813 2434.2813,1015.7813 Q2434.6094,1015.7813 2434.8594,1016.0469 Q2435.125,1016.2969 2435.125,1016.6406 Q2435.125,1016.9844 2434.7813,1017.3906 Q2434.2813,1017.9688 2433.4844,1018.2969 Q2432.4063,1018.75 2431.1094,1018.75 Q2429.5938,1018.75 2428.3906,1018.125 Q2427.4063,1017.625 2426.7188,1016.5625 Q2426.0313,1015.4844 2426.0313,1014.2031 L2426.0313,1013.0469 Q2426.0313,1011.7188 2426.6406,1010.5781 Q2427.2656,1009.4219 2428.3594,1008.8125 Q2429.4531,1008.1875 2430.6875,1008.1875 Q2431.4219,1008.1875 2432.0625,1008.3594 Q2432.7188,1008.5156 2433.2656,1008.875 Z " fill="#000000"/><text fill="#000000" font-family="Arial" font-size="12" lengthAdjust="spacing" textLength="69" x="2444.5" y="1017.3564">Organization</text><line style="stroke:#181818;stroke-width:0.5;" x1="2416.5" x2="2515.5" y1="1029" y2="1029"/><line style="stroke:#181818;stroke-width:0.5;" x1="2416.5" x2="2515.5" y1="1037" y2="1037"/></g><!--link BaseRepository to AppDbContext--><g id="link_BaseRepository_AppDbContext"><path codeLine="62" d="M1021.75,1086.89 C1021.75,1154.5 1021.75,1251.36 1021.75,1306.47 " fill="none" id="BaseRepository-to-AppDbContext" style="stroke:#555555;stroke-width:1.5;stroke-dasharray:7.0,7.0;"/><polygon fill="#555555" points="1021.75,1312.47,1025.75,1303.47,1021.75,1307.47,1017.75,1303.47,1021.75,1312.47" style="stroke:#555555;stroke-width:1.5;"/><text fill="#000000" font-family="Arial" font-size="13" lengthAdjust="spacing" textLength="70" x="950.75" y="1196.8738">dependency</text></g><!--link UnitOfWork to AppDbContext--><g id="link_UnitOfWork_AppDbContext"><path codeLine="63" d="M786.5,1059.12 C786.5,1122.56 786.5,1243.09 786.5,1306.47 " fill="none" id="UnitOfWork-to-AppDbContext" style="stroke:#555555;stroke-width:1.5;stroke-dasharray:7.0,7.0;"/><polygon fill="#555555" points="786.5,1312.47,790.5,1303.47,786.5,1307.47,782.5,1303.47,786.5,1312.47" style="stroke:#555555;stroke-width:1.5;"/><text fill="#000000" font-family="Arial" font-size="13" lengthAdjust="spacing" textLength="70" x="715.5" y="1182.9838">dependency</text></g><!--link PlansController to IPlanQueryService--><g id="link_PlansController_IPlanQueryService"><path codeLine="178" d="M2681,181.06 C2681,269.13 2681,457 2681,457 C2681,457 3772,457 3772,457 C3772,457 3772,537.29 3772,589.2 " fill="none" id="PlansController-to-IPlanQueryService" style="stroke:#555555;stroke-width:1.5;stroke-dasharray:7.0,7.0;"/><polygon fill="#555555" points="3772,595.2,3776,586.2,3772,590.2,3768,586.2,3772,595.2" style="stroke:#555555;stroke-width:1.5;"/><text fill="#000000" font-family="Arial" font-size="13" lengthAdjust="spacing" textLength="70" x="3086.63" y="454.1938">dependency</text></g><!--link SubscriptionsController to ISubscriptionCommandService--><g id="link_SubscriptionsController_ISubscriptionCommandService"><path codeLine="179" d="M3125.5,188.24 C3125.5,224.68 3125.5,266.98 3125.5,301.77 " fill="none" id="SubscriptionsController-to-ISubscriptionCommandService" style="stroke:#555555;stroke-width:1.5;stroke-dasharray:7.0,7.0;"/><polygon fill="#555555" points="3125.5,307.77,3129.5,298.77,3125.5,302.77,3121.5,298.77,3125.5,307.77" style="stroke:#555555;stroke-width:1.5;"/><text fill="#000000" font-family="Arial" font-size="13" lengthAdjust="spacing" textLength="70" x="3054.5" y="245.1938">dependency</text></g><!--link CheckoutSessionsController to ICheckoutSessionCommandService--><g id="link_CheckoutSessionsController_ICheckoutSessionCommandService"><path codeLine="180" d="M4494,181.1 C4494,244.47 4494,353 4494,353 C4494,353 4240.85,353 4021.68,353 " fill="none" id="CheckoutSessionsController-to-ICheckoutSessionCommandService" style="stroke:#555555;stroke-width:1.5;stroke-dasharray:7.0,7.0;"/><polygon fill="#555555" points="4015.68,353,4024.68,357,4020.68,353,4024.68,349,4015.68,353" style="stroke:#555555;stroke-width:1.5;"/><text fill="#000000" font-family="Arial" font-size="13" lengthAdjust="spacing" textLength="70" x="4269.79" y="350.1938">dependency</text></g><!--link BillingController to ISubscriptionCommandService--><g id="link_BillingController_ISubscriptionCommandService"><path codeLine="181" d="M3792.5,174.79 C3792.5,227.24 3792.5,315 3792.5,315 C3792.5,315 3549.86,315 3342.51,315 " fill="none" id="BillingController-to-ISubscriptionCommandService" style="stroke:#555555;stroke-width:1.5;stroke-dasharray:7.0,7.0;"/><polygon fill="#555555" points="3336.51,315,3345.51,319,3341.51,315,3345.51,311,3336.51,315" style="stroke:#555555;stroke-width:1.5;"/><text fill="#000000" font-family="Arial" font-size="13" lengthAdjust="spacing" textLength="70" x="3563.61" y="312.1938">dependency</text></g><!--link Subscription to Plan--><g id="link_Subscription_Plan"><path codeLine="182" d="M2979.57,733 C3004.68,733 3021.75,733 3021.75,733 C3021.75,733 3021.75,794.3 3021.75,863.83 " fill="none" id="Subscription-to-Plan" style="stroke:#555555;stroke-width:1.5;"/><polygon fill="#555555" points="3021.75,869.83,3025.75,860.83,3021.75,864.83,3017.75,860.83,3021.75,869.83" style="stroke:#555555;stroke-width:1.5;"/><text fill="#000000" font-family="Arial" font-size="13" lengthAdjust="spacing" textLength="126" x="2894.75" y="777.5238">references (by PlanId)</text></g><!--link Plan to EBillingPeriod--><g id="link_Plan_EBillingPeriod"><path codeLine="185" d="M3012.25,1172.25 C3012.25,1222.83 3012.25,1269.13 3012.25,1303.88 " fill="none" id="Plan-to-EBillingPeriod" style="stroke:#555555;stroke-width:1.5;stroke-dasharray:7.0,7.0;"/><polygon fill="#555555" points="3012.25,1309.88,3016.25,1300.88,3012.25,1304.88,3008.25,1300.88,3012.25,1309.88" style="stroke:#555555;stroke-width:1.5;"/><polygon fill="#000000" points="2974.25,1238.5444,2977.1889,1229.4993,2971.3111,1229.4993,2974.25,1238.5444" style="stroke:#000000;stroke-width:1.0;"/><text fill="#000000" font-family="Arial" font-size="13" lengthAdjust="spacing" textLength="28" x="2983.25" y="1238.2638">uses</text></g><!--link Plan to ESupportLevel--><g id="link_Plan_ESupportLevel"><path codeLine="186" d="M3150.75,1172.25 C3150.75,1219.45 3150.75,1262.14 3150.75,1296.68 " fill="none" id="Plan-to-ESupportLevel" style="stroke:#555555;stroke-width:1.5;stroke-dasharray:7.0,7.0;"/><polygon fill="#555555" points="3150.75,1302.68,3154.75,1293.68,3150.75,1297.68,3146.75,1293.68,3150.75,1302.68" style="stroke:#555555;stroke-width:1.5;"/><polygon fill="#000000" points="3112.75,1234.9344,3115.6889,1225.8893,3109.8111,1225.8893,3112.75,1234.9344" style="stroke:#000000;stroke-width:1.0;"/><text fill="#000000" font-family="Arial" font-size="13" lengthAdjust="spacing" textLength="28" x="3121.75" y="1234.6538">uses</text></g><!--link Subscription to ESubscriptionStatus--><g id="link_Subscription_ESubscriptionStatus"><path codeLine="187" d="M2831,750.03 C2831,821.8 2831,904.47 2831,960.4 " fill="none" id="Subscription-to-ESubscriptionStatus" style="stroke:#555555;stroke-width:1.5;stroke-dasharray:7.0,7.0;"/><polygon fill="#555555" points="2831,966.4,2835,957.4,2831,961.4,2827,957.4,2831,966.4" style="stroke:#555555;stroke-width:1.5;"/><polygon fill="#000000" points="2793,855.6844,2795.9389,846.6393,2790.0611,846.6393,2793,855.6844" style="stroke:#000000;stroke-width:1.0;"/><text fill="#000000" font-family="Arial" font-size="13" lengthAdjust="spacing" textLength="28" x="2802" y="855.4038">uses</text></g><!--link CheckoutSession to ECheckoutSessionStatus--><g id="link_CheckoutSession_ECheckoutSessionStatus"><path codeLine="188" d="M3347,715.68 C3347,793.99 3347,903.19 3347,967.37 " fill="none" id="CheckoutSession-to-ECheckoutSessionStatus" style="stroke:#555555;stroke-width:1.5;stroke-dasharray:7.0,7.0;"/><polygon fill="#555555" points="3347,973.37,3351,964.37,3347,968.37,3343,964.37,3347,973.37" style="stroke:#555555;stroke-width:1.5;"/><polygon fill="#000000" points="3309,841.9944,3311.9389,832.9493,3306.0611,832.9493,3309,841.9944" style="stroke:#000000;stroke-width:1.0;"/><text fill="#000000" font-family="Arial" font-size="13" lengthAdjust="spacing" textLength="28" x="3318" y="841.7138">uses</text></g><!--link ISubscriptionCommandService to Subscription--><g id="link_ISubscriptionCommandService_Subscription"><path codeLine="189" d="M2882.5,397.03 C2882.5,429.29 2882.5,468.49 2882.5,510.75 " fill="none" id="ISubscriptionCommandService-to-Subscription" style="stroke:#555555;stroke-width:1.5;stroke-dasharray:7.0,7.0;"/><polygon fill="#555555" points="2882.5,516.75,2886.5,507.75,2882.5,511.75,2878.5,507.75,2882.5,516.75" style="stroke:#555555;stroke-width:1.5;"/><polygon fill="#000000" points="2844.5,454.3644,2847.4389,445.3193,2841.5611,445.3193,2844.5,454.3644" style="stroke:#000000;stroke-width:1.0;"/><text fill="#000000" font-family="Arial" font-size="13" lengthAdjust="spacing" textLength="28" x="2853.5" y="454.0838">uses</text></g><!--link ICheckoutSessionCommandService to CheckoutSession--><g id="link_ICheckoutSessionCommandService_CheckoutSession"><path codeLine="190" d="M3432.25,383.65 C3432.25,423.8 3432.25,489.14 3432.25,545.33 " fill="none" id="ICheckoutSessionCommandService-to-CheckoutSession" style="stroke:#555555;stroke-width:1.5;stroke-dasharray:7.0,7.0;"/><polygon fill="#555555" points="3432.25,551.33,3436.25,542.33,3432.25,546.33,3428.25,542.33,3432.25,551.33" style="stroke:#555555;stroke-width:1.5;"/><polygon fill="#000000" points="3394.25,464.9644,3397.1889,455.9193,3391.3111,455.9193,3394.25,464.9644" style="stroke:#000000;stroke-width:1.0;"/><text fill="#000000" font-family="Arial" font-size="13" lengthAdjust="spacing" textLength="28" x="3403.25" y="464.6838">uses</text></g><!--link IPlanQueryService to Plan--><g id="link_IPlanQueryService_Plan"><path codeLine="191" d="M3772,671.51 C3772,749.85 3772,922 3772,922 C3772,922 3377.65,922 3186.86,922 " fill="none" id="IPlanQueryService-to-Plan" style="stroke:#555555;stroke-width:1.5;stroke-dasharray:7.0,7.0;"/><polygon fill="#555555" points="3180.86,922,3189.86,926,3185.86,922,3189.86,918,3180.86,922" style="stroke:#555555;stroke-width:1.5;"/><polygon fill="#000000" points="3559.0735,916.4421,3568.5453,915.5842,3566.2321,910.1807,3559.0735,916.4421" style="stroke:#000000;stroke-width:1.0;"/><text fill="#000000" font-family="Arial" font-size="13" lengthAdjust="spacing" textLength="28" x="3572.67" y="919.1938">uses</text></g><!--link Plan to IAuditableEntity--><g id="link_Plan_IAuditableEntity"><path codeLine="196" d="M2983.15,1130 C2772.47,1130 2298.33,1130 2298.33,1130 C2298.33,1130 2298.33,1228.09 2298.33,1291.8 " fill="none" id="Plan-to-IAuditableEntity" style="stroke:#555555;stroke-width:1.5;stroke-dasharray:7.0,7.0;"/><polygon fill="none" points="2298.33,1309.8,2304.33,1291.8,2292.33,1291.8,2298.33,1309.8" style="stroke:#555555;stroke-width:1.5;"/><text fill="#000000" font-family="Arial" font-size="13" lengthAdjust="spacing" textLength="67" x="2482.84" y="1127.1938">implements</text></g><!--link Subscription to IAuditableEntity--><g id="link_Subscription_IAuditableEntity"><path codeLine="197" d="M2698.17,750.38 C2698.17,953.69 2698.17,1351 2698.17,1351 C2698.17,1351 2503.5,1351 2377.23,1351 " fill="none" id="Subscription-to-IAuditableEntity" style="stroke:#555555;stroke-width:1.5;stroke-dasharray:7.0,7.0;"/><polygon fill="none" points="2359.23,1351,2377.23,1357,2377.23,1345,2359.23,1351" style="stroke:#555555;stroke-width:1.5;"/><text fill="#000000" font-family="Arial" font-size="13" lengthAdjust="spacing" textLength="67" x="2630.17" y="1217.3538">implements</text></g><!--link CheckoutSession to IAuditableEntity--><g id="link_CheckoutSession_IAuditableEntity"><path codeLine="198" d="M3090.12,715.87 C3090.12,753.58 3090.12,790 3090.12,790 C3090.12,790 2237.67,790 2237.67,790 C2237.67,790 2237.67,1162.76 2237.67,1291.74 " fill="none" id="CheckoutSession-to-IAuditableEntity" style="stroke:#555555;stroke-width:1.5;stroke-dasharray:7.0,7.0;"/><polygon fill="none" points="2237.67,1309.74,2243.67,1291.74,2231.67,1291.74,2237.67,1309.74" style="stroke:#555555;stroke-width:1.5;"/><text fill="#000000" font-family="Arial" font-size="13" lengthAdjust="spacing" textLength="67" x="2373.09" y="787.1938">implements</text></g><!--link Subscription to Organization--><g id="link_Subscription_Organization"><path codeLine="202" d="M2637.33,750.03 C2637.33,864.14 2637.33,1021 2637.33,1021 C2637.33,1021 2573.45,1021 2522.94,1021 " fill="none" id="Subscription-to-Organization" style="stroke:#555555;stroke-width:1.5;"/><polygon fill="#555555" points="2516.94,1021,2525.94,1025,2521.94,1021,2525.94,1017,2516.94,1021" style="stroke:#555555;stroke-width:1.5;"/><polygon fill="#000000" points="2565.3854,942.7907,2571.6108,935.6007,2566.1956,933.3147,2565.3854,942.7907" style="stroke:#000000;stroke-width:1.0;"/><text fill="#000000" font-family="Arial" font-size="13" lengthAdjust="spacing" textLength="60" x="2576.33" y="942.9038">references</text></g><!--link CheckoutSession to Organization--><g id="link_CheckoutSession_Organization"><path codeLine="203" d="M3120.25,715.7 C3120.25,769.54 3120.25,830 3120.25,830 C3120.25,830 2466,830 2466,830 C2466,830 2466,939.41 2466,990.81 " fill="none" id="CheckoutSession-to-Organization" style="stroke:#555555;stroke-width:1.5;"/><polygon fill="#555555" points="2466,996.81,2470,987.81,2466,991.81,2462,987.81,2466,996.81" style="stroke:#555555;stroke-width:1.5;"/><polygon fill="#000000" points="2692.2609,824.4125,2701.738,823.6156,2699.4596,818.1972,2692.2609,824.4125" style="stroke:#000000;stroke-width:1.0;"/><text fill="#000000" font-family="Arial" font-size="13" lengthAdjust="spacing" textLength="60" x="2705.87" y="827.1938">references</text></g><!--link CheckoutSession to Plan--><g id="link_CheckoutSession_Plan"><path codeLine="204" d="M3150.38,715.68 C3150.38,760.44 3150.38,811.26 3150.38,863.72 " fill="none" id="CheckoutSession-to-Plan" style="stroke:#555555;stroke-width:1.5;"/><polygon fill="#555555" points="3150.38,869.72,3154.38,860.72,3150.38,864.72,3146.38,860.72,3150.38,869.72" style="stroke:#555555;stroke-width:1.5;"/><polygon fill="#000000" points="3080.38,790.1744,3083.3189,781.1293,3077.4411,781.1293,3080.38,790.1744" style="stroke:#000000;stroke-width:1.0;"/><text fill="#000000" font-family="Arial" font-size="13" lengthAdjust="spacing" textLength="60" x="3089.38" y="789.8938">references</text></g><!--link BaseRepository to IBaseRepository--><g id="link_BaseRepository_IBaseRepository"><path codeLine="208" d="M1207.75,1086.76 C1207.75,1170.09 1207.75,1303 1207.75,1303 C1207.75,1303 1498.5,1303 1706.85,1303 " fill="none" id="BaseRepository-to-IBaseRepository" style="stroke:#555555;stroke-width:1.5;stroke-dasharray:7.0,7.0;"/><polygon fill="none" points="1724.85,1303,1706.85,1297,1706.85,1309,1724.85,1303" style="stroke:#555555;stroke-width:1.5;"/><text fill="#000000" font-family="Arial" font-size="13" lengthAdjust="spacing" textLength="67" x="1290.18" y="1300.1938">implements</text></g><!--link UnitOfWork to IUnitOfWork--><g id="link_UnitOfWork_IUnitOfWork"><path codeLine="209" d="M825.5,1059.21 C825.5,1120.01 825.5,1232 825.5,1232 C825.5,1232 1509,1232 1509,1232 C1509,1232 1509,1266.26 1509,1301.37 " fill="none" id="UnitOfWork-to-IUnitOfWork" style="stroke:#555555;stroke-width:1.5;stroke-dasharray:7.0,7.0;"/><polygon fill="none" points="1509,1319.37,1515,1301.37,1503,1301.37,1509,1319.37" style="stroke:#555555;stroke-width:1.5;"/><text fill="#000000" font-family="Arial" font-size="13" lengthAdjust="spacing" textLength="67" x="1056.54" y="1229.1938">implements</text></g><!--SRC=[xLbRRzis57xFho0wO7Mmf6YB5kYCp85yMzorSMOvw_P8IxJDMIPLalBgRldlEnHbMn8fIsvQx6NEGnBoEuU7txdma9Ohoc8iy1f5b16rZGdYGYtvcTnFn3XOuGNnrJOYI910ORQ8I0x0U4WaYT6Rvxb1WTbA3xvucHyDoHmdaHfofcxncY1FK1pbveC8IwbdVVgPe1UlobEUKeBE4aKEc9Sv31Q2_pLTqc35Y9JenRFNvSaUZxX0txrEFsNjNTZfGl24XHbi6CxXn-R21ZuVlXg-SG2v28d8GA-y7vyFNfwT8VWyHJzzwIUJ7zs-7VIcWpxoRxm9_EgExs_xyBitlfqEVfz-bLMoNQ0d_X8B4gAktZByxW7xv9DwWh14sTJVgK11gC_NcB8So0paeFf3GPMOuu2WKHTBCY4nbrHniRsQ3fYYQjif2UZF3ruOUdBBWXP9CMsKWIzGeDgeXrb0eWWhojcKhmWx1m2MArlFaBAmknrbocZOrlOSLxApwxfZgxkFGwn8sIWGt70Qsl09MVDDS_WxAfKnzAXzem5BraJWMKJs71PjVJYhSi4zesey_y35oiLwZw_ZY2XIRqJ3vRmaf4eRQin4LrSxUvtB2mBiXXwisuS_fdHDnlEv9EgwoXErs8SpXv7x21wnkS1IYIHGYI2vI4udIYQc9GHvSToVPVdX3DpSV8l7cZS99kw6ncRaAW_hdDjgVBmXlILKOY8RH0GmVZG0ZEadf5yHsWgCeUt2xi__pzflchN6QSSJzZ3Rs4TV9yUpP2YczqWdVa1YY1cNiH3Jb2qAKKqsm3BaBxw0paD2vw2T3Cl_XgE46DfsEi6uIGf9exrJd-N564RFddMAoTk6RYKcSDwnOBiNoj5TBm2BbOxHP2O3GLDZqVUeIoFekXRkOpK7xVRgZjTavZnRZHVk8ioWidgBXI0B27HtSTMebYCUHYQxN84IaZQ2wWXRi6TrUrSzUoTeG3HV0Lr30sZhJeJGD5PhoBYx8u9oi71G-D-6lyUV-Zm0HyjqDzTEX9_4H6oetA6Se2d1woFJEZGyEASg8U3ZPGIfi87CoAg_4wYZ_WPA1yHc7s-hK61o30txEqYK25Z8_-igN05VhtM40cCppXsG8PomSDJzGlIA8rswhem776Lpm7HgX-zvc4Ia7jwdiYdUMKmAoLCRpdcqAwmByveMp80Kqs7avtfcwfJ468i5PlHpwjrAa4wtoaaVGYEHgJyFbfX19rWuEnr7MfbAth25yi4pSO4CRR3nLoMybq38mZbs56eEtBJYn0SUAazGBr1qeqzeUSoY2oIhBAZKR0XfkUQTCTXRac354-N3zR9H69O4N95OXfI2iJJztyPZoPZga4pzP407FzG0xqNaH9OyGQ1FAjLxy4FQ4OndVv90EJsHrLrht6CiAPr0plNiJ6omw1tKMjU-qu0crl0-FQsPmQUO2XBMc-bqq2CitNM3Zp0fVoOri0JQCXhOze6R1RIGraIVX3J0whWXkHkdexRx-j27EKVwti1qH1gS3pMNZxn4ftuPKnyVjynrWtMCeg-wpaCLyUuwTZBtRZKrzfQ46bgiI-Al2H7RUYC_QbWR_KoK5qLQJgQ2DMRbhtnQgDDfi806whjlamKqzhfpqeD7jdkvkrSSHYhl5bBVMmI7mYMgBXOvIEiZ4Be9sZQ_ZZFD4DfAxto6CbqwTpUzZbD0avD_4sWW-b3JRjRii0BQ2jQXsMbrqRb0Uphoe1fQJ2gqu4hC4w6Ld4JGQOncZoDxGazSzA6-YwfXjnfz8FXeSSbnNC9zKvgxssBZrU9s7_O84hC6w3Xt5gXPJ6Pzji6bVsUAghaoTUe3cIqvNxLEt5Mk59KBYdvbiIknysscAcDJ5KVEVQUo8p6QwZj-d3bLsXxx8iiAz-3Bouvvtsb3Oiw9VZI1IjsQRP5fwCyFp3v5NgBuvO8mE7AWOJhefY2YE8f5-jo6vX6766KB4sXQNMQMl43Q2m2_G9CiAUHvmNNfbahDUHibMal70IpqXXQkiDCCRtNXbbJvZfOAkljYI_QOCxIUWaMszF6Wq0hAnjawh5ZNOfcBC-nPBcUUejvaxFkNwTT_tkGFD1cyywQZyQr_CxhpqN0yGTERaO-wlRCSzVzqxEzUe23fNdyD8M2kT2Nw6ydOvDUAxVPHYau3lOInJ4WGq-789OrrY6C9A5XYo0MX2uRqczLvTPRaYt4nMwf3vp5oTbPszbljSQ6_I0VxATFVkn_sbi_3C8cZz6vZgBNUgpMpfK7B7uNtQYsG6oY0_mK0]--></g></svg>