<svg xmlns="http://www.w3.org/2000/svg" xmlns:xlink="http://www.w3.org/1999/xlink" version="1.1" style="background: #ffffff" viewBox="0 0 5000 1365"><style id="v-3" type="text/css">        .joint-element .scalable * {            vector-effect: non-scaling-stroke;        }    </style><defs joint-selector="defs"><marker id="v-21252848929" orient="auto" overflow="visible" markerUnits="userSpaceOnUse"><path id="v-104" stroke="#444444" fill="#444444" transform="rotate(180)" d="M 20 -10 0 0 20 10 Z"></path></marker></defs><g joint-selector="layers"  transform="matrix(1,0,0,1,0,0)"><g  style="pointer-events: none;"></g><g ></g><g  style="user-select: none;"><!--z-index:0--><!--z-index:1--><!--z-index:2--><!--z-index:3--><!--z-index:4--><!--z-index:5--><!--z-index:6--><!--z-index:7--><!--z-index:8--><!--z-index:9--><!--z-index:10--><!--z-index:11--><!--z-index:12--><!--z-index:13--><!--z-index:14--><!--z-index:15--><!--z-index:16--><!--z-index:17--><!--z-index:18--><!--z-index:19--><!--z-index:20--><g   id="j_159"  transform="translate(20,1321)"><g id="v-1669"><text  id="v-1670" font-size="24px" xml:space="preserve" y="0.8em" font-weight="normal" text-anchor="start" fill="#444444" pointer-events="none" display="block" font-family="Tahoma, Verdana, Helvetica, Arial"><tspan dy="0" >martes, 7 de julio de 2026, 4:02 p. m. hora estándar de Perú</tspan></text></g></g><!--z-index:21--><g   id="j_158"  transform="translate(20,1287)"><g id="v-1667"><text  id="v-1668" font-size="24px" xml:space="preserve" y="0.8em" font-weight="normal" text-anchor="start" fill="#444444" pointer-events="none" display="block" font-family="Tahoma, Verdana, Helvetica, Arial"><tspan dy="0" >Component Diagram: Audit &amp; Compliance Bounded Context</tspan></text></g></g><!--z-index:22--><g   id="j_157"  transform="translate(20,1241)"><g id="v-1665"><text  id="v-1666" font-size="36px" xml:space="preserve" y="0.8em" font-weight="normal" text-anchor="start" fill="#444444" pointer-events="none" display="block" font-family="Tahoma, Verdana, Helvetica, Arial"><tspan dy="0" >Component View: CortiSense WebApp - Audit &amp; Compliance</tspan></text></g></g><!--z-index:23--><g   id="j_160"  transform="translate(4350,556)" style=""><g  id="v-1674" style="opacity: 1;"><rect  id="v-1675" rx="20" ry="20" stroke-width="2" pointer-events="visiblePainted" fill="#2ba356" stroke="#27934d" stroke-dasharray="" width="450" height="300" style="fill: rgb(43, 163, 86); stroke: rgb(39, 147, 77);"></rect><text  id="v-1676" font-size="33.599999999999994px" xml:space="preserve" y="86.9" font-weight="bold" text-anchor="middle" pointer-events="visible" font-family="Tahoma, Verdana, Helvetica, Arial" fill="#ffffff" dominant-baseline="hanging" transform="matrix(1,0,0,1,225,0)" style="fill: rgb(255, 255, 255);"><tspan dy="0" >REST API</tspan></text><text  id="v-1677" font-size="16.799999999999997px" xml:space="preserve" y="128.5" text-anchor="middle" font-family="Tahoma, Verdana, Helvetica, Arial" fill="#ffffff" dominant-baseline="hanging" transform="matrix(1,0,0,1,225,0)" style="display: block; fill: rgb(255, 255, 255);"><tspan dy="0" >[Software System]</tspan></text><text  id="v-1678" font-size="24px" xml:space="preserve" y="160.3" text-anchor="middle" font-family="Tahoma, Verdana, Helvetica, Arial" fill="#ffffff" dominant-baseline="hanging" transform="matrix(1,0,0,1,225,0)" style="display: block; fill: rgb(255, 255, 255);"><tspan dy="0" >Central REST API containing all</tspan><tspan dy="1.2em" x="0" >bounded context logic.</tspan></text><g  id="v-1679" color="#ffffff" transform="matrix(1,0,0,1,222.5,268)" style="fill: rgb(255, 255, 255);" display="none"><g ></g><g ></g><g ></g><g ></g></g><image  id="v-1680"></image></g></g><!--z-index:24--><g   id="j_162"  transform="translate(200,143)" style="; opacity: 1;"><g id="v-1696"><rect  id="v-1697" width="3810" height="965" rx="0" ry="0" stroke-width="2" pointer-events="none" stroke="#444444" fill="#ffffff" opacity="1" stroke-dasharray=""></rect><text  id="v-1698" font-size="33.599999999999994px" xml:space="preserve" y="926" font-weight="bold" text-anchor="start" pointer-events="visible" font-family="Tahoma, Verdana, Helvetica, Arial" fill="#444444" transform="matrix(1,0,0,1,15,0)"><tspan dy="0" >CortiSense WebApp</tspan></text><text  id="v-1699" font-size="16.799999999999997px" xml:space="preserve" y="950" font-weight="normal" text-anchor="start" pointer-events="visible" font-family="Tahoma, Verdana, Helvetica, Arial" fill="#444444" transform="matrix(1,0,0,1,15,0)"><tspan dy="0" >[Software System]</tspan></text><image  id="v-1700" pointer-events="visible"></image></g></g><!--z-index:25--><g   id="j_161"  transform="translate(3510,281)" style=""><g  id="v-1684" style="opacity: 1;"><rect  id="v-1685" rx="10" ry="10" stroke-width="2" pointer-events="visiblePainted" fill="#2672c0" stroke="#2672c0" stroke-dasharray="" width="450" height="302" style="fill: rgb(38, 114, 192); stroke: rgb(38, 114, 192);"></rect><rect  id="v-1686" rx="10" ry="10" stroke-width="0" pointer-events="visiblePainted" fill="#2a7fd5" stroke="#2672c0" width="446" height="260" x="2" y="40" style="fill: rgb(42, 127, 213);"></rect><ellipse  id="v-1693" fill="#2a7fd5" cx="20" cy="20" rx="10" ry="10" style="fill: rgb(42, 127, 213);"></ellipse><ellipse  id="v-1694" fill="#2a7fd5" cx="50" cy="20" rx="10" ry="10" style="fill: rgb(42, 127, 213);"></ellipse><ellipse  id="v-1695" fill="#2a7fd5" cx="80" cy="20" rx="10" ry="10" style="fill: rgb(42, 127, 213);"></ellipse><rect  id="v-1687" rx="10" ry="10" stroke-width="0" pointer-events="visiblePainted" fill="#2a7fd5" width="340" height="20" x="100" y="10" style="fill: rgb(42, 127, 213);"></rect><text  id="v-1688" font-size="33.599999999999994px" xml:space="preserve" y="106.9" font-weight="bold" text-anchor="middle" pointer-events="visible" font-family="Tahoma, Verdana, Helvetica, Arial" fill="#ffffff" dominant-baseline="hanging" transform="matrix(1,0,0,1,225,0)" style="fill: rgb(255, 255, 255);"><tspan dy="0" >Shared</tspan></text><text  id="v-1689" font-size="16.799999999999997px" xml:space="preserve" y="148.5" text-anchor="middle" font-family="Tahoma, Verdana, Helvetica, Arial" fill="#ffffff" dominant-baseline="hanging" transform="matrix(1,0,0,1,225,0)" style="display: block; fill: rgb(255, 255, 255);"><tspan dy="0" >[Container: Vue, TypeScript]</tspan></text><text  id="v-1690" font-size="24px" xml:space="preserve" y="180.3" text-anchor="middle" font-family="Tahoma, Verdana, Helvetica, Arial" fill="#ffffff" dominant-baseline="hanging" transform="matrix(1,0,0,1,225,0)" style="display: block; fill: rgb(255, 255, 255);"><tspan dy="0" >Provides reusable cross-cutting</tspan><tspan dy="1.2em" x="0" >concerns.</tspan></text><g  id="v-1691" font-weight="normal" text-anchor="middle" color="#ffffff" transform="matrix(1,0,0,1,210,268)" style="fill: rgb(255, 255, 255);" display="none"><g  transform="translate(5 0)"><svg xmlns="http://www.w3.org/2000/svg" width="20" height="20" fill="currentColor" viewBox="0 0 16 16"><path fill-rule="evenodd" d="M6.5 12a5.5 5.5 0 1 0 0-11 5.5 5.5 0 0 0 0 11zM13 6.5a6.5 6.5 0 1 1-13 0 6.5 6.5 0 0 1 13 0z"></path><path d="M10.344 11.742c.03.04.062.078.098.115l3.85 3.85a1 1 0 0 0 1.415-1.414l-3.85-3.85a1.007 1.007 0 0 0-.115-.1 6.538 6.538 0 0 1-1.398 1.4z"></path><path fill-rule="evenodd" d="M6.5 3a.5.5 0 0 1 .5.5V6h2.5a.5.5 0 0 1 0 1H7v2.5a.5.5 0 0 1-1 0V7H3.5a.5.5 0 0 1 0-1H6V3.5a.5.5 0 0 1 .5-.5z"></path></svg></g><g ></g><g ></g><g ></g></g><image  id="v-1692"></image></g></g><!--z-index:26--><g   id="j_164"  transform="translate(250,193)" style="; opacity: 1;"><g id="v-1711"><rect  id="v-1712" width="2920" height="786" rx="20" ry="20" stroke-width="2" pointer-events="none" stroke="#2672c0" fill="#ffffff" opacity="1" stroke-dasharray=""></rect><text  id="v-1713" font-size="33.599999999999994px" xml:space="preserve" y="747" font-weight="bold" text-anchor="start" pointer-events="visible" font-family="Tahoma, Verdana, Helvetica, Arial" fill="#2672c0" transform="matrix(1,0,0,1,15,0)"><tspan dy="0" >Audit &amp; Compliance</tspan></text><text  id="v-1714" font-size="16.799999999999997px" xml:space="preserve" y="771" font-weight="normal" text-anchor="start" pointer-events="visible" font-family="Tahoma, Verdana, Helvetica, Arial" fill="#2672c0" transform="matrix(1,0,0,1,15,0)"><tspan dy="0" >[Container]</tspan></text><image  id="v-1715" pointer-events="visible"></image></g></g><!--z-index:27--><g   id="j_163"  transform="translate(300,243)" style=""><g  id="v-1704" style="opacity: 1;"><rect  id="v-1705" rx="20" ry="20" stroke-width="2" pointer-events="visiblePainted" fill="#7b7b7b" stroke="#6f6f6f" stroke-dasharray="" width="450" height="300" style="fill: rgb(123, 123, 123); stroke: rgb(111, 111, 111);"></rect><text  id="v-1706" font-size="33.599999999999994px" xml:space="preserve" y="101.30000000000001" font-weight="bold" text-anchor="middle" pointer-events="visible" font-family="Tahoma, Verdana, Helvetica, Arial" fill="#ffffff" dominant-baseline="hanging" transform="matrix(1,0,0,1,225,0)" style="fill: rgb(255, 255, 255);"><tspan dy="0" >Presentation</tspan></text><text  id="v-1707" font-size="16.799999999999997px" xml:space="preserve" y="142.9" text-anchor="middle" font-family="Tahoma, Verdana, Helvetica, Arial" fill="#ffffff" dominant-baseline="hanging" transform="matrix(1,0,0,1,225,0)" style="display: block; fill: rgb(255, 255, 255);"><tspan dy="0" >[Component: Vue Component]</tspan></text><text  id="v-1708" font-size="24px" xml:space="preserve" y="174.7" text-anchor="middle" font-family="Tahoma, Verdana, Helvetica, Arial" fill="#ffffff" dominant-baseline="hanging" transform="matrix(1,0,0,1,225,0)" style="display: block; fill: rgb(255, 255, 255);"><tspan dy="0" >Audit logs and reports.</tspan></text><g  id="v-1709" color="#ffffff" transform="matrix(1,0,0,1,222.5,268)" style="fill: rgb(255, 255, 255);" display="none"><g ></g><g ></g><g ></g><g ></g></g><image  id="v-1710"></image></g></g><!--z-index:28--><g   id="j_165"  transform="translate(1090,444)" style=""><g  id="v-1719" style="opacity: 1;"><rect  id="v-1720" rx="20" ry="20" stroke-width="2" pointer-events="visiblePainted" fill="#7b7b7b" stroke="#6f6f6f" stroke-dasharray="" width="450" height="300" style="fill: rgb(123, 123, 123); stroke: rgb(111, 111, 111);"></rect><text  id="v-1721" font-size="33.599999999999994px" xml:space="preserve" y="101.30000000000001" font-weight="bold" text-anchor="middle" pointer-events="visible" font-family="Tahoma, Verdana, Helvetica, Arial" fill="#ffffff" dominant-baseline="hanging" transform="matrix(1,0,0,1,225,0)" style="fill: rgb(255, 255, 255);"><tspan dy="0" >Application</tspan></text><text  id="v-1722" font-size="16.799999999999997px" xml:space="preserve" y="142.9" text-anchor="middle" font-family="Tahoma, Verdana, Helvetica, Arial" fill="#ffffff" dominant-baseline="hanging" transform="matrix(1,0,0,1,225,0)" style="display: block; fill: rgb(255, 255, 255);"><tspan dy="0" >[Component: Pinia Store]</tspan></text><text  id="v-1723" font-size="24px" xml:space="preserve" y="174.7" text-anchor="middle" font-family="Tahoma, Verdana, Helvetica, Arial" fill="#ffffff" dominant-baseline="hanging" transform="matrix(1,0,0,1,225,0)" style="display: block; fill: rgb(255, 255, 255);"><tspan dy="0" >Log filtering and sorting state.</tspan></text><g  id="v-1724" color="#ffffff" transform="matrix(1,0,0,1,222.5,268)" style="fill: rgb(255, 255, 255);" display="none"><g ></g><g ></g><g ></g><g ></g></g><image  id="v-1725"></image></g></g><!--z-index:29--><g   id="j_166"  transform="translate(1880,425)" style=""><g  id="v-1729" style="opacity: 1;"><rect  id="v-1730" rx="20" ry="20" stroke-width="2" pointer-events="visiblePainted" fill="#7b7b7b" stroke="#6f6f6f" stroke-dasharray="" width="450" height="300" style="fill: rgb(123, 123, 123); stroke: rgb(111, 111, 111);"></rect><text  id="v-1731" font-size="33.599999999999994px" xml:space="preserve" y="101.30000000000001" font-weight="bold" text-anchor="middle" pointer-events="visible" font-family="Tahoma, Verdana, Helvetica, Arial" fill="#ffffff" dominant-baseline="hanging" transform="matrix(1,0,0,1,225,0)" style="fill: rgb(255, 255, 255);"><tspan dy="0" >Infrastructure</tspan></text><text  id="v-1732" font-size="16.799999999999997px" xml:space="preserve" y="142.9" text-anchor="middle" font-family="Tahoma, Verdana, Helvetica, Arial" fill="#ffffff" dominant-baseline="hanging" transform="matrix(1,0,0,1,225,0)" style="display: block; fill: rgb(255, 255, 255);"><tspan dy="0" >[Component: Axios Service]</tspan></text><text  id="v-1733" font-size="24px" xml:space="preserve" y="174.7" text-anchor="middle" font-family="Tahoma, Verdana, Helvetica, Arial" fill="#ffffff" dominant-baseline="hanging" transform="matrix(1,0,0,1,225,0)" style="display: block; fill: rgb(255, 255, 255);"><tspan dy="0" >Audit API communication.</tspan></text><g  id="v-1734" color="#ffffff" transform="matrix(1,0,0,1,222.5,268)" style="fill: rgb(255, 255, 255);" display="none"><g ></g><g ></g><g ></g><g ></g></g><image  id="v-1735"></image></g></g><!--z-index:30--><g   id="j_167"  transform="translate(2670,550)" style=""><g  id="v-1742" style="opacity: 1;"><rect  id="v-1743" rx="20" ry="20" stroke-width="2" pointer-events="visiblePainted" fill="#7b7b7b" stroke="#6f6f6f" stroke-dasharray="" width="450" height="300" style="fill: rgb(123, 123, 123); stroke: rgb(111, 111, 111);"></rect><text  id="v-1744" font-size="33.599999999999994px" xml:space="preserve" y="101.30000000000001" font-weight="bold" text-anchor="middle" pointer-events="visible" font-family="Tahoma, Verdana, Helvetica, Arial" fill="#ffffff" dominant-baseline="hanging" transform="matrix(1,0,0,1,225,0)" style="fill: rgb(255, 255, 255);"><tspan dy="0" >Domain</tspan></text><text  id="v-1745" font-size="16.799999999999997px" xml:space="preserve" y="142.9" text-anchor="middle" font-family="Tahoma, Verdana, Helvetica, Arial" fill="#ffffff" dominant-baseline="hanging" transform="matrix(1,0,0,1,225,0)" style="display: block; fill: rgb(255, 255, 255);"><tspan dy="0" >[Component: TypeScript Interface]</tspan></text><text  id="v-1746" font-size="24px" xml:space="preserve" y="174.7" text-anchor="middle" font-family="Tahoma, Verdana, Helvetica, Arial" fill="#ffffff" dominant-baseline="hanging" transform="matrix(1,0,0,1,225,0)" style="display: block; fill: rgb(255, 255, 255);"><tspan dy="0" >AuditLog and Event models.</tspan></text><g  id="v-1747" color="#ffffff" transform="matrix(1,0,0,1,222.5,268)" style="fill: rgb(255, 255, 255);" display="none"><g ></g><g ></g><g ></g><g ></g></g><image  id="v-1748"></image></g></g><!--z-index:31--><g   id="j_168"  style="opacity: 1;"><path fill="none" cursor="pointer" stroke="transparent" stroke-linecap="round" joint-selector="wrapper" id="v-1763" stroke-width="10" stroke-linejoin="round" d="M 3960 431.6 L 4170 431 C 4176.666666666666 431.1333333333333 4182.666666666666 433.1333333333333 4188 437 L 4359.39 556"></path><path fill="none" pointer-events="none" joint-selector="line" id="v-1762" stroke="#444444" stroke-width="2" stroke-linejoin="round" stroke-dasharray="8 8" d="M 3960 431.6 L 4170 431 C 4176.666666666666 431.1333333333333 4182.666666666666 433.1333333333333 4188 437 L 4359.39 556" marker-end="url(#v-21252848929)"></path><g id="v-1752" ><g id="v-1753"  label-idx="0" cursor="move" transform="matrix(1,0,0,1,4179.39453125,419.1650390625)" style="cursor: default;"><rect joint-selector="rect" id="v-1757" fill="#ffffff" rx="3" ry="3" x="-77.45639038085938" y="-45.78604507446289" width="155.0070343017578" height="87.36744689941406" pointer-events="none"  style="display: block;"></rect><text joint-selector="text" id="v-1756" font-size="24px" xml:space="preserve" fill="#444444" text-anchor="middle" pointer-events="none" font-family="Tahoma, Verdana, Helvetica, Arial" font-weight="normal"  style="display: block;"><tspan dy="-0.8999999999999999em" >Handles global</tspan><tspan dy="1.2em" x="0" >requests/</tspan><tspan dy="1.2em" x="0" >interceptors</tspan></text></g><g id="v-1754"  label-idx="1" cursor="move" transform="matrix(1,0,0,1,4179.39453125,478.36505126953125)" style="cursor: default;"><rect joint-selector="rect" id="v-1759" fill="#ffffff" rx="3" ry="3" x="-53.76453399658203" y="-11.704185485839844" width="108.52061462402344" height="20.46511459350586"  pointer-events="none" style="display: block;"></rect><text joint-selector="text" id="v-1758" font-size="16.799999999999997px" xml:space="preserve" fill="#444444" text-anchor="middle" pointer-events="none" font-family="Tahoma, Verdana, Helvetica, Arial" font-weight="normal"  style="display: block;"><tspan dy="0.3em" >[JSON/HTTPS]</tspan></text></g><g id="v-1755"  label-idx="2" cursor="move" transform="matrix(1,0,0,1,4168.8291015625,486.5850524902344)" style="cursor: default;"><rect joint-selector="rect" id="v-1761" fill="#ffffff" rx="3" ry="3" x="0" y="0" width="0" height="0"  display="none"></rect><text joint-selector="text" id="v-1760" fill="#000000" font-size="14" text-anchor="middle" text-vertical-anchor="middle" pointer-events="none"></text></g></g></g><!--z-index:32--><g   id="j_169"  style="opacity: 1;"><path fill="none" cursor="pointer" stroke="transparent" stroke-linecap="round" joint-selector="wrapper" id="v-1775" stroke-width="10" stroke-linejoin="round" d="M 750 507.72 L 911 590 C 916.9999999999999 592.9333333333334 923.3333333333333 594.2666666666667 930 594 L 1090 594.23"></path><path fill="none" pointer-events="none" joint-selector="line" id="v-1774" stroke="#444444" stroke-width="2" stroke-linejoin="round" stroke-dasharray="8 8" d="M 750 507.72 L 911 590 C 916.9999999999999 592.9333333333334 923.3333333333333 594.2666666666667 930 594 L 1090 594.23" marker-end="url(#v-21252848929)"></path><g id="v-1767" ><g id="v-1768"  label-idx="0" cursor="move" transform="matrix(1,0,0,1,920.25,593.2000122070312)" style="cursor: default;"><rect joint-selector="rect" id="v-1771" fill="#ffffff" rx="3" ry="3" x="-89.95639038085938" y="-16.98604393005371" width="180.21498107910156" height="29.767440795898438" pointer-events="none"  style="display: block;"></rect><text joint-selector="text" id="v-1770" font-size="24px" xml:space="preserve" fill="#444444" text-anchor="middle" pointer-events="none" font-family="Tahoma, Verdana, Helvetica, Arial" font-weight="normal"  style="display: block;"><tspan dy="0.3em" >Reads state from</tspan></text></g><g id="v-1769"  label-idx="1" cursor="move" transform="matrix(1,0,0,1,910.25,605.2000122070312)" style="cursor: default;"><rect joint-selector="rect" id="v-1773" fill="#ffffff" rx="3" ry="3" x="-1.1368683772161603e-13" y="-1.1368683772161603e-13" width="0" height="0"  display="none"></rect><text joint-selector="text" id="v-1772" fill="#000000" font-size="14" text-anchor="middle" text-vertical-anchor="middle" pointer-events="none"></text></g></g></g><!--z-index:33--><g   id="j_170"  style="opacity: 1;"><path fill="none" cursor="pointer" stroke="transparent" stroke-linecap="round" joint-selector="wrapper" id="v-1787" stroke-width="10" stroke-linejoin="round" d="M 1540 583.41 L 1700 576 C 1706.6666666666665 575.6 1713.3333333333333 575.2666666666667 1720 575 L 1880 575.23"></path><path fill="none" pointer-events="none" joint-selector="line" id="v-1786" stroke="#444444" stroke-width="2" stroke-linejoin="round" stroke-dasharray="8 8" d="M 1540 583.41 L 1700 576 C 1706.6666666666665 575.6 1713.3333333333333 575.2666666666667 1720 575 L 1880 575.23" marker-end="url(#v-21252848929)"></path><g id="v-1779" ><g id="v-1780"  label-idx="0" cursor="move" transform="matrix(1,0,0,1,1710,575.4500122070312)" style="cursor: default;"><rect joint-selector="rect" id="v-1783" fill="#ffffff" rx="3" ry="3" x="-63.59011459350586" y="-31.38604736328125" width="127.18022918701172" height="58.56744384765625" pointer-events="none"  style="display: block;"></rect><text joint-selector="text" id="v-1782" font-size="24px" xml:space="preserve" fill="#444444" text-anchor="middle" pointer-events="none" font-family="Tahoma, Verdana, Helvetica, Arial" font-weight="normal"  style="display: block;"><tspan dy="-0.3em" >Fetches and</tspan><tspan dy="1.2em" x="0" >updates via</tspan></text></g><g id="v-1781"  label-idx="1" cursor="move" transform="matrix(1,0,0,1,1700,601.8499755859375)" style="cursor: default;"><rect joint-selector="rect" id="v-1785" fill="#ffffff" rx="3" ry="3" x="-2.2737367544323206e-13" y="0" width="0" height="0"  display="none"></rect><text joint-selector="text" id="v-1784" fill="#000000" font-size="14" text-anchor="middle" text-vertical-anchor="middle" pointer-events="none"></text></g></g></g><!--z-index:34--><g   id="j_171"  style="opacity: 1;"><path fill="none" cursor="pointer" stroke="transparent" stroke-linecap="round" joint-selector="wrapper" id="v-1802" stroke-width="10" stroke-linejoin="round" d="M 2273.42 725 L 2493 920 C 2497.6666666666665 924.5333333333332 2503.333333333333 926.8666666666666 2510 927 L 4170 927 C 4176.666666666666 926.8666666666666 4183 925.1999999999998 4189 922 L 4350 831.77" style="stroke-width: 10px;"></path><path fill="none" pointer-events="none" joint-selector="line" id="v-1801" stroke="#444444" stroke-width="2" stroke-linejoin="round" stroke-dasharray="8 8" d="M 2273.42 725 L 2493 920 C 2497.6666666666665 924.5333333333332 2503.333333333333 926.8666666666666 2510 927 L 4170 927 C 4176.666666666666 926.8666666666666 4183 925.1999999999998 4189 922 L 4350 831.77" marker-end="url(#v-21252848929)"></path><g id="v-1791" ><g id="v-1792"  label-idx="0" cursor="move" transform="matrix(1,0,0,1,3340.0634765625,913.5999755859375)" style="cursor: default;"><rect joint-selector="rect" id="v-1796" fill="#ffffff" rx="3" ry="3" x="-55.377906799316406" y="-31.38604736328125" width="112.01708221435547" height="58.56744384765625" pointer-events="none"  style="display: block;"></rect><text joint-selector="text" id="v-1795" font-size="24px" xml:space="preserve" fill="#444444" text-anchor="middle" pointer-events="none" font-family="Tahoma, Verdana, Helvetica, Arial" font-weight="normal"  style="display: block;"><tspan dy="-0.3em" >Calls Audit</tspan><tspan dy="1.2em" x="0" >endpoints</tspan></text></g><g id="v-1793"  label-idx="1" cursor="move" transform="matrix(1,0,0,1,3340.0634765625,958.4000244140625)" style="cursor: default;"><rect joint-selector="rect" id="v-1798" fill="#ffffff" rx="3" ry="3" x="-53.76453399658203" y="-11.704185485839844" width="108.52061462402344" height="20.46511459350586"  pointer-events="none" style="display: block;"></rect><text joint-selector="text" id="v-1797" font-size="16.799999999999997px" xml:space="preserve" fill="#444444" text-anchor="middle" pointer-events="none" font-family="Tahoma, Verdana, Helvetica, Arial" font-weight="normal"  style="display: block;"><tspan dy="0.3em" >[JSON/HTTPS]</tspan></text></g><g id="v-1794"  label-idx="2" cursor="move" transform="matrix(1,0,0,1,3275.937255859375,966.7999877929688)" style="cursor: default;"><rect joint-selector="rect" id="v-1800" fill="#ffffff" rx="3" ry="3" x="-4.547473508864641e-13" y="0" width="0" height="0"  display="none"></rect><text joint-selector="text" id="v-1799" fill="#000000" font-size="14" text-anchor="middle" text-vertical-anchor="middle" pointer-events="none"></text></g></g></g><!--z-index:35--><g   id="j_172"  style="opacity: 1;"><path fill="none" cursor="pointer" stroke="transparent" stroke-linecap="round" joint-selector="wrapper" id="v-1814" stroke-width="10" stroke-linejoin="round" d="M 2330 575.23 L 2490 575 C 2496.6666666666665 575.2666666666667 2503.333333333333 576.2666666666667 2510 578 L 2670 629.03"></path><path fill="none" pointer-events="none" joint-selector="line" id="v-1813" stroke="#444444" stroke-width="2" stroke-linejoin="round" stroke-dasharray="8 8" d="M 2330 575.23 L 2490 575 C 2496.6666666666665 575.2666666666667 2503.333333333333 576.2666666666667 2510 578 L 2670 629.03" marker-end="url(#v-21252848929)"></path><g id="v-1806" ><g id="v-1807"  label-idx="0" cursor="move" transform="matrix(1,0,0,1,2499.8828125,575.9324951171875)" style="cursor: default;"><rect joint-selector="rect" id="v-1810" fill="#ffffff" rx="3" ry="3" x="-80.93022918701172" y="-16.98604393005371" width="160" height="29.767440795898438" pointer-events="none"  style="display: block;"></rect><text joint-selector="text" id="v-1809" font-size="24px" xml:space="preserve" fill="#444444" text-anchor="middle" pointer-events="none" font-family="Tahoma, Verdana, Helvetica, Arial" font-weight="normal"  style="display: block;"><tspan dy="0.3em" >Assembles into</tspan></text></g><g id="v-1808"  label-idx="1" cursor="move" transform="matrix(1,0,0,1,2489.8828125,587.9324951171875)" style="cursor: default;"><rect joint-selector="rect" id="v-1812" fill="#ffffff" rx="3" ry="3" x="0" y="0" width="0" height="0"  display="none"></rect><text joint-selector="text" id="v-1811" fill="#000000" font-size="14" text-anchor="middle" text-vertical-anchor="middle" pointer-events="none"></text></g></g></g><!--z-index:36--><g   id="j_173"  style="opacity: 1;"><path fill="none" cursor="pointer" stroke="transparent" stroke-linecap="round" joint-selector="wrapper" id="v-1826" stroke-width="10" stroke-linejoin="round" d="M 1540 712.37 L 1701 797 C 1707 800.1999999999999 1713.3333333333333 801.8666666666666 1720 802 L 2490 802 C 2496.6666666666665 801.8666666666666 2503.333333333333 800.8666666666666 2510 799 L 2670 757.99"></path><path fill="none" pointer-events="none" joint-selector="line" id="v-1825" stroke="#444444" stroke-width="2" stroke-linejoin="round" stroke-dasharray="8 8" d="M 1540 712.37 L 1701 797 C 1707 800.1999999999999 1713.3333333333333 801.8666666666666 1720 802 L 2490 802 C 2496.6666666666665 801.8666666666666 2503.333333333333 800.8666666666666 2510 799 L 2670 757.99" marker-end="url(#v-21252848929)"></path><g id="v-1818" ><g id="v-1819"  label-idx="0" cursor="move" transform="matrix(1,0,0,1,2105.1103515625,802)" style="cursor: default;"><rect joint-selector="rect" id="v-1822" fill="#ffffff" rx="3" ry="3" x="-73.7936019897461" y="-31.38604736328125" width="148.02593994140625" height="58.56744384765625" pointer-events="none"  style="display: block;"></rect><text joint-selector="text" id="v-1821" font-size="24px" xml:space="preserve" fill="#444444" text-anchor="middle" pointer-events="none" font-family="Tahoma, Verdana, Helvetica, Arial" font-weight="normal"  style="display: block;"><tspan dy="-0.3em" >Uses business</tspan><tspan dy="1.2em" x="0" >rules</tspan></text></g><g id="v-1820"  label-idx="1" cursor="move" transform="matrix(1,0,0,1,2095.1103515625,828.4000244140625)" style="cursor: default;"><rect joint-selector="rect" id="v-1824" fill="#ffffff" rx="3" ry="3" x="0" y="0" width="0" height="0"  display="none"></rect><text joint-selector="text" id="v-1823" fill="#000000" font-size="14" text-anchor="middle" text-vertical-anchor="middle" pointer-events="none"></text></g></g></g><!--z-index:37--><g   id="j_174"  style="opacity: 1;"><path fill="none" cursor="pointer" stroke="transparent" stroke-linecap="round" joint-selector="wrapper" id="v-1838" stroke-width="10" stroke-linejoin="round" d="M 750 318.38 L 911 265 C 916.9999999999999 263 923.3333333333333 262 930 262 L 3330 262 C 3336.6666666666665 262 3343 263.3333333333333 3349 266 L 3510 335.16"></path><path fill="none" pointer-events="none" joint-selector="line" id="v-1837" stroke="#444444" stroke-width="2" stroke-linejoin="round" stroke-dasharray="8 8" d="M 750 318.38 L 911 265 C 916.9999999999999 263 923.3333333333333 262 930 262 L 3330 262 C 3336.6666666666665 262 3343 263.3333333333333 3349 266 L 3510 335.16" marker-end="url(#v-21252848929)"></path><g id="v-1830" ><g id="v-1831"  label-idx="0" cursor="move" transform="matrix(1,0,0,1,2105.011962890625,262)" style="cursor: default;"><rect joint-selector="rect" id="v-1834" fill="#ffffff" rx="3" ry="3" x="-76.30813598632812" y="-16.98604393005371" width="152.9623565673828" height="29.767440795898438" pointer-events="none"  style="display: block;"></rect><text joint-selector="text" id="v-1833" font-size="24px" xml:space="preserve" fill="#444444" text-anchor="middle" pointer-events="none" font-family="Tahoma, Verdana, Helvetica, Arial" font-weight="normal"  style="display: block;"><tspan dy="0.3em" >Uses global UI</tspan></text></g><g id="v-1832"  label-idx="1" cursor="move" transform="matrix(1,0,0,1,2095.011962890625,274)" style="cursor: default;"><rect joint-selector="rect" id="v-1836" fill="#ffffff" rx="3" ry="3" x="-2.2737367544323206e-13" y="0" width="0" height="0"  display="none"></rect><text joint-selector="text" id="v-1835" fill="#000000" font-size="14" text-anchor="middle" text-vertical-anchor="middle" pointer-events="none"></text></g></g></g><!--z-index:38--><g   id="j_175"  style="opacity: 1;"><path fill="none" cursor="pointer" stroke="transparent" stroke-linecap="round" joint-selector="wrapper" id="v-1850" stroke-width="10" stroke-linejoin="round" d="M 1534.44 444 L 1702 330 C 1707.3333333333333 326 1713.3333333333333 324 1720 324 L 3330 324 C 3336.6666666666665 324 3343.333333333333 325 3350 327 L 3510 370.48"></path><path fill="none" pointer-events="none" joint-selector="line" id="v-1849" stroke="#444444" stroke-width="2" stroke-linejoin="round" stroke-dasharray="8 8" d="M 1534.44 444 L 1702 330 C 1707.3333333333333 326 1713.3333333333333 324 1720 324 L 3330 324 C 3336.6666666666665 324 3343.333333333333 325 3350 327 L 3510 370.48" marker-end="url(#v-21252848929)"></path><g id="v-1842" ><g id="v-1843"  label-idx="0" cursor="move" transform="matrix(1,0,0,1,2500.559326171875,324)" style="cursor: default;"><rect joint-selector="rect" id="v-1846" fill="#ffffff" rx="3" ry="3" x="-89.9709243774414" y="-16.98604393005371" width="180.30828857421875" height="29.767440795898438" pointer-events="none"  style="display: block;"></rect><text joint-selector="text" id="v-1845" font-size="24px" xml:space="preserve" fill="#444444" text-anchor="middle" pointer-events="none" font-family="Tahoma, Verdana, Helvetica, Arial" font-weight="normal"  style="display: block;"><tspan dy="0.3em" >Uses global state</tspan></text></g><g id="v-1844"  label-idx="1" cursor="move" transform="matrix(1,0,0,1,2490.559326171875,336)" style="cursor: default;"><rect joint-selector="rect" id="v-1848" fill="#ffffff" rx="3" ry="3" x="-4.547473508864641e-13" y="0" width="0" height="0"  display="none"></rect><text joint-selector="text" id="v-1847" fill="#000000" font-size="14" text-anchor="middle" text-vertical-anchor="middle" pointer-events="none"></text></g></g></g><!--z-index:39--><g   id="j_176"  style="opacity: 1;"><path fill="none" cursor="pointer" stroke="transparent" stroke-linecap="round" joint-selector="wrapper" id="v-1862" stroke-width="10" stroke-linejoin="round" d="M 2330 475.54 L 2491 404 C 2497 401.6 2503.333333333333 400.2666666666667 2510 400 L 3330 400 C 3336.6666666666665 400.2666666666667 3343.333333333333 400.6 3350 401 L 3510 414"></path><path fill="none" pointer-events="none" joint-selector="line" id="v-1861" stroke="#444444" stroke-width="2" stroke-linejoin="round" stroke-dasharray="8 8" d="M 2330 475.54 L 2491 404 C 2497 401.6 2503.333333333333 400.2666666666667 2510 400 L 3330 400 C 3336.6666666666665 400.2666666666667 3343.333333333333 400.6 3350 401 L 3510 414" marker-end="url(#v-21252848929)"></path><g id="v-1854" ><g id="v-1855"  label-idx="0" cursor="move" transform="matrix(1,0,0,1,2895.147705078125,400)" style="cursor: default;"><rect joint-selector="rect" id="v-1858" fill="#ffffff" rx="3" ry="3" x="-56.409881591796875" y="-31.38604736328125" width="113.24473571777344" height="58.56744384765625" pointer-events="none"  style="display: block;"></rect><text joint-selector="text" id="v-1857" font-size="24px" xml:space="preserve" fill="#444444" text-anchor="middle" pointer-events="none" font-family="Tahoma, Verdana, Helvetica, Arial" font-weight="normal"  style="display: block;"><tspan dy="-0.3em" >Uses Axios</tspan><tspan dy="1.2em" x="0" >instance</tspan></text></g><g id="v-1856"  label-idx="1" cursor="move" transform="matrix(1,0,0,1,2885.147705078125,426.3999938964844)" style="cursor: default;"><rect joint-selector="rect" id="v-1860" fill="#ffffff" rx="3" ry="3" x="0" y="0" width="0" height="0"  display="none"></rect><text joint-selector="text" id="v-1859" fill="#000000" font-size="14" text-anchor="middle" text-vertical-anchor="middle" pointer-events="none"></text></g></g></g><!--z-index:40--><g   id="j_177"  style="opacity: 1;"><path fill="none" cursor="pointer" stroke="transparent" stroke-linecap="round" joint-selector="wrapper" id="v-1874" stroke-width="10" stroke-linejoin="round" d="M 3120 700.2 L 3330 700 C 3336.6666666666665 700.2666666666667 3342.6666666666665 698.6 3348 695 L 3512.78 583" style="stroke-width: 10px;"></path><path fill="none" pointer-events="none" joint-selector="line" id="v-1873" stroke="#444444" stroke-width="2" stroke-linejoin="round" stroke-dasharray="8 8" d="M 3120 700.2 L 3330 700 C 3336.6666666666665 700.2666666666667 3342.6666666666665 698.6 3348 695 L 3512.78 583" marker-end="url(#v-21252848929)"></path><g id="v-1866" ><g id="v-1867"  label-idx="0" cursor="move" transform="matrix(1,0,0,1,3338.188720703125,699.2810668945312)" style="cursor: default;"><rect joint-selector="rect" id="v-1870" fill="#ffffff" rx="3" ry="3" x="-81.0029067993164" y="-31.38604736328125" width="162.0058135986328" height="58.56744384765625" pointer-events="none"  style="display: block;"></rect><text joint-selector="text" id="v-1869" font-size="24px" xml:space="preserve" fill="#444444" text-anchor="middle" pointer-events="none" font-family="Tahoma, Verdana, Helvetica, Arial" font-weight="normal"  style="display: block;"><tspan dy="-0.3em" >Extends shared</tspan><tspan dy="1.2em" x="0" >types</tspan></text></g><g id="v-1868"  label-idx="1" cursor="move" transform="matrix(1,0,0,1,3328.188720703125,725.6810302734375)" style="cursor: default;"><rect joint-selector="rect" id="v-1872" fill="#ffffff" rx="3" ry="3" x="0" y="0" width="0" height="0"  display="none"></rect><text joint-selector="text" id="v-1871" fill="#000000" font-size="14" text-anchor="middle" text-vertical-anchor="middle" pointer-events="none"></text></g></g></g><!--z-index:41--><!--z-index:42--><!--z-index:43--><!--z-index:44--><!--z-index:45--><!--z-index:46--><!--z-index:47--><!--z-index:48--><!--z-index:49--><!--z-index:50--><!--z-index:51--><!--z-index:52--><!--z-index:53--><!--z-index:54--><!--z-index:55--><!--z-index:56--><!--z-index:57--><!--z-index:58--><!--z-index:59--><!--z-index:60--><!--z-index:61--><!--z-index:62--><!--z-index:63--><!--z-index:64--><!--z-index:65--><!--z-index:66--><!--z-index:67--><!--z-index:68--><!--z-index:69--><!--z-index:70--><!--z-index:71--><!--z-index:72--><!--z-index:73--><!--z-index:74--><!--z-index:75--><!--z-index:76--><!--z-index:77--><!--z-index:78--><!--z-index:79--><!--z-index:80--><!--z-index:81--><!--z-index:82--><!--z-index:83--><!--z-index:84--><!--z-index:85--><!--z-index:86--><!--z-index:87--><!--z-index:88--><!--z-index:89--><!--z-index:90--><!--z-index:91--><!--z-index:92--><!--z-index:93--><!--z-index:94--><!--z-index:95--><!--z-index:96--><!--z-index:97--><!--z-index:98--><!--z-index:99--><!--z-index:100--><!--z-index:101--></g><g  style="user-select: none;"></g><g ></g><g  display="none"></g></g></svg>