<svg xmlns="http://www.w3.org/2000/svg" xmlns:xlink="http://www.w3.org/1999/xlink" version="1.1" style="background: #ffffff" viewBox="0 0 5000 1273"><style id="v-3" type="text/css">        .joint-element .scalable * {            vector-effect: non-scaling-stroke;        }    </style><defs joint-selector="defs"><marker id="v-21252848929" orient="auto" overflow="visible" markerUnits="userSpaceOnUse"><path id="v-104" stroke="#444444" fill="#444444" transform="rotate(180)" d="M 20 -10 0 0 20 10 Z"></path></marker></defs><g joint-selector="layers"  transform="matrix(1,0,0,1,0,0)"><g  style="pointer-events: none;"></g><g ></g><g  style="user-select: none;"><!--z-index:0--><!--z-index:1--><!--z-index:2--><!--z-index:3--><!--z-index:4--><!--z-index:5--><!--z-index:6--><!--z-index:7--><!--z-index:8--><!--z-index:9--><!--z-index:10--><!--z-index:11--><!--z-index:12--><!--z-index:13--><!--z-index:14--><!--z-index:15--><!--z-index:16--><!--z-index:17--><!--z-index:18--><!--z-index:19--><!--z-index:20--><g   id="j_294"  transform="translate(20,1229)"><g id="v-3118"><text  id="v-3119" font-size="24px" xml:space="preserve" y="0.8em" font-weight="normal" text-anchor="start" fill="#444444" pointer-events="none" display="block" font-family="Tahoma, Verdana, Helvetica, Arial"><tspan dy="0" >martes, 7 de julio de 2026, 4:03 p. m. hora estándar de Perú</tspan></text></g></g><!--z-index:21--><g   id="j_293"  transform="translate(20,1195)"><g id="v-3116"><text  id="v-3117" font-size="24px" xml:space="preserve" y="0.8em" font-weight="normal" text-anchor="start" fill="#444444" pointer-events="none" display="block" font-family="Tahoma, Verdana, Helvetica, Arial"><tspan dy="0" >Component Diagram: Shift Coordination Bounded Context</tspan></text></g></g><!--z-index:22--><g   id="j_292"  transform="translate(20,1149)"><g id="v-3114"><text  id="v-3115" font-size="36px" xml:space="preserve" y="0.8em" font-weight="normal" text-anchor="start" fill="#444444" pointer-events="none" display="block" font-family="Tahoma, Verdana, Helvetica, Arial"><tspan dy="0" >Component View: CortiSense WebApp - Shift Coordination</tspan></text></g></g><!--z-index:23--><g   id="j_295"  transform="translate(4350,501)" style=""><g  id="v-3123" style="opacity: 1;"><rect  id="v-3124" rx="20" ry="20" stroke-width="2" pointer-events="visiblePainted" fill="#2ba356" stroke="#27934d" stroke-dasharray="" width="450" height="300" style="fill: rgb(43, 163, 86); stroke: rgb(39, 147, 77);"></rect><text  id="v-3125" font-size="33.599999999999994px" xml:space="preserve" y="86.9" font-weight="bold" text-anchor="middle" pointer-events="visible" font-family="Tahoma, Verdana, Helvetica, Arial" fill="#ffffff" dominant-baseline="hanging" transform="matrix(1,0,0,1,225,0)" style="fill: rgb(255, 255, 255);"><tspan dy="0" >REST API</tspan></text><text  id="v-3126" font-size="16.799999999999997px" xml:space="preserve" y="128.5" text-anchor="middle" font-family="Tahoma, Verdana, Helvetica, Arial" fill="#ffffff" dominant-baseline="hanging" transform="matrix(1,0,0,1,225,0)" style="display: block; fill: rgb(255, 255, 255);"><tspan dy="0" >[Software System]</tspan></text><text  id="v-3127" font-size="24px" xml:space="preserve" y="160.3" text-anchor="middle" font-family="Tahoma, Verdana, Helvetica, Arial" fill="#ffffff" dominant-baseline="hanging" transform="matrix(1,0,0,1,225,0)" style="display: block; fill: rgb(255, 255, 255);"><tspan dy="0" >Central REST API containing all</tspan><tspan dy="1.2em" x="0" >bounded context logic.</tspan></text><g  id="v-3128" color="#ffffff" transform="matrix(1,0,0,1,222.5,268)" display="none" style="fill: rgb(255, 255, 255);"><g ></g><g ></g><g ></g><g ></g></g><image  id="v-3129"></image></g></g><!--z-index:24--><g   id="j_297"  transform="translate(200,143)" style="; opacity: 1;"><g id="v-3145"><rect  id="v-3146" width="3810" height="872" rx="0" ry="0" stroke-width="2" pointer-events="none" stroke="#444444" fill="#ffffff" opacity="1" stroke-dasharray=""></rect><text  id="v-3147" font-size="33.599999999999994px" xml:space="preserve" y="833" font-weight="bold" text-anchor="start" pointer-events="visible" font-family="Tahoma, Verdana, Helvetica, Arial" fill="#444444" transform="matrix(1,0,0,1,15,0)"><tspan dy="0" >CortiSense WebApp</tspan></text><text  id="v-3148" font-size="16.799999999999997px" xml:space="preserve" y="857" font-weight="normal" text-anchor="start" pointer-events="visible" font-family="Tahoma, Verdana, Helvetica, Arial" fill="#444444" transform="matrix(1,0,0,1,15,0)"><tspan dy="0" >[Software System]</tspan></text><image  id="v-3149" pointer-events="visible"></image></g></g><!--z-index:25--><g   id="j_296"  transform="translate(3510,356)" style=""><g  id="v-3133" style="opacity: 1;"><rect  id="v-3134" rx="10" ry="10" stroke-width="2" pointer-events="visiblePainted" fill="#2672c0" stroke="#2672c0" stroke-dasharray="" width="450" height="302" style="fill: rgb(38, 114, 192); stroke: rgb(38, 114, 192);"></rect><rect  id="v-3135" rx="10" ry="10" stroke-width="0" pointer-events="visiblePainted" fill="#2a7fd5" stroke="#2672c0" width="446" height="260" x="2" y="40" style="fill: rgb(42, 127, 213);"></rect><ellipse  id="v-3142" fill="#2a7fd5" cx="20" cy="20" rx="10" ry="10" style="fill: rgb(42, 127, 213);"></ellipse><ellipse  id="v-3143" fill="#2a7fd5" cx="50" cy="20" rx="10" ry="10" style="fill: rgb(42, 127, 213);"></ellipse><ellipse  id="v-3144" fill="#2a7fd5" cx="80" cy="20" rx="10" ry="10" style="fill: rgb(42, 127, 213);"></ellipse><rect  id="v-3136" rx="10" ry="10" stroke-width="0" pointer-events="visiblePainted" fill="#2a7fd5" width="340" height="20" x="100" y="10" style="fill: rgb(42, 127, 213);"></rect><text  id="v-3137" font-size="33.599999999999994px" xml:space="preserve" y="106.9" font-weight="bold" text-anchor="middle" pointer-events="visible" font-family="Tahoma, Verdana, Helvetica, Arial" fill="#ffffff" dominant-baseline="hanging" transform="matrix(1,0,0,1,225,0)" style="fill: rgb(255, 255, 255);"><tspan dy="0" >Shared</tspan></text><text  id="v-3138" font-size="16.799999999999997px" xml:space="preserve" y="148.5" text-anchor="middle" font-family="Tahoma, Verdana, Helvetica, Arial" fill="#ffffff" dominant-baseline="hanging" transform="matrix(1,0,0,1,225,0)" style="display: block; fill: rgb(255, 255, 255);"><tspan dy="0" >[Container: Vue, TypeScript]</tspan></text><text  id="v-3139" font-size="24px" xml:space="preserve" y="180.3" text-anchor="middle" font-family="Tahoma, Verdana, Helvetica, Arial" fill="#ffffff" dominant-baseline="hanging" transform="matrix(1,0,0,1,225,0)" style="display: block; fill: rgb(255, 255, 255);"><tspan dy="0" >Provides reusable cross-cutting</tspan><tspan dy="1.2em" x="0" >concerns.</tspan></text><g  id="v-3140" font-weight="normal" text-anchor="middle" color="#ffffff" transform="matrix(1,0,0,1,210,268)" display="none" style="fill: rgb(255, 255, 255);"><g  transform="translate(5 0)"><svg xmlns="http://www.w3.org/2000/svg" width="20" height="20" fill="currentColor" viewBox="0 0 16 16"><path fill-rule="evenodd" d="M6.5 12a5.5 5.5 0 1 0 0-11 5.5 5.5 0 0 0 0 11zM13 6.5a6.5 6.5 0 1 1-13 0 6.5 6.5 0 0 1 13 0z"></path><path d="M10.344 11.742c.03.04.062.078.098.115l3.85 3.85a1 1 0 0 0 1.415-1.414l-3.85-3.85a1.007 1.007 0 0 0-.115-.1 6.538 6.538 0 0 1-1.398 1.4z"></path><path fill-rule="evenodd" d="M6.5 3a.5.5 0 0 1 .5.5V6h2.5a.5.5 0 0 1 0 1H7v2.5a.5.5 0 0 1-1 0V7H3.5a.5.5 0 0 1 0-1H6V3.5a.5.5 0 0 1 .5-.5z"></path></svg></g><g ></g><g ></g><g ></g></g><image  id="v-3141"></image></g></g><!--z-index:26--><g   id="j_299"  transform="translate(250,193)" style="; opacity: 1;"><g id="v-3160"><rect  id="v-3161" width="2920" height="693" rx="20" ry="20" stroke-width="2" pointer-events="none" stroke="#2672c0" fill="#ffffff" opacity="1" stroke-dasharray=""></rect><text  id="v-3162" font-size="33.599999999999994px" xml:space="preserve" y="654" font-weight="bold" text-anchor="start" pointer-events="visible" font-family="Tahoma, Verdana, Helvetica, Arial" fill="#2672c0" transform="matrix(1,0,0,1,15,0)"><tspan dy="0" >Shift Coordination</tspan></text><text  id="v-3163" font-size="16.799999999999997px" xml:space="preserve" y="678" font-weight="normal" text-anchor="start" pointer-events="visible" font-family="Tahoma, Verdana, Helvetica, Arial" fill="#2672c0" transform="matrix(1,0,0,1,15,0)"><tspan dy="0" >[Container]</tspan></text><image  id="v-3164" pointer-events="visible"></image></g></g><!--z-index:27--><g   id="j_298"  transform="translate(300,457)" style=""><g  id="v-3153" style="opacity: 1;"><rect  id="v-3154" rx="20" ry="20" stroke-width="2" pointer-events="visiblePainted" fill="#7b7b7b" stroke="#6f6f6f" stroke-dasharray="" width="450" height="300" style="fill: rgb(123, 123, 123); stroke: rgb(111, 111, 111);"></rect><text  id="v-3155" font-size="33.599999999999994px" xml:space="preserve" y="86.9" font-weight="bold" text-anchor="middle" pointer-events="visible" font-family="Tahoma, Verdana, Helvetica, Arial" fill="#ffffff" dominant-baseline="hanging" transform="matrix(1,0,0,1,225,0)" style="fill: rgb(255, 255, 255);"><tspan dy="0" >Presentation</tspan></text><text  id="v-3156" font-size="16.799999999999997px" xml:space="preserve" y="128.5" text-anchor="middle" font-family="Tahoma, Verdana, Helvetica, Arial" fill="#ffffff" dominant-baseline="hanging" transform="matrix(1,0,0,1,225,0)" style="display: block; fill: rgb(255, 255, 255);"><tspan dy="0" >[Component: Vue Component]</tspan></text><text  id="v-3157" font-size="24px" xml:space="preserve" y="160.3" text-anchor="middle" font-family="Tahoma, Verdana, Helvetica, Arial" fill="#ffffff" dominant-baseline="hanging" transform="matrix(1,0,0,1,225,0)" style="display: block; fill: rgb(255, 255, 255);"><tspan dy="0" >Interactive shift calendar and</tspan><tspan dy="1.2em" x="0" >assignments.</tspan></text><g  id="v-3158" color="#ffffff" transform="matrix(1,0,0,1,222.5,268)" display="none" style="fill: rgb(255, 255, 255);"><g ></g><g ></g><g ></g><g ></g></g><image  id="v-3159"></image></g></g><!--z-index:28--><g   id="j_300"  transform="translate(1090,244)" style=""><g  id="v-3168" style="opacity: 1;"><rect  id="v-3169" rx="20" ry="20" stroke-width="2" pointer-events="visiblePainted" fill="#7b7b7b" stroke="#6f6f6f" stroke-dasharray="" width="450" height="300" style="fill: rgb(123, 123, 123); stroke: rgb(111, 111, 111);"></rect><text  id="v-3170" font-size="33.599999999999994px" xml:space="preserve" y="86.9" font-weight="bold" text-anchor="middle" pointer-events="visible" font-family="Tahoma, Verdana, Helvetica, Arial" fill="#ffffff" dominant-baseline="hanging" transform="matrix(1,0,0,1,225,0)" style="fill: rgb(255, 255, 255);"><tspan dy="0" >Application</tspan></text><text  id="v-3171" font-size="16.799999999999997px" xml:space="preserve" y="128.5" text-anchor="middle" font-family="Tahoma, Verdana, Helvetica, Arial" fill="#ffffff" dominant-baseline="hanging" transform="matrix(1,0,0,1,225,0)" style="display: block; fill: rgb(255, 255, 255);"><tspan dy="0" >[Component: Pinia Store]</tspan></text><text  id="v-3172" font-size="24px" xml:space="preserve" y="160.3" text-anchor="middle" font-family="Tahoma, Verdana, Helvetica, Arial" fill="#ffffff" dominant-baseline="hanging" transform="matrix(1,0,0,1,225,0)" style="display: block; fill: rgb(255, 255, 255);"><tspan dy="0" >Shift orchestration and assignment</tspan><tspan dy="1.2em" x="0" >logic.</tspan></text><g  id="v-3173" color="#ffffff" transform="matrix(1,0,0,1,222.5,268)" display="none" style="fill: rgb(255, 255, 255);"><g ></g><g ></g><g ></g><g ></g></g><image  id="v-3174"></image></g></g><!--z-index:29--><g   id="j_301"  transform="translate(1880,243)" style=""><g  id="v-3178" style="opacity: 1;"><rect  id="v-3179" rx="20" ry="20" stroke-width="2" pointer-events="visiblePainted" fill="#7b7b7b" stroke="#6f6f6f" stroke-dasharray="" width="450" height="300" style="fill: rgb(123, 123, 123); stroke: rgb(111, 111, 111);"></rect><text  id="v-3180" font-size="33.599999999999994px" xml:space="preserve" y="101.30000000000001" font-weight="bold" text-anchor="middle" pointer-events="visible" font-family="Tahoma, Verdana, Helvetica, Arial" fill="#ffffff" dominant-baseline="hanging" transform="matrix(1,0,0,1,225,0)" style="fill: rgb(255, 255, 255);"><tspan dy="0" >Infrastructure</tspan></text><text  id="v-3181" font-size="16.799999999999997px" xml:space="preserve" y="142.9" text-anchor="middle" font-family="Tahoma, Verdana, Helvetica, Arial" fill="#ffffff" dominant-baseline="hanging" transform="matrix(1,0,0,1,225,0)" style="display: block; fill: rgb(255, 255, 255);"><tspan dy="0" >[Component: Axios Service]</tspan></text><text  id="v-3182" font-size="24px" xml:space="preserve" y="174.7" text-anchor="middle" font-family="Tahoma, Verdana, Helvetica, Arial" fill="#ffffff" dominant-baseline="hanging" transform="matrix(1,0,0,1,225,0)" style="display: block; fill: rgb(255, 255, 255);"><tspan dy="0" >Shift API communication.</tspan></text><g  id="v-3183" color="#ffffff" transform="matrix(1,0,0,1,222.5,268)" display="none" style="fill: rgb(255, 255, 255);"><g ></g><g ></g><g ></g><g ></g></g><image  id="v-3184"></image></g></g><!--z-index:30--><g   id="j_302"  transform="translate(2670,384)" style=""><g  id="v-3191" style="opacity: 1;"><rect  id="v-3192" rx="20" ry="20" stroke-width="2" pointer-events="visiblePainted" fill="#7b7b7b" stroke="#6f6f6f" stroke-dasharray="" width="450" height="300" style="fill: rgb(123, 123, 123); stroke: rgb(111, 111, 111);"></rect><text  id="v-3193" font-size="33.599999999999994px" xml:space="preserve" y="86.9" font-weight="bold" text-anchor="middle" pointer-events="visible" font-family="Tahoma, Verdana, Helvetica, Arial" fill="#ffffff" dominant-baseline="hanging" transform="matrix(1,0,0,1,225,0)" style="fill: rgb(255, 255, 255);"><tspan dy="0" >Domain</tspan></text><text  id="v-3194" font-size="16.799999999999997px" xml:space="preserve" y="128.5" text-anchor="middle" font-family="Tahoma, Verdana, Helvetica, Arial" fill="#ffffff" dominant-baseline="hanging" transform="matrix(1,0,0,1,225,0)" style="display: block; fill: rgb(255, 255, 255);"><tspan dy="0" >[Component: TypeScript Interface]</tspan></text><text  id="v-3195" font-size="24px" xml:space="preserve" y="160.3" text-anchor="middle" font-family="Tahoma, Verdana, Helvetica, Arial" fill="#ffffff" dominant-baseline="hanging" transform="matrix(1,0,0,1,225,0)" style="display: block; fill: rgb(255, 255, 255);"><tspan dy="0" >Shift, CareTeam, and Schedule</tspan><tspan dy="1.2em" x="0" >models.</tspan></text><g  id="v-3196" color="#ffffff" transform="matrix(1,0,0,1,222.5,268)" display="none" style="fill: rgb(255, 255, 255);"><g ></g><g ></g><g ></g><g ></g></g><image  id="v-3197"></image></g></g><!--z-index:31--><g   id="j_303"  style="opacity: 1;"><path fill="none" cursor="pointer" stroke="transparent" stroke-linecap="round" joint-selector="wrapper" id="v-3209" stroke-width="10" stroke-linejoin="round" d="M 1540 265.27 L 1701 173 C 1707 169.66666666666669 1713.3333333333333 168.00000000000003 1720 168 L 3330 168 C 3336.6666666666665 168.00000000000003 3342.6666666666665 170.33333333333337 3348 175 L 3559.06 356"></path><path fill="none" pointer-events="none" joint-selector="line" id="v-3208" stroke="#444444" stroke-width="2" stroke-linejoin="round" stroke-dasharray="8 8" d="M 1540 265.27 L 1701 173 C 1707 169.66666666666669 1713.3333333333333 168.00000000000003 1720 168 L 3330 168 C 3336.6666666666665 168.00000000000003 3342.6666666666665 170.33333333333337 3348 175 L 3559.06 356" marker-end="url(#v-21252848929)"></path><g id="v-3201" ><g id="v-3202"  label-idx="0" cursor="move" transform="matrix(1,0,0,1,2499.543701171875,168)" style="cursor: default;"><rect joint-selector="rect" id="v-3205" fill="#ffffff" rx="3" ry="3" x="-89.9709243774414" y="-16.98604393005371" width="180.30828857421875" height="29.767440795898438" pointer-events="none"  style="display: block;"></rect><text joint-selector="text" id="v-3204" font-size="24px" xml:space="preserve" fill="#444444" text-anchor="middle" pointer-events="none" font-family="Tahoma, Verdana, Helvetica, Arial" font-weight="normal"  style="display: block;"><tspan dy="0.3em" >Uses global state</tspan></text></g><g id="v-3203"  label-idx="1" cursor="move" transform="matrix(1,0,0,1,2489.543701171875,180)" style="cursor: default;"><rect joint-selector="rect" id="v-3207" fill="#ffffff" rx="3" ry="3" x="0" y="0" width="0" height="0"  display="none"></rect><text joint-selector="text" id="v-3206" fill="#000000" font-size="14" text-anchor="middle" text-vertical-anchor="middle" pointer-events="none"></text></g></g></g><!--z-index:32--><g   id="j_304"  style="opacity: 1;"><path fill="none" cursor="pointer" stroke="transparent" stroke-linecap="round" joint-selector="wrapper" id="v-3221" stroke-width="10" stroke-linejoin="round" d="M 2330 308.35 L 2491 248 C 2497 245.6 2503.333333333333 244.26666666666665 2510 244 L 3330 244 C 3336.6666666666665 244.26666666666665 3342.6666666666665 246.26666666666665 3348 250 L 3510 357.42"></path><path fill="none" pointer-events="none" joint-selector="line" id="v-3220" stroke="#444444" stroke-width="2" stroke-linejoin="round" stroke-dasharray="8 8" d="M 2330 308.35 L 2491 248 C 2497 245.6 2503.333333333333 244.26666666666665 2510 244 L 3330 244 C 3336.6666666666665 244.26666666666665 3342.6666666666665 246.26666666666665 3348 250 L 3510 357.42" marker-end="url(#v-21252848929)"></path><g id="v-3213" ><g id="v-3214"  label-idx="0" cursor="move" transform="matrix(1,0,0,1,2894.942626953125,244)" style="cursor: default;"><rect joint-selector="rect" id="v-3217" fill="#ffffff" rx="3" ry="3" x="-56.409881591796875" y="-31.38604736328125" width="113.24473571777344" height="58.56744384765625" pointer-events="none"  style="display: block;"></rect><text joint-selector="text" id="v-3216" font-size="24px" xml:space="preserve" fill="#444444" text-anchor="middle" pointer-events="none" font-family="Tahoma, Verdana, Helvetica, Arial" font-weight="normal"  style="display: block;"><tspan dy="-0.3em" >Uses Axios</tspan><tspan dy="1.2em" x="0" >instance</tspan></text></g><g id="v-3215"  label-idx="1" cursor="move" transform="matrix(1,0,0,1,2884.942626953125,270.3999938964844)" style="cursor: default;"><rect joint-selector="rect" id="v-3219" fill="#ffffff" rx="3" ry="3" x="-4.547473508864641e-13" y="0" width="0" height="0"  display="none"></rect><text joint-selector="text" id="v-3218" fill="#000000" font-size="14" text-anchor="middle" text-vertical-anchor="middle" pointer-events="none"></text></g></g></g><!--z-index:33--><g   id="j_305"  style="opacity: 1;"><path fill="none" cursor="pointer" stroke="transparent" stroke-linecap="round" joint-selector="wrapper" id="v-3233" stroke-width="10" stroke-linejoin="round" d="M 3120 534.46 L 3330 535 C 3336.6666666666665 534.9333333333333 3343.333333333333 534.5999999999999 3350 534 L 3510 522.89"></path><path fill="none" pointer-events="none" joint-selector="line" id="v-3232" stroke="#444444" stroke-width="2" stroke-linejoin="round" stroke-dasharray="8 8" d="M 3120 534.46 L 3330 535 C 3336.6666666666665 534.9333333333333 3343.333333333333 534.5999999999999 3350 534 L 3510 522.89" marker-end="url(#v-21252848929)"></path><g id="v-3225" ><g id="v-3226"  label-idx="0" cursor="move" transform="matrix(1,0,0,1,3339.9609375,534.7019653320312)" style="cursor: default;"><rect joint-selector="rect" id="v-3229" fill="#ffffff" rx="3" ry="3" x="-81.0029067993164" y="-31.38604736328125" width="162.0058135986328" height="58.56744384765625" pointer-events="none"  style="display: block;"></rect><text joint-selector="text" id="v-3228" font-size="24px" xml:space="preserve" fill="#444444" text-anchor="middle" pointer-events="none" font-family="Tahoma, Verdana, Helvetica, Arial" font-weight="normal"  style="display: block;"><tspan dy="-0.3em" >Extends shared</tspan><tspan dy="1.2em" x="0" >types</tspan></text></g><g id="v-3227"  label-idx="1" cursor="move" transform="matrix(1,0,0,1,3329.9609375,561.1019287109375)" style="cursor: default;"><rect joint-selector="rect" id="v-3231" fill="#ffffff" rx="3" ry="3" x="0" y="1.1368683772161603e-13" width="0" height="0"  display="none"></rect><text joint-selector="text" id="v-3230" fill="#000000" font-size="14" text-anchor="middle" text-vertical-anchor="middle" pointer-events="none"></text></g></g></g><!--z-index:34--><g   id="j_306"  style="opacity: 1;"><path fill="none" cursor="pointer" stroke="transparent" stroke-linecap="round" joint-selector="wrapper" id="v-3248" stroke-width="10" stroke-linejoin="round" d="M 3960 506.6 L 4170 506 C 4176.666666666666 506.1333333333333 4183 507.4666666666667 4189 510 L 4350 568.52"></path><path fill="none" pointer-events="none" joint-selector="line" id="v-3247" stroke="#444444" stroke-width="2" stroke-linejoin="round" stroke-dasharray="8 8" d="M 3960 506.6 L 4170 506 C 4176.666666666666 506.1333333333333 4183 507.4666666666667 4189 510 L 4350 568.52" marker-end="url(#v-21252848929)"></path><g id="v-3237" ><g id="v-3238"  label-idx="0" cursor="move" transform="matrix(1,0,0,1,4179.787109375,493.70782470703125)" style="cursor: default;"><rect joint-selector="rect" id="v-3242" fill="#ffffff" rx="3" ry="3" x="-77.45639038085938" y="-45.78604507446289" width="155.0070343017578" height="87.36744689941406" pointer-events="none"  style="display: block;"></rect><text joint-selector="text" id="v-3241" font-size="24px" xml:space="preserve" fill="#444444" text-anchor="middle" pointer-events="none" font-family="Tahoma, Verdana, Helvetica, Arial" font-weight="normal"  style="display: block;"><tspan dy="-0.8999999999999999em" >Handles global</tspan><tspan dy="1.2em" x="0" >requests/</tspan><tspan dy="1.2em" x="0" >interceptors</tspan></text></g><g id="v-3239"  label-idx="1" cursor="move" transform="matrix(1,0,0,1,4179.787109375,552.9078369140625)" style="cursor: default;"><rect joint-selector="rect" id="v-3244" fill="#ffffff" rx="3" ry="3" x="-53.76453399658203" y="-11.704185485839844" width="108.52061462402344" height="20.46511459350586"  pointer-events="none" style="display: block;"></rect><text joint-selector="text" id="v-3243" font-size="16.799999999999997px" xml:space="preserve" fill="#444444" text-anchor="middle" pointer-events="none" font-family="Tahoma, Verdana, Helvetica, Arial" font-weight="normal"  style="display: block;"><tspan dy="0.3em" >[JSON/HTTPS]</tspan></text></g><g id="v-3240"  label-idx="2" cursor="move" transform="matrix(1,0,0,1,4150.4189453125,560.2273559570312)" style="cursor: default;"><rect joint-selector="rect" id="v-3246" fill="#ffffff" rx="3" ry="3" x="0" y="0" width="0" height="0"  display="none"></rect><text joint-selector="text" id="v-3245" fill="#000000" font-size="14" text-anchor="middle" text-vertical-anchor="middle" pointer-events="none"></text></g></g></g><!--z-index:35--><g   id="j_307"  style="opacity: 1;"><path fill="none" cursor="pointer" stroke="transparent" stroke-linecap="round" joint-selector="wrapper" id="v-3260" stroke-width="10" stroke-linejoin="round" d="M 750 485.9 L 911 399 C 916.9999999999999 395.9333333333334 923.3333333333333 394.2666666666667 930 394 L 1090 394.23"></path><path fill="none" pointer-events="none" joint-selector="line" id="v-3259" stroke="#444444" stroke-width="2" stroke-linejoin="round" stroke-dasharray="8 8" d="M 750 485.9 L 911 399 C 916.9999999999999 395.9333333333334 923.3333333333333 394.2666666666667 930 394 L 1090 394.23" marker-end="url(#v-21252848929)"></path><g id="v-3252" ><g id="v-3253"  label-idx="0" cursor="move" transform="matrix(1,0,0,1,920.32421875,395.4305419921875)" style="cursor: default;"><rect joint-selector="rect" id="v-3256" fill="#ffffff" rx="3" ry="3" x="-89.95639038085938" y="-16.98604393005371" width="180.21498107910156" height="29.767440795898438" pointer-events="none"  style="display: block;"></rect><text joint-selector="text" id="v-3255" font-size="24px" xml:space="preserve" fill="#444444" text-anchor="middle" pointer-events="none" font-family="Tahoma, Verdana, Helvetica, Arial" font-weight="normal"  style="display: block;"><tspan dy="0.3em" >Reads state from</tspan></text></g><g id="v-3254"  label-idx="1" cursor="move" transform="matrix(1,0,0,1,910.32421875,407.4305419921875)" style="cursor: default;"><rect joint-selector="rect" id="v-3258" fill="#ffffff" rx="3" ry="3" x="0" y="0" width="0" height="0"  display="none"></rect><text joint-selector="text" id="v-3257" fill="#000000" font-size="14" text-anchor="middle" text-vertical-anchor="middle" pointer-events="none"></text></g></g></g><!--z-index:36--><g   id="j_308"  style="opacity: 1;"><path fill="none" cursor="pointer" stroke="transparent" stroke-linecap="round" joint-selector="wrapper" id="v-3272" stroke-width="10" stroke-linejoin="round" d="M 1540 393.43 L 1700 393 C 1706.6666666666665 393.00000000000006 1713.3333333333333 393.00000000000006 1720 393 L 1880 393"></path><path fill="none" pointer-events="none" joint-selector="line" id="v-3271" stroke="#444444" stroke-width="2" stroke-linejoin="round" stroke-dasharray="8 8" d="M 1540 393.43 L 1700 393 C 1706.6666666666665 393.00000000000006 1713.3333333333333 393.00000000000006 1720 393 L 1880 393" marker-end="url(#v-21252848929)"></path><g id="v-3264" ><g id="v-3265"  label-idx="0" cursor="move" transform="matrix(1,0,0,1,1710,393)" style="cursor: default;"><rect joint-selector="rect" id="v-3268" fill="#ffffff" rx="3" ry="3" x="-63.59011459350586" y="-31.38604736328125" width="127.18022918701172" height="58.56744384765625" pointer-events="none"  style="display: block;"></rect><text joint-selector="text" id="v-3267" font-size="24px" xml:space="preserve" fill="#444444" text-anchor="middle" pointer-events="none" font-family="Tahoma, Verdana, Helvetica, Arial" font-weight="normal"  style="display: block;"><tspan dy="-0.3em" >Fetches and</tspan><tspan dy="1.2em" x="0" >updates via</tspan></text></g><g id="v-3266"  label-idx="1" cursor="move" transform="matrix(1,0,0,1,1700,419.3999938964844)" style="cursor: default;"><rect joint-selector="rect" id="v-3270" fill="#ffffff" rx="3" ry="3" x="0" y="0" width="0" height="0"  display="none"></rect><text joint-selector="text" id="v-3269" fill="#000000" font-size="14" text-anchor="middle" text-vertical-anchor="middle" pointer-events="none"></text></g></g></g><!--z-index:37--><g   id="j_309"  style="opacity: 1;"><path fill="none" cursor="pointer" stroke="transparent" stroke-linecap="round" joint-selector="wrapper" id="v-3287" stroke-width="10" stroke-linejoin="round" d="M 2219.63 543 L 2494 902 C 2498 907.2666666666667 2503.333333333333 909.9333333333334 2510 910 L 4170 910 C 4176.666666666666 909.9333333333334 4182.666666666666 907.9333333333334 4188 904 L 4350 798.47"></path><path fill="none" pointer-events="none" joint-selector="line" id="v-3286" stroke="#444444" stroke-width="2" stroke-linejoin="round" stroke-dasharray="8 8" d="M 2219.63 543 L 2494 902 C 2498 907.2666666666667 2503.333333333333 909.9333333333334 2510 910 L 4170 910 C 4176.666666666666 909.9333333333334 4182.666666666666 907.9333333333334 4188 904 L 4350 798.47" marker-end="url(#v-21252848929)"></path><g id="v-3276" ><g id="v-3277"  label-idx="0" cursor="move" transform="matrix(1,0,0,1,3340.262939453125,896.5999755859375)" style="cursor: default;"><rect joint-selector="rect" id="v-3281" fill="#ffffff" rx="3" ry="3" x="-52.1075553894043" y="-31.38604736328125" width="105.4897232055664" height="58.56744384765625" pointer-events="none"  style="display: block;"></rect><text joint-selector="text" id="v-3280" font-size="24px" xml:space="preserve" fill="#444444" text-anchor="middle" pointer-events="none" font-family="Tahoma, Verdana, Helvetica, Arial" font-weight="normal"  style="display: block;"><tspan dy="-0.3em" >Calls Shift</tspan><tspan dy="1.2em" x="0" >endpoints</tspan></text></g><g id="v-3278"  label-idx="1" cursor="move" transform="matrix(1,0,0,1,3340.262939453125,941.4000244140625)" style="cursor: default;"><rect joint-selector="rect" id="v-3283" fill="#ffffff" rx="3" ry="3" x="-53.76453399658203" y="-11.704185485839844" width="108.52061462402344" height="20.46511459350586"  pointer-events="none" style="display: block;"></rect><text joint-selector="text" id="v-3282" font-size="16.799999999999997px" xml:space="preserve" fill="#444444" text-anchor="middle" pointer-events="none" font-family="Tahoma, Verdana, Helvetica, Arial" font-weight="normal"  style="display: block;"><tspan dy="0.3em" >[JSON/HTTPS]</tspan></text></g><g id="v-3279"  label-idx="2" cursor="move" transform="matrix(1,0,0,1,3201.108154296875,949.7999877929688)" style="cursor: default;"><rect joint-selector="rect" id="v-3285" fill="#ffffff" rx="3" ry="3" x="-4.547473508864641e-13" y="0" width="0" height="0"  display="none"></rect><text joint-selector="text" id="v-3284" fill="#000000" font-size="14" text-anchor="middle" text-vertical-anchor="middle" pointer-events="none"></text></g></g></g><!--z-index:38--><g   id="j_310"  style="opacity: 1;"><path fill="none" cursor="pointer" stroke="transparent" stroke-linecap="round" joint-selector="wrapper" id="v-3299" stroke-width="10" stroke-linejoin="round" d="M 2330 408.04 L 2490 419 C 2496.6666666666665 419.26666666666665 2503.333333333333 420.26666666666665 2510 422 L 2670 468.72"></path><path fill="none" pointer-events="none" joint-selector="line" id="v-3298" stroke="#444444" stroke-width="2" stroke-linejoin="round" stroke-dasharray="8 8" d="M 2330 408.04 L 2490 419 C 2496.6666666666665 419.26666666666665 2503.333333333333 420.26666666666665 2510 422 L 2670 468.72" marker-end="url(#v-21252848929)"></path><g id="v-3291" ><g id="v-3292"  label-idx="0" cursor="move" transform="matrix(1,0,0,1,2499.8828125,419.9324951171875)" style="cursor: default;"><rect joint-selector="rect" id="v-3295" fill="#ffffff" rx="3" ry="3" x="-80.93022918701172" y="-16.98604393005371" width="160" height="29.767440795898438" pointer-events="none"  style="display: block;"></rect><text joint-selector="text" id="v-3294" font-size="24px" xml:space="preserve" fill="#444444" text-anchor="middle" pointer-events="none" font-family="Tahoma, Verdana, Helvetica, Arial" font-weight="normal"  style="display: block;"><tspan dy="0.3em" >Assembles into</tspan></text></g><g id="v-3293"  label-idx="1" cursor="move" transform="matrix(1,0,0,1,2489.8828125,431.9324951171875)" style="cursor: default;"><rect joint-selector="rect" id="v-3297" fill="#ffffff" rx="3" ry="3" x="0" y="0" width="0" height="0"  display="none"></rect><text joint-selector="text" id="v-3296" fill="#000000" font-size="14" text-anchor="middle" text-vertical-anchor="middle" pointer-events="none"></text></g></g></g><!--z-index:39--><g   id="j_311"  style="opacity: 1;"><path fill="none" cursor="pointer" stroke="transparent" stroke-linecap="round" joint-selector="wrapper" id="v-3311" stroke-width="10" stroke-linejoin="round" d="M 1540 537.43 L 1702 640 C 1707.3333333333333 643.8666666666667 1713.3333333333333 645.8666666666667 1720 646 L 2490 646 C 2496.6666666666665 645.8666666666667 2503.333333333333 644.8666666666667 2510 643 L 2670 597.68"></path><path fill="none" pointer-events="none" joint-selector="line" id="v-3310" stroke="#444444" stroke-width="2" stroke-linejoin="round" stroke-dasharray="8 8" d="M 1540 537.43 L 1702 640 C 1707.3333333333333 643.8666666666667 1713.3333333333333 645.8666666666667 1720 646 L 2490 646 C 2496.6666666666665 645.8666666666667 2503.333333333333 644.8666666666667 2510 643 L 2670 597.68" marker-end="url(#v-21252848929)"></path><g id="v-3303" ><g id="v-3304"  label-idx="0" cursor="move" transform="matrix(1,0,0,1,2105.240234375,646)" style="cursor: default;"><rect joint-selector="rect" id="v-3307" fill="#ffffff" rx="3" ry="3" x="-73.7936019897461" y="-31.38604736328125" width="148.02593994140625" height="58.56744384765625" pointer-events="none"  style="display: block;"></rect><text joint-selector="text" id="v-3306" font-size="24px" xml:space="preserve" fill="#444444" text-anchor="middle" pointer-events="none" font-family="Tahoma, Verdana, Helvetica, Arial" font-weight="normal"  style="display: block;"><tspan dy="-0.3em" >Uses business</tspan><tspan dy="1.2em" x="0" >rules</tspan></text></g><g id="v-3305"  label-idx="1" cursor="move" transform="matrix(1,0,0,1,2095.240234375,672.4000244140625)" style="cursor: default;"><rect joint-selector="rect" id="v-3309" fill="#ffffff" rx="3" ry="3" x="0" y="0" width="0" height="0"  display="none"></rect><text joint-selector="text" id="v-3308" fill="#000000" font-size="14" text-anchor="middle" text-vertical-anchor="middle" pointer-events="none"></text></g></g></g><!--z-index:40--><g   id="j_312"  style="opacity: 1;"><path fill="none" cursor="pointer" stroke="transparent" stroke-linecap="round" joint-selector="wrapper" id="v-3323" stroke-width="10" stroke-linejoin="round" d="M 750 711.24 L 911 786 C 916.9999999999999 788.6666666666666 923.3333333333333 790 930 790 L 3330 790 C 3336.6666666666665 790 3342.6666666666665 788 3348 784 L 3524.24 658"></path><path fill="none" pointer-events="none" joint-selector="line" id="v-3322" stroke="#444444" stroke-width="2" stroke-linejoin="round" stroke-dasharray="8 8" d="M 750 711.24 L 911 786 C 916.9999999999999 788.6666666666666 923.3333333333333 790 930 790 L 3330 790 C 3336.6666666666665 790 3342.6666666666665 788 3348 784 L 3524.24 658" marker-end="url(#v-21252848929)"></path><g id="v-3315" ><g id="v-3316"  label-idx="0" cursor="move" transform="matrix(1,0,0,1,2103.473876953125,790)" style="cursor: default;"><rect joint-selector="rect" id="v-3319" fill="#ffffff" rx="3" ry="3" x="-76.30813598632812" y="-16.98604393005371" width="152.9623565673828" height="29.767440795898438" pointer-events="none"  style="display: block;"></rect><text joint-selector="text" id="v-3318" font-size="24px" xml:space="preserve" fill="#444444" text-anchor="middle" pointer-events="none" font-family="Tahoma, Verdana, Helvetica, Arial" font-weight="normal"  style="display: block;"><tspan dy="0.3em" >Uses global UI</tspan></text></g><g id="v-3317"  label-idx="1" cursor="move" transform="matrix(1,0,0,1,2093.473876953125,802)" style="cursor: default;"><rect joint-selector="rect" id="v-3321" fill="#ffffff" rx="3" ry="3" x="-2.2737367544323206e-13" y="0" width="0" height="0"  display="none"></rect><text joint-selector="text" id="v-3320" fill="#000000" font-size="14" text-anchor="middle" text-vertical-anchor="middle" pointer-events="none"></text></g></g></g><!--z-index:41--><!--z-index:42--><!--z-index:43--><!--z-index:44--><!--z-index:45--><!--z-index:46--><!--z-index:47--><!--z-index:48--><!--z-index:49--><!--z-index:50--><!--z-index:51--><!--z-index:52--><!--z-index:53--><!--z-index:54--><!--z-index:55--><!--z-index:56--><!--z-index:57--><!--z-index:58--><!--z-index:59--><!--z-index:60--><!--z-index:61--><!--z-index:62--><!--z-index:63--><!--z-index:64--><!--z-index:65--><!--z-index:66--><!--z-index:67--><!--z-index:68--><!--z-index:69--><!--z-index:70--><!--z-index:71--><!--z-index:72--><!--z-index:73--><!--z-index:74--><!--z-index:75--><!--z-index:76--><!--z-index:77--><!--z-index:78--><!--z-index:79--><!--z-index:80--><!--z-index:81--><!--z-index:82--><!--z-index:83--><!--z-index:84--><!--z-index:85--><!--z-index:86--><!--z-index:87--><!--z-index:88--><!--z-index:89--><!--z-index:90--><!--z-index:91--><!--z-index:92--><!--z-index:93--><!--z-index:94--><!--z-index:95--><!--z-index:96--><!--z-index:97--><!--z-index:98--><!--z-index:99--><!--z-index:100--><!--z-index:101--></g><g  style="user-select: none;"></g><g ></g><g  display="none"></g></g></svg>