<svg xmlns="http://www.w3.org/2000/svg" xmlns:xlink="http://www.w3.org/1999/xlink" version="1.1" style="background: #ffffff" viewBox="0 0 2430 2050"><style id="v-3" type="text/css">        .joint-element .scalable * {            vector-effect: non-scaling-stroke;        }    </style><defs joint-selector="defs"><marker id="v-21252848929" orient="auto" overflow="visible" markerUnits="userSpaceOnUse"><path id="v-114" stroke="#444444" fill="#444444" transform="rotate(180)" d="M 20 -10 0 0 20 10 Z"></path></marker></defs><g joint-selector="layers"  transform="matrix(1,0,0,1,0,0)"><g  style="pointer-events: none;"></g><g ></g><g  style="user-select: none;"><!--z-index:0--><!--z-index:1--><!--z-index:2--><!--z-index:3--><!--z-index:4--><!--z-index:5--><!--z-index:6--><!--z-index:7--><!--z-index:8--><!--z-index:9--><!--z-index:10--><!--z-index:11--><!--z-index:12--><!--z-index:13--><!--z-index:14--><!--z-index:15--><g   id="j_129"  transform="translate(20,2006)"><g id="v-1492"><text  id="v-1493" font-size="24px" xml:space="preserve" y="0.8em" font-weight="normal" text-anchor="start" fill="#444444" pointer-events="none" display="block" font-family="Tahoma, Verdana, Helvetica, Arial"><tspan dy="0" >martes, 7 de julio de 2026, 4:07 p. m. hora estándar de Perú</tspan></text></g></g><!--z-index:16--><g   id="j_128"  transform="translate(20,1972)"><g id="v-1490"><text  id="v-1491" font-size="24px" xml:space="preserve" y="0.8em" font-weight="normal" text-anchor="start" fill="#444444" pointer-events="none" display="block" font-family="Tahoma, Verdana, Helvetica, Arial"><tspan dy="0" >Software Architecture Context Diagram</tspan></text></g></g><!--z-index:17--><g   id="j_127"  transform="translate(20,1926)"><g id="v-1488"><text  id="v-1489" font-size="36px" xml:space="preserve" y="0.8em" font-weight="normal" text-anchor="start" fill="#444444" pointer-events="none" display="block" font-family="Tahoma, Verdana, Helvetica, Arial"><tspan dy="0" >System Context View: CortiSense System</tspan></text></g></g><!--z-index:18--><g   id="j_130"  transform="translate(225,142)" style=""><g  id="v-1500" style="opacity: 1;"><rect  x="0" y="160" width="400" height="240" rx="70" id="v-1502" stroke-width="2" pointer-events="visiblePainted" fill="#1168bd" stroke="#0f5eaa" stroke-dasharray="" style="fill: rgb(17, 104, 189); stroke: rgb(15, 94, 170);"></rect><circle  cx="200" cy="88.88888888888889" r="88.88888888888889" id="v-1501" stroke-width="2" pointer-events="visiblePainted" fill="#1168bd" stroke="#0f5eaa" stroke-dasharray="" style="fill: rgb(17, 104, 189); stroke: rgb(15, 94, 170);"></circle><line  x1="80" y1="266.6666666666667" x2="80" y2="400" id="v-1508" stroke="#0f5eaa" stroke-width="1" stroke-dasharray="" style="stroke: rgb(15, 94, 170);"></line><line  x1="320" y1="266.6666666666667" x2="320" y2="400" id="v-1509" stroke="#0f5eaa" stroke-width="1" stroke-dasharray="" style="stroke: rgb(15, 94, 170);"></line><text  id="v-1503" font-size="33.599999999999994px" xml:space="preserve" y="196.74" font-weight="bold" text-anchor="middle" pointer-events="visible" font-family="Tahoma, Verdana, Helvetica, Arial" fill="#ffffff" dominant-baseline="hanging" transform="matrix(1,0,0,1,200,0)" style="fill: rgb(255, 255, 255);"><tspan dy="0" >Institutional</tspan><tspan dy="1.2em" x="0" >Administrator</tspan></text><text  id="v-1504" font-size="16.799999999999997px" xml:space="preserve" y="278.65999999999997" text-anchor="middle" font-family="Tahoma, Verdana, Helvetica, Arial" fill="#ffffff" dominant-baseline="hanging" transform="matrix(1,0,0,1,200,0)" style="display: block; fill: rgb(255, 255, 255);"><tspan dy="0" >[Person]</tspan></text><text  id="v-1505" font-size="24px" xml:space="preserve" y="310.46" text-anchor="middle" font-family="Tahoma, Verdana, Helvetica, Arial" fill="#ffffff" dominant-baseline="hanging" transform="matrix(1,0,0,1,200,0)" style="display: block; fill: rgb(255, 255, 255);"><tspan dy="0" >Administra la suscripción y</tspan><tspan dy="1.2em" x="0" >gestiona roles del hospital.</tspan></text><g  id="v-1506" font-weight="normal" text-anchor="middle" color="#ffffff" transform="matrix(1,0,0,1,197.5,368)" style="fill: rgb(255, 255, 255);" display="none"><g ></g><g ></g><g ></g><g ></g></g><image  id="v-1507"></image></g></g><!--z-index:19--><g   id="j_131"  transform="translate(225,592)" style=""><g  id="v-1516" style="opacity: 1;"><rect  x="0" y="160" width="400" height="240" rx="70" id="v-1518" stroke-width="2" pointer-events="visiblePainted" fill="#1168bd" stroke="#0f5eaa" stroke-dasharray="" style="fill: rgb(17, 104, 189); stroke: rgb(15, 94, 170);"></rect><circle  cx="200" cy="88.88888888888889" r="88.88888888888889" id="v-1517" stroke-width="2" pointer-events="visiblePainted" fill="#1168bd" stroke="#0f5eaa" stroke-dasharray="" style="fill: rgb(17, 104, 189); stroke: rgb(15, 94, 170);"></circle><line  x1="80" y1="266.6666666666667" x2="80" y2="400" id="v-1524" stroke="#0f5eaa" stroke-width="1" stroke-dasharray="" style="stroke: rgb(15, 94, 170);"></line><line  x1="320" y1="266.6666666666667" x2="320" y2="400" id="v-1525" stroke="#0f5eaa" stroke-width="1" stroke-dasharray="" style="stroke: rgb(15, 94, 170);"></line><text  id="v-1519" font-size="33.599999999999994px" xml:space="preserve" y="216.9" font-weight="bold" text-anchor="middle" pointer-events="visible" font-family="Tahoma, Verdana, Helvetica, Arial" fill="#ffffff" dominant-baseline="hanging" transform="matrix(1,0,0,1,200,0)" style="fill: rgb(255, 255, 255);"><tspan dy="0" >Clinical Supervisor</tspan></text><text  id="v-1520" font-size="16.799999999999997px" xml:space="preserve" y="258.5" text-anchor="middle" font-family="Tahoma, Verdana, Helvetica, Arial" fill="#ffffff" dominant-baseline="hanging" transform="matrix(1,0,0,1,200,0)" style="display: block; fill: rgb(255, 255, 255);"><tspan dy="0" >[Person]</tspan></text><text  id="v-1521" font-size="24px" xml:space="preserve" y="290.3" text-anchor="middle" font-family="Tahoma, Verdana, Helvetica, Arial" fill="#ffffff" dominant-baseline="hanging" transform="matrix(1,0,0,1,200,0)" style="display: block; fill: rgb(255, 255, 255);"><tspan dy="0" >Monitorea alertas, gestiona</tspan><tspan dy="1.2em" x="0" >turnos y aprueba descansos.</tspan></text><g  id="v-1522" font-weight="normal" text-anchor="middle" color="#ffffff" transform="matrix(1,0,0,1,197.5,368)" style="fill: rgb(255, 255, 255);" display="none"><g ></g><g ></g><g ></g><g ></g></g><image  id="v-1523"></image></g></g><!--z-index:20--><g   id="j_132"  transform="translate(225,1042)" style=""><g  id="v-1529" style="opacity: 1;"><rect  x="0" y="160" width="400" height="240" rx="70" id="v-1531" stroke-width="2" pointer-events="visiblePainted" fill="#1168bd" stroke="#0f5eaa" stroke-dasharray="" style="fill: rgb(17, 104, 189); stroke: rgb(15, 94, 170);"></rect><circle  cx="200" cy="88.88888888888889" r="88.88888888888889" id="v-1530" stroke-width="2" pointer-events="visiblePainted" fill="#1168bd" stroke="#0f5eaa" stroke-dasharray="" style="fill: rgb(17, 104, 189); stroke: rgb(15, 94, 170);"></circle><line  x1="80" y1="266.6666666666667" x2="80" y2="400" id="v-1537" stroke="#0f5eaa" stroke-width="1" stroke-dasharray="" style="stroke: rgb(15, 94, 170);"></line><line  x1="320" y1="266.6666666666667" x2="320" y2="400" id="v-1538" stroke="#0f5eaa" stroke-width="1" stroke-dasharray="" style="stroke: rgb(15, 94, 170);"></line><text  id="v-1532" font-size="33.599999999999994px" xml:space="preserve" y="216.9" font-weight="bold" text-anchor="middle" pointer-events="visible" font-family="Tahoma, Verdana, Helvetica, Arial" fill="#ffffff" dominant-baseline="hanging" transform="matrix(1,0,0,1,200,0)" style="fill: rgb(255, 255, 255);"><tspan dy="0" >Medical Staff</tspan></text><text  id="v-1533" font-size="16.799999999999997px" xml:space="preserve" y="258.5" text-anchor="middle" font-family="Tahoma, Verdana, Helvetica, Arial" fill="#ffffff" dominant-baseline="hanging" transform="matrix(1,0,0,1,200,0)" style="display: block; fill: rgb(255, 255, 255);"><tspan dy="0" >[Person]</tspan></text><text  id="v-1534" font-size="24px" xml:space="preserve" y="290.3" text-anchor="middle" font-family="Tahoma, Verdana, Helvetica, Arial" fill="#ffffff" dominant-baseline="hanging" transform="matrix(1,0,0,1,200,0)" style="display: block; fill: rgb(255, 255, 255);"><tspan dy="0" >Personal médico que utiliza</tspan><tspan dy="1.2em" x="0" >dispositivos IoT.</tspan></text><g  id="v-1535" font-weight="normal" text-anchor="middle" color="#ffffff" transform="matrix(1,0,0,1,197.5,368)" style="fill: rgb(255, 255, 255);" display="none"><g ></g><g ></g><g ></g><g ></g></g><image  id="v-1536"></image></g></g><!--z-index:21--><g   id="j_133"  transform="translate(1780,692)" style=""><g  id="v-1542" style="opacity: 1;"><rect  id="v-1543" rx="1" ry="1" stroke-width="2" pointer-events="visiblePainted" fill="#68b736" stroke="#5ea531" stroke-dasharray="" width="450" height="300" style="fill: rgb(104, 183, 54); stroke: rgb(94, 165, 49);"></rect><text  id="v-1544" font-size="33.599999999999994px" xml:space="preserve" y="86.9" font-weight="bold" text-anchor="middle" pointer-events="visible" font-family="Tahoma, Verdana, Helvetica, Arial" fill="#ffffff" dominant-baseline="hanging" transform="matrix(1,0,0,1,225,0)" style="fill: rgb(255, 255, 255);"><tspan dy="0" >Stripe API</tspan></text><text  id="v-1545" font-size="16.799999999999997px" xml:space="preserve" y="128.5" text-anchor="middle" font-family="Tahoma, Verdana, Helvetica, Arial" fill="#ffffff" dominant-baseline="hanging" transform="matrix(1,0,0,1,225,0)" style="display: block; fill: rgb(255, 255, 255);"><tspan dy="0" >[Software System]</tspan></text><text  id="v-1546" font-size="24px" xml:space="preserve" y="160.3" text-anchor="middle" font-family="Tahoma, Verdana, Helvetica, Arial" fill="#ffffff" dominant-baseline="hanging" transform="matrix(1,0,0,1,225,0)" style="display: block; fill: rgb(255, 255, 255);"><tspan dy="0" >Pasarela de pagos para las</tspan><tspan dy="1.2em" x="0" >suscripciones.</tspan></text><g  id="v-1547" color="#ffffff" transform="matrix(1,0,0,1,222.5,268)" style="fill: rgb(255, 255, 255);" display="none"><g ></g><g ></g><g ></g><g ></g></g><image  id="v-1548"></image></g></g><!--z-index:22--><g   id="j_134"  transform="translate(1780,1042)" style=""><g  id="v-1552" style="opacity: 1;"><rect  id="v-1553" rx="1" ry="1" stroke-width="2" pointer-events="visiblePainted" fill="#68b736" stroke="#5ea531" stroke-dasharray="" width="450" height="300" style="fill: rgb(104, 183, 54); stroke: rgb(94, 165, 49);"></rect><text  id="v-1554" font-size="33.599999999999994px" xml:space="preserve" y="86.9" font-weight="bold" text-anchor="middle" pointer-events="visible" font-family="Tahoma, Verdana, Helvetica, Arial" fill="#ffffff" dominant-baseline="hanging" transform="matrix(1,0,0,1,225,0)" style="fill: rgb(255, 255, 255);"><tspan dy="0" >Firebase Auth</tspan></text><text  id="v-1555" font-size="16.799999999999997px" xml:space="preserve" y="128.5" text-anchor="middle" font-family="Tahoma, Verdana, Helvetica, Arial" fill="#ffffff" dominant-baseline="hanging" transform="matrix(1,0,0,1,225,0)" style="display: block; fill: rgb(255, 255, 255);"><tspan dy="0" >[Software System]</tspan></text><text  id="v-1556" font-size="24px" xml:space="preserve" y="160.3" text-anchor="middle" font-family="Tahoma, Verdana, Helvetica, Arial" fill="#ffffff" dominant-baseline="hanging" transform="matrix(1,0,0,1,225,0)" style="display: block; fill: rgb(255, 255, 255);"><tspan dy="0" >Proveedor de identidad y tokens</tspan><tspan dy="1.2em" x="0" >JWT.</tspan></text><g  id="v-1557" color="#ffffff" transform="matrix(1,0,0,1,222.5,268)" style="fill: rgb(255, 255, 255);" display="none"><g ></g><g ></g><g ></g><g ></g></g><image  id="v-1558"></image></g></g><!--z-index:23--><g   id="j_135"  transform="translate(200,1492)" style=""><g  id="v-1562" style="opacity: 1;"><rect  id="v-1563" rx="1" ry="1" stroke-width="2" pointer-events="visiblePainted" fill="#68b736" stroke="#5ea531" stroke-dasharray="" width="450" height="300" style="fill: rgb(104, 183, 54); stroke: rgb(94, 165, 49);"></rect><text  id="v-1564" font-size="33.599999999999994px" xml:space="preserve" y="86.9" font-weight="bold" text-anchor="middle" pointer-events="visible" font-family="Tahoma, Verdana, Helvetica, Arial" fill="#ffffff" dominant-baseline="hanging" transform="matrix(1,0,0,1,225,0)" style="fill: rgb(255, 255, 255);"><tspan dy="0" >IoT Wearables</tspan></text><text  id="v-1565" font-size="16.799999999999997px" xml:space="preserve" y="128.5" text-anchor="middle" font-family="Tahoma, Verdana, Helvetica, Arial" fill="#ffffff" dominant-baseline="hanging" transform="matrix(1,0,0,1,225,0)" style="display: block; fill: rgb(255, 255, 255);"><tspan dy="0" >[Software System]</tspan></text><text  id="v-1566" font-size="24px" xml:space="preserve" y="160.3" text-anchor="middle" font-family="Tahoma, Verdana, Helvetica, Arial" fill="#ffffff" dominant-baseline="hanging" transform="matrix(1,0,0,1,225,0)" style="display: block; fill: rgb(255, 255, 255);"><tspan dy="0" >Sensores que capturan datos</tspan><tspan dy="1.2em" x="0" >biométricos.</tspan></text><g  id="v-1567" color="#ffffff" transform="matrix(1,0,0,1,222.5,268)" style="fill: rgb(255, 255, 255);" display="none"><g ></g><g ></g><g ></g><g ></g></g><image  id="v-1568"></image></g></g><!--z-index:24--><g   id="j_136"  transform="translate(990,867)" style=""><g  id="v-1575" style="opacity: 1;"><rect  id="v-1576" rx="1" ry="1" stroke-width="2" pointer-events="visiblePainted" fill="#e37222" stroke="#cc671f" stroke-dasharray="" width="450" height="300" style="fill: rgb(227, 114, 34); stroke: rgb(204, 103, 31);"></rect><text  id="v-1577" font-size="33.599999999999994px" xml:space="preserve" y="72.5" font-weight="bold" text-anchor="middle" pointer-events="visible" font-family="Tahoma, Verdana, Helvetica, Arial" fill="#ffffff" dominant-baseline="hanging" transform="matrix(1,0,0,1,225,0)" style="fill: rgb(255, 255, 255);"><tspan dy="0" >CortiSense System</tspan></text><text  id="v-1578" font-size="16.799999999999997px" xml:space="preserve" y="114.1" text-anchor="middle" font-family="Tahoma, Verdana, Helvetica, Arial" fill="#ffffff" dominant-baseline="hanging" transform="matrix(1,0,0,1,225,0)" style="display: block; fill: rgb(255, 255, 255);"><tspan dy="0" >[Software System]</tspan></text><text  id="v-1579" font-size="24px" xml:space="preserve" y="145.89999999999998" text-anchor="middle" font-family="Tahoma, Verdana, Helvetica, Arial" fill="#ffffff" dominant-baseline="hanging" transform="matrix(1,0,0,1,225,0)" style="display: block; fill: rgb(255, 255, 255);"><tspan dy="0" >Plataforma para el monitoreo</tspan><tspan dy="1.2em" x="0" >preventivo de fatiga y gestión</tspan><tspan dy="1.2em" x="0" >hospitalaria.</tspan></text><g  id="v-1580" color="#ffffff" transform="matrix(1,0,0,1,210,268)" style="fill: rgb(255, 255, 255);" display="none"><g  transform="translate(5 0)"><svg xmlns="http://www.w3.org/2000/svg" width="20" height="20" fill="currentColor" viewBox="0 0 16 16"><path fill-rule="evenodd" d="M6.5 12a5.5 5.5 0 1 0 0-11 5.5 5.5 0 0 0 0 11zM13 6.5a6.5 6.5 0 1 1-13 0 6.5 6.5 0 0 1 13 0z"></path><path d="M10.344 11.742c.03.04.062.078.098.115l3.85 3.85a1 1 0 0 0 1.415-1.414l-3.85-3.85a1.007 1.007 0 0 0-.115-.1 6.538 6.538 0 0 1-1.398 1.4z"></path><path fill-rule="evenodd" d="M6.5 3a.5.5 0 0 1 .5.5V6h2.5a.5.5 0 0 1 0 1H7v2.5a.5.5 0 0 1-1 0V7H3.5a.5.5 0 0 1 0-1H6V3.5a.5.5 0 0 1 .5-.5z"></path></svg></g><g ></g><g ></g><g ></g></g><image  id="v-1581"></image></g></g><!--z-index:25--><g   id="j_137"  style="opacity: 1;"><path fill="none" cursor="pointer" stroke="transparent" stroke-linecap="round" joint-selector="wrapper" id="v-1596" stroke-width="10" stroke-linejoin="round" d="M 625 342 L 810 342 C 816.6666666666666 342 821.6666666666666 345 825 351 L 1127.22 867" style="stroke-width: 10px;"></path><path fill="none" pointer-events="none" joint-selector="line" id="v-1595" stroke="#444444" stroke-width="2" stroke-linejoin="round" stroke-dasharray="8 8" d="M 625 342 L 810 342 C 816.6666666666666 342 821.6666666666666 345 825 351 L 1127.22 867" marker-end="url(#v-21252848929)"></path><g id="v-1585" ><g id="v-1586"  label-idx="0" cursor="move" transform="matrix(1,0,0,1,819.0988159179688,331.0658874511719)" style="cursor: default;"><rect joint-selector="rect" id="v-1590" fill="#ffffff" rx="3" ry="3" x="-93.06758880615234" y="-32.06511688232422" width="184.83197021484375" height="58.18605041503906" pointer-events="none"  style="display: block;"></rect><text joint-selector="text" id="v-1589" font-size="24px" xml:space="preserve" fill="#444444" text-anchor="middle" pointer-events="none" font-family="Tahoma, Verdana, Helvetica, Arial" font-weight="normal"  style="display: block;"><tspan dy="-0.3em" >Visita y configura</tspan><tspan dy="1.2em" x="0" >hospital en</tspan></text></g><g id="v-1587"  label-idx="1" cursor="move" transform="matrix(1,0,0,1,819.0988159179688,375.8658752441406)" style="cursor: default;"><rect joint-selector="rect" id="v-1592" fill="#ffffff" rx="3" ry="3" x="-30.816497802734375" y="-10.783256530761719" width="61.96453094482422" height="20.344186782836914"  pointer-events="none" style="display: block;"></rect><text joint-selector="text" id="v-1591" font-size="16.799999999999997px" xml:space="preserve" fill="#444444" text-anchor="middle" pointer-events="none" font-family="Tahoma, Verdana, Helvetica, Arial" font-weight="normal"  style="display: block;"><tspan dy="0.3em" >[HTTPS]</tspan></text></g><g id="v-1588"  label-idx="2" cursor="move" transform="matrix(1,0,0,1,914.6985473632812,561.0218505859375)" style="cursor: default;"><rect joint-selector="rect" id="v-1594" fill="#ffffff" rx="3" ry="3" x="0" y="0" width="0" height="0"  display="none"></rect><text joint-selector="text" id="v-1593" fill="#000000" font-size="14" text-anchor="middle" text-vertical-anchor="middle" pointer-events="none"></text></g></g></g><!--z-index:26--><g   id="j_138"  style="opacity: 1;"><path fill="none" cursor="pointer" stroke="transparent" stroke-linecap="round" joint-selector="wrapper" id="v-1611" stroke-width="10" stroke-linejoin="round" d="M 625 792 L 810 792 C 816.6666666666666 792 823 793.6666666666666 829 797 L 990 888.84" style="stroke-width: 10px;"></path><path fill="none" pointer-events="none" joint-selector="line" id="v-1610" stroke="#444444" stroke-width="2" stroke-linejoin="round" stroke-dasharray="8 8" d="M 625 792 L 810 792 C 816.6666666666666 792 823 793.6666666666666 829 797 L 990 888.84" marker-end="url(#v-21252848929)"></path><g id="v-1600" ><g id="v-1601"  label-idx="0" cursor="move" transform="matrix(1,0,0,1,819.67578125,779.83056640625)" style="cursor: default;"><rect joint-selector="rect" id="v-1605" fill="#ffffff" rx="3" ry="3" x="-61.59767532348633" y="-32.06511688232422" width="123.37394714355469" height="58.18605041503906" pointer-events="none"  style="display: block;"></rect><text joint-selector="text" id="v-1604" font-size="24px" xml:space="preserve" fill="#444444" text-anchor="middle" pointer-events="none" font-family="Tahoma, Verdana, Helvetica, Arial" font-weight="normal"  style="display: block;"><tspan dy="-0.3em" >Monitorea</tspan><tspan dy="1.2em" x="0" >personal en</tspan></text></g><g id="v-1602"  label-idx="1" cursor="move" transform="matrix(1,0,0,1,819.67578125,824.6305541992188)" style="cursor: default;"><rect joint-selector="rect" id="v-1607" fill="#ffffff" rx="3" ry="3" x="-30.816497802734375" y="-10.783256530761719" width="61.96453094482422" height="20.344186782836914"  pointer-events="none" style="display: block;"></rect><text joint-selector="text" id="v-1606" font-size="16.799999999999997px" xml:space="preserve" fill="#444444" text-anchor="middle" pointer-events="none" font-family="Tahoma, Verdana, Helvetica, Arial" font-weight="normal"  style="display: block;"><tspan dy="0.3em" >[HTTPS]</tspan></text></g><g id="v-1603"  label-idx="2" cursor="move" transform="matrix(1,0,0,1,810.0095825195312,833.1193237304688)" style="cursor: default;"><rect joint-selector="rect" id="v-1609" fill="#ffffff" rx="3" ry="3" x="0" y="0" width="0" height="0"  display="none"></rect><text joint-selector="text" id="v-1608" fill="#000000" font-size="14" text-anchor="middle" text-vertical-anchor="middle" pointer-events="none"></text></g></g></g><!--z-index:27--><g   id="j_139"  style="opacity: 1;"><path fill="none" cursor="pointer" stroke="transparent" stroke-linecap="round" joint-selector="wrapper" id="v-1626" stroke-width="10" stroke-linejoin="round" d="M 625 1242 L 810 1242 C 816.6666666666666 1242 823 1240.3333333333333 829 1237 L 990 1145.16" style="stroke-width: 10px;"></path><path fill="none" pointer-events="none" joint-selector="line" id="v-1625" stroke="#444444" stroke-width="2" stroke-linejoin="round" stroke-dasharray="8 8" d="M 625 1242 L 810 1242 C 816.6666666666666 1242 823 1240.3333333333333 829 1237 L 990 1145.16" marker-end="url(#v-21252848929)"></path><g id="v-1615" ><g id="v-1616"  label-idx="0" cursor="move" transform="matrix(1,0,0,1,819.67578125,1227.3695068359375)" style="cursor: default;"><rect joint-selector="rect" id="v-1620" fill="#ffffff" rx="3" ry="3" x="-63.398983001708984" y="-32.06511688232422" width="124.70930480957031" height="58.18605041503906" pointer-events="none"  style="display: block;"></rect><text joint-selector="text" id="v-1619" font-size="24px" xml:space="preserve" fill="#444444" text-anchor="middle" pointer-events="none" font-family="Tahoma, Verdana, Helvetica, Arial" font-weight="normal"  style="display: block;"><tspan dy="-0.3em" >Visualiza su</tspan><tspan dy="1.2em" x="0" >estado en</tspan></text></g><g id="v-1617"  label-idx="1" cursor="move" transform="matrix(1,0,0,1,819.67578125,1272.16943359375)" style="cursor: default;"><rect joint-selector="rect" id="v-1622" fill="#ffffff" rx="3" ry="3" x="-30.816497802734375" y="-10.783256530761719" width="61.96453094482422" height="20.344186782836914"  pointer-events="none" style="display: block;"></rect><text joint-selector="text" id="v-1621" font-size="16.799999999999997px" xml:space="preserve" fill="#444444" text-anchor="middle" pointer-events="none" font-family="Tahoma, Verdana, Helvetica, Arial" font-weight="normal"  style="display: block;"><tspan dy="0.3em" >[HTTPS]</tspan></text></g><g id="v-1618"  label-idx="2" cursor="move" transform="matrix(1,0,0,1,810.0095825195312,1280.480712890625)" style="cursor: default;"><rect joint-selector="rect" id="v-1624" fill="#ffffff" rx="3" ry="3" x="0" y="0" width="0" height="0"  display="none"></rect><text joint-selector="text" id="v-1623" fill="#000000" font-size="14" text-anchor="middle" text-vertical-anchor="middle" pointer-events="none"></text></g></g></g><!--z-index:28--><g   id="j_140"  style="opacity: 1;"><path fill="none" cursor="pointer" stroke="transparent" stroke-linecap="round" joint-selector="wrapper" id="v-1641" stroke-width="10" stroke-linejoin="round" d="M 650 1642 L 810 1642 C 816.6666666666666 1641.9999999999998 821.6666666666666 1639.333333333333 825 1634 L 1120.2 1167" style="stroke-width: 10px;"></path><path fill="none" pointer-events="none" joint-selector="line" id="v-1640" stroke="#444444" stroke-width="2" stroke-linejoin="round" stroke-dasharray="8 8" d="M 650 1642 L 810 1642 C 816.6666666666666 1641.9999999999998 821.6666666666666 1639.333333333333 825 1634 L 1120.2 1167" marker-end="url(#v-21252848929)"></path><g id="v-1630" ><g id="v-1631"  label-idx="0" cursor="move" transform="matrix(1,0,0,1,819.2425537109375,1626.3255615234375)" style="cursor: default;"><rect joint-selector="rect" id="v-1635" fill="#ffffff" rx="3" ry="3" x="-95.23975372314453" y="-17.665115356445312" width="191.4365234375" height="29.38604736328125" pointer-events="none"  style="display: block;"></rect><text joint-selector="text" id="v-1634" font-size="24px" xml:space="preserve" fill="#444444" text-anchor="middle" pointer-events="none" font-family="Tahoma, Verdana, Helvetica, Arial" font-weight="normal"  style="display: block;"><tspan dy="0.3em" >Envía telemetría a</tspan></text></g><g id="v-1632"  label-idx="1" cursor="move" transform="matrix(1,0,0,1,819.2425537109375,1656.7255859375)" style="cursor: default;"><rect joint-selector="rect" id="v-1637" fill="#ffffff" rx="3" ry="3" x="-30.816497802734375" y="-10.783256530761719" width="61.96453094482422" height="20.344186782836914"  pointer-events="none" style="display: block;"></rect><text joint-selector="text" id="v-1636" font-size="16.799999999999997px" xml:space="preserve" fill="#444444" text-anchor="middle" pointer-events="none" font-family="Tahoma, Verdana, Helvetica, Arial" font-weight="normal"  style="display: block;"><tspan dy="0.3em" >[HTTPS]</tspan></text></g><g id="v-1633"  label-idx="2" cursor="move" transform="matrix(1,0,0,1,915.0910034179688,1501.0582275390625)" style="cursor: default;"><rect joint-selector="rect" id="v-1639" fill="#ffffff" rx="3" ry="3" x="1.1368683772161603e-13" y="2.2737367544323206e-13" width="0" height="0"  display="none"></rect><text joint-selector="text" id="v-1638" fill="#000000" font-size="14" text-anchor="middle" text-vertical-anchor="middle" pointer-events="none"></text></g></g></g><!--z-index:29--><g   id="j_141"  style="opacity: 1;"><path fill="none" cursor="pointer" stroke="transparent" stroke-linecap="round" joint-selector="wrapper" id="v-1656" stroke-width="10" stroke-linejoin="round" d="M 1440 917.32 L 1601 846 C 1607 843.3333333333333 1613.3333333333333 841.9999999999999 1620 842 L 1780 842" style="stroke-width: 10px;"></path><path fill="none" pointer-events="none" joint-selector="line" id="v-1655" stroke="#444444" stroke-width="2" stroke-linejoin="round" stroke-dasharray="8 8" d="M 1440 917.32 L 1601 846 C 1607 843.3333333333333 1613.3333333333333 841.9999999999999 1620 842 L 1780 842" marker-end="url(#v-21252848929)"></path><g id="v-1645" ><g id="v-1646"  label-idx="0" cursor="move" transform="matrix(1,0,0,1,1610.212890625,829.6078491210938)" style="cursor: default;"><rect joint-selector="rect" id="v-1650" fill="#ffffff" rx="3" ry="3" x="-92.2375717163086" y="-32.06511688232422" width="184.64430236816406" height="58.18605041503906" pointer-events="none"  style="display: block;"></rect><text joint-selector="text" id="v-1649" font-size="24px" xml:space="preserve" fill="#444444" text-anchor="middle" pointer-events="none" font-family="Tahoma, Verdana, Helvetica, Arial" font-weight="normal"  style="display: block;"><tspan dy="-0.3em" >Procesa</tspan><tspan dy="1.2em" x="0" >suscripciones con</tspan></text></g><g id="v-1647"  label-idx="1" cursor="move" transform="matrix(1,0,0,1,1610.212890625,874.4078369140625)" style="cursor: default;"><rect joint-selector="rect" id="v-1652" fill="#ffffff" rx="3" ry="3" x="-53.75668716430664" y="-10.783256530761719" width="107.83159637451172" height="20.344186782836914"  pointer-events="none" style="display: block;"></rect><text joint-selector="text" id="v-1651" font-size="16.799999999999997px" xml:space="preserve" fill="#444444" text-anchor="middle" pointer-events="none" font-family="Tahoma, Verdana, Helvetica, Arial" font-weight="normal"  style="display: block;"><tspan dy="0.3em" >[HTTPS/JSON]</tspan></text></g><g id="v-1648"  label-idx="2" cursor="move" transform="matrix(1,0,0,1,1592.5897216796875,885.1277465820312)" style="cursor: default;"><rect joint-selector="rect" id="v-1654" fill="#ffffff" rx="3" ry="3" x="0" y="0" width="0" height="0"  display="none"></rect><text joint-selector="text" id="v-1653" fill="#000000" font-size="14" text-anchor="middle" text-vertical-anchor="middle" pointer-events="none"></text></g></g></g><!--z-index:30--><g   id="j_142"  style="opacity: 1;"><path fill="none" cursor="pointer" stroke="transparent" stroke-linecap="round" joint-selector="wrapper" id="v-1671" stroke-width="10" stroke-linejoin="round" d="M 1440 1116.68 L 1601 1188 C 1607 1190.6666666666665 1613.3333333333333 1192 1620 1192 L 1780 1192" style="stroke-width: 10px;"></path><path fill="none" pointer-events="none" joint-selector="line" id="v-1670" stroke="#444444" stroke-width="2" stroke-linejoin="round" stroke-dasharray="8 8" d="M 1440 1116.68 L 1601 1188 C 1607 1190.6666666666665 1613.3333333333333 1192 1620 1192 L 1780 1192" marker-end="url(#v-21252848929)"></path><g id="v-1660" ><g id="v-1661"  label-idx="0" cursor="move" transform="matrix(1,0,0,1,1610.212890625,1177.5921630859375)" style="cursor: default;"><rect joint-selector="rect" id="v-1665" fill="#ffffff" rx="3" ry="3" x="-81.27078247070312" y="-32.06511688232422" width="160.87161254882812" height="58.18605041503906" pointer-events="none"  style="display: block;"></rect><text joint-selector="text" id="v-1664" font-size="24px" xml:space="preserve" fill="#444444" text-anchor="middle" pointer-events="none" font-family="Tahoma, Verdana, Helvetica, Arial" font-weight="normal"  style="display: block;"><tspan dy="-0.3em" >Valida usuarios</tspan><tspan dy="1.2em" x="0" >con</tspan></text></g><g id="v-1662"  label-idx="1" cursor="move" transform="matrix(1,0,0,1,1610.212890625,1222.3922119140625)" style="cursor: default;"><rect joint-selector="rect" id="v-1667" fill="#ffffff" rx="3" ry="3" x="-53.75668716430664" y="-10.783256530761719" width="107.83159637451172" height="20.344186782836914"  pointer-events="none" style="display: block;"></rect><text joint-selector="text" id="v-1666" font-size="16.799999999999997px" xml:space="preserve" fill="#444444" text-anchor="middle" pointer-events="none" font-family="Tahoma, Verdana, Helvetica, Arial" font-weight="normal"  style="display: block;"><tspan dy="0.3em" >[HTTPS/JSON]</tspan></text></g><g id="v-1663"  label-idx="2" cursor="move" transform="matrix(1,0,0,1,1592.5897216796875,1228.47216796875)" style="cursor: default;"><rect joint-selector="rect" id="v-1669" fill="#ffffff" rx="3" ry="3" x="0" y="0" width="0" height="0"  display="none"></rect><text joint-selector="text" id="v-1668" fill="#000000" font-size="14" text-anchor="middle" text-vertical-anchor="middle" pointer-events="none"></text></g></g></g><!--z-index:31--><!--z-index:32--><!--z-index:33--><!--z-index:34--><!--z-index:35--><!--z-index:36--><!--z-index:37--><!--z-index:38--><!--z-index:39--><!--z-index:40--><!--z-index:41--><!--z-index:42--><!--z-index:43--><!--z-index:44--><!--z-index:45--><!--z-index:46--><!--z-index:47--><!--z-index:48--><!--z-index:49--><!--z-index:50--><!--z-index:51--><!--z-index:52--><!--z-index:53--><!--z-index:54--><!--z-index:55--><!--z-index:56--><!--z-index:57--><!--z-index:58--><!--z-index:59--><!--z-index:60--><!--z-index:61--><!--z-index:62--><!--z-index:63--><!--z-index:64--><!--z-index:65--></g><g  style="user-select: none;"></g><g ></g><g  display="none"></g></g></svg>